<svg xmlns="http://www.w3.org/2000/svg" width="14.721" height="14.952" viewBox="0 0 14.721 14.952">
  <path id="Alert" d="M6.111,2.205A.685.685,0,0,1,6.6,2h5.523a.685.685,0,0,1,.488.205l3.909,3.97a.706.706,0,0,1,.2.5v5.61a.706.706,0,0,1-.2.5l-3.909,3.97a.684.684,0,0,1-.488.205H6.6a.685.685,0,0,1-.488-.205L2.2,12.776a.706.706,0,0,1-.2-.5V6.671a.706.706,0,0,1,.2-.5Zm.774,1.2-3.5,3.56V11.99l3.5,3.56h4.951l3.5-3.56V6.961l-3.5-3.56ZM9.361,6.065a.7.7,0,0,1,.69.7v2.71a.69.69,0,1,1-1.38,0V6.766A.7.7,0,0,1,9.361,6.065Zm0,5.42a.7.7,0,0,0,0,1.4h.007a.7.7,0,0,0,0-1.4Z" transform="translate(-2 -2)" fill="#8697a8" fill-rule="evenodd"/>
</svg>
