<svg id="Delete" xmlns="http://www.w3.org/2000/svg" width="16.759" height="16" viewBox="0 0 16.759 16">
  <path id="Delete-2" data-name="Delete" d="M8.859,3.705a.872.872,0,0,1,.57-.205h3.34a.873.873,0,0,1,.57.205.657.657,0,0,1,.236.495v.7H8.623V4.2A.657.657,0,0,1,8.859,3.705ZM6.9,4.9V4.2a2.064,2.064,0,0,1,.742-1.556A2.742,2.742,0,0,1,9.429,2h3.34a2.741,2.741,0,0,1,1.792.644A2.064,2.064,0,0,1,15.3,4.2v.7h3.311a.813.813,0,0,1,.864.75.813.813,0,0,1-.864.75h-.806v9.4a2.064,2.064,0,0,1-.742,1.556A2.741,2.741,0,0,1,15.275,18H6.924a2.742,2.742,0,0,1-1.792-.644A2.064,2.064,0,0,1,4.39,15.8V6.4H3.584a.813.813,0,0,1-.864-.75.813.813,0,0,1,.864-.75ZM6.118,15.8V6.4h9.963v9.4a.657.657,0,0,1-.236.495.872.872,0,0,1-.57.2H6.924a.872.872,0,0,1-.57-.2A.657.657,0,0,1,6.118,15.8ZM9.429,8.525a.813.813,0,0,1,.864.75v4.35a.813.813,0,0,1-.864.75.813.813,0,0,1-.864-.75V9.275A.813.813,0,0,1,9.429,8.525Zm4.2.75a.873.873,0,0,0-1.728,0v4.35a.873.873,0,0,0,1.728,0Z" transform="translate(-2.72 -2)" fill="#303d4d" fill-rule="evenodd"/>
</svg>
