<svg xmlns="http://www.w3.org/2000/svg" width="16" height="16.001" viewBox="0 0 16 16.001">
  <g id="edit_2" data-name="edit 2" transform="translate(0 0)">
    <path id="edit_2-2" data-name="edit 2" d="M13.356,2.246a.779.779,0,1,1,1.1,1.1l-6.7,6.7-1.468.367.367-1.468ZM13.907.518a2.279,2.279,0,0,0-1.611.667L5.449,8.031a.75.75,0,0,0-.2.348l-.721,2.883a.75.75,0,0,0,.91.91l2.883-.721a.751.751,0,0,0,.348-.2l6.846-6.846A2.279,2.279,0,0,0,13.907.518ZM2.377,2.047A2.191,2.191,0,0,0,.186,4.238V14.327a2.191,2.191,0,0,0,2.191,2.191H12.466a2.191,2.191,0,0,0,2.191-2.191V9.283a.75.75,0,0,0-1.5,0v5.044a.691.691,0,0,1-.691.691H2.377a.691.691,0,0,1-.691-.691V4.238a.691.691,0,0,1,.691-.691H7.421a.75.75,0,0,0,0-1.5Z" transform="translate(-0.186 -0.518)" fill="#1c63b8" fill-rule="evenodd"/>
  </g>
</svg>
