<svg xmlns="http://www.w3.org/2000/svg" width="34.836" height="31.328" viewBox="0 0 34.836 31.328">
  <g id="_406" data-name="406" transform="translate(0)" opacity="0.494">
    <g id="Group_216" data-name="Group 216" transform="translate(15.384)">
      <path id="Path_413" data-name="Path 413" d="M1899.937,3308.083a.885.885,0,0,0-.757-1.6c-10.012,4.734-16.521.271-16.793.08a.884.884,0,0,0-1.026,1.44,16.012,16.012,0,0,0,8.856,2.416A22.617,22.617,0,0,0,1899.937,3308.083Z" transform="translate(-1880.991 -3298.675)" fill="#fff"/>
      <path id="Path_414" data-name="Path 414" d="M1899.481,3310.615c-6.864,3.243-12.152,2.095-14.69,1.123a.884.884,0,1,0-.634,1.651,17.929,17.929,0,0,0,6.385,1.136,22.571,22.571,0,0,0,9.7-2.31.885.885,0,0,0-.757-1.6Z" transform="translate(-1881.292 -3299.153)" fill="#fff"/>
      <path id="Path_415" data-name="Path 415" d="M1899.481,3314.744c-6.859,3.241-12.148,2.095-14.689,1.123a.885.885,0,0,0-.632,1.653,17.927,17.927,0,0,0,6.383,1.134,22.559,22.559,0,0,0,9.695-2.31.885.885,0,0,0-.757-1.6Z" transform="translate(-1881.292 -3299.632)" fill="#fff"/>
      <path id="Path_416" data-name="Path 416" d="M1899.481,3318.871c-6.859,3.243-12.149,2.1-14.692,1.125a.884.884,0,1,0-.63,1.652,17.926,17.926,0,0,0,6.383,1.134,22.551,22.551,0,0,0,9.7-2.312.885.885,0,0,0-.757-1.6Z" transform="translate(-1881.292 -3300.11)" fill="#fff"/>
      <path id="Path_417" data-name="Path 417" d="M1884.157,3326.291a17.9,17.9,0,0,0,6.385,1.138,22.581,22.581,0,0,0,9.7-2.313.884.884,0,0,0-.757-1.6c-6.866,3.245-12.152,2.094-14.69,1.122a.884.884,0,0,0-.634,1.651Z" transform="translate(-1881.292 -3300.648)" fill="#fff"/>
      <path id="Path_418" data-name="Path 418" d="M1899.481,3327.647c-6.859,3.241-12.148,2.1-14.692,1.124a.884.884,0,1,0-.63,1.651,17.909,17.909,0,0,0,6.383,1.135,22.564,22.564,0,0,0,9.7-2.31.884.884,0,0,0-.757-1.6Z" transform="translate(-1881.292 -3301.126)" fill="#fff"/>
      <path id="Path_419" data-name="Path 419" d="M1890.739,3305.187c5.28,0,9.56-1.685,9.56-3.763s-4.279-3.761-9.56-3.761-9.56,1.684-9.56,3.761S1885.459,3305.187,1890.739,3305.187Zm-3.188-5.064c.212-.593,1.8-.729,2.857-.75v-.35a.332.332,0,0,1,.663,0v.359a13.456,13.456,0,0,1,2.712.347.331.331,0,1,1-.2.632,13.961,13.961,0,0,0-2.98-.328,5.891,5.891,0,0,0-2.463.389c.106.088.627.368,2.538.348h.115c2.493,0,2.982.407,3.151.723a.573.573,0,0,1-.019.586c-.212.594-1.8.73-2.857.751v.337a.332.332,0,0,1-.663,0v-.344a14.793,14.793,0,0,1-2.707-.272.332.332,0,0,1-.224-.413.329.329,0,0,1,.412-.223,16.3,16.3,0,0,0,2.984.256,5.891,5.891,0,0,0,2.463-.39c-.105-.087-.631-.354-2.538-.347h-.115c-2.508,0-2.982-.408-3.151-.725A.573.573,0,0,1,1887.551,3300.123Z" transform="translate(-1881.013 -3297.663)" fill="#fff"/>
    </g>
    <g id="Group_217" data-name="Group 217" transform="translate(0 9.072)">
      <path id="Path_420" data-name="Path 420" d="M1872.816,3320.179a22.616,22.616,0,0,0,9.72-2.336.884.884,0,0,0-.754-1.6c-10.007,4.732-16.514.277-16.793.08a.885.885,0,0,0-1.027,1.44A16,16,0,0,0,1872.816,3320.179Z" transform="translate(-1863.591 -3308.877)" fill="#fff"/>
      <path id="Path_421" data-name="Path 421" d="M1881.782,3320.375c-10,4.723-16.5.283-16.792.08a.884.884,0,1,0-1.027,1.438,15.98,15.98,0,0,0,8.853,2.416,22.635,22.635,0,0,0,9.72-2.334.884.884,0,1,0-.754-1.6Z" transform="translate(-1863.591 -3309.356)" fill="#fff"/>
      <path id="Path_422" data-name="Path 422" d="M1881.782,3324.5c-10.008,4.73-16.514.277-16.793.08a.885.885,0,0,0-1.027,1.44,16,16,0,0,0,8.854,2.416,22.616,22.616,0,0,0,9.72-2.336.884.884,0,0,0-.754-1.6Z" transform="translate(-1863.591 -3309.834)" fill="#fff"/>
      <path id="Path_423" data-name="Path 423" d="M1881.782,3328.633c-10.009,4.728-16.515.276-16.794.079a.884.884,0,0,0-1.026,1.44,16,16,0,0,0,8.853,2.416,22.641,22.641,0,0,0,9.72-2.336.884.884,0,1,0-.754-1.6Z" transform="translate(-1863.591 -3310.312)" fill="#fff"/>
      <path id="Path_424" data-name="Path 424" d="M1873.334,3315.475c5.3,0,9.6-1.69,9.6-3.776s-4.3-3.775-9.6-3.775-9.595,1.69-9.595,3.775S1868.034,3315.475,1873.334,3315.475Zm.057-3.73h-.114c-2.433.011-2.923-.4-3.089-.713a.568.568,0,0,1,.018-.582c.206-.581,1.76-.717,2.8-.737v-.337a.332.332,0,0,1,.663,0v.345a13.3,13.3,0,0,1,2.655.339.334.334,0,0,1,.218.416.33.33,0,0,1-.416.217,13.66,13.66,0,0,0-2.921-.323,5.741,5.741,0,0,0-2.4.377c.11.086.607.338,2.475.334h.114c2.4.012,2.927.4,3.094.713a.568.568,0,0,1-.018.58c-.209.583-1.763.719-2.8.737v.327a.332.332,0,0,1-.663,0v-.332a14.279,14.279,0,0,1-2.65-.27.331.331,0,0,1-.223-.413.335.335,0,0,1,.412-.223,15.754,15.754,0,0,0,2.923.252,5.8,5.8,0,0,0,2.4-.375C1875.756,3311.992,1875.253,3311.762,1873.391,3311.744Z" transform="translate(-1863.608 -3307.923)" fill="#fff"/>
    </g>
  </g>
</svg>
