<svg xmlns="http://www.w3.org/2000/svg" width="30.665" height="33.323" viewBox="0 0 30.665 33.323">
  <path id="_13" data-name="13" d="M1558.174,3311.168a1.128,1.128,0,0,0,.029-.249v-2.894a1.483,1.483,0,0,1,1.5-1.464h25.372a1.179,1.179,0,1,0,0-2.358H1559.7a3.872,3.872,0,0,0-3.911,3.822v2.894a1.147,1.147,0,0,0,.04.288v26.318h30.625v-26.357h-28.28Zm8.979,7.89c.194-.166.268,0,.268,0,.341-2.3,1.806-4.028,3.563-4.028,1.651,0,3.045,1.527,3.489,3.617a.381.381,0,0,1,.142.1,1.945,1.945,0,0,1,.168,2.2c-.123.279-.255.256-.255.256a5.758,5.758,0,0,1-1,2.468l-.284.346-.012.014.007-.007-.015.018a3.12,3.12,0,0,1-2.245,1.038,3.417,3.417,0,0,1-2.172-.978,5.454,5.454,0,0,1-1.355-2.829.126.126,0,0,1-.168-.07A2.109,2.109,0,0,1,1567.153,3319.058Zm6.388,4.6-.008,0,.006-.009Zm-4.759.417c-.008-.007-.018-.011-.026-.017v-.007A.276.276,0,0,0,1568.782,3324.08Zm12.585,8.336h-20.406v-2.4c.1-3.073,7.265-3.689,7.265-3.689a2.632,2.632,0,0,0,.468-1.126,3.779,3.779,0,0,0,2.269.9h.061a3.652,3.652,0,0,0,2.573-1.194,3.212,3.212,0,0,0,.5,1.417s7.169.616,7.267,3.689Z" transform="translate(-1555.789 -3304.203)" fill="#fff" opacity="0.494"/>
</svg>
