<svg xmlns="http://www.w3.org/2000/svg" width="32.879" height="35.977" viewBox="0 0 32.879 35.977">
  <g id="Group_218" data-name="Group 218" transform="translate(0)" opacity="0.494">
    <path id="Path_427" data-name="Path 427" d="M1476.578,3316.7v-3.865a1.077,1.077,0,0,0-.912-1.185h-1.255a1.075,1.075,0,0,0-.91,1.185v3.865a1.079,1.079,0,0,0,.91,1.188h1.255A1.081,1.081,0,0,0,1476.578,3316.7Z" transform="translate(-1473.501 -3303.819)" fill="#fff" fill-rule="evenodd"/>
    <path id="Path_428" data-name="Path 428" d="M1505.472,3311.65h-1.256a1.075,1.075,0,0,0-.911,1.185v3.865a1.079,1.079,0,0,0,.911,1.188h1.256a1.081,1.081,0,0,0,.909-1.188v-3.865A1.077,1.077,0,0,0,1505.472,3311.65Z" transform="translate(-1473.502 -3303.819)" fill="#fff" fill-rule="evenodd"/>
    <path id="Path_429" data-name="Path 429" d="M1502.563,3332.233h-25.291l-.9-.945s-1.151,3.48.66,4.3h2.9a.626.626,0,0,0-.083.3v2.634a1.277,1.277,0,0,0,1.274,1.275h2.287a1.277,1.277,0,0,0,1.274-1.275v-2.634a.637.637,0,0,0-.083-.3h10.835a.626.626,0,0,0-.083.3v2.634a1.274,1.274,0,0,0,1.27,1.275h2.289a1.276,1.276,0,0,0,1.273-1.275v-2.634a.637.637,0,0,0-.083-.3h2.7c1.552-.764.661-4.3.661-4.3Z" transform="translate(-1473.501 -3303.819)" fill="#fff" fill-rule="evenodd"/>
    <path id="Path_430" data-name="Path 430" d="M1489.872,3308.2c5.267,0,12.2.137,12.2.137v-4.07s-5.159-.449-12.307-.449h-.14c-7.147,0-12.168.449-12.168.449v4.07s6.936-.137,12.2-.137Z" transform="translate(-1473.501 -3303.819)" fill="#fff" fill-rule="evenodd"/>
    <path id="Path_431" data-name="Path 431" d="M1500.385,3309.05h-21.045c-1.233,0-1.593.987-1.756,1.685l-1.007,8.8v11.084a1.6,1.6,0,0,0,1.616,1.586h23.493a1.6,1.6,0,0,0,1.617-1.586l-.006-11.084-1.2-8.8C1501.945,3310.037,1501.552,3309.05,1500.385,3309.05Zm-8.785,4.063a.853.853,0,0,1,.852-.853h6.257a.853.853,0,0,1,.854.853l.85,5.291a.85.85,0,0,1-.85.852h-7.111a.852.852,0,0,1-.852-.852Zm-11.19,0a.852.852,0,0,1,.852-.853h6.258a.853.853,0,0,1,.852.853v5.291a.852.852,0,0,1-.852.852h-7.11a.852.852,0,0,1-.854-.852Zm2.511,15.9a.653.653,0,0,1-.653.654h-2.147a.653.653,0,0,1-.654-.654v-1.456a.654.654,0,0,1,.654-.654h2.147a.653.653,0,0,1,.653.654Zm-.416-5.2h-2.623a.654.654,0,1,1,0-1.307h2.623a.654.654,0,1,1,0,1.307Zm11.427,6.136h-8.026a.654.654,0,0,1,0-1.308h8.026a.654.654,0,0,1,0,1.308Zm0-3.067h-8.026a.654.654,0,1,1,0-1.308h8.026a.654.654,0,0,1,0,1.308Zm0-3.069h-8.026a.654.654,0,1,1,0-1.307h8.026a.654.654,0,0,1,0,1.307Zm6.506,5.2a.654.654,0,0,1-.654.654h-2.148a.653.653,0,0,1-.653-.654v-1.456a.653.653,0,0,1,.653-.654h2.148a.654.654,0,0,1,.654.654Zm-.417-5.2H1497.4a.654.654,0,1,1,0-1.307h2.622a.654.654,0,1,1,0,1.307Z" transform="translate(-1473.501 -3303.819)" fill="#fff" fill-rule="evenodd"/>
  </g>
</svg>
