<svg xmlns="http://www.w3.org/2000/svg" width="22.811" height="24.711" viewBox="0 0 22.811 24.711">
  <g id="Group_236" data-name="Group 236" transform="translate(0)">
    <path id="Path_2877" data-name="Path 2877" d="M1374.467,1359.092H1373a1.742,1.742,0,0,1-.077-.834q-.007-5.824,0-11.648c0-1.233-.374-1.61-1.615-1.611q-6.656,0-13.312,0c-1.208,0-1.565.362-1.565,1.57q0,9.256,0,18.512c0,1.143.384,1.523,1.538,1.523h11.141a5.645,5.645,0,0,0,1.136,1.428c-.185.191-.379.111-.547.111q-6,.008-11.995,0a2.613,2.613,0,0,1-2.849-2.767q-.029-9.568,0-19.136a2.622,2.622,0,0,1,2.832-2.793q7,0,14.005,0a2.631,2.631,0,0,1,2.778,2.776q0,6.1,0,12.2Z" transform="translate(-1354.837 -1343.45)" fill="#3dcc79"/>
    <path id="Path_2878" data-name="Path 2878" d="M1388.048,1440.809l.49.116.055.858h-10.48v-9.065h13.182v3.832l-.844.583c-.033-.378-.062-.7-.094-1.069h-2.31Zm-4.321.023v-4.762h-4.685v4.762Zm1.008-4.772v4.764h2.294v-4.764Zm-.993-2.382h-4.7v1.345h4.7Zm1.027,0a3.118,3.118,0,0,0,.024,1.356h2.226v-1.356Zm3.293,0v1.358h2.288v-1.358Z" transform="translate(-1374.884 -1420.333)" fill="#3dcc79"/>
    <path id="Path_2879" data-name="Path 2879" d="M1466.266,1472.688a3.9,3.9,0,0,1-3.921-3.9,3.948,3.948,0,0,1,7.9-.027A3.92,3.92,0,0,1,1466.266,1472.688Zm-.371-1.825a26.556,26.556,0,0,0,2.673-3.4c-.13-.595-.426-.726-.924-.544l-1.783,2.4c-1.5-1.154-1.5-1.154-1.868-.332A11.279,11.279,0,0,0,1465.895,1470.863Z" transform="translate(-1447.43 -1447.991)" fill="#3dcc79"/>
    <path id="Path_2880" data-name="Path 2880" d="M1377.625,1412.649a1.4,1.4,0,0,1-.029-.885h4.15a2.319,2.319,0,0,1,.039.885Z" transform="translate(-1374.389 -1402.286)" fill="#3dcc79"/>
    <path id="Path_2881" data-name="Path 2881" d="M1381.748,1397.777a1.769,1.769,0,0,1,.026.882h-4.157a2.273,2.273,0,0,1-.049-.882Z" transform="translate(-1374.398 -1390.24)" fill="#3dcc79"/>
    <path id="Path_2882" data-name="Path 2882" d="M1447.363,1397.83a1.771,1.771,0,0,1-.025.884h-4.06a1.834,1.834,0,0,1-.028-.884Z" transform="translate(-1430.95 -1390.286)" fill="#3dcc79"/>
    <path id="Path_2883" data-name="Path 2883" d="M1443.256,1412.595a1.759,1.759,0,0,1,.018-.879h4.06a1.823,1.823,0,0,1,.036.879Z" transform="translate(-1430.949 -1402.245)" fill="#3dcc79"/>
    <path id="Path_2884" data-name="Path 2884" d="M1384.91,1367.336c.938-.069.847.946,1.453,1.251v-1.116a.365.365,0,0,1,.505-.074v2.122c-.933.064-.861-.938-1.464-1.287v1.2a.378.378,0,0,1-.494.018Z" transform="translate(-1380.738 -1364.015)" fill="#3dcc79"/>
    <path id="Path_2885" data-name="Path 2885" d="M1417.87,1368.959a1.093,1.093,0,0,1-1.192-1.138,1.166,1.166,0,0,1,1.167-1.2,1.139,1.139,0,0,1,1.14,1.138A1.07,1.07,0,0,1,1417.87,1368.959Zm-.37-.452c.424.1.8.075.918-.378a.8.8,0,0,0-.255-.99.535.535,0,0,0-.748.094A.867.867,0,0,0,1417.5,1368.507Z" transform="translate(-1408.098 -1363.411)" fill="#3dcc79"/>
    <path id="Path_2886" data-name="Path 2886" d="M1462.732,1367.583c-.285.7-1.151-.018-1.329.681.364.318.861-.07,1.186.341-.323.373-.765.068-1.095.253a.455.455,0,0,0-.031.413c.392.246.922-.134,1.325.382a6.078,6.078,0,0,1-1.826.1v-2.174Z" transform="translate(-1446.238 -1364.235)" fill="#3dcc79"/>
    <path id="Path_2887" data-name="Path 2887" d="M1444.524,1367.417c-.485.265-.608-.225-.974-.3-.512-.009-.688.334-.663.846.026.527.309.738.783.656.325-.078.356-.661.834-.367a.936.936,0,0,1-1.147.78,1.013,1.013,0,0,1-.994-1.038,1.065,1.065,0,0,1,.861-1.232A1.033,1.033,0,0,1,1444.524,1367.417Z" transform="translate(-1430.218 -1363.488)" fill="#3dcc79"/>
    <path id="Path_2888" data-name="Path 2888" d="M1402.245,1369.209c-.206.14-.383.074-.6.053l-.718-2.105c.487-.237.55.1.648.409s.208.586.317.887c.5-.351.159-1.259,1.047-1.417A15.777,15.777,0,0,1,1402.245,1369.209Z" transform="translate(-1394.535 -1363.764)" fill="#3dcc79"/>
    <path id="Path_2889" data-name="Path 2889" d="M1377.981,1367.435a.394.394,0,0,1,.431-.04v2.1c-.134.115-.262.073-.431.017Z" transform="translate(-1374.77 -1364.035)" fill="#3dcc79"/>
    <path id="Path_2890" data-name="Path 2890" d="M1436.458,1369.549v-2.1c.393-.133.446.085.42.344-.061.611.174,1.283-.15,1.844Z" transform="translate(-1425.135 -1364.086)" fill="#3dcc79"/>
  </g>
</svg>
