<svg xmlns="http://www.w3.org/2000/svg" width="27.191" height="41.059" viewBox="0 0 27.191 41.059">
  <g id="_490" data-name="490" transform="translate(0)" opacity="0.494">
    <path id="Path_425" data-name="Path 425" d="M1435.723,3301.278h-2.6c-1.193,0-1.756.982-2.254,1.849l-.187.333a.413.413,0,0,1-.033.055h-.86a3.25,3.25,0,0,1-.556-.8,2.534,2.534,0,0,0-2.1-1.44l-4.987,0c-.286.012-7.021.357-9.912,5.711-.474.878-1.308,3.141-1.4,3.4a.973.973,0,0,0,1.458,1.14,12,12,0,0,1,5.747-1.9c.221,0,.442.009.612.027a1.945,1.945,0,0,1,1.136.848l.418.777c.392.775.837,1.652,2.126,1.652h5.023a2.482,2.482,0,0,0,2.308-1.884l.3-.858a.144.144,0,0,1,.02-.027h.505a3.183,3.183,0,0,1,.393.841.761.761,0,0,0,.068.17l.1.212a2.018,2.018,0,0,0,2.08,1.36h2.6a2.462,2.462,0,0,0,2.236-2.681v-6.107A2.464,2.464,0,0,0,1435.723,3301.278Z" transform="translate(-1410.768 -3301.278)" fill="#fff"/>
    <path id="Path_426" data-name="Path 426" d="M1427.23,3314.081h-4.375a.972.972,0,0,0-.972.918l-1.458,25.392a.971.971,0,0,0,.358.81,6.35,6.35,0,0,0,3.905,1.136,11.046,11.046,0,0,0,4.389-1,.973.973,0,0,0,.583-.947L1428.2,3315A.973.973,0,0,0,1427.23,3314.081Z" transform="translate(-1410.768 -3301.278)" fill="#fff"/>
  </g>
</svg>
