<svg id="List_2" data-name="List 2" xmlns="http://www.w3.org/2000/svg" width="16" height="11.883" viewBox="0 0 16 11.883">
  <path id="Path_22" data-name="Path 22" d="M2,4.75A.862.862,0,0,1,2.941,4H17.059A.862.862,0,0,1,18,4.75a.862.862,0,0,1-.941.75H2.941A.862.862,0,0,1,2,4.75Z" transform="translate(-2 -4)" fill="#303d4d" fill-rule="evenodd"/>
  <path id="Path_23" data-name="Path 23" d="M2,9.941a.862.862,0,0,1,.941-.75H17.059a.862.862,0,0,1,.941.75.862.862,0,0,1-.941.75H2.941A.862.862,0,0,1,2,9.941Z" transform="translate(-2 -4)" fill="#303d4d" fill-rule="evenodd"/>
  <path id="Path_24" data-name="Path 24" d="M2,15.133a.862.862,0,0,1,.941-.75H17.059a.862.862,0,0,1,.941.75.862.862,0,0,1-.941.75H2.941A.862.862,0,0,1,2,15.133Z" transform="translate(-2 -4)" fill="#303d4d" fill-rule="evenodd"/>
</svg>
