<svg xmlns="http://www.w3.org/2000/svg" width="12.231" height="17.808" viewBox="0 0 12.231 17.808">
  <g id="_490" data-name="490" transform="translate(0.641 0.625)">
    <path id="Path_425" data-name="Path 425" d="M1420.832,3301.278h-1.051c-.481,0-.708.4-.909.746l-.075.134a.194.194,0,0,1-.013.022h-.347a1.3,1.3,0,0,1-.224-.322,1.022,1.022,0,0,0-.847-.581h-2.011a5.042,5.042,0,0,0-4,2.3c-.191.354-.528,1.267-.565,1.37a.392.392,0,0,0,.588.46,4.846,4.846,0,0,1,2.318-.764c.089,0,.178,0,.247.011a.784.784,0,0,1,.458.342l.169.313c.158.313.337.667.857.667h2.025a1,1,0,0,0,.931-.76l.119-.346a.047.047,0,0,1,.008-.011h.2a1.28,1.28,0,0,1,.158.339.309.309,0,0,0,.027.069l.04.085a.815.815,0,0,0,.839.548h1.051a.993.993,0,0,0,.9-1.081v-2.463A.994.994,0,0,0,1420.832,3301.278Z" transform="translate(-1410.768 -3301.278)" fill="none" stroke="#8697a8" stroke-width="1.25"/>
    <path id="Path_426" data-name="Path 426" d="M1423.168,3314.081H1421.4a.392.392,0,0,0-.392.37l-.588,10.24a.392.392,0,0,0,.145.327,2.561,2.561,0,0,0,1.575.458,4.456,4.456,0,0,0,1.77-.4.393.393,0,0,0,.235-.382l-.588-10.24A.392.392,0,0,0,1423.168,3314.081Z" transform="translate(-1416.529 -3308.918)" fill="none" stroke="#8697a8" stroke-width="1.25"/>
  </g>
</svg>
