<svg xmlns="http://www.w3.org/2000/svg" width="16" height="7.5" viewBox="0 0 16 7.5">
  <path id="Hide" d="M2.292,6.356a.75.75,0,0,1,1.05.135l0,0,.02.024c.02.023.052.061.1.11a5.84,5.84,0,0,0,.425.416A8.105,8.105,0,0,0,5.672,8.235,9.648,9.648,0,0,0,10,9.2a9.648,9.648,0,0,0,4.328-.965,8.1,8.1,0,0,0,1.785-1.192,5.858,5.858,0,0,0,.425-.416c.045-.049.077-.087.1-.11l.02-.024,0,0a.75.75,0,0,1,1.187.917v0l0,0,0,.005-.012.015-.04.048c-.033.04-.08.094-.141.161a7.317,7.317,0,0,1-.535.524,9.391,9.391,0,0,1-1.449,1.053l1.221,2.392a.75.75,0,1,1-1.336.682L14.317,9.884a11.142,11.142,0,0,1-3.567.794V12.95a.75.75,0,0,1-1.5,0V10.678a11.142,11.142,0,0,1-3.567-.794L4.453,12.291a.75.75,0,0,1-1.336-.682L4.339,9.217A9.389,9.389,0,0,1,2.89,8.164a7.33,7.33,0,0,1-.535-.524c-.061-.067-.108-.121-.141-.161l-.04-.048-.012-.015,0-.005,0,0h0A.751.751,0,0,1,2.292,6.356Z" transform="translate(-2 -6.2)" fill="#303d4d"/>
</svg>
