<svg id="Group_235" data-name="Group 235" xmlns="http://www.w3.org/2000/svg" width="22.79" height="24.706" viewBox="0 0 22.79 24.706">
  <path id="Path_2891" data-name="Path 2891" d="M1195.956,1575.079h-1.467a1.26,1.26,0,0,1-.088-.757q-.008-5.929,0-11.857c0-1.175-.344-1.512-1.535-1.51q-6.725.008-13.449.021c-1.077,0-1.449.374-1.449,1.46q0,9.326,0,18.653c0,1.132.357,1.487,1.493,1.488q5.546.005,11.106,0l1.159,1.48c-.159.127-.349.065-.517.065q-6.033.006-12.065,0a2.672,2.672,0,0,1-2.79-2.782q-.011-9.569,0-19.138a2.665,2.665,0,0,1,2.8-2.773q7.071,0,14.141.017a2.643,2.643,0,0,1,2.731,2.623c.032,4.276.007,8.552,0,12.828A.769.769,0,0,1,1195.956,1575.079Z" transform="translate(-1176.342 -1559.433)" fill="#ffcf5f"/>
  <path id="Path_2892" data-name="Path 2892" d="M1212.921,1648.776v3.8l-.912.574c-.02-.384-.037-.7-.056-1.047h-2.282v4.762l.479.112v.839h-10.471v-9.04Zm-12.315,8.1h4.671v-4.761h-4.671Zm5.726-4.777v4.762h2.282V1652.1Zm-5.715-1.037h4.66v-1.334h-4.66Zm9.021,0h2.293v-1.336h-2.293Zm-3.308-1.354v1.374a14.144,14.144,0,0,0,2.273-.018v-1.356Z" transform="translate(-1196.44 -1636.381)" fill="#ffcf5f"/>
  <path id="Path_2893" data-name="Path 2893" d="M1284.185,1684.61a3.914,3.914,0,1,1,7.828.048,3.914,3.914,0,1,1-7.828-.048Zm3.326-2.117v1.5c-.616.214-1.245-.071-1.786.206-.282.7-.119.991.557,1.033a4.435,4.435,0,0,1,1.247.076c0,.439,0,.852,0,1.265,0,.387.2.613.59.6a.517.517,0,0,0,.532-.589c0-.431,0-.863,0-1.353.461,0,.848-.01,1.235,0a.676.676,0,0,0,.693-.352.559.559,0,0,0-.2-.738c-.544-.181-1.139.043-1.732-.168v-1.512a.783.783,0,0,0-.585-.412A.9.9,0,0,0,1287.511,1682.493Z" transform="translate(-1269.223 -1663.86)" fill="#ffcf5f"/>
  <path id="Path_2894" data-name="Path 2894" d="M1264.608,1613.715h4.1a2.557,2.557,0,0,1,.068.885h-4.2A1.146,1.146,0,0,1,1264.608,1613.715Z" transform="translate(-1252.272 -1606.184)" fill="#ffcf5f"/>
  <path id="Path_2895" data-name="Path 2895" d="M1264.621,1628.575a1.409,1.409,0,0,1-.018-.866h4.135a1.717,1.717,0,0,1,.045.866Z" transform="translate(-1252.307 -1618.237)" fill="#ffcf5f"/>
  <path id="Path_2896" data-name="Path 2896" d="M1199.347,1627.607h4.13a2.521,2.521,0,0,1,.07.893h-4.159A1.853,1.853,0,0,1,1199.347,1627.607Z" transform="translate(-1196.127 -1618.149)" fill="#ffcf5f"/>
  <path id="Path_2897" data-name="Path 2897" d="M1203.49,1613.767v.872h-4.13c-.142-.258-.029-.549-.069-.872Z" transform="translate(-1196.103 -1606.229)" fill="#ffcf5f"/>
  <path id="Path_2898" data-name="Path 2898" d="M1208.436,1585.46c-.841-.057-.808-.959-1.382-1.367v1.153a.4.4,0,0,1-.487.172v-2.188c.909-.032.871.913,1.463,1.317v-1.268C1208.546,1583.357,1208.648,1584.035,1208.436,1585.46Z" transform="translate(-1202.373 -1579.929)" fill="#ffcf5f"/>
  <path id="Path_2899" data-name="Path 2899" d="M1239.513,1582.561a1.183,1.183,0,0,1,1.166,1.2,1.122,1.122,0,0,1-1.141,1.134,1.088,1.088,0,0,1-1.182-1.142A1.147,1.147,0,0,1,1239.513,1582.561Zm.342,1.866a.864.864,0,0,0,.084-1.26.536.536,0,0,0-.749-.1.8.8,0,0,0-.266.99C1239.045,1584.5,1239.4,1584.568,1239.855,1584.427Z" transform="translate(-1229.752 -1579.352)" fill="#ffcf5f"/>
  <path id="Path_2900" data-name="Path 2900" d="M1284.409,1584.031c-.345.543-.79.226-1.148.4-.116.12-.1.281.046.512h1.143c-.2.447-.35.473-1.737.348v-2.142a4.763,4.763,0,0,1,1.853.077c-.464.419-.905.183-1.285.306-.12.1-.086.235-.061.409Z" transform="translate(-1267.956 -1579.814)" fill="#ffcf5f"/>
  <path id="Path_2901" data-name="Path 2901" d="M1265.429,1584.517c.259-.122.293-.6.751-.392-.053.63-.459.838-1.021.824a1,1,0,0,1-1.076-.95,1.089,1.089,0,0,1,.878-1.349.963.963,0,0,1,1.223.693c-.488.312-.6-.4-1-.311a.727.727,0,0,0-.616.958A.615.615,0,0,0,1265.429,1584.517Z" transform="translate(-1251.897 -1579.407)" fill="#ffcf5f"/>
  <path id="Path_2902" data-name="Path 2902" d="M1223.812,1585.4h-.556l-.741-2.121c.384-.052.384-.052,1.036,1.356l.521-1.4a.467.467,0,0,1,.481.045Z" transform="translate(-1216.109 -1579.891)" fill="#ffcf5f"/>
  <path id="Path_2903" data-name="Path 2903" d="M1199.684,1583.291a.49.49,0,0,1,.456.037v2.031c-.139.147-.276.108-.456.079Z" transform="translate(-1196.446 -1579.948)" fill="#ffcf5f"/>
  <path id="Path_2904" data-name="Path 2904" d="M1258.2,1585.4a.413.413,0,0,1-.466-.053v-2.017a.345.345,0,0,1,.466-.023Z" transform="translate(-1246.44 -1579.926)" fill="#ffcf5f"/>
</svg>
