<svg xmlns="http://www.w3.org/2000/svg" width="32.132" height="32.12" viewBox="0 0 32.132 32.12">
  <g id="tt0J78" transform="translate(-276.211 -399.494)">
    <g id="Group_221" data-name="Group 221" transform="translate(276.211 399.494)">
      <path id="Path_2081" data-name="Path 2081" d="M292.305,399.494a16.06,16.06,0,1,1-16.094,16.249A16.079,16.079,0,0,1,292.305,399.494Zm11.4,24.394a14.152,14.152,0,0,0-22.511-17.147c-4.65,5.8-3.44,13.354-.321,17.087a8.1,8.1,0,0,1,6.754-7.4,8.132,8.132,0,0,0,9.326-.01A8.169,8.169,0,0,1,303.7,423.888Z" transform="translate(-276.211 -399.494)" fill="#fff"/>
      <path id="Path_2082" data-name="Path 2082" d="M296.178,417.747a5.437,5.437,0,0,1-3.515-1.238,7.23,7.23,0,0,1-2.44-7.718,6.111,6.111,0,0,1,11.825,1.165,7.272,7.272,0,0,1-4.3,7.466A4.343,4.343,0,0,1,296.178,417.747Z" transform="translate(-279.928 -400.907)" fill="#fff"/>
    </g>
  </g>
</svg>
