<svg xmlns="http://www.w3.org/2000/svg" width="24.971" height="30.278" viewBox="0 0 24.971 30.278">
  <g id="Group_224" data-name="Group 224" transform="translate(-187.736 -405.944)">
    <path id="Path_2080" data-name="Path 2080" d="M195.584,405.976a3.609,3.609,0,0,1,1.136,2.782q0,12.223,0,24.447a3.209,3.209,0,0,1-1.516,3.017,52.113,52.113,0,0,1-6.273-2.566,2.458,2.458,0,0,1-1.173-2.276q-.033-10.4,0-20.8a2.585,2.585,0,0,1,1.629-2.5c1.749-.73,3.516-1.415,5.288-2.089A2.917,2.917,0,0,1,195.584,405.976Zm-2.037,15.617c.546.3,1.056.333,1.423-.178a.826.826,0,0,0-.078-1.111.95.95,0,0,0-1.464.046A1.151,1.151,0,0,0,193.547,421.594Z" fill="#fff"/>
    <path id="Path_2081" data-name="Path 2081" d="M214.215,432.2v-2.3h-9.438v-5.457h9.353v-2.255l5.037,5.054Z" transform="translate(-6.459 -6.158)" fill="#fff"/>
    <path id="Path_2082" data-name="Path 2082" d="M210.606,437.384h1.623v8.408h-7.446c-.25-.473-.07-.954-.141-1.559h5.965Z" transform="translate(-6.408 -11.917)" fill="#fff"/>
    <path id="Path_2083" data-name="Path 2083" d="M212.214,417.721a2.588,2.588,0,0,1-1.561-.042v-6.525h-5.818a2.413,2.413,0,0,1-.1-1.609h7.48Z" transform="translate(-6.409 -1.365)" fill="#fff"/>
  </g>
</svg>
