<svg xmlns="http://www.w3.org/2000/svg" width="33.597" height="28.5" viewBox="0 0 33.597 28.5">
  <path id="_413" data-name="413" d="M1751.824,3322.338H1748v-17.45h-4.516v17.45H1738.9V3301.3h-4.516v21.035h-4.306v-12.49h-4.515v12.49h-3.259v-25.858a.88.88,0,0,0-.88-.88h-1.439a.88.88,0,1,0,0,1.761h.559v4.925h-.559a.88.88,0,1,0,0,1.761h.559v4.921h-.559a.88.88,0,1,0,0,1.761h.559v4.924h-.559a.881.881,0,0,0,0,1.761h.559v4.925h-.559a.88.88,0,1,0,0,1.761h31.837a.88.88,0,0,0,0-1.761Z" transform="translate(-1719.107 -3295.599)" fill="#fff" opacity="0.494"/>
</svg>
