<svg xmlns="http://www.w3.org/2000/svg" width="15.682" height="18.5" viewBox="0 0 15.682 18.5">
  <g id="Bell_Notification" data-name="Bell + Notification" transform="translate(0 0.5)">
    <path id="Path_1" data-name="Path 1" d="M17.409,14.351c-.612-.708-1.756-1.772-1.756-5.26A5.3,5.3,0,0,0,11.6,3.8v-.71a1.015,1.015,0,1,0-2.025,0V3.8a5.3,5.3,0,0,0-4.05,5.29c0,3.488-1.144,4.552-1.756,5.26a1.111,1.111,0,0,0-.273.74,1.056,1.056,0,0,0,1.016,1.091H16.666a1.056,1.056,0,0,0,1.016-1.091A1.111,1.111,0,0,0,17.409,14.351Zm-11.771.195a9,9,0,0,0,1.41-5.435c0-.007,0-.013,0-.02a3.689,3.689,0,0,1,3.545-3.818,3.689,3.689,0,0,1,3.545,3.818c0,.007,0,.013,0,.02a9,9,0,0,0,1.41,5.435Zm4.953,4.909a2.108,2.108,0,0,0,2.025-2.182H8.566A2.108,2.108,0,0,0,10.591,19.455Z" transform="translate(-3.5 -1.455)" fill="#303d4d"/>
    <path id="Path_2" data-name="Path 2" d="M14.773,8.045A3.273,3.273,0,1,0,11.5,4.773,3.273,3.273,0,0,0,14.773,8.045Z" transform="translate(-2.864 -1.5)" fill="#fd554c" stroke="#fff" stroke-width="1"/>
  </g>
</svg>
