<svg id="PDF" xmlns="http://www.w3.org/2000/svg" width="13.1" height="16" viewBox="0 0 13.1 16">
  <path id="Path_31" data-name="Path 31" d="M4.094,2.644A2.2,2.2,0,0,1,5.65,2h5.075a.75.75,0,0,1,.53.22L16.33,7.295a.75.75,0,0,1,.22.53V15.8a2.2,2.2,0,0,1-2.2,2.2H5.65a2.2,2.2,0,0,1-2.2-2.2V4.2A2.2,2.2,0,0,1,4.094,2.644ZM5.65,3.5a.7.7,0,0,0-.7.7V15.8a.7.7,0,0,0,.7.7h8.7a.7.7,0,0,0,.7-.7V8.136L10.414,3.5Z" transform="translate(-3.45 -2)" fill="#303d4d" fill-rule="evenodd"/>
  <path id="Path_32" data-name="Path 32" d="M10.725,2a.75.75,0,0,1,.75.75V7.075H15.8a.75.75,0,0,1,0,1.5H10.725a.75.75,0,0,1-.75-.75V2.75A.75.75,0,0,1,10.725,2Z" transform="translate(-3.45 -2)" fill="#303d4d" fill-rule="evenodd"/>
  <path id="Path_33" data-name="Path 33" d="M8.368,11.816a.952.952,0,0,1-.124.479.9.9,0,0,1-.381.346,1.38,1.38,0,0,1-.637.132H6.757V13.85H6v-3H7.226a1.438,1.438,0,0,1,.628.124.871.871,0,0,1,.385.342A.967.967,0,0,1,8.368,11.816Zm-1.2.376a.462.462,0,0,0,.323-.1.416.416,0,0,0,0-.556.462.462,0,0,0-.323-.1H6.757v.752Z" transform="translate(-3.45 -2)" fill="#303d4d"/>
  <path id="Path_34" data-name="Path 34" d="M9.926,10.85a1.861,1.861,0,0,1,.859.188,1.352,1.352,0,0,1,.566.53,1.6,1.6,0,0,1,0,1.564,1.347,1.347,0,0,1-.571.53,1.851,1.851,0,0,1-.854.188H8.762v-3Zm-.049,2.367a.933.933,0,0,0,.668-.226.841.841,0,0,0,.239-.641.855.855,0,0,0-.239-.645.923.923,0,0,0-.668-.231H9.519v1.744Z" transform="translate(-3.45 -2)" fill="#303d4d"/>
  <path id="Path_35" data-name="Path 35" d="M14,10.85v.585H12.734v.632h.947v.568h-.947V13.85h-.757v-3Z" transform="translate(-3.45 -2)" fill="#303d4d"/>
</svg>
