<svg xmlns="http://www.w3.org/2000/svg" width="10.691" height="10.689" viewBox="0 0 10.691 10.689">
  <path id="Path_2864" data-name="Path 2864" d="M45.346,478.592a.325.325,0,0,1-.169.028H43.644a.281.281,0,0,0-.023.177c0,1.128,0,2.256,0,3.383a.889.889,0,1,1-1.777-.005q0-1.706,0-3.412a.2.2,0,0,0-.017-.127.265.265,0,0,0-.141-.013q-1.671,0-3.341,0a.9.9,0,1,1,0-1.794c1.08.006,2.16,0,3.24,0h.223c.049-.056.031-.112.031-.163q0-1.7,0-3.4a.889.889,0,0,1,1.778-.008q0,1.685,0,3.37v.169c.045.046.1.03.142.03l3.181,0c.051,0,.108-.018.153.024-.016.02-.031.041-.062.029l.006,0,0-.009c.008-.038.037-.022.059-.022a.707.707,0,0,1,.616.15.876.876,0,0,1,.328.951.845.845,0,0,1-.792.653c-.623.021-1.247.008-1.871.009-.02,0-.037-.006-.03-.032l-.007,0Z" transform="translate(-37.384 -472.376)" fill="#8697a8"/>
</svg>
