<svg id="Group_229" data-name="Group 229" xmlns="http://www.w3.org/2000/svg" width="17.461" height="17.462" viewBox="0 0 17.461 17.462">
  <path id="Path_2091" data-name="Path 2091" d="M664.4,1027.024c1.336,0,2.673,0,4.01,0a3.076,3.076,0,0,1,3.129,3.146q.006,3.992,0,7.984a3.074,3.074,0,0,1-3.155,3.156q-3.992.007-7.984,0a3.075,3.075,0,0,1-3.147-3.128q-.008-4.01,0-8.02a3.077,3.077,0,0,1,3.137-3.138C661.728,1027.021,663.064,1027.024,664.4,1027.024Zm-.831,6.316h-.425c-.446,0-.892-.01-1.336.008a.824.824,0,0,0,0,1.644c.316.018.633,0,.949.01a2.5,2.5,0,0,1,.815.051c0,.522,0,1.037,0,1.552a.818.818,0,0,0,.835.917c.505,0,.815-.352.822-.93,0-.258-.007-.516,0-.774a2.6,2.6,0,0,1,.051-.818h.811c.281,0,.563.007.844,0a.807.807,0,0,0,.812-.9.8.8,0,0,0-.82-.751c-.557-.011-1.115,0-1.7,0,0-.585.005-1.111,0-1.636a.83.83,0,1,0-1.656-.01C663.565,1032.223,663.57,1032.75,663.57,1033.341Z" transform="translate(-657.25 -1027.023)" fill="#8697a8"/>
  <path id="Path_2092" data-name="Path 2092" d="M757.491,1120.215c0,.962,0,1.923,0,2.885a4.206,4.206,0,0,1-4.2,4.209c-2.029.008-4.057,0-6.086,0a.838.838,0,0,1-.865-.717.858.858,0,0,1,.546-.923,1.183,1.183,0,0,1,.451-.049h5.734a2.553,2.553,0,0,0,2.731-2.723c0-1.958,0-3.917,0-5.875a.822.822,0,0,1,.616-.838.838.838,0,0,1,.926.334.934.934,0,0,1,.149.567C757.489,1118.128,757.491,1119.171,757.491,1120.215Z" transform="translate(-740.031 -1109.852)" fill="#8697a8"/>
</svg>
