<svg xmlns="http://www.w3.org/2000/svg" width="12.438" height="12.438" viewBox="0 0 12.438 12.438">
  <path id="Path_2863" data-name="Path 2863" d="M172.893,625.142h-.437q-2.432,0-4.865,0a.682.682,0,0,1-.687-.591.7.7,0,0,1,.7-.8c.436,0,.872,0,1.308,0h5.658a.7.7,0,0,1,.729.728q0,1.22,0,2.441c0,.409-.01.817-.005,1.226.012,1.1,0,2.2.006,3.295a.7.7,0,0,1-1.332.306.792.792,0,0,1-.064-.339q0-2.528,0-5.056,0-.094,0-.188l-.03-.019a.539.539,0,0,1-.054.076c-2.59,2.592,1-1-1.593,1.595l-4.221,4.22-.289.289a.7.7,0,1,1-.99-.987q.554-.555,1.109-1.109l1.994-1.994,2.594-2.594c1.095-1.094-3.989,3.991-2.894,2.9q1.032-1.032,2.062-2.066.637-.638,1.276-1.274C172.878,625.182,172.9,625.176,172.893,625.142Z" transform="translate(329.54 -558.793) rotate(45)" fill="#8697a8"/>
</svg>
