<svg xmlns="http://www.w3.org/2000/svg" width="34.043" height="27.609" viewBox="0 0 34.043 27.609">
  <g id="_352" data-name="352" transform="translate(0)" opacity="0.494">
    <g id="Group_212" data-name="Group 212" transform="translate(3.422 0)">
      <g id="Group_210" data-name="Group 210">
        <path id="Path_406" data-name="Path 406" d="M1805.795,3301.764a7.2,7.2,0,0,0-1.368-1.05,15.887,15.887,0,0,0-10.217-2.5,1.22,1.22,0,0,0-1.33,1.069v16.785c0,.593-.027,1.348,1.048,1.33,0,0,5.455-.931,11.867,5.583Z" transform="translate(-1792.88 -3298.142)" fill="#fff"/>
      </g>
      <g id="Group_211" data-name="Group 211" transform="translate(13.941 0.015)">
        <path id="Path_407" data-name="Path 407" d="M1821.095,3298.234a15.89,15.89,0,0,0-10.217,2.5,10.751,10.751,0,0,0-1.369,1.1v21.141a15.7,15.7,0,0,1,11.759-4.927c1.156-.013,1.081-.286,1.156-.888V3299.3A1.221,1.221,0,0,0,1821.095,3298.234Z" transform="translate(-1809.509 -3298.159)" fill="#fff"/>
      </g>
    </g>
    <g id="Group_215" data-name="Group 215" transform="translate(0 1.327)">
      <g id="Group_213" data-name="Group 213" transform="translate(17.385 0.099)">
        <path id="Path_408" data-name="Path 408" d="M1826.176,3319.346v-18.792a.442.442,0,0,0-.151-.34,2.012,2.012,0,0,0-2.063-.168v18.5l-.008.059-.016.138c-.122,1.124-.612,1.508-1.937,1.524h-.055c-.012,0-.164-.011-.428-.011a15.982,15.982,0,0,0-11.468,5l-.514.556v.217a.916.916,0,0,0,.279-.144l1.663-.92a29.521,29.521,0,0,1,12.2-2.793,2.5,2.5,0,0,0,2.046-.7A2.925,2.925,0,0,0,1826.176,3319.346Z" transform="translate(-1809.535 -3299.843)" fill="#fff"/>
      </g>
      <g id="Group_214" data-name="Group 214">
        <path id="Path_409" data-name="Path 409" d="M1805.439,3325.788l-.5-.506c-5.107-5.187-9.584-5.747-11.272-5.747a4.9,4.9,0,0,0-.693.04l-.05.009h-.1a1.718,1.718,0,0,1-1.353-.536,2.4,2.4,0,0,1-.46-1.671v-17.355a1.94,1.94,0,0,0-2.045-.03.435.435,0,0,0-.171.353v20.115c0,.971.7,1.552,1.875,1.552h0a28.033,28.033,0,0,1,13.14,3.158l1.325.683a1.405,1.405,0,0,0,.3.137Z" transform="translate(-1788.797 -3299.725)" fill="#fff"/>
      </g>
    </g>
  </g>
</svg>
