<svg xmlns="http://www.w3.org/2000/svg" width="34.877" height="31.307" viewBox="0 0 34.877 31.307">
  <g id="_172" data-name="172" transform="translate(0)" opacity="0.494">
    <g id="_8" data-name="8" transform="translate(22.221 19.823)">
      <path id="Path_410" data-name="Path 410" d="M1670.416,3326.283a1.549,1.549,0,1,0,1.544,1.552A1.547,1.547,0,0,0,1670.416,3326.283Z" transform="translate(-1664.112 -3324.527)" fill="#fff"/>
      <path id="Path_411" data-name="Path 411" d="M1675.563,3324.369h-11.1a.776.776,0,0,0-.776.772v9.941a.775.775,0,0,0,.776.772h11.1a.775.775,0,0,0,.778-.772v-9.941A.776.776,0,0,0,1675.563,3324.369Zm-.633,8.2h-2.339v-1.048a2,2,0,0,0-1.976-2.028h-1.265a2.005,2.005,0,0,0-1.977,2.028v1.048h-2.278v-6.837h9.836Z" transform="translate(-1663.684 -3324.369)" fill="#fff"/>
    </g>
    <path id="Path_412" data-name="Path 412" d="M1655.362,3325.489c0-2.148,1.381-3.9,3.078-3.9h8.7l.725-2.309a4.056,4.056,0,0,0-.282-3.047,3.324,3.324,0,0,0-2.378-1.6h-23a1.929,1.929,0,0,0-2.029,1.539c-.01.04-.02.079-.033.119l-3.74,11.613v-5.832l2.212-6.761c.275-1.149,1.354-3.162,3.613-2.956l18.313,0a1.486,1.486,0,0,0,.941-1.484,1.39,1.39,0,0,0-1.2-1.521h-10.652a5.01,5.01,0,0,0-4.413-3.6h-6.531a5.107,5.107,0,0,0-4.65,5.148v18.42c0,2.839,1.822,5.148,4.062,5.148h17.262Z" transform="translate(-1634.037 -3305.752)" fill="#fff"/>
  </g>
</svg>
