<svg xmlns="http://www.w3.org/2000/svg" width="10" height="16" viewBox="0 0 10 16">
  <path id="Smartphone" d="M6.947,3.5a.5.5,0,0,0-.495.511V15.989a.5.5,0,0,0,.495.511h6.105a.5.5,0,0,0,.495-.511V4.011a.5.5,0,0,0-.495-.511H12.28l-.181.373a.724.724,0,0,1-.65.415H8.4a.724.724,0,0,1-.65-.415L7.567,3.5ZM5,4.011A1.98,1.98,0,0,1,6.947,2h6.105A1.98,1.98,0,0,1,15,4.011V15.989A1.98,1.98,0,0,1,13.053,18H6.947A1.98,1.98,0,0,1,5,15.989Z" transform="translate(-5 -2)" fill="#303d4d" fill-rule="evenodd"/>
</svg>
