<svg xmlns="http://www.w3.org/2000/svg" width="31.659" height="32.591" viewBox="0 0 31.659 32.591">
  <path id="_9" data-name="9" d="M2073.71,3324.358l-4.039-2.331-.006-.009c.021-1.524-.032-2.305-.029-3.752l4.06-2.345a.858.858,0,0,0,.314-1.169l-3.191-5.52a.854.854,0,0,0-1.169-.313l-4.036,2.33-.011-.008c-1.333-.751-1.888-1.122-3.266-1.878v-4.651a.856.856,0,0,0-.857-.855h-6.375a.856.856,0,0,0-.857.855v4.305c-1.481,1.1-3.272,2.252-3.272,2.252l-4.027-2.325a.853.853,0,0,0-1.169.315l-3.187,5.517a.857.857,0,0,0,.313,1.17l3.822,2.166c-.015,1.81,0,4.074,0,4.074l-3.808,2.2a.859.859,0,0,0-.313,1.171l3.187,5.522a.857.857,0,0,0,1.171.311l4.037-2.329,0,.008a35.34,35.34,0,0,0,3.271,1.932v4.595a.856.856,0,0,0,.858.857h6.374a.856.856,0,0,0,.857-.857V3331a25.849,25.849,0,0,0,3.27-1.961l4.029,2.327a.857.857,0,0,0,1.169-.315l3.189-5.518A.857.857,0,0,0,2073.71,3324.358Zm-15.508,1.668a5.85,5.85,0,1,1,5.849-5.849A5.848,5.848,0,0,1,2058.2,3326.026Z" transform="translate(-2042.479 -3303.857)" fill="#fff" opacity="0.494"/>
</svg>
