<svg xmlns="http://www.w3.org/2000/svg" width="30.729" height="30.931" viewBox="0 0 30.729 30.931">
  <path id="Path_432" data-name="Path 432" d="M1365.716,3312.567v-3.744a.952.952,0,0,0-.982-.919h-3.083V3305a.952.952,0,0,0-.982-.92h-3.961a.952.952,0,0,0-.981.92v2.9h-10.513V3305a.952.952,0,0,0-.981-.92h-3.961a.953.953,0,0,0-.982.92v2.9h-3.273a.953.953,0,0,0-.982.919v3.744h-.024v20.665a1.846,1.846,0,0,0,1.9,1.781h26.926a1.846,1.846,0,0,0,1.9-1.781v-20.665Zm-24.005-5.436a.492.492,0,0,1,.982,0v4.346a.492.492,0,0,1-.982,0Zm2.348,23.083a.892.892,0,0,1-.919.861h-3.106a.892.892,0,0,1-.92-.861v-2.908a.892.892,0,0,1,.92-.861h3.106a.892.892,0,0,1,.919.861Zm0-8.883a.892.892,0,0,1-.919.863h-3.106a.893.893,0,0,1-.92-.863v-2.907a.891.891,0,0,1,.92-.861h3.106a.891.891,0,0,1,.919.861Zm8.788,8.883a.891.891,0,0,1-.92.861h-3.1a.891.891,0,0,1-.919-.861v-2.908a.891.891,0,0,1,.919-.861h3.1a.891.891,0,0,1,.92.861Zm0-8.883a.892.892,0,0,1-.92.863h-3.1a.892.892,0,0,1-.919-.863v-2.907a.891.891,0,0,1,.919-.861h3.1a.891.891,0,0,1,.92.861Zm5.279-14.192a.492.492,0,0,1,.981,0v4.346a.492.492,0,0,1-.981,0Zm3.51,23.075a.892.892,0,0,1-.92.861h-3.106a.892.892,0,0,1-.92-.861v-2.908a.892.892,0,0,1,.92-.861h3.106a.892.892,0,0,1,.92.861Zm0-8.883a.893.893,0,0,1-.92.863h-3.106a.892.892,0,0,1-.92-.863v-2.907a.891.891,0,0,1,.92-.861h3.106a.891.891,0,0,1,.92.861Z" transform="translate(-1335.01 -3304.083)" fill="#fff" opacity="0.503"/>
</svg>
