<svg xmlns="http://www.w3.org/2000/svg" width="22" height="14" viewBox="0 0 22 14">
  <g id="Trade-down" transform="translate(0 0)">
    <path id="Trade-down-2" data-name="Trade-down" d="M16.7,11.84a.738.738,0,0,0,.367,1.205l4.075.937a.718.718,0,0,0,.842-.871L21.077,8.9a.7.7,0,0,0-1.165-.38l-.9.849L12.389,2.51a1.034,1.034,0,0,0-1.5,0l-3.485,3.6L1.807.321a1.034,1.034,0,0,0-1.5,0,1.122,1.122,0,0,0,0,1.548L6.659,8.437a1.034,1.034,0,0,0,1.5,0l3.485-3.6,5.879,6.081Z" transform="translate(0 0)" fill="#fd554c" fill-rule="evenodd"/>
  </g>
</svg>
