<?xml version="1.0" encoding="utf-8"?>
<!-- Generator: Adobe Illustrator 16.0.0, SVG Export Plug-In . SVG Version: 6.00 Build 0)  -->
<!DOCTYPE svg PUBLIC "-//W3C//DTD SVG 1.1//EN" "http://www.w3.org/Graphics/SVG/1.1/DTD/svg11.dtd">
<svg version="1.1" id="Ebene_1" xmlns="http://www.w3.org/2000/svg" xmlns:xlink="http://www.w3.org/1999/xlink" x="0px" y="0px"
	 width="120px" height="40px" viewBox="0 0 120 40" enable-background="new 0 0 120 40" xml:space="preserve">
<rect x="5.234" y="4.38" fill="#CC3F1A" width="109.252" height="32.338"/>
<g>
	<path fill="#FFFFFF" d="M26.035,23.761v-7.123h3.158c0.635,0,1.117,0.064,1.448,0.192c0.33,0.128,0.594,0.354,0.792,0.678
		c0.197,0.324,0.296,0.682,0.296,1.074c0,0.505-0.164,0.931-0.491,1.278c-0.328,0.347-0.833,0.567-1.516,0.661
		c0.25,0.12,0.439,0.238,0.568,0.355c0.275,0.252,0.536,0.568,0.782,0.947l1.239,1.938h-1.186l-0.943-1.481
		c-0.275-0.428-0.502-0.755-0.68-0.982c-0.178-0.227-0.337-0.385-0.479-0.476c-0.141-0.09-0.284-0.154-0.43-0.189
		c-0.107-0.022-0.282-0.034-0.525-0.034h-1.093v3.163H26.035z M26.978,19.782h2.026c0.431,0,0.768-0.044,1.011-0.134
		c0.243-0.089,0.428-0.231,0.554-0.427c0.126-0.196,0.189-0.409,0.189-0.639c0-0.337-0.122-0.614-0.367-0.831
		c-0.245-0.217-0.631-0.326-1.159-0.326h-2.254V19.782z"/>
	<path fill="#FFFFFF" d="M34.221,23.761v-7.123h5.15v0.84h-4.208v2.182h3.94v0.836h-3.94v2.424h4.373v0.841H34.221z"/>
	<path fill="#FFFFFF" d="M41.051,23.761l2.735-7.123h1.016l2.915,7.123h-1.074l-0.831-2.157h-2.978l-0.782,2.157H41.051z
		 M43.106,20.836h2.415l-0.743-1.973c-0.227-0.599-0.395-1.091-0.505-1.477c-0.091,0.457-0.219,0.911-0.384,1.36L43.106,20.836z"/>
	<path fill="#FFFFFF" d="M49.464,23.761v-7.123h2.454c0.554,0,0.977,0.034,1.268,0.102c0.408,0.094,0.756,0.264,1.044,0.51
		c0.376,0.317,0.657,0.723,0.843,1.217c0.186,0.494,0.279,1.059,0.279,1.693c0,0.541-0.063,1.02-0.189,1.438
		c-0.126,0.418-0.289,0.764-0.486,1.038c-0.198,0.273-0.414,0.488-0.649,0.646s-0.518,0.276-0.85,0.356
		c-0.332,0.082-0.713,0.122-1.144,0.122H49.464z M50.407,22.92h1.521c0.47,0,0.838-0.043,1.105-0.131
		c0.268-0.088,0.48-0.211,0.639-0.369c0.224-0.224,0.397-0.523,0.522-0.901c0.125-0.378,0.187-0.835,0.187-1.373
		c0-0.745-0.123-1.317-0.367-1.717s-0.542-0.668-0.891-0.804c-0.253-0.097-0.659-0.146-1.22-0.146h-1.497V22.92z"/>
	<path fill="#FFFFFF" d="M61.375,23.761v-7.123h1.42l1.686,5.043c0.155,0.469,0.269,0.82,0.34,1.055
		c0.081-0.26,0.207-0.641,0.379-1.143l1.705-4.956h1.269v7.123h-0.909v-5.961l-2.069,5.961h-0.851l-2.06-6.063v6.063H61.375z"/>
	<path fill="#FFFFFF" d="M70.402,20.292c0-1.183,0.316-2.108,0.951-2.777s1.455-1.003,2.459-1.003c0.658,0,1.25,0.157,1.778,0.472
		c0.528,0.314,0.931,0.752,1.207,1.314c0.277,0.562,0.415,1.199,0.415,1.912c0,0.723-0.145,1.369-0.437,1.939
		c-0.292,0.569-0.704,1.001-1.239,1.294c-0.534,0.294-1.111,0.44-1.729,0.44c-0.671,0-1.27-0.162-1.798-0.486
		c-0.527-0.324-0.928-0.766-1.199-1.326C70.538,21.51,70.402,20.917,70.402,20.292z M71.373,20.306c0,0.858,0.231,1.535,0.693,2.029
		c0.461,0.493,1.04,0.741,1.736,0.741c0.709,0,1.293-0.25,1.752-0.748c0.458-0.5,0.688-1.207,0.688-2.124
		c0-0.58-0.099-1.086-0.295-1.519c-0.195-0.432-0.482-0.768-0.859-1.006c-0.377-0.238-0.801-0.357-1.271-0.357
		c-0.667,0-1.241,0.229-1.722,0.688C71.614,18.469,71.373,19.234,71.373,20.306z"/>
	<path fill="#FFFFFF" d="M79.438,23.761v-7.123h3.158c0.635,0,1.117,0.064,1.447,0.192s0.595,0.354,0.793,0.678
		c0.197,0.324,0.296,0.682,0.296,1.074c0,0.505-0.164,0.931-0.491,1.278s-0.832,0.567-1.516,0.661
		c0.25,0.12,0.439,0.238,0.568,0.355c0.275,0.252,0.536,0.568,0.782,0.947l1.239,1.938h-1.186l-0.943-1.481
		c-0.275-0.428-0.502-0.755-0.68-0.982c-0.178-0.227-0.338-0.385-0.479-0.476c-0.141-0.09-0.284-0.154-0.43-0.189
		c-0.107-0.022-0.281-0.034-0.525-0.034H80.38v3.163H79.438z M80.38,19.782h2.026c0.431,0,0.768-0.044,1.01-0.134
		c0.244-0.089,0.428-0.231,0.555-0.427c0.126-0.196,0.189-0.409,0.189-0.639c0-0.337-0.123-0.614-0.367-0.831
		c-0.244-0.217-0.631-0.326-1.158-0.326H80.38V19.782z"/>
	<path fill="#FFFFFF" d="M87.623,23.761v-7.123h5.15v0.84h-4.208v2.182h3.94v0.836h-3.94v2.424h4.372v0.841H87.623z"/>
</g>
</svg>
