<svg width="376" height="136" viewBox="0 0 376 136" fill="none" xmlns="http://www.w3.org/2000/svg">
<g clip-path="url(#clip0_705_5248)">
<path opacity="0.9" d="M376 107.587C376 104.798 375.404 102.368 374.398 100.234C372.711 96.6469 369.852 93.8796 366.706 91.5651C369.802 89.3153 372.632 86.6487 374.334 83.1985C375.382 81.071 376.007 78.6487 376.007 75.8598C376.007 74.9613 375.943 74.0701 375.821 73.2003C374.528 64.1437 366.728 57.15 357.319 57.15C347.911 57.15 340.111 64.1365 338.818 73.2003C338.696 74.0701 338.631 74.9613 338.631 75.8598C338.631 78.6559 339.256 81.071 340.305 83.1985C342.007 86.6487 344.837 89.3153 347.932 91.5651C344.786 93.8796 341.928 96.6397 340.24 100.234C339.227 102.368 338.639 104.798 338.639 107.587C338.639 108.485 338.703 109.376 338.825 110.246C340.118 119.31 347.918 126.296 357.326 126.296C366.735 126.296 374.535 119.31 375.828 110.246C375.95 109.376 376.014 108.485 376.014 107.587H376ZM365.687 109.484C365.672 109.549 365.651 109.614 365.636 109.686C365.586 109.88 365.536 110.074 365.478 110.261C365.464 110.311 365.442 110.361 365.421 110.411C365.126 111.267 364.695 112.065 364.157 112.776C364.106 112.848 364.056 112.913 364.006 112.985C363.905 113.107 363.798 113.222 363.697 113.344C363.625 113.423 363.553 113.502 363.482 113.581C363.381 113.689 363.273 113.79 363.166 113.89C363.079 113.969 362.993 114.048 362.907 114.128C362.799 114.221 362.692 114.307 362.577 114.394C362.476 114.473 362.383 114.544 362.275 114.616C362.167 114.695 362.052 114.767 361.937 114.846C361.83 114.918 361.715 114.983 361.6 115.055C361.485 115.127 361.37 115.184 361.255 115.242C361.133 115.306 361.011 115.364 360.882 115.421C360.767 115.472 360.652 115.529 360.53 115.572C360.393 115.63 360.257 115.673 360.12 115.723C360.005 115.766 359.891 115.802 359.776 115.838C359.625 115.881 359.474 115.917 359.316 115.96C359.208 115.989 359.1 116.018 358.986 116.04C358.806 116.075 358.626 116.097 358.447 116.119C358.354 116.133 358.26 116.147 358.167 116.155C357.887 116.183 357.607 116.198 357.326 116.198C357.046 116.198 356.759 116.183 356.486 116.155C356.393 116.147 356.299 116.126 356.206 116.119C356.027 116.097 355.847 116.068 355.667 116.04C355.552 116.018 355.445 115.989 355.337 115.96C355.186 115.925 355.028 115.889 354.877 115.838C354.762 115.802 354.648 115.759 354.533 115.723C354.396 115.673 354.26 115.63 354.123 115.572C354.008 115.522 353.886 115.472 353.771 115.421C353.649 115.364 353.52 115.306 353.398 115.242C353.283 115.184 353.168 115.119 353.053 115.055C352.938 114.99 352.83 114.918 352.716 114.846C352.601 114.774 352.486 114.695 352.378 114.616C352.277 114.544 352.177 114.465 352.076 114.394C351.961 114.307 351.854 114.221 351.746 114.128C351.66 114.048 351.574 113.969 351.487 113.89C351.38 113.79 351.272 113.689 351.171 113.581C351.1 113.502 351.028 113.423 350.956 113.344C350.848 113.229 350.74 113.114 350.647 112.985C350.597 112.92 350.547 112.848 350.496 112.776C349.958 112.065 349.527 111.274 349.232 110.411C349.218 110.361 349.196 110.311 349.175 110.261C349.11 110.074 349.06 109.88 349.017 109.686C349.002 109.621 348.981 109.556 348.966 109.484C348.923 109.29 348.887 109.096 348.859 108.902C348.794 108.471 348.744 108.032 348.744 107.579C348.744 103.907 351.293 101.362 355.696 98.4798C356.213 98.1419 356.766 97.7969 357.334 97.4447C357.901 97.7969 358.454 98.1419 358.971 98.4798C363.381 101.362 365.924 103.907 365.924 107.579C365.924 108.032 365.88 108.471 365.809 108.902C365.78 109.096 365.744 109.29 365.701 109.484H365.687ZM348.844 74.4366C348.873 74.2713 348.902 74.1132 348.938 73.9479C348.959 73.84 348.995 73.725 349.024 73.6172C349.067 73.4735 349.103 73.3225 349.146 73.1788C349.189 73.0566 349.232 72.9344 349.282 72.8122C349.333 72.69 349.376 72.5606 349.426 72.4384C349.491 72.2875 349.563 72.1437 349.642 72C349.685 71.9137 349.728 71.8203 349.771 71.734C349.9 71.504 350.037 71.274 350.18 71.0584C350.195 71.0368 350.209 71.0152 350.231 70.9937C350.367 70.7924 350.511 70.6055 350.661 70.4187C350.705 70.3612 350.755 70.3108 350.805 70.2605C350.934 70.1096 351.064 69.9658 351.2 69.8293C351.258 69.7718 351.322 69.7143 351.387 69.6568C351.516 69.5346 351.653 69.4052 351.789 69.2902C351.861 69.2327 351.933 69.1752 352.005 69.1177C352.141 69.0099 352.277 68.902 352.421 68.8086C352.5 68.7511 352.579 68.7008 352.665 68.6505C352.809 68.557 352.953 68.4708 353.103 68.3845C353.19 68.3342 353.276 68.2911 353.369 68.2408C353.52 68.1617 353.671 68.0898 353.822 68.0251C353.915 67.982 354.008 67.9389 354.102 67.9029C354.26 67.8383 354.418 67.7808 354.576 67.7304C354.676 67.6945 354.77 67.6657 354.87 67.6298C355.035 67.5795 355.201 67.5436 355.373 67.5004C355.473 67.4789 355.567 67.4501 355.667 67.4285C355.854 67.3926 356.041 67.371 356.228 67.3423C356.314 67.3279 356.4 67.3135 356.493 67.3064C356.773 67.2776 357.046 67.2632 357.334 67.2632C357.614 67.2632 357.894 67.2776 358.174 67.3064C358.26 67.3135 358.346 67.3351 358.44 67.3423C358.626 67.3639 358.813 67.3926 358.993 67.4285C359.093 67.4501 359.187 67.4717 359.287 67.5004C359.452 67.5364 359.625 67.5795 359.79 67.6298C359.891 67.6586 359.984 67.6945 360.084 67.7304C360.242 67.7879 360.4 67.8383 360.558 67.9029C360.652 67.9389 360.745 67.982 360.839 68.0251C360.989 68.097 361.147 68.1689 361.291 68.2408C361.377 68.2839 361.471 68.3342 361.557 68.3845C361.708 68.4708 361.851 68.557 361.988 68.6505C362.067 68.7008 362.153 68.7583 362.232 68.8086C362.376 68.9092 362.512 69.0099 362.648 69.1177C362.72 69.1752 362.792 69.2327 362.864 69.2902C363 69.4052 363.137 69.5274 363.266 69.6568C363.324 69.7143 363.388 69.7718 363.453 69.8293C363.589 69.9658 363.719 70.1096 363.848 70.2605C363.898 70.318 363.941 70.3684 363.992 70.4187C364.142 70.6055 364.286 70.7924 364.415 70.9865C364.43 71.0081 364.451 71.0296 364.466 71.0584C364.616 71.274 364.753 71.504 364.875 71.734C364.925 71.8203 364.961 71.9137 365.011 72.0072C365.083 72.1509 365.155 72.2947 365.227 72.4456C365.277 72.5678 365.327 72.6972 365.371 72.8194C365.414 72.9416 365.464 73.0638 365.507 73.186C365.557 73.3297 365.593 73.4735 365.629 73.6244C365.658 73.7322 365.687 73.84 365.715 73.9551C365.751 74.1132 365.78 74.2785 365.809 74.4438C365.888 74.9038 365.938 75.3782 365.938 75.867C365.938 79.389 363.403 81.8041 359.065 84.593C358.519 84.9452 357.944 85.3046 357.341 85.6711C356.738 85.3046 356.163 84.9452 355.617 84.593C351.279 81.7969 348.744 79.389 348.744 75.867C348.744 75.3782 348.794 74.911 348.873 74.4438L348.844 74.4366Z" fill="url(#paint0_linear_705_5248)"/>
<path opacity="0.9" d="M6.21262 93.1896C5.98998 93.204 5.73142 93.2327 5.4585 93.2758C5.7386 93.2615 5.99716 93.2327 6.21262 93.1896Z" fill="url(#paint1_linear_705_5248)"/>
<path opacity="0.9" d="M136.82 33.035C135.944 34.3935 135.046 35.7376 134.141 37.0746C133.574 37.0171 131.591 38.4259 130.097 39.389C128.604 40.345 127.605 40.8338 128.927 38.8212C131.469 35.7879 133.2 34.8535 135.664 32.92C133.042 34.6451 130.449 36.4348 127.907 38.2821L126.004 39.6765C125.372 40.1581 124.761 40.6109 124.086 41.1428C122.757 42.1851 121.457 43.2273 120.172 44.2767C125.53 38.124 128.453 34.9685 133.437 30.6415C131.505 30.0737 127.505 34.947 123.849 39.1878C120.172 43.4286 116.983 47.0656 117.299 44.133C120.596 39.1878 122.872 37.779 126.399 34.5157C127.878 32.0647 128.424 30.6918 128.345 30.0952C128.244 29.513 127.648 29.5993 126.621 30.2174C124.603 31.4178 121.17 34.5085 118.268 36.9236C121.874 32.0862 123.727 30.1383 125.113 28.5139C126.492 26.8823 127.419 25.5885 128.977 21.973C125.515 27.2632 119.274 35.7808 117.672 36.1042C125.336 26.5804 120.718 30.3827 121.436 27.2345C119.274 30.8068 115.949 35.4142 114.419 36.9308C112.947 38.2174 115.23 34.0054 114.175 34.2498C112.408 37.7933 110.569 41.301 108.666 44.7727C104.874 49.0494 105.348 47.4753 106.756 44.1761C108.192 40.8769 110.612 35.8167 111.28 33.2938C112.494 31.4681 113.485 30.2965 114.103 29.8365C114.685 27.3926 115.762 23.8634 115.762 21.973C115.762 20.1042 114.699 19.8167 111.438 23.8994L112.264 22.6702C107.876 26.9829 106.123 31.5328 104.127 35.9101C102.791 38.9506 101.34 41.8976 99.3866 44.8374C99.3866 44.8446 99.3794 44.8517 99.3794 44.8589C99.3794 44.8589 99.3723 44.8589 99.3723 44.8733C99.559 44.4564 99.6308 44.1617 99.5446 44.0755C99.1209 44.8589 98.8408 45.4411 98.6612 45.8868V45.9012H98.654C97.9861 46.8571 97.2607 47.7987 96.4563 48.7547C96.5568 47.4393 100.579 38.8571 103.638 32.0287C105.168 28.6074 106.432 25.6244 106.756 24.1941C107.093 22.7565 106.461 22.8571 104.4 25.6532C103.143 30.5265 100.241 35.7664 97.5767 40.3666C94.8906 44.9524 92.4487 48.8266 91.2061 50.6307C94.079 43.867 97.1386 37.1392 100.385 30.433C99.7888 30.0018 96.6287 35.3639 97.0883 33.1572L95.4867 37.8652C92.3553 46.7277 92.2332 45.9587 92.2404 44.2839C92.2619 42.602 92.2907 40 90.215 45.2542C94.4525 33.3153 96.485 28.5427 98.3021 23.734C100.148 18.9326 101.85 14.0952 106.052 2.08444C103.057 8.47438 100.27 14.6056 98.1297 18.7529C95.9679 22.9218 94.4597 25.1644 93.7055 23.6406C95.9248 17.5669 98.3093 11.4932 100.866 5.42676C99.559 3.03323 95.8386 8.41688 92.3697 16.5319C90.6172 20.557 88.9007 25.1932 87.3996 29.7718C85.877 34.3791 84.5627 38.929 83.5284 42.7313C84.8571 35.903 85.5753 31.2237 86.2576 26.8032C86.9471 22.3827 87.5863 18.2138 89.1808 12.3414L87.3493 13.6496L86.4587 14.3037L86.0135 14.6271L85.5825 14.8931L87.0261 7.47528L88.5631 -0.00720215C88.1035 1.91194 87.7084 3.42856 87.3637 4.64329C87.019 5.82209 86.7317 6.70618 86.4731 7.41778C85.9488 8.82658 85.5682 9.50223 85.2091 10.336C84.498 11.9964 83.9594 14.2965 82.961 24.3737C83.55 21.7502 83.7798 19.3998 84.261 20.1545C83.866 23.1734 83.1693 27.752 82.4798 31.4393C81.7832 35.1267 81.1152 37.9299 80.6053 37.3549C80.4545 34.7745 80.713 32.841 81.108 30.8428C81.4887 28.8517 81.9843 26.7888 82.1423 23.9209C81.3163 27.9101 81.223 26.566 81.108 25.035C81.0003 23.504 80.8639 21.6999 80.1815 24.6397C80.2606 27.5004 80.3036 30.3684 80.3108 33.2578C79.5639 39.044 79.2766 39.1446 78.9749 38.5481C78.7379 38.0233 78.465 37.0027 78.0844 38.4834C79.0109 33.6819 79.176 27.3998 79.0683 20.9524L79.0539 22.4474C78.6877 22.8356 78.1921 25.0494 77.7899 26.336C77.3877 27.6226 77.0789 27.9964 76.928 24.7116C77.2369 19.3998 77.5816 14.0737 77.9838 8.74751C77.4595 12.6649 76.9855 16.5822 76.5761 20.478C76.2242 18.5445 75.9369 12.9739 76.7341 9.90475C74.8811 5.23988 74.8955 13.7215 74.8668 21.5777C74.8452 25.5166 74.7949 29.2974 74.5292 31.1878C74.2635 33.0925 73.8253 33.0853 72.7552 29.5561C72.5541 23.6406 72.9204 19.637 74.1342 23.0943C74.1557 13.5705 73.811 8.01436 72.2812 4.64329C72.2309 3.93889 72.2381 3.45731 72.2094 2.88229C70.8519 2.94698 69.2719 2.99729 67.9288 4.29109C66.6001 5.60645 65.5228 8.16531 65.4007 13.4915C64.4167 9.50223 64.4239 5.55614 64.546 1.54536C62.7146 -0.826609 61.9604 1.64599 61.235 3.51481C60.8616 4.45641 60.4881 5.24707 59.8992 5.24707C59.3102 5.24707 58.5274 4.44203 57.3064 2.30726C58.1323 3.96764 58.9439 5.64239 59.7411 7.36746C59.5185 11.6945 58.8434 14.5912 57.6799 15.0656C56.5235 15.5759 54.8286 13.7071 52.6524 8.88408C52.6524 8.88408 53.0546 6.20304 52.2286 5.14644C51.4099 4.08264 50.943 8.43125 49.3414 6.90026C47.7541 5.36207 46.9282 7.37465 46.9282 7.37465C46.9282 7.37465 49.2696 14.5481 51.6325 18.4366C51.4386 20.1545 51.2518 21.8077 51.1513 23.5112C51.0507 25.2147 50.9789 26.8967 50.943 28.5427L45.5277 14.9793C45.4056 16.8553 45.3122 18.7026 45.2619 20.5211C46.605 23.0943 45.4989 22.318 44.7664 22.5984C44.0194 22.8571 43.5957 24.0575 46.3895 30.2318C44.831 28.1401 43.7752 25.6388 42.9205 22.9578C42.0659 20.2767 41.4123 17.4088 40.493 14.7134C40.7587 16.9775 40.2632 16.6972 39.9543 16.9056C39.667 17.0997 39.5665 17.7754 40.8305 21.7861C38.6903 18.2641 36.5069 14.7853 34.2732 11.3639C34.5677 14.7349 34.9843 18.0629 35.4727 21.2758C35.0561 20.1545 34.4672 19.5292 34.0578 18.4223C35.9108 23.4393 34.4169 22.6415 33.2893 22.7637C32.2407 22.9074 31.5297 23.9569 35.2931 31.4537C35.0705 31.0368 34.8047 30.6559 34.5031 30.1455C36.6649 34.4223 36.4207 35.4214 35.3721 35.2704C34.3451 35.1339 32.528 33.9119 31.6302 33.4088C31.7308 34.8679 33.2893 37.2183 35.171 39.7197C37.0527 42.221 39.2433 44.9021 40.6725 46.9003C39.5521 46.8643 38.7764 46.8499 38.3527 47.0296C37.9433 47.2309 37.893 47.6262 38.1875 48.4025C38.7836 49.9263 40.6797 53.1033 44.2062 58.9182C38.9488 54.1168 35.4152 49.6675 32.3628 45.3764C29.2745 41.1428 26.6386 37.1105 22.3365 34.566C24.484 37.2902 26.1287 40.0287 27.3927 42.5013C28.6352 44.9739 29.4325 47.1518 29.77 48.8481C27.4789 47.8203 25.2955 47.4106 22.5951 46.7134C19.8874 46.0162 16.7847 45.1177 12.4682 43.0979L19.399 48.4528C20.0669 50.2354 20.7852 51.9748 21.5536 53.664C18.4438 50.7098 15.3985 47.6765 12.418 44.5642C14.4361 46.8356 17.9482 51.4286 20.936 54.6415C22.0923 56.3162 21.7691 56.5822 20.5984 56.1653C19.4565 55.7484 17.5532 54.6846 15.8007 53.7143C12.3102 51.752 9.38708 50.2713 14.4361 54.9003C13.5958 54.4762 12.7842 54.0593 12.0229 53.6424C14.6731 55.77 15.2621 56.8985 15.4129 57.9407C15.5566 58.9757 15.2046 59.9173 15.8941 61.4699C12.813 59.5436 9.73183 57.5741 6.66505 55.5543C7.51254 55.4322 8.36722 55.3243 9.21471 55.2237C4.47449 52.9596 4.6325 53.8796 5.86783 55.3818C7.09598 56.9057 9.40863 58.9973 8.89151 59.5364C11.6638 62.6056 19.7078 65.7538 22.2934 67.7736C21.726 68.0036 24.326 69.9083 21.4746 68.9955C19.8299 68.8446 16.993 67.6657 14.0698 66.1923C11.1539 64.7331 8.15175 62.9506 6.17666 61.8005C10.9312 64.6181 12.971 65.8904 14.235 67.0045C15.5063 68.097 16.0306 69.0458 17.7543 70.8787C13.0572 69.2039 11.039 68.2623 10.1915 67.5795C11.2975 68.5714 13.2511 69.7862 17.388 71.5543C15.4775 71.1159 13.5743 70.7062 11.6638 70.3109C7.39763 70.2821 11.7787 72.5606 16.7344 74.7457C21.7045 76.9883 27.2491 79.1446 25.5326 79.9137C23.0116 78.9218 23.2199 79.5328 23.2845 80.3019C23.3276 81.0638 23.2845 81.9407 20.2106 81.7466C19.4924 81.1428 15.9947 80.5247 11.9727 79.9065C7.95065 79.2812 3.41872 78.6918 0.553038 77.743C-1.19941 78.8859 1.616 79.6981 5.1137 80.4959C8.62578 81.301 12.8058 82.1491 13.8759 83.2632C9.96166 82.4223 6.03302 81.5238 2.11156 80.5822C4.67559 82.0916 6.27003 82.4151 7.66337 82.7529C9.04952 83.0764 10.2705 83.3998 12.0948 84.6002C8.71914 83.6083 9.02798 85.1321 5.21425 83.4214C4.18721 86.0952 5.16398 85.4555 4.05793 87.8203L15.0897 88.6972C16.3897 89.4447 11.5345 89.4735 9.55945 89.61C9.32244 89.2794 9.66001 88.8194 8.23794 88.7835C3.53363 88.9847 4.92697 89.4807 6.39931 89.9191C7.88601 90.3791 9.44454 90.7817 5.2358 91.2417C8.61141 91.026 13.3804 90.8823 14.1273 91.7592C8.15894 91.4142 8.13739 92.7942 6.23412 93.168C7.83574 93.053 8.40313 93.513 9.22908 94.0018C10.1843 94.5768 11.4771 95.1878 14.9892 95.0871C10.3567 96.3306 9.85392 95.0081 6.30594 95.0584C10.529 95.3531 10.9887 96.23 11.0318 97.1428C11.0749 98.0485 10.7732 99.0117 13.129 99.1482C12.5113 99.2273 12.0732 99.3207 11.671 99.3567C14.235 99.6298 15.8797 100.133 17.8405 100.658C19.794 101.175 22.0349 101.721 25.5828 101.923C23.6724 102.088 21.7547 102.239 19.8084 102.361C17.9698 104.755 31.8169 101.161 32.0037 102.411C28.111 103.166 28.427 103.691 28.6209 104.194C28.8076 104.69 28.9513 105.179 24.6563 106.02C29.2673 105.675 31.4363 105.926 37.8069 104.331C35.8677 105.308 33.3252 105.84 30.9766 106.228C28.6353 106.638 26.5022 106.933 25.6762 107.817C27.0983 107.817 28.5347 107.766 29.9424 107.702L26.1861 109.24C29.1093 108.284 29.7485 109.168 31.9247 108.277C27.4574 110.131 24.5486 111.842 21.1371 113.114C22.0133 113.258 21.5824 114.013 21.4603 114.659C21.3382 115.285 21.5465 115.788 23.6149 115.256L21.5752 116.262C25.748 114.854 26.4519 115.199 27.206 115.493C27.9458 115.781 28.6999 116.011 32.6501 114.12C31.3357 114.99 30.0429 115.874 28.7645 116.758C30.2153 117.412 37.6632 112.863 39.6527 112.223C40.1267 112.395 41.1466 112.302 40.7084 113.042C38.1157 113.926 36.7439 114.904 35.8461 115.953C34.9124 116.995 34.46 118.052 33.3252 119.008C33.5766 119.504 35.0202 120.417 37.8859 119.001C34.6539 120.827 32.5064 122.746 31.4004 121.955C28.3982 124.528 29.1955 124.73 30.7181 124.406C32.2551 124.111 34.4097 123.314 34.5246 124.212L31.7523 126.469C35.3362 126.555 39.8179 122.544 44.6586 119.073C41.6996 122.135 40.8449 122.782 37.2251 125.29C36.8014 126.656 37.6417 127.202 38.6113 127.576C39.588 127.964 40.7444 128.108 41.2399 128.748C39.8107 131.191 38.4892 132.248 37.1461 132.859C38.956 132.205 39.6527 132.895 40.6797 133.089C41.6852 133.29 42.9134 133.067 45.2907 130.602C43.3802 132.579 44.8669 132.341 44.7304 133.671C45.4846 132.55 46.5619 131.155 46.5188 131.342C47.6967 130.48 49.0182 129.804 50.0165 129.603C51.0148 129.409 51.654 129.761 51.6253 130.947L50.4044 132.37C51.3811 133.319 53.3203 131.601 54.8788 130.271C55.6761 129.596 56.4014 129.028 56.9473 128.934C57.5003 128.848 57.8953 129.208 58.1252 130.372C58.1611 131.623 56.0423 134.483 57.055 134.634C58.2257 132.873 59.4323 128.949 60.1433 130.401L58.9798 133.693C59.6191 132.643 60.2367 131.615 60.8257 130.595C61.2638 127.748 59.9063 128.244 61.6588 125.491C61.5798 127.231 62.0323 126.541 62.4345 125.951C62.8582 125.348 63.2101 124.873 63.246 126.857C62.9157 127.087 61.8958 129.416 61.3069 130.674C61.6444 131.86 62.1472 132.248 62.6643 132.32C63.1958 132.392 63.7416 132.14 64.2731 131.874C64.8046 131.608 65.3217 131.349 65.8244 131.443C66.3272 131.536 66.8227 131.953 67.3686 132.945C69.0061 130.875 70.6436 130.667 71.5845 128.884C71.3906 131.515 71.3188 133.851 70.5287 135.95C71.1392 136.129 71.6563 134.677 72.0657 133.75C72.4823 132.801 72.7983 132.349 73.2005 134.196C73.7607 130.782 76.3463 132.025 76.2745 127.698C76.375 128.589 77.4164 127.806 76.4827 130.142C77.165 129.459 77.7253 130.415 78.2424 131.443C78.7595 132.471 79.2263 133.599 79.5854 133.527C79.9661 133.369 78.7954 131.084 79.6716 130.947C79.8009 131.105 79.8871 131.493 80.0307 131.637L80.2318 130.739C80.7274 131.558 80.1385 132.622 80.2462 133.642C80.9644 133.937 81.4169 133.247 81.8478 132.514C82.2787 131.759 82.7025 130.99 83.4063 130.739L83.2914 131.357L84.8212 131.155L84.7853 131.349L85.6903 130.02L85.8698 130.774C86.0853 130.494 86.0063 130.02 86.3654 129.84L86.5234 130.767C86.4947 130.02 86.7676 129.402 87.1411 128.97C87.5073 128.51 87.9526 128.237 88.2902 128.165L88.5488 128.474C88.8935 127.835 89.2239 127.245 89.5543 126.67C90.7106 127.181 89.1664 128.575 90.6244 127.612L90.7824 129.1C91.7448 128.144 92.226 128.762 92.8221 127.993C92.1686 127.562 91.6586 127.827 91.8094 127.152C92.5923 127.677 92.9155 127.411 93.131 126.994C93.3321 126.562 93.4542 125.98 93.763 125.614C93.3249 125.786 93.0017 125.822 93.016 126.548C92.5277 126.677 92.542 126.023 92.226 126.052C92.1039 126.311 91.989 126.598 91.8669 126.886L91.278 126.124C90.9979 126.447 90.6962 126.735 90.4161 127.08C90.0139 126.002 89.2813 127.159 89.2382 125.908C88.6278 126.541 87.809 125.678 87.5433 127.037C86.7029 126.311 88.0676 126.016 87.4355 125.944C87.0692 126.095 86.7101 126.246 86.3295 126.383C85.9488 126.498 85.5682 126.598 85.1803 126.692C84.4046 126.886 83.5859 126.965 82.7743 126.972C81.1296 127.015 79.4274 126.649 77.8043 126.038L77.9192 125.47C77.7324 126.21 77.4595 126.836 77.3231 127.447C76.9496 126.555 76.2098 125.412 75.5419 124.866C74.8739 124.291 74.2563 124.334 73.9187 126.117C73.8182 125.887 73.9618 125.376 74.0264 125.118C73.5309 125.226 72.8198 124.435 72.1375 123.587C71.8574 123.249 71.5701 122.889 71.3044 122.559C70.8735 122.429 70.4497 122.286 70.026 122.128C69.5879 123.623 69.2 122.774 68.8481 122.092C68.4531 121.358 68.1227 120.769 67.3039 123.903L67.7995 122.695C67.857 123.709 67.541 124.737 67.0957 125.743C66.6576 126.742 66.0974 127.705 65.8388 128.496C66.2841 124.04 66.4205 125.204 66.8227 120.992C66.8658 121.588 66.9305 122.185 66.9951 122.767L67.2752 121.021C67.1244 120.956 66.9808 120.891 66.8299 120.812C65.7598 122.803 65.3001 121.567 65.1637 120.043C65.1637 120.022 65.1565 119.993 65.1565 119.971C64.6466 119.705 64.151 119.418 63.6698 119.123C63.4112 118.972 63.1527 118.807 62.9013 118.641C62.3698 119.518 61.7665 120.561 61.3715 120.992C61.7593 119.914 62.1543 119.123 62.5565 118.419C61.4361 117.693 60.3588 116.888 59.3389 116.04C58.5705 117.427 58.2042 118.505 57.134 119.748C57.213 118.843 58.0677 116.931 58.987 115.738C57.6799 114.624 56.4589 113.409 55.3241 112.115C55.1015 112.323 54.886 112.532 54.6777 112.719C53.7512 113.56 52.8822 114.271 51.5535 114.652C52.3866 113.977 53.5717 112.676 54.728 111.418C51.5535 107.579 49.169 103.044 47.8403 98.0844L47.6536 98.2785L45.937 98.9542L47.8188 97.991C47.0503 95.0943 46.6409 92.0611 46.6409 88.9272C46.6409 69.4627 62.4057 53.6855 81.855 53.6855C93.2818 53.6855 103.437 59.1267 109.865 67.5651C114.821 63.8634 118.872 60.8733 122.657 57.9407C124.682 56.3738 126.643 54.8284 128.618 53.2039C129.085 52.8158 129.58 52.4133 130.105 51.9676C130.349 51.7664 130.6 51.5508 130.859 51.3351C131.096 51.1123 131.318 50.8607 131.548 50.6235C132.453 49.646 133.351 48.6181 134.234 47.4968C130.787 49.6532 126.858 51.867 125.242 52.3486C123.626 52.823 124.244 51.5292 129.667 46.4546L118.965 55.6909C115.625 56.9057 120.933 51.9892 126.664 46.433C129.53 43.6586 132.525 40.7403 134.55 38.3109C135.57 37.0889 136.339 35.9964 136.734 35.1123C137.122 34.2354 137.237 33.4519 136.82 33.0063V33.035Z" fill="url(#paint2_linear_705_5248)"/>
<path d="M193.401 112.92H195.29V123.68H193.401V112.92Z" fill="#131313"/>
<path d="M203.693 112.92H205.445L211.205 120.359V112.92H213.066V123.68H211.486L205.553 116.025V123.68H203.693V112.92Z" fill="#131313"/>
<path d="M221.361 112.92H225.369C228.752 112.92 231.086 115.242 231.086 118.268V118.297C231.086 121.323 228.752 123.68 225.369 123.68H221.361V112.92ZM225.369 121.962C227.624 121.962 229.103 120.438 229.103 118.332V118.304C229.103 116.198 227.631 114.645 225.369 114.645H223.25V121.962H225.369Z" fill="#131313"/>
<path d="M239.015 112.92H240.904V123.68H239.015V112.92Z" fill="#131313"/>
<path d="M253.12 112.841H254.873L259.606 123.68H257.609L256.518 121.078H251.433L250.327 123.68H248.387L253.12 112.841ZM255.828 119.403L253.968 115.098L252.122 119.403H255.828Z" fill="#131313"/>
<path d="M276.484 122.192L280.19 119.037C281.662 117.793 282.201 117.096 282.201 116.133C282.201 115.069 281.447 114.458 280.463 114.458C279.479 114.458 278.804 114.997 277.971 116.075L276.635 115.033C277.662 113.588 278.682 112.776 280.599 112.776C282.704 112.776 284.147 114.07 284.147 115.989V116.018C284.147 117.707 283.257 118.634 281.353 120.187L279.141 122.034H284.255V123.694H276.477V122.199L276.484 122.192Z" fill="#131313"/>
<path d="M291.559 118.332V118.304C291.559 115.227 293.434 112.74 296.264 112.74C299.093 112.74 300.932 115.199 300.932 118.275V118.304C300.932 121.38 299.057 123.867 296.228 123.867C293.398 123.867 291.559 121.409 291.559 118.332ZM298.978 118.332V118.304C298.978 116.183 297.887 114.444 296.228 114.444C294.569 114.444 293.506 116.133 293.506 118.275V118.304C293.506 120.424 294.583 122.164 296.256 122.164C297.93 122.164 298.978 120.46 298.978 118.332Z" fill="#131313"/>
<path d="M307.935 122.192L311.641 119.037C313.113 117.793 313.652 117.096 313.652 116.133C313.652 115.069 312.898 114.458 311.914 114.458C310.93 114.458 310.255 114.997 309.421 116.075L308.085 115.033C309.113 113.588 310.132 112.776 312.05 112.776C314.154 112.776 315.598 114.07 315.598 115.989V116.018C315.598 117.707 314.707 118.634 312.804 120.187L310.592 122.034H315.706V123.694H307.927V122.199L307.935 122.192Z" fill="#131313"/>
<path d="M322.881 122.192L326.587 119.037C328.059 117.793 328.598 117.096 328.598 116.133C328.598 115.069 327.844 114.458 326.86 114.458C325.876 114.458 325.201 114.997 324.367 116.075L323.032 115.033C324.059 113.588 325.078 112.776 326.996 112.776C329.1 112.776 330.544 114.07 330.544 115.989V116.018C330.544 117.707 329.653 118.634 327.75 120.187L325.538 122.034H330.652V123.694H322.874V122.199L322.881 122.192Z" fill="#131313"/>
<path d="M101.419 90.6451V90.5517C101.419 83.213 107.323 77.2615 115.274 77.2615C123.224 77.2615 129.035 83.1195 129.035 90.4582V90.5517C129.035 97.8904 123.131 103.842 115.18 103.842C107.23 103.842 101.419 97.9838 101.419 90.6451ZM121.888 90.6451V90.5517C121.888 86.7853 119.173 83.5005 115.173 83.5005C111.173 83.5005 108.558 86.6918 108.558 90.4582V90.5517C108.558 94.3181 111.273 97.6029 115.274 97.6029C119.274 97.6029 121.888 94.4115 121.888 90.6451Z" fill="#2956A6"/>
<path d="M131.886 77.7288H139.118V81.3514C140.785 79.2095 142.975 77.2544 146.638 77.2544C149.971 77.2544 152.491 78.7279 153.827 81.3011C156.068 78.6776 158.733 77.2544 162.209 77.2544C167.588 77.2544 170.827 80.4961 170.827 86.6416V103.267H163.588V89.0208C163.588 85.5922 162.065 83.8312 159.35 83.8312C156.636 83.8312 154.969 85.5922 154.969 89.0208V103.267H147.73V89.0208C147.73 85.5922 146.207 83.8312 143.492 83.8312C140.777 83.8312 139.111 85.5922 139.111 89.0208V103.267H131.879V77.7288H131.886Z" fill="#2956A6"/>
<path d="M174.727 77.7288H181.96V81.3514C183.626 79.2095 185.817 77.2544 189.48 77.2544C192.812 77.2544 195.333 78.7279 196.669 81.3011C198.91 78.6776 201.574 77.2544 205.05 77.2544C210.43 77.2544 213.669 80.4961 213.669 86.6416V103.267H206.429V89.0208C206.429 85.5922 204.907 83.8312 202.192 83.8312C199.477 83.8312 197.811 85.5922 197.811 89.0208V103.267H190.571V89.0208C190.571 85.5922 189.049 83.8312 186.334 83.8312C183.619 83.8312 181.953 85.5922 181.953 89.0208V103.267H174.72V77.7288H174.727Z" fill="#2956A6"/>
<path d="M217.382 94.2679V77.736H224.622V91.9821C224.622 95.4107 226.238 97.1717 229.003 97.1717C231.768 97.1717 233.528 95.4107 233.528 91.9821V77.736H240.767V103.274H233.528V99.6515C231.862 101.793 229.721 103.749 226.051 103.749C220.578 103.749 217.389 100.126 217.389 94.2679H217.382Z" fill="#2956A6"/>
<path d="M244.847 77.7288H252.079V81.3514C253.745 79.2095 255.886 77.2544 259.556 77.2544C265.029 77.2544 268.218 80.877 268.218 86.7351V103.267H260.978V89.0208C260.978 85.5922 259.362 83.8312 256.597 83.8312C253.832 83.8312 252.072 85.5922 252.072 89.0208V103.267H244.84V77.7288H244.847Z" fill="#2956A6"/>
<path d="M272.268 68.4924H279.888V74.9255H272.268V68.4924ZM272.462 77.7359H279.702V103.274H272.462V77.7359Z" fill="#2956A6"/>
<path d="M282.876 90.6451V90.5517C282.876 83.2633 288.442 77.2615 296.257 77.2615C301.061 77.2615 304.064 78.8787 306.441 81.5526L302.009 86.3181C300.393 84.6002 298.77 83.5077 296.199 83.5077C292.579 83.5077 290.008 86.699 290.008 90.4654V90.5589C290.008 94.469 292.529 97.6101 296.479 97.6101C298.907 97.6101 300.573 96.5607 302.333 94.8931L306.57 99.1842C304.092 101.901 301.241 103.856 296.142 103.856C288.478 103.856 282.862 97.9479 282.862 90.6595L282.876 90.6451Z" fill="#2956A6"/>
<path d="M307.396 95.9281V95.8347C307.396 90.2642 311.633 87.6909 317.681 87.6909C320.252 87.6909 322.105 88.1222 323.915 88.7404V88.3091C323.915 85.3046 322.062 83.637 318.442 83.637C315.684 83.637 313.731 84.1617 311.396 85.0171L309.587 79.4897C312.395 78.2534 315.153 77.4412 319.491 77.4412C323.441 77.4412 326.299 78.4906 328.109 80.3019C330.013 82.2067 330.867 85.0171 330.867 88.4457V103.26H323.872V100.5C322.112 102.455 319.685 103.741 316.158 103.741C311.346 103.741 307.396 100.981 307.396 95.9281ZM324.008 94.2606V92.974C322.773 92.4061 321.15 92.018 319.39 92.018C316.295 92.018 314.391 93.2543 314.391 95.5472V95.6406C314.391 97.5957 316.007 98.7386 318.342 98.7386C321.724 98.7386 324.008 96.8841 324.008 94.2606Z" fill="#2956A6"/>
<path d="M95.3214 97.876L94.4883 98.6523C92.6712 100.349 90.8111 101.707 88.9652 102.692C87.2056 103.633 85.0438 104.108 82.5444 104.108C80.6124 104.108 78.8025 103.727 77.1721 102.979C75.5274 102.225 74.0838 101.175 72.8916 99.8598C71.6922 98.5445 70.7441 96.9704 70.0834 95.195C69.4154 93.4124 69.0779 91.4717 69.0779 89.4232C69.0779 87.3747 69.4154 85.4412 70.0762 83.6873C70.7369 81.9335 71.6778 80.3882 72.8844 79.0872C74.0838 77.7934 75.5274 76.7511 77.1721 75.9964C78.8025 75.2489 80.6124 74.8679 82.5444 74.8679C84.8786 74.8679 86.983 75.3351 88.7929 76.2624C90.6746 77.2255 92.4845 78.505 94.1723 80.0719L95.0629 80.8985L101.599 73.3657L100.794 72.5894C99.7097 71.5472 98.5319 70.5696 97.3037 69.6927C96.0612 68.8015 94.6894 68.0252 93.2243 67.3855C91.7591 66.7457 90.1359 66.2354 88.3907 65.8832C86.6526 65.531 84.7062 65.3513 82.609 65.3513C79.0826 65.3513 75.8147 65.991 72.8916 67.2561C69.9756 68.5139 67.4116 70.2678 65.2857 72.4672C63.1598 74.6595 61.4863 77.2543 60.3156 80.1725C59.145 83.0908 58.5488 86.2462 58.5488 89.5526C58.5488 92.859 59.1521 96.0863 60.3515 99.0045C61.5438 101.923 63.2172 104.496 65.3216 106.645C67.426 108.794 69.9541 110.519 72.8269 111.756C73.5236 112.058 74.2562 112.323 75.0103 112.561V120.676L82.0488 113.632C82.1278 113.632 82.2068 113.632 82.2858 113.632C84.4261 113.632 86.4156 113.445 88.1968 113.071C89.9923 112.697 91.6729 112.129 93.1883 111.389C94.6894 110.663 96.1115 109.786 97.4115 108.794C98.7114 107.802 99.9611 106.66 101.139 105.394L101.907 104.568L95.3071 97.8832L95.3214 97.876Z" fill="#2956A6"/>
</g>
<defs>
<linearGradient id="paint0_linear_705_5248" x1="357.312" y1="124.42" x2="357.312" y2="56.8553" gradientUnits="userSpaceOnUse">
<stop stop-color="#6ABD47"/>
<stop offset="0.09" stop-color="#99CC41"/>
<stop offset="0.17" stop-color="#BCD73C"/>
<stop offset="0.23" stop-color="#D1DE39"/>
<stop offset="0.27" stop-color="#D9E139"/>
<stop offset="0.41" stop-color="#E2A730"/>
<stop offset="0.57" stop-color="#EC6F27"/>
<stop offset="0.64" stop-color="#F05A24"/>
<stop offset="0.97" stop-color="#EE2427"/>
</linearGradient>
<linearGradient id="paint1_linear_705_5248" x1="5.4585" y1="93.2327" x2="6.21262" y2="93.2327" gradientUnits="userSpaceOnUse">
<stop offset="0.07" stop-color="#6BC7B6"/>
<stop offset="0.37" stop-color="#97CA82"/>
<stop offset="1" stop-color="#FED30C"/>
</linearGradient>
<linearGradient id="paint2_linear_705_5248" x1="22.4514" y1="108.155" x2="122.658" y2="14.5401" gradientUnits="userSpaceOnUse">
<stop stop-color="#6ABD47"/>
<stop offset="0.1" stop-color="#99CC41"/>
<stop offset="0.18" stop-color="#BCD73C"/>
<stop offset="0.24" stop-color="#D1DE39"/>
<stop offset="0.29" stop-color="#D9E139"/>
<stop offset="0.43" stop-color="#E2A730"/>
<stop offset="0.57" stop-color="#EC6F27"/>
<stop offset="0.64" stop-color="#F05A24"/>
<stop offset="0.97" stop-color="#EE2427"/>
</linearGradient>
<clipPath id="clip0_705_5248">
<rect width="376" height="136" fill="white"/>
</clipPath>
</defs>
</svg>
