<svg width="241" height="59" viewBox="0 0 241 59" fill="none" xmlns="http://www.w3.org/2000/svg">
<path d="M200.671 19.7812V32.0838C200.671 34.2541 201.477 35.7814 203.487 35.7814C206.928 35.7814 208.224 31.0014 208.224 25.7277V19.7812H214.93L214.903 41.1907H210.344L208.851 32.8556C208.001 37.9503 205.454 41.2409 201.118 41.2409C196.156 41.2409 193.967 37.7699 193.967 32.0893V19.7812H200.671Z" fill="black"/>
<path d="M92.5966 19.7406C92.7942 19.3641 92.9011 18.9459 92.9086 18.5199C92.9086 17.4822 92.2833 16.8922 91.1214 16.8515L93.1386 13.6504C95.5525 13.7399 97.0721 15.0936 97.0721 16.9871C97.0721 18.3842 96.3123 19.4667 94.4793 20.5477C95.4734 21.064 96.3078 21.8459 96.8912 22.808C97.4746 23.7701 97.7847 24.8754 97.7875 26.0032C97.7875 29.7455 94.2561 32.9914 87.9544 32.9914C86.3606 33.0226 84.7732 32.7785 83.261 32.2698C82.9625 32.3855 82.7008 32.5809 82.5039 32.8351C82.3071 33.0893 82.1825 33.3928 82.1435 33.713C82.1435 34.8849 83.3955 35.2443 84.9595 35.2443H89.9205C96.4468 35.2443 99.7093 37.6343 99.7093 41.2858C99.7093 45.8853 95.3293 48.274 87.5523 48.274C81.0704 48.274 75.8418 46.8307 75.8418 43.3149C75.8418 40.8802 78.8353 39.4831 82.6357 39.4383C78.881 38.8958 76.9593 37.77 76.9593 35.2443C76.9593 32.9914 79.5965 31.8181 81.6069 31.5034C80.5766 31.0083 79.7065 30.2289 79.0974 29.2554C78.4883 28.2819 78.1652 27.1543 78.1656 26.0032C78.1656 21.9 81.9647 18.9702 87.9544 18.9702C89.5331 18.9701 91.1012 19.2303 92.5966 19.7406ZM86.4724 39.9375C83.7465 39.9375 82.0924 40.6591 82.0924 42.2827C82.0924 43.9945 84.2374 44.8965 87.8132 44.8965C91.4791 44.8965 93.5797 43.8114 93.5797 42.0562C93.5797 40.8354 92.4178 39.9375 90.0039 39.9375H86.4724ZM87.9517 22.4006C87.0033 22.4006 86.0938 22.7805 85.4232 23.4569C84.7526 24.1333 84.3759 25.0507 84.3759 26.0072C84.3759 26.9638 84.7526 27.8812 85.4232 28.5575C86.0938 29.2339 87.0033 29.6139 87.9517 29.6139C88.428 29.6395 88.9042 29.5638 89.3496 29.3916C89.7949 29.2194 90.1993 28.9546 90.5366 28.6144C90.8738 28.2743 91.1364 27.8664 91.3071 27.4172C91.4778 26.968 91.5529 26.4876 91.5275 26.0072C91.5611 25.5245 91.4915 25.0402 91.3234 24.587C91.1553 24.1338 90.8927 23.7222 90.5532 23.3803C90.2138 23.0383 89.8055 22.7739 89.356 22.6048C88.9065 22.4358 88.4262 22.3661 87.9477 22.4006H87.9517Z" fill="black"/>
<path d="M139.035 41.3362C135.459 41.3362 133.538 38.9909 132.42 36.331V48.2782H125.715V19.8765H129.604L131.034 26.5486C131.883 23.2119 133.761 19.4248 138.856 19.4248C144.488 19.4248 147.572 24.1587 147.572 30.3805C147.572 36.6023 144.577 41.3362 139.035 41.3362ZM136.711 23.9335C134.342 23.9335 132.42 26.375 132.42 30.3805C132.42 34.3859 134.342 36.8275 136.711 36.8275C139.437 36.8275 140.868 34.1676 140.868 30.3805C140.868 26.5934 139.437 23.9335 136.711 23.9335Z" fill="black"/>
<path d="M107.436 19.7812V32.0838C107.436 34.2541 108.243 35.7814 110.25 35.7814C113.693 35.7814 114.989 31.0014 114.989 25.7277V19.7812H121.693L121.668 41.1907H117.109L115.615 32.8556C114.765 37.9503 112.218 41.2409 107.882 41.2409C102.921 41.2409 100.73 37.7699 100.73 32.0893V19.7812H107.436Z" fill="black"/>
<path d="M158.149 41.2358C156.29 41.2988 154.442 40.9252 152.75 40.1444C151.059 39.3636 149.57 38.197 148.402 36.7366L151.374 33.6508C152.126 34.7173 153.105 35.6001 154.24 36.234C155.375 36.8678 156.637 37.2366 157.932 37.3131C159.68 37.3131 160.247 36.4748 160.247 35.5497C160.247 34.4931 159.33 33.8312 156.926 33.0377C151.2 31.1387 149.496 29.2018 149.496 25.7131C149.496 21.5693 152.992 19.8059 157.757 19.8059C161.067 19.7839 164.26 21.0466 166.673 23.3326L164.356 26.5079C162.622 24.8481 160.361 23.8635 157.975 23.73C156.663 23.73 155.921 24.259 155.921 25.2736C155.921 26.7277 157.145 27.0369 160.16 28.2265C164.313 29.8542 166.673 31.3571 166.673 34.7956C166.673 38.8553 163.394 41.2358 158.149 41.2358Z" fill="black"/>
<path d="M183.687 41.2353V28.9287C183.687 26.7584 182.88 25.2311 180.871 25.2311C177.429 25.2311 176.133 30.0097 176.133 35.2848V41.2353H169.428V11.21H176.133V27.4407C176.981 22.5712 179.663 19.7757 183.239 19.7757C188.201 19.7757 190.39 23.2481 190.39 28.9287V41.2353H183.687Z" fill="black"/>
<path d="M232.271 41.3362C228.696 41.3362 226.773 38.9909 225.655 36.331V48.2782H218.951V19.8765H222.84L224.27 26.5486C225.12 23.2119 226.997 19.4248 232.093 19.4248C237.723 19.4248 240.808 24.1587 240.808 30.3805C240.808 36.6023 237.813 41.3362 232.271 41.3362ZM229.946 23.9335C227.578 23.9335 225.655 26.375 225.655 30.3805C225.655 34.3859 227.578 36.8275 229.946 36.8275C232.674 36.8275 234.103 34.1676 234.103 30.3805C234.103 26.5934 232.674 23.9335 229.946 23.9335Z" fill="black"/>
<path d="M63.9179 16.3124C63.5904 12.2268 59.9726 8.56605 55.8519 8.15012H55.808C54.7113 8.04392 54.0503 9.07637 54.2345 10.1737C55.2757 16.3802 55.1763 27.5336 54.5796 35.2799C54.2579 39.3625 50.6343 43.0203 46.5136 43.4363H46.4989C41.4481 43.9112 36.3535 44.0882 31.3699 44.2416C30.4048 44.2711 29.6035 44.4864 28.9425 44.805C27.179 45.6486 27.7551 48.3271 29.7058 48.4215C31.8817 48.5248 34.0518 48.5926 36.1985 48.6192C37.1314 48.631 38.0234 49.0026 38.6844 49.6693L47.1365 58.1944C47.6571 58.7194 48.3561 58.9997 49.0638 58.9997C49.4177 58.9997 49.7716 58.9289 50.1167 58.7873C51.1403 58.3596 51.8013 57.3596 51.8013 56.2445V48.2829C51.8013 48.2062 51.8598 48.1413 51.9299 48.1354C53.2285 48.0439 54.5445 47.9348 55.8372 47.8109H55.8548C59.9756 47.395 63.5933 43.7342 63.9209 39.6575C64.5175 31.9053 64.5175 24.0528 63.9209 16.3094L63.9179 16.3124Z" fill="#FF3964"/>
<path d="M51.362 8.98525V8.97935C51.0403 4.89676 47.4167 1.23894 43.2959 0.82301H43.2813C31.5917 -0.271385 20.2237 -0.277285 8.52817 0.82301H8.51062C4.39277 1.23894 0.775022 4.89971 0.447466 8.98525C-0.149155 16.7257 -0.149155 24.5811 0.447466 32.3333C0.775022 36.41 4.39277 40.0678 8.51354 40.4867H8.53109C9.82377 40.6106 11.1398 40.7198 12.4384 40.8112C12.5086 40.8171 12.5671 40.882 12.5671 40.9587V48.9203C12.5671 50.0354 13.228 51.0383 14.2516 51.4631C14.5938 51.6047 14.9506 51.6755 15.3045 51.6755C16.0122 51.6755 16.7112 51.3953 17.2318 50.8702L25.6839 42.3451C26.3449 41.6785 27.2194 41.3068 28.1523 41.295C33.1388 41.236 38.2305 40.9646 43.2813 40.4897H43.2959C47.4167 40.0737 51.0403 36.413 51.362 32.3333C51.9586 24.587 51.9586 16.7316 51.362 8.99115V8.98525Z" fill="#5E34F1"/>
<path d="M33.0033 28.6226C32.4593 28.6226 31.9212 28.36 31.5907 27.8704C31.0584 27.0857 31.2573 26.012 32.0353 25.4721L37.3142 21.8291L32.0353 18.186C31.2573 17.6491 31.0555 16.5754 31.5907 15.7878C32.123 15.0031 33.1875 14.7996 33.9684 15.3394L41.3092 20.4043C41.7742 20.7258 42.052 21.2568 42.052 21.8261C42.052 22.3954 41.7742 22.9264 41.3092 23.2479L33.9684 28.3128C33.673 28.5164 33.3367 28.6137 33.0033 28.6137V28.6226Z" fill="white"/>
<path d="M18.8046 28.6222C18.4712 28.6222 18.1349 28.5249 17.8395 28.3213L10.4987 23.2564C10.0337 22.9349 9.75586 22.4039 9.75586 21.8346C9.75586 21.2653 10.0337 20.7343 10.4987 20.4128L17.8395 15.3479C18.6204 14.811 19.682 15.0116 20.2172 15.7962C20.7495 16.5809 20.5506 17.6546 19.7727 18.1945L14.4937 21.8375L19.7727 25.4806C20.5506 26.0175 20.7524 27.0912 20.2172 27.8788C19.8867 28.3685 19.3486 28.631 18.8046 28.631V28.6222Z" fill="white"/>
<path d="M23.4018 33.687C23.2643 33.687 23.124 33.6693 22.9865 33.6339C22.0711 33.4038 21.5125 32.4658 21.7436 31.5425L26.7651 11.2799C26.9932 10.3566 27.9203 9.79319 28.8387 10.0262C29.7541 10.2563 30.3127 11.1944 30.0816 12.1177L25.0601 32.3802C24.867 33.1649 24.1681 33.687 23.4018 33.687Z" fill="white"/>
</svg>
