<svg width="356" height="80" viewBox="0 0 356 80" fill="none" xmlns="http://www.w3.org/2000/svg">
<g clip-path="url(#clip0_914_5355)">
<path d="M294.729 18.084V36.628C294.729 39.888 295.959 42.196 299.029 42.196C304.282 42.196 306.263 34.996 306.263 27.052V18.084H316.498L316.458 50.336H309.498L307.219 37.78C305.921 45.456 302.035 50.412 295.413 50.412C287.838 50.412 284.494 45.184 284.494 36.624V18.084H294.729Z" fill="#1C1B1A"/>
<path d="M129.743 18.0281C130.085 17.3481 130.222 16.7361 130.222 16.1961C130.222 14.6321 129.265 13.7521 127.493 13.6841L130.563 8.86011C134.248 8.99611 136.567 11.0321 136.567 13.8881C136.567 15.9921 135.406 17.6241 132.609 19.2521C135.884 21.1521 137.66 24.0081 137.66 27.4721C137.66 33.1081 132.271 38.0001 122.647 38.0001C119.986 38.0001 117.595 37.6601 115.482 36.9121C114.662 37.3201 113.778 38.0681 113.778 39.0841C113.778 40.8481 115.686 41.3921 118.078 41.3921H125.652C135.614 41.3921 140.598 44.9921 140.598 50.4921C140.598 57.4201 133.911 61.0201 122.036 61.0201C112.142 61.0201 104.157 58.8481 104.157 53.5481C104.157 49.8801 108.73 47.7761 114.529 47.7081C108.799 46.8921 105.865 45.1961 105.865 41.3921C105.865 37.9961 109.892 36.2321 112.962 35.7561C109.55 33.9241 107.71 31.0001 107.71 27.4681C107.71 21.2881 113.508 16.8721 122.655 16.8721C125.379 16.8721 127.698 17.3481 129.743 18.0281ZM120.396 48.4561C116.233 48.4561 113.709 49.5441 113.709 51.9881C113.709 54.5681 116.984 55.9281 122.442 55.9281C127.899 55.9281 131.242 54.2961 131.242 51.6481C131.242 49.8161 129.47 48.4561 125.785 48.4561H120.396ZM122.647 22.0361C118.962 22.0361 117.258 24.6841 117.258 27.4681C117.258 30.2521 118.962 32.9001 122.647 32.9001C126.332 32.9001 128.104 30.3881 128.104 27.4681C128.104 24.5481 126.332 22.0361 122.647 22.0361Z" fill="#1C1B1A"/>
<path d="M200.639 50.56C195.181 50.56 192.244 47.028 190.54 43.02V61.02H180.305V18.232H186.24L188.422 28.284C189.72 23.256 192.585 17.552 200.361 17.552C208.957 17.552 213.667 24.684 213.667 34.056C213.667 43.428 209.098 50.56 200.639 50.56ZM197.09 24.344C193.474 24.344 190.54 28.012 190.54 34.056C190.54 40.1 193.474 43.768 197.09 43.768C201.253 43.768 203.436 39.76 203.436 34.056C203.436 28.352 201.253 24.344 197.09 24.344Z" fill="#1C1B1A"/>
<path d="M152.396 18.084V36.628C152.396 39.888 153.626 42.196 156.696 42.196C161.948 42.196 163.929 34.996 163.929 27.052V18.084H174.164L174.124 50.336H167.164L164.886 37.78C163.588 45.456 159.702 50.412 153.079 50.412C145.504 50.412 142.161 45.184 142.161 36.624V18.084H152.396Z" fill="#1C1B1A"/>
<path d="M229.822 50.412C222.616 50.412 217.943 47.292 214.941 43.636L219.478 38.988C222.279 42.44 225.815 44.5 229.488 44.5C232.156 44.5 233.024 43.24 233.024 41.844C233.024 40.252 231.622 39.252 227.953 38.06C219.213 35.204 216.609 32.28 216.609 27.036C216.609 20.792 221.945 18.136 229.219 18.136C234.624 18.136 239.362 20.196 242.83 23.448L239.293 28.232C236.693 25.908 233.089 24.048 229.552 24.048C227.551 24.048 226.418 24.844 226.418 26.372C226.418 28.564 228.287 29.028 232.892 30.82C239.229 33.276 242.834 35.536 242.834 40.716C242.83 46.824 237.827 50.412 229.822 50.412Z" fill="#1C1B1A"/>
<path d="M268.802 50.412V31.872C268.802 28.612 267.572 26.304 264.502 26.304C259.25 26.304 257.268 33.504 257.268 41.448V50.412H247.033V5.17603H257.268V29.628C258.566 22.292 262.657 18.08 268.119 18.08C275.694 18.08 279.037 23.312 279.037 31.868V50.408H268.802V50.412Z" fill="#1C1B1A"/>
<path d="M342.972 50.56C337.515 50.56 334.577 47.028 332.873 43.02V61.02H322.638V18.232H328.574L330.756 28.284C332.054 23.256 334.919 17.552 342.695 17.552C351.291 17.552 356 24.684 356 34.056C356 43.428 351.431 50.56 342.972 50.56ZM339.424 24.344C335.807 24.344 332.873 28.012 332.873 34.056C332.873 40.1 335.807 43.768 339.424 43.768C343.587 43.768 345.769 39.76 345.769 34.056C345.769 28.352 343.587 24.344 339.424 24.344Z" fill="#1C1B1A"/>
<path d="M70.5739 12.184V12.176C70.1319 6.64 65.1529 1.68 59.4907 1.116H59.4706C43.4085 -0.367998 27.7923 -0.375998 11.7221 1.116H11.698C6.03587 1.68 1.06492 6.644 0.614839 12.184C-0.204946 22.68 -0.204946 33.332 0.614839 43.844C1.06492 49.372 6.03587 54.332 11.698 54.9H11.7221C13.4983 55.068 15.3067 55.216 17.0909 55.34C17.1874 55.348 17.2677 55.436 17.2677 55.54V66.336C17.2677 67.848 18.1759 69.208 19.5824 69.784C20.0526 69.976 20.5429 70.072 21.0291 70.072C22.0016 70.072 22.962 69.692 23.6773 68.98L35.291 57.42C36.1992 56.516 37.4007 56.012 38.6826 55.996C45.5343 55.916 52.5306 55.548 59.4706 54.904H59.4907C65.1529 54.34 70.1319 49.376 70.5739 43.844C71.3937 33.332 71.3937 22.68 70.5739 12.184Z" fill="#6A62A7"/>
<path d="M45.3493 38.8159C44.6019 38.8159 43.8625 38.4599 43.4084 37.7959C42.677 36.7319 42.9503 35.2759 44.0192 34.5439L51.2727 29.6039L44.0192 24.6639C42.9503 23.9359 42.673 22.4799 43.4084 21.4119C44.1398 20.3479 45.6025 20.0719 46.6755 20.8039L56.762 27.6719C57.401 28.1079 57.7828 28.8279 57.7828 29.5999C57.7828 30.3719 57.401 31.0959 56.762 31.5279L46.6755 38.3959C46.2696 38.6839 45.8075 38.8159 45.3493 38.8159Z" fill="white"/>
<path d="M25.8392 38.8159C25.3811 38.8159 24.9189 38.6838 24.5131 38.4079L14.4265 31.5399C13.7875 31.1039 13.4058 30.3839 13.4058 29.6119C13.4058 28.8399 13.7875 28.1159 14.4265 27.6839L24.5131 20.8159C25.586 20.0879 27.0447 20.3599 27.7801 21.4239C28.5115 22.4879 28.2383 23.9439 27.1693 24.6759L19.9118 29.6079L27.1653 34.5479C28.2342 35.2759 28.5115 36.7319 27.7761 37.7999C27.322 38.4599 26.5866 38.8159 25.8392 38.8159Z" fill="white"/>
<path d="M32.1563 45.6839C31.9675 45.6839 31.7746 45.6599 31.5857 45.6119C30.3279 45.2999 29.5603 44.0279 29.8778 42.7759L36.7777 15.2999C37.0911 14.0479 38.365 13.2839 39.6268 13.5999C40.8846 13.9119 41.6522 15.1839 41.3347 16.4359L34.4348 43.9119C34.1696 44.9719 33.2092 45.6839 32.1563 45.6839Z" fill="white"/>
<path d="M87.8255 22.1199C87.3754 16.5799 82.4045 11.6159 76.7423 11.0519H76.7182C76.7182 11.0519 76.6941 11.0519 76.6821 11.0519C75.1751 10.9119 74.2669 12.3119 74.5201 13.7959C75.9507 22.2119 75.8141 37.3359 74.9943 47.8399C74.5522 53.3759 69.5732 58.3359 63.9111 58.8999H63.891C56.951 59.5439 49.9506 59.7839 43.103 59.9919C41.7769 60.0319 40.6758 60.3239 39.7676 60.7559C37.3444 61.8999 38.1361 65.5319 40.8164 65.6599C43.8062 65.7999 46.788 65.8919 49.7376 65.9279C51.0196 65.9439 52.2452 66.4479 53.1534 67.3519L64.767 78.9119C65.4823 79.6239 66.4428 80.0039 67.4153 80.0039C67.9015 80.0039 68.3878 79.9079 68.862 79.7159C70.2684 79.1359 71.1766 77.7799 71.1766 76.2679V65.4719C71.1766 65.3679 71.257 65.2799 71.3535 65.2719C73.1377 65.1479 74.946 64.9999 76.7223 64.8319H76.7464C82.4085 64.2679 87.3795 59.3039 87.8295 53.7759C88.6453 43.2719 88.6453 32.6199 87.8295 22.1239L87.8255 22.1199Z" fill="#EB435F"/>
</g>
<defs>
<clipPath id="clip0_914_5355">
<rect width="356" height="80" fill="white"/>
</clipPath>
</defs>
</svg>
