<svg aria-hidden="true" version="1.1" xmlns="http://www.w3.org/2000/svg" xmlns:xlink="http://www.w3.org/1999/xlink" display="none">
	<defs>

		<symbol id="ro_icon-4col" viewBox="0 0 22 10">
			<path fill="currentColor" d="M0,0h4v4H0V0z M6,4h4V0H6V4z M12,4h4V0h-4V4z M18,0v4h4V0H18z M0,10h4V6H0V10z M6,10h4V6H6V10z M12,10h4V6h-4 V10z M18,10h4V6h-4V10z"></path>
		</symbol>

		<symbol id="ro_icon-3col" viewBox="0 0 22 10">
			<path fill="currentColor" d="M3,0h4v4H3V0z M9,4h4V0H9V4z M15,0v4h4V0H15z M3,10h4V6H3V10z M9,10h4V6H9V10z M15,10h4V6h-4V10z"></path>
		</symbol>

		<symbol id="ro_icon-2col" viewBox="0 0 22 10">
			<path fill="currentColor" d="M6,0h4v4H6V0z M12,0v4h4V0H12z M6,10h4V6H6V10z M12,10h4V6h-4V10z"></path>
		</symbol>

		<symbol id="ro_icon-list-view" viewBox="0 0 22 10">
			<path fill="currentColor" d="M3,0h4v4H3V0z M9,0v4h10V0H9z M3,10h4V6H3V10z M9,10h10V6H9V10z"></path>
		</symbol>
		
		<symbol id="ro_icon-clock" viewBox="0 0 21.1 21.1">
			<path fill="currentColor" d="M15.4,9.8l1.7,0.5C16.9,6.2,13.6,3,9.4,3c-2,0-3.9,0.9-5.3,2.3C2.8,6.8,2,8.7,2.1,10.7c0.1,3.5,2.6,6.6,6.1,7.3
	c2.2,0.4,4.4-0.1,6.2-1.6c0.2-0.2,0.6-0.3,1-0.2c0.5,0.2,0.8,0.7,0.7,1.3c0,0.1-0.1,0.3-0.2,0.4c-0.1,0.1-0.1,0.1-0.2,0.2
	c-1.7,1.4-3.8,2.1-5.9,2.1c-0.2,0-0.5,0-0.7,0c-2.5-0.2-4.9-1.3-6.5-3.3C0.7,14.9-0.1,12.5,0,9.9C0.2,7.4,1.4,5,3.3,3.4
	C5.2,1.7,7.7,0.9,10.3,1c4.3,0.3,7.9,3.5,8.7,7.8c0.1,0.7,0.2,1.4,0.2,2.1l2,0.6l-4.3,4.1L15.4,9.8z M10.5,4.7
	c-0.1-0.3-0.2-0.5-0.5-0.6C9.8,3.9,9.5,3.9,9.2,4C8.7,4.1,8.4,4.6,8.5,5c0,2,0,4,0,5.9c0,0.3,0.1,0.7,0.4,0.9c0.5,0.5,1,1,1.6,1.6
	l0.8,0.8c0.2,0.2,0.4,0.4,0.6,0.6c0.1,0.1,0.2,0.1,0.3,0.2c0.1,0.1,0.3,0.1,0.5,0.1c0.1,0,0.2,0,0.3,0c0.3-0.1,0.5-0.3,0.6-0.5
	c0.2-0.4,0.1-0.9-0.2-1.2l-2.7-2.7V5.1C10.5,5,10.5,4.9,10.5,4.7z"></path>
		</symbol>
		
		
	</defs>
</svg>
