<svg aria-hidden="true" version="1.1" xmlns="http://www.w3.org/2000/svg" xmlns:xlink="http://www.w3.org/1999/xlink" display="none">
	<defs>

		<symbol id="mm-icon-logo" viewBox="0 0 97 32">
			<path d="M0 31.615V11.5396H5.04485V13.0424C5.73223 12.4259 6.49325 11.9635 7.32793 11.6552C8.1626 11.3213 9.07092 11.1543 10.0529 11.1543C11.2803 11.1543 12.3851 11.424 13.367 11.9635C14.3735 12.4772 15.1959 13.2094 15.8342 14.1598C16.5952 13.1837 17.5158 12.4387 18.596 11.9249C19.6762 11.4112 20.8668 11.1543 22.1679 11.1543C24.3037 11.1543 26.0589 11.8993 27.4337 13.3892C28.8084 14.8791 29.4958 16.7929 29.4958 19.1305V31.615H24.451V19.9012C24.451 18.6424 24.1196 17.6277 23.4567 16.8571C22.8184 16.0864 21.947 15.7011 20.8422 15.7011C20.0812 15.7011 19.3816 15.8809 18.7433 16.2406C18.1296 16.5745 17.6018 17.0626 17.1599 17.7048C17.1844 17.936 17.209 18.1672 17.2335 18.3984C17.2581 18.6296 17.2703 18.8736 17.2703 19.1305V31.615H12.2255V19.9012C12.2255 18.6424 11.8941 17.6277 11.2312 16.8571C10.593 16.0864 9.72147 15.7011 8.61676 15.7011C7.85573 15.7011 7.18063 15.8553 6.59145 16.1635C6.00227 16.4718 5.48674 16.9213 5.04485 17.5121V31.615H0Z" fill="#FAF2E0"/>
			<path d="M32.4878 21.5966C32.4878 20.1324 32.7455 18.7709 33.261 17.5121C33.8011 16.2277 34.5253 15.1231 35.4337 14.1984C36.3665 13.2479 37.459 12.5029 38.711 11.9635C39.963 11.424 41.3009 11.1543 42.7248 11.1543C44.1486 11.1543 45.4865 11.424 46.7385 11.9635C47.9906 12.5029 49.0707 13.2479 49.979 14.1984C50.9119 15.1231 51.6361 16.2277 52.1516 17.5121C52.6917 18.7709 52.9618 20.1324 52.9618 21.5966C52.9618 23.0608 52.6917 24.4351 52.1516 25.7196C51.6361 26.9783 50.9119 28.07 49.979 28.9948C49.0707 29.9196 47.9906 30.6517 46.7385 31.1912C45.4865 31.7306 44.1486 32.0003 42.7248 32.0003C41.3009 32.0003 39.963 31.7306 38.711 31.1912C37.459 30.6517 36.3665 29.9196 35.4337 28.9948C34.5253 28.07 33.8011 26.9783 33.261 25.7196C32.7455 24.4351 32.4878 23.0608 32.4878 21.5966ZM42.7248 27.415C44.1977 27.415 45.4497 26.8498 46.4808 25.7196C47.5118 24.5893 48.0274 23.2149 48.0274 21.5966C48.0274 19.9525 47.5118 18.5654 46.4808 17.4351C45.4497 16.3048 44.1977 15.7397 42.7248 15.7397C41.2518 15.7397 39.9998 16.3048 38.9687 17.4351C37.9377 18.5654 37.4221 19.9525 37.4221 21.5966C37.4221 23.2149 37.9377 24.5893 38.9687 25.7196C39.9998 26.8498 41.2518 27.415 42.7248 27.415Z" fill="#FAF2E0"/>
			<path d="M56.0627 31.615V11.5396H61.1076V13.0424C61.795 12.4259 62.556 11.9635 63.3906 11.6552C64.2253 11.3213 65.1336 11.1543 66.1156 11.1543C67.3431 11.1543 68.4478 11.424 69.4297 11.9635C70.4363 12.4772 71.2586 13.2094 71.8969 14.1598C72.658 13.1837 73.5785 12.4387 74.6587 11.9249C75.7389 11.4112 76.9295 11.1543 78.2306 11.1543C80.3664 11.1543 82.1217 11.8993 83.4964 13.3892C84.8712 14.8791 85.5585 16.7929 85.5585 19.1305V31.615H80.5137V19.9012C80.5137 18.6424 80.1823 17.6277 79.5194 16.8571C78.8812 16.0864 78.0097 15.7011 76.905 15.7011C76.1439 15.7011 75.4443 15.8809 74.806 16.2406C74.1923 16.5745 73.6645 17.0626 73.2226 17.7048C73.2471 17.936 73.2717 18.1672 73.2962 18.3984C73.3208 18.6296 73.3331 18.8736 73.3331 19.1305V31.615H68.2882V19.9012C68.2882 18.6424 67.9568 17.6277 67.294 16.8571C66.6557 16.0864 65.7842 15.7011 64.6795 15.7011C63.9185 15.7011 63.2434 15.8553 62.6542 16.1635C62.065 16.4718 61.5495 16.9213 61.1076 17.5121V31.615H56.0627Z" fill="#FAF2E0"/>
			<path d="M94.4791 11.5396V31.615H89.4342V11.5396H94.4791Z" fill="#FAF2E0"/>
			<path d="M93.2698 7.80908H89.5391V3.9052C89.5391 1.74928 91.2095 0.00131512 93.2698 0.00131512H97.0006V3.9052C97.0006 6.06112 95.3301 7.80908 93.2698 7.80908Z" fill="#FAF2E0"/>
			<path opacity="0.5" d="M93.2698 7.80859H89.5391V3.90471C89.5391 1.74879 91.2095 0.000826836 93.2698 0.000826836H97.0006V3.90471C97.0006 6.06063 95.3301 7.80859 93.2698 7.80859Z" fill="#5D7A47"/>
		</symbol>

		<symbol id="mm-icon-logo-1" viewBox="0 0 98 32">
			<path d="M0 31.6155V11.5396H5.04497V13.0424C5.73236 12.4259 6.4934 11.9635 7.32809 11.6552C8.16278 11.3213 9.07112 11.1543 10.0531 11.1543C11.2806 11.1543 12.3853 11.424 13.3673 11.9635C14.3739 12.4773 15.1963 13.2094 15.8346 14.1599C16.5956 13.1837 17.5162 12.4387 18.5964 11.925C19.6766 11.4112 20.8673 11.1543 22.1684 11.1543C24.3042 11.1543 26.0595 11.8993 27.4343 13.3892C28.8091 14.8792 29.4965 16.793 29.4965 19.1307V31.6155H24.4515V19.9014C24.4515 18.6426 24.1201 17.6279 23.4572 16.8572C22.819 16.0866 21.9474 15.7012 20.8427 15.7012C20.0817 15.7012 19.382 15.881 18.7437 16.2407C18.13 16.5746 17.6021 17.0627 17.1602 17.705C17.1848 17.9362 17.2093 18.1674 17.2339 18.3986C17.2584 18.6298 17.2707 18.8738 17.2707 19.1307V31.6155H12.2258V19.9014C12.2258 18.6426 11.8943 17.6279 11.2315 16.8572C10.5932 16.0866 9.72168 15.7012 8.61695 15.7012C7.85591 15.7012 7.18079 15.8554 6.5916 16.1636C6.0024 16.4719 5.48686 16.9214 5.04497 17.5123V31.6155H0Z" fill="#FEFEFE"/>
			<path d="M32.4885 21.5968C32.4885 20.1326 32.7462 18.771 33.2618 17.5123C33.8019 16.2278 34.5261 15.1232 35.4344 14.1984C36.3673 13.2479 37.4598 12.503 38.7118 11.9635C39.9639 11.424 41.3018 11.1543 42.7257 11.1543C44.1496 11.1543 45.4875 11.424 46.7396 11.9635C47.9916 12.503 49.0718 13.2479 49.9801 14.1984C50.913 15.1232 51.6372 16.2278 52.1528 17.5123C52.6929 18.771 52.9629 20.1326 52.9629 21.5968C52.9629 23.0611 52.6929 24.4354 52.1528 25.7199C51.6372 26.9786 50.913 28.0704 49.9801 28.9952C49.0718 29.92 47.9916 30.6521 46.7396 31.1916C45.4875 31.7311 44.1496 32.0008 42.7257 32.0008C41.3018 32.0008 39.9639 31.7311 38.7118 31.1916C37.4598 30.6521 36.3673 29.92 35.4344 28.9952C34.5261 28.0704 33.8019 26.9786 33.2618 25.7199C32.7462 24.4354 32.4885 23.0611 32.4885 21.5968ZM42.7257 27.4153C44.1987 27.4153 45.4507 26.8502 46.4818 25.7199C47.5129 24.5896 48.0284 23.2152 48.0284 21.5968C48.0284 19.9527 47.5129 18.5655 46.4818 17.4352C45.4507 16.3049 44.1987 15.7398 42.7257 15.7398C41.2527 15.7398 40.0007 16.3049 38.9696 17.4352C37.9385 18.5655 37.423 19.9527 37.423 21.5968C37.423 23.2152 37.9385 24.5896 38.9696 25.7199C40.0007 26.8502 41.2527 27.4153 42.7257 27.4153Z" fill="#FEFEFE"/>
			<path d="M56.064 31.6155V11.5396H61.1089V13.0424C61.7963 12.4259 62.5574 11.9635 63.392 11.6552C64.2267 11.3213 65.1351 11.1543 66.1171 11.1543C67.3445 11.1543 68.4493 11.424 69.4313 11.9635C70.4378 12.4773 71.2602 13.2094 71.8985 14.1599C72.6595 13.1837 73.5802 12.4387 74.6603 11.925C75.7405 11.4112 76.9312 11.1543 78.2323 11.1543C80.3682 11.1543 82.1235 11.8993 83.4982 13.3892C84.873 14.8792 85.5604 16.793 85.5604 19.1307V31.6155H80.5155V19.9014C80.5155 18.6426 80.184 17.6279 79.5212 16.8572C78.8829 16.0866 78.0114 15.7012 76.9067 15.7012C76.1456 15.7012 75.4459 15.881 74.8076 16.2407C74.1939 16.5746 73.6661 17.0627 73.2242 17.705C73.2487 17.9362 73.2733 18.1674 73.2978 18.3986C73.3224 18.6298 73.3347 18.8738 73.3347 19.1307V31.6155H68.2897V19.9014C68.2897 18.6426 67.9583 17.6279 67.2954 16.8572C66.6572 16.0866 65.7856 15.7012 64.6809 15.7012C63.9199 15.7012 63.2447 15.8554 62.6556 16.1636C62.0664 16.4719 61.5508 16.9214 61.1089 17.5123V31.6155H56.064Z" fill="#FEFEFE"/>
			<path d="M94.4812 11.5396V31.6155H89.4362V11.5396H94.4812Z" fill="#FEFEFE"/>
			<path d="M93.2738 7.80762H89.543V3.90365C89.543 1.74768 91.2135 -0.000321865 93.2738 -0.000321865H97.0047V3.90365C97.0047 6.05961 95.3342 7.80762 93.2738 7.80762Z" fill="#FEFEFE"/>
		</symbol>

		<symbol id="mm-icon-logo-2" viewBox="0 0 98 32">
			<path d="M0 31.6155V11.5396H5.04497V13.0424C5.73236 12.4259 6.4934 11.9635 7.32809 11.6552C8.16278 11.3213 9.07112 11.1543 10.0531 11.1543C11.2806 11.1543 12.3853 11.424 13.3673 11.9635C14.3739 12.4773 15.1963 13.2094 15.8346 14.1599C16.5956 13.1837 17.5162 12.4387 18.5964 11.925C19.6766 11.4112 20.8673 11.1543 22.1684 11.1543C24.3042 11.1543 26.0595 11.8993 27.4343 13.3892C28.8091 14.8792 29.4965 16.793 29.4965 19.1307V31.6155H24.4515V19.9014C24.4515 18.6426 24.1201 17.6279 23.4572 16.8572C22.819 16.0866 21.9474 15.7012 20.8427 15.7012C20.0817 15.7012 19.382 15.881 18.7437 16.2407C18.13 16.5746 17.6021 17.0627 17.1602 17.705C17.1848 17.9362 17.2093 18.1674 17.2339 18.3986C17.2584 18.6298 17.2707 18.8738 17.2707 19.1307V31.6155H12.2258V19.9014C12.2258 18.6426 11.8943 17.6279 11.2315 16.8572C10.5932 16.0866 9.72168 15.7012 8.61695 15.7012C7.85591 15.7012 7.18079 15.8554 6.5916 16.1636C6.0024 16.4719 5.48686 16.9214 5.04497 17.5123V31.6155H0Z" fill="#412D2D"/>
			<path d="M32.4885 21.5968C32.4885 20.1326 32.7462 18.771 33.2618 17.5123C33.8019 16.2278 34.5261 15.1232 35.4344 14.1984C36.3673 13.2479 37.4598 12.503 38.7118 11.9635C39.9639 11.424 41.3018 11.1543 42.7257 11.1543C44.1496 11.1543 45.4875 11.424 46.7396 11.9635C47.9916 12.503 49.0718 13.2479 49.9801 14.1984C50.913 15.1232 51.6372 16.2278 52.1528 17.5123C52.6929 18.771 52.9629 20.1326 52.9629 21.5968C52.9629 23.0611 52.6929 24.4354 52.1528 25.7199C51.6372 26.9786 50.913 28.0704 49.9801 28.9952C49.0718 29.92 47.9916 30.6521 46.7396 31.1916C45.4875 31.7311 44.1496 32.0008 42.7257 32.0008C41.3018 32.0008 39.9639 31.7311 38.7118 31.1916C37.4598 30.6521 36.3673 29.92 35.4344 28.9952C34.5261 28.0704 33.8019 26.9786 33.2618 25.7199C32.7462 24.4354 32.4885 23.0611 32.4885 21.5968ZM42.7257 27.4153C44.1987 27.4153 45.4507 26.8502 46.4818 25.7199C47.5129 24.5896 48.0284 23.2152 48.0284 21.5968C48.0284 19.9527 47.5129 18.5655 46.4818 17.4352C45.4507 16.3049 44.1987 15.7398 42.7257 15.7398C41.2527 15.7398 40.0007 16.3049 38.9696 17.4352C37.9385 18.5655 37.423 19.9527 37.423 21.5968C37.423 23.2152 37.9385 24.5896 38.9696 25.7199C40.0007 26.8502 41.2527 27.4153 42.7257 27.4153Z" fill="#412D2D"/>
			<path d="M56.064 31.6155V11.5396H61.1089V13.0424C61.7963 12.4259 62.5574 11.9635 63.392 11.6552C64.2267 11.3213 65.1351 11.1543 66.1171 11.1543C67.3445 11.1543 68.4493 11.424 69.4313 11.9635C70.4378 12.4773 71.2602 13.2094 71.8985 14.1599C72.6595 13.1837 73.5802 12.4387 74.6603 11.925C75.7405 11.4112 76.9312 11.1543 78.2323 11.1543C80.3682 11.1543 82.1235 11.8993 83.4982 13.3892C84.873 14.8792 85.5604 16.793 85.5604 19.1307V31.6155H80.5155V19.9014C80.5155 18.6426 80.184 17.6279 79.5212 16.8572C78.8829 16.0866 78.0114 15.7012 76.9067 15.7012C76.1456 15.7012 75.4459 15.881 74.8076 16.2407C74.1939 16.5746 73.6661 17.0627 73.2242 17.705C73.2487 17.9362 73.2733 18.1674 73.2978 18.3986C73.3224 18.6298 73.3347 18.8738 73.3347 19.1307V31.6155H68.2897V19.9014C68.2897 18.6426 67.9583 17.6279 67.2954 16.8572C66.6572 16.0866 65.7856 15.7012 64.6809 15.7012C63.9199 15.7012 63.2447 15.8554 62.6556 16.1636C62.0664 16.4719 61.5508 16.9214 61.1089 17.5123V31.6155H56.064Z" fill="#412D2D"/>
			<path d="M94.4812 11.5396V31.6155H89.4362V11.5396H94.4812Z" fill="#412D2D"/>
			<path d="M93.2738 7.80762H89.543V3.90365C89.543 1.74768 91.2135 -0.000321865 93.2738 -0.000321865H97.0047V3.90365C97.0047 6.05961 95.3342 7.80762 93.2738 7.80762Z" fill="#412D2D"/>
		</symbol>

		<symbol id="mm-icon-twitter" viewBox="0 0 22 18">
			<path fill="currentColor" d="M21.6732 2.52561C20.9078 2.86478 20.0855 3.09395 19.2211 3.19753C20.113 2.66384 20.7803 1.82387 21.0985 0.834363C20.2605 1.3321 19.3434 1.68246 18.387 1.8702C17.7438 1.18349 16.8919 0.728329 15.9636 0.575381C15.0352 0.422433 14.0824 0.580255 13.2529 1.02434C12.4235 1.46843 11.7638 2.17395 11.3764 3.03134C10.989 3.88874 10.8955 4.85005 11.1105 5.76603C9.4125 5.68078 7.75145 5.23945 6.2351 4.47069C4.71874 3.70194 3.38098 2.62293 2.30862 1.3037C1.94196 1.9362 1.73113 2.66953 1.73113 3.45053C1.73072 4.15361 1.90385 4.84592 2.23518 5.46604C2.56651 6.08615 3.04577 6.6149 3.63046 7.00536C2.95238 6.98379 2.28926 6.80057 1.69629 6.47095V6.52595C1.69622 7.51204 2.03732 8.46779 2.66171 9.23103C3.2861 9.99426 4.15532 10.518 5.12188 10.7133C4.49284 10.8835 3.83335 10.9086 3.19321 10.7866C3.46591 11.6351 3.99712 12.3771 4.71246 12.9086C5.4278 13.4402 6.29147 13.7348 7.18254 13.7511C5.66989 14.9386 3.80177 15.5827 1.87871 15.5799C1.53806 15.58 1.19769 15.5601 0.859375 15.5203C2.81139 16.7754 5.08369 17.4415 7.40438 17.4389C15.2602 17.4389 19.5548 10.9324 19.5548 5.28936C19.5548 5.10603 19.5502 4.92086 19.542 4.73753C20.3773 4.13342 21.0984 3.38535 21.6714 2.52836L21.6732 2.52561Z" />
		</symbol>

		<symbol id="mm-icon-instagram" viewBox="0 0 22 22">
			<path fill="currentColor" fill-rule="evenodd" clip-rule="evenodd" d="M6.84422 0.977492C7.91947 0.927992 8.2623 0.916992 11.0013 0.916992C13.7403 0.916992 14.0831 0.928909 15.1575 0.977492C16.2318 1.02608 16.9651 1.19749 17.6068 1.44591C18.2787 1.69983 18.8883 2.09674 19.3925 2.61008C19.9058 3.11333 20.3018 3.72199 20.5548 4.39483C20.8041 5.03649 20.9746 5.76983 21.0241 6.84233C21.0736 7.91941 21.0846 8.26224 21.0846 11.0003C21.0846 13.7393 21.0727 14.0822 21.0241 15.1574C20.9755 16.2299 20.8041 16.9632 20.5548 17.6049C20.3018 18.2778 19.9051 18.8875 19.3925 19.3915C18.8883 19.9048 18.2787 20.3008 17.6068 20.5538C16.9651 20.8032 16.2318 20.9737 15.1593 21.0232C14.0831 21.0727 13.7403 21.0837 11.0013 21.0837C8.2623 21.0837 7.91947 21.0717 6.84422 21.0232C5.77172 20.9746 5.03839 20.8032 4.39672 20.5538C3.72381 20.3008 3.11414 19.9041 2.61014 19.3915C2.09715 18.8879 1.70017 18.2786 1.44689 17.6058C1.19847 16.9642 1.02797 16.2308 0.978469 15.1583C0.928969 14.0812 0.917969 13.7384 0.917969 11.0003C0.917969 8.26133 0.929885 7.91849 0.978469 6.84416C1.02705 5.76983 1.19847 5.03649 1.44689 4.39483C1.70055 3.72207 2.09783 3.1127 2.61105 2.60916C3.11434 2.09628 3.7234 1.69932 4.3958 1.44591C5.03747 1.19749 5.77172 1.02699 6.84422 0.977492ZM15.0759 2.79249C14.0126 2.74391 13.6936 2.73383 11.0013 2.73383C8.30905 2.73383 7.99005 2.74391 6.92672 2.79249C5.94313 2.83741 5.40964 3.00149 5.05397 3.13991C4.58372 3.32324 4.2473 3.54049 3.89439 3.89341C3.55984 4.21887 3.30238 4.61508 3.14089 5.05299C3.00247 5.40866 2.83839 5.94216 2.79347 6.92574C2.74489 7.98907 2.7348 8.30807 2.7348 11.0003C2.7348 13.6926 2.74489 14.0116 2.79347 15.0749C2.83839 16.0585 3.00247 16.592 3.14089 16.9477C3.30222 17.3849 3.5598 17.7818 3.89439 18.1072C4.2198 18.4418 4.61672 18.6994 5.05397 18.8607C5.40964 18.9992 5.94313 19.1632 6.92672 19.2082C7.99005 19.2567 8.30814 19.2668 11.0013 19.2668C13.6945 19.2668 14.0126 19.2567 15.0759 19.2082C16.0595 19.1632 16.593 18.9992 16.9486 18.8607C17.4189 18.6774 17.7553 18.4602 18.1082 18.1072C18.4428 17.7818 18.7004 17.3849 18.8617 16.9477C19.0001 16.592 19.1642 16.0585 19.2091 15.0749C19.2577 14.0116 19.2678 13.6926 19.2678 11.0003C19.2678 8.30807 19.2577 7.98907 19.2091 6.92574C19.1642 5.94216 19.0001 5.40866 18.8617 5.05299C18.6784 4.58274 18.4611 4.24633 18.1082 3.89341C17.7827 3.55889 17.3865 3.30144 16.9486 3.13991C16.593 3.00149 16.0595 2.83741 15.0759 2.79249ZM9.71339 14.1087C10.4327 14.4082 11.2336 14.4486 11.9793 14.2231C12.7251 13.9976 13.3694 13.5202 13.8023 12.8724C14.2351 12.2246 14.4297 11.4466 14.3527 10.6713C14.2757 9.89605 13.9319 9.17155 13.3801 8.62157C13.0283 8.27001 12.6029 8.00082 12.1346 7.83338C11.6663 7.66593 11.1667 7.60441 10.6718 7.65322C10.1768 7.70204 9.69886 7.85999 9.27229 8.11569C8.84572 8.3714 8.48115 8.71851 8.20483 9.13202C7.92851 9.54554 7.74731 10.0152 7.67427 10.5071C7.60124 10.9991 7.63819 11.5011 7.78246 11.977C7.92674 12.453 8.17474 12.8911 8.50863 13.2597C8.84251 13.6283 9.25397 13.9182 9.71339 14.1087ZM7.33647 7.33549C7.81774 6.85422 8.38909 6.47245 9.01791 6.21199C9.64672 5.95153 10.3207 5.81747 11.0013 5.81747C11.6819 5.81747 12.3559 5.95153 12.9847 6.21199C13.6135 6.47245 14.1849 6.85422 14.6661 7.33549C15.1474 7.81676 15.5292 8.38812 15.7896 9.01693C16.0501 9.64574 16.1842 10.3197 16.1842 11.0003C16.1842 11.6809 16.0501 12.3549 15.7896 12.9837C15.5292 13.6125 15.1474 14.1839 14.6661 14.6652C13.6942 15.6371 12.3759 16.1832 11.0013 16.1832C9.62672 16.1832 8.30844 15.6371 7.33647 14.6652C6.36449 13.6932 5.81845 12.3749 5.81845 11.0003C5.81845 9.62575 6.36449 8.30747 7.33647 7.33549ZM17.3336 6.58933C17.4529 6.47682 17.5484 6.34153 17.6144 6.19147C17.6805 6.0414 17.7157 5.87961 17.7181 5.71568C17.7205 5.55174 17.69 5.38899 17.6283 5.23707C17.5667 5.08514 17.4752 4.94713 17.3593 4.83119C17.2433 4.71526 17.1053 4.62377 16.9534 4.56213C16.8015 4.5005 16.6387 4.46997 16.4748 4.47236C16.3108 4.47475 16.1491 4.51001 15.999 4.57605C15.8489 4.64209 15.7136 4.73756 15.6011 4.85683C15.3823 5.08877 15.2625 5.39685 15.2672 5.71568C15.2718 6.0345 15.4006 6.33896 15.626 6.56443C15.8515 6.7899 16.156 6.91862 16.4748 6.92327C16.7936 6.92791 17.1017 6.80812 17.3336 6.58933Z"/>
		</symbol>

		<symbol id="mm-icon-facebook" viewBox="0 0 22 22">
			<path fill="currentColor" fill-rule="evenodd" clip-rule="evenodd" d="M0 11.0614C0 16.5303 3.97192 21.0778 9.16667 22V14.0553H6.41667V11H9.16667V8.55525C9.16667 5.80525 10.9386 4.27808 13.4447 4.27808C14.2386 4.27808 15.0948 4.4 15.8886 4.52192V7.33333H14.4833C13.1386 7.33333 12.8333 8.00525 12.8333 8.86142V11H15.7667L15.2781 14.0553H12.8333V22C18.0281 21.0778 22 16.5312 22 11.0614C22 4.9775 17.05 0 11 0C4.95 0 0 4.9775 0 11.0614Z"/>
		</symbol>

		<symbol id="mm-icon-linkdin" viewBox="0 0 22 22">
			<path fill="currentColor" d="M18.7413 18.7488H15.4873V13.6427C15.4873 12.4252 15.4619 10.8604 13.7858 10.8604C12.089 10.8604 11.8305 12.1811 11.8305 13.5527V18.7481H8.57244V8.24931H11.7019V9.68137H11.7439C12.1811 8.85431 13.2447 7.98463 14.8314 7.98463C18.1321 7.98463 18.7447 10.1578 18.7447 12.9834V18.7481L18.7413 18.7488ZM4.89156 6.8145C4.64288 6.81459 4.39662 6.76562 4.16689 6.67039C3.93716 6.57516 3.72847 6.43554 3.55278 6.25953C3.3771 6.08353 3.23786 5.87459 3.14305 5.64469C3.04823 5.41478 2.99971 5.16844 3.00025 4.91975C3.00066 4.54544 3.11204 4.17966 3.32032 3.86865C3.5286 3.55764 3.82442 3.31537 4.17038 3.17248C4.51634 3.02958 4.8969 2.99247 5.26395 3.06585C5.631 3.13922 5.96805 3.31978 6.23248 3.5847C6.49692 3.84961 6.67687 4.18699 6.74957 4.55417C6.82228 4.92135 6.78448 5.30184 6.64096 5.64754C6.49744 5.99324 6.25463 6.28862 5.94324 6.49634C5.63186 6.70405 5.26587 6.81477 4.89156 6.8145ZM6.52369 18.7488H3.25875V8.25H6.52369V18.7488ZM20.3748 0H1.6225C0.726687 0 0 0.708812 0 1.58606V20.4146C0 21.2919 0.726687 22.0007 1.6225 22.0007H20.3713C21.2658 22.0007 22 21.2919 22 20.4146V1.58606C22 0.708812 21.2658 0 20.3713 0H20.3748Z"/>
		</symbol>

		<symbol id="mm-icon-pintrest" viewBox="0 0 22 22">
			<path fill="currentColor" d="M0 11C0 15.6961 2.94342 19.7056 7.08583 21.2832C6.985 20.4242 6.87775 19.008 7.10875 18.0143C7.30767 17.16 8.393 12.5712 8.393 12.5712C8.393 12.5712 8.06575 11.9157 8.06575 10.945C8.06575 9.42333 8.94758 8.28667 10.0467 8.28667C10.9817 8.28667 11.4327 8.98792 11.4327 9.8285C11.4327 10.7681 10.8341 12.1724 10.5252 13.475C10.2676 14.5649 11.0724 15.4541 12.1468 15.4541C14.0928 15.4541 15.5898 13.4017 15.5898 10.439C15.5898 7.81642 13.7051 5.984 11.0147 5.984C7.89983 5.984 6.07108 8.32058 6.07108 10.736C6.07108 11.6774 6.43317 12.6858 6.886 13.2348C6.92461 13.2763 6.95189 13.327 6.96521 13.3821C6.97854 13.4371 6.97746 13.4947 6.96208 13.5493C6.87867 13.8958 6.6935 14.6392 6.65775 14.7913C6.60917 14.9912 6.49917 15.0343 6.29108 14.9371C4.92342 14.3009 4.06908 12.3017 4.06908 10.6957C4.06908 7.24075 6.578 4.06908 11.3034 4.06908C15.1021 4.06908 18.0547 6.776 18.0547 10.3932C18.0547 14.1671 15.6759 17.2049 12.3722 17.2049C11.2622 17.2049 10.2199 16.6274 9.86242 15.9463C9.86242 15.9463 9.31333 18.0382 9.18042 18.5497C8.92192 19.5433 8.20508 20.801 7.7605 21.5151C8.78533 21.8304 9.8725 22 11 22C17.0747 22 22 17.0747 22 11C22 4.92525 17.0747 0 11 0C4.92525 0 0 4.92525 0 11Z"/>
		</symbol>

		<symbol id="mm-icon-eye" viewBox="0 0 26 18">
			<g opacity="0.5">
			<path d="M13 0C3.99668 0 0.97931 6.21619 0.216812 8.31631C0.0548082 8.76251 0.0548082 9.23749 0.216812 9.68369C0.97931 11.7838 3.99668 18 13 18C21.6997 18 24.8103 12.196 25.6982 9.90983C25.9273 9.31983 25.9273 8.68017 25.6982 8.09017C24.8103 5.80395 21.6997 0 13 0Z" fill="#5D7A47"/>
			<ellipse cx="12.9997" cy="8.59428" rx="6.93333" ry="6.54545" fill="#FEFEFE"/>
			<ellipse cx="13.0013" cy="8.59091" rx="4.33333" ry="4.09091" fill="#5D7A47"/>
			</g>
		</symbol>

		<symbol id="mm-icon-eye-close" viewBox="0 0 26 23">
			<g opacity="0.5">
			<path d="M13 2C3.99668 2 0.97931 8.21619 0.216812 10.3163C0.0548082 10.7625 0.0548082 11.2375 0.216812 11.6837C0.97931 13.7838 3.99668 20 13 20C21.6997 20 24.8103 14.196 25.6982 11.9098C25.9273 11.3198 25.9273 10.6802 25.6982 10.0902C24.8103 7.80395 21.6997 2 13 2Z" fill="#5D7A47"/>
			<ellipse cx="12.9997" cy="10.5943" rx="6.93333" ry="6.54545" fill="#FEFEFE"/>
			<ellipse cx="13.0013" cy="10.5909" rx="4.33333" ry="4.09091" fill="#5D7A47"/>
			<path d="M4.19138 1.09121C3.73835 0.635811 3.00384 0.635811 2.55081 1.09121C2.09778 1.5466 2.09778 2.28494 2.55081 2.74034L21.2259 21.513C21.679 21.9684 22.4135 21.9684 22.8665 21.513C23.3195 21.0576 23.3195 20.3193 22.8665 19.8639L4.19138 1.09121Z" fill="#5D7A47" stroke="#FEFEFE"/>
			</g>
		</symbol>

		<symbol id="mm-icon-refresh" viewBox="0 0 27 27">
			<path d="M10.125 8.43805H5.72063C6.81189 6.76095 8.41591 5.48141 10.2936 4.79016C12.1713 4.09892 14.2221 4.03298 16.1403 4.60218C18.0585 5.17138 19.7414 6.34524 20.9381 7.94878C22.1349 9.55232 22.7814 11.4997 22.7812 13.5006H24.4688C24.4711 11.2439 23.7773 9.04152 22.4821 7.19361C21.1869 5.34571 19.3533 3.94226 17.2312 3.17463C15.1092 2.407 12.802 2.31256 10.6243 2.90418C8.44663 3.4958 6.50441 4.74469 5.0625 6.48055V3.37555H3.375V10.1256H10.125V8.43805Z" fill="#FEFEFE"/>
			<path d="M16.875 18.5625H21.2794C20.1881 20.2396 18.5841 21.5191 16.7064 22.2104C14.8287 22.9016 12.7779 22.9676 10.8597 22.3984C8.9415 21.8292 7.2586 20.6553 6.06186 19.0518C4.86512 17.4482 4.21863 15.5009 4.21876 13.5H2.53126C2.52893 15.7566 3.22268 17.959 4.51789 19.8069C5.8131 21.6548 7.64675 23.0583 9.76879 23.8259C11.8908 24.5936 14.198 24.688 16.3757 24.0964C18.5534 23.5048 20.4956 22.2559 21.9375 20.52V23.625H23.625V16.875H16.875V18.5625Z" fill="#FEFEFE"/>
		</symbol>

		<symbol id="mm-icon-left-aerow" viewBox="0 0 9 14">
			<path d="M7 2L2 7L7 12" stroke="#412D2D" stroke-width="2.5" stroke-linecap="round" stroke-linejoin="round"/>
		</symbol>

		<symbol id="mm-icon-close-btn" viewBox="0 0 35 35">
			<rect width="35.7716" height="1.78858" transform="matrix(0.698851 0.715267 -0.698851 0.715267 5.25 4.13379)" fill="#FAF2E0"/>
			<rect width="35.7716" height="1.78858" transform="matrix(-0.698851 0.715267 -0.698851 -0.715267 31 5.2793)" fill="#FAF2E0"/>
		</symbol>

		<symbol id="mm-icon-menu" viewBox="0 0 37 37">
			<rect x="2" y="5" width="35" height="2" fill="#FAF2E0"/>
			<rect x="2" y="17" width="35" height="2" fill="#FAF2E0"/>
			<rect x="2" y="29" width="35" height="2" fill="#FAF2E0"/>
		</symbol>

		<symbol id="mm-icon-upside-aerow" viewBox="0 0 16 9">
			<path d="M1 8L8 1L15 8" stroke="#412D2D" stroke-width="1.8" stroke-linecap="round" stroke-linejoin="round"/>
		</symbol>

		<symbol id="mm-icon-love" viewBox="0 0 40 30">
			<path opacity="0.5" d="M22.4455 11.5717C23.2222 6.63477 19.9722 1.98304 15.1865 1.1818C10.4007 0.380565 5.8914 3.73323 5.1147 8.6702C4.338 13.6072 7.588 18.2589 12.3738 19.0602C17.1596 19.8614 21.6688 16.5087 22.4455 11.5717Z" fill="#5D7A47"/>
			<path d="M34.9998 10.1195C34.9998 5.11788 31.0696 1.06348 26.2212 1.06348C23.8482 1.06348 21.6954 2.03628 20.1164 3.61708L20.1009 3.60107L14.1203 9.60427C10.584 13.1531 10.5064 18.9867 13.9435 22.6347L19.8838 28.9354C19.8838 28.9354 29.1463 19.4099 31.2154 17.5691C33.2844 15.7283 34.9998 13.2075 34.9998 10.1195Z" fill="#412D2D"/>
			<path d="M22.5412 10.1252C22.5257 7.62596 21.5888 5.36122 19.9913 3.73242L14.0975 9.65242C11.619 12.1708 10.8746 15.8212 11.861 19.0212C12.4907 19.1652 13.1452 19.242 13.8184 19.2388C18.6668 19.2036 22.5722 15.1268 22.5412 10.1252Z" fill="#5D7A47"/>
		</symbol>

		<symbol id="mm-icon-love-hover" viewBox="0 0 40 30">
			<path d="M22.4455 11.5717C23.2222 6.63477 19.9722 1.98304 15.1865 1.1818C10.4007 0.380565 5.8914 3.73323 5.1147 8.6702C4.338 13.6072 7.588 18.2589 12.3738 19.0602C17.1596 19.8614 21.6688 16.5087 22.4455 11.5717Z" fill="#5D7A47"/>
			<path d="M35.0018 10.1195C35.0018 5.11788 31.0716 1.06348 26.2231 1.06348C23.8501 1.06348 21.6973 2.03628 20.1184 3.61708L20.1029 3.60107L14.1222 9.60427C10.586 13.1531 10.5084 18.9867 13.9454 22.6347L19.8858 28.9354C19.8858 28.9354 29.1483 19.4099 31.2173 17.5691C33.2864 15.7283 35.0018 13.2075 35.0018 10.1195Z" fill="#FAF2E0"/>
			<path opacity="0.5" d="M22.5392 10.1252C22.5237 7.62596 21.5869 5.36122 19.9894 3.73242L14.0956 9.65242C11.6171 12.1708 10.8726 15.8212 11.8591 19.0212C12.4888 19.1652 13.1433 19.242 13.8164 19.2388C18.6648 19.2036 22.5702 15.1268 22.5392 10.1252Z" fill="#5D7A47"/>
		</symbol>

		<symbol id="mm-icon-responsibilities" viewBox="0 0 40 30">
			<path d="M17.4998 14.9999C17.4998 16.3806 18.6191 17.5 19.9999 17.5C21.3806 17.5 22.5 16.3806 22.5 14.9999C22.5 13.6191 21.3806 12.4998 19.9999 12.4998C18.6191 12.4998 17.4998 13.6191 17.4998 14.9999Z" fill="#412D2D"/>
			<path fill-rule="evenodd" clip-rule="evenodd" d="M20.0001 22.5001C15.8571 22.5001 12.5001 19.142 12.5001 15.0001C12.5001 10.8582 15.8571 7.50012 20.0001 7.50012C24.142 7.50012 27.5001 10.8582 27.5001 15.0001C27.5001 19.142 24.142 22.5001 20.0001 22.5001ZM15 14.9999C15 12.2388 17.2388 10 19.9999 10C22.761 10 24.9998 12.2388 24.9998 14.9999C24.9998 17.761 22.761 19.9998 19.9999 19.9998C17.2388 19.9998 15 17.761 15 14.9999Z" fill="#412D2D"/>
			<path fill-rule="evenodd" clip-rule="evenodd" d="M20 0H5V15C5 23.2838 11.7162 30 20 30H35V15C35 6.71625 28.2838 0 20 0ZM20.0001 5C14.4775 5 10 9.4775 10 15.0001C10 20.5228 14.4775 25.0002 20.0001 25.0002C25.5228 25.0002 30.0002 20.5228 30.0002 15.0001C30.0002 9.4775 25.5228 5 20.0001 5Z" fill="#412D2D"/>
			<path opacity="0.5" d="M20.0001 5C14.4775 5 10 9.4775 10 15.0001C10 20.5227 14.4775 25.0002 20.0001 25.0002C25.5227 25.0002 30.0002 20.5227 30.0002 15.0001C30.0002 9.4775 25.5227 5 20.0001 5ZM20.0001 22.5001C15.8571 22.5001 12.5001 19.142 12.5001 15.0001C12.5001 10.8582 15.8571 7.50012 20.0001 7.50012C24.142 7.50012 27.5001 10.8582 27.5001 15.0001C27.5001 19.142 24.142 22.5001 20.0001 22.5001Z" fill="#5D7A47"/>
			<path opacity="0.5" d="M19.9999 10C17.2387 10 15 12.2387 15 14.9999C15 17.761 17.2387 19.9998 19.9999 19.9998C22.761 19.9998 24.9998 17.761 24.9998 14.9999C24.9998 12.2387 22.761 10 19.9999 10ZM19.9999 17.5C18.6191 17.5 17.4998 16.3806 17.4998 14.9999C17.4998 13.6191 18.6191 12.4998 19.9999 12.4998C21.3806 12.4998 22.5 13.6191 22.5 14.9999C22.5 16.3806 21.3806 17.5 19.9999 17.5Z" fill="#5D7A47"/>
		</symbol>

		<symbol id="mm-icon-responsibilities-hover" viewBox="0 0 40 30">
			<path d="M17.4998 14.9999C17.4998 16.3806 18.6191 17.5 19.9999 17.5C21.3806 17.5 22.5 16.3806 22.5 14.9999C22.5 13.6191 21.3806 12.4998 19.9999 12.4998C18.6191 12.4998 17.4998 13.6191 17.4998 14.9999Z" fill="#FAF2E0"/>
			<path fill-rule="evenodd" clip-rule="evenodd" d="M20.0001 22.5001C15.8571 22.5001 12.5001 19.142 12.5001 15.0001C12.5001 10.8582 15.8571 7.50012 20.0001 7.50012C24.142 7.50012 27.5001 10.8582 27.5001 15.0001C27.5001 19.142 24.142 22.5001 20.0001 22.5001ZM15 14.9999C15 12.2388 17.2388 10 19.9999 10C22.761 10 24.9998 12.2388 24.9998 14.9999C24.9998 17.761 22.761 19.9998 19.9999 19.9998C17.2388 19.9998 15 17.761 15 14.9999Z" fill="#FAF2E0"/>
			<path fill-rule="evenodd" clip-rule="evenodd" d="M20 0H5V15C5 23.2838 11.7162 30 20 30H35V15C35 6.71625 28.2838 0 20 0ZM20.0001 5C14.4775 5 10 9.4775 10 15.0001C10 20.5228 14.4775 25.0002 20.0001 25.0002C25.5228 25.0002 30.0002 20.5228 30.0002 15.0001C30.0002 9.4775 25.5228 5 20.0001 5Z" fill="#FAF2E0"/>
			<path d="M20.0001 5C14.4775 5 10 9.4775 10 15.0001C10 20.5227 14.4775 25.0002 20.0001 25.0002C25.5227 25.0002 30.0002 20.5227 30.0002 15.0001C30.0002 9.4775 25.5227 5 20.0001 5ZM20.0001 22.5001C15.8571 22.5001 12.5001 19.142 12.5001 15.0001C12.5001 10.8582 15.8571 7.50012 20.0001 7.50012C24.142 7.50012 27.5001 10.8582 27.5001 15.0001C27.5001 19.142 24.142 22.5001 20.0001 22.5001Z" fill="#5D7A47"/>
			<path d="M19.9999 10C17.2387 10 15 12.2387 15 14.9999C15 17.761 17.2387 19.9998 19.9999 19.9998C22.761 19.9998 24.9998 17.761 24.9998 14.9999C24.9998 12.2387 22.761 10 19.9999 10ZM19.9999 17.5C18.6191 17.5 17.4998 16.3806 17.4998 14.9999C17.4998 13.6191 18.6191 12.4998 19.9999 12.4998C21.3806 12.4998 22.5 13.6191 22.5 14.9999C22.5 16.3806 21.3806 17.5 19.9999 17.5Z" fill="#5D7A47"/>
		</symbol>

		<symbol id="mm-icon-family" viewBox="0 0 40 30">
			<path d="M27.0312 8C27.0312 11.866 23.8833 15 20 15C16.1167 15 12.9688 11.866 12.9688 8C12.9688 4.13401 16.1167 1 20 1C23.8833 1 27.0312 4.13401 27.0312 8Z" fill="#412D2D"/>
			<ellipse opacity="0.5" cx="12.0312" cy="22" rx="7.03125" ry="7" fill="#5D7A47"/>
			<ellipse cx="27.9688" cy="22" rx="7.03125" ry="7" fill="#412D2D"/>
		</symbol>

		<symbol id="mm-icon-family-hover" viewBox="0 0 40 30">
			<path d="M27.0312 8C27.0312 11.866 23.8833 15 20 15C16.1167 15 12.9688 11.866 12.9688 8C12.9688 4.13401 16.1167 1 20 1C23.8833 1 27.0312 4.13401 27.0312 8Z" fill="#FAF2E0"/>
			<ellipse cx="12.0312" cy="22" rx="7.03125" ry="7" fill="#5D7A47"/>
			<ellipse cx="27.9688" cy="22" rx="7.03125" ry="7" fill="#FAF2E0"/>
		</symbol>

		<symbol id="mm-icon-kids" viewBox="0 0 40 30">
			<path d="M2 3H28C33.5228 3 38 7.47715 38 13V27H12C6.47715 27 2 22.5228 2 17V3Z" fill="#412D2D"/>
			<path d="M15 26.5C15 21.8056 18.8056 18 23.5 18C28.1944 18 32 21.8056 32 26.5V27H15V26.5Z" fill="#FAF2E0"/>
			<path opacity="0.5" d="M15 26.5C15 21.8056 18.8056 18 23.5 18C28.1944 18 32 21.8056 32 26.5V27H15V26.5Z" fill="#5D7A47"/>
			<path d="M19 11.5C19 9.01472 21.0147 7 23.5 7C25.9853 7 28 9.01472 28 11.5C28 13.9853 25.9853 16 23.5 16C21.0147 16 19 13.9853 19 11.5Z" fill="#FAF2E0"/>
			<path opacity="0.5" d="M19 11.5C19 9.01472 21.0147 7 23.5 7C25.9853 7 28 9.01472 28 11.5C28 13.9853 25.9853 16 23.5 16C21.0147 16 19 13.9853 19 11.5Z" fill="#5D7A47"/>
			<path d="M2 3H10V8C10 12.4183 6.41828 16 2 16V3Z" fill="#FAF2E0"/>
			<path opacity="0.5" d="M2 3H10V8C10 12.4183 6.41828 16 2 16V3Z" fill="#5D7A47"/>
		</symbol>

		<symbol id="mm-icon-kids-hover" viewBox="0 0 40 30">
			<path d="M2 3H28C33.5228 3 38 7.47715 38 13V27H12C6.47715 27 2 22.5228 2 17V3Z" fill="#FAF2E0"/>
			<path d="M15 26.5C15 21.8056 18.8056 18 23.5 18C28.1944 18 32 21.8056 32 26.5V27H15V26.5Z" fill="#FAF2E0"/>
			<path d="M15 26.5C15 21.8056 18.8056 18 23.5 18C28.1944 18 32 21.8056 32 26.5V27H15V26.5Z" fill="#5D7A47"/>
			<path d="M19 11.5C19 9.01472 21.0147 7 23.5 7C25.9853 7 28 9.01472 28 11.5C28 13.9853 25.9853 16 23.5 16C21.0147 16 19 13.9853 19 11.5Z" fill="#FAF2E0"/>
			<path d="M19 11.5C19 9.01472 21.0147 7 23.5 7C25.9853 7 28 9.01472 28 11.5C28 13.9853 25.9853 16 23.5 16C21.0147 16 19 13.9853 19 11.5Z" fill="#5D7A47"/>
			<path d="M2 3H10V8C10 12.4183 6.41828 16 2 16V3Z" fill="#FAF2E0"/>
			<path d="M2 3H10V8C10 12.4183 6.41828 16 2 16V3Z" fill="#5D7A47"/>
		</symbol>

		<symbol id="mm-icon-safe" viewBox="0 0 40 30">
			<path d="M7.35269 3.2621C7.43362 2.49 7.97212 1.85551 8.72259 1.65683C10.8821 1.08512 15.5657 -0.000196409 20 2.66616e-08C20 10.5003 20 30 20 30C15.8324 30 9.81636 24 7.9633 18C6.51109 13.2979 7.0511 6.13919 7.35269 3.2621Z" fill="#FAF2E0"/>
			<path opacity="0.5" d="M7.50101 2C7.50101 2 13.9802 -0.000266645 20 2.66616e-08C20 10.5003 20 30 20 30C15.8324 30 9.81636 24 7.9633 18C6.11023 12 7.50101 2 7.50101 2Z" fill="#5D7A47"/>
			<path d="M32.6473 3.2621C32.5664 2.49 32.0279 1.85551 31.2774 1.65683C29.1179 1.08512 24.4343 -0.000196409 20 2.66616e-08C20 10.5003 20 30 20 30C24.1676 30 30.1836 24 32.0367 18C33.4889 13.2979 32.9489 6.13919 32.6473 3.2621Z" fill="#412D2D"/>
		</symbol>

		<symbol id="mm-icon-safe-hover" viewBox="0 0 40 30">
			<path d="M7.35269 3.2621C7.43362 2.49 7.97212 1.85551 8.72259 1.65683C10.8821 1.08512 15.5657 -0.000196409 20 2.66616e-08C20 10.5003 20 30 20 30C15.8324 30 9.81636 24 7.9633 18C6.51109 13.2979 7.0511 6.13919 7.35269 3.2621Z" fill="#FEFEFE"/>
			<path d="M7.50101 2C7.50101 2 13.9802 -0.000266645 20 2.66616e-08C20 10.5003 20 30 20 30C15.8324 30 9.81636 24 7.9633 18C6.11023 12 7.50101 2 7.50101 2Z" fill="#5D7A47"/>
			<path d="M32.6473 3.2621C32.5664 2.49 32.0279 1.85551 31.2774 1.65683C29.1179 1.08512 24.4343 -0.000196409 20 2.66616e-08C20 10.5003 20 30 20 30C24.1676 30 30.1836 24 32.0367 18C33.4889 13.2979 32.9489 6.13919 32.6473 3.2621Z" fill="#FAF2E0"/>
		</symbol>

		<symbol id="mm-icon-health" viewBox="0 0 40 30">
			<path d="M11.8919 15.834H5V22.9173C5 26.8291 8.08584 30.0007 11.8919 30.0007H18.7838V22.9173C18.7838 19.0055 15.6979 15.834 11.8919 15.834Z" fill="#412D2D"/>
			<path d="M28.1106 30.001H21.2188V22.9176C21.2188 19.0059 24.3046 15.8343 28.1106 15.8343H35.0025V22.9176C35.0025 26.8294 31.9167 30.001 28.1106 30.001Z" fill="#412D2D"/>
			<ellipse opacity="0.5" cx="19.5964" cy="8.33333" rx="8.10811" ry="8.33333" fill="#5D7A47"/>
		</symbol>

		<symbol id="mm-icon-health-hover" viewBox="0 0 40 30">
			<path d="M11.8919 15.834H5V22.9173C5 26.8291 8.08584 30.0007 11.8919 30.0007H18.7838V22.9173C18.7838 19.0055 15.6979 15.834 11.8919 15.834Z" fill="#FAF2E0"/>
			<path d="M28.1106 30.001H21.2188V22.9176C21.2188 19.0059 24.3046 15.8343 28.1106 15.8343H35.0025V22.9176C35.0025 26.8294 31.9167 30.001 28.1106 30.001Z" fill="#FAF2E0"/>
			<ellipse cx="19.5964" cy="8.33333" rx="8.10811" ry="8.33333" fill="#5D7A47"/>
		</symbol>

		<symbol id="mm-icon-services" viewBox="0 0 40 30">
			<path opacity="0.5" fill-rule="evenodd" clip-rule="evenodd" d="M20 30C28.2843 30 35 23.2843 35 15C35 6.71573 28.2843 0 20 0C11.7157 0 5 6.71573 5 15C5 23.2843 11.7157 30 20 30ZM20 24C24.9706 24 29 19.9706 29 15C29 10.0294 24.9706 6 20 6C15.0294 6 11 10.0294 11 15C11 19.9706 15.0294 24 20 24Z" fill="#5D7A47"/>
			<path d="M24.3563 7.12265C23.0655 6.4073 21.5803 6 20 6C18.3879 6 16.8748 6.42385 15.5661 7.1662L11.2344 2.82934C13.7005 1.04936 16.7254 0 19.9956 0C23.2412 0 26.2416 1.03465 28.693 2.78521L24.3563 7.12265Z" fill="#412D2D"/>
			<path d="M28.1838 18.7503C28.7078 17.6086 29 16.3384 29 15C29 13.5727 28.6677 12.223 28.0764 11.024L32.4551 6.64453C34.0583 9.03255 34.9947 11.9109 34.9996 15.0051C34.9996 18.0109 34.1122 20.8059 32.5875 23.1547L28.1838 18.7503Z" fill="#412D2D"/>
			<path d="M15.4284 22.7541C16.7682 23.5457 18.331 24 20 24C21.6684 24 23.2309 23.546 24.5704 22.7548L28.8926 27.0777C26.4069 28.9116 23.328 30.0002 19.999 30.0002C16.6701 30.0002 13.5961 28.9165 11.1055 27.0777L15.4284 22.7541Z" fill="#412D2D"/>
			<path d="M11.8867 11.0999C11.3184 12.2798 11 13.6027 11 15C11 16.337 11.2915 17.6058 11.8145 18.7465L7.41214 23.1495C5.88739 20.8056 5 18.0057 5 14.9999C5 11.9352 5.92172 9.0862 7.5004 6.71289L11.8867 11.0999Z" fill="#412D2D"/>
		</symbol>

		<symbol id="mm-icon-services-hover" viewBox="0 0 40 30">
			<path fill-rule="evenodd" clip-rule="evenodd" d="M20 30C28.2843 30 35 23.2843 35 15C35 6.71573 28.2843 0 20 0C11.7157 0 5 6.71573 5 15C5 23.2843 11.7157 30 20 30ZM20 24C24.9706 24 29 19.9706 29 15C29 10.0294 24.9706 6 20 6C15.0294 6 11 10.0294 11 15C11 19.9706 15.0294 24 20 24Z" fill="#5D7A47"/>
			<path d="M24.3563 7.12265C23.0655 6.4073 21.5803 6 20 6C18.3879 6 16.8748 6.42385 15.5661 7.1662L11.2344 2.82934C13.7005 1.04936 16.7254 0 19.9956 0C23.2412 0 26.2416 1.03465 28.693 2.78521L24.3563 7.12265Z" fill="#FAF2E0"/>
			<path d="M28.1838 18.7503C28.7078 17.6086 29 16.3384 29 15C29 13.5727 28.6677 12.223 28.0764 11.024L32.4551 6.64453C34.0583 9.03255 34.9947 11.9109 34.9996 15.0051C34.9996 18.0109 34.1122 20.8059 32.5875 23.1547L28.1838 18.7503Z" fill="#FAF2E0"/>
			<path d="M15.4284 22.7541C16.7682 23.5457 18.331 24 20 24C21.6684 24 23.2309 23.546 24.5704 22.7548L28.8926 27.0777C26.4069 28.9116 23.328 30.0002 19.999 30.0002C16.6701 30.0002 13.5961 28.9165 11.1055 27.0777L15.4284 22.7541Z" fill="#FAF2E0"/>
			<path d="M11.8867 11.0999C11.3184 12.2798 11 13.6027 11 15C11 16.337 11.2915 17.6058 11.8145 18.7465L7.41214 23.1495C5.88739 20.8056 5 18.0057 5 14.9999C5 11.9352 5.92172 9.0862 7.5004 6.71289L11.8867 11.0999Z" fill="#FAF2E0"/>
		</symbol>

		<symbol id="mm-icon-done"  viewBox="0 0 28 28">
			<path d="M6.53333 0H0V6.53333C0 10.1414 2.9253 13.0667 6.53333 13.0667H13.0667V6.53333C13.0667 2.9253 10.1414 0 6.53333 0Z" fill="#412D2D"/>
			<path d="M6.53333 28H0V21.4667C0 17.8586 2.9253 14.9333 6.53333 14.9333H13.0667V21.4667C13.0667 25.0747 10.1414 28 6.53333 28Z" fill="#412D2D"/>
			<path opacity="0.5" d="M21.4669 13.0664H14.9336V6.53307C14.9336 2.92504 17.8589 -0.000259399 21.4669 -0.000259399H28.0003V6.53307C28.0003 10.1411 25.075 13.0664 21.4669 13.0664Z" fill="#5D7A47"/>
			<path d="M21.4669 14.9336H14.9336V21.4669C14.9336 25.075 17.8589 28.0003 21.4669 28.0003H28.0003V21.4669C28.0003 17.8589 25.075 14.9336 21.4669 14.9336Z" fill="#412D2D"/>
		</symbol>

		<symbol id="mm-icon-done-hover" viewBox="0 0 29 28">
			<path d="M6.53333 0H0V6.53333C0 10.1414 2.9253 13.0667 6.53333 13.0667H13.0667V6.53333C13.0667 2.9253 10.1414 0 6.53333 0Z" fill="#FAF2E0"/>
			<path d="M6.53333 28H0V21.4667C0 17.8586 2.9253 14.9333 6.53333 14.9333H13.0667V21.4667C13.0667 25.0747 10.1414 28 6.53333 28Z" fill="#FAF2E0"/>
			<path d="M21.4669 13.0664H14.9336V6.53307C14.9336 2.92504 17.8589 -0.000259399 21.4669 -0.000259399H28.0003V6.53307C28.0003 10.1411 25.075 13.0664 21.4669 13.0664Z" fill="#FAF2E0"/>
			<path opacity="0.5" d="M21.5333 13.0664H15V6.53307C15 2.92504 17.9253 -0.000259399 21.5333 -0.000259399H28.0667V6.53307C28.0667 10.1411 25.1414 13.0664 21.5333 13.0664Z" fill="#5D7A47"/>
			<path d="M21.4669 14.9336H14.9336V21.4669C14.9336 25.075 17.8589 28.0003 21.4669 28.0003H28.0003V21.4669C28.0003 17.8589 25.075 14.9336 21.4669 14.9336Z" fill="#FAF2E0"/>
		</symbol>

		<symbol id="mm-icon-make-it" viewBox="0 0 36 29">
			<circle opacity="0.5" cx="13" cy="13" r="13" fill="#5D7A47"/>
			<path fill-rule="evenodd" clip-rule="evenodd" d="M16.7755 24.6444V20.2889H12.3878C9.96462 20.2889 8 22.2391 8 24.6444L8 29H12.3878C14.8109 29 16.7755 27.0498 16.7755 24.6444Z" fill="#412D2D"/>
			<path fill-rule="evenodd" clip-rule="evenodd" d="M35.4638 3.45587C36.2425 2.14467 35.9436 1.02081 35.9436 1.02081C35.9436 1.02081 34.4904 0.833495 33.3224 1.58275C32.1543 2.332 17.9288 14.5073 17.2544 16.3804C16.5799 18.2535 17.2544 19.9768 17.2544 19.9768C17.2544 19.9768 19.6948 20.5013 21.0701 19.9768C22.4454 19.4523 34.6851 4.76706 35.4638 3.45587Z" fill="#412D2D"/>
		</symbol>

		<symbol id="mm-icon-make-it-hover" viewBox="0 0 36 29">
			<circle cx="13" cy="13" r="13" fill="#FAF2E0"/>
			<circle opacity="0.5" cx="13" cy="13" r="13" fill="#5D7A47"/>
			<path fill-rule="evenodd" clip-rule="evenodd" d="M16.7755 24.6444V20.2889H12.3878C9.96462 20.2889 8 22.2391 8 24.6444L8 29H12.3878C14.8109 29 16.7755 27.0498 16.7755 24.6444Z" fill="#FAF2E0"/>
			<path fill-rule="evenodd" clip-rule="evenodd" d="M35.4638 3.45587C36.2425 2.14467 35.9436 1.02081 35.9436 1.02081C35.9436 1.02081 34.4904 0.833495 33.3224 1.58275C32.1543 2.332 17.9288 14.5073 17.2544 16.3804C16.5799 18.2535 17.2544 19.9768 17.2544 19.9768C17.2544 19.9768 19.6948 20.5013 21.0701 19.9768C22.4454 19.4523 34.6851 4.76706 35.4638 3.45587Z" fill="#FAF2E0"/>
		</symbol>

		<symbol id="mm-icon-autopilot" viewBox="0 0 30 28">
			<line x1="1" y1="4" x2="29" y2="4" stroke="#412D2D" stroke-width="2" stroke-linecap="round"/>
			<line x1="1" y1="14" x2="29" y2="14" stroke="#412D2D" stroke-width="2" stroke-linecap="round"/>
			<line x1="1" y1="24" x2="29" y2="24" stroke="#412D2D" stroke-width="2" stroke-linecap="round"/>
			<circle cx="4" cy="4" r="2.5" fill="#FAF2E0" stroke="#FAF2E0" stroke-width="3"/>
			<circle cx="21" cy="14" r="2.5" fill="#FAF2E0" stroke="#FAF2E0" stroke-width="3"/>
			<circle cx="12" cy="24" r="2.5" fill="#FAF2E0" stroke="#FAF2E0" stroke-width="3"/>
			<circle opacity="0.5" cx="4" cy="4" r="2.5" fill="#5D7A47" stroke="#5D7A47" stroke-width="3"/>
			<circle opacity="0.5" cx="21" cy="14" r="2.5" fill="#5D7A47" stroke="#5D7A47" stroke-width="3"/>
			<circle opacity="0.5" cx="12" cy="24" r="2.5" fill="#5D7A47" stroke="#5D7A47" stroke-width="3"/>
		</symbol>

		<symbol id="mm-icon-tautopilot-hover" viewBox="0 0 30 28">
			<line x1="1" y1="4" x2="29" y2="4" stroke="#FAF2E0" stroke-width="2" stroke-linecap="round"/>
			<line x1="1" y1="14" x2="29" y2="14" stroke="#FAF2E0" stroke-width="2" stroke-linecap="round"/>
			<line x1="1" y1="24" x2="29" y2="24" stroke="#FAF2E0" stroke-width="2" stroke-linecap="round"/>
			<circle cx="4" cy="4" r="2.5" fill="#FAF2E0" stroke="#FAF2E0" stroke-width="3"/>
			<circle cx="21" cy="14" r="2.5" fill="#FAF2E0" stroke="#FAF2E0" stroke-width="3"/>
			<circle cx="12" cy="24" r="2.5" fill="#FAF2E0" stroke="#FAF2E0" stroke-width="3"/>
			<circle opacity="0.5" cx="4" cy="4" r="2.5" fill="#5D7A47" stroke="#5D7A47" stroke-width="3"/>
			<circle opacity="0.5" cx="21" cy="14" r="2.5" fill="#5D7A47" stroke="#5D7A47" stroke-width="3"/>
			<circle opacity="0.5" cx="12" cy="24" r="2.5" fill="#5D7A47" stroke="#5D7A47" stroke-width="3"/>
		</symbol>

		<symbol id="mm-icon-notification" viewBox="0 0 40 30">
			<path opacity="0.5" d="M20 29C21.6568 29 23 27.8807 23 26.5C23 25.1193 21.6568 24 20 24C18.3432 24 17 25.1193 17 26.5C17 27.8807 18.3432 29 20 29Z" fill="#5D7A47" stroke="#5D7A47" stroke-width="2" stroke-miterlimit="10"/>
			<path d="M20.0142 24.9248C15.7068 24.9248 11.3994 24.9248 7.09191 24.9248C5.97198 24.9248 5.71356 24.5488 6.31661 23.7216C6.57505 23.3455 6.8335 22.9695 7.17809 22.6687C9.59026 20.5631 10.1072 17.931 10.1933 15.1485C10.2795 12.5164 9.93486 9.88433 11.0548 7.32745C11.744 5.52259 12.7778 3.94335 14.5007 2.74011C18.119 0.108032 23.5463 0.484034 26.6477 3.71773C28.543 5.67299 29.4906 8.00427 29.6629 10.5611C29.8352 12.366 29.7491 14.0957 29.8352 15.9005C29.9214 18.4574 30.6105 20.8639 32.7642 22.7439C33.195 23.1199 33.5396 23.4959 33.7981 23.9471C34.2288 24.6992 33.9704 25 33.0227 25C30.4383 25 27.9399 25 25.3555 25C23.5463 24.9248 21.7372 24.9248 20.0142 24.9248Z" fill="#412D2D" stroke="#412D2D" stroke-width="2" stroke-miterlimit="10"/>
		</symbol>

		<symbol id="mm-icon-notification-hover" viewBox="0 0 40 30">
			<path d="M20 29C21.6568 29 23 27.8807 23 26.5C23 25.1193 21.6568 24 20 24C18.3432 24 17 25.1193 17 26.5C17 27.8807 18.3432 29 20 29Z" fill="#FAF2E0" stroke="#FAF2E0" stroke-width="2" stroke-miterlimit="10"/>
			<path opacity="0.5" d="M20 29C21.6568 29 23 27.8807 23 26.5C23 25.1193 21.6568 24 20 24C18.3432 24 17 25.1193 17 26.5C17 27.8807 18.3432 29 20 29Z" fill="#5D7A47" stroke="#5D7A47" stroke-width="2" stroke-miterlimit="10"/>
			<path d="M20.0142 24.9248C15.7068 24.9248 11.3994 24.9248 7.09191 24.9248C5.97198 24.9248 5.71356 24.5488 6.31661 23.7216C6.57505 23.3455 6.8335 22.9695 7.17809 22.6687C9.59026 20.5631 10.1072 17.931 10.1933 15.1485C10.2795 12.5164 9.93486 9.88433 11.0548 7.32745C11.744 5.52259 12.7778 3.94335 14.5007 2.74011C18.119 0.108032 23.5463 0.484034 26.6477 3.71773C28.543 5.67299 29.4906 8.00427 29.6629 10.5611C29.8352 12.366 29.7491 14.0957 29.8352 15.9005C29.9214 18.4574 30.6105 20.8639 32.7642 22.7439C33.195 23.1199 33.5396 23.4959 33.7981 23.9471C34.2288 24.6992 33.9704 25 33.0227 25C30.4383 25 27.9399 25 25.3555 25C23.5463 24.9248 21.7372 24.9248 20.0142 24.9248Z" fill="#FAF2E0" stroke="#FAF2E0" stroke-width="2" stroke-miterlimit="10"/>
		</symbol>

		<symbol id="mm-icon-black-card" viewBox="0 0 40 30">
			<path d="M34.4084 26.9988H5.59162C3.65767 27.0485 2.05023 25.5341 2 23.6225C2 23.606 2 23.5895 2 23.5729V6.43099C2.03767 4.50289 3.64093 2.97204 5.59162 3.001H34.4084C36.3465 2.95549 37.954 4.46979 38 6.38548C38 6.40203 38 6.41858 38 6.43099V23.5729C37.9958 25.4721 36.4302 27.0071 34.5088 26.9988C34.4754 26.9988 34.4419 26.9988 34.4084 26.9988Z" fill="#412D2D"/>
			<line x1="8.0498" y1="22.1494" x2="15.1498" y2="22.1494" stroke="#FAF2E0" stroke-width="2.5" stroke-linecap="round"/>
			<line x1="4" y1="10.5996" x2="36" y2="10.5996" stroke="#FAF2E0" stroke-width="4" stroke-linecap="square"/>
			<line opacity="0.8" x1="8.0498" y1="22.1494" x2="15.1498" y2="22.1494" stroke="#412D2D" stroke-width="2.5" stroke-linecap="round"/>
			<line opacity="0.8" x1="4" y1="10.5996" x2="36" y2="10.5996" stroke="#412D2D" stroke-width="4" stroke-linecap="square"/>
			<circle opacity="0.8" cx="29.2004" cy="21.8" r="1.3" fill="#FAF2E0" stroke="#FAF2E0"/>
			<circle opacity="0.8" cx="31.5998" cy="21.8" r="1.3" fill="#FAF2E0" stroke="#FAF2E0"/>
			<circle opacity="0.8" cx="26.8" cy="21.8" r="1.3" fill="#FAF2E0" stroke="#FAF2E0"/>
			<circle cx="29.2004" cy="21.8" r="1.3" fill="#FAF2E0" stroke="#FAF2E0"/>
			<circle opacity="0.5" cx="29.2004" cy="21.8" r="1.3" fill="#5D7A47" stroke="#5D7A47"/>
			<circle opacity="0.8" cx="31.5998" cy="21.8" r="1.3" fill="#412D2D" stroke="#412D2D"/>
			<circle opacity="0.8" cx="26.8" cy="21.8" r="1.3" fill="#412D2D" stroke="#412D2D"/>
			<mask id="mask0" mask-type="alpha" maskUnits="userSpaceOnUse" x="27" y="20" width="5" height="4">
			<circle cx="29.2004" cy="21.8" r="1.3" fill="#5D7A47" stroke="#5D7A47"/>
			</mask>
			<g mask="url(#mask0)">
			<circle cx="31.6008" cy="21.8" r="1.3" fill="#5D7A47" stroke="#5D7A47"/>
			</g>
			<mask id="mask1" mask-type="alpha" maskUnits="userSpaceOnUse" x="25" y="20" width="4" height="4">
			<circle cx="26.8" cy="21.8" r="1.3" fill="#5D7A47" stroke="#5D7A47"/>
			</mask>
			<g mask="url(#mask1)">
			<circle cx="29.2004" cy="21.8" r="1.3" fill="#5D7A47" stroke="#5D7A47"/>
			</g>
		</symbol>

		<symbol id="mm-icon-black-card-hover" viewBox="0 0 40 30">
			<path d="M34.4084 26.9988H5.59162C3.65767 27.0485 2.05023 25.5341 2 23.6225C2 23.606 2 23.5895 2 23.5729V6.43099C2.03767 4.50289 3.64093 2.97204 5.59162 3.001H34.4084C36.3465 2.95549 37.954 4.46979 38 6.38548C38 6.40203 38 6.41858 38 6.43099V23.5729C37.9958 25.4721 36.4302 27.0071 34.5088 26.9988C34.4754 26.9988 34.4419 26.9988 34.4084 26.9988Z" fill="#FAF2E0"/>
			<line x1="8.0498" y1="22.1494" x2="15.1498" y2="22.1494" stroke="#412D2D" stroke-width="2.5" stroke-linecap="round"/>
			<line x1="4" y1="10.5996" x2="36" y2="10.5996" stroke="#412D2D" stroke-width="4" stroke-linecap="square"/>
			<line opacity="0.8" x1="8.0498" y1="22.1494" x2="15.1498" y2="22.1494" stroke="#FAF2E0" stroke-width="2.5" stroke-linecap="round"/>
			<line opacity="0.8" x1="4" y1="10.5996" x2="36" y2="10.5996" stroke="#FAF2E0" stroke-width="4" stroke-linecap="square"/>
			<circle cx="29.2004" cy="21.8" r="1.3" fill="#412D2D" stroke="#412D2D"/>
			<circle cx="31.5998" cy="21.8" r="1.3" fill="#412D2D" stroke="#412D2D"/>
			<circle cx="26.8" cy="21.8" r="1.3" fill="#412D2D" stroke="#412D2D"/>
			<circle cx="29.2004" cy="21.8" r="1.3" fill="#FAF2E0" stroke="#FAF2E0"/>
			<circle cx="29.2004" cy="21.8" r="1.3" fill="#5D7A47" stroke="#5D7A47"/>
			<circle opacity="0.8" cx="31.5998" cy="21.8" r="1.3" fill="#FAF2E0" stroke="#FAF2E0"/>
			<circle opacity="0.8" cx="26.8" cy="21.8" r="1.3" fill="#FAF2E0" stroke="#FAF2E0"/>
			<mask id="mask0" mask-type="alpha" maskUnits="userSpaceOnUse" x="27" y="20" width="5" height="4">
			<circle cx="29.2004" cy="21.8" r="1.3" fill="#5D7A47" stroke="#5D7A47"/>
			</mask>
			<g mask="url(#mask0)">
			<circle cx="31.6008" cy="21.8" r="1.3" fill="#FAF2E0" stroke="#FAF2E0"/>
			</g>
			<mask id="mask1" mask-type="alpha" maskUnits="userSpaceOnUse" x="25" y="20" width="4" height="4">
			<circle cx="26.8" cy="21.8" r="1.3" fill="#5D7A47" stroke="#5D7A47"/>
			</mask>
			<g mask="url(#mask1)">
			<circle cx="29.2004" cy="21.8" r="1.3" fill="#FAF2E0" stroke="#FAF2E0"/>
			</g>
			<g opacity="0.5">
			<mask id="mask2" mask-type="alpha" maskUnits="userSpaceOnUse" x="27" y="20" width="5" height="4">
			<circle cx="29.2004" cy="21.8" r="1.3" fill="#5D7A47" stroke="#5D7A47"/>
			</mask>
			<g mask="url(#mask2)">
			<circle cx="31.6008" cy="21.8" r="1.3" fill="#5D7A47" stroke="#5D7A47"/>
			</g>
			</g>
			<g opacity="0.5">
			<mask id="mask3" mask-type="alpha" maskUnits="userSpaceOnUse" x="25" y="20" width="4" height="4">
			<circle cx="26.8" cy="21.8" r="1.3" fill="#5D7A47" stroke="#5D7A47"/>
			</mask>
			<g mask="url(#mask3)">
			<circle cx="29.2004" cy="21.8" r="1.3" fill="#5D7A47" stroke="#5D7A47"/>
			</g>
			</g>
		</symbol>

		<symbol id="mm-icon-customer-support" viewBox="0 0 32 29">
			<path d="M29 15C29 7.26801 25.9667 1 16 1C5.6 1 3 7.26801 3 15" stroke="#412D2D" stroke-width="1.66667"/>
			<path d="M28.6313 19.8332C28.6313 23.9998 24.4727 26.9873 19.3682 26.9873" stroke="#412D2D" stroke-width="1.25"/>
			<path d="M18.9474 28.9997C20.9821 28.9997 21.8947 28.0669 21.8947 26.9163C21.8947 25.7657 20.9821 24.833 18.9474 24.833C16.9126 24.833 16 25.7657 16 26.9163C16 28.0669 16.9126 28.9997 18.9474 28.9997Z" fill="#412D2D"/>
			<path d="M23.3494 10.1955C23.3494 7.89091 21.4905 6 19.2249 6C18.1211 6 17.1336 6.47273 16.3784 7.18182L13.5899 9.95909C11.9053 11.6136 11.9053 14.3318 13.4738 16.0455L16.1748 19C16.1748 19 20.6191 14.5682 21.5486 13.6818C22.5362 12.8545 23.3494 11.6727 23.3494 10.1955Z" fill="#FAF2E0"/>
			<path d="M9.00016 10.1955C9.00016 7.89091 10.8591 6 13.1247 6C14.2285 6 15.216 6.47273 15.9712 7.18182L18.7597 9.95909C20.4443 11.6136 20.4443 14.3318 18.8759 16.0455L16.1748 19C16.1748 19 11.7305 14.5682 10.801 13.6818C9.81345 12.8545 9.00016 11.6727 9.00016 10.1955Z" fill="#FAF2E0"/>
			<g opacity="0.5">
			<path d="M23.3494 10.1955C23.3494 7.89091 21.4905 6 19.2249 6C18.1211 6 17.1336 6.47273 16.3784 7.18182L13.5899 9.95909C11.9053 11.6136 11.9053 14.3318 13.4738 16.0455L16.1748 19C16.1748 19 20.6191 14.5682 21.5486 13.6818C22.5362 12.8545 23.3494 11.6727 23.3494 10.1955Z" fill="#5D7A47"/>
			<path d="M9.00016 10.1955C9.00016 7.89091 10.8591 6 13.1247 6C14.2285 6 15.216 6.47273 15.9712 7.18182L18.7597 9.95909C20.4443 11.6136 20.4443 14.3318 18.8759 16.0455L16.1748 19C16.1748 19 11.7305 14.5682 10.801 13.6818C9.81345 12.8545 9.00016 11.6727 9.00016 10.1955Z" fill="#5D7A47"/>
			</g>
			<path d="M26.9472 21.4997C27.6107 21.4997 28.2677 21.3811 28.8807 21.1508C29.4937 20.9205 30.0507 20.5828 30.5199 20.1572C30.9891 19.7316 31.3613 19.2264 31.6152 18.6703C31.8691 18.1142 31.9998 17.5182 31.9998 16.9163C31.9998 16.3144 31.8691 15.7185 31.6152 15.1624C31.3613 14.6063 30.9891 14.101 30.5199 13.6754C30.0507 13.2498 29.4937 12.9122 28.8807 12.6819C28.2677 12.4516 27.6107 12.333 26.9472 12.333L26.9472 16.9163L26.9472 21.4997Z" fill="#412D2D"/>
			<path d="M5.05284 21.4997C4.38932 21.4997 3.7323 21.3811 3.11928 21.1508C2.50627 20.9205 1.94927 20.5829 1.48009 20.1572C1.01091 19.7316 0.638739 19.2264 0.384821 18.6703C0.130902 18.1142 0.00021244 17.5182 0.000212467 16.9163C0.000212494 16.3144 0.130903 15.7185 0.384821 15.1624C0.638739 14.6063 1.01091 14.101 1.48009 13.6754C1.94927 13.2498 2.50627 12.9122 3.11928 12.6819C3.7323 12.4516 4.38932 12.333 5.05284 12.333L5.05284 16.9163L5.05284 21.4997Z" fill="#412D2D"/>
		</symbol>

		<symbol id="mm-icon-thef-protection" viewBox="0 0 40 30">
			<path d="M8.69938 6.24564L19.5035 1.10491C19.8101 0.965029 20.1658 0.965029 20.4846 1.10491L31.2887 6.24564C31.7057 6.40884 32 6.78185 32 7.21316C32 12.552 31.2519 16.6903 29.4615 20.1407C27.6465 23.6028 24.8013 26.3189 20.595 28.8251C20.2393 29.0583 19.7611 29.0583 19.4054 28.8251C15.199 26.3072 12.3416 23.6028 10.5389 20.1407C8.74844 16.7019 8.00037 12.5637 8.00037 7.21316C7.98811 6.78185 8.28242 6.40884 8.69938 6.24564Z" fill="#412D2D"/>
			<path d="M25.6033 23H14.3967C13.6447 23.0244 13.0195 22.2817 13 21.3444C13 21.3362 13 21.3281 13 21.32V12.9139C13.0147 11.9684 13.6381 11.2177 14.3967 11.2319H25.6033C26.357 11.2096 26.9821 11.9522 27 12.8916C27 12.8997 27 12.9079 27 12.9139V21.32C26.9984 22.2513 26.3895 23.0041 25.6423 23C25.6293 23 25.6163 23 25.6033 23Z" fill="#FAF2E0"/>
			<path d="M24.7763 10.8846C24.7763 13.7654 22.5942 16.0192 19.9999 16.0192C17.4057 16.0192 15.2236 13.7654 15.2236 10.8846C15.2236 8.00375 17.4057 5.75 19.9999 5.75C22.5942 5.75 24.7763 8.00375 24.7763 10.8846Z" stroke="#FAF2E0" stroke-width="1.5"/>
			<g opacity="0.5">
			<path d="M25.6033 23H14.3967C13.6447 23.0244 13.0195 22.2817 13 21.3444C13 21.3362 13 21.3281 13 21.32V12.9139C13.0147 11.9684 13.6381 11.2177 14.3967 11.2319H25.6033C26.357 11.2096 26.9821 11.9522 27 12.8916C27 12.8997 27 12.9079 27 12.9139V21.32C26.9984 22.2513 26.3895 23.0041 25.6423 23C25.6293 23 25.6163 23 25.6033 23Z" fill="#5D7A47"/>
			<path d="M24.7763 10.8846C24.7763 13.7654 22.5942 16.0192 19.9999 16.0192C17.4057 16.0192 15.2236 13.7654 15.2236 10.8846C15.2236 8.00375 17.4057 5.75 19.9999 5.75C22.5942 5.75 24.7763 8.00375 24.7763 10.8846Z" stroke="#5D7A47" stroke-width="1.5"/>
			</g>
		</symbol>

		<symbol id="mm-icon-thef-protection-hover" viewBox="0 0 24 28">
			<path d="M0.699382 5.24564L11.5035 0.104913C11.8101 -0.0349709 12.1658 -0.0349709 12.4846 0.104913L23.2887 5.24564C23.7057 5.40884 24 5.78185 24 6.21316C24 11.552 23.2519 15.6903 21.4615 19.1407C19.6465 22.6028 16.8013 25.3189 12.595 27.8251C12.2393 28.0583 11.7611 28.0583 11.4054 27.8251C7.19903 25.3072 4.34164 22.6028 2.5389 19.1407C0.748436 15.7019 0.000369397 11.5637 0.000369397 6.21316C-0.0118941 5.78185 0.282424 5.40884 0.699382 5.24564Z" fill="#FAF2E0"/>
			<path d="M17.6033 22H6.39674C5.64465 22.0244 5.01953 21.2817 5 20.3444C5 20.3362 5 20.3281 5 20.32V11.9139C5.01465 10.9684 5.63814 10.2177 6.39674 10.2319H17.6033C18.357 10.2096 18.9821 10.9522 19 11.8916C19 11.8997 19 11.9079 19 11.9139V20.32C18.9984 21.2513 18.3895 22.0041 17.6423 22C17.6293 22 17.6163 22 17.6033 22Z" fill="#FAF2E0"/>
			<path d="M16.7763 9.88458C16.7763 12.7654 14.5942 15.0192 11.9999 15.0192C9.40575 15.0192 7.22363 12.7654 7.22363 9.88458C7.22363 7.00375 9.40575 4.75 11.9999 4.75C14.5942 4.75 16.7763 7.00375 16.7763 9.88458Z" stroke="#FAF2E0" stroke-width="1.5"/>
			<g opacity="0.5">
			<path d="M17.6033 22H6.39674C5.64465 22.0244 5.01953 21.2817 5 20.3444C5 20.3362 5 20.3281 5 20.32V11.9139C5.01465 10.9684 5.63814 10.2177 6.39674 10.2319H17.6033C18.357 10.2096 18.9821 10.9522 19 11.8916C19 11.8997 19 11.9079 19 11.9139V20.32C18.9984 21.2513 18.3895 22.0041 17.6423 22C17.6293 22 17.6163 22 17.6033 22Z" fill="#5D7A47"/>
			<path d="M16.7763 9.88458C16.7763 12.7654 14.5942 15.0192 11.9999 15.0192C9.40575 15.0192 7.22363 12.7654 7.22363 9.88458C7.22363 7.00375 9.40575 4.75 11.9999 4.75C14.5942 4.75 16.7763 7.00375 16.7763 9.88458Z" stroke="#5D7A47" stroke-width="1.5"/>
			</g>
		</symbol>
		
		<symbol id="mm-icon-phone-protection" viewBox="0 0 40 30">
			<path d="M18.6 0H29.4C31.38 0 33 1.35 33 3V27C33 28.65 31.38 30 29.4 30H18.6C16.62 30 15 28.65 15 27V3C15 1.35 16.62 0 18.6 0Z" fill="#412D2D"/>
			<path d="M6.49698 14.547L14.1744 11.0709C14.3923 10.9764 14.645 10.9764 14.8715 11.0709L22.5489 14.547C22.8452 14.6573 23.0544 14.9096 23.0544 15.2012C23.0544 18.8112 22.5228 21.6094 21.2505 23.9425C19.9608 26.2835 17.939 28.1201 14.95 29.8148C14.6972 29.9724 14.3574 29.9724 14.1047 29.8148C11.1156 28.1122 9.08516 26.2835 7.80414 23.9425C6.53184 21.6173 6.00026 18.8191 6.00026 15.2012C5.99155 14.9096 6.20069 14.6573 6.49698 14.547Z" fill="#FAF2E0"/>
			<path opacity="0.5" d="M6.49698 14.547L14.1744 11.0709C14.3923 10.9764 14.645 10.9764 14.8715 11.0709L22.5489 14.547C22.8452 14.6573 23.0544 14.9096 23.0544 15.2012C23.0544 18.8112 22.5228 21.6094 21.2505 23.9425C19.9608 26.2835 17.939 28.1201 14.95 29.8148C14.6972 29.9724 14.3574 29.9724 14.1047 29.8148C11.1156 28.1122 9.08516 26.2835 7.80414 23.9425C6.53184 21.6173 6.00026 18.8191 6.00026 15.2012C5.99155 14.9096 6.20069 14.6573 6.49698 14.547Z" fill="#5D7A47"/>
			<mask id="mask0" mask-type="alpha" maskUnits="userSpaceOnUse" x="15" y="0" width="18" height="30">
			<path d="M18.6 0H29.4C31.38 0 33 1.35 33 3V27C33 28.65 31.38 30 29.4 30H18.6C16.62 30 15 28.65 15 27V3C15 1.35 16.62 0 18.6 0Z" fill="#FAF2E0"/>
			</mask>
			<g mask="url(#mask0)">
			<path d="M6.49698 14.547L14.1744 11.0709C14.3923 10.9764 14.645 10.9764 14.8715 11.0709L22.5489 14.547C22.8452 14.6573 23.0544 14.9096 23.0544 15.2012C23.0544 18.8112 22.5228 21.6094 21.2505 23.9425C19.9608 26.2835 17.939 28.1201 14.95 29.8148C14.6972 29.9724 14.3574 29.9724 14.1047 29.8148C11.1156 28.1122 9.08516 26.2835 7.80414 23.9425C6.53184 21.6173 6.00026 18.8191 6.00026 15.2012C5.99155 14.9096 6.20069 14.6573 6.49698 14.547Z" fill="#5D7A47"/>
			</g>
		</symbol>

		<symbol id="mm-icon-twitter" viewBox="0 0 24 24">
			
		</symbol>

		<symbol id="mm-icon-twitter" viewBox="0 0 24 24">
			
		</symbol>

		<symbol id="mm-icon-twitter" viewBox="0 0 24 24">
			
		</symbol>

		<symbol id="mm-icon-twitter" viewBox="0 0 24 24">
			
		</symbol>

		<symbol id="mm-icon-twitter" viewBox="0 0 24 24">
			
		</symbol>

		<symbol id="mm-icon-twitter" viewBox="0 0 24 24">
			
		</symbol>

		<symbol id="mm-icon-twitter" viewBox="0 0 24 24">
			
		</symbol>

		<symbol id="mm-icon-twitter" viewBox="0 0 24 24">
			
		</symbol>

		<symbol id="mm-icon-twitter" viewBox="0 0 24 24">
			
		</symbol>

		<symbol id="mm-icon-twitter" viewBox="0 0 24 24">
			
		</symbol>

		<symbol id="mm-icon-twitter" viewBox="0 0 24 24">
			
		</symbol>

		<symbol id="mm-icon-twitter" viewBox="0 0 24 24">
			
		</symbol>

		<symbol id="mm-icon-twitter" viewBox="0 0 24 24">
			
		</symbol>

		<symbol id="mm-icon-twitter" viewBox="0 0 24 24">
			
		</symbol>


		
		
	</defs>
</svg>
