<svg width="121" height="810" viewBox="0 0 121 810" fill="none" xmlns="http://www.w3.org/2000/svg">
<g clip-path="url(#clip0_123_2)">
<g opacity="0.5">
<path d="M26.5083 722.294C26.5083 722.294 25.6855 737.151 17.6304 742.94C9.57517 748.729 1.07335 741.042 6.11176 734.664C11.1502 728.287 19.0016 735.213 26.5083 722.302L26.5083 722.294Z" fill="#3B3568"/>
<path d="M28.0833 652.002C28.0833 652.002 27.668 637.129 35.2138 630.689C42.7597 624.249 51.8727 631.207 47.3828 637.977C42.8929 644.746 34.493 638.502 28.0833 651.994L28.0833 652.002Z" fill="#3B3568"/>
<path d="M98.5348 459.623C98.5348 459.623 109.137 463.702 115.695 459.89C122.254 456.078 119.55 447.739 113.533 449.253C107.515 450.775 109.881 458.423 98.5348 459.623Z" fill="#3B3568"/>
<path d="M80.7476 267.244C80.7476 267.244 90.2054 260.937 90.8871 253.383C91.5688 245.829 83.2159 243.209 80.9748 248.998C78.7338 254.787 86.3345 257.282 80.7476 267.244Z" fill="#3B3568"/>
<path d="M90.3621 299.131C90.3621 299.131 88.8341 311.556 81.7349 315.964C74.6435 320.373 67.9361 313.431 72.5279 308.363C77.1196 303.296 83.3256 309.556 90.3543 299.131L90.3621 299.131Z" fill="#3B3568"/>
</g>
<g opacity="0.5">
<path d="M50.713 282.117C50.713 279.578 52.7688 277.52 55.3048 277.52C57.8408 277.52 59.8966 279.578 59.8966 282.117C59.8966 284.655 57.8408 286.713 55.3048 286.713C52.7688 286.713 50.713 284.655 50.713 282.117Z" fill="#FCFCFB"/>
<path d="M78.9219 577.302C78.9219 577.302 78.9219 577.341 78.9219 577.365C78.9219 578.039 78.7495 578.659 78.4125 579.239C78.0834 579.796 77.6368 580.243 77.0804 580.573C75.9364 581.247 74.479 581.247 73.3349 580.573C72.2066 579.914 71.4935 578.674 71.4935 577.365C71.4935 575.725 72.6219 574.203 74.2204 573.78C74.2439 573.78 74.2596 573.772 74.2831 573.764C75.1842 573.45 76.3125 573.662 77.1118 574.133C78.1931 574.768 78.9767 576.023 78.9297 577.302L78.9219 577.302Z" fill="#FCFCFB"/>
<path d="M120.459 289.341C121.376 290.91 121.11 292.949 119.832 294.236C118.555 295.515 116.51 295.781 114.943 294.863C114.34 294.503 113.854 294.024 113.493 293.412C112.906 292.4 112.898 291.412 113.086 290.298C113.086 290.275 113.086 290.251 113.094 290.228C113.297 289.02 114.622 287.694 115.828 287.49C115.852 287.49 115.875 287.49 115.899 287.482C116.612 287.286 117.325 287.286 118.046 287.482C119.057 287.757 119.927 288.431 120.452 289.333L120.459 289.341Z" fill="#F8B400"/>
<path d="M120.138 421.257C121.337 423.312 120.232 426.034 117.944 426.662C116.996 426.921 115.962 426.787 115.108 426.293C114.598 425.995 114.238 425.611 113.956 425.171C113.909 425.109 113.862 425.046 113.822 424.975C113.854 425.014 113.885 425.054 113.916 425.101C113.846 424.983 113.768 424.873 113.705 424.748C113.705 424.748 113.705 424.748 113.705 424.74C113.642 424.614 113.587 424.473 113.525 424.332C113.399 423.971 113.329 423.587 113.282 423.163C113.188 422.238 113.768 421.116 114.371 420.512C116.048 418.833 118.947 419.21 120.146 421.257L120.138 421.257Z" fill="#33AE84"/>
<path d="M45.9724 760.989C45.9724 763.696 43.7157 765.955 41.0123 765.955C38.309 765.955 36.0523 763.696 36.0523 760.989C36.0523 758.283 38.309 756.024 41.0123 756.024C43.7157 756.024 45.9724 758.283 45.9724 760.989Z" fill="#F8B400"/>
<path d="M45.3299 144.639C46.1526 144.867 46.8579 145.282 47.4612 145.886C48.3623 146.788 48.8795 148.036 48.8795 149.314C48.8795 150.185 48.6601 151.001 48.2213 151.762C47.6493 152.742 46.5052 153.801 45.3299 153.989C45.2907 153.989 45.2515 154.005 45.2123 154.005C44.7814 154.06 44.3504 154.123 43.9194 154.178C43.0418 154.178 42.2269 153.95 41.4668 153.511C39.9859 152.648 39.0613 151.032 39.0613 149.314C39.0613 148.028 39.5784 146.781 40.4795 145.879C41.0829 145.275 41.7959 144.859 42.6187 144.631C43.4806 144.396 44.3426 144.396 45.1967 144.631C45.2358 144.631 45.275 144.639 45.3142 144.647L45.3299 144.639Z" fill="#33AE84"/>
<path d="M16.9173 702.55C16.9173 705.453 14.5039 707.869 11.6046 707.869C8.7054 707.869 6.29198 705.453 6.29198 702.55C6.29198 699.648 8.7054 697.232 11.6046 697.232C14.5039 697.232 16.9173 699.648 16.9173 702.55Z" fill="#F29A19"/>
<path d="M51.8486 722.929C53.2378 719.622 57.0415 718.069 60.3445 719.46C63.6475 720.85 65.199 724.658 63.8099 727.965C62.4208 731.271 58.617 732.824 55.314 731.434C52.011 730.043 50.4595 726.235 51.8486 722.929Z" fill="#E53B2D"/>
<path d="M55.1951 49.7401C55.9709 52.5797 54.8347 55.4585 52.625 57.1293C51.8727 57.7568 51.003 58.2275 50.047 58.4942C46.9754 59.3414 43.9429 57.9451 42.2661 55.3251C41.4747 54.0936 41.4276 53.1759 41.2788 51.7639C41.1456 50.4931 41.7097 49.2459 42.2426 48.1477C42.7127 47.1986 43.8959 46.1318 44.7892 45.6062C45.8705 44.9708 47.2496 44.6021 48.4955 44.6414C51.5907 44.7355 54.3489 46.6965 55.1873 49.7401L55.1951 49.7401Z" fill="#F29A19"/>
<path d="M45.0399 365.469C45.0399 368.983 42.1094 371.909 38.6068 371.909C35.1042 371.909 32.1736 368.975 32.1736 365.469C32.1736 361.963 35.1042 359.029 38.6068 359.029C42.1094 359.029 45.0399 361.963 45.0399 365.469Z" fill="#33AE84"/>
<path d="M4.74832 649.382C7.23226 649.382 9.30875 651.359 9.30875 653.736C9.30875 656.112 7.23226 658.089 4.74831 658.089C2.26437 658.089 0.187895 656.112 0.187895 653.736C0.187895 651.359 2.26437 649.382 4.74832 649.382Z" fill="#E53B2D"/>
<path d="M20.8665 524.102C20.8665 527.993 17.6225 531.241 13.736 531.241C9.84941 531.241 6.60539 527.993 6.60539 524.102C6.60539 520.212 9.84941 516.956 13.736 516.956C17.6225 516.956 20.8665 520.204 20.8665 524.102Z" fill="#FCFCFB"/>
</g>
</g>
<defs>
<clipPath id="clip0_123_2">
<rect width="810" height="468" fill="white" transform="matrix(4.37114e-08 -1 -1 -4.37114e-08 121 810)"/>
</clipPath>
</defs>
</svg>
