<svg width="690" height="658" viewBox="0 0 690 658" fill="none" xmlns="http://www.w3.org/2000/svg">
<g clip-path="url(#clip0_107_3783)">
<path d="M558.441 306.496L536.519 362.163L619.217 394.648L641.139 338.981L558.441 306.496Z" fill="#EBEBEB"/>
<path d="M641.111 339.702C641.111 339.702 640.752 339.874 640.05 340.139C639.269 340.42 638.239 340.794 636.959 341.246C634.181 342.212 630.294 343.553 625.517 345.19C615.746 348.48 602.384 352.969 587.571 357.958L587.259 358.067L587.087 357.787C586.962 357.568 586.822 357.335 586.681 357.101C578.83 343.397 571.727 330.988 566.529 321.914C564.016 317.456 561.971 313.808 560.504 311.204C559.833 309.988 559.302 309.006 558.896 308.273C558.537 307.603 558.366 307.244 558.381 307.229C558.412 307.229 558.631 307.556 559.037 308.195C559.474 308.913 560.051 309.864 560.769 311.048C562.284 313.621 564.406 317.222 567.013 321.634C572.258 330.676 579.438 343.039 587.368 356.695C587.508 356.929 587.633 357.163 587.774 357.381L587.29 357.194C602.134 352.299 615.527 347.887 625.314 344.66C630.122 343.117 634.04 341.854 636.834 340.95C638.145 340.544 639.191 340.233 639.972 339.983C640.69 339.765 641.08 339.671 641.08 339.702H641.111Z" fill="#E0E0E0"/>
<path d="M536.497 362.9C536.387 362.697 545.613 357.522 557.101 351.317C568.59 345.112 577.987 340.233 578.08 340.435C578.189 340.638 568.964 345.814 557.476 352.018C545.987 358.223 536.606 363.087 536.497 362.9Z" fill="#E0E0E0"/>
<path d="M605.849 350.522C606.068 350.459 609.221 360.452 612.905 372.831C616.589 385.225 619.414 395.311 619.196 395.374C618.977 395.436 615.824 385.443 612.124 373.065C608.441 360.686 605.615 350.584 605.834 350.522H605.849Z" fill="#E0E0E0"/>
<path d="M285.094 540.716L205.587 580.359L232.339 633.878L311.846 594.235L285.094 540.716Z" fill="#EBEBEB"/>
<path d="M285.668 541.248C285.668 541.248 285.559 541.638 285.278 542.324C284.966 543.087 284.545 544.101 284.03 545.364C282.874 548.076 281.282 551.849 279.315 556.495C275.226 565.942 269.622 578.882 263.425 593.193L263.3 593.489L262.972 593.427C262.723 593.38 262.457 593.318 262.192 593.256C246.739 589.904 232.752 586.879 222.528 584.665C217.533 583.543 213.444 582.623 210.525 581.968C209.167 581.641 208.09 581.392 207.278 581.189C206.529 581.002 206.154 580.893 206.154 580.862C206.154 580.83 206.56 580.893 207.309 581.033C208.136 581.189 209.229 581.392 210.587 581.657C213.522 582.249 217.611 583.075 222.638 584.104C232.877 586.256 246.879 589.218 262.348 592.476C262.613 592.538 262.879 592.585 263.128 592.647L262.676 592.881C268.966 578.601 274.648 565.693 278.785 556.276C280.845 551.677 282.531 547.92 283.733 545.239C284.31 544.007 284.763 543.009 285.122 542.261C285.45 541.591 285.622 541.232 285.653 541.248H285.668Z" fill="#E0E0E0"/>
<path d="M232.909 634.413C232.69 634.366 235 624.045 238.075 611.371C241.15 598.696 243.804 588.469 244.022 588.516C244.241 588.563 241.931 598.883 238.856 611.558C235.781 624.232 233.127 634.459 232.909 634.413Z" fill="#E0E0E0"/>
<path d="M270.106 574.672C270.2 574.47 279.753 578.804 291.428 584.354C303.12 589.904 312.501 594.565 312.407 594.768C312.314 594.97 302.761 590.636 291.085 585.086C279.409 579.536 270.012 574.875 270.106 574.672Z" fill="#E0E0E0"/>
<path d="M154.487 339.827C184.707 319.685 192.074 281.584 191.434 247.208C191.325 241.471 192.059 235.438 189.374 230.371C186.689 225.304 180.289 221.765 175.044 224.104C170.689 226.037 168.738 230.963 166.256 235.032C162.963 240.426 158.092 244.869 152.411 247.676C148.68 249.515 144.075 250.607 140.454 248.564C135.474 245.758 134.99 238.914 135.115 233.224C135.35 222.607 135.584 211.975 135.818 201.343C135.943 195.637 136.052 189.822 134.335 184.381C132.618 178.94 128.731 173.858 123.252 172.252C117.773 170.646 110.921 173.671 109.672 179.236C109.157 181.559 109.594 183.976 109.391 186.33C109.188 188.699 108.033 191.303 105.738 191.926C103.428 192.566 101.134 190.913 99.4322 189.214C93.5474 183.368 89.6138 175.884 85.9456 168.464C82.2774 161.027 78.7184 153.435 73.3956 147.059C68.0728 140.698 60.6583 135.616 52.3853 135.024C44.1123 134.431 35.1993 139.342 32.9828 147.34C30.7506 155.353 35.3866 163.569 40.4597 170.163C47.9834 179.938 56.9433 188.606 66.9489 195.824C68.7596 197.133 70.7108 198.537 71.3664 200.657C72.5683 204.476 68.8533 208.202 65.029 209.387C60.6895 210.743 56.0223 210.229 51.5112 210.681C46.9844 211.133 42.0675 213.019 40.3036 217.198C37.8373 222.997 42.6918 229.171 47.4996 233.255C57.115 241.409 68.1509 247.91 79.9516 252.368C84.1818 253.974 88.6461 255.377 92.0177 258.386C95.4049 261.379 97.3873 266.539 95.2645 270.53C93.126 274.521 87.7875 275.722 83.3388 274.849C78.8902 273.976 74.941 271.528 70.7108 269.876C62.8124 266.804 52.5258 267.194 47.3278 273.882C43.9094 278.279 43.5191 284.483 45.1269 289.815C46.7347 295.147 50.0907 299.761 53.6809 304.033C66.1997 318.952 82.3242 331.066 100.665 337.645C119.006 344.223 136.068 346.188 154.502 339.858" fill="#EBEBEB"/>
<path d="M145.745 318.189C140.891 300.79 133.945 282.145 126.015 262.891C124.017 258.09 122.035 253.335 120.083 248.658C118.132 243.981 116.197 239.366 114.011 234.954C109.688 226.115 104.864 217.93 100.025 210.307C95.1864 202.683 90.3163 195.621 85.7115 189.042C81.0911 182.479 76.6736 176.43 72.4122 171.098C63.9051 160.388 56.0379 152.562 50.4029 147.418C47.5932 144.83 45.3455 142.896 43.8157 141.587C43.0665 140.963 42.4889 140.48 42.0519 140.121C41.646 139.794 41.4275 139.638 41.4275 139.638C41.4275 139.638 41.5992 139.825 41.9894 140.184C42.3953 140.558 42.9728 141.057 43.6909 141.712C45.1894 143.052 47.3903 145.032 50.1688 147.651C55.7257 152.874 63.5149 160.747 71.9284 171.473C76.1585 176.82 80.5448 182.869 85.1339 189.448C89.7075 196.042 94.5464 203.104 99.3541 210.728C104.162 218.351 108.97 226.505 113.262 235.313C115.432 239.709 117.352 244.308 119.303 248.985C121.254 253.662 123.221 258.417 125.219 263.219C133.149 282.472 140.079 301.055 144.981 318.407" fill="#E0E0E0"/>
<path d="M113.808 234.845C113.808 234.845 114.058 233.988 114.37 232.413C114.683 230.839 115.073 228.547 115.51 225.725C116.4 220.051 117.367 212.193 118.413 203.51C119.459 194.826 120.567 187 121.582 181.357C122.081 178.535 122.503 176.259 122.831 174.684C123.143 173.11 123.283 172.237 123.221 172.221C123.159 172.221 122.909 173.063 122.503 174.606C122.081 176.15 121.566 178.426 120.989 181.232C119.818 186.86 118.616 194.701 117.57 203.385C116.54 211.991 115.619 219.77 114.917 225.616C114.558 228.329 114.261 230.605 114.043 232.351C113.84 233.941 113.746 234.83 113.808 234.83V234.845Z" fill="#E0E0E0"/>
<path d="M39.648 220.035C39.648 220.035 39.9134 220.113 40.4129 220.175C41.0216 220.238 41.7397 220.316 42.6138 220.393C44.5181 220.581 47.281 220.83 50.6839 221.267C57.4896 222.077 66.8397 223.527 77.0951 225.585C87.3505 227.674 96.5444 229.95 103.132 231.805C106.441 232.709 109.094 233.52 110.921 234.066C111.764 234.315 112.466 234.518 113.044 234.689C113.528 234.83 113.793 234.876 113.808 234.845C113.808 234.814 113.574 234.705 113.106 234.518C112.544 234.3 111.857 234.05 111.03 233.738C109.219 233.084 106.597 232.195 103.303 231.213C96.7317 229.202 87.5378 226.832 77.2668 224.743C66.9957 222.67 57.5832 221.313 50.7463 220.659C47.3278 220.3 44.5494 220.128 42.6294 220.051C41.7553 220.019 41.0216 220.004 40.4129 219.988C39.9134 219.988 39.6324 219.988 39.6324 220.019L39.648 220.035Z" fill="#E0E0E0"/>
<path d="M144.934 316.801C144.934 316.801 145.137 316.505 145.433 315.912C145.777 315.226 146.198 314.353 146.729 313.278C147.853 310.986 149.382 307.619 151.24 303.44C154.939 295.084 159.7 283.408 164.789 270.437C169.878 257.466 174.545 245.758 178.088 237.355C179.852 233.239 181.288 229.872 182.334 227.424C182.802 226.318 183.177 225.429 183.489 224.712C183.739 224.088 183.864 223.761 183.832 223.745C183.801 223.745 183.63 224.041 183.333 224.634C182.99 225.32 182.568 226.193 182.037 227.269C180.913 229.56 179.384 232.928 177.542 237.106C173.842 245.462 169.082 257.139 163.993 270.125C158.904 283.096 154.237 294.804 150.694 303.207C148.93 307.322 147.494 310.69 146.448 313.137C145.98 314.244 145.589 315.133 145.293 315.85C145.043 316.474 144.918 316.801 144.949 316.817L144.934 316.801Z" fill="#E0E0E0"/>
<path d="M46.5942 283.922C46.5942 283.922 46.922 284.078 47.5776 284.312C48.3112 284.561 49.2634 284.889 50.4341 285.278C53.0253 286.136 56.5999 287.336 60.9705 288.786C69.8679 291.764 82.1057 296.02 95.6079 300.759C109.126 305.498 121.395 309.661 130.355 312.498C134.834 313.917 138.456 315.024 140.985 315.741C142.171 316.084 143.139 316.349 143.888 316.567C144.559 316.739 144.918 316.817 144.918 316.801C144.918 316.77 144.59 316.645 143.935 316.411C143.201 316.162 142.249 315.834 141.078 315.445C138.487 314.587 134.912 313.387 130.542 311.937C121.644 308.959 109.407 304.703 95.8888 299.964C82.3867 295.225 70.102 291.062 61.1578 288.225C56.6779 286.806 53.0565 285.699 50.5278 284.982C49.3415 284.639 48.3737 284.374 47.6244 284.156C46.9532 283.984 46.5942 283.906 46.5942 283.922Z" fill="#E0E0E0"/>
<path d="M155.97 0H67.9011C61.832 0 56.912 4.91378 56.912 10.9752V54.4241C56.912 60.4856 61.832 65.3993 67.9011 65.3993H155.97C162.039 65.3993 166.959 60.4856 166.959 54.4241V10.9752C166.959 4.91378 162.039 0 155.97 0Z" fill="#E0E0E0"/>
<path d="M123.861 63.3103L149.866 86.3988L152.005 63.7312" fill="#E0E0E0"/>
<path d="M97.6215 33.6273C97.6215 37.1662 94.7494 40.0347 91.2216 40.0347C87.6939 40.0347 84.8217 37.1662 84.8217 33.6273C84.8217 30.0884 87.6939 27.2198 91.2216 27.2198C94.7494 27.2198 97.6215 30.0884 97.6215 33.6273Z" fill="white"/>
<path d="M119.678 33.6273C119.678 37.1662 116.806 40.0347 113.278 40.0347C109.75 40.0347 106.878 37.1662 106.878 33.6273C106.878 30.0884 109.75 27.2198 113.278 27.2198C116.806 27.2198 119.678 30.0884 119.678 33.6273Z" fill="white"/>
<path d="M141.718 33.6273C141.718 37.1662 138.846 40.0347 135.318 40.0347C131.791 40.0347 128.918 37.1662 128.918 33.6273C128.918 30.0884 131.791 27.2198 135.318 27.2198C138.846 27.2198 141.718 30.0884 141.718 33.6273Z" fill="white"/>
<path d="M474.726 70.13L452.805 125.797L535.503 158.282L557.425 102.615L474.726 70.13Z" fill="#EBEBEB"/>
<path d="M557.398 103.361C557.398 103.361 557.039 103.532 556.336 103.797C555.556 104.078 554.526 104.452 553.246 104.904C550.467 105.871 546.58 107.211 541.804 108.848C532.032 112.138 518.671 116.628 503.857 121.616L503.545 121.725L503.373 121.445C503.249 121.227 503.108 120.993 502.968 120.759C495.116 107.055 488.014 94.6459 482.816 85.5726C480.303 81.1139 478.258 77.4659 476.791 74.8624C476.119 73.6464 475.589 72.6642 475.183 71.9315C474.824 71.2611 474.652 70.9026 474.668 70.887C474.699 70.887 474.917 71.2143 475.323 71.8535C475.76 72.5707 476.338 73.5216 477.056 74.7065C478.57 77.2788 480.693 80.88 483.3 85.292C488.544 94.3341 495.725 106.697 503.654 120.353C503.795 120.587 503.92 120.821 504.06 121.039L503.576 120.852C518.421 115.957 531.814 111.545 541.601 108.318C546.409 106.775 550.327 105.512 553.121 104.608C554.432 104.202 555.478 103.891 556.258 103.641C556.976 103.423 557.367 103.329 557.367 103.361H557.398Z" fill="#E0E0E0"/>
<path d="M452.768 126.558C452.658 126.356 461.884 121.18 473.372 114.975C484.861 108.77 494.258 103.891 494.351 104.093C494.46 104.296 485.235 109.472 473.747 115.677C462.258 121.881 452.877 126.745 452.768 126.558Z" fill="#E0E0E0"/>
<path d="M522.12 114.18C522.339 114.118 525.492 124.111 529.176 136.489C532.86 148.883 535.685 158.97 535.467 159.032C535.248 159.094 532.095 149.101 528.395 136.723C524.712 124.345 521.886 114.242 522.105 114.18H522.12Z" fill="#E0E0E0"/>
<path d="M680.884 657.595C680.884 657.813 528.442 658 340.458 658C152.473 658 0 657.813 0 657.595C0 657.376 152.395 657.189 340.458 657.189C528.52 657.189 680.884 657.376 680.884 657.595Z" fill="#263238"/>
<path d="M352.774 334.106C363.894 334.106 372.91 325.102 372.91 313.995C372.91 302.888 363.894 293.884 352.774 293.884C341.653 293.884 332.637 302.888 332.637 313.995C332.637 325.102 341.653 334.106 352.774 334.106Z" fill="#4D878D"/>
<path d="M422.079 334.106C433.2 334.106 442.216 325.102 442.216 313.995C442.216 302.888 433.2 293.884 422.079 293.884C410.959 293.884 401.943 302.888 401.943 313.995C401.943 325.102 410.959 334.106 422.079 334.106Z" fill="#4D878D"/>
<path d="M556.102 209.948C556.102 209.948 556.492 209.886 557.288 209.87C558.069 209.839 559.255 209.948 560.769 210.26C562.299 210.541 564.157 211.195 566.186 212.287C568.199 213.409 570.369 215.077 572.242 217.494C574.115 219.895 575.676 223.059 576.223 226.801C576.426 227.721 576.394 228.703 576.472 229.685C576.472 230.636 576.488 231.618 576.504 232.616C576.519 234.611 576.535 236.685 576.566 238.852C576.629 247.489 576.707 257.435 576.785 268.597C576.894 290.906 577.034 318.033 577.19 349.259C577.222 357.069 577.253 365.129 577.284 373.423C577.284 377.57 577.315 381.795 577.331 386.067C577.331 388.202 577.331 390.354 577.347 392.521C577.347 393.596 577.347 394.688 577.347 395.779C577.3 396.948 577.269 398.133 577.05 399.302C576.316 403.979 573.913 408.454 570.244 411.681C566.623 414.923 561.8 416.981 556.789 417.075C547.533 417.106 538.042 417.137 528.349 417.184L530.034 415.656C528.192 435.627 526.257 456.704 524.228 478.608L523.915 482.022L521.262 479.839C497.27 460.087 471.608 438.978 444.916 417.012L446.165 417.464C397.167 417.496 344.344 417.511 289.727 417.542C279.799 417.542 269.95 417.542 260.147 417.542C257.696 417.542 255.246 417.542 252.811 417.542C251.562 417.542 250.422 417.574 249.096 417.511C247.753 417.48 246.426 417.309 245.1 417.044C239.824 415.952 235.094 412.756 232.003 408.422C230.458 406.255 229.318 403.808 228.663 401.251C227.96 398.726 227.914 395.888 227.96 393.612C227.96 388.826 227.96 384.055 227.96 379.301C227.96 369.791 227.96 360.375 227.976 351.036C228.023 313.667 228.054 277.608 228.101 243.279C228.101 238.992 228.101 234.72 228.116 230.48C228.116 228.329 228.273 225.881 228.975 223.714C229.631 221.5 230.614 219.411 231.894 217.509C234.516 213.768 238.263 210.821 242.555 209.387C244.694 208.67 246.926 208.202 249.158 208.202C251.296 208.155 253.279 208.202 255.324 208.202C271.604 208.233 287.417 208.265 302.714 208.311C333.293 208.405 361.78 208.483 387.77 208.561C439.765 208.826 481.848 209.06 510.944 209.2C525.476 209.371 536.762 209.496 544.426 209.574C548.251 209.668 551.17 209.73 553.136 209.777C555.103 209.839 556.102 209.917 556.102 209.979C556.102 210.042 555.103 210.12 553.136 210.182C551.17 210.229 548.251 210.291 544.426 210.385C536.762 210.478 525.476 210.603 510.944 210.759C481.848 210.915 439.781 211.133 387.77 211.398C361.765 211.476 333.293 211.554 302.714 211.648C287.432 211.679 271.62 211.71 255.324 211.757C253.31 211.757 251.203 211.757 249.236 211.788C247.363 211.788 245.521 212.209 243.741 212.801C240.183 214.002 237.076 216.48 234.907 219.583C232.768 222.763 231.675 226.473 231.8 230.48C231.8 234.72 231.8 238.977 231.816 243.279C231.847 277.624 231.894 313.667 231.941 351.036C231.941 360.375 231.941 369.806 231.956 379.301C231.956 384.055 231.956 388.826 231.956 393.612C231.925 396.106 231.972 398.117 232.534 400.253C233.065 402.342 234.001 404.322 235.266 406.084C237.779 409.607 241.634 412.211 245.911 413.084C246.988 413.286 248.065 413.442 249.158 413.458C250.266 413.505 251.562 413.458 252.764 413.489C255.199 413.489 257.65 413.489 260.1 413.489C269.903 413.489 279.768 413.489 289.68 413.489C344.298 413.52 397.12 413.536 446.118 413.567H446.82L447.367 414.019C473.996 436.063 499.596 457.25 523.541 477.064L520.575 478.296C522.682 456.408 524.712 435.33 526.632 415.375L526.772 413.848H528.302C537.964 413.863 547.408 413.879 556.633 413.894C560.894 413.832 565 412.102 568.09 409.373C571.228 406.645 573.304 402.841 573.959 398.85C574.162 397.852 574.178 396.839 574.24 395.841C574.24 394.75 574.24 393.659 574.24 392.583C574.24 390.416 574.24 388.265 574.256 386.129C574.256 381.857 574.287 377.648 574.303 373.486C574.334 365.176 574.365 357.116 574.396 349.321C574.553 318.095 574.677 290.969 574.802 268.66C574.88 257.513 574.958 247.567 575.021 238.914C575.036 236.747 575.068 234.674 575.083 232.678C575.083 231.68 575.099 230.698 575.114 229.747C575.052 228.828 575.114 227.908 574.943 227.035C574.506 223.511 573.116 220.487 571.399 218.164C569.682 215.826 567.669 214.142 565.764 213.004C563.844 211.881 562.096 211.164 560.613 210.806C557.679 210.057 556.055 210.135 556.071 209.995L556.102 209.948Z" fill="#4D878D"/>
<path d="M426.965 310.035H122.924C111.381 310.035 102.023 319.381 102.023 330.91V494.712C102.023 506.241 111.381 515.587 122.924 515.587H426.965C438.509 515.587 447.866 506.241 447.866 494.712V330.91C447.866 319.381 438.509 310.035 426.965 310.035Z" fill="#E9A727"/>
<path d="M312.423 509.024L394.185 581.532L400.897 510.302" fill="#E9A727"/>
<path d="M209.822 435.829C220.943 435.829 229.958 426.825 229.958 415.718C229.958 404.612 220.943 395.608 209.822 395.608C198.701 395.608 189.686 404.612 189.686 415.718C189.686 426.825 198.701 435.829 209.822 435.829Z" fill="white"/>
<path d="M279.144 435.829C290.265 435.829 299.28 426.825 299.28 415.718C299.28 404.612 290.265 395.608 279.144 395.608C268.023 395.608 259.008 404.612 259.008 415.718C259.008 426.825 268.023 435.829 279.144 435.829Z" fill="white"/>
<path d="M348.45 435.829C359.571 435.829 368.586 426.825 368.586 415.718C368.586 404.612 359.571 395.608 348.45 395.608C337.329 395.608 328.313 404.612 328.313 415.718C328.313 426.825 337.329 435.829 348.45 435.829Z" fill="white"/>
<g opacity="0.3">
<path d="M434.988 310.924L402.474 309.973L151.131 310.035C172.016 330.769 201.877 341.885 231.223 344.442C260.569 346.999 290.039 342.54 319.057 337.52C348.075 332.5 377.218 326.888 406.673 327.106C412.885 327.153 419.317 327.418 425.092 325.126C430.868 322.819 435.831 317.097 434.988 310.939V310.924Z" fill="black"/>
</g>
<path d="M491.385 334.106C502.506 334.106 511.522 325.102 511.522 313.995C511.522 302.888 502.506 293.884 491.385 293.884C480.264 293.884 471.249 302.888 471.249 313.995C471.249 325.102 480.264 334.106 491.385 334.106Z" fill="#4D878D"/>
<path d="M317.871 18.3024C301.699 18.1933 286.168 29.8233 281.735 45.3508C279.456 53.3483 279.893 61.8604 278.441 70.0606C276.99 78.2453 272.838 86.8509 265.048 89.7974C259.975 91.7149 254.169 90.9198 249.127 92.9309C244.444 94.8017 240.838 99.1513 239.886 104.093C238.934 109.035 240.651 114.414 244.303 117.89C238.2 123.16 236.514 132.856 240.479 139.856C244.444 146.872 253.638 150.426 261.302 147.916C258.414 152.5 259.367 158.86 262.754 163.101C266.141 167.341 271.526 169.617 276.927 170.241C282.328 170.849 287.776 169.96 293.067 168.791C304.884 166.172 316.763 161.963 325.66 153.762C335.416 144.752 340.583 131.874 344.5 119.184C351.977 94.942 355.958 68.829 349.839 44.2127" fill="#263238"/>
<path d="M263.456 153.435L250.313 182.167L221.514 118.732C220.156 113.603 218.641 107.819 218.329 106.665C217.845 104.904 217.705 103.064 217.845 101.24C218.017 99.0265 218.376 96.0956 219.063 94.5522C219.921 92.6347 218.001 90.6859 216.347 91.6213C214.692 92.5567 212.21 97.7637 212.288 104.514C212.366 111.249 189.155 95.2693 185.378 99.0577L188.187 121.351C190.732 123.674 197.912 130.081 201.908 133.62L229.069 201.124C231.613 208.062 237.326 213.362 244.428 215.42C254.746 218.382 265.751 213.908 271.042 204.57L288.541 173.749L263.472 153.435H263.456Z" fill="#FFBE9D"/>
<path d="M202.439 78.6194C202.892 78.4479 203.391 78.713 203.563 79.2274L218.501 123.503C218.782 124.329 218.47 125.264 217.799 125.654L200.051 135.6C199.317 136.006 198.443 135.616 198.115 134.743L181.319 88.8308C180.992 87.9266 181.382 86.8976 182.178 86.5702L202.439 78.5882V78.6194Z" fill="#263238"/>
<path d="M202.923 81.8153L216.659 121.336L199.098 130.674L184.004 89.3296L202.923 81.8153Z" fill="#F5F5F5"/>
<path d="M187.36 92.0111C187.891 93.3518 188.765 95.5344 189.311 96.8907C189.577 97.5611 190.342 97.8729 190.997 97.5922L200.316 93.6792L203.547 94.1469L202.642 92.432L203.703 92.0111C204.374 91.7461 204.687 90.9822 204.406 90.3118L202.501 85.8687C202.22 85.2295 201.487 84.9177 200.831 85.1827L188.063 90.3274C187.407 90.5924 187.095 91.3407 187.345 91.9955L187.36 92.0111Z" fill="#E0E0E0"/>
<path d="M195.337 115.349C195.867 116.69 196.741 118.872 197.288 120.229C197.553 120.899 198.318 121.211 198.974 120.93L208.292 117.017L211.524 117.485L210.618 115.77L211.68 115.349C212.351 115.084 212.663 114.32 212.382 113.65L210.478 109.207C210.197 108.568 209.463 108.256 208.808 108.521L196.039 113.665C195.383 113.93 195.071 114.679 195.321 115.334L195.337 115.349Z" fill="#E0E0E0"/>
<path d="M206.138 97.5299C206.731 98.855 207.668 101.006 208.261 102.347C208.542 103.002 208.246 103.766 207.574 104.046L198.24 107.944L196.32 110.579L195.727 108.739L194.681 109.191C194.025 109.487 193.245 109.175 192.98 108.505L191.153 104.031C190.888 103.392 191.184 102.643 191.824 102.363L204.452 96.8751C205.108 96.5945 205.857 96.8751 206.138 97.5299Z" fill="#E0E0E0"/>
<path d="M185.362 100.165C188.39 100.663 192.074 100.96 195.102 101.459C195.961 101.599 196.851 101.755 197.553 102.269C198.24 102.784 198.661 103.797 198.24 104.545C197.756 105.403 196.57 105.481 195.586 105.45C193.37 105.372 190.904 105.839 188.687 105.777C191.528 106.026 194.15 106.26 197.319 106.634C198.63 106.79 199.973 107.897 199.988 109.207C200.004 110.345 198.911 111.249 197.787 111.42C196.663 111.592 194.291 111.467 194.291 111.467C194.291 111.467 189.717 111.53 189.53 112.122C192.386 112.106 196.148 112.714 198.989 112.964C199.77 113.026 200.129 114.102 200.316 114.85C200.503 115.614 200.207 116.534 199.489 116.846C199.145 117.002 198.739 116.986 198.365 116.97C194.681 116.861 192.745 117.095 189.062 116.97" fill="#FFBE9D"/>
<path d="M253.872 202.637C253.607 202.605 254.668 197.788 253.513 191.957C252.436 186.111 249.657 182.027 249.892 181.902C249.97 181.855 250.766 182.791 251.718 184.521C252.67 186.252 253.732 188.824 254.309 191.802C254.871 194.779 254.855 197.554 254.606 199.519C254.356 201.483 253.966 202.652 253.888 202.637H253.872Z" fill="#EB996E"/>
<path d="M199.645 113.4C199.614 113.619 196.726 113.463 193.198 113.057C191.434 112.886 189.811 112.527 188.734 112.527C187.626 112.527 187.142 113.089 187.048 113.011C187.017 112.979 187.064 112.792 187.329 112.543C187.579 112.293 188.078 112.044 188.703 111.966C189.967 111.81 191.528 112.091 193.307 112.262C196.851 112.668 199.692 113.198 199.66 113.416L199.645 113.4Z" fill="#EB996E"/>
<path d="M198.63 106.931C198.599 107.149 195.742 107.008 192.246 106.603C190.498 106.447 188.89 106.057 187.844 106.104C186.767 106.135 186.299 106.743 186.189 106.65C186.08 106.65 186.47 105.746 187.766 105.527C188.375 105.403 189.124 105.465 189.858 105.527C190.685 105.605 191.481 105.699 192.324 105.777C195.821 106.182 198.63 106.697 198.599 106.915L198.63 106.931Z" fill="#EB996E"/>
<path d="M287.698 240.473C287.698 240.473 192.699 233.317 165.21 254.8C137.722 276.283 150.865 310.892 150.865 310.892H306.211L312.189 239.335L287.698 240.489V240.473Z" fill="#263238"/>
<path d="M305.57 289.768C305.57 289.768 305.087 289.768 304.181 289.659C303.276 289.566 301.934 289.425 300.232 289.191C296.798 288.755 291.85 288.053 285.747 287.024C273.556 284.982 256.791 281.459 238.668 276.143C229.615 273.461 221.045 270.764 213.131 268.8C205.202 266.882 197.943 265.651 191.778 265.401C185.628 265.136 180.633 265.588 177.245 266.243C175.528 266.461 174.248 266.882 173.358 267.038C172.469 267.225 172 267.319 171.985 267.288C171.985 267.256 172.438 267.116 173.312 266.867C174.201 266.664 175.466 266.181 177.183 265.916C180.57 265.152 185.596 264.622 191.793 264.809C198.006 264.98 205.327 266.165 213.303 268.052C221.264 269.969 229.865 272.666 238.903 275.332C256.994 280.633 273.696 284.234 285.856 286.416C291.928 287.523 296.876 288.318 300.295 288.833C301.949 289.098 303.26 289.3 304.228 289.441C305.133 289.581 305.602 289.675 305.586 289.706L305.57 289.768Z" fill="#455A64"/>
<path d="M215.91 268.395C215.723 268.582 212.507 265.074 207.372 262.424C202.267 259.727 197.553 259.072 197.6 258.807C197.6 258.713 198.802 258.744 200.691 259.134C202.579 259.524 205.139 260.335 207.746 261.691C210.353 263.063 212.476 264.7 213.865 266.025C215.254 267.35 215.972 268.317 215.894 268.379L215.91 268.395Z" fill="#455A64"/>
<path d="M356.473 231.54C356.473 231.54 269.575 233.894 242.087 255.377C214.599 276.86 227.742 311.469 227.742 311.469L390.705 313.995V293.011L369.569 290.719L369.413 289.768C377.624 280.804 371.38 249.562 357.722 233.068L356.457 231.54H356.473Z" fill="#263238"/>
<path d="M380.855 292.075C380.855 292.075 380.371 292.075 379.466 291.966C378.56 291.873 377.218 291.732 375.516 291.499C372.082 291.062 367.134 290.361 361.031 289.332C348.84 287.289 332.075 283.766 313.953 278.45C304.899 275.768 296.33 273.071 288.416 271.107C280.486 269.19 273.228 267.958 267.062 267.709C260.912 267.444 255.917 267.896 252.53 268.55C250.813 268.769 249.533 269.19 248.643 269.345C247.753 269.533 247.285 269.626 247.269 269.595C247.269 269.564 247.722 269.423 248.596 269.174C249.486 268.971 250.75 268.488 252.467 268.223C255.854 267.459 260.881 266.929 267.078 267.116C273.29 267.288 280.611 268.472 288.587 270.359C296.548 272.276 305.149 274.973 314.187 277.639C332.278 282.94 348.98 286.541 361.14 288.724C367.212 289.831 372.16 290.626 375.579 291.14C377.234 291.405 378.545 291.608 379.513 291.748C380.418 291.888 380.886 291.982 380.871 292.013L380.855 292.075Z" fill="#455A64"/>
<path d="M291.194 270.686C291.007 270.873 287.791 267.366 282.656 264.715C277.552 262.018 272.838 261.363 272.884 261.098C272.884 261.005 274.086 261.036 275.975 261.426C277.864 261.816 280.424 262.626 283.031 263.983C285.637 265.354 287.76 266.991 289.149 268.317C290.539 269.642 291.257 270.608 291.179 270.671L291.194 270.686Z" fill="#455A64"/>
<path d="M311.533 235.157C311.533 235.157 311.065 235.266 310.191 235.375C309.239 235.516 307.943 235.687 306.335 235.921C302.979 236.42 298.156 237.23 292.209 238.431C286.277 239.616 279.222 241.143 271.433 242.999C263.69 244.885 255.293 247.8 247.441 252.586C243.507 254.972 239.948 257.747 236.983 260.88C234.001 264.014 231.629 267.49 229.771 270.982C226.072 278.029 224.714 285.263 224.698 291.265C224.636 297.298 225.775 302.115 226.758 305.327C227.258 306.933 227.726 308.164 228.054 308.99C228.382 309.817 228.554 310.253 228.522 310.269C228.491 310.269 228.288 309.863 227.898 309.053C227.523 308.242 227.008 307.026 226.462 305.42C225.385 302.209 224.152 297.376 224.12 291.265C224.058 285.2 225.369 277.826 229.1 270.639C230.973 267.069 233.377 263.531 236.405 260.335C239.418 257.123 243.039 254.301 247.02 251.885C254.98 247.036 263.456 244.121 271.261 242.266C279.066 240.442 286.137 238.977 292.1 237.854C298.062 236.732 302.917 236.014 306.289 235.609C307.974 235.406 309.286 235.282 310.175 235.219C311.065 235.157 311.533 235.126 311.533 235.157Z" fill="#455A64"/>
<path d="M390.704 294.04L405.58 293.104L415.414 298.826L434.286 300.884C443.324 301.351 444.76 311.064 439.203 311.064C434.786 311.064 408.359 312.779 408.359 312.779L390.689 313.246V294.04H390.704Z" fill="#E0E0E0"/>
<path d="M414.852 298.857C414.899 298.935 414.103 299.527 412.573 299.917C411.059 300.322 408.78 300.432 406.486 299.543C404.207 298.654 402.583 297.033 401.74 295.723C400.882 294.398 400.679 293.432 400.757 293.401C400.882 293.354 401.272 294.227 402.193 295.381C403.114 296.534 404.675 297.968 406.767 298.779C408.874 299.59 410.981 299.59 412.448 299.34C413.916 299.106 414.79 298.717 414.852 298.841V298.857Z" fill="#455A64"/>
<path d="M438.454 310.877C438.469 310.97 437.704 311.157 436.627 310.612C435.55 310.097 434.52 308.663 434.13 306.979C433.662 305.311 433.896 303.581 434.52 302.583C435.113 301.57 435.831 301.258 435.878 301.351C435.956 301.445 435.426 301.897 435.035 302.848C434.614 303.783 434.505 305.233 434.926 306.777C435.301 308.336 436.081 309.552 436.924 310.129C437.751 310.721 438.454 310.752 438.438 310.892L438.454 310.877Z" fill="#455A64"/>
<path d="M292.115 113.432C292.115 113.432 273.587 154.105 274.679 161.012C275.772 167.918 281.126 195.465 281.126 195.465L285.044 240.302C285.044 240.302 355.021 231.821 356.473 231.821C357.925 231.821 354.288 194.733 354.288 194.733L364.949 123.456C364.949 123.456 360.063 113.743 338.023 110.392C324.786 108.365 292.115 113.447 292.115 113.447V113.432Z" fill="#CE0000"/>
<path d="M343.205 168.245C344.048 174.248 345.64 181.356 349.808 188.949C351.135 191.381 352.399 194.764 354.615 196.432C358.081 199.035 363.06 196.572 366.213 193.594C369.366 190.617 372.519 186.844 376.859 186.688C379.622 186.595 382.166 188.029 384.867 188.59C387.567 189.151 391.063 188.294 391.703 185.612C392.062 184.069 391.329 182.51 390.626 181.091C383.883 167.45 379.06 154.558 375.516 139.763C374.814 136.801 371.536 130.736 370.038 128.102C368.539 125.467 364.449 121.647 360.469 118.436" fill="#CE0000"/>
<path d="M305.258 110.734C286.012 111.42 271.573 124.126 267.452 133.293C262.629 144.05 258.883 157.052 253.232 167.404C252.124 169.43 250.797 171.41 250.313 173.686C249.829 175.947 250.438 178.659 252.436 179.829C255.339 181.544 259.538 179.314 262.223 181.356C263.69 182.479 264.127 184.521 265.392 185.877C266.937 187.546 269.403 187.889 271.667 188.138C276.006 188.606 280.346 189.073 284.669 189.541" fill="#CE0000"/>
<path d="M338.944 150.426C338.944 150.426 338.6 149.912 338.194 148.883C337.788 147.854 337.32 146.31 337.039 144.346C336.446 140.464 336.867 134.649 340.021 129.364C343.189 124.079 348.106 120.961 351.821 119.652C353.694 118.966 355.271 118.639 356.364 118.514C357.456 118.389 358.081 118.389 358.081 118.436C358.112 118.607 355.63 118.701 352.024 120.182C348.45 121.601 343.767 124.703 340.707 129.785C337.679 134.883 337.164 140.464 337.601 144.284C338.023 148.15 339.1 150.379 338.944 150.426Z" fill="#263238"/>
<path d="M285.981 134.493C285.981 134.493 285.668 135.242 284.982 136.52C284.623 137.159 284.217 137.939 283.78 138.874C283.343 139.81 282.796 140.838 282.312 142.039C281.267 144.409 280.221 147.308 279.269 150.582C278.363 153.872 277.583 157.551 277.13 161.464C276.709 165.377 276.646 169.15 276.787 172.564C276.99 175.978 277.349 179.034 277.848 181.575C278.035 182.853 278.348 183.991 278.566 184.989C278.769 186.002 279.003 186.844 279.206 187.546C279.596 188.949 279.784 189.728 279.721 189.744C279.659 189.759 279.378 189.011 278.894 187.639C278.644 186.953 278.363 186.111 278.113 185.098C277.848 184.1 277.505 182.962 277.271 181.684C276.693 179.143 276.272 176.056 276.022 172.595C275.835 169.15 275.881 165.33 276.303 161.37C276.771 157.41 277.583 153.684 278.535 150.364C279.534 147.059 280.642 144.144 281.782 141.789C282.297 140.589 282.89 139.56 283.358 138.64C283.827 137.72 284.295 136.957 284.685 136.333C285.466 135.101 285.903 134.431 285.949 134.462L285.981 134.493Z" fill="#263238"/>
<path d="M390.564 180.109C390.564 180.109 390.533 180.281 390.408 180.561C390.252 180.826 390.002 181.247 389.518 181.622C388.582 182.401 386.771 182.978 384.617 182.713C382.431 182.463 380.168 181.216 377.53 180.702C374.876 180.109 371.957 181.325 369.522 183.29C367.072 185.238 365.074 187.624 362.717 189.229C361.562 190.024 360.328 190.695 359.064 190.96C357.815 191.225 356.629 191.24 355.568 191.163C353.429 191.007 351.743 190.399 350.76 189.713C350.26 189.37 349.933 189.027 349.745 188.777C349.574 188.512 349.495 188.372 349.511 188.356C349.574 188.31 349.917 188.886 350.916 189.448C351.899 190.009 353.538 190.523 355.599 190.586C356.629 190.617 357.753 190.555 358.924 190.289C360.063 190.024 361.203 189.385 362.295 188.606C364.527 187.047 366.479 184.677 369.023 182.635C370.303 181.622 371.692 180.764 373.175 180.265C374.658 179.735 376.25 179.657 377.655 179.953C380.465 180.561 382.65 181.855 384.679 182.136C386.693 182.448 388.394 181.996 389.3 181.357C390.236 180.702 390.47 180.047 390.548 180.094L390.564 180.109Z" fill="#FAFAFA"/>
<path d="M386.084 170.989C386.084 170.989 386.084 171.145 385.99 171.426C385.881 171.691 385.647 172.096 385.21 172.47C384.367 173.234 382.65 173.827 380.652 173.421C378.67 173.078 376.593 171.784 374.127 171.66C371.645 171.535 368.96 172.595 366.557 174.216C364.122 175.838 362.03 177.786 359.86 179.236C357.722 180.733 355.443 181.668 353.46 181.887C351.462 182.136 349.823 181.777 348.824 181.294C347.81 180.811 347.388 180.343 347.419 180.328C347.466 180.265 347.95 180.639 348.949 181.013C349.948 181.388 351.509 181.653 353.382 181.341C355.271 181.06 357.378 180.125 359.439 178.644C361.53 177.194 363.591 175.245 366.104 173.562C368.601 171.893 371.458 170.755 374.174 170.942C375.532 171.005 376.75 171.457 377.811 171.862C378.888 172.283 379.856 172.673 380.777 172.891C382.603 173.328 384.195 172.876 385.023 172.252C385.866 171.628 386.022 170.974 386.1 171.02L386.084 170.989Z" fill="#FAFAFA"/>
<path d="M276.74 182.853C276.74 182.853 276.443 183.258 275.616 183.446C274.804 183.633 273.478 183.492 272.276 182.541C271.058 181.622 270.2 180.016 269.372 178.348C268.529 176.726 267.421 174.871 265.407 174.372C263.409 173.858 261.365 174.372 259.507 174.684C257.65 175.011 255.792 175.089 254.387 174.45C252.998 173.842 252.186 172.829 251.905 172.034C251.609 171.239 251.765 170.755 251.796 170.771C251.874 170.771 251.843 171.223 252.202 171.909C252.53 172.579 253.326 173.437 254.606 173.92C255.87 174.419 257.556 174.31 259.382 173.951C261.193 173.624 263.331 173.016 265.626 173.593C266.765 173.889 267.764 174.59 268.451 175.417C269.154 176.243 269.638 177.147 270.059 178.005C270.871 179.704 271.62 181.201 272.666 182.089C273.696 182.978 274.867 183.196 275.6 183.118C276.365 183.04 276.74 182.76 276.771 182.838L276.74 182.853Z" fill="#FAFAFA"/>
<path d="M274.367 173.686C274.367 173.686 274.039 173.858 273.431 173.686C272.838 173.515 272.088 172.938 271.495 172.034C270.902 171.176 270.434 169.96 269.388 169.321C268.358 168.651 266.844 168.791 265.314 169.04C263.768 169.321 262.129 169.383 260.756 169.025C259.367 168.698 258.211 168.121 257.337 167.497C255.589 166.25 254.996 165.018 255.058 164.987C255.168 164.894 255.917 165.969 257.65 167.014C259.351 168.09 262.114 168.916 265.189 168.23C266.719 167.996 268.451 167.793 269.794 168.682C271.089 169.586 271.464 170.896 271.979 171.738C272.463 172.595 273.056 173.156 273.556 173.39C274.039 173.639 274.367 173.624 274.383 173.686H274.367Z" fill="#FAFAFA"/>
<path d="M347.716 181.715C347.716 181.715 346.733 181.528 344.969 181.107C343.205 180.702 340.645 180.094 337.476 179.517C335.884 179.221 334.136 178.924 332.263 178.706C330.39 178.504 328.345 178.27 326.269 178.472C324.193 178.691 322.101 179.486 320.04 180.515C317.98 181.544 315.904 182.806 313.656 183.898C311.408 184.989 309.02 185.815 306.616 185.94C304.228 186.08 301.933 185.69 299.842 185.192C295.643 184.147 292.021 182.822 288.822 182.51C285.637 182.12 283.015 182.557 281.36 183.212C279.706 183.882 278.941 184.568 278.878 184.49C278.863 184.474 279.05 184.303 279.425 183.991C279.799 183.695 280.408 183.305 281.235 182.915C282.906 182.152 285.606 181.606 288.884 181.933C292.178 182.167 295.893 183.477 300.014 184.459C302.074 184.927 304.291 185.285 306.569 185.145C308.848 185.02 311.112 184.241 313.313 183.165C315.514 182.089 317.59 180.842 319.697 179.797C321.804 178.769 323.99 177.927 326.206 177.724C328.407 177.537 330.452 177.802 332.356 178.036C334.261 178.285 336.009 178.628 337.601 178.956C340.785 179.61 343.33 180.296 345.078 180.811C345.952 181.06 346.623 181.279 347.076 181.434C347.529 181.59 347.763 181.684 347.747 181.715H347.716Z" fill="#FAFAFA"/>
<path d="M349.324 189.541C349.324 189.541 348.387 189.167 346.733 188.465C345.062 187.779 342.659 186.782 339.584 185.846C338.054 185.379 336.337 184.927 334.495 184.708C332.653 184.521 330.671 184.771 328.688 185.457C324.708 186.813 320.93 189.744 316.263 191.568C313.922 192.488 311.44 192.846 309.083 192.815C306.726 192.784 304.478 192.456 302.371 192.082C298.156 191.287 294.425 190.461 291.225 190.367C288.026 190.211 285.45 190.71 283.78 191.318C282.094 191.926 281.267 192.503 281.22 192.425C281.22 192.394 281.407 192.254 281.797 191.989C282.188 191.724 282.812 191.365 283.655 191.022C285.325 190.305 287.963 189.713 291.241 189.791C294.503 189.822 298.328 190.601 302.511 191.35C306.663 192.051 311.455 192.612 315.998 190.804C320.509 189.042 324.333 186.127 328.47 184.739C330.53 184.054 332.653 183.788 334.588 184.022C336.508 184.287 338.225 184.786 339.771 185.285C342.846 186.298 345.25 187.374 346.873 188.154C347.685 188.543 348.309 188.871 348.731 189.105C349.136 189.338 349.355 189.479 349.339 189.51L349.324 189.541Z" fill="#FAFAFA"/>
<path d="M328.47 186.766C328.47 186.766 328.079 186.891 327.33 186.953C326.596 187.031 325.519 187.016 324.208 186.875C322.881 186.751 321.336 186.376 319.681 185.8C318.042 185.176 316.294 184.334 314.624 183.181C312.969 182.011 311.549 180.671 310.394 179.345C309.27 177.989 308.396 176.664 307.803 175.479C307.21 174.294 306.819 173.297 306.632 172.579C306.445 171.862 306.351 171.473 306.413 171.457C306.554 171.41 307.022 172.969 308.302 175.199C308.927 176.321 309.832 177.568 310.94 178.847C312.08 180.094 313.453 181.372 315.061 182.495C316.684 183.601 318.355 184.443 319.931 185.082C321.523 185.675 323.006 186.08 324.271 186.283C326.815 186.704 328.438 186.595 328.438 186.751L328.47 186.766Z" fill="#263238"/>
<g opacity="0.3">
<path d="M306.492 173.141C307.553 178.94 309.769 184.724 314.015 188.84C318.245 192.94 324.77 195.029 330.28 192.877C331.435 192.425 332.637 191.661 332.903 190.461C333.215 189.058 332.107 187.686 330.78 187.125C329.453 186.563 327.97 186.61 326.55 186.532C318.386 186.08 310.612 181.06 306.866 173.811" fill="black"/>
</g>
<path d="M352.258 196.276C352.258 196.276 351.962 195.761 351.587 194.779C351.197 193.797 350.682 192.363 350.057 190.586C348.809 187.031 347.185 182.074 345.578 176.555C343.97 171.036 342.659 165.985 341.784 162.321C341.347 160.482 341.02 159.001 340.817 157.956C340.614 156.927 340.52 156.35 340.583 156.335C340.645 156.319 340.832 156.88 341.129 157.878C341.472 159.063 341.863 160.497 342.346 162.165C343.361 165.798 344.75 170.802 346.358 176.321C347.966 181.84 349.496 186.797 350.604 190.399C351.103 192.067 351.54 193.485 351.899 194.67C352.196 195.684 352.336 196.245 352.274 196.276H352.258Z" fill="#263238"/>
<path d="M281.797 240.91C281.797 240.91 295.3 226.473 307.085 223.636C318.87 220.799 361.171 205.895 361.171 205.895L358.502 197.492C361.187 197.32 363.685 195.839 365.604 193.937L368.336 191.209C372.051 187.156 376.531 184.926 383.025 187.171L387.114 188.387L391.391 200.828C395.59 213.222 387.458 226.364 374.486 228.142L281.813 240.894L281.797 240.91Z" fill="#FFBE9D"/>
<path d="M378.701 207.688C378.592 207.921 375.001 206.097 370.162 205.614C365.324 205.084 361.437 206.129 361.374 205.864C361.281 205.692 365.214 204.242 370.24 204.803C375.267 205.302 378.826 207.532 378.701 207.688Z" fill="#EB996E"/>
<path d="M283.827 43.5891C282.609 24.0551 308.24 10.2581 325.66 15.1689C342.034 19.7835 349.012 27.9214 351.712 38.8654C354.412 49.8095 354.272 61.6578 349.979 72.0874C347.857 77.232 344.048 82.4546 338.522 83.0938" fill="#263238"/>
<path d="M336.103 31.5538C338.975 31.85 341.144 34.3132 341.082 37.1973L337.929 112.262C337.804 121.133 324.848 126.137 315.342 125.935C305.742 125.732 305.43 121.039 305.29 112.605C305.055 98.5121 305.055 93.2271 305.055 93.3051C305.055 93.3051 292.927 91.294 290.414 75.4859C289.165 67.6286 289.555 54.7514 290.226 44.2127C290.82 34.7341 297.11 23.1041 306.569 24.1018L336.103 31.5538Z" fill="#FFBE9D"/>
<path d="M294.332 54.4396C294.3 55.5153 295.175 56.4195 296.283 56.4819C297.391 56.5443 298.343 55.718 298.375 54.6579C298.406 53.5822 297.532 52.678 296.423 52.6156C295.299 52.5533 294.363 53.3795 294.332 54.4396Z" fill="#263238"/>
<path d="M293.02 50.9163C293.27 51.1813 294.816 50.0433 296.985 50.0433C299.171 50.0121 300.763 51.1345 301.013 50.8695C301.122 50.7448 300.872 50.2771 300.17 49.7626C299.483 49.2638 298.312 48.7649 296.954 48.7649C295.596 48.7649 294.457 49.2794 293.785 49.7782C293.114 50.2927 292.88 50.776 293.005 50.8851L293.02 50.9163Z" fill="#263238"/>
<path d="M315.685 54.4396C315.654 55.5153 316.528 56.4195 317.637 56.4819C318.745 56.5443 319.697 55.718 319.728 54.6579C319.759 53.5822 318.885 52.678 317.777 52.6156C316.653 52.5533 315.717 53.3795 315.685 54.4396Z" fill="#263238"/>
<path d="M314.483 51.3217C314.733 51.5867 316.279 50.4487 318.464 50.4487C320.649 50.4175 322.241 51.5399 322.491 51.2749C322.6 51.1502 322.351 50.6825 321.648 50.168C320.961 49.6692 319.791 49.1703 318.433 49.1703C317.075 49.1703 315.935 49.6847 315.264 50.1836C314.593 50.6981 314.359 51.1814 314.483 51.2905V51.3217Z" fill="#263238"/>
<path d="M306.57 67.4883C306.57 67.3636 305.227 67.1298 303.026 66.8491C302.464 66.7868 301.934 66.6776 301.84 66.3035C301.715 65.8982 301.949 65.3057 302.214 64.651C302.745 63.3102 303.292 61.8916 303.869 60.4105C306.164 54.3773 307.818 49.4041 307.569 49.3262C307.319 49.2326 305.274 54.0499 302.979 60.0987C302.433 61.5798 301.902 62.9985 301.403 64.3704C301.184 65.0095 300.825 65.7267 301.106 66.5529C301.262 66.9739 301.668 67.2701 302.027 67.3636C302.386 67.4727 302.698 67.4727 302.979 67.4883C305.196 67.613 306.57 67.613 306.57 67.4883Z" fill="#263238"/>
<path d="M305.055 93.3051C305.055 93.3051 315.701 93.9911 326.237 87.6616C326.237 87.6616 321.102 98.5121 305.258 97.0311L305.04 93.3051H305.055Z" fill="#EB996E"/>
<path d="M307.49 72.7421C308.271 71.6976 309.645 71.1363 311.018 71.2766C311.97 71.3858 312.923 71.8379 313.5 72.6018C314.078 73.3657 314.203 74.4726 313.672 75.2053C313.079 76.0315 311.845 76.2186 310.815 75.9224C309.769 75.6262 308.88 74.9403 308.021 74.2543C307.787 74.0672 307.553 73.8646 307.397 73.6151C307.256 73.3501 307.225 73.0227 307.397 72.8044" fill="#EB996E"/>
<path d="M312.985 69.0005C312.626 68.9849 312.626 71.339 310.597 73.0227C308.567 74.7064 306.039 74.4414 306.023 74.7687C305.992 74.9246 306.585 75.2209 307.647 75.252C308.692 75.2832 310.222 74.9558 311.455 73.9269C312.688 72.898 313.219 71.5261 313.313 70.5439C313.406 69.5617 313.141 68.9693 312.969 68.9849L312.985 69.0005Z" fill="#263238"/>
<path d="M313.5 47.5022C313.719 48.0946 315.888 47.814 318.464 48.1258C321.039 48.3752 323.1 49.1391 323.443 48.5935C323.599 48.344 323.24 47.7828 322.397 47.206C321.57 46.6292 320.243 46.0835 318.714 45.912C317.168 45.7405 315.763 45.99 314.842 46.3641C313.906 46.7383 313.422 47.206 313.516 47.4866L313.5 47.5022Z" fill="#263238"/>
<path d="M293.832 44.6024C294.222 45.1013 295.721 44.5868 297.532 44.5557C299.342 44.4621 300.872 44.883 301.231 44.3686C301.387 44.1191 301.137 43.6203 300.482 43.1526C299.826 42.6849 298.718 42.3107 297.469 42.3419C296.22 42.3887 295.143 42.8252 294.519 43.3397C293.879 43.8541 293.676 44.353 293.832 44.6024Z" fill="#263238"/>
<path d="M314.452 18.8325C308.692 19.0196 304.306 20.7812 299.249 23.5406C294.191 26.3 289.961 30.8679 288.4 36.4178C288.072 37.6027 287.885 38.9434 288.525 39.9723C289.383 41.3442 291.397 41.5781 292.864 40.9077C294.332 40.2373 295.393 38.9278 296.392 37.665C297.141 40.5647 300.014 42.7629 303.011 42.7317C306.008 42.7005 308.833 40.4244 309.52 37.5091C309.551 40.5491 312.579 43.0435 315.623 42.9344C318.651 42.8253 321.352 40.4868 322.351 37.6182C322.913 40.3153 323.521 43.1059 325.129 45.3352C326.753 47.5646 329.671 49.108 332.294 48.2505C331.919 50.6046 331.56 53.0834 332.403 55.3127C333.246 57.542 337.117 105.917 339.381 105.138C341.566 104.389 341.02 55.2348 341.535 52.9742C342.518 48.6247 343.377 44.1972 343.236 39.7385C343.096 35.2798 341.909 30.7431 339.162 27.2198C336.321 23.5718 332.029 21.2645 327.564 20.0797C323.1 18.8949 318.417 18.7701 313.797 18.8325" fill="#263238"/>
<path d="M259.398 81.4257C259.398 81.4257 259.21 81.1295 258.773 80.693C258.336 80.2564 257.556 79.6952 256.385 79.4769C255.246 79.2743 253.669 79.3834 252.342 80.3812C251.015 81.3633 250.235 83.3276 250.516 85.4011C250.656 86.43 251.047 87.4745 251.702 88.3943C252.389 89.283 253.326 90.0469 254.45 90.5457C256.682 91.5747 259.523 91.5902 262.083 90.499C264.658 89.4233 266.953 87.4122 268.81 84.9802C270.668 82.5326 272.119 79.6484 273.134 76.5461C275.194 70.3101 275.756 63.9807 276.631 58.3215C277.458 52.6313 278.785 47.549 280.627 43.5736C282.422 39.567 284.81 36.8232 286.652 35.233C287.604 34.4691 288.369 33.9079 288.931 33.5961C289.477 33.2687 289.774 33.1128 289.789 33.1284C289.852 33.2219 288.65 33.8455 286.855 35.4669C285.107 37.1038 282.843 39.8476 281.142 43.8074C279.393 47.7516 278.16 52.7716 277.364 58.4307C276.537 64.0742 276.006 70.4348 273.899 76.8111C272.869 79.9914 271.37 82.9535 269.435 85.479C267.515 87.989 265.111 90.078 262.364 91.2161C259.632 92.3697 256.557 92.323 254.153 91.1849C252.951 90.6393 251.921 89.7974 251.187 88.7841C250.454 87.7707 250.063 86.6171 249.923 85.4946C249.657 83.2497 250.547 81.0983 252.046 80.0538C253.544 78.9937 255.23 78.9469 256.416 79.2119C257.649 79.4925 258.446 80.1317 258.867 80.615C259.288 81.1139 259.382 81.4569 259.382 81.4569L259.398 81.4257Z" fill="#263238"/>
<path d="M343.299 107.32C343.252 107.242 344.22 106.837 345.749 105.761C347.279 104.701 349.293 102.862 351.119 100.087C352.93 97.3117 354.475 93.5858 355.131 89.2518C355.802 84.9178 355.474 80.0382 354.522 75.0495C353.554 70.0451 352.118 65.3994 350.885 61.1433C349.636 56.8873 348.59 53.0055 347.966 49.7004C347.341 46.3954 347.092 43.6671 347.06 41.7808C347.06 40.8454 347.06 40.1127 347.092 39.6138C347.123 39.1149 347.154 38.8655 347.17 38.8655C347.248 38.8655 347.232 39.91 347.373 41.7652C347.498 43.636 347.825 46.3174 348.528 49.5913C349.215 52.8651 350.307 56.7002 351.587 60.9251C352.867 65.1655 354.319 69.8425 355.302 74.8936C356.27 79.9447 356.567 84.9178 355.849 89.3609C355.131 93.804 353.492 97.5924 351.587 100.399C349.667 103.205 347.529 105.029 345.921 106.026C345.109 106.525 344.469 106.868 344.001 107.055C343.548 107.258 343.299 107.352 343.299 107.32Z" fill="#263238"/>
<path d="M346.124 97.187C346.124 97.187 345.937 97.3117 345.562 97.452C345.187 97.6079 344.61 97.7638 343.829 97.8729C342.3 98.0756 339.943 97.8885 337.476 96.5478C334.994 95.2538 332.622 92.6191 331.357 89.1582C330.031 85.7128 329.75 81.5971 330.124 77.4346C330.499 73.2566 331.264 69.3747 331.607 65.8046C331.982 62.2346 332.153 59.0075 332.216 56.2948C332.278 53.5822 332.247 51.384 332.216 49.8562C332.185 48.3284 332.169 47.4866 332.216 47.4866C332.263 47.4866 332.388 48.3128 332.512 49.8406C332.637 51.3684 332.762 53.5666 332.778 56.2948C332.778 59.023 332.684 62.2813 332.341 65.8826C332.029 69.4838 331.295 73.3969 330.92 77.497C330.546 81.5971 330.795 85.5725 332.044 88.8932C333.23 92.2294 335.416 94.7394 337.742 96.0489C340.067 97.3896 342.3 97.6547 343.782 97.5611C345.281 97.4364 346.077 97.0934 346.093 97.1714L346.124 97.187Z" fill="#263238"/>
<path d="M244.038 111.42C244.038 111.42 243.976 110.89 244.272 109.924C244.569 108.973 245.334 107.632 246.879 106.478C248.377 105.325 250.641 104.405 253.326 104.234C256.011 103.984 259.054 104.374 262.348 104.156C265.642 103.891 269.169 102.784 272.478 100.726C275.756 98.6368 278.832 95.7215 281.251 92.0735C283.702 88.4566 285.434 84.1227 286.449 79.4613C287.479 74.8 287.807 69.8268 287.698 64.7601C287.62 59.6778 286.995 54.7358 286.683 49.9186C286.371 45.1169 286.418 40.362 287.557 36.0125C288.665 31.6629 291.023 27.859 294.051 25.2399C297.048 22.574 300.544 20.9994 303.869 20.3135C307.209 19.6431 310.347 19.9082 312.938 20.5785C315.545 21.2645 317.637 22.2934 319.213 23.3379C320.79 24.3668 321.882 25.3646 322.554 26.0817C322.913 26.4247 323.131 26.7365 323.303 26.9236C323.459 27.1107 323.537 27.2198 323.537 27.2354C323.459 27.3289 322.195 25.5984 319.041 23.6185C317.465 22.6364 315.389 21.6698 312.829 21.0462C310.285 20.4226 307.225 20.22 303.994 20.9059C300.778 21.5919 297.391 23.1664 294.503 25.7699C291.584 28.3267 289.352 31.9903 288.291 36.2151C287.198 40.44 287.167 45.1169 287.479 49.8874C287.791 54.6735 288.431 59.631 288.509 64.7601C288.619 69.8736 288.291 74.9091 287.229 79.664C286.184 84.3877 284.404 88.8308 281.875 92.5256C279.393 96.2516 276.209 99.2136 272.837 101.334C269.435 103.423 265.782 104.53 262.395 104.764C259.008 104.951 255.995 104.514 253.357 104.717C250.719 104.842 248.549 105.683 247.051 106.759C245.537 107.819 244.756 109.098 244.413 110.002C244.069 110.922 244.069 111.452 244.022 111.436L244.038 111.42Z" fill="#455A64"/>
<path d="M322.288 15.5118C322.335 15.4338 323.053 15.7924 323.896 16.7434C324.723 17.6788 325.629 19.2845 325.785 21.2489C325.956 23.2132 325.348 24.9436 324.676 26.0038C324.005 27.0795 323.365 27.5471 323.303 27.4848C323.209 27.4068 323.677 26.8144 324.161 25.7387C324.661 24.6786 325.114 23.0885 324.957 21.3112C324.801 19.5496 324.083 18.0529 323.412 17.0864C322.741 16.1198 322.179 15.6053 322.257 15.5118H322.288Z" fill="#455A64"/>
<path d="M353.46 55.9518C353.46 55.9518 353.273 55.2659 353.039 54.0343C352.805 52.8027 352.461 51.0098 351.993 48.8117C351.525 46.6135 350.932 44.01 350.151 41.1415C349.761 39.7072 349.324 38.2262 348.777 36.714C348.247 35.1862 347.56 33.7363 346.514 32.3956C344.516 29.683 341.878 27.6719 339.178 26.6118C336.462 25.5361 333.746 25.4581 331.591 25.879C329.406 26.2844 327.783 27.1418 326.753 27.8278C325.722 28.5293 325.223 29.0282 325.176 28.9658C325.16 28.9502 325.27 28.8099 325.488 28.5605C325.707 28.311 326.066 27.9681 326.565 27.5783C327.564 26.7988 329.203 25.8167 331.467 25.3334C333.699 24.8189 336.571 24.8345 339.443 25.9258C342.3 27.0015 345.094 29.1061 347.17 31.9279C348.231 33.3154 348.996 34.9211 349.527 36.4645C350.073 38.0079 350.494 39.5201 350.869 40.97C351.603 43.8697 352.149 46.5044 352.555 48.7181C352.961 50.9319 353.211 52.7559 353.351 54.0031C353.491 55.2503 353.507 55.9674 353.46 55.9674V55.9518Z" fill="#455A64"/>
<path d="M323.912 28.0929C323.896 28.2176 321.929 27.859 318.917 26.8925C317.402 26.4404 315.607 25.8635 313.578 25.5829C311.549 25.2867 309.27 25.4582 307.069 26.3C304.868 27.1263 303.026 28.4982 301.715 30.0572C300.404 31.6162 299.608 33.3155 299.171 34.7965C298.296 37.7897 298.671 39.8008 298.499 39.8008C298.453 39.8008 298.312 39.3331 298.25 38.4289C298.187 37.5403 298.218 36.2152 298.609 34.6406C298.999 33.0816 299.764 31.2576 301.122 29.5739C302.48 27.8902 304.431 26.4092 306.757 25.5361C309.083 24.6475 311.549 24.4916 313.656 24.8346C315.779 25.162 317.574 25.8168 319.073 26.3312C322.038 27.4381 323.912 27.9837 323.896 28.0773L323.912 28.0929Z" fill="#455A64"/>
<path d="M638.161 556.713C639.55 551.927 642.5 547.312 647.074 545.332C651.835 543.29 657.345 544.444 662.215 546.221C667.085 547.983 671.877 550.352 677.044 550.68C682.211 550.991 688.064 548.544 689.61 543.602C691.061 538.956 688.267 533.998 684.755 530.631C677.372 523.538 666.289 520.529 656.33 522.914C646.372 525.299 637.864 533.001 634.508 542.666" fill="#263238"/>
<path d="M597.171 577.463C589.584 570.26 589.959 557.726 593.752 547.967C597.545 538.208 605.803 530.725 615.028 525.798C632.916 516.242 655.285 515.509 673.766 523.896C664.681 524.192 655.909 529.337 651.226 537.116C647.058 544.023 646.137 552.394 642.703 559.675C638.879 567.797 631.855 574.345 623.488 577.619C615.121 580.893 605.506 580.83 597.171 577.447" fill="#4D878D"/>
<path d="M593.518 534.201C585.12 524.286 583.996 508.384 585.229 495.46C586.463 482.536 589.46 469.519 587.43 456.704C586.228 449.112 583.263 441.847 582.279 434.224C581.28 426.6 582.701 417.963 588.617 413.053C595.422 407.393 606.13 408.734 613.202 414.035C620.273 419.351 624.378 427.691 627.375 436.016C633.962 454.303 636.366 474.57 630.965 493.231C625.564 511.892 612.874 528.573 594.252 534.201" fill="#4D878D"/>
<path d="M589.475 615.486C589.475 615.486 589.428 615.097 589.428 614.348C589.428 613.6 589.428 612.493 589.475 611.075C589.569 608.237 589.85 604.121 590.474 599.07C591.114 594.019 592.113 588.033 593.69 581.485C595.251 574.922 597.936 567.922 601.713 561.125C605.522 554.312 610.158 548.435 614.841 543.602C619.539 538.753 624.362 534.996 628.608 532.174C630.715 530.725 632.745 529.633 634.493 528.604C636.288 527.669 637.849 526.905 639.144 526.281C640.393 525.751 641.408 525.346 642.173 525.019C642.875 524.738 643.234 524.598 643.25 524.629C643.25 524.66 642.906 524.847 642.235 525.175C641.486 525.533 640.502 525.985 639.285 526.562C638.021 527.217 636.491 528.028 634.727 528.994C633.01 530.039 631.012 531.177 628.936 532.642C624.753 535.495 620.023 539.268 615.387 544.101C610.766 548.933 606.193 554.764 602.431 561.499C594.704 574.984 592.581 589.171 591.036 599.117C590.334 604.137 589.975 608.237 589.787 611.059C589.709 612.415 589.631 613.491 589.584 614.317C589.538 615.066 589.491 615.455 589.46 615.455L589.475 615.486Z" fill="#263238"/>
<path d="M517.001 495.117C501.454 504.487 501.5 513.015 504.092 521.059C506.683 529.103 516.236 534.7 524.15 531.691C528.63 529.992 531.861 526.11 534.624 522.197C537.386 518.3 539.993 514.121 543.864 511.315C547.736 508.509 553.371 507.449 557.257 510.224" fill="#263238"/>
<path d="M505.356 505.391C509.414 499.779 519.467 498.157 525.804 500.948C532.142 503.754 536.793 509.304 540.945 514.839C545.097 520.373 549.156 526.235 554.916 530.085C560.676 533.936 568.715 535.339 574.459 531.457C578.236 528.901 580.422 524.473 581.093 519.968C581.764 515.462 581.124 510.879 580.188 506.42C578.814 499.904 576.582 493.106 571.353 488.959C565.53 484.345 557.46 484.127 550.046 484.376C541.523 484.657 532.891 485.296 524.899 488.242C516.907 491.189 508.743 497.565 505.356 505.36" fill="#4D878D"/>
<path d="M576.551 603.061C576.551 603.061 576.488 602.594 576.441 601.721C576.41 600.77 576.363 599.476 576.301 597.87C576.192 594.44 576.051 589.623 575.879 583.699C575.692 577.712 575.442 570.588 575.005 562.699C574.553 554.795 573.975 546.112 572.773 537.085C572.164 532.58 571.446 528.168 570.198 524.083C568.933 519.999 567.263 516.195 565.437 512.703C561.8 505.703 557.242 500.137 552.887 496.084C548.485 492.062 544.27 489.599 541.273 488.149C539.775 487.4 538.573 486.933 537.745 486.621C536.934 486.294 536.497 486.106 536.512 486.091C536.528 486.075 536.965 486.2 537.808 486.481C538.651 486.746 539.884 487.167 541.414 487.884C544.473 489.24 548.781 491.657 553.292 495.679C557.757 499.716 562.408 505.313 566.123 512.375C567.981 515.899 569.698 519.718 570.978 523.865C572.258 528.028 572.976 532.455 573.6 536.992C574.802 546.065 575.364 554.764 575.77 562.684C576.16 570.603 576.348 577.728 576.472 583.714C576.582 589.701 576.629 594.549 576.644 597.901C576.644 599.523 576.644 600.801 576.644 601.752C576.644 602.64 576.613 603.093 576.582 603.093L576.551 603.061Z" fill="#263238"/>
<path d="M582.154 610.077C582.154 610.077 581.265 607.769 580.422 603.404C579.61 599.055 578.986 592.585 579.688 584.665C580.344 576.746 582.373 567.439 585.604 557.461C588.788 547.468 593.128 536.773 596.827 525.299C598.669 519.547 600.214 513.872 601.292 508.291C602.369 502.71 603.055 497.269 603.492 492.062C604.367 481.648 604.242 472.2 604.008 464.312C603.742 456.408 603.336 450.016 603.071 445.589C602.946 443.422 602.853 441.722 602.774 440.491C602.759 439.945 602.728 439.508 602.712 439.165C602.712 438.869 602.712 438.713 602.712 438.713C602.712 438.713 602.743 438.869 602.79 439.165C602.821 439.508 602.868 439.945 602.931 440.491C603.04 441.707 603.18 443.406 603.368 445.573C603.727 449.985 604.226 456.377 604.554 464.296C604.882 472.216 605.053 481.679 604.226 492.14C603.805 497.362 603.133 502.85 602.056 508.462C600.995 514.075 599.434 519.796 597.592 525.564C593.877 537.085 589.522 547.764 586.306 557.711C583.044 567.641 580.984 576.87 580.25 584.728C579.485 592.601 580 599.008 580.718 603.358C581.093 605.54 581.436 607.208 581.749 608.346C581.873 608.876 581.983 609.297 582.061 609.64C582.123 609.936 582.154 610.077 582.139 610.092L582.154 610.077Z" fill="#263238"/>
<path d="M620.694 617.092H547.689L546.018 603.061H620.694V617.092Z" fill="#263238"/>
<path d="M555.525 615.486L564.656 657.595H604.32L612.874 615.486H555.525Z" fill="#263238"/>
<path d="M620.694 617.092C620.694 617.311 604.648 617.451 584.839 617.404C565.031 617.342 548.984 617.123 548.984 616.905C548.984 616.687 565.031 616.547 584.839 616.593C604.632 616.656 620.678 616.874 620.678 617.092H620.694Z" fill="#455A64"/>
<path d="M608.175 637.874C608.066 638.029 606.006 635.925 601.729 634.226C599.606 633.384 596.936 632.745 593.924 632.667C590.911 632.573 587.649 633.29 584.324 634.428C580.999 635.551 577.893 636.86 574.849 637.577C571.805 638.232 568.964 638.185 566.654 637.811C564.344 637.437 562.549 636.751 561.394 636.128C560.832 635.8 560.395 635.535 560.129 635.317C559.864 635.114 559.724 634.989 559.739 634.958C559.802 634.818 562.143 636.689 566.732 637.234C568.996 637.515 571.758 637.515 574.677 636.845C577.596 636.112 580.703 634.787 584.059 633.649C587.399 632.495 590.818 631.762 593.924 631.903C597.03 632.012 599.777 632.745 601.931 633.664C604.101 634.569 605.662 635.66 606.692 636.455C607.208 636.86 607.582 637.203 607.816 637.437C608.066 637.671 608.175 637.811 608.16 637.827L608.175 637.874Z" fill="#455A64"/>
<path d="M607.613 640.68C607.504 640.836 605.522 638.793 601.416 637.079C599.387 636.237 596.796 635.598 593.893 635.535C590.989 635.457 587.821 636.112 584.621 637.203C581.405 638.279 578.392 639.526 575.505 640.29C572.617 641.07 569.901 641.35 567.622 641.163C565.343 641.007 563.579 640.352 562.471 639.76C561.924 639.448 561.503 639.183 561.253 638.98C560.988 638.778 560.863 638.653 560.879 638.638C560.926 638.575 561.487 638.981 562.611 639.479C563.735 639.963 565.468 640.508 567.669 640.586C569.87 640.695 572.508 640.368 575.302 639.573C578.111 638.778 581.109 637.515 584.371 636.439C587.618 635.332 590.911 634.662 593.924 634.787C596.936 634.88 599.59 635.613 601.651 636.548C603.727 637.453 605.225 638.544 606.208 639.323C606.692 639.713 607.051 640.056 607.286 640.29C607.52 640.524 607.629 640.649 607.613 640.68Z" fill="white"/>
<path d="M608.893 635.083C608.8 635.223 606.646 633.088 602.275 631.232C600.105 630.313 597.374 629.502 594.267 629.33C591.161 629.112 587.789 629.907 584.371 631.076C580.937 632.23 577.737 633.618 574.568 634.272C571.399 634.849 568.48 634.662 566.108 634.272C563.735 633.851 561.878 633.165 560.676 632.542C560.083 632.215 559.63 631.949 559.365 631.716C559.084 631.497 558.943 631.373 558.959 631.357C559.006 631.295 559.614 631.716 560.816 632.261C562.018 632.791 563.86 633.384 566.201 633.711C568.527 634.023 571.384 634.132 574.428 633.54C577.44 632.885 580.656 631.482 584.121 630.313C587.571 629.128 591.099 628.317 594.33 628.582C597.545 628.816 600.324 629.705 602.509 630.718C604.71 631.716 606.318 632.838 607.379 633.664C607.91 634.085 608.3 634.428 608.55 634.678C608.8 634.927 608.925 635.067 608.909 635.083H608.893Z" fill="white"/>
<path d="M98.5581 590.278C95.4049 594.768 89.3017 593.287 86.4607 590.543C83.6198 587.799 82.4335 583.824 81.3408 580.051C78.8433 571.398 76.3302 562.325 78.1877 553.501C78.7497 550.867 79.7331 548.232 81.575 546.283C83.4325 544.334 86.2734 543.165 88.8802 543.851C91.9709 544.662 93.8752 547.686 95.2645 550.555C99.3385 558.989 101.493 568.343 101.524 577.712C101.524 582.093 101.024 586.676 98.5581 590.278Z" fill="#CE0000"/>
<path d="M98.5581 590.278C95.4049 594.768 89.3017 593.287 86.4607 590.543C83.6198 587.799 82.4335 583.824 81.3408 580.051C78.8433 571.398 76.3302 562.325 78.1877 553.501C78.7497 550.867 79.7331 548.232 81.575 546.283C83.4325 544.334 86.2734 543.165 88.8802 543.851C91.9709 544.662 93.8752 547.686 95.2645 550.555C99.3385 558.989 101.493 568.343 101.524 577.712C101.524 582.093 101.024 586.676 98.5581 590.278Z" fill="#558C21"/>
<path d="M86.7573 613.008C81.6062 610.357 75.5497 610.015 69.8367 610.95C66.7616 611.464 63.5617 612.369 61.4856 614.676C59.3939 616.983 59.0037 621.036 61.392 623.016C62.8124 624.201 64.8104 624.373 66.6679 624.357C71.1479 624.31 76.1117 623.515 79.6706 626.212C81.7155 627.74 83.0735 630.297 85.5085 631.045C87.8968 631.778 90.5816 630.375 91.846 628.223C93.1104 626.072 93.1572 623.391 92.564 620.959C92.564 620.959 91.9396 615.674 86.7573 613.008Z" fill="#558C21"/>
<path d="M107.19 596.716C103.772 592.663 103.132 586.754 104.646 581.688C106.16 576.621 109.594 572.303 113.559 568.779C118.195 564.648 123.658 561.437 129.527 559.379C131.837 558.568 134.272 557.929 136.708 558.163C139.143 558.397 141.593 559.644 142.733 561.811C144.419 565.007 142.795 568.889 141.063 572.053C137.988 577.634 134.491 582.966 130.573 588.002C127.436 592.055 123.83 596.046 119.038 597.87C114.246 599.694 109.266 599.491 106.737 596.171" fill="#558C21"/>
<path d="M98.761 658C98.761 658 98.6049 657.283 98.48 655.958C98.3395 654.477 98.1522 652.606 97.9337 650.392C97.6683 648.054 97.3249 645.263 96.6849 642.223C96.0293 639.199 95.0147 635.909 93.7191 632.588C92.3611 629.283 90.7221 626.275 88.7865 623.874C86.8666 621.457 84.65 619.711 82.5584 618.698C80.4667 617.669 78.6092 617.248 77.3136 617.061C76.018 616.921 75.2844 616.827 75.2844 616.765C75.2844 616.702 76.018 616.702 77.3604 616.734C78.6872 616.827 80.6384 617.155 82.8237 618.152C85.0247 619.134 87.3817 620.896 89.3953 623.375C91.4245 625.822 93.126 628.909 94.4996 632.277C95.8264 635.66 96.8254 638.98 97.4498 642.067C98.0742 645.154 98.3551 647.976 98.5424 650.33C98.7141 652.699 98.7922 654.601 98.8234 655.926C98.8546 657.252 98.8234 657.984 98.7766 657.984L98.761 658Z" fill="#263238"/>
<path d="M98.3863 653.713C98.3863 653.713 98.3395 653.385 98.3239 652.762C98.3239 652.045 98.3239 651.156 98.3239 650.049C98.3239 647.695 98.3239 644.296 98.199 640.103C97.9961 631.7 97.2625 620.117 95.8732 607.38C94.4684 594.643 92.5952 583.169 90.8938 574.953C90.488 572.895 90.0821 571.04 89.7075 569.418C89.3485 567.797 89.0363 566.394 88.7397 565.256C88.4899 564.18 88.2714 563.323 88.0997 562.621C87.9592 562.013 87.9124 561.702 87.928 561.686C87.9592 561.686 88.0685 561.982 88.2558 562.574C88.4587 563.26 88.7241 564.118 89.0363 565.162C89.3797 566.285 89.7387 567.688 90.1445 569.309C90.566 570.931 91.0187 572.77 91.4557 574.828C93.3133 583.044 95.2801 594.518 96.6849 607.286C98.0898 620.054 98.7141 631.669 98.7766 640.087C98.8234 644.296 98.7297 647.695 98.6361 650.049C98.5736 651.156 98.5112 652.045 98.4644 652.762C98.4176 653.385 98.3707 653.697 98.3551 653.697L98.3863 653.713Z" fill="#263238"/>
<path d="M98.3239 631.295C98.3239 631.295 98.2771 630.281 98.3395 628.473C98.4488 626.649 98.6986 624.03 99.2137 620.818C99.76 617.607 100.509 613.803 101.711 609.656C102.851 605.493 104.396 601.019 106.378 596.451C110.25 587.269 115.526 579.755 120.099 575.109C121.176 573.877 122.378 572.989 123.33 572.116C123.83 571.695 124.267 571.274 124.704 570.946C125.157 570.635 125.562 570.354 125.953 570.089C127.467 569.06 128.31 568.514 128.341 568.561C128.481 568.748 124.969 570.806 120.521 575.53C116.103 580.238 110.983 587.69 107.143 596.794C105.176 601.315 103.616 605.758 102.445 609.874C101.212 613.974 100.4 617.747 99.7912 620.927C99.2137 624.108 98.8703 626.711 98.6673 628.52C98.4956 630.328 98.3708 631.326 98.3239 631.326V631.295Z" fill="#263238"/>
</g>
<defs>
<clipPath id="clip0_107_3783">
<rect width="690" height="658" fill="white"/>
</clipPath>
</defs>
</svg>
