<svg width="70" height="69" viewBox="0 0 70 69" fill="none" xmlns="http://www.w3.org/2000/svg">
<path d="M35.2451 69C54.2989 69 69.7451 53.5538 69.7451 34.5C69.7451 15.4462 54.2989 0 35.2451 0C16.1913 0 0.745117 15.4462 0.745117 34.5C0.745117 53.5538 16.1913 69 35.2451 69Z" fill="#F7F6F5"/>
<path d="M26.7147 8.22381C19.9374 10.5443 14.1669 15.6145 10.9623 22.0187C9.84805 24.2267 9.03538 26.5829 8.54471 29.0056C7.31293 35.0469 8.1716 41.4818 10.9572 46.9814C12.7665 50.5694 15.3629 53.7638 18.5114 56.2631C21.4809 58.6296 24.9412 60.3827 28.6161 61.3589C33.2467 62.6009 38.1789 62.5754 42.8403 61.5123C47.0518 60.5411 51.0385 58.5274 54.2227 55.5885C57.5858 52.4963 59.988 48.4227 61.2556 44.0476C62.6407 39.2738 62.8349 34.1729 61.966 29.2867C53.2465 29.2867 44.5218 29.2867 35.8023 29.2867C35.8023 32.9054 35.8023 36.5189 35.8023 40.1376C40.8521 40.1376 45.9018 40.1376 50.9516 40.1376C50.3638 43.6029 48.3041 46.7718 45.3856 48.7243C43.5507 49.9612 41.4398 50.7585 39.2625 51.1418C37.0749 51.5149 34.8107 51.5609 32.6283 51.1214C30.4101 50.6767 28.2889 49.7516 26.4387 48.4483C23.4794 46.3731 21.2254 43.332 20.0652 39.9127C18.8794 36.432 18.8692 32.5629 20.0703 29.0874C20.9034 26.6391 22.2885 24.3749 24.1081 22.5349C26.3518 20.24 29.2703 18.5943 32.4136 17.9247C35.1021 17.3523 37.9438 17.4596 40.576 18.2569C42.8147 18.9367 44.8796 20.1634 46.5714 21.7785C48.2785 20.0765 49.9805 18.3694 51.6876 16.6674C52.582 15.7525 53.5225 14.8734 54.3914 13.9329C51.8 11.5358 48.764 9.60892 45.4418 8.38737C39.4669 6.18959 32.7305 6.14359 26.7147 8.22381Z" fill="white"/>
<path d="M26.7148 8.22375C32.7306 6.14353 39.4671 6.18953 45.4419 8.38731C48.7591 9.60375 51.8002 11.5358 54.3915 13.9329C53.5226 14.8733 52.5822 15.7524 51.6877 16.6673C49.9806 18.3693 48.2786 20.0815 46.5715 21.7784C44.8797 20.1633 42.8148 18.9366 40.5762 18.2569C37.9439 17.4595 35.1022 17.3522 32.4137 17.9246C29.2704 18.5993 26.3519 20.24 24.1082 22.5349C22.2886 24.3749 20.9035 26.6391 20.0704 29.0873C17.0344 26.7311 13.9984 24.3749 10.9573 22.0186C14.1568 15.6093 19.9273 10.5442 26.7097 8.22375H26.7148Z" fill="#C94639"/>
<path d="M8.54448 29.0055C9.03515 26.5828 9.84782 24.2266 10.962 22.0186C13.998 24.3748 17.0391 26.731 20.0751 29.0873C18.874 32.5628 18.8843 36.437 20.07 39.9126C17.034 42.2688 13.998 44.6301 10.962 46.9813C8.17648 41.4817 7.31782 35.0417 8.54959 29.0055H8.54448Z" fill="#E7B932"/>
<path d="M35.8022 29.2917C44.5218 29.2917 53.2465 29.2917 61.966 29.2917C62.8349 34.1779 62.6458 39.2788 61.2556 44.0526C59.9829 48.4277 57.5858 52.5013 54.2227 55.5935C51.2838 53.2986 48.3296 51.0242 45.3907 48.7293C48.3142 46.7768 50.374 43.6079 50.9567 40.1426C45.9069 40.1426 40.8571 40.1426 35.8073 40.1426C35.8022 36.5239 35.8073 32.9104 35.8073 29.2917H35.8022Z" fill="#627CB9"/>
<path d="M10.9624 46.9863C14.0035 44.6352 17.0344 42.2739 20.0704 39.9177C21.2306 43.337 23.4846 46.3781 26.444 48.4532C28.2942 49.7566 30.4153 50.6817 32.6335 51.1263C34.8159 51.5659 37.0802 51.5199 39.2677 51.1468C41.4451 50.7634 43.5508 49.9661 45.3908 48.7292C48.3297 51.0241 51.284 53.3037 54.2228 55.5934C51.0386 58.5323 47.0519 60.5461 42.8404 61.5172C38.1791 62.5803 33.2468 62.6059 28.6162 61.3639C24.9464 60.3877 21.4862 58.6397 18.5115 56.2681C15.3631 53.7637 12.7666 50.5743 10.9573 46.9863H10.9624Z" fill="#66A457"/>
</svg>
