<svg width="148" height="39" viewBox="0 0 148 39" fill="none" xmlns="http://www.w3.org/2000/svg">
<path d="M118.978 38.9463H120.513C121.316 38.9463 121.941 38.8748 122.405 38.7495C122.851 38.6243 123.226 38.3739 123.53 37.9982L131.954 24.9385L140.218 37.9445C140.664 38.6064 141.646 38.9463 143.181 38.9463H144.877C146.947 38.9463 148 38.6064 148 37.9445C148 37.6046 147.857 37.1931 147.554 36.6743L136.113 18.6413L146.679 2.27202C147.001 1.75321 147.179 1.32385 147.179 1.00184C147.179 0.339909 146.144 0 144.056 0H142.521C141.717 0 141.075 0.0715607 140.611 0.19679C140.129 0.322019 139.79 0.572475 139.576 0.948163L132.133 12.344L125.011 1.00184C124.565 0.339909 123.583 0 122.048 0H120.299C118.229 0 117.176 0.339909 117.176 1.00184C117.176 1.34174 117.336 1.75321 117.675 2.27202L128.01 18.6413L116.355 36.6743C116.033 37.2289 115.855 37.6583 115.855 37.9445C115.855 38.6243 116.908 38.9463 118.978 38.9463ZM91.6701 32.6491V6.31514H97.7921C100.969 6.31514 103.432 7.40642 105.199 9.60688C106.966 11.8073 107.859 15.0991 107.859 19.4821C107.859 23.8651 106.966 27.1569 105.199 29.3573C103.432 31.5578 100.951 32.6491 97.7921 32.6491H91.6701ZM86.4762 38.839H97.9706C103.397 38.839 107.645 37.211 110.697 33.9729C113.749 30.7349 115.266 25.9046 115.266 19.4821C115.266 13.0596 113.749 8.22936 110.697 4.99128C107.645 1.75321 103.414 0.125232 97.9706 0.125232H86.4762C85.7801 0.125232 85.2803 0.286236 84.9412 0.590365C84.6199 0.912383 84.4414 1.43119 84.4414 2.16468V36.7995C84.4414 37.4973 84.6021 38.0161 84.9412 38.356C85.2803 38.678 85.7801 38.839 86.4762 38.839ZM57.4723 38.9463H58.8466C59.864 38.9463 60.6136 38.8211 61.0599 38.5528C61.5061 38.3023 61.7381 37.8908 61.7381 37.3362V22.1298H74.8925C75.4101 22.1298 75.7849 21.9509 76.0169 21.5752C76.249 21.1995 76.3739 20.5913 76.3739 19.7505V18.3193C76.3739 17.4784 76.249 16.8702 76.0169 16.4945C75.7849 16.1188 75.4101 15.9399 74.8925 15.9399H61.7381V6.31514H77.8553C78.3729 6.31514 78.7477 6.13624 78.9798 5.76055C79.2118 5.38486 79.3367 4.77661 79.3367 3.93578V2.50459C79.3367 1.66376 79.2118 1.0555 78.9798 0.679814C78.7477 0.304126 78.3729 0.125232 77.8553 0.125232H56.5977C55.9016 0.125232 55.4019 0.286236 55.0627 0.590365C54.7415 0.912383 54.563 1.43119 54.563 2.16468V37.3541C54.5808 38.4096 55.5447 38.9463 57.4723 38.9463Z" fill="#ACE0F5"/>
<path d="M45.1034 21.5394C45.1034 21.128 44.8892 20.7702 44.5322 20.5555L42.4796 19.3748L44.5322 18.194C44.8892 17.9972 45.1034 17.6216 45.1034 17.2101C45.1034 16.7986 44.8892 16.4408 44.5322 16.2261L42.7831 15.2064L44.5322 14.2225C44.8892 14.0257 45.1034 13.65 45.1034 13.2385C45.1034 12.8271 44.8892 12.4693 44.5322 12.2546L23.2389 0.161C23.0069 0.0357703 22.7392 0.0357703 22.5071 0.161C22.2751 0.286229 22.1323 0.536689 22.1323 0.805038V25.672C22.1323 25.9404 22.2751 26.1729 22.5071 26.3161C22.6142 26.3876 22.757 26.4234 22.882 26.4234C23.0069 26.4234 23.1318 26.3876 23.2389 26.3161L34.1265 20.1261L36.8395 21.7005L23.8279 29.2321C23.6316 29.3394 23.5602 29.5899 23.6851 29.7867C23.7565 29.9119 23.8993 29.9835 24.0421 29.9835C24.1135 29.9835 24.1849 29.9656 24.2384 29.9298L37.6427 22.1835L40.5699 23.883L23.8279 33.5794C23.6316 33.6867 23.5602 33.9371 23.6851 34.1339C23.7565 34.2592 23.8993 34.3307 24.0421 34.3307C24.1135 34.3307 24.1849 34.3128 24.2384 34.2771L41.3909 24.3482L44.1396 25.9404C44.2824 26.0298 44.3002 26.155 44.3002 26.2087C44.3002 26.2624 44.2824 26.4055 44.1396 26.4771L23.8279 38.2307C23.6316 38.3381 23.5602 38.5885 23.6851 38.7853C23.7565 38.9105 23.8993 38.9821 24.0421 38.9821C24.1135 38.9821 24.1849 38.9642 24.2384 38.9284L44.5322 27.1927C44.8892 26.9959 45.1034 26.6202 45.1034 26.2087C45.1034 25.7972 44.8892 25.4394 44.5322 25.2248L42.1941 23.883L44.5322 22.5413C44.8892 22.3266 45.1034 21.9509 45.1034 21.5394ZM44.1396 16.9238C44.2824 17.0133 44.3002 17.1385 44.3002 17.1922C44.3002 17.2459 44.2824 17.389 44.1396 17.4605L41.6765 18.8738L38.9992 17.3353L41.962 15.6537L44.1396 16.9238ZM24.2384 13.4711C24.0421 13.3638 23.7922 13.4174 23.6851 13.6142C23.5781 13.811 23.6316 14.0615 23.8279 14.1688L33.2877 19.6431L22.9355 25.5289V0.930269L44.1217 12.9523C44.2645 13.0417 44.2824 13.167 44.2824 13.2206C44.2824 13.2743 44.2645 13.4174 44.1217 13.489L41.962 14.7055L24.2384 4.47247C24.0421 4.36513 23.7922 4.4188 23.6851 4.61559C23.5781 4.81238 23.6316 5.06284 23.8279 5.17017L41.141 15.1885L38.1782 16.8702L24.2206 8.80183C24.0243 8.69449 23.7744 8.74816 23.6673 8.94495C23.5602 9.14174 23.6138 9.3922 23.8101 9.49954L37.3393 17.3353L34.0908 19.178L24.2384 13.4711ZM34.9297 19.661L38.1782 17.8183L40.8554 19.3748L37.6427 21.2353L34.9297 19.661ZM44.1396 21.8257L41.3909 23.4179L38.4637 21.7183L41.6765 19.8578L44.1396 21.2711C44.2824 21.3605 44.3002 21.4858 44.3002 21.5394C44.3002 21.5931 44.2824 21.7362 44.1396 21.8257Z" fill="#ACE0F5"/>
<path d="M0.981669 16.9238L21.2933 5.18805C21.4896 5.08071 21.561 4.83025 21.4361 4.63346C21.329 4.43667 21.0791 4.36511 20.8828 4.49034L0.57115 16.244C0.214179 16.4408 0 16.8165 0 17.228C0 17.6394 0.214179 17.9972 0.57115 18.2119L2.62373 19.3926L0.57115 20.5734C0.214179 20.7702 0 21.1458 0 21.5573C0 21.9688 0.214179 22.3266 0.57115 22.5413L2.90931 23.883L0.57115 25.2247C0.214179 25.4215 0 25.7972 0 26.2087C0 26.6202 0.214179 26.978 0.57115 27.1926L20.8828 38.9463C20.9542 38.9821 21.0256 39 21.0791 39C21.2219 39 21.3647 38.9284 21.4361 38.8032C21.5432 38.6064 21.4896 38.3559 21.2933 38.2486L0.981669 26.477C0.838881 26.3876 0.821033 26.2624 0.821033 26.2087C0.821033 26.155 0.838881 26.0119 0.981669 25.9403L3.73034 24.3481L20.8828 34.277C20.9542 34.3128 21.0256 34.3307 21.0791 34.3307C21.2219 34.3307 21.3647 34.2591 21.4361 34.1339C21.5432 33.9371 21.4896 33.6867 21.2933 33.5793L4.55137 23.883L7.47853 22.1835L20.8828 29.9477C20.9542 29.9835 21.0256 30.0013 21.0791 30.0013C21.2219 30.0013 21.3647 29.9298 21.4361 29.8046C21.5432 29.6078 21.4896 29.3573 21.2933 29.25L8.28172 21.7183L21.2933 14.1867C21.4896 14.0793 21.561 13.8289 21.4361 13.6321C21.329 13.4353 21.0791 13.3637 20.8828 13.489L7.47853 21.2353L4.2658 19.3747L21.2933 9.51741C21.4896 9.41007 21.561 9.15961 21.4361 8.96282C21.329 8.76603 21.0791 8.69447 20.8828 8.81969L3.44476 18.9096L0.981669 17.4963C0.838881 17.4068 0.821033 17.2816 0.821033 17.228C0.821033 17.1564 0.838881 17.0133 0.981669 16.9238ZM3.44476 19.8399L6.6575 21.7004L3.73034 23.4L0.981669 21.8078C0.838881 21.7183 0.821033 21.5931 0.821033 21.5394C0.821033 21.4857 0.838881 21.3426 0.981669 21.2711L3.44476 19.8399Z" fill="#ACE0F5"/>
</svg>
