<svg aria-hidden="true" version="1.1" xmlns="http://www.w3.org/2000/svg" xmlns:xlink="http://www.w3.org/1999/xlink" display="none">
	<defs>

		<symbol viewBox="0 0 148 39" id="fdx-icon-logo">
			<path d="M118.978 38.9463H120.513C121.316 38.9463 121.941 38.8748 122.405 38.7495C122.851 38.6243 123.226 38.3739 123.53 37.9982L131.954 24.9385L140.218 37.9445C140.664 38.6064 141.646 38.9463 143.181 38.9463H144.877C146.947 38.9463 148 38.6064 148 37.9445C148 37.6046 147.857 37.1931 147.554 36.6743L136.113 18.6413L146.679 2.27202C147.001 1.75321 147.179 1.32385 147.179 1.00184C147.179 0.339909 146.144 0 144.056 0H142.521C141.717 0 141.075 0.0715607 140.611 0.19679C140.129 0.322019 139.79 0.572475 139.576 0.948163L132.133 12.344L125.011 1.00184C124.565 0.339909 123.583 0 122.048 0H120.299C118.229 0 117.176 0.339909 117.176 1.00184C117.176 1.34174 117.336 1.75321 117.675 2.27202L128.01 18.6413L116.355 36.6743C116.033 37.2289 115.855 37.6583 115.855 37.9445C115.855 38.6243 116.908 38.9463 118.978 38.9463ZM91.6701 32.6491V6.31514H97.7921C100.969 6.31514 103.432 7.40642 105.199 9.60688C106.966 11.8073 107.859 15.0991 107.859 19.4821C107.859 23.8651 106.966 27.1569 105.199 29.3573C103.432 31.5578 100.951 32.6491 97.7921 32.6491H91.6701ZM86.4762 38.839H97.9706C103.397 38.839 107.645 37.211 110.697 33.9729C113.749 30.7349 115.266 25.9046 115.266 19.4821C115.266 13.0596 113.749 8.22936 110.697 4.99128C107.645 1.75321 103.414 0.125232 97.9706 0.125232H86.4762C85.7801 0.125232 85.2803 0.286236 84.9412 0.590365C84.6199 0.912383 84.4414 1.43119 84.4414 2.16468V36.7995C84.4414 37.4973 84.6021 38.0161 84.9412 38.356C85.2803 38.678 85.7801 38.839 86.4762 38.839ZM57.4723 38.9463H58.8466C59.864 38.9463 60.6136 38.8211 61.0599 38.5528C61.5061 38.3023 61.7381 37.8908 61.7381 37.3362V22.1298H74.8925C75.4101 22.1298 75.7849 21.9509 76.0169 21.5752C76.249 21.1995 76.3739 20.5913 76.3739 19.7505V18.3193C76.3739 17.4784 76.249 16.8702 76.0169 16.4945C75.7849 16.1188 75.4101 15.9399 74.8925 15.9399H61.7381V6.31514H77.8553C78.3729 6.31514 78.7477 6.13624 78.9798 5.76055C79.2118 5.38486 79.3367 4.77661 79.3367 3.93578V2.50459C79.3367 1.66376 79.2118 1.0555 78.9798 0.679814C78.7477 0.304126 78.3729 0.125232 77.8553 0.125232H56.5977C55.9016 0.125232 55.4019 0.286236 55.0627 0.590365C54.7415 0.912383 54.563 1.43119 54.563 2.16468V37.3541C54.5808 38.4096 55.5447 38.9463 57.4723 38.9463Z" fill="#ACE0F5"/>
			<path d="M45.1034 21.5394C45.1034 21.128 44.8892 20.7702 44.5322 20.5555L42.4796 19.3748L44.5322 18.194C44.8892 17.9972 45.1034 17.6216 45.1034 17.2101C45.1034 16.7986 44.8892 16.4408 44.5322 16.2261L42.7831 15.2064L44.5322 14.2225C44.8892 14.0257 45.1034 13.65 45.1034 13.2385C45.1034 12.8271 44.8892 12.4693 44.5322 12.2546L23.2389 0.161C23.0069 0.0357703 22.7392 0.0357703 22.5071 0.161C22.2751 0.286229 22.1323 0.536689 22.1323 0.805038V25.672C22.1323 25.9404 22.2751 26.1729 22.5071 26.3161C22.6142 26.3876 22.757 26.4234 22.882 26.4234C23.0069 26.4234 23.1318 26.3876 23.2389 26.3161L34.1265 20.1261L36.8395 21.7005L23.8279 29.2321C23.6316 29.3394 23.5602 29.5899 23.6851 29.7867C23.7565 29.9119 23.8993 29.9835 24.0421 29.9835C24.1135 29.9835 24.1849 29.9656 24.2384 29.9298L37.6427 22.1835L40.5699 23.883L23.8279 33.5794C23.6316 33.6867 23.5602 33.9371 23.6851 34.1339C23.7565 34.2592 23.8993 34.3307 24.0421 34.3307C24.1135 34.3307 24.1849 34.3128 24.2384 34.2771L41.3909 24.3482L44.1396 25.9404C44.2824 26.0298 44.3002 26.155 44.3002 26.2087C44.3002 26.2624 44.2824 26.4055 44.1396 26.4771L23.8279 38.2307C23.6316 38.3381 23.5602 38.5885 23.6851 38.7853C23.7565 38.9105 23.8993 38.9821 24.0421 38.9821C24.1135 38.9821 24.1849 38.9642 24.2384 38.9284L44.5322 27.1927C44.8892 26.9959 45.1034 26.6202 45.1034 26.2087C45.1034 25.7972 44.8892 25.4394 44.5322 25.2248L42.1941 23.883L44.5322 22.5413C44.8892 22.3266 45.1034 21.9509 45.1034 21.5394ZM44.1396 16.9238C44.2824 17.0133 44.3002 17.1385 44.3002 17.1922C44.3002 17.2459 44.2824 17.389 44.1396 17.4605L41.6765 18.8738L38.9992 17.3353L41.962 15.6537L44.1396 16.9238ZM24.2384 13.4711C24.0421 13.3638 23.7922 13.4174 23.6851 13.6142C23.5781 13.811 23.6316 14.0615 23.8279 14.1688L33.2877 19.6431L22.9355 25.5289V0.930269L44.1217 12.9523C44.2645 13.0417 44.2824 13.167 44.2824 13.2206C44.2824 13.2743 44.2645 13.4174 44.1217 13.489L41.962 14.7055L24.2384 4.47247C24.0421 4.36513 23.7922 4.4188 23.6851 4.61559C23.5781 4.81238 23.6316 5.06284 23.8279 5.17017L41.141 15.1885L38.1782 16.8702L24.2206 8.80183C24.0243 8.69449 23.7744 8.74816 23.6673 8.94495C23.5602 9.14174 23.6138 9.3922 23.8101 9.49954L37.3393 17.3353L34.0908 19.178L24.2384 13.4711ZM34.9297 19.661L38.1782 17.8183L40.8554 19.3748L37.6427 21.2353L34.9297 19.661ZM44.1396 21.8257L41.3909 23.4179L38.4637 21.7183L41.6765 19.8578L44.1396 21.2711C44.2824 21.3605 44.3002 21.4858 44.3002 21.5394C44.3002 21.5931 44.2824 21.7362 44.1396 21.8257Z" fill="#ACE0F5"/>
			<path d="M0.981669 16.9238L21.2933 5.18805C21.4896 5.08071 21.561 4.83025 21.4361 4.63346C21.329 4.43667 21.0791 4.36511 20.8828 4.49034L0.57115 16.244C0.214179 16.4408 0 16.8165 0 17.228C0 17.6394 0.214179 17.9972 0.57115 18.2119L2.62373 19.3926L0.57115 20.5734C0.214179 20.7702 0 21.1458 0 21.5573C0 21.9688 0.214179 22.3266 0.57115 22.5413L2.90931 23.883L0.57115 25.2247C0.214179 25.4215 0 25.7972 0 26.2087C0 26.6202 0.214179 26.978 0.57115 27.1926L20.8828 38.9463C20.9542 38.9821 21.0256 39 21.0791 39C21.2219 39 21.3647 38.9284 21.4361 38.8032C21.5432 38.6064 21.4896 38.3559 21.2933 38.2486L0.981669 26.477C0.838881 26.3876 0.821033 26.2624 0.821033 26.2087C0.821033 26.155 0.838881 26.0119 0.981669 25.9403L3.73034 24.3481L20.8828 34.277C20.9542 34.3128 21.0256 34.3307 21.0791 34.3307C21.2219 34.3307 21.3647 34.2591 21.4361 34.1339C21.5432 33.9371 21.4896 33.6867 21.2933 33.5793L4.55137 23.883L7.47853 22.1835L20.8828 29.9477C20.9542 29.9835 21.0256 30.0013 21.0791 30.0013C21.2219 30.0013 21.3647 29.9298 21.4361 29.8046C21.5432 29.6078 21.4896 29.3573 21.2933 29.25L8.28172 21.7183L21.2933 14.1867C21.4896 14.0793 21.561 13.8289 21.4361 13.6321C21.329 13.4353 21.0791 13.3637 20.8828 13.489L7.47853 21.2353L4.2658 19.3747L21.2933 9.51741C21.4896 9.41007 21.561 9.15961 21.4361 8.96282C21.329 8.76603 21.0791 8.69447 20.8828 8.81969L3.44476 18.9096L0.981669 17.4963C0.838881 17.4068 0.821033 17.2816 0.821033 17.228C0.821033 17.1564 0.838881 17.0133 0.981669 16.9238ZM3.44476 19.8399L6.6575 21.7004L3.73034 23.4L0.981669 21.8078C0.838881 21.7183 0.821033 21.5931 0.821033 21.5394C0.821033 21.4857 0.838881 21.3426 0.981669 21.2711L3.44476 19.8399Z" fill="#ACE0F5"/>
		</symbol>

		<symbol fill="currentColor" viewBox="0 0 14 14" id="fdx-icon-arrow-bottom">
			<path fill-rule="evenodd" clip-rule="evenodd" d="M7.58926 13.089C7.26382 13.4145 6.73618 13.4145 6.41074 13.089L1.20241 7.8807C0.876974 7.55526 0.876974 7.02762 1.20241 6.70218C1.52785 6.37675 2.05549 6.37675 2.38092 6.70218L7 11.3213L11.6191 6.70218C11.9445 6.37675 12.4722 6.37675 12.7976 6.70218C13.123 7.02762 13.123 7.55526 12.7976 7.88069L7.58926 13.089Z" fill="white"/>
		</symbol>

		<symbol fill="currentColor" viewBox="0 0 24 24" id="fdx-icon-arrow-right">
			<path fill-rule="evenodd" clip-rule="evenodd" d="M16.1844 11.4107C16.5099 11.7362 16.5099 12.2638 16.1844 12.5893L10.9761 17.7976C10.6507 18.123 10.123 18.123 9.79758 17.7976C9.47214 17.4722 9.47215 16.9445 9.79758 16.6191L14.4167 12L9.79758 7.38092C9.47215 7.05549 9.47214 6.52785 9.79758 6.20241C10.123 5.87697 10.6507 5.87697 10.9761 6.20241L16.1844 11.4107Z" fill="white"/>
		</symbol>

		<symbol fill="none" viewBox="0 0 28 28" id="fdx-icon-video">
			<circle cx="14" cy="14" r="13" stroke="white" stroke-opacity="0.5" stroke-width="2"/>
			<path d="M19 14L11 9V19L19 14Z" fill="white"/>
		</symbol>

		<symbol fill="none" viewBox="0 0 32 32" id="fdx-icon-cloud-storage">
			<path d="M16 8C24.8366 8 32 6.20914 32 4C32 1.79086 24.8366 0 16 0C7.16344 0 0 1.79086 0 4C0 6.20914 7.16344 8 16 8Z" fill="#43D3E0"/>
			<path d="M16 10.667C7.164 10.667 0 8.87633 0 6.66699V16.0003C0 18.2097 7.164 20.0003 16 20.0003C24.836 20.0003 32 18.2097 32 16.0003V6.66699C32 8.87633 24.836 10.667 16 10.667ZM4.66667 16.0003C3.56267 16.0003 2.66667 15.1043 2.66667 14.0003C2.66667 12.8963 3.56267 12.0003 4.66667 12.0003C5.77067 12.0003 6.66667 12.8963 6.66667 14.0003C6.66667 15.1043 5.77067 16.0003 4.66667 16.0003Z" fill="white"/>
			<path d="M16 22.667C7.164 22.667 0 20.8763 0 18.667V28.0003C0 30.2097 7.164 32.0003 16 32.0003C24.836 32.0003 32 30.2097 32 28.0003V18.667C32 20.8763 24.836 22.667 16 22.667ZM4.66667 28.0003C3.56267 28.0003 2.66667 27.1043 2.66667 26.0003C2.66667 24.8963 3.56267 24.0003 4.66667 24.0003C5.77067 24.0003 6.66667 24.8963 6.66667 26.0003C6.66667 27.1043 5.77067 28.0003 4.66667 28.0003Z" fill="white"/>
		</symbol>

		<symbol fill="none" viewBox="0 0 28 29" id="fdx-icon-access-device">
			<path fill-rule="evenodd" clip-rule="evenodd" d="M3 0C1.34315 0 0 1.34315 0 3V26C0 27.6569 1.34315 29 3 29H14C15.6569 29 17 27.6569 17 26V3C17 1.34315 15.6569 0 14 0H3ZM8.75 26.5C9.7165 26.5 10.5 25.7165 10.5 24.75C10.5 23.7835 9.7165 23 8.75 23C7.7835 23 7 23.7835 7 24.75C7 25.7165 7.7835 26.5 8.75 26.5Z" fill="white"/>
			<path d="M12.7396 17H16.1488H18.5186H22.7177C23.8818 17 27 15.5357 27 13.2143C27 10.8929 25.2538 9.60715 24.2976 9.60715C24.2976 7.64287 22.302 5 19.1422 5C16.6144 5 15.0124 6.5 14.5274 7.25001C13.9314 7.09524 12.5068 6.92858 11.5755 7.50001C10.6442 8.07143 10.3559 9.14286 10.3282 9.60715C9.91247 9.60715 8 10.9643 8 13.0714C8 16.1571 11.1597 16.9762 12.7396 17Z" fill="#43D3E0" stroke="black" stroke-width="2"/>
		</symbol>

		<symbol fill="none" viewBox="0 0 37 32" id="fdx-icon-multi-upload">
			<path d="M9.22976 28H13.8687H22.4836H28.6608C30.9278 28 37 24.5833 37 19.1667C37 13.75 33.5996 10.75 31.7374 10.75C31.7374 6.1667 27.8512 0 21.698 0C16.7755 0 13.6557 3.50001 12.7112 5.25002C11.5507 4.88891 8.77637 4.50002 6.9628 5.83335C5.14923 7.16668 4.58789 9.66668 4.53392 10.75C3.72429 10.75 0 13.9166 0 18.8333C0 26.0333 6.15317 27.9444 9.22976 28Z" fill="white"/>
			<path d="M18.761 12.3512L18 11.4586L17.239 12.3512L10.239 20.5617L8.83333 22.2105H11H14.6V30V31H15.6H20.4H21.4V30V22.2105H25H27.1667L25.761 20.5617L18.761 12.3512Z" fill="#43D3E0" stroke="#091017" stroke-width="2"/>
		</symbol>

		<symbol fill="none" viewBox="0 0 29 29" id="fdx-icon-sd-card">
			<path fill-rule="evenodd" clip-rule="evenodd" d="M8.16519 5.5H21.9484V14.9985H21.2257V17.3732H21.9484V28.8333H4.5V17.3732H5.27434V14.9985H4.5V9.21681L8.16519 5.5ZM21.9484 17.3732H22V14.9985H21.9484V17.3732ZM9.14601 8.59745H10.4882V12.1078H9.14601V8.59745ZM13.3791 8.59745H12.0369V12.1078H13.3791V8.59745ZM14.9277 8.59745H16.2699V12.1078H14.9277V8.59745ZM19.1608 8.59745H17.8186V12.1078H19.1608V8.59745Z" fill="white"/>
			<path d="M1 8V2C1 1.44772 1.44772 1 2 1H25C25.5523 1 26 1.44772 26 2V8" stroke="#43D3E0" stroke-width="2"/>
		</symbol>

		<symbol fill="none" viewBox="0 0 16 33" id="fdx-icon-usb3-1">
			<path d="M5 28H9V33H5V28Z" fill="white"/>
			<path fill-rule="evenodd" clip-rule="evenodd" d="M14 10H0V26C0 27.6567 1.34314 29 3 29H11C12.6569 29 14 27.6567 14 26V10ZM10 12L3.63635 19.8262H6.81824L3 27L10 17.8696H7.45459L10 12Z" fill="white"/>
			<path fill-rule="evenodd" clip-rule="evenodd" d="M0 1C0 0.447715 0.447715 0 1 0H13C13.5523 0 14 0.447715 14 1V8H0V1ZM3 3H5.5V5.5H3V3ZM11 3H8.5V5.5H11V3Z" fill="#43D3E0"/>
		</symbol>

		<symbol fill="none" viewBox="0 0 16 33" id="fdx-icon-usb3">
			<path d="M5 28H9V33H5V28Z" fill="white"/>
			<path fill-rule="evenodd" clip-rule="evenodd" d="M14 10H0V26C0 27.6567 1.34314 29 3 29H11C12.6569 29 14 27.6567 14 26V10Z" fill="white"/>
			<path fill-rule="evenodd" clip-rule="evenodd" d="M0 1C0 0.447715 0.447715 0 1 0H13C13.5523 0 14 0.447715 14 1V8H0V1ZM3 3H5.5V5.5H3V3ZM11 3H8.5V5.5H11V3Z" fill="#43D3E0"/>
		</symbol>

		<symbol fill="none" viewBox="0 0 40 32" id="fdx-icon-mail">
			<path d="M4.7619 7.5293L0 12.2352L4.7619 15.0587V7.5293Z" fill="#C4C4C4"/>
			<path d="M35.2381 7.5293L40 12.2352L35.2381 15.0587V7.5293Z" fill="#C4C4C4"/>
			<path fill-rule="evenodd" clip-rule="evenodd" d="M4.76172 3C4.76172 1.34314 6.10486 0 7.76172 0H32.2379C33.8948 0 35.2379 1.34315 35.2379 3V26.3529H4.76172V3ZM9.52393 5.17652C9.52393 4.39682 10.156 3.76475 10.9357 3.76475H25.255C26.0347 3.76475 26.6668 4.39682 26.6668 5.17652C26.6668 5.95621 26.0347 6.58828 25.255 6.58828H10.9357C10.156 6.58828 9.52393 5.95621 9.52393 5.17652ZM10.9357 9.41188C10.156 9.41188 9.52393 10.0439 9.52393 10.8236C9.52393 11.6033 10.156 12.2354 10.9357 12.2354H19.5407C20.3204 12.2354 20.9525 11.6033 20.9525 10.8236C20.9525 10.0439 20.3204 9.41188 19.5407 9.41188H10.9357Z" fill="#43D3E0"/>
			<path d="M0 12.2354L20 23.5295L40 12.2354V32.0001H0V12.2354Z" fill="white"/>
		</symbol>

		<symbol fill="none" viewBox="0 0 40 40" id="fdx-icon-access-level">
			<path fill-rule="evenodd" clip-rule="evenodd" d="M17.0106 30.9898C17.0106 27.1182 13.872 23.9796 10.0004 23.9796C6.1288 23.9796 2.99023 27.1182 2.99023 30.9898C2.99023 34.8614 6.1288 38 10.0004 38C13.872 38 17.0106 34.8614 17.0106 30.9898ZM11.4024 33.7937C11.4024 33.0194 10.7747 32.3917 10.0004 32.3917C9.22608 32.3917 8.59837 33.0194 8.59837 33.7937C8.59837 34.568 9.22608 35.1958 10.0004 35.1958C10.7747 35.1958 11.4024 34.568 11.4024 33.7937Z" fill="#43D3E0"/>
			<path d="M7.89745 5.0523L7.89745 25.3818L12.8046 25.3818L12.8046 20.4747L10.7015 18.3717L12.8046 16.2686L10.7015 13.4645L12.8046 10.6604L10.7015 8.55739L12.8046 6.45434L12.8046 3.65026L10.0005 3.65026L7.89745 5.0523Z" fill="#43D3E0"/>
			<path d="M33 9C34.6569 9 36 7.65685 36 6C36 4.34315 34.6569 3 33 3C31.3431 3 30 4.34315 30 6C30 7.65685 31.3431 9 33 9Z" fill="white"/>
			<path fill-rule="evenodd" clip-rule="evenodd" d="M32 7H18V5H32V7Z" fill="white"/>
			<path d="M33 22C34.6569 22 36 20.6569 36 19C36 17.3431 34.6569 16 33 16C31.3431 16 30 17.3431 30 19C30 20.6569 31.3431 22 33 22Z" fill="white"/>
			<path fill-rule="evenodd" clip-rule="evenodd" d="M32 20L21 20L21 18L32 18V20Z" fill="white"/>
			<path d="M33 35C34.6569 35 36 33.6569 36 32C36 30.3431 34.6569 29 33 29C31.3431 29 30 30.3431 30 32C30 33.6569 31.3431 35 33 35Z" fill="white"/>
			<path fill-rule="evenodd" clip-rule="evenodd" d="M33 33L24 33L24 31L33 31V33Z" fill="white"/>
		</symbol>

		<symbol fill="none" viewBox="0 0 17 34" id="fdx-icon-battery">
			<path d="M5 2C5 0.895431 5.89543 0 7 0H10C11.1046 0 12 0.895431 12 2V3H5V2Z" fill="#43D3E0"/>
			<path fill-rule="evenodd" clip-rule="evenodd" d="M3 5C1.34314 5 0 6.34326 0 8V31C0 32.6567 1.34314 34 3 34H14C15.6569 34 17 32.6567 17 31V8C17 6.34326 15.6569 5 14 5H3ZM4.5 28C3.67163 28 3 28.6714 3 29.5C3 30.3286 3.67163 31 4.5 31H12.5C13.3284 31 14 30.3286 14 29.5C14 28.6714 13.3284 28 12.5 28H4.5ZM3 24.5C3 23.6714 3.67163 23 4.5 23H12.5C13.3284 23 14 23.6714 14 24.5C14 25.3286 13.3284 26 12.5 26H4.5C3.67163 26 3 25.3286 3 24.5ZM4.5 18C3.67163 18 3 18.6714 3 19.5C3 20.3286 3.67163 21 4.5 21H12.5C13.3284 21 14 20.3286 14 19.5C14 18.6714 13.3284 18 12.5 18H4.5Z" fill="white"/>
			<path d="M9.92916 7L6 12.0453H8.49076L7.42888 15.7953L11.358 10.7499H8.86728L9.92916 7Z" fill="black"/>
		</symbol>

		<symbol viewBox="0 0 32 32" id="fdx-icon-fb">
			<path d="M16 0C7.17764 0 0 7.17764 0 16C0 24.8217 7.17764 32 16 32C24.8217 32 32 24.8217 32 16C32 7.17764 24.823 0 16 0ZM19.9791 16.5633H17.376V25.8413H13.5187C13.5187 25.8413 13.5187 20.7718 13.5187 16.5633H11.6852V13.2841H13.5187V11.1631C13.5187 9.64408 14.2406 7.27044 17.4114 7.27044L20.2697 7.2814V10.4645C20.2697 10.4645 18.5328 10.4645 18.1951 10.4645C17.8574 10.4645 17.3773 10.6334 17.3773 11.3578V13.2848H20.3161L19.9791 16.5633Z" fill="currentColor"/>
		</symbol>

		<symbol fill="currentColor" viewBox="0 0 32 32" id="fdx-icon-insta">
			<g opacity="0.8" clip-path="url(#clip0)">
			<path d="M31.9686 9.40809C31.8937 7.7078 31.6187 6.53887 31.2248 5.52598C30.8185 4.45082 30.1934 3.48823 29.3744 2.68802C28.5742 1.87537 27.6052 1.2439 26.5425 0.843915C25.5238 0.450039 24.3609 0.175083 22.6607 0.100117C20.9477 0.0188025 20.4039 0 16.0593 0C11.7147 0 11.1709 0.0188025 9.46424 0.0937683C7.76396 0.168734 6.59503 0.443934 5.58238 0.837566C4.50697 1.2439 3.54438 1.86902 2.74418 2.68802C1.93152 3.48823 1.30029 4.45717 0.900067 5.51988C0.506191 6.53887 0.231235 7.70145 0.15627 9.40174C0.0749548 11.1147 0.0561523 11.6585 0.0561523 16.0031C0.0561523 20.3477 0.0749548 20.8915 0.149921 22.5982C0.224886 24.2984 0.500087 25.4674 0.893962 26.4803C1.30029 27.5554 1.93152 28.518 2.74418 29.3182C3.54438 30.1309 4.51332 30.7624 5.57603 31.1623C6.59503 31.5562 7.75761 31.8312 9.45813 31.9061C11.1645 31.9813 11.7086 31.9999 16.0532 31.9999C20.3978 31.9999 20.9416 31.9813 22.6482 31.9061C24.3485 31.8312 25.5174 31.5562 26.5301 31.1623C28.6806 30.3309 30.3809 28.6306 31.2124 26.4803C31.606 25.4613 31.8812 24.2984 31.9562 22.5982C32.0311 20.8915 32.0499 20.3477 32.0499 16.0031C32.0499 11.6585 32.0436 11.1147 31.9686 9.40809ZM29.087 22.4731C29.0181 24.0359 28.7556 24.8799 28.5368 25.4425C27.9991 26.8365 26.8927 27.943 25.4986 28.4807C24.936 28.6995 24.086 28.962 22.5293 29.0306C20.8415 29.1058 20.3353 29.1243 16.0656 29.1243C11.796 29.1243 11.2834 29.1058 9.60172 29.0306C8.03891 28.962 7.195 28.6995 6.63239 28.4807C5.93865 28.2243 5.30718 27.8179 4.79463 27.2866C4.26327 26.7677 3.85694 26.1426 3.60055 25.4488C3.38175 24.8862 3.11925 24.0359 3.05063 22.4795C2.97542 20.7917 2.95686 20.2852 2.95686 16.0156C2.95686 11.7459 2.97542 11.2334 3.05063 9.55191C3.11925 7.98911 3.38175 7.14519 3.60055 6.58258C3.85694 5.8886 4.26327 5.25737 4.80097 4.74458C5.31963 4.21322 5.94475 3.8069 6.63874 3.55074C7.20135 3.33195 8.05161 3.06945 9.60806 3.00059C11.2959 2.92562 11.8023 2.90682 16.0717 2.90682C20.3477 2.90682 20.8539 2.92562 22.5356 3.00059C24.0984 3.06945 24.9424 3.33195 25.505 3.55074C26.1987 3.8069 26.8302 4.21322 27.3427 4.74458C27.8741 5.26348 28.2804 5.8886 28.5368 6.58258C28.7556 7.14519 29.0181 7.99521 29.087 9.55191C29.1619 11.2397 29.1807 11.7459 29.1807 16.0156C29.1807 20.2852 29.1619 20.7853 29.087 22.4731Z" />
			<path d="M16.0592 7.78271C11.521 7.78271 7.83887 11.4646 7.83887 16.0031C7.83887 20.5416 11.521 24.2234 16.0592 24.2234C20.5977 24.2234 24.2796 20.5416 24.2796 16.0031C24.2796 11.4646 20.5977 7.78271 16.0592 7.78271ZM16.0592 21.3354C13.115 21.3354 10.7269 18.9475 10.7269 16.0031C10.7269 13.0586 13.115 10.6707 16.0592 10.6707C19.0036 10.6707 21.3916 13.0586 21.3916 16.0031C21.3916 18.9475 19.0036 21.3354 16.0592 21.3354Z" />
			<path d="M26.5239 7.45765C26.5239 8.51743 25.6646 9.37673 24.6046 9.37673C23.5448 9.37673 22.6855 8.51743 22.6855 7.45765C22.6855 6.39763 23.5448 5.53857 24.6046 5.53857C25.6646 5.53857 26.5239 6.39763 26.5239 7.45765Z" />
			</g>
			<defs>
			<clipPath id="clip0">
			<rect width="32" height="32" fill="white"/>
			</clipPath>
			</defs>
		</symbol>

		<symbol fill="none" viewBox="0 0 19 18" id="fdx-icon-search">
			<path d="M17.5975 15.2288L13.2919 10.9231C13.9413 9.8578 14.315 8.6045 14.315 7.26574C14.315 3.37253 10.9413 3.88803e-07 7.04812 3.88803e-07C3.15491 -0.00113898 -1.08658e-07 3.15491 -1.08658e-07 7.04812C-1.08658e-07 10.9402 3.37367 14.3139 7.26574 14.3139C8.5612 14.3139 9.77235 13.9618 10.8149 13.3522L15.1433 17.683C15.5672 18.1057 16.2542 18.1057 16.6769 17.683L17.7513 16.6085C18.174 16.1858 18.0202 15.6515 17.5975 15.2288ZM2.16935 7.04812C2.16935 4.35238 4.35352 2.16822 7.04812 2.16822C9.74387 2.16822 12.1456 4.56886 12.1456 7.26574C12.1456 9.96034 9.96034 12.1456 7.26574 12.1456C4.57 12.1445 2.16935 9.74273 2.16935 7.04812Z" fill="#707A8C"/>
		</symbol>

		<symbol fill="none" viewBox="0 0 21 41" id="fdx-icon-faq">
			<path d="M6.5122 26.1793V24.5667C6.5122 22.719 6.8374 21.182 7.4878 19.9558C8.13821 18.7295 9.27642 17.4613 10.9024 16.1511C12.8374 14.5721 14.0813 13.3458 14.6341 12.4723C15.2033 11.5989 15.4878 10.5574 15.4878 9.34796C15.4878 7.93695 15.0325 6.85349 14.122 6.09759C13.2114 5.34169 11.9024 4.96374 10.1951 4.96374C8.65041 4.96374 7.21951 5.19051 5.90244 5.64405C4.58537 6.09759 3.30081 6.64352 2.04878 7.28183L0 2.84722C3.30081 0.949074 6.8374 0 10.6098 0C13.7967 0 16.3252 0.806293 18.1951 2.41888C20.065 4.03147 21 6.25717 21 9.09599C21 10.3558 20.8211 11.4813 20.4634 12.4723C20.1057 13.4466 19.561 14.3789 18.8293 15.2692C18.1138 16.1595 16.8699 17.3185 15.0976 18.7463C13.5854 19.9725 12.5691 20.9888 12.0488 21.7951C11.5447 22.6014 11.2927 23.6849 11.2927 25.0455V26.1793H6.5122Z" fill="white"/>
			<path d="M9.09757 33.315C6.70733 33.315 5.51221 34.5832 5.51221 37.1197C5.51221 38.3459 5.82115 39.3034 6.43904 39.9921C7.05692 40.664 7.9431 41 9.09757 41C10.252 41 11.1382 40.6556 11.7561 39.9669C12.3903 39.2614 12.7073 38.3123 12.7073 37.1197C12.7073 35.9103 12.3984 34.978 11.7805 34.3229C11.1626 33.651 10.2683 33.315 9.09757 33.315Z" fill="#43D3E0"/>
		</symbol>

		<symbol fill="none" viewBox="0 0 46 50" id="fdx-icon-videos">
			<path d="M14.7856 30V0L36.2142 15.8571L14.7856 30Z" fill="white"/>
			<rect x="34" y="44" width="12" height="4" fill="white"/>
			<rect y="44" width="34" height="4" fill="#43D3E0"/>
			<circle cx="34" cy="46" r="4" fill="white"/>
		</symbol>

		<symbol fill="none" viewBox="0 0 44 44" id="fdx-icon-lightbulb">
			<g clip-path="url(#clip0)">
			<path d="M20.4435 33.1376V26.1421C20.4435 25.978 20.412 25.8155 20.3509 25.6634L18.5264 21.1003L21.603 21.8701C21.8084 21.9208 22.0233 21.9208 22.2284 21.8701L25.305 21.1003L23.4805 25.6634C23.4198 25.8155 23.3879 25.978 23.3879 26.1421V33.1376H20.4435Z" fill="#43D3E0"/>
			<path d="M30.2794 35.7158C30.2794 37.2606 29.0514 38.5181 27.5183 38.5661H16.6556C15.1225 38.5181 13.8945 37.2606 13.8945 35.7158H30.2794Z" fill="#43D3E0"/>
			<path d="M37.1405 15.0968C37.1405 18.5615 35.9347 21.9466 33.747 24.6288C31.759 27.0522 30.5586 30.0325 30.2964 33.1376H26.0942V26.3905L28.7633 19.7176C28.9439 19.2681 28.8563 18.7559 28.5381 18.3906C28.2195 18.0264 27.7237 17.8706 27.2544 17.9875L22.0441 19.2903L16.8334 17.9875C16.3641 17.8706 15.8683 18.0264 15.5497 18.3906C15.2315 18.7559 15.1439 19.2681 15.3245 19.7176L17.9936 26.3905V33.1376H13.7974C13.5352 30.0318 12.3338 27.0505 10.3468 24.6288C8.15475 21.9493 6.94727 18.5642 6.94727 15.0968C6.94727 6.77194 13.7199 0 22.0441 0C30.3679 0 37.1405 6.77194 37.1405 15.0968Z" fill="white"/>
			<path d="M17.3682 41.1469C18.2873 42.8445 20.0849 44 22.1481 44C24.2103 44 26.0079 42.8445 26.927 41.1469H17.3682Z" fill="#43D3E0"/>
			</g>
			<defs>
			<clipPath id="clip0">
			<rect width="44" height="44" fill="white"/>
			</clipPath>
			</defs>
		</symbol>

		<symbol fill="none" viewBox="0 0 46 50" id="fdx-icon-videos">
			<path d="M14.7856 30V0L36.2142 15.8571L14.7856 30Z" fill="white"/>
			<rect x="34" y="44" width="12" height="4" fill="white"/>
			<rect y="44" width="34" height="4" fill="#43D3E0"/>
			<circle cx="34" cy="46" r="4" fill="white"/>
		</symbol>

		<symbol fill="none" viewBox="0 0 44 44" id="fdx-icon-lightbulb">
			<g clip-path="url(#clip0)">
			<path d="M20.4435 33.1376V26.1421C20.4435 25.978 20.412 25.8155 20.3509 25.6634L18.5264 21.1003L21.603 21.8701C21.8084 21.9208 22.0233 21.9208 22.2284 21.8701L25.305 21.1003L23.4805 25.6634C23.4198 25.8155 23.3879 25.978 23.3879 26.1421V33.1376H20.4435Z" fill="#43D3E0"/>
			<path d="M30.2794 35.7158C30.2794 37.2606 29.0514 38.5181 27.5183 38.5661H16.6556C15.1225 38.5181 13.8945 37.2606 13.8945 35.7158H30.2794Z" fill="#43D3E0"/>
			<path d="M37.1405 15.0968C37.1405 18.5615 35.9347 21.9466 33.747 24.6288C31.759 27.0522 30.5586 30.0325 30.2964 33.1376H26.0942V26.3905L28.7633 19.7176C28.9439 19.2681 28.8563 18.7559 28.5381 18.3906C28.2195 18.0264 27.7237 17.8706 27.2544 17.9875L22.0441 19.2903L16.8334 17.9875C16.3641 17.8706 15.8683 18.0264 15.5497 18.3906C15.2315 18.7559 15.1439 19.2681 15.3245 19.7176L17.9936 26.3905V33.1376H13.7974C13.5352 30.0318 12.3338 27.0505 10.3468 24.6288C8.15475 21.9493 6.94727 18.5642 6.94727 15.0968C6.94727 6.77194 13.7199 0 22.0441 0C30.3679 0 37.1405 6.77194 37.1405 15.0968Z" fill="white"/>
			<path d="M17.3682 41.1469C18.2873 42.8445 20.0849 44 22.1481 44C24.2103 44 26.0079 42.8445 26.927 41.1469H17.3682Z" fill="#43D3E0"/>
			</g>
			<defs>
			<clipPath id="clip0">
			<rect width="44" height="44" fill="white"/>
			</clipPath>
			</defs>
		</symbol>

		<symbol fill="none" viewBox="0 0 48 48" id="fdx-icon-tech-specs">
			<path d="M33.3567 25.3208C32.9343 25.027 32.1308 24.5625 31.5579 24.3151L30.6535 22.1318C30.8767 21.5692 31.1208 20.669 31.2143 20.1488C31.3155 19.5859 31.1346 19.0092 30.7302 18.6048L28.2735 16.1481C27.8691 15.7436 27.2923 15.5627 26.7295 15.6641C26.2173 15.7562 25.3229 15.9961 24.7465 16.2248L22.5632 15.3204C22.3238 14.7659 21.8598 13.9561 21.5575 13.5216C21.231 13.0521 20.6954 12.7722 20.1235 12.7722H16.6492C16.0774 12.7722 15.5418 13.0521 15.2153 13.5216C14.9215 13.944 14.457 14.7475 14.2096 15.3204L12.0263 16.2248C11.4636 16.0016 10.5634 15.7576 10.0433 15.6641C9.48073 15.5631 8.90365 15.7438 8.49924 16.1481L6.04255 18.6048C5.63815 19.0092 5.45732 19.5859 5.5585 20.1488C5.65061 20.661 5.8906 21.5554 6.11929 22.1318L5.21488 24.3151C4.66039 24.5545 3.85053 25.0185 3.41609 25.3208C2.94659 25.6473 2.66667 26.1829 2.66667 26.7548V30.2291C2.66667 30.8009 2.94659 31.3365 3.41609 31.6631C3.83842 31.9568 4.64199 32.4213 5.21488 32.6688L6.11929 34.852C5.89607 35.4147 5.65201 36.3149 5.5585 36.8351C5.45732 37.3979 5.63815 37.9747 6.04255 38.3791L8.49924 40.8358C8.90353 41.2402 9.48003 41.4208 10.0433 41.3198C10.5555 41.2277 11.4499 40.9877 12.0263 40.759L14.2096 41.6634C14.449 42.2179 14.913 43.0278 15.2153 43.4622C15.5418 43.9317 16.0774 44.2116 16.6492 44.2116H20.1235C20.6954 44.2116 21.231 43.9317 21.5575 43.4622C21.8513 43.0399 22.3158 42.2363 22.5632 41.6634L24.7465 40.759C25.3091 40.9822 26.2094 41.2263 26.7295 41.3198C27.2924 41.421 27.8691 41.2402 28.2735 40.8358L30.7302 38.3791C31.1346 37.9747 31.3155 37.3979 31.2143 36.8351C31.1222 36.3228 30.8822 35.4284 30.6535 34.852L31.5579 32.6688C32.1124 32.4294 32.9222 31.9653 33.3567 31.6631C33.8262 31.3365 34.1061 30.8009 34.1061 30.2291V26.7548C34.1061 26.1829 33.8262 25.6473 33.3567 25.3208ZM18.3863 35.4786C14.534 35.4786 11.3998 32.3445 11.3998 28.4921C11.3998 24.6397 14.534 21.5056 18.3863 21.5056C22.2387 21.5056 25.3728 24.6397 25.3728 28.4921C25.3728 32.3445 22.2387 35.4786 18.3863 35.4786Z" fill="white"/>
			<path fill-rule="evenodd" clip-rule="evenodd" d="M43.1493 12.5602C43.6403 12.7723 44.329 13.1704 44.691 13.4222C45.0934 13.7021 45.3333 14.1612 45.3333 14.6513V17.6291C45.3333 18.1193 45.0934 18.5784 44.691 18.8582C44.3186 19.1173 43.6245 19.515 43.1493 19.7202L42.3741 21.5915C42.5701 22.0855 42.7758 22.8521 42.8547 23.2912C42.9415 23.7736 42.7865 24.2679 42.4399 24.6146L40.3342 26.7202C39.9876 27.0668 39.4933 27.2218 39.0108 27.1351C38.9103 27.117 38.7932 27.0924 38.6667 27.0629V26.3829C38.6667 25.6311 38.3105 24.9269 37.7132 24.4977C37.4815 24.3312 37.1598 24.123 36.8102 23.9139C35.9456 23.3967 35.215 22.6526 34.8401 21.7175C34.7977 21.6117 34.7603 21.5045 34.7276 21.3961C36.5855 20.3783 37.848 18.404 37.848 16.1404C37.848 12.8385 35.1617 10.1522 31.8598 10.1522C30.0556 10.1522 28.4352 10.9542 27.3364 12.2205C26.6595 12.2847 25.9752 12.2039 25.347 11.935C24.4709 11.56 23.7824 10.8532 23.3218 10.0189C23.1034 9.62322 22.8801 9.25093 22.7012 8.98534C22.3143 8.41035 21.6964 8.05163 21.0255 8.00522C21.0929 7.88207 21.1782 7.76762 21.2799 7.66589L23.3855 5.56024C23.7322 5.21373 24.2268 5.05883 24.7089 5.14536C25.1547 5.2255 25.9263 5.43469 26.4086 5.62601L28.2799 4.85084C28.492 4.35981 28.8901 3.67107 29.1419 3.30908C29.4217 2.90667 29.8808 2.66675 30.371 2.66675H33.3488C33.8389 2.66675 34.298 2.90667 34.5779 3.30908C34.8369 3.68145 35.2347 4.37558 35.4399 4.85084L37.3112 5.62601C37.8052 5.43 38.5718 5.2243 39.0108 5.14536C39.4932 5.05853 39.9876 5.21353 40.3342 5.56024L42.4399 7.66589C42.7865 8.0125 42.9415 8.50683 42.8547 8.98928C42.7746 9.4351 42.5654 10.2067 42.3741 10.6889L43.1493 12.5602Z" fill="#43D3E0"/>
		</symbol>

		<symbol fill="none" viewBox="0 0 32 32" id="fdx-icon-data-privacy">
			<path d="M4.35351 6.02545L15.9797 1.72974L27.6756 6.02545V15.6732C27.3507 19.1473 26.3528 26.166 15.9797 29.4054C5.95472 26.4195 4.05183 19.0065 4.35351 15.6732V6.02545Z" fill="#070C10"/>
<path fill-rule="evenodd" clip-rule="evenodd" d="M15.9786 0.347198L28.9731 5.11988V15.7337L28.9674 15.794C28.8008 17.5753 28.4505 20.4469 26.7026 23.3043C24.9341 26.1952 21.8192 28.9409 16.3666 30.6437L15.9889 30.7617L15.6096 30.6487C4.99277 27.4866 2.73314 19.5283 3.0564 15.6173V5.12175L15.9786 0.347198ZM15.9813 3.11225L5.651 6.92912V15.7318L5.64572 15.7901C5.39773 18.5302 6.92993 25.1845 15.9715 28.0458C20.6463 26.5068 23.1207 24.1875 24.4893 21.9504C25.8981 19.6474 26.2183 17.3009 26.3785 15.6122V6.93099L15.9813 3.11225Z" fill="white"/>
<path fill-rule="evenodd" clip-rule="evenodd" d="M20.7568 13.1728L14.5409 19.027L11.2433 15.8941L12.3183 14.8339L14.5456 16.9499L19.6866 12.1081L20.7568 13.1728Z" fill="#43D3E0"/>
<path fill-rule="evenodd" clip-rule="evenodd" d="M21.4756 13.1827L14.5394 19.7153L10.5244 15.9008L12.3118 14.138L14.5471 16.2617L19.6961 11.4123L21.4756 13.1827ZM14.5456 16.9499L12.3183 14.8339L11.2433 15.8941L14.5409 19.027L20.7568 13.1728L19.6866 12.1081L14.5456 16.9499Z" fill="#43D3E0"/>
		</symbol>

		<symbol fill="none" viewBox="0 0 32 32" id="fdx-icon-term-condition">
			<path d="M22 24H27L22 29V24Z" fill="#43D3E0"/>
<path fill-rule="evenodd" clip-rule="evenodd" d="M5 3H27V22H20V29H5V3ZM7 6H15V8H7V6ZM19 10H7V12H19V10ZM7 14H17V16H7V14ZM13 18H7V20H13V18Z" fill="white"/>
		</symbol>

		<symbol fill="none" viewBox="0 0 18 22" id="fdx-icon-tablet">
			<path fill-rule="evenodd" clip-rule="evenodd" d="M0 2C0 0.89543 0.895431 0 2 0H16C17.1046 0 18 0.895431 18 2V20C18 21.1046 17.1046 22 16 22H2C0.89543 22 0 21.1046 0 20V2ZM2 4C2 2.89543 2.89543 2 4 2H14C15.1046 2 16 2.89543 16 4V16C16 17.1046 15.1046 18 14 18H4C2.89543 18 2 17.1046 2 16V4ZM9 19C9.55229 19 10 19.4477 10 20C10 20.5523 9.55229 21 9 21C8.44771 21 8 20.5523 8 20C8 19.4477 8.44771 19 9 19Z" fill="white"/>
		</symbol>

		<symbol fill="none" viewBox="0 0 40 42" id="fdx-icon-transcodes">
			<path d="M18 18.6816V9.68164L24 14.1816L18 18.6816Z" fill="white" fill-opacity="0.5"/>
			<path d="M18 33.6816V24.6816L24 29.1816L18 33.6816Z" fill="white" fill-opacity="0.5"/>
			<path d="M10 25.6816V16.6816L16 21.1816L10 25.6816Z" fill="#43D3E0"/>
			<path d="M26 25.6816V16.6816L32 21.1816L26 25.6816Z" fill="white" fill-opacity="0.5"/>
			<path fill-rule="evenodd" clip-rule="evenodd" d="M26.5 4.18169L28.2031 0L30 0.681641L31 7.17995L26.5 9.68164L25 8.88667L26.5 4.18169Z" fill="#43D3E0"/>
			<path fill-rule="evenodd" clip-rule="evenodd" d="M20 4.47234C10.4956 4.47234 2.7907 12.1772 2.7907 21.6816C2.7907 24.6426 3.53733 27.425 4.85147 29.8551L2.39673 31.1826C0.867571 28.3549 0 25.1175 0 21.6816C0 10.6359 8.9543 1.68164 20 1.68164C23.8662 1.68164 27.4802 2.78006 30.5419 4.6825L29.069 7.05287C26.4366 5.4172 23.3308 4.47234 20 4.47234Z" fill="#43D3E0"/>
			<path d="M37.2102 21.6818C37.2102 18.8937 36.5482 16.2643 35.3742 13.9384L37.8655 12.6809C39.2319 15.3879 40.0009 18.447 40.0009 21.6818C40.0009 32.7275 31.0466 41.6818 20.0009 41.6818C16.1346 41.6818 12.5207 40.5833 9.45898 38.6809L10.9319 36.3105C13.5642 37.9462 16.6701 38.8911 20.0009 38.8911C29.5053 38.8911 37.2102 31.1862 37.2102 21.6818Z" fill="white"/>
		</symbol>

		<symbol fill="none" viewBox="0 0 32 32" id="fdx-icon-phone">
			<g clip-path="url(#clip0)">
			<path d="M10.597 13.2642C10.5922 14.5307 12.9595 17.0441 14.1438 18.1425C15.2422 19.3268 17.7556 21.6942 19.0222 21.6894C20.6053 21.6834 21.453 20.2547 22.6346 20.2766C23.5799 20.2942 24.3696 20.852 24.6463 21.1287L29.668 24.9307C30.4941 25.5561 30.6252 26.7471 29.955 27.5372L28.1732 29.6378C27.7511 30.046 26.675 30.8454 24.9859 30.8744C23.2968 30.9033 15.9469 28.7074 9.76293 22.5234C3.57891 16.3394 1.38302 8.9895 1.41196 7.30043C1.44089 5.61135 2.24029 4.53527 2.64855 4.11316L4.74912 2.33136C5.53925 1.66113 6.73019 1.79224 7.3556 2.61829L11.1577 7.64006C11.4343 7.91675 11.9921 8.70645 12.0097 9.65175C12.0317 10.8334 10.603 11.681 10.597 13.2642Z" fill="white"/>
			<path d="M17.2955 8.22643C18.3058 8.08211 20.6726 8.13984 22.058 9.52528C23.4434 10.9107 23.6455 13.4218 23.3568 14.2877" stroke="#43D3E0" stroke-width="2"/>
			<path d="M16.0012 3.4636C18.0217 3.17496 22.7553 3.29042 25.5261 6.0613C28.297 8.83217 28.7011 13.8544 28.1238 15.5862" stroke="#43D3E0" stroke-width="2"/>
			</g>
			<defs>
			<clipPath id="clip0">
			<rect width="32" height="32" fill="white"/>
			</clipPath>
			</defs>
		</symbol>

		<symbol fill="currentColor" viewBox="0 0 24 24" id="fdx-icon-close">
			<path fill-rule="evenodd" clip-rule="evenodd" d="M4.46975 18.4697L18.4697 4.46973L19.5304 5.53039L5.53041 19.5304L4.46975 18.4697Z" />
			<path fill-rule="evenodd" clip-rule="evenodd" d="M18.4697 19.5304L4.46967 5.53039L5.53033 4.46973L19.5303 18.4697L18.4697 19.5304Z" />
		</symbol>

		<symbol fill="none" viewBox="0 0 24 24" id="fdx-icon-arro-down">
			<path fill-rule="evenodd" clip-rule="evenodd" d="M12.5893 18.1844C12.2638 18.5099 11.7362 18.5099 11.4107 18.1844L6.20241 12.9761C5.87697 12.6507 5.87697 12.123 6.20241 11.7976C6.52785 11.4721 7.05549 11.4721 7.38092 11.7976L12 16.4167L16.6191 11.7976C16.9445 11.4721 17.4722 11.4721 17.7976 11.7976C18.123 12.123 18.123 12.6507 17.7976 12.9761L12.5893 18.1844Z" fill="white"/>
			<path fill-rule="evenodd" clip-rule="evenodd" d="M13 6.09546V17.0955H11V6.09546H13Z" fill="white"/>
		</symbol>

		<symbol fill="none" viewBox="0 0 36 36" id="fdx-icon-user-admin">
			<path d="M18.9956 19.9189C17.7797 21.2065 16.2742 22.0234 14.5694 22.0234C12.8659 22.0234 11.3593 21.2066 10.1445 19.9189C6.51132 20.2468 3.36573 22.6558 2.17536 26.1588L1.51736 28.0956C1.32914 28.653 1.41927 29.2671 1.76229 29.7452C2.10523 30.2236 2.65754 30.5075 3.24542 30.5075H20.499C21.088 30.5075 22.999 30.5075 23.999 30.5075C23.999 30.5075 21.5457 28.6064 20.999 25.5C20.5846 23.1453 22.5822 20.2428 18.9956 19.9189Z" fill="white"/>
			<path d="M8.66426 11.3072C8.66426 15.6515 11.3088 20.313 14.569 20.313C17.8304 20.313 20.4748 15.6515 20.4748 11.3072C20.4749 2.30203 8.66426 2.28418 8.66426 11.3072Z" fill="white"/>
			<path d="M34.714 22.7896C34.5528 22.6775 34.246 22.5002 34.0274 22.4058L33.6822 21.5724C33.7674 21.3577 33.8605 21.0141 33.8962 20.8155C33.9348 20.6007 33.8658 20.3806 33.7115 20.2262L32.7738 19.2885C32.6194 19.1341 32.3993 19.0651 32.1845 19.1038C31.9889 19.1389 31.6476 19.2305 31.4276 19.3178L30.5942 18.9726C30.5029 18.761 30.3258 18.4519 30.2104 18.286C30.0858 18.1068 29.8813 18 29.663 18H28.337C28.1187 18 27.9142 18.1068 27.7896 18.286C27.6775 18.4472 27.5002 18.754 27.4058 18.9726L26.5724 19.3178C26.3577 19.2326 26.0141 19.1395 25.8155 19.1038C25.6008 19.0652 25.3806 19.1342 25.2262 19.2885L24.2885 20.2262C24.1342 20.3806 24.0652 20.6007 24.1038 20.8155C24.1389 21.0111 24.2305 21.3524 24.3178 21.5724L23.9726 22.4058C23.761 22.4971 23.4519 22.6742 23.286 22.7896C23.1068 22.9142 23 23.1187 23 23.337V24.663C23 24.8813 23.1068 25.0858 23.286 25.2104C23.4472 25.3225 23.754 25.4998 23.9726 25.5942L24.3178 26.4276C24.2326 26.6423 24.1395 26.9859 24.1038 27.1845C24.0652 27.3993 24.1342 27.6194 24.2885 27.7738L25.2262 28.7115C25.3805 28.8658 25.6006 28.9348 25.8155 28.8962C26.0111 28.8611 26.3524 28.7695 26.5724 28.6822L27.4058 29.0274C27.4971 29.239 27.6742 29.5481 27.7896 29.714C27.9142 29.8932 28.1187 30 28.337 30H29.663C29.8813 30 30.0858 29.8932 30.2104 29.714C30.3225 29.5528 30.4998 29.246 30.5942 29.0274L31.4276 28.6822C31.6423 28.7674 31.9859 28.8605 32.1845 28.8962C32.3993 28.9348 32.6194 28.8658 32.7738 28.7115L33.7115 27.7738C33.8658 27.6194 33.9348 27.3993 33.8962 27.1845C33.8611 26.9889 33.7695 26.6476 33.6822 26.4276L34.0274 25.5942C34.239 25.5029 34.5481 25.3258 34.714 25.2104C34.8932 25.0858 35 24.8813 35 24.663V23.337C35 23.1187 34.8932 22.9142 34.714 22.7896ZM29 26.6667C27.5296 26.6667 26.3333 25.4705 26.3333 24.0001C26.3333 22.5297 27.5296 21.3334 29 21.3334C30.4704 21.3334 31.6666 22.5297 31.6666 24.0001C31.6666 25.4705 30.4704 26.6667 29 26.6667Z" fill="#43D3E0"/>
		</symbol>

		<symbol fill="none" viewBox="0 0 36 36" id="fdx-icon-data-manager">
			<g clip-path="url(#clip0)">
			<path d="M17.9958 19.9189C16.7799 21.2065 15.2745 22.0234 13.5696 22.0234C11.8661 22.0234 10.3595 21.2066 9.14476 19.9189C5.51154 20.2468 2.36596 22.6558 1.17558 26.1588L0.517582 28.0956C0.329367 28.653 0.419495 29.2671 0.762511 29.7452C1.10546 30.2236 1.65777 30.5075 2.24564 30.5075H17.4992C18.0883 30.5075 15.9992 30.5075 20.4992 30.5075C20.4992 30.5075 20.4992 28.5 20.4992 25.5C20.4992 23.1091 21.5824 20.2428 17.9958 19.9189Z" fill="white"/>
			<path d="M7.66449 11.3072C7.66449 15.6515 10.309 20.313 13.5692 20.313C16.8306 20.313 19.475 15.6515 19.475 11.3072C19.4751 2.30203 7.66449 2.28418 7.66449 11.3072Z" fill="white"/>
			<path d="M29.5 21.25C33.0899 21.25 36 20.5225 36 19.625C36 18.7275 33.0899 18 29.5 18C25.9101 18 23 18.7275 23 19.625C23 20.5225 25.9101 21.25 29.5 21.25Z" fill="#43D3E0"/>
			<path d="M29.5 22.3333C25.9104 22.3333 23 21.6058 23 20.7083V24.4999C23 25.3975 25.9104 26.1249 29.5 26.1249C33.0896 26.1249 36 25.3975 36 24.4999V20.7083C36 21.6058 33.0896 22.3333 29.5 22.3333ZM24.8958 24.4999C24.4473 24.4999 24.0833 24.1359 24.0833 23.6874C24.0833 23.2389 24.4473 22.8749 24.8958 22.8749C25.3443 22.8749 25.7083 23.2389 25.7083 23.6874C25.7083 24.1359 25.3443 24.4999 24.8958 24.4999Z" fill="#43D3E0"/>
			<path d="M29.5 27.2083C25.9104 27.2083 23 26.4808 23 25.5833V29.3749C23 30.2725 25.9104 30.9999 29.5 30.9999C33.0896 30.9999 36 30.2725 36 29.3749V25.5833C36 26.4808 33.0896 27.2083 29.5 27.2083ZM24.8958 29.3749C24.4473 29.3749 24.0833 29.0109 24.0833 28.5624C24.0833 28.1139 24.4473 27.7499 24.8958 27.7499C25.3443 27.7499 25.7083 28.1139 25.7083 28.5624C25.7083 29.0109 25.3443 29.3749 24.8958 29.3749Z" fill="#43D3E0"/>
			</g>
			<defs>
			<clipPath id="clip0">
			<rect width="36" height="36" fill="white"/>
			</clipPath>
			</defs>
		</symbol>

		<symbol fill="none" viewBox="0 0 36 36" id="fdx-icon-user-cloud">
			<g clip-path="url(#clip0)">
			<path d="M23.9912 31H25.9973H29.7226H32.3939C33.3742 31 36 30.3785 36 28.0022C36 25.6259 33.6941 24.8582 32.8889 24.8582C32.8889 22.8475 32.8889 20.4717 29.7226 20.0331C27.6146 19.7411 26.6307 21.4582 26.2222 22.226C25.7204 22.0675 24.1784 21.2821 23.0109 22.1528C21.7366 23.1034 22.2456 24.8216 22.2222 25.2969C21.8721 25.2969 20 25.699 20 27.856C20 31.0146 22.6608 30.9756 23.9912 31Z" fill="#43D3E0"/>
			<path d="M17.9958 20.9189C16.7799 22.2065 15.2745 23.0234 13.5696 23.0234C11.8661 23.0234 10.3595 22.2066 9.14476 20.9189C5.51154 21.2468 2.36596 23.6558 1.17558 27.1588L0.517582 29.0956C0.329367 29.653 0.419495 30.2671 0.762511 30.7452C1.10546 31.2236 1.65777 31.5075 2.24564 31.5075H15.4992C16.0883 31.5075 16.9992 31.5 20.9992 31.5075C20.9992 31.5075 17.9958 30.7452 18.4992 27.1588C18.8316 24.7911 21.5824 21.2428 17.9958 20.9189Z" fill="white"/>
			<path d="M7.66449 12.3072C7.66449 16.6515 10.309 21.313 13.5692 21.313C16.8306 21.313 19.475 16.6515 19.475 12.3072C19.4751 3.30203 7.66449 3.28418 7.66449 12.3072Z" fill="white"/>
			</g>
			<defs>
			<clipPath id="clip0">
			<rect width="36" height="36" fill="white"/>
			</clipPath>
			</defs>
		</symbol>

		<symbol fill="none" viewBox="0 0 32 32" id="fdx-icon-upload-cloud">
			<path fill-rule="evenodd" clip-rule="evenodd" d="M11.6392 26.8808H8.45434C5.95003 26.8356 0.941406 25.28 0.941406 19.4193C0.941406 15.4171 3.97294 12.8395 4.63197 12.8395C4.67591 11.9577 5.13283 9.92272 6.60906 8.8374C8.08529 7.75208 10.3436 8.06863 11.2882 8.36257C12.057 6.93809 14.5965 4.08911 18.6034 4.08911C23.612 4.08911 26.7754 9.10875 26.7754 12.8395C28.2911 12.8395 31.0591 15.2815 31.0591 19.6906C31.0591 24.0997 26.1163 26.8808 24.271 26.8808H19.5464V23.3543H25.6241L15.5928 11.5883L5.56152 23.3543H11.6392V26.8808Z" fill="white"/>
			<path d="M15.5927 14.6709L9.89476 21.3542H13.6391V28.5087H17.5463V21.3542H21.2906L15.5927 14.6709Z" fill="#43D3E0"/>
		</symbol>

		<symbol fill="none" viewBox="0 0 14 11" id="fdx-icon-arrow-check">
			<path d="M1 5.8L4.6 9.4L13 1" stroke="white" stroke-width="2"/>
		</symbol>

		<symbol fill="none" viewBox="0 0 40 40" id="fdx-icon-battery-low">
			<path d="M16 5C16 3.89543 16.8954 3 18 3H21C22.1046 3 23 3.89543 23 5V6H16V5Z" fill="#43D3E0"/>
			<path fill-rule="evenodd" clip-rule="evenodd" d="M14 8C12.3431 8 11 9.34315 11 11V34C11 35.6569 12.3431 37 14 37H25C26.6569 37 28 35.6569 28 34V11C28 9.34315 26.6569 8 25 8H14ZM15.5 31C14.6716 31 14 31.6716 14 32.5C14 33.3284 14.6716 34 15.5 34H23.5C24.3284 34 25 33.3284 25 32.5C25 31.6716 24.3284 31 23.5 31H15.5Z" fill="white"/>
			<path d="M20.9292 10L17 15.0453H19.4908L18.4289 18.7953L22.358 13.7499H19.8673L20.9292 10Z" fill="black"/>
		</symbol>

		<symbol fill="none" viewBox="0 0 40 40" id="fdx-icon-battery-medium">
			<path d="M16 5C16 3.89543 16.8954 3 18 3H21C22.1046 3 23 3.89543 23 5V6H16V5Z" fill="#43D3E0"/>
			<path fill-rule="evenodd" clip-rule="evenodd" d="M11 11C11 9.34315 12.3431 8 14 8H25C26.6569 8 28 9.34315 28 11V34C28 35.6569 26.6569 37 25 37H14C12.3431 37 11 35.6569 11 34V11ZM14 32.5C14 31.6716 14.6716 31 15.5 31H23.5C24.3284 31 25 31.6716 25 32.5C25 33.3284 24.3284 34 23.5 34H15.5C14.6716 34 14 33.3284 14 32.5ZM15.5 26C14.6716 26 14 26.6716 14 27.5C14 28.3284 14.6716 29 15.5 29H23.5C24.3284 29 25 28.3284 25 27.5C25 26.6716 24.3284 26 23.5 26H15.5Z" fill="white"/>
			<path d="M20.9292 10L17 15.0453H19.4908L18.4289 18.7953L22.358 13.7499H19.8673L20.9292 10Z" fill="black"/>
		</symbol>

		<symbol fill="none" viewBox="0 0 40 40" id="fdx-icon-battery-full">
			<path d="M16 5C16 3.89543 16.8954 3 18 3H21C22.1046 3 23 3.89543 23 5V6H16V5Z" fill="#43D3E0"/>
			<path fill-rule="evenodd" clip-rule="evenodd" d="M14 8C12.3431 8 11 9.34315 11 11V34C11 35.6569 12.3431 37 14 37H25C26.6569 37 28 35.6569 28 34V11C28 9.34315 26.6569 8 25 8H14ZM15.5 31C14.6716 31 14 31.6716 14 32.5C14 33.3284 14.6716 34 15.5 34H23.5C24.3284 34 25 33.3284 25 32.5C25 31.6716 24.3284 31 23.5 31H15.5ZM14 27.5C14 26.6716 14.6716 26 15.5 26H23.5C24.3284 26 25 26.6716 25 27.5C25 28.3284 24.3284 29 23.5 29H15.5C14.6716 29 14 28.3284 14 27.5ZM15.5 21C14.6716 21 14 21.6716 14 22.5C14 23.3284 14.6716 24 15.5 24H23.5C24.3284 24 25 23.3284 25 22.5C25 21.6716 24.3284 21 23.5 21H15.5Z" fill="white"/>
			<path d="M20.9292 10L17 15.0453H19.4908L18.4289 18.7953L22.358 13.7499H19.8673L20.9292 10Z" fill="black"/>
		</symbol>

		<symbol fill="currentColor" viewBox="0 0 24 24" id="fdx-icon-gridview">
			<path fill-rule="evenodd" clip-rule="evenodd" d="M8 4V8L4 8V4L8 4ZM14 4V8L10 8V4L14 4ZM20 8V4L16 4V8L20 8ZM8 10V14L4 14V10L8 10ZM8 20V16L4 16V20H8ZM14 10V14L10 14V10L14 10ZM14 20V16L10 16V20H14ZM20 10V14L16 14V10L20 10ZM20 20V16L16 16V20H20Z" />
		</symbol>

		<symbol fill="currentColor" viewBox="0 0 24 24" id="fdx-icon-listview">
			<path fill-rule="evenodd" clip-rule="evenodd" d="M8 7V4L5 4V7L8 7ZM19 7V4L10 4V7L19 7ZM8 10.5V13.5L5 13.5V10.5L8 10.5ZM19 13.5V10.5L10 10.5V13.5H19ZM8 17V20H5V17H8ZM19 20V17H10V20H19Z" />
		</symbol>

		
	</defs>
</svg>
