<svg width="94" height="122" viewBox="0 0 94 122" fill="none" xmlns="http://www.w3.org/2000/svg">
<g clip-path="url(#clip0_876_5719)">
<path d="M80.5963 16.8164H9.78434C9.68304 16.8164 9.58174 16.8262 9.48291 16.8312V117.296C9.58421 117.301 9.68304 117.311 9.78434 117.311H80.5963C83.9244 117.311 86.6496 114.619 86.6496 111.329V22.7981C86.6496 19.5086 83.9269 16.8164 80.5963 16.8164Z" fill="#2C2D38"/>
<path d="M84.8407 98.8897V98.7422H9.87296V98.7545C5.35889 98.8922 1.7417 102.632 1.7417 107.237C1.7417 111.842 5.41325 115.537 10.0459 115.537C10.6216 115.537 11.2442 115.579 11.8125 115.559H84.6801C80.8554 114.77 79.3334 111.342 79.3334 107.237C79.3334 103.131 80.9369 99.6174 84.8382 98.8897H84.8407Z" fill="white"/>
<path d="M85.5475 105.828H1.40332V106.389H85.5475V105.828Z" fill="#CCD4D3"/>
<path d="M85.5475 108.66H1.40332V109.221H85.5475V108.66Z" fill="#CCD4D3"/>
<path d="M85.5475 111.49H1.40332V112.051H85.5475V111.49Z" fill="#CCD4D3"/>
<path d="M85.5475 112.906H1.40332V113.467H85.5475V112.906Z" fill="#CCD4D3"/>
<path d="M85.5475 114.32H1.40332V114.881H85.5475V114.32Z" fill="#CCD4D3"/>
<path d="M85.5475 110.074H1.40332V110.635H85.5475V110.074Z" fill="#CCD4D3"/>
<path d="M85.5475 107.244H1.40332V107.805H85.5475V107.244Z" fill="#CCD4D3"/>
<path d="M85.5475 95.9688H1.40332V96.5293H85.5475V95.9688Z" fill="#CCD4D3"/>
<path d="M85.5475 98.8008H1.40332V99.3613H85.5475V98.8008Z" fill="#CCD4D3"/>
<path d="M85.5475 101.631H1.40332V102.191H85.5475V101.631Z" fill="#CCD4D3"/>
<path d="M85.5475 103.045H1.40332V103.605H85.5475V103.045Z" fill="#CCD4D3"/>
<path d="M85.5475 104.461H1.40332V105.021H85.5475V104.461Z" fill="#CCD4D3"/>
<path d="M85.5475 100.215H1.40332V100.775H85.5475V100.215Z" fill="#CCD4D3"/>
<path d="M85.5475 97.3848H1.40332V97.9453H85.5475V97.3848Z" fill="#CCD4D3"/>
<path d="M9.50498 115.546C9.4358 115.546 9.28755 115.507 9.21837 115.504C6.36464 115.418 1.85304 111.957 1.85304 107.735C1.85304 103.514 5.03291 100.421 9.2752 100.421C9.34438 100.421 9.66311 100.46 9.73229 100.463L9.48027 16.8315C9.55686 16.8266 9.63346 16.8241 9.70758 16.8192V0.0221273C9.56428 0.0147515 9.42097 0 9.2752 0C5.00326 0 0.990745 2.78804 0.338465 6.79308C0.19269 7.68554 0.180336 9.70404 0.195161 10.4121C0.195161 10.4121 0.00244141 107.657 0.00244141 108.06C0.00244141 108.463 0.037032 108.859 0.0889179 109.25V109.508H0.12845C0.827675 113.916 4.65241 117.292 9.28014 117.292C9.34932 117.292 9.41603 117.282 9.48521 117.282L9.50992 115.546H9.50498Z" fill="#2C2D38"/>
<path d="M80.8238 0H10.0143C9.91302 0 9.81172 0.00983435 9.71289 0.0147515V100.48C9.81419 100.485 9.91302 100.495 10.0143 100.495H80.8238C84.1519 100.495 86.8771 97.8026 86.8771 94.513V5.98174C86.8771 2.69215 84.1544 0 80.8238 0Z" fill="#3E404F"/>
<path d="M77.7153 21.6602L69.2702 17.2544L60.8252 21.6602V10.8301V0H69.2702H77.7153V10.8301V21.6602Z" fill="url(#paint0_linear_876_5719)"/>
<path d="M64.6155 10.0088H63.6989V11.4028C63.6989 11.6019 63.652 11.7519 63.5581 11.8552C63.4642 11.9584 63.3456 12.0101 63.1998 12.0101C63.054 12.0101 62.928 11.9584 62.8366 11.8576C62.7452 11.7568 62.6982 11.6069 62.6982 11.4102V7.61657C62.6982 7.39775 62.7477 7.2404 62.849 7.14698C62.9503 7.05355 63.1109 7.00684 63.3308 7.00684H64.6155C64.996 7.00684 65.2876 7.03634 65.4927 7.09535C65.6953 7.15189 65.8707 7.24532 66.0165 7.37317C66.1647 7.50347 66.2759 7.66082 66.3525 7.85013C66.4291 8.03698 66.4662 8.24842 66.4662 8.48445C66.4662 8.986 66.3105 9.36462 66.0016 9.62523C65.6903 9.88338 65.2283 10.0137 64.6155 10.0137V10.0088ZM64.3734 7.75425H63.6989V9.2589H64.3734C64.6106 9.2589 64.8058 9.23432 64.9664 9.18514C65.1245 9.13597 65.2456 9.05484 65.3296 8.9442C65.4136 8.83357 65.4556 8.68605 65.4556 8.50412C65.4556 8.28776 65.3914 8.11074 65.2629 7.97306C65.1196 7.828 64.8231 7.75425 64.3759 7.75425H64.3734Z" fill="white"/>
<path d="M67.9238 7.00441H69.2283C69.5668 7.00441 69.8584 7.03637 70.103 7.09784C70.3451 7.16176 70.565 7.27731 70.7651 7.44942C71.279 7.88704 71.5385 8.55578 71.5385 9.45071C71.5385 9.74574 71.5138 10.0162 71.4619 10.2596C71.41 10.503 71.3309 10.7243 71.2222 10.9185C71.1135 11.1152 70.9751 11.2897 70.8071 11.4446C70.6737 11.5626 70.5304 11.6585 70.3723 11.7298C70.2141 11.8011 70.0461 11.8527 69.8658 11.8798C69.6854 11.9093 69.4803 11.924 69.253 11.924H67.9485C67.7656 11.924 67.6297 11.897 67.5358 11.8429C67.4444 11.7888 67.3827 11.7101 67.3555 11.6118C67.3283 11.5135 67.3135 11.3832 67.3135 11.2233V7.61414C67.3135 7.40024 67.3629 7.24289 67.4593 7.14701C67.5556 7.05112 67.7113 7.00195 67.9287 7.00195L67.9238 7.00441ZM68.3117 7.79362V11.1324H69.0702C69.2357 11.1324 69.3667 11.1275 69.4606 11.1201C69.5545 11.1103 69.6533 11.0881 69.7546 11.0537C69.8559 11.0168 69.9424 10.9677 70.0165 10.9037C70.3525 10.621 70.5181 10.1367 70.5181 9.44825C70.5181 8.96391 70.4439 8.60004 70.2981 8.35663C70.1499 8.11569 69.9695 7.9608 69.7546 7.89442C69.5396 7.82804 69.2777 7.79608 68.9714 7.79608H68.3092L68.3117 7.79362Z" fill="white"/>
<path d="M75.3708 7.77442H73.3967V9.03322H75.0471C75.2003 9.03322 75.314 9.06764 75.3906 9.13648C75.4647 9.20532 75.5042 9.29629 75.5042 9.40938C75.5042 9.52248 75.4671 9.61344 75.3906 9.68228C75.314 9.74867 75.2003 9.78309 75.0496 9.78309H73.3991V11.4033C73.3991 11.6098 73.3522 11.7622 73.2583 11.8606C73.1644 11.9614 73.0458 12.0106 72.9 12.0106C72.7543 12.0106 72.6307 11.9614 72.5368 11.8606C72.4429 11.7598 72.396 11.6074 72.396 11.4033V7.61707C72.396 7.47447 72.4182 7.35646 72.4602 7.26549C72.5022 7.17453 72.5689 7.10814 72.6604 7.06635C72.7518 7.02455 72.8679 7.00488 73.0087 7.00488H75.3708C75.5314 7.00488 75.65 7.0393 75.7266 7.1106C75.8032 7.1819 75.8427 7.27287 75.8427 7.38842C75.8427 7.50398 75.8032 7.5974 75.7266 7.6687C75.65 7.74 75.5314 7.77442 75.3708 7.77442Z" fill="white"/>
<path d="M27.0424 52.7161H22.133C22.1379 53.2841 22.2541 53.7832 22.4789 54.2159C22.7038 54.6486 23.0002 54.9756 23.3709 55.1944C23.7415 55.4132 24.1516 55.5238 24.5988 55.5238C24.9003 55.5238 25.1745 55.4894 25.4216 55.4181C25.6687 55.3493 25.9108 55.2387 26.143 55.0887C26.3753 54.9387 26.5903 54.7789 26.7854 54.6093C26.9806 54.4396 27.2351 54.206 27.5489 53.9135C27.6774 53.8028 27.8627 53.7487 28.0999 53.7487C28.3568 53.7487 28.5669 53.82 28.725 53.9602C28.8831 54.1003 28.9647 54.2995 28.9647 54.5552C28.9647 54.7814 28.8757 55.0444 28.6978 55.3468C28.5199 55.6492 28.2531 55.9394 27.8923 56.2172C27.5341 56.495 27.0844 56.7236 26.5408 56.908C25.9973 57.09 25.3746 57.1834 24.6705 57.1834C23.0595 57.1834 21.8044 56.7261 20.91 55.8115C20.0156 54.8969 19.5684 53.6553 19.5684 52.0867C19.5684 51.3492 19.6795 50.6632 19.8994 50.0338C20.1193 49.402 20.443 48.8611 20.8655 48.4087C21.288 47.9563 21.8093 47.6121 22.4295 47.3712C23.0497 47.1302 23.7341 47.0098 24.4901 47.0098C25.471 47.0098 26.3111 47.2163 27.0152 47.6269C27.7169 48.0399 28.2432 48.571 28.5916 49.2225C28.9399 49.8765 29.1154 50.5403 29.1154 51.2164C29.1154 51.8458 28.935 52.2515 28.5718 52.4383C28.2111 52.6252 27.7021 52.7186 27.0449 52.7186L27.0424 52.7161ZM22.133 51.2975H26.6841C26.6224 50.4444 26.3926 49.8052 25.9899 49.3798C25.5871 48.957 25.0584 48.7431 24.4036 48.7431C23.7489 48.7431 23.2646 48.957 22.8644 49.3872C22.4616 49.8175 22.2195 50.4518 22.133 51.2951V51.2975Z" fill="white"/>
<path d="M37.1579 56.9526H33.0392C32.4437 56.9526 32.0212 56.8198 31.7667 56.5543C31.5122 56.2888 31.3862 55.8659 31.3862 55.2881V45.2055C31.3862 44.613 31.5172 44.1876 31.7766 43.9295C32.036 43.6713 32.4585 43.541 33.0416 43.541H37.4099C38.0523 43.541 38.6107 43.5804 39.0826 43.659C39.5546 43.7377 39.9771 43.8901 40.3526 44.1163C40.6713 44.3056 40.953 44.5441 41.1976 44.8342C41.4422 45.1243 41.63 45.444 41.7585 45.7955C41.887 46.1471 41.9512 46.5184 41.9512 46.9068C41.9512 48.2492 41.2767 49.2302 39.9276 49.8522C41.6992 50.4128 42.5837 51.5044 42.5837 53.127C42.5837 53.8769 42.391 54.553 42.0055 55.1529C41.6201 55.7528 41.0988 56.1978 40.4416 56.483C40.0314 56.6551 39.5595 56.7731 39.0258 56.8444C38.4921 56.9157 37.8695 56.9501 37.1604 56.9501L37.1579 56.9526ZM34.1139 45.5792V49.0458H36.6144C37.2938 49.0458 37.8201 48.9819 38.1907 48.854C38.5613 48.7262 38.8454 48.4828 39.0406 48.1214C39.1938 47.8657 39.2704 47.578 39.2704 47.2609C39.2704 46.5847 39.0283 46.1348 38.544 45.9111C38.0597 45.6874 37.321 45.5767 36.3277 45.5767H34.1115L34.1139 45.5792ZM36.9553 50.9954H34.1139V54.912H37.0467C38.8924 54.912 39.814 54.2506 39.814 52.9254C39.814 52.2493 39.5743 51.7576 39.0975 51.4527C38.6181 51.1479 37.9041 50.9954 36.9553 50.9954Z" fill="white"/>
<path d="M54.1666 52.1048C54.1666 52.8498 54.0504 53.5357 53.8182 54.1627C53.5859 54.7921 53.2474 55.3305 52.8076 55.7829C52.3654 56.2353 51.8391 56.5795 51.2264 56.8204C50.6136 57.0613 49.9243 57.1818 49.1583 57.1818C48.3924 57.1818 47.7154 57.0589 47.1076 56.8155C46.4998 56.5721 45.976 56.223 45.5313 55.7681C45.0865 55.3133 44.7505 54.7773 44.5207 54.1577C44.2909 53.5382 44.1748 52.8547 44.1748 52.1048C44.1748 51.355 44.2909 50.6567 44.5232 50.0273C44.7554 49.4004 45.089 48.862 45.5263 48.4169C45.9612 47.9719 46.4874 47.6277 47.1076 47.3868C47.7278 47.1459 48.4097 47.0254 49.1583 47.0254C49.907 47.0254 50.6087 47.1483 51.2264 47.3917C51.8465 47.6351 52.3753 47.9842 52.8175 48.4342C53.2598 48.8865 53.5933 49.4225 53.8231 50.0445C54.0529 50.6666 54.169 51.3525 54.169 52.1024L54.1666 52.1048ZM51.6464 52.1048C51.6464 51.087 51.4215 50.2929 50.9694 49.7249C50.5197 49.157 49.9144 48.8742 49.1534 48.8742C48.6617 48.8742 48.2318 49.0021 47.8562 49.2529C47.4832 49.5061 47.1941 49.8798 46.9915 50.374C46.7889 50.8682 46.6876 51.4435 46.6876 52.1024C46.6876 52.7613 46.7864 53.3243 46.9865 53.8135C47.1867 54.3028 47.4708 54.6741 47.8414 54.9347C48.212 55.1928 48.6493 55.3231 49.1509 55.3231C49.9119 55.3231 50.5172 55.0379 50.9669 54.4675C51.4166 53.8971 51.6439 53.1079 51.6439 52.1024L51.6464 52.1048Z" fill="white"/>
<path d="M65.5391 52.1048C65.5391 52.8498 65.423 53.5357 65.1907 54.1627C64.9585 54.7921 64.62 55.3305 64.1802 55.7829C63.7379 56.2353 63.2117 56.5795 62.5989 56.8204C61.9862 57.0613 61.2968 57.1818 60.5309 57.1818C59.7649 57.1818 59.088 57.0589 58.4802 56.8155C57.8723 56.5721 57.3485 56.223 56.9038 55.7681C56.4591 55.3133 56.123 54.7773 55.8933 54.1577C55.6635 53.5382 55.5474 52.8547 55.5474 52.1048C55.5474 51.355 55.6635 50.6567 55.8957 50.0273C56.128 49.4004 56.4615 48.862 56.8989 48.4169C57.3337 47.9719 57.86 47.6277 58.4802 47.3868C59.1003 47.1459 59.7822 47.0254 60.5309 47.0254C61.2795 47.0254 61.9812 47.1483 62.5989 47.3917C63.2191 47.6351 63.7478 47.9842 64.1901 48.4342C64.6323 48.8865 64.9659 49.4225 65.1957 50.0445C65.4255 50.6666 65.5416 51.3525 65.5416 52.1024L65.5391 52.1048ZM63.0189 52.1048C63.0189 51.087 62.7941 50.2929 62.3419 49.7249C61.8923 49.157 61.2869 48.8742 60.5259 48.8742C60.0343 48.8742 59.6043 49.0021 59.2288 49.2529C58.8557 49.5061 58.5666 49.8798 58.364 50.374C58.1614 50.8682 58.0601 51.4435 58.0601 52.1024C58.0601 52.7613 58.159 53.3243 58.3591 53.8135C58.5592 54.3028 58.8434 54.6741 59.214 54.9347C59.5846 55.1928 60.0219 55.3231 60.5235 55.3231C61.2845 55.3231 61.8898 55.0379 62.3395 54.4675C62.7892 53.8971 63.0165 53.1079 63.0165 52.1024L63.0189 52.1048Z" fill="white"/>
<path d="M73.7694 56.0381L71.5532 52.4142L70.1918 53.6951V55.6817C70.1918 56.1635 70.0633 56.5348 69.8113 56.7929C69.5568 57.0535 69.2652 57.1814 68.9342 57.1814C68.5487 57.1814 68.2448 57.0535 68.0249 56.7979C67.805 56.5422 67.6938 56.1635 67.6938 55.6644V45.0138C67.6938 44.4582 67.8001 44.0353 68.015 43.7477C68.23 43.4576 68.5364 43.3125 68.9342 43.3125C69.332 43.3125 69.626 43.4428 69.8533 43.7059C70.0806 43.9689 70.1943 44.3549 70.1943 44.8688V50.9267L73.0159 47.9814C73.3642 47.615 73.6311 47.3643 73.8164 47.2315C73.9992 47.0987 74.2241 47.0299 74.4884 47.0299C74.8022 47.0299 75.0616 47.1282 75.2692 47.3274C75.4767 47.5265 75.583 47.7748 75.583 48.0723C75.583 48.4387 75.242 48.9255 74.5626 49.5352L73.2283 50.7522L75.8029 54.7769C75.9931 55.0768 76.129 55.303 76.213 55.4579C76.2946 55.6128 76.3366 55.7628 76.3366 55.9029C76.3366 56.2988 76.2278 56.611 76.0104 56.8421C75.793 57.0708 75.5064 57.1838 75.1506 57.1838C74.8442 57.1838 74.607 57.1027 74.4415 56.938C74.2759 56.7733 74.0511 56.4758 73.7694 56.0406V56.0381Z" fill="white"/>
<g opacity="0.15">
<path opacity="0.08" d="M92.6696 107.341C94.1041 98.5478 88.103 90.2619 79.2658 88.8345C70.4285 87.4071 62.1017 93.3787 60.6672 102.172C59.2327 110.966 65.2338 119.252 74.071 120.679C82.9083 122.107 91.2351 116.135 92.6696 107.341Z" fill="black"/>
<path opacity="0.15" d="M92.5344 108.543C94.591 99.8728 89.1945 91.185 80.481 89.1386C71.7675 87.0921 63.0367 92.462 60.9801 101.133C58.9235 109.803 64.32 118.491 73.0335 120.537C81.747 122.584 90.4778 117.214 92.5344 108.543Z" fill="black"/>
<path opacity="0.23" d="M92.6301 108.636C94.6867 99.9656 89.2902 91.2778 80.5767 89.2313C71.8632 87.1849 63.1324 92.5548 61.0758 101.225C59.0192 109.896 64.4157 118.584 73.1292 120.63C81.8427 122.677 90.5735 117.307 92.6301 108.636Z" fill="black"/>
<path opacity="0.31" d="M92.7229 108.729C94.7795 100.058 89.383 91.3706 80.6695 89.3241C71.956 87.2777 63.2251 92.6476 61.1686 101.318C59.112 109.989 64.5085 118.677 73.222 120.723C81.9355 122.769 90.6663 117.4 92.7229 108.729Z" fill="black"/>
<path opacity="0.38" d="M92.8157 108.824C94.8722 100.153 89.4757 91.4653 80.7622 89.4188C72.0488 87.3724 63.3179 92.7423 61.2613 101.413C59.2048 110.083 64.6013 118.771 73.3148 120.818C82.0282 122.864 90.7591 117.494 92.8157 108.824Z" fill="black"/>
<path opacity="0.46" d="M93.1384 107.808C94.5728 99.0146 88.5717 90.7287 79.7345 89.3013C70.8973 87.8739 62.5704 93.8454 61.1359 102.639C59.7015 111.433 65.7026 119.719 74.5398 121.146C83.377 122.574 91.7039 116.602 93.1384 107.808Z" fill="black"/>
<path opacity="0.54" d="M77.2282 121.439C86.1811 121.439 93.4389 114.217 93.4389 105.309C93.4389 96.3997 86.1811 89.1777 77.2282 89.1777C68.2753 89.1777 61.0176 96.3997 61.0176 105.309C61.0176 114.217 68.2753 121.439 77.2282 121.439Z" fill="black"/>
<path opacity="0.62" d="M93.0954 109.102C95.152 100.431 89.7555 91.7436 81.042 89.6972C72.3285 87.6507 63.5977 93.0206 61.5411 101.691C59.4846 110.362 64.8811 119.05 73.5945 121.096C82.308 123.142 91.0389 117.773 93.0954 109.102Z" fill="black"/>
<path opacity="0.69" d="M93.1911 109.195C95.2477 100.524 89.8512 91.8364 81.1377 89.7899C72.4243 87.7435 63.6934 93.1134 61.6368 101.784C59.5803 110.455 64.9768 119.142 73.6902 121.189C82.4037 123.235 91.1346 117.865 93.1911 109.195Z" fill="black"/>
<path opacity="0.77" d="M88.972 116.994C95.3026 110.695 95.3026 100.481 88.972 94.1817C82.6413 87.8822 72.3773 87.8822 66.0466 94.1817C59.716 100.481 59.716 110.695 66.0466 116.994C72.3773 123.294 82.6413 123.294 88.972 116.994Z" fill="black"/>
<path opacity="0.85" d="M93.3767 109.383C95.4333 100.713 90.0368 92.0248 81.3233 89.9784C72.6098 87.932 63.8789 93.3019 61.8224 101.972C59.7658 110.643 65.1623 119.331 73.8758 121.377C82.5893 123.424 91.3201 118.054 93.3767 109.383Z" fill="black"/>
<path opacity="0.92" d="M93.7004 108.365C95.1349 99.5712 89.1337 91.2854 80.2965 89.858C71.4593 88.4305 63.1324 94.4021 61.6979 103.196C60.2635 111.989 66.2646 120.275 75.1018 121.703C83.939 123.13 92.2659 117.159 93.7004 108.365Z" fill="black"/>
<path d="M77.7893 122C86.7422 122 93.9999 114.778 93.9999 105.869C93.9999 96.9603 86.7422 89.7383 77.7893 89.7383C68.8364 89.7383 61.5786 96.9603 61.5786 105.869C61.5786 114.778 68.8364 122 77.7893 122Z" fill="black"/>
</g>
<path d="M77.7893 122C86.7422 122 93.9999 114.778 93.9999 105.869C93.9999 96.9603 86.7422 89.7383 77.7893 89.7383C68.8364 89.7383 61.5786 96.9603 61.5786 105.869C61.5786 114.778 68.8364 122 77.7893 122Z" fill="url(#paint1_linear_876_5719)"/>
<path d="M80.9742 105.983V95.7646H74.6045V105.983H69.4629L73.6261 110.978L77.7893 115.972L81.9526 110.978L86.1158 105.983H80.9742Z" fill="white"/>
</g>
<defs>
<linearGradient id="paint0_linear_876_5719" x1="69.2702" y1="-1.7456" x2="69.2702" y2="26.302" gradientUnits="userSpaceOnUse">
<stop stop-color="#FE5757"/>
<stop offset="1" stop-color="#CD0102"/>
</linearGradient>
<linearGradient id="paint1_linear_876_5719" x1="61.5786" y1="105.867" x2="93.9999" y2="105.867" gradientUnits="userSpaceOnUse">
<stop stop-color="#8CC63F"/>
<stop offset="1" stop-color="#39B54A"/>
</linearGradient>
<clipPath id="clip0_876_5719">
<rect width="94" height="122" fill="white"/>
</clipPath>
</defs>
</svg>
