<svg width="553" height="247" viewBox="0 0 553 247" fill="none" xmlns="http://www.w3.org/2000/svg">
<g clip-path="url(#clip0_876_5773)">
<path d="M352.71 242.34C352.62 242.15 352.37 242.09 352.18 242.19C351.84 242.38 351.53 242.59 351.19 242.78C349.77 243.65 348.32 244.48 346.8 245.31C346.61 245.4 346.55 245.65 346.68 245.84C346.74 245.96 346.87 246.03 347.02 246.03C347.08 246.03 347.14 246.03 347.21 246C349.03 244.95 350.86 243.9 352.59 242.88L352.68 242.79C352.8 242.67 352.8 242.51 352.71 242.36V242.34ZM148.68 241.41C147.63 239.65 146.67 237.8 145.84 235.94C145.75 235.75 145.5 235.66 145.31 235.75C145.12 235.84 145.03 236.06 145.12 236.28C145.98 238.13 146.94 240.02 147.99 241.81C148.05 241.93 148.18 242 148.33 242C148.39 242 148.45 241.97 148.52 241.94C148.71 241.85 148.77 241.6 148.67 241.41H148.68ZM363.25 235.79C363.25 235.79 363.22 235.73 363.22 235.7C363.1 235.51 362.85 235.48 362.69 235.58C362.57 235.64 362.47 235.73 362.35 235.8C361.48 236.39 360.56 237 359.66 237.56C358.95 238.05 358.21 238.52 357.5 238.98C357.31 239.07 357.25 239.32 357.38 239.51C357.44 239.63 357.57 239.7 357.69 239.7C357.75 239.7 357.84 239.67 357.91 239.64C358.99 238.96 360.04 238.28 361.09 237.57C361.77 237.14 362.45 236.71 363.13 236.24C363.25 236.15 363.32 235.96 363.25 235.81V235.79ZM373.32 228.5C373.2 228.31 372.95 228.28 372.79 228.41C371.15 229.65 369.45 230.88 367.79 232.09C367.6 232.21 367.57 232.43 367.7 232.62C367.79 232.71 367.89 232.77 368.01 232.77C368.1 232.77 368.16 232.77 368.26 232.71C369.93 231.51 371.63 230.27 373.26 229.03C373.45 228.91 373.48 228.66 373.32 228.5ZM141.7 224.33C141.64 224.11 141.42 223.99 141.21 224.05C141.02 224.11 140.9 224.33 140.93 224.51C141.49 226.55 142.1 228.56 142.78 230.47C142.84 230.66 142.97 230.75 143.15 230.75C143.18 230.75 143.21 230.75 143.27 230.72C143.46 230.66 143.58 230.44 143.49 230.23C142.81 228.31 142.22 226.34 141.7 224.33ZM382.99 220.65C382.84 220.5 382.59 220.5 382.43 220.62C380.92 221.92 379.34 223.25 377.67 224.61C377.52 224.73 377.48 224.98 377.61 225.14C377.7 225.23 377.8 225.29 377.92 225.29C378.01 225.29 378.07 225.26 378.17 225.2C379.84 223.87 381.44 222.51 382.93 221.21C383.12 221.06 383.12 220.84 382.99 220.65ZM139.51 212.15C139.51 211.96 139.32 211.78 139.11 211.81C138.89 211.84 138.74 212.03 138.77 212.24C138.99 214.34 139.26 216.41 139.6 218.42C139.63 218.61 139.82 218.73 140 218.73H140.06C140.28 218.7 140.4 218.51 140.37 218.3C140.03 216.29 139.72 214.25 139.51 212.15ZM392.08 212.21C391.93 212.06 391.68 212.06 391.52 212.21C390.1 213.63 388.58 215.08 387.07 216.5C386.92 216.62 386.88 216.87 387.04 217.03C387.1 217.12 387.23 217.15 387.32 217.15C387.41 217.15 387.51 217.12 387.6 217.06C389.11 215.64 390.63 214.19 392.08 212.73C392.23 212.58 392.23 212.33 392.08 212.2V212.21ZM400.45 203.03C400.3 202.88 400.05 202.91 399.89 203.06C398.62 204.6 397.23 206.18 395.81 207.73C395.66 207.88 395.69 208.13 395.84 208.29C395.9 208.35 395.99 208.38 396.09 208.38C396.21 208.38 396.31 208.32 396.37 208.26C397.82 206.68 399.21 205.11 400.51 203.56C400.63 203.41 400.6 203.16 400.45 203.03ZM139.05 202.57C139.05 201.67 139.05 200.75 139.08 199.82C139.08 199.6 138.93 199.42 138.71 199.42C138.49 199.42 138.31 199.57 138.31 199.79C138.28 200.72 138.28 201.64 138.28 202.57C138.28 203.74 138.31 204.89 138.34 206.03C138.34 206.22 138.53 206.4 138.71 206.4H138.74C138.96 206.37 139.11 206.21 139.11 206C139.08 204.86 139.05 203.71 139.05 202.57ZM407.93 193.15C407.74 193.03 407.53 193.06 407.4 193.24C406.26 194.91 405.02 196.61 403.79 198.24C403.64 198.43 403.7 198.67 403.85 198.8C403.91 198.83 404 198.86 404.1 198.86C404.2 198.86 404.32 198.83 404.41 198.71C405.65 197.07 406.88 195.37 408.02 193.67C408.14 193.48 408.11 193.24 407.93 193.14V193.15ZM139.76 187.06C139.51 187 139.36 187.15 139.33 187.37C139.05 189.47 138.84 191.54 138.65 193.58C138.65 193.8 138.8 193.98 139.02 193.98H139.05C139.24 193.98 139.42 193.83 139.42 193.64C139.61 191.6 139.82 189.53 140.1 187.49C140.13 187.27 139.98 187.06 139.76 187.06ZM414.26 182.46C414.07 182.4 413.86 182.46 413.73 182.65C412.83 184.41 411.81 186.23 410.73 188.03C410.61 188.22 410.67 188.46 410.85 188.59C410.91 188.62 410.97 188.62 411.04 188.62C411.19 188.62 411.32 188.56 411.38 188.43C412.49 186.61 413.51 184.78 414.44 182.99C414.53 182.8 414.44 182.56 414.25 182.46H414.26ZM141.98 174.83C141.76 174.8 141.58 174.92 141.52 175.14C141.09 177.18 140.65 179.22 140.28 181.23C140.25 181.45 140.4 181.63 140.59 181.69H140.68C140.87 181.69 141.02 181.57 141.05 181.38C141.42 179.37 141.82 177.33 142.29 175.29C142.32 175.07 142.2 174.89 141.98 174.83ZM419.14 171.06C418.92 171 418.71 171.09 418.65 171.31C418 173.19 417.23 175.14 416.39 177.06C416.3 177.28 416.39 177.49 416.61 177.59C416.64 177.59 416.7 177.62 416.76 177.62C416.88 177.62 417.04 177.53 417.1 177.37C417.93 175.42 418.71 173.48 419.36 171.56C419.45 171.37 419.33 171.16 419.14 171.07V171.06ZM145.19 162.84C145 162.78 144.79 162.9 144.73 163.12C144.11 165.1 143.53 167.11 143 169.08C142.97 169.3 143.09 169.51 143.28 169.54C143.31 169.57 143.34 169.57 143.4 169.57C143.55 169.57 143.71 169.45 143.77 169.29C144.26 167.31 144.85 165.3 145.47 163.33C145.53 163.11 145.41 162.9 145.19 162.84ZM422.41 159.1C422.19 159.04 422.01 159.19 421.95 159.38C421.52 161.36 420.99 163.37 420.44 165.4C420.41 165.59 420.5 165.8 420.72 165.86C420.75 165.86 420.78 165.89 420.81 165.89C421 165.89 421.15 165.77 421.18 165.58C421.74 163.57 422.26 161.53 422.72 159.56C422.75 159.34 422.63 159.13 422.41 159.1ZM149.24 151.1C149.02 151.04 148.81 151.13 148.75 151.32C148.01 153.27 147.3 155.24 146.65 157.19C146.56 157.38 146.68 157.59 146.87 157.68H146.99C147.18 157.68 147.3 157.59 147.36 157.43C148.04 155.48 148.75 153.51 149.46 151.59C149.52 151.4 149.43 151.16 149.24 151.1ZM424.64 146.87C424.45 146.84 424.24 146.99 424.21 147.21C423.93 149.25 423.59 151.29 423.22 153.33C423.19 153.55 423.31 153.73 423.53 153.79H423.59C423.78 153.79 423.93 153.67 423.99 153.48C424.36 151.41 424.7 149.34 424.98 147.33C424.98 147.11 424.86 146.9 424.64 146.87ZM153.94 139.61C153.75 139.52 153.54 139.61 153.45 139.83C152.62 141.71 151.78 143.63 151.01 145.55C150.95 145.74 151.04 145.98 151.23 146.04C151.29 146.07 151.32 146.07 151.38 146.07C151.53 146.07 151.66 145.98 151.72 145.82C152.49 143.94 153.33 142.02 154.16 140.14C154.25 139.92 154.16 139.71 153.94 139.61ZM425.72 134.51C425.53 134.54 425.35 134.66 425.32 134.88C425.23 136.95 425.1 139.02 424.92 141.06C424.89 141.28 425.04 141.46 425.26 141.49H425.29C425.48 141.49 425.66 141.34 425.66 141.12C425.88 139.08 426 137.01 426.09 134.91C426.12 134.72 425.94 134.54 425.72 134.51ZM159.28 128.39C159.09 128.3 158.85 128.36 158.75 128.54C157.82 130.39 156.9 132.28 156.03 134.13C155.94 134.35 156.03 134.56 156.22 134.66C156.28 134.69 156.31 134.69 156.37 134.69C156.52 134.69 156.65 134.63 156.71 134.47C157.61 132.62 158.53 130.73 159.46 128.91C159.55 128.69 159.46 128.48 159.27 128.38L159.28 128.39ZM426.09 122.49C426.09 122.27 425.9 122.12 425.69 122.12C425.48 122.12 425.32 122.31 425.32 122.52C425.41 124.56 425.47 126.63 425.47 128.7C425.47 128.92 425.66 129.1 425.84 129.1C426.06 129.1 426.24 128.91 426.24 128.7C426.24 126.63 426.18 124.53 426.09 122.49ZM165.15 117.42C164.96 117.33 164.72 117.39 164.62 117.57C163.57 119.39 162.58 121.25 161.62 123.04C161.53 123.23 161.59 123.44 161.77 123.53C161.83 123.56 161.89 123.59 161.96 123.59C162.08 123.59 162.24 123.53 162.3 123.37C163.26 121.61 164.25 119.76 165.3 117.93C165.39 117.74 165.33 117.53 165.15 117.4V117.42ZM424.92 110.07C424.89 109.85 424.7 109.7 424.49 109.76C424.27 109.79 424.15 109.98 424.18 110.19C424.46 112.23 424.71 114.3 424.89 116.34C424.92 116.56 425.08 116.68 425.29 116.68H425.32C425.54 116.68 425.69 116.49 425.66 116.28C425.47 114.21 425.23 112.14 424.92 110.07ZM171.49 106.76C171.34 106.64 171.09 106.7 170.96 106.88C169.88 108.64 168.8 110.4 167.75 112.19C167.63 112.38 167.69 112.59 167.87 112.72C167.93 112.75 167.99 112.78 168.06 112.78C168.21 112.78 168.34 112.72 168.4 112.59C169.45 110.8 170.53 109.04 171.61 107.28C171.73 107.09 171.67 106.88 171.49 106.75V106.76ZM423.87 103.7H423.84C423.5 101.75 423.04 99.81 422.57 97.83C422.54 97.61 422.32 97.49 422.11 97.55C421.92 97.58 421.77 97.8 421.83 98.01C422.29 99.89 422.69 101.78 423.07 103.66C423.1 103.78 423.13 103.94 423.16 104.06C423.19 104.25 423.35 104.37 423.53 104.37H423.59C423.81 104.31 423.93 104.12 423.9 103.91C423.9 103.85 423.87 103.76 423.87 103.69V103.7ZM178.44 96.16C178.29 96.04 178.04 96.07 177.91 96.25L177.76 96.47C176.62 98.17 175.44 99.9 174.33 101.63C174.21 101.82 174.24 102.06 174.42 102.19C174.48 102.22 174.57 102.25 174.64 102.25C174.76 102.25 174.89 102.19 174.95 102.06C176.09 100.33 177.24 98.6 178.41 96.9L178.56 96.68C178.65 96.53 178.62 96.28 178.44 96.15V96.16ZM420.53 90.41C420.07 88.87 419.57 87.35 419.08 85.87C419.02 85.65 418.77 85.56 418.59 85.62C418.37 85.71 418.28 85.93 418.34 86.11C418.93 87.81 419.48 89.54 420.01 91.3C420.07 91.55 420.16 91.76 420.23 92.01C420.29 92.2 420.45 92.29 420.6 92.29H420.72C420.91 92.23 421.03 92.01 420.97 91.8C420.85 91.34 420.69 90.87 420.54 90.41H420.53ZM185.57 85.99C185.38 85.87 185.14 85.9 185.01 86.08C183.84 87.75 182.63 89.42 181.43 91.15C181.31 91.3 181.37 91.55 181.52 91.68C181.61 91.74 181.67 91.74 181.77 91.74C181.87 91.74 181.99 91.71 182.08 91.59C183.25 89.89 184.46 88.19 185.66 86.52C185.78 86.33 185.72 86.12 185.57 85.99ZM192.92 75.98C192.73 75.86 192.52 75.89 192.36 76.04C191.12 77.68 189.89 79.35 188.65 81.05C188.53 81.2 188.59 81.45 188.74 81.58C188.8 81.64 188.89 81.67 188.96 81.67C189.08 81.67 189.21 81.61 189.3 81.48C190.5 79.81 191.74 78.14 192.98 76.51C193.1 76.36 193.07 76.11 192.92 75.98ZM416.88 80.03C416.69 79.57 416.48 79.07 416.26 78.58C416.17 78.33 416.04 78.05 415.92 77.78C415.46 76.64 414.93 75.46 414.41 74.32C414.32 74.13 414.1 74.04 413.88 74.13C413.69 74.22 413.6 74.44 413.69 74.62C414.06 75.42 414.43 76.23 414.77 77.03C415.02 77.56 415.23 78.08 415.42 78.57C415.67 79.1 415.88 79.59 416.07 80.11C416.1 80.17 416.13 80.23 416.16 80.3C416.22 80.45 416.35 80.55 416.5 80.55C416.56 80.55 416.59 80.55 416.65 80.52C416.8 80.46 416.93 80.3 416.9 80.12C416.9 80.09 416.9 80.06 416.87 80.03H416.88ZM200.55 66.16C200.36 66.04 200.15 66.07 199.99 66.22C198.72 67.76 197.52 69.37 196.28 70.95C196.25 71.01 196.19 71.04 196.16 71.1C196.01 71.29 196.04 71.53 196.22 71.66C196.28 71.72 196.37 71.75 196.44 71.75C196.53 71.75 196.63 71.72 196.69 71.66L196.75 71.6C198.05 69.93 199.31 68.32 200.61 66.72C200.73 66.57 200.7 66.32 200.55 66.16ZM411.69 68.72C411.29 67.98 410.92 67.27 410.52 66.56C409.93 65.45 409.32 64.37 408.67 63.29C408.58 63.1 408.33 63.04 408.14 63.14C407.95 63.26 407.89 63.48 408.02 63.67C408.67 64.78 409.29 65.93 409.94 67.1C410.28 67.75 410.65 68.43 410.99 69.11C411.08 69.23 411.21 69.3 411.33 69.3C411.39 69.3 411.45 69.3 411.52 69.27C411.71 69.18 411.8 68.93 411.71 68.74L411.69 68.72ZM208.49 56.61C208.3 56.49 208.09 56.52 207.93 56.67C206.6 58.21 205.24 59.79 203.91 61.4C203.79 61.59 203.79 61.83 203.97 61.96C204.03 62.02 204.12 62.05 204.22 62.05C204.32 62.05 204.44 61.99 204.5 61.9C205.83 60.29 207.19 58.72 208.52 57.17C208.64 57.02 208.64 56.77 208.49 56.61ZM405.38 57.97C404.27 56.24 403.09 54.54 401.89 52.84C401.77 52.65 401.52 52.62 401.33 52.75C401.18 52.87 401.11 53.12 401.24 53.31C402.44 54.98 403.65 56.68 404.76 58.41C404.82 58.5 404.95 58.56 405.07 58.56C405.13 58.56 405.22 58.56 405.29 58.5C405.48 58.41 405.51 58.16 405.38 57.97ZM216.77 47.37C216.62 47.25 216.37 47.25 216.24 47.4C214.82 48.88 213.43 50.43 212.04 51.97C211.89 52.16 211.92 52.37 212.07 52.53C212.13 52.59 212.22 52.62 212.32 52.62C212.42 52.62 212.54 52.59 212.6 52.5C213.99 50.96 215.41 49.41 216.8 47.93C216.95 47.78 216.92 47.53 216.77 47.37ZM398.12 47.9C396.82 46.26 395.46 44.66 394.1 43.11C393.98 42.96 393.73 42.96 393.57 43.08C393.38 43.23 393.38 43.48 393.54 43.64C394.87 45.15 396.23 46.76 397.49 48.37C397.58 48.46 397.68 48.52 397.8 48.52C397.89 48.52 397.95 48.49 398.05 48.43C398.2 48.31 398.24 48.06 398.11 47.9H398.12ZM225.48 38.54C225.33 38.39 225.11 38.39 224.95 38.54C223.5 39.93 222.02 41.41 220.53 42.93C220.38 43.08 220.38 43.33 220.53 43.46C220.59 43.55 220.68 43.58 220.81 43.58C220.9 43.58 221 43.55 221.09 43.46C222.54 41.98 224.03 40.49 225.48 39.1C225.63 38.95 225.63 38.7 225.48 38.54ZM389.9 38.57C388.45 37.09 386.96 35.6 385.45 34.21C385.3 34.06 385.05 34.06 384.89 34.21C384.77 34.36 384.77 34.61 384.92 34.77C386.43 36.16 387.92 37.64 389.34 39.1C389.4 39.16 389.49 39.22 389.62 39.22C389.71 39.22 389.81 39.19 389.87 39.1C390.02 38.95 390.02 38.7 389.9 38.57ZM234.68 30.2C234.53 30.05 234.28 30.01 234.12 30.17C233.01 31.13 231.9 32.09 230.81 33.07C230.53 33.29 230.28 33.53 230.04 33.78C229.85 33.93 229.64 34.09 229.45 34.27C229.3 34.42 229.3 34.67 229.42 34.83C229.51 34.89 229.61 34.95 229.73 34.95C229.82 34.95 229.92 34.92 229.98 34.86L231 33.93L232.11 32.91C232.94 32.17 233.78 31.46 234.61 30.75C234.76 30.6 234.8 30.35 234.67 30.19L234.68 30.2ZM380.81 30.08C379.23 28.72 377.6 27.42 375.99 26.16C375.8 26.04 375.56 26.07 375.43 26.22C375.31 26.41 375.34 26.65 375.49 26.78C377.13 28.02 378.73 29.34 380.31 30.67C380.37 30.73 380.46 30.76 380.56 30.76C380.66 30.76 380.78 30.7 380.84 30.61C380.99 30.46 380.96 30.21 380.81 30.08ZM244.38 22.48C244.26 22.33 244.01 22.26 243.85 22.42C242.21 23.59 240.58 24.89 238.91 26.19C238.76 26.34 238.72 26.56 238.85 26.75C238.94 26.84 239.04 26.9 239.16 26.9C239.25 26.9 239.31 26.87 239.41 26.81C241.05 25.48 242.69 24.21 244.32 23.04C244.47 22.92 244.51 22.67 244.38 22.48ZM370.96 22.48C369.26 21.28 367.53 20.13 365.77 19.02C365.62 18.93 365.37 18.96 365.24 19.14C365.12 19.33 365.18 19.57 365.36 19.67C367.09 20.78 368.82 21.93 370.52 23.1C370.58 23.16 370.67 23.16 370.74 23.16C370.86 23.16 370.99 23.13 371.05 23.01C371.17 22.82 371.14 22.61 370.96 22.48ZM254.7 15.56C254.58 15.41 254.33 15.34 254.17 15.44C252.41 16.52 250.65 17.63 248.92 18.81C248.73 18.93 248.7 19.18 248.83 19.37C248.89 19.46 249.02 19.52 249.14 19.52C249.23 19.52 249.29 19.49 249.36 19.46C251.09 18.29 252.82 17.17 254.58 16.12C254.77 16 254.8 15.75 254.7 15.56ZM360.45 15.84C358.63 14.82 356.77 13.8 354.95 12.87C354.76 12.78 354.52 12.87 354.42 13.06C354.33 13.25 354.42 13.46 354.61 13.59C356.43 14.52 358.26 15.47 360.05 16.49C360.11 16.55 360.17 16.55 360.24 16.55C360.39 16.55 360.52 16.49 360.58 16.36C360.7 16.17 360.64 15.93 360.46 15.83L360.45 15.84ZM265.6 9.69C265.51 9.47 265.29 9.41 265.07 9.5C263.25 10.37 261.36 11.32 259.54 12.31C259.35 12.43 259.29 12.65 259.39 12.84C259.45 12.99 259.61 13.06 259.73 13.06C259.79 13.06 259.85 13.03 259.92 13C261.74 12.01 263.6 11.08 265.42 10.19C265.61 10.1 265.7 9.88 265.61 9.7L265.6 9.69ZM349.33 10.18C347.45 9.35 345.53 8.51 343.61 7.74C343.42 7.68 343.18 7.77 343.12 7.96C343.03 8.18 343.12 8.39 343.34 8.49C345.26 9.23 347.17 10.07 349.02 10.9C349.08 10.93 349.11 10.93 349.17 10.93C349.32 10.93 349.48 10.84 349.54 10.71C349.63 10.49 349.54 10.28 349.32 10.18H349.33ZM276.63 4.8C274.68 5.45 272.71 6.19 270.79 6.96C270.57 7.05 270.48 7.27 270.57 7.45C270.63 7.6 270.79 7.7 270.91 7.7C270.97 7.7 271.03 7.7 271.06 7.67C272.98 6.9 274.92 6.16 276.87 5.51C277.06 5.45 277.18 5.23 277.09 5.05C277.03 4.83 276.81 4.74 276.63 4.8ZM337.77 5.57C335.79 4.89 333.82 4.27 331.84 3.72C331.62 3.66 331.41 3.78 331.35 4C331.29 4.19 331.41 4.4 331.63 4.46C333.58 5.02 335.58 5.63 337.53 6.31H337.65C337.8 6.31 337.96 6.22 338.02 6.06C338.08 5.84 337.99 5.63 337.77 5.57ZM288.65 1.58C286.61 1.98 284.57 2.45 282.59 3C282.37 3.03 282.25 3.25 282.31 3.46C282.34 3.61 282.5 3.74 282.68 3.74H282.77C284.75 3.21 286.79 2.75 288.79 2.35C288.98 2.32 289.13 2.1 289.1 1.89C289.04 1.7 288.85 1.55 288.64 1.58H288.65ZM325.79 2.2C323.75 1.77 321.68 1.37 319.67 1.06C319.45 1.03 319.24 1.18 319.21 1.37C319.18 1.59 319.33 1.8 319.55 1.83C321.56 2.14 323.6 2.51 325.64 2.94C325.67 2.97 325.7 2.97 325.7 2.97C325.89 2.97 326.04 2.85 326.1 2.66C326.13 2.44 326.01 2.26 325.79 2.2ZM301.06 0.09H301.03C298.96 0.21 296.86 0.4 294.82 0.65C294.6 0.68 294.45 0.87 294.48 1.08C294.51 1.27 294.67 1.42 294.88 1.42H294.91C296.95 1.17 299.02 0.99 301.09 0.86C301.28 0.86 301.46 0.67 301.43 0.46C301.43 0.27 301.24 0.09 301.06 0.09ZM313.48 0.34C311.44 0.15 309.34 0.03 307.27 0C307.05 0 306.87 0.15 306.87 0.37C306.87 0.59 307.02 0.77 307.24 0.77C309.31 0.8 311.38 0.92 313.42 1.11H313.45C313.67 1.11 313.82 0.96 313.85 0.74C313.85 0.52 313.7 0.34 313.48 0.34Z" fill="#D1D0D1"/>
<path d="M309.86 78.5996L330.25 113.91L330.28 113.97L336.06 123.98L339.46 129.85V129.88L361.55 168.1L361.58 168.13L369.49 181.88L377.43 168.13L377.46 168.1L414.32 104.24L415.62 102.02L425.69 84.5996L428.47 79.7496L428.72 79.3496L429.15 78.6096H309.86V78.5996ZM424.54 83.4496L420.52 90.4296L419.99 91.3296L414.18 101.37L412.91 103.59L375.65 168.1L375.62 168.13L369.47 178.79L363.32 168.13L363.29 168.1L341.2 129.88V129.85L337.8 123.98L330.26 110.91L330.23 110.85L312.5 80.1396H426.44L424.52 83.4496H424.54Z" fill="white"/>
<path d="M338.27 227.041C336.07 225.721 336.71 225.551 334.22 226.011C331.53 226.511 325.75 229.281 322.82 231.591C322.79 231.591 322.77 231.571 322.74 231.571C309.49 229.301 307.16 219.931 301.81 215.491C298.84 196.041 283.88 143.101 283.88 143.101L261.34 151.481C264.63 173.781 277.84 216.201 281.27 225.771C281.83 226.931 282.56 227.851 283.37 228.601C284.49 230.981 286.52 233.271 289.78 235.161C303.29 242.981 316.08 243.081 320.98 242.771C321.14 242.931 321.32 243.071 321.52 243.181C324.84 244.991 338.43 246.761 341.61 245.721C344.84 244.661 351.45 237.971 350.98 236.121C350.21 233.091 343.8 230.351 338.28 227.041H338.27Z" fill="white" stroke="#231F20" stroke-width="1.5" stroke-miterlimit="10"/>
<path d="M263.65 128.81C257.29 143.11 259.62 188.44 259.62 188.44L300.29 178.75C300.29 178.75 280.43 91.0801 263.64 128.81H263.65Z" fill="#231F20"/>
<path d="M185.48 242.77C185.76 238.38 186.07 233.81 186.41 229.15C187.71 210.8 189.44 190.99 191.26 173.97C192.74 159.73 194.29 147.46 195.65 139.61C196.18 136.68 196.67 134.33 197.13 132.78C198.86 126.88 201.3 122.03 205.32 118.35C209.92 114.02 216.57 111.28 226.58 110.16C228.8 109.88 231.21 109.73 233.78 109.63C243.67 109.29 252.19 110.03 259.27 111.76C267.49 113.74 273.73 117.07 277.65 121.62C280.86 125.3 282.56 129.78 282.62 135C282.65 137.32 282.68 140.19 282.71 143.53C282.9 153.32 283.27 167.13 284.1 182.61C285 198.95 286.39 217.15 288.61 234.42C288.73 235.47 288.86 236.52 289.01 237.54C289.23 239.3 289.47 241.03 289.75 242.76" fill="#231F20"/>
<path d="M236.18 149.811V195.751H274.61V149.811H236.18ZM273.07 194.211H237.73V151.361H273.07V194.211Z" fill="white"/>
<path d="M255.15 69.9204C257.54 68.1204 270.01 69.7504 266.42 44.3704C265.11 35.1104 256.41 41.2904 250.25 42.5304C244.09 43.7704 248.01 70.3904 248.01 70.3904L255.15 69.9304V69.9204Z" fill="#232323"/>
<path d="M224.1 63.8398C225.14 70.5698 227.21 106.98 226.34 115.43C225.48 123.88 266.37 126.3 261.02 116.98C255.67 107.66 259.47 76.7798 259.47 76.7798L224.1 63.8398Z" fill="white" stroke="#231F20" stroke-width="1.5" stroke-miterlimit="10"/>
<path d="M226.93 64.8701L259.47 76.7901C259.47 76.7901 257.27 94.7801 258.6 107.44C233.79 105.52 227.42 74.1901 227.01 68.1501C226.94 67.0201 226.91 65.9201 226.94 64.8701H226.93Z" fill="#231F20"/>
<path d="M269.91 62.69C272.93 83.47 278.05 104.2 252.85 100.78C227.66 97.37 223.74 65.07 223.82 58.98C224.21 26.47 263.98 21.82 269.91 62.69Z" fill="white" stroke="#231F20" stroke-width="1.5" stroke-miterlimit="10"/>
<path d="M267.23 39.4803C261.3 32.6003 227.97 30.0003 222.45 36.0903C221.84 34.1803 223.08 31.8203 223.09 31.8003L221.73 31.0703C221.67 31.1903 220.16 34.0303 220.98 36.5803C221.01 36.6603 221.07 36.7203 221.11 36.8003C215.01 38.1403 218.9 64.6403 218.9 64.6403L226.04 64.1803C228.43 62.3803 236.72 49.7203 238.54 42.0803C251.59 44.2903 274.76 48.2303 267.22 39.4803H267.23Z" fill="#231F20"/>
<path d="M263.68 227.77C261.13 227.91 251.23 229.63 247.75 228.83C236.07 226.1 205.96 212.6 189.76 205.05C199.73 183.41 214.41 145.11 214.41 145.11L191.33 138.34C180.62 158.18 165.83 200.07 162.85 209.79C162.68 210.66 162.67 211.48 162.72 212.27C162.61 216.11 164.38 220.04 169 222.86C181.83 230.68 230.22 238.25 243.62 239.74C243.87 240.24 244.19 240.69 244.73 240.99C248.01 242.83 262.92 244.21 265.99 244.75C269.84 245.43 281.51 246.42 281.01 244.85C280.19 242.29 275.86 227.09 263.68 227.77Z" fill="white" stroke="#231F20" stroke-width="1.5" stroke-miterlimit="10"/>
<path d="M205.18 118.41C192.16 127.11 169.94 166.68 169.94 166.68L209.51 180.2C209.51 180.2 239.51 95.4602 205.18 118.41Z" fill="#231F20"/>
<path d="M230.21 66.4808C232.49 71.6108 235.33 76.5708 228.19 77.4908C221.04 78.4108 217.72 70.3908 217.31 68.8208C215.15 60.4308 225.73 56.4008 230.21 66.4808Z" fill="white" stroke="#231F20" stroke-width="1.5" stroke-miterlimit="10"/>
<path d="M552.81 244.23C552.81 245.03 550.83 245.68 548.42 245.68H4.39C1.98 245.68 0 245.02 0 244.23C0 243.44 1.98 242.78 4.39 242.78H548.42C550.83 242.78 552.81 243.44 552.81 244.23Z" fill="#231F20"/>
<path d="M409.2 235.81H317.5C314 235.81 311.67 232.97 312.31 229.47L322.31 174.47C322.95 170.97 326.3 168.13 329.81 168.13H421.51C425.01 168.13 427.34 170.97 426.7 174.47L416.7 229.47C416.06 232.97 412.71 235.81 409.2 235.81Z" fill="#2B2B2B"/>
<path d="M411.44 235.81H319.74C316.24 235.81 313.91 232.97 314.55 229.47L324.55 174.47C325.19 170.97 328.54 168.13 332.05 168.13H423.75C427.25 168.13 429.58 170.97 428.94 174.47L418.94 229.47C418.3 232.97 414.95 235.81 411.44 235.81Z" fill="#5E739D"/>
<path d="M371.17 149.574C376.046 149.574 380 145.64 380 140.787C380 135.934 376.046 132 371.17 132C366.293 132 362.339 135.934 362.339 140.787C362.339 145.64 366.293 149.574 371.17 149.574Z" fill="#5956D6"/>
<path d="M372.905 140.848V135.282H369.435V140.848H366.634L368.902 143.569L371.17 146.289L373.438 143.569L375.705 140.848H372.905Z" fill="white"/>
<path d="M361.36 189.29L356.76 214.62H382.09L386.72 189.29H361.36ZM380.82 213.08H358.61L362.66 190.84H384.87L380.82 213.08Z" fill="white"/>
<path d="M301.42 237.56C301.42 240.42 303.76 242.77 306.63 242.77H402.56C405.42 242.77 407.77 240.43 407.77 237.56H301.42Z" fill="#232323"/>
<path d="M273.55 237.56C273.55 240.42 275.89 242.77 278.76 242.77H316.49C319.35 242.77 321.7 240.43 321.7 237.56H273.56H273.55Z" fill="#2B2B2B"/>
<path d="M324.03 26.2998H300.63C299.884 26.2998 299.28 26.9042 299.28 27.6498V51.0498C299.28 51.7954 299.884 52.3998 300.63 52.3998H324.03C324.775 52.3998 325.38 51.7954 325.38 51.0498V27.6498C325.38 26.9042 324.775 26.2998 324.03 26.2998Z" fill="#DD4E6D"/>
<path d="M318.84 31.5H295.44C294.694 31.5 294.09 32.1044 294.09 32.85V56.25C294.09 56.9956 294.694 57.6 295.44 57.6H318.84C319.585 57.6 320.19 56.9956 320.19 56.25V32.85C320.19 32.1044 319.585 31.5 318.84 31.5Z" fill="#FF5D78"/>
<path d="M392.77 63.5504V114.13C392.77 115.57 391.6 116.75 390.15 116.75H350.91C349.47 116.75 348.29 115.58 348.29 114.13V72.9704L360.32 60.9404H390.15C391.59 60.9404 392.77 62.1104 392.77 63.5604V63.5504Z" fill="white"/>
<path d="M360.32 60.9404V71.2304C360.32 72.1904 359.54 72.9704 358.58 72.9704H348.3L360.33 60.9404H360.32Z" fill="#DEE1E6"/>
<path d="M377.59 89.0806V103.911C377.59 104.871 376.81 105.651 375.85 105.651H346.18C344.73 105.651 343.56 104.481 343.56 103.031V85.1406L343.6 85.1606C343.69 85.7006 343.95 86.1906 344.32 86.5606C344.79 87.0306 345.45 87.3306 346.17 87.3306H375.84C376.81 87.3306 377.58 88.1106 377.58 89.0706L377.59 89.0806Z" fill="#FF5D78"/>
<path d="M348.29 82.0901V87.3401H346.18C345.46 87.3401 344.8 87.0401 344.33 86.5701C343.86 86.0901 343.56 85.4401 343.56 84.7101C343.56 83.2601 344.73 82.0801 346.18 82.0801H348.29V82.0901Z" fill="#DD4E6D"/>
<path d="M390.16 60.0703H360.33C360.1 60.0703 359.88 60.1503 359.71 60.3203L347.68 72.3503C347.51 72.5203 347.43 72.7403 347.43 72.9703V81.2103H346.18C344.26 81.2103 342.69 82.7803 342.69 84.7103V103.02C342.69 104.95 344.25 106.51 346.18 106.51H347.43V114.13C347.43 116.05 348.99 117.62 350.92 117.62H390.16C392.08 117.62 393.65 116.05 393.65 114.13V63.5603C393.65 61.6303 392.08 60.0703 390.16 60.0703ZM359.45 63.0403V71.2303C359.45 71.7103 359.06 72.1003 358.58 72.1003H350.4L359.45 63.0403ZM346.18 82.9603H347.42C347.42 83.1203 347.42 86.6103 347.42 86.4703H346.18C345 86.4703 344.28 85.2703 344.44 84.5903C344.5 83.6703 345.26 82.9603 346.18 82.9603ZM346.18 104.77C345.21 104.77 344.44 103.99 344.44 103.03V87.7303C344.96 88.0403 345.57 88.2103 346.18 88.2103C390.22 88.2003 367.93 88.2103 375.86 88.2103C376.34 88.2103 376.73 88.6003 376.73 89.0803V103.91C376.73 104.4 376.34 104.78 375.86 104.78H346.18V104.77ZM391.9 114.14C391.9 115.1 391.12 115.88 390.16 115.88H350.92C349.95 115.88 349.18 115.1 349.18 114.14V106.52H375.87C377.31 106.52 378.49 105.35 378.49 103.9V89.0703C378.49 87.6303 377.31 86.4503 375.87 86.4503H349.18V73.8403H358.59C360.03 73.8403 361.21 72.6603 361.21 71.2203V61.8003H390.17C391.13 61.8003 391.91 62.5803 391.91 63.5403V114.12L391.9 114.14Z" fill="black"/>
<path d="M355.87 95.3405C355.87 97.2805 354.63 97.9005 352.7 97.9005H351.4V100.05H350.17V92.7305H352.68C354.64 92.7305 355.87 93.3605 355.87 95.3405ZM354.6 95.2405C354.6 94.1005 353.8 93.8505 352.65 93.8505H351.39V96.7805H352.82C354 96.7805 354.59 96.4205 354.59 95.2405H354.6Z" fill="white"/>
<path d="M363.92 96.3507C363.92 98.6307 362.57 100.041 359.75 100.041H357.32V92.7207H359.83C362.32 92.7207 363.91 93.9507 363.91 96.3407L363.92 96.3507ZM362.67 96.3807C362.67 94.7107 361.71 93.8707 359.79 93.8707H358.56V98.8807H359.93C361.66 98.8807 362.67 98.0707 362.67 96.3807Z" fill="white"/>
<path d="M366.74 93.8807V95.8907H369.98V97.0307H366.74V100.041H365.51V92.7207H370.39V93.8707H366.75L366.74 93.8807Z" fill="white"/>
</g>
<defs>
<clipPath id="clip0_876_5773">
<rect width="552.81" height="246.78" fill="white"/>
</clipPath>
</defs>
</svg>
