<svg width="165" height="40" viewBox="0 0 165 40" fill="none" xmlns="http://www.w3.org/2000/svg">
<g clip-path="url(#clip0_876_5695)">
<path d="M137.222 13.4111V21.7519C137.222 23.2232 137.774 24.2587 139.148 24.2587C141.501 24.2587 142.388 21.0181 142.388 17.4427V13.4111H146.973L146.954 27.9261H143.837L142.816 22.2751C142.235 25.7291 140.493 27.96 137.529 27.96C134.135 27.96 132.638 25.6068 132.638 21.7555V13.4111H137.222Z" fill="black"/>
<path d="M63.3195 13.3829C63.4547 13.1276 63.5279 12.8441 63.5327 12.5553C63.5327 11.8517 63.1051 11.4517 62.3107 11.4241L63.6903 9.25391C65.3407 9.31459 66.3799 10.2323 66.3799 11.5161C66.3799 12.4633 65.8603 13.1971 64.6071 13.9301C65.2867 14.2801 65.8571 14.8102 66.2563 15.4624C66.6551 16.1147 66.8671 16.8641 66.8691 17.6287C66.8691 20.1658 64.4543 22.3664 60.1451 22.3664C59.0551 22.3876 57.9699 22.2221 56.9355 21.8772C56.7315 21.9556 56.5527 22.0881 56.4179 22.2605C56.2835 22.4329 56.1983 22.6386 56.1715 22.8557C56.1715 23.6502 57.0275 23.8939 58.0971 23.8939H61.4895C65.9523 23.8939 68.1831 25.5142 68.1831 27.9897C68.1831 31.1081 65.1883 32.7275 59.8703 32.7275C55.4375 32.7275 51.8623 31.7491 51.8623 29.3655C51.8623 27.7148 53.9095 26.7676 56.5079 26.7373C53.9407 26.3694 52.6263 25.6061 52.6263 23.8939C52.6263 22.3664 54.4299 21.571 55.8047 21.3576C55.0999 21.022 54.5051 20.4935 54.0887 19.8336C53.6719 19.1736 53.4511 18.4091 53.4515 17.6287C53.4515 14.8469 56.0491 12.8605 60.1451 12.8605C61.2247 12.8605 62.2971 13.0369 63.3195 13.3829ZM59.1315 27.0757C57.2675 27.0757 56.1367 27.5649 56.1367 28.6657C56.1367 29.8262 57.6035 30.4377 60.0487 30.4377C62.5555 30.4377 63.9919 29.702 63.9919 28.5121C63.9919 27.6844 63.1971 27.0757 61.5467 27.0757H59.1315ZM60.1431 15.1862C59.4947 15.1862 58.8727 15.4438 58.4143 15.9024C57.9555 16.3609 57.6979 16.9829 57.6979 17.6314C57.6979 18.2799 57.9555 18.9019 58.4143 19.3605C58.8727 19.819 59.4947 20.0766 60.1431 20.0766C60.4691 20.094 60.7947 20.0426 61.0991 19.9259C61.4035 19.8091 61.6803 19.6296 61.9107 19.399C62.1415 19.1684 62.3211 18.8919 62.4379 18.5873C62.5543 18.2828 62.6059 17.9571 62.5883 17.6314C62.6115 17.3042 62.5639 16.9758 62.4487 16.6685C62.3339 16.3613 62.1543 16.0823 61.9223 15.8504C61.6903 15.6186 61.4111 15.4393 61.1035 15.3247C60.7963 15.2101 60.4679 15.1629 60.1403 15.1862H60.1431Z" fill="black"/>
<path d="M95.0751 28.0241C92.6299 28.0241 91.3159 26.4341 90.5515 24.6308V32.7306H85.9663V13.4751H88.6259L89.6035 17.9987C90.1847 15.7364 91.4683 13.1689 94.9527 13.1689C98.8039 13.1689 100.913 16.3783 100.913 20.5965C100.913 24.8147 98.8647 28.0241 95.0751 28.0241ZM93.4859 16.2257C91.8655 16.2257 90.5515 17.8809 90.5515 20.5965C90.5515 23.3121 91.8655 24.9673 93.4859 24.9673C95.3499 24.9673 96.3283 23.164 96.3283 20.5965C96.3283 18.029 95.3499 16.2257 93.4859 16.2257Z" fill="black"/>
<path d="M73.4666 13.4111V21.7519C73.4666 23.2232 74.0186 24.2587 75.3914 24.2587C77.7454 24.2587 78.6322 21.0181 78.6322 17.4427V13.4111H83.2162L83.1986 27.9261H80.0814L79.0598 22.2751C78.4786 25.7291 76.7366 27.96 73.7718 27.96C70.3794 27.96 68.8813 25.6068 68.8813 21.7555V13.4111H73.4666Z" fill="black"/>
<path d="M108.146 27.9566C106.875 27.9994 105.611 27.7461 104.454 27.2167C103.297 26.6873 102.279 25.8964 101.481 24.9063L103.513 22.8143C104.027 23.5373 104.697 24.1358 105.473 24.5656C106.249 24.9953 107.111 25.2453 107.997 25.2972C109.193 25.2972 109.581 24.7289 109.581 24.1017C109.581 23.3853 108.953 22.9366 107.309 22.3986C103.393 21.1112 102.229 19.798 102.229 17.4328C102.229 14.6234 104.619 13.4279 107.877 13.4279C110.141 13.413 112.324 14.269 113.975 15.8189L112.39 17.9717C111.205 16.8463 109.658 16.1789 108.027 16.0883C107.13 16.0883 106.622 16.447 106.622 17.1348C106.622 18.1206 107.459 18.3303 109.521 19.1368C112.361 20.2403 113.975 21.2592 113.975 23.5904C113.975 26.3427 111.733 27.9566 108.146 27.9566Z" fill="black"/>
<path d="M125.608 27.9558V19.6123C125.608 18.1409 125.057 17.1055 123.683 17.1055C121.33 17.1055 120.443 20.3452 120.443 23.9215V27.9558H115.858V7.59961H120.443V18.6035C121.023 15.3021 122.857 13.4068 125.302 13.4068C128.696 13.4068 130.193 15.761 130.193 19.6123V27.9558H125.608Z" fill="black"/>
<path d="M158.831 28.0241C156.386 28.0241 155.071 26.4341 154.307 24.6308V32.7306H149.723V13.4751H152.382L153.36 17.9987C153.941 15.7364 155.225 13.1689 158.709 13.1689C162.559 13.1689 164.669 16.3783 164.669 20.5965C164.669 24.8147 162.621 28.0241 158.831 28.0241ZM157.241 16.2257C155.622 16.2257 154.307 17.8809 154.307 20.5965C154.307 23.3121 155.622 24.9673 157.241 24.9673C159.106 24.9673 160.084 23.164 160.084 20.5965C160.084 18.029 159.106 16.2257 157.241 16.2257Z" fill="black"/>
<path d="M43.7078 11.0593C43.4838 8.28946 41.0098 5.80762 38.1919 5.52562H38.1619C37.4119 5.45362 36.96 6.15358 37.086 6.89754C37.7979 11.1053 37.7299 18.667 37.3219 23.9187C37.102 26.6866 34.6241 29.1664 31.8062 29.4484H31.7962C28.3424 29.7704 24.8586 29.8904 21.4507 29.9944C20.7908 30.0144 20.2428 30.1604 19.7908 30.3764C18.5849 30.9484 18.9788 32.7643 20.3128 32.8283C21.8007 32.8983 23.2846 32.9443 24.7526 32.9623C25.3905 32.9703 26.0005 33.2222 26.4525 33.6742L32.2322 39.454C32.5882 39.8099 33.0662 39.9999 33.5501 39.9999C33.7921 39.9999 34.0341 39.9519 34.2701 39.8559C34.97 39.5659 35.4221 38.888 35.4221 38.132V32.7343C35.4221 32.6823 35.462 32.6383 35.51 32.6343C36.398 32.5723 37.2979 32.4983 38.1819 32.4143H38.1939C41.0118 32.1323 43.4858 29.6504 43.7098 26.8866C44.1174 21.6308 44.1174 16.3071 43.7098 11.0573L43.7078 11.0593Z" fill="#FF3964"/>
<path d="M35.1222 6.09168V6.08768C34.9022 3.31984 32.4244 0.83996 29.6065 0.557972H29.5965C21.6029 -0.183989 13.8293 -0.187989 5.83172 0.557972H5.81972C3.00385 0.83996 0.529972 3.32184 0.305985 6.09168C-0.101995 11.3394 -0.101995 16.6652 0.305985 21.9209C0.529972 24.6848 3.00385 27.1646 5.82172 27.4486H5.83372C6.71768 27.5326 7.6176 27.6066 8.50556 27.6686C8.55356 27.6726 8.59356 27.7166 8.59356 27.7686V33.1663C8.59356 33.9223 9.04556 34.6023 9.74552 34.8902C9.97952 34.9862 10.2235 35.0342 10.4655 35.0342C10.9494 35.0342 11.4274 34.8442 11.7834 34.4883L17.5631 28.7086C18.0151 28.2566 18.6131 28.0046 19.251 27.9966C22.6609 27.9566 26.1427 27.7726 29.5965 27.4506H29.6065C32.4244 27.1686 34.9022 24.6868 35.1222 21.9209C35.5302 16.6692 35.5302 11.3434 35.1222 6.09568V6.09168Z" fill="#5E34F1"/>
<path d="M22.5689 19.4048C22.1969 19.4048 21.8289 19.2268 21.6029 18.8948C21.2389 18.3629 21.3749 17.6349 21.9069 17.2689L25.5167 14.799L21.9069 12.3292C21.3749 11.9652 21.2369 11.2372 21.6029 10.7033C21.9669 10.1713 22.6948 10.0333 23.2288 10.3993L28.2485 13.8331C28.5665 14.0511 28.7565 14.4111 28.7565 14.797C28.7565 15.183 28.5665 15.543 28.2485 15.761L23.2288 19.1948C23.0268 19.3328 22.7968 19.3988 22.5689 19.3988V19.4048Z" fill="white"/>
<path d="M12.8596 19.4048C12.6316 19.4048 12.4016 19.3388 12.1996 19.2008L7.17988 15.767C6.86188 15.549 6.67188 15.189 6.67188 14.803C6.67188 14.417 6.86188 14.057 7.17988 13.8391L12.1996 10.4052C12.7336 10.0412 13.4596 10.1772 13.8255 10.7092C14.1895 11.2412 14.0535 11.9692 13.5216 12.3351L9.91171 14.805L13.5216 17.2749C14.0535 17.6389 14.1915 18.3668 13.8255 18.9008C13.5996 19.2328 13.2316 19.4108 12.8596 19.4108V19.4048Z" fill="white"/>
<path d="M16.0031 22.8386C15.9091 22.8386 15.8131 22.8266 15.7191 22.8026C15.0932 22.6466 14.7112 22.0106 14.8692 21.3846L18.303 7.64733C18.459 7.02137 19.0929 6.63941 19.7209 6.79737C20.3469 6.95337 20.7289 7.58933 20.5709 8.21533L17.137 21.9526C17.0051 22.4846 16.5271 22.8386 16.0031 22.8386Z" fill="white"/>
</g>
<defs>
<clipPath id="clip0_876_5695">
<rect width="164.8" height="40" fill="white"/>
</clipPath>
</defs>
</svg>
