<svg aria-hidden="true" version="1.1" xmlns="http://www.w3.org/2000/svg" xmlns:xlink="http://www.w3.org/1999/xlink" display="none">
	<defs>

		<symbol id="la_icon-register" viewBox="0 0 48 64">
			<path fill="currentColor" d="M12.2,45.3c-1.1-1.1-0.6-0.8-3.1-1.5c-1.3-0.3-2.3-0.9-3.3-1.6L0.2,56.1c-0.6,1.4,0.5,2.9,1.9,2.8l6.6-0.3
	l4.5,4.8c1,1.1,2.8,0.8,3.3-0.5l6.6-16c-1.4,0.8-2.9,1.1-4.5,1.1C16.2,47.9,13.8,47.1,12.2,45.3z M47.8,56.1l-5.6-13.9
	c-1,0.8-2,1.4-3.1,1.6c-2.8,0.8-2.1,0.4-3.3,1.5c-1.6,1.8-4,2.6-6.4,2.6c-1.6,0-3.1-0.4-4.5-1.1l6.6,16c0.5,1.3,2.3,1.6,3.3,0.5
	l4.5-4.8l6.6,0.3C47.3,58.9,48.4,57.4,47.8,56.1z M32.9,42.4c1.9-1.9,2.1-1.8,4.8-2.5c1.8-0.4,3.1-1.8,3.6-3.6
	c0.9-3.5,0.6-3.1,3.3-5.6c1.3-1.4,1.8-3.3,1.3-5c-0.9-3.5-0.9-3,0-6.6c0.5-1.8,0-3.6-1.3-4.9c-2.6-2.6-2.4-2.3-3.3-5.8
	c-0.5-1.8-1.9-3.1-3.6-3.6c-3.5-1-3-0.8-5.6-3.4c-1.3-1.3-3.1-1.8-4.9-1.3c-3.4,0.9-3,0.9-6.4,0c-1.8-0.5-3.6,0-4.9,1.3
	c-2.6,2.6-2.1,2.4-5.6,3.4C8.6,5.3,7.2,6.7,6.7,8.4c-0.9,3.5-0.6,3.1-3.3,5.8c-1.3,1.3-1.8,3.1-1.3,4.9c0.9,3.6,0.9,3.1,0,6.6
	c-0.5,1.8,0,3.6,1.3,5c2.6,2.5,2.4,2.1,3.3,5.6c0.5,1.9,1.9,3.3,3.6,3.6c2.8,0.8,3,0.6,4.9,2.5c1.6,1.8,4.1,2,6.1,0.8
	c0.8-0.5,1.8-0.8,2.6-0.8c1,0,2,0.3,2.8,0.8C28.7,44.4,31.2,44.2,32.9,42.4z M12.2,21.9c0-6.6,5.3-12,11.9-12
	c6.5,0,11.8,5.4,11.8,12s-5.3,12-11.8,12C17.4,33.9,12.2,28.6,12.2,21.9z"></path>
		</symbol>

		<symbol id="la_icon-check-circle" viewBox="0 0 62 62">
			<path fill="currentColor" d="M31,0C13.9,0,0,14,0,31c0,17.1,13.9,31,31,31c17,0,31-13.9,31-31C62,14,48,0,31,0z M31,6c13.8,0,25,11.3,25,25
	c0,13.9-11.3,25-25,25C17.1,56,6,44.9,6,31C6,17.3,17.1,6,31,6z M48.5,22.4l-2.9-2.9c-0.5-0.6-1.5-0.6-2.1,0L25.9,37l-7.5-7.5
	c-0.6-0.6-1.5-0.6-2.1,0l-2.9,2.8c-0.5,0.6-0.5,1.6,0,2.1l11.4,11.5c0.6,0.6,1.5,0.6,2.1,0l21.6-21.4C49,23.9,49,22.9,48.5,22.4z"/>
		</symbol>

		<symbol id="la_icon-dice-one" viewBox="0 0 36.8 36.8">
			<path fill="currentColor" d="M31.5,0H5.3C2.3,0,0,2.4,0,5.3v26.3c0,3,2.3,5.3,5.3,5.3h26.3c2.9,0,5.3-2.3,5.3-5.3V5.3
	C36.8,2.4,34.4,0,31.5,0z M18.4,21c-1.5,0-2.6-1.1-2.6-2.6c0-1.4,1.1-2.6,2.6-2.6c1.4,0,2.6,1.2,2.6,2.6C21,19.9,19.8,21,18.4,21z"/>
		</symbol>

		<symbol id="la_icon-dice-two" viewBox="0 0 36.8 36.8">
			<path fill="currentColor" d="M31.5,0H5.3C2.3,0,0,2.4,0,5.3v26.3c0,3,2.3,5.3,5.3,5.3h26.3c2.9,0,5.3-2.3,5.3-5.3V5.3
	C36.8,2.4,34.4,0,31.5,0z M10.5,13.1c-1.5,0-2.6-1.1-2.6-2.6c0-1.4,1.1-2.6,2.6-2.6c1.4,0,2.6,1.2,2.6,2.6
	C13.1,12,11.9,13.1,10.5,13.1z M26.3,28.9c-1.5,0-2.6-1.1-2.6-2.6c0-1.4,1.1-2.6,2.6-2.6c1.4,0,2.6,1.2,2.6,2.6
	C28.9,27.7,27.6,28.9,26.3,28.9z"/>
		</symbol>

		<symbol id="la_icon-three" viewBox="0 0 36.8 36.8">
			<path fill="currentColor" d="M31.5,0H5.3C2.3,0,0,2.4,0,5.3v26.3c0,3,2.3,5.3,5.3,5.3h26.3c2.9,0,5.3-2.3,5.3-5.3V5.3
	C36.8,2.4,34.4,0,31.5,0z M10.5,13.1c-1.5,0-2.6-1.1-2.6-2.6c0-1.4,1.1-2.6,2.6-2.6c1.4,0,2.6,1.2,2.6,2.6
	C13.1,12,11.9,13.1,10.5,13.1z M18.4,21c-1.5,0-2.6-1.1-2.6-2.6c0-1.4,1.1-2.6,2.6-2.6c1.4,0,2.6,1.2,2.6,2.6
	C21,19.9,19.8,21,18.4,21z M26.3,28.9c-1.5,0-2.6-1.1-2.6-2.6c0-1.4,1.1-2.6,2.6-2.6c1.4,0,2.6,1.2,2.6,2.6
	C28.9,27.7,27.6,28.9,26.3,28.9z"/>
		</symbol>

		<symbol id="la_icon-tags" viewBox="0 0 32.5 26">
			<path fill="currentColor" d="M25.2,11.5L14.5,0.8C14.1,0.4,13.4,0,12.8,0H2.4C1.1,0,0,1.1,0,2.4v10.4c0,0.6,0.3,1.3,0.7,1.7l10.7,10.7
	c1,1,2.5,1,3.5,0l10.4-10.4C26.2,14,26.2,12.4,25.2,11.5z M5.7,8.1c-1.4,0-2.4-1.1-2.4-2.4c0-1.3,1.1-2.4,2.4-2.4
	c1.3,0,2.4,1.1,2.4,2.4C8.1,7.1,7,8.1,5.7,8.1z M31.7,14.9c1-0.9,1-2.5,0-3.5L21,0.8C20.6,0.4,19.9,0,19.3,0h-2.5l10,10
	c0.9,0.9,1.4,2,1.4,3.2c0,1.2-0.5,2.4-1.4,3.3l-8.8,8.8c1,1,2.5,1,3.5,0L31.7,14.9z"/>
		</symbol>

		<symbol id="la_icon-search" viewBox="0 0 24 24">
			<path fill="currentColor" d="M23.7,20.8L19,16.1c-0.2-0.2-0.5-0.3-0.8-0.3h-0.8c1.3-1.6,2.1-3.7,2.1-6c0-5.3-4.4-9.8-9.8-9.8
	C4.4,0,0,4.4,0,9.8c0,5.4,4.4,9.8,9.8,9.8c2.3,0,4.3-0.8,6-2.1v0.8c0,0.3,0.1,0.6,0.3,0.8l4.6,4.6c0.5,0.5,1.2,0.5,1.6,0l1.3-1.3
	C24.1,21.9,24.1,21.2,23.7,20.8z M9.8,15.8c-3.3,0-6-2.7-6-6c0-3.3,2.7-6,6-6c3.3,0,6,2.7,6,6C15.8,13.1,13,15.8,9.8,15.8z"/>
		</symbol>

		<symbol id="la_icon-close" viewBox="0 0 16.5 16.5">
			<path fill="currentColor" d="M11.4,8.2l4.7-4.7c0.6-0.6,0.6-1.5,0-2.1l-1-1c-0.6-0.6-1.5-0.6-2.1,0L8.3,5.1L3.6,0.5C3-0.2,2.1-0.2,1.5,0.5
	l-1,1c-0.6,0.6-0.6,1.5,0,2.1l4.7,4.7L0.5,13c-0.6,0.6-0.6,1.5,0,2.1l1,1c0.6,0.6,1.5,0.6,2.1,0l4.7-4.7l4.7,4.7
	c0.6,0.6,1.5,0.6,2.1,0l1-1c0.6-0.6,0.6-1.5,0-2.1L11.4,8.2z"/>
		</symbol>

		<symbol id="la_icon-twitter" viewBox="0 0 24 20">
			<path fill="currentColor" d="M21.6,5c0.9-0.7,1.8-1.6,2.4-2.6c-0.8,0.4-1.8,0.7-2.8,0.8c1-0.6,1.8-1.6,2.2-2.8c-0.9,0.6-2,1-3.1,1.3
	C19.3,0.6,18,0,16.6,0c-2.7,0-4.9,2.3-4.9,5.1c0,0.4,0,0.8,0.1,1.2C7.7,6,4.1,4,1.6,0.9C1.2,1.6,1,2.5,1,3.5c0,1.7,0.8,3.3,2.2,4.2
	C2.4,7.6,1.6,7.4,0.9,7v0c0,2.5,1.7,4.5,3.9,5c-0.4,0.1-0.8,0.2-1.3,0.2c-0.3,0-0.6,0-0.9-0.1c0.6,2,2.4,3.5,4.6,3.5
	c-1.7,1.3-3.8,2.2-6.1,2.2c-0.4,0-0.8,0-1.2-0.1C2.2,19.2,4.7,20,7.6,20c9.1,0,14-7.7,14-14.4C21.6,5.4,21.6,5.2,21.6,5z"/>
		</symbol>

		<symbol id="la_icon-facebook" viewBox="0 0 11 22">
			<path fill="currentColor" d="M10.3,12.4l0.6-4H7.3V5.8c0-1.1,0.5-2.1,2.1-2.1H11V0.3C11,0.3,9.5,0,8.1,0C5.2,0,3.3,1.9,3.3,5.4v3.1H0v4h3.3
	V22h4v-9.6H10.3z"/>
		</symbol>

		<symbol id="la_icon-instagram" viewBox="0 0 24 24">
			<path fill="currentColor" d="M12,5.8c-3.4,0-6.2,2.8-6.2,6.2c0,3.4,2.7,6.2,6.2,6.2c3.4,0,6.2-2.7,6.2-6.2C18.2,8.6,15.4,5.8,12,5.8z M12,16
	c-2.2,0-4-1.8-4-4c0-2.2,1.8-4,4-4c2.2,0,4,1.8,4,4C16,14.2,14.2,16,12,16z M19.8,5.6c0-0.8-0.6-1.4-1.4-1.4S17,4.8,17,5.6
	C17,6.4,17.6,7,18.4,7S19.8,6.4,19.8,5.6z M23.9,7c-0.1-1.9-0.5-3.6-1.9-5c-1.4-1.4-3.1-1.8-5-1.9C15,0,9,0,7,0.1
	C5.1,0.2,3.5,0.6,2,2C0.6,3.4,0.2,5.1,0.1,7C0,9,0,15,0.1,17c0.1,1.9,0.5,3.6,1.9,5c1.4,1.4,3.1,1.8,5,1.9C9,24,15,24,17,23.9
	c1.9-0.1,3.6-0.5,5-1.9c1.4-1.4,1.8-3.1,1.9-5C24,15,24,9,23.9,7z M21.3,19c-0.4,1.1-1.2,1.9-2.3,2.3c-1.6,0.6-5.4,0.5-7.1,0.5
	c-1.8,0-5.5,0.2-7.1-0.5c-1.1-0.4-1.9-1.2-2.3-2.3C2,17.5,2.2,13.7,2.2,12c0-1.7-0.2-5.5,0.5-7.1c0.4-1,1.2-1.8,2.3-2.3
	C6.5,2,10.3,2.2,12,2.2c1.7,0,5.5-0.2,7.1,0.5c1,0.4,1.8,1.2,2.3,2.3c0.6,1.6,0.5,5.4,0.5,7.1C21.8,13.7,22,17.5,21.3,19z"/>
		</symbol>

		<symbol id="la_icon-linkedin" viewBox="0 0 22 22">
			<path fill="currentColor" d="M4.9,22V7.3H0.3V22H4.9z M2.6,5.3c1.5,0,2.7-1.2,2.7-2.7C5.3,1.2,4.1,0,2.6,0C1.2,0,0,1.2,0,2.6
	C0,4.1,1.2,5.3,2.6,5.3z M22,22v-8.1c0-3.9-0.9-7-5.5-7c-2.2,0-3.7,1.2-4.3,2.4h0v-2H7.8V22h4.6v-7.3c0-1.9,0.3-3.7,2.7-3.7
	c2.4,0,2.4,2.2,2.4,3.9V22H22z"/>
		</symbol>

		<symbol id="la_icon-chevron-top" viewBox="0 0 18.8 11.4">
			<path fill="currentColor" d="M10.1,0.3c-0.4-0.4-1-0.4-1.4,0L0.3,8.6c-0.4,0.4-0.4,1.1,0,1.5l1,1c0.4,0.4,1,0.4,1.5,0l6.6-6.6l6.7,6.6
	c0.4,0.4,1.1,0.4,1.5,0l1-1c0.4-0.4,0.4-1,0-1.5L10.1,0.3z"/>
		</symbol>

		<symbol id="la_icon-check" viewBox="0 0 31.5 31.5">
			<path fill="currentColor" d="M28.1,31.5c1.8,0,3.4-1.5,3.4-3.4V3.4C31.5,1.5,30,0,28.1,0H3.4C1.5,0,0,1.5,0,3.4v24.8c0,1.9,1.5,3.4,3.4,3.4
	H28.1z M13.7,24.6c-0.4,0.5-1.2,0.5-1.6,0l-7.3-7.3c-0.4-0.4-0.4-1.1,0-1.5l1.6-1.6c0.4-0.4,1.1-0.4,1.5,0l5,4.9L23.5,8.5
	c0.4-0.4,1.1-0.4,1.5,0l1.6,1.6c0.4,0.4,0.4,1.1,0,1.5L13.7,24.6z"/>
		</symbol>
		
	</defs>
</svg>
