<svg width="206" height="46" viewBox="0 0 206 46" fill="none" xmlns="http://www.w3.org/2000/svg">
<path d="M170.544 10.3984V21.0612C170.544 22.9357 171.255 24.2628 173.032 24.2628C176.071 24.2628 177.217 20.1228 177.217 15.555V10.3984H183.14L183.117 28.9433H179.089L177.771 21.7236C177.02 26.1373 174.771 28.987 170.939 28.987C166.556 28.987 164.621 25.9809 164.621 21.0589V10.3984H170.544Z" fill="white"/>
<path d="M75.075 10.3663C75.2727 9.97533 75.3517 9.62343 75.3517 9.31293C75.3517 8.41363 74.7983 7.90763 73.7728 7.86853L75.5494 5.09473C77.6817 5.17293 79.0234 6.34363 79.0234 7.98583C79.0234 9.19563 78.3514 10.134 76.733 11.0701C78.6281 12.1626 79.6559 13.8048 79.6559 15.7966C79.6559 19.0373 76.5376 21.8502 70.9684 21.8502C69.4291 21.8502 68.0455 21.6547 66.8224 21.2246C66.348 21.4592 65.8364 21.8893 65.8364 22.4735C65.8364 23.4878 66.9409 23.8006 68.3245 23.8006H72.7078C78.4723 23.8006 81.3558 25.8706 81.3558 29.0331C81.3558 33.0167 77.4864 35.0867 70.615 35.0867C64.89 35.0867 60.2695 33.8378 60.2695 30.7903C60.2695 28.6812 62.9158 27.4714 66.2712 27.4323C62.9553 26.9631 61.2578 25.9879 61.2578 23.8006C61.2578 21.8479 63.5878 20.8336 65.3644 20.5599C63.3901 19.5065 62.3251 17.8252 62.3251 15.7943C62.3251 12.2408 65.6806 9.70163 70.9731 9.70163C72.5497 9.70163 73.8914 9.97533 75.075 10.3663ZM69.6663 27.8624C67.2572 27.8624 65.7969 28.488 65.7969 29.8933C65.7969 31.3768 67.692 32.1588 70.8499 32.1588C74.0077 32.1588 75.9424 31.2204 75.9424 29.6978C75.9424 28.6444 74.9169 27.8624 72.7845 27.8624H69.6663ZM70.9684 12.6709C68.8361 12.6709 67.8502 14.1935 67.8502 15.7943C67.8502 17.3951 68.8361 18.9177 70.9684 18.9177C73.1008 18.9177 74.1263 17.4733 74.1263 15.7943C74.1263 14.1153 73.1008 12.6709 70.9684 12.6709Z" fill="white"/>
<path d="M116.098 29.0724C112.94 29.0724 111.241 27.0415 110.255 24.7369V35.0869H104.332V10.4838H107.767L109.029 16.2637C109.78 13.3726 111.438 10.0928 115.938 10.0928C120.912 10.0928 123.637 14.1937 123.637 19.5826C123.637 24.9715 120.993 29.0724 116.098 29.0724ZM114.045 13.9982C111.952 13.9982 110.255 16.1073 110.255 19.5826C110.255 23.0579 111.952 25.167 114.045 25.167C116.454 25.167 117.717 22.8624 117.717 19.5826C117.717 16.3028 116.454 13.9982 114.045 13.9982Z" fill="white"/>
<path d="M88.1844 10.3984V21.0612C88.1844 22.9357 88.8959 24.2628 90.6725 24.2628C93.7117 24.2628 94.8581 20.1228 94.8581 15.555V10.3984H100.781L100.758 28.9433H96.73L95.4115 21.7236C94.6605 26.1373 92.4118 28.987 88.5797 28.987C84.1964 28.987 82.2617 25.9809 82.2617 21.0589V10.3984H88.1844Z" fill="white"/>
<path d="M132.986 28.9874C128.816 28.9874 126.112 27.1934 124.375 25.0912L127 22.4186C128.621 24.4035 130.667 25.588 132.793 25.588C134.337 25.588 134.839 24.8635 134.839 24.0608C134.839 23.1454 134.028 22.5704 131.904 21.885C126.847 20.2428 125.34 18.5615 125.34 15.5462C125.34 11.9559 128.428 10.4287 132.637 10.4287C135.765 10.4287 138.506 11.6132 140.513 13.4831L138.467 16.2339C136.962 14.8976 134.876 13.8281 132.83 13.8281C131.672 13.8281 131.016 14.2858 131.016 15.1644C131.016 16.4248 132.097 16.6916 134.762 17.722C138.429 19.1342 140.515 20.4337 140.515 23.4122C140.513 26.9243 137.618 28.9874 132.986 28.9874Z" fill="white"/>
<path d="M155.542 28.9873V18.3268C155.542 16.4523 154.83 15.1252 153.054 15.1252C150.014 15.1252 148.868 19.2652 148.868 23.833V28.9873H142.945V2.97656H148.868V17.0365C149.619 12.8183 151.986 10.3964 155.146 10.3964C159.53 10.3964 161.464 13.4048 161.464 18.3245V28.985H155.542V28.9873Z" fill="white"/>
<path d="M198.462 29.0724C195.304 29.0724 193.604 27.0415 192.618 24.7369V35.0869H186.695V10.4838H190.13L191.393 16.2637C192.144 13.3726 193.802 10.0928 198.301 10.0928C203.275 10.0928 206 14.1937 206 19.5826C206 24.9715 203.356 29.0724 198.462 29.0724ZM196.408 13.9982C194.315 13.9982 192.618 16.1073 192.618 19.5826C192.618 23.0579 194.315 25.167 196.408 25.167C198.817 25.167 200.08 22.8624 200.08 19.5826C200.08 16.3028 198.817 13.9982 196.408 13.9982Z" fill="white"/>
<path d="M40.8377 7.0058V7.0012C40.5819 3.818 37.7008 0.966001 34.4244 0.641701H34.4128C25.1184 -0.211599 16.0821 -0.216199 6.78303 0.641701H6.76908C3.49267 0.966001 0.616216 3.8203 0.355778 7.0058C-0.118593 13.041 -0.118593 19.1659 0.355778 25.2103C0.616216 28.3889 3.49267 31.2409 6.76908 31.5675H6.78303C7.81083 31.6641 8.85724 31.7492 9.88969 31.8205C9.9455 31.8251 9.99201 31.8757 9.99201 31.9355V38.1432C9.99201 39.0126 10.5175 39.7946 11.3314 40.1258C11.6035 40.2362 11.8872 40.2914 12.1685 40.2914C12.7313 40.2914 13.287 40.0729 13.7009 39.6635L20.4212 33.0165C20.9467 32.4967 21.642 32.2069 22.3838 32.1977C26.3485 32.1517 30.3969 31.9401 34.4128 31.5698H34.4244C37.7008 31.2455 40.5819 28.3912 40.8377 25.2103C41.3121 19.1659 41.3121 13.041 40.8377 7.0058Z" fill="#5E34F1"/>
<path d="M26.2403 22.3192C25.8078 22.3192 25.38 22.1145 25.1172 21.7327C24.694 21.1209 24.8521 20.2837 25.4706 19.8628L29.6679 17.0223L25.4706 14.1818C24.8521 13.7631 24.6917 12.9259 25.1172 12.3118C25.5404 11.7 26.3868 11.5413 27.0077 11.9622L32.8443 15.9114C33.214 16.1621 33.4349 16.5761 33.4349 17.02C33.4349 17.4639 33.214 17.8802 32.8443 18.1286L27.0077 22.0777C26.7728 22.2433 26.5054 22.3192 26.2403 22.3192Z" fill="white"/>
<path d="M14.9524 22.3191C14.6873 22.3191 14.4199 22.2432 14.1851 22.0845L8.34845 18.1354C7.97872 17.8847 7.75781 17.4707 7.75781 17.0268C7.75781 16.5829 7.97872 16.1666 8.34845 15.9182L14.1851 11.9691C14.8059 11.5505 15.65 11.7069 16.0756 12.3187C16.4988 12.9305 16.3407 13.7677 15.7221 14.1886L11.5225 17.0245L15.7198 19.865C16.3383 20.2836 16.4988 21.1208 16.0732 21.7349C15.8105 22.1144 15.3849 22.3191 14.9524 22.3191Z" fill="white"/>
<path d="M18.606 26.2686C18.4967 26.2686 18.3851 26.2548 18.2758 26.2272C17.548 26.0478 17.1039 25.3164 17.2876 24.5965L21.2802 8.79781C21.4615 8.07791 22.1987 7.63861 22.9288 7.82031C23.6567 7.99971 24.1008 8.73111 23.9171 9.45101L19.9245 25.2497C19.771 25.8592 19.2153 26.2686 18.606 26.2686Z" fill="white"/>
<path d="M50.8201 12.7193C50.5597 9.53378 47.6832 6.67948 44.4068 6.35518H44.3929C44.3929 6.35518 44.3789 6.35518 44.3719 6.35518C43.4999 6.27468 42.9744 7.07968 43.1209 7.93298C43.9487 12.7722 43.8697 21.4685 43.3953 27.5083C43.1395 30.6915 40.2584 33.5435 36.982 33.8678H36.9704C32.9545 34.2381 28.9038 34.3761 24.9414 34.4957C24.174 34.5187 23.5369 34.6866 23.0113 34.935C21.6091 35.5928 22.0672 37.6812 23.6182 37.7548C25.3483 37.8353 27.0737 37.8882 28.7805 37.9089C29.5223 37.9181 30.2315 38.2079 30.7571 38.7277L37.4773 45.3747C37.8912 45.7841 38.447 46.0026 39.0097 46.0026C39.2911 46.0026 39.5724 45.9474 39.8468 45.837C40.6607 45.5035 41.1862 44.7238 41.1862 43.8544V37.6467C41.1862 37.5869 41.2327 37.5363 41.2885 37.5317C42.321 37.4604 43.3674 37.3753 44.3952 37.2787H44.4092C47.6856 36.9544 50.562 34.1001 50.8225 30.9215C51.2945 24.8817 51.2945 18.7568 50.8225 12.7216L50.8201 12.7193Z" fill="#FF3964"/>
</svg>
