<svg width="684" height="661" viewBox="0 0 684 661" fill="none" xmlns="http://www.w3.org/2000/svg">
<g clip-path="url(#clip0_104_3351)">
<path d="M277.931 55.8443H51.7745V367.785H277.931V55.8443Z" fill="#E0E0E0"/>
<path d="M265.47 63.6377H61.4314V358.366H265.47V63.6377Z" fill="#FAFAFA" stroke="#FAFAFA" stroke-miterlimit="10"/>
<path d="M269.23 148.121H60.4753V152.775H269.23V148.121Z" fill="#E0E0E0"/>
<path d="M161.124 148.121V359.673H165.777V148.121H161.124Z" fill="#E0E0E0"/>
<path d="M313.914 26.4878H16.9553V32.273H313.914V26.4878Z" fill="#E0E0E0"/>
<path d="M16.9554 46.3616C16.9554 46.3616 19.6644 358.303 17.0351 358.303C14.4057 358.303 75.6777 358.303 75.6777 358.303V46.3616H16.9554Z" fill="#EBEBEB"/>
<path d="M31.632 53.0712C31.4089 53.0712 31.2177 47.2541 31.2177 40.0823C31.2177 32.9105 31.4089 27.0934 31.632 27.0934C31.8551 27.0934 32.0463 32.9105 32.0463 40.0823C32.0463 47.2541 31.8551 53.0712 31.632 53.0712Z" fill="#E0E0E0"/>
<path d="M23.728 53.0712C23.5049 53.0712 23.3137 47.2541 23.3137 40.0823C23.3137 32.9105 23.5049 27.0934 23.728 27.0934C23.9511 27.0934 24.1423 32.9105 24.1423 40.0823C24.1423 47.2541 23.9511 53.0712 23.728 53.0712Z" fill="#E0E0E0"/>
<path d="M40.7312 53.0712C40.5081 53.0712 40.3168 47.2541 40.3168 40.0823C40.3168 32.9105 40.5081 27.0934 40.7312 27.0934C40.9543 27.0934 41.1455 32.9105 41.1455 40.0823C41.1455 47.2541 40.9543 53.0712 40.7312 53.0712Z" fill="#E0E0E0"/>
<path d="M49.8144 53.0712C49.5913 53.0712 49.4001 47.2541 49.4001 40.0823C49.4001 32.9105 49.5913 27.0934 49.8144 27.0934C50.0375 27.0934 50.2287 32.9105 50.2287 40.0823C50.2287 47.2541 50.0375 53.0712 49.8144 53.0712Z" fill="#E0E0E0"/>
<path d="M58.9136 53.0712C58.6905 53.0712 58.4993 47.2541 58.4993 40.0823C58.4993 32.9105 58.6905 27.0934 58.9136 27.0934C59.1367 27.0934 59.3279 32.9105 59.3279 40.0823C59.3279 47.2541 59.1367 53.0712 58.9136 53.0712Z" fill="#E0E0E0"/>
<path d="M67.6463 53.0712C67.4232 53.0712 67.2319 47.2541 67.2319 40.0823C67.2319 32.9105 67.4232 27.0934 67.6463 27.0934C67.8694 27.0934 68.0606 32.9105 68.0606 40.0823C68.0606 47.2541 67.8694 53.0712 67.6463 53.0712Z" fill="#E0E0E0"/>
<path d="M253.231 46.3616C253.231 46.3616 255.94 358.303 253.311 358.303C250.682 358.303 311.954 358.303 311.954 358.303V46.3616H253.231Z" fill="#EBEBEB"/>
<path d="M267.924 53.0712C267.701 53.0712 267.509 47.2541 267.509 40.0823C267.509 32.9105 267.701 27.0934 267.924 27.0934C268.147 27.0934 268.338 32.9105 268.338 40.0823C268.338 47.2541 268.147 53.0712 267.924 53.0712Z" fill="#E0E0E0"/>
<path d="M260.004 53.0712C259.781 53.0712 259.589 47.2541 259.589 40.0823C259.589 32.9105 259.781 27.0934 260.004 27.0934C260.227 27.0934 260.418 32.9105 260.418 40.0823C260.418 47.2541 260.227 53.0712 260.004 53.0712Z" fill="#E0E0E0"/>
<path d="M277.007 53.0712C276.784 53.0712 276.593 47.2541 276.593 40.0823C276.593 32.9105 276.784 27.0934 277.007 27.0934C277.23 27.0934 277.421 32.9105 277.421 40.0823C277.421 47.2541 277.23 53.0712 277.007 53.0712Z" fill="#E0E0E0"/>
<path d="M286.106 53.0712C285.883 53.0712 285.692 47.2541 285.692 40.0823C285.692 32.9105 285.883 27.0934 286.106 27.0934C286.329 27.0934 286.521 32.9105 286.521 40.0823C286.521 47.2541 286.329 53.0712 286.106 53.0712Z" fill="#E0E0E0"/>
<path d="M295.189 53.0712C294.966 53.0712 294.775 47.2541 294.775 40.0823C294.775 32.9105 294.966 27.0934 295.189 27.0934C295.413 27.0934 295.604 32.9105 295.604 40.0823C295.604 47.2541 295.413 53.0712 295.189 53.0712Z" fill="#E0E0E0"/>
<path d="M303.938 53.0712C303.715 53.0712 303.524 47.2541 303.524 40.0823C303.524 32.9105 303.715 27.0934 303.938 27.0934C304.161 27.0934 304.352 32.9105 304.352 40.0823C304.352 47.2541 304.161 53.0712 303.938 53.0712Z" fill="#E0E0E0"/>
<path d="M480.392 610.59V657.43H548.883H624.417V610.59H480.392Z" fill="#EBEBEB"/>
<path d="M474.352 597.49V610.59H629.453V597.49H548.883H474.352Z" fill="#F5F5F5"/>
<path d="M551.895 657.43H624.417V610.59H629.453V597.49H548.883V609.379L551.895 657.43Z" fill="#E0E0E0"/>
<path d="M529.744 618.145H500.534V625.189H529.744V618.145Z" fill="#E0E0E0"/>
<path d="M534.286 634.002H496.774V648.888H534.286V634.002Z" fill="#FAFAFA"/>
<path d="M516.996 546.124L516.789 528.513L578.475 533.804L580.403 551.224L516.996 546.124Z" fill="#EBEBEB"/>
<path d="M530.297 536.53L530.027 539.69L568.609 542.992L568.879 539.832L530.297 536.53Z" fill="#E0E0E0"/>
<path d="M509.634 529.406L509.618 511.795L571.24 517.74L572.818 533.47L509.634 529.406Z" fill="#E0E0E0"/>
<path d="M509.618 514.201L509.586 526.075L569.647 530.505L568.643 519.54L509.618 514.201Z" fill="white"/>
<path d="M565.089 524.114C565.089 524.114 564.308 524.146 562.906 524.051C561.344 523.923 559.368 523.78 556.994 523.588C552.006 523.158 545.138 522.505 537.553 521.74C529.967 520.975 523.099 520.226 518.127 519.652C515.769 519.365 513.793 519.11 512.247 518.919C510.861 518.728 510.096 518.6 510.096 518.536C510.096 518.473 510.877 518.504 512.263 518.6C513.825 518.728 515.801 518.871 518.159 519.062C523.147 519.493 530.015 520.146 537.616 520.911C545.202 521.676 552.086 522.425 557.042 522.999C559.4 523.286 561.376 523.541 562.922 523.732C564.308 523.923 565.073 524.051 565.073 524.114H565.089Z" fill="#E0E0E0"/>
<path d="M564.962 525.597C564.962 525.597 564.181 525.66 562.763 525.597C561.201 525.517 559.193 525.421 556.803 525.31C551.767 525.039 544.835 524.593 537.154 524.067C529.489 523.541 522.541 522.999 517.522 522.584C515.131 522.361 513.139 522.186 511.578 522.043C510.175 521.899 509.411 521.788 509.411 521.724C509.411 521.66 510.191 521.66 511.61 521.724C513.171 521.804 515.179 521.899 517.57 522.011C522.605 522.282 529.537 522.728 537.218 523.254C544.883 523.78 551.815 524.322 556.835 524.736C559.225 524.959 561.217 525.134 562.779 525.278C564.181 525.421 564.946 525.533 564.946 525.597H564.962Z" fill="#E0E0E0"/>
<path d="M517.697 562.364L517.474 544.753L579.176 549.981L580.929 565.695L517.697 562.364Z" fill="#E0E0E0"/>
<path d="M524.501 562.731C524.278 562.731 523.928 558.858 523.753 554.061C523.561 549.264 523.593 545.375 523.832 545.359C524.055 545.359 524.406 549.232 524.581 554.029C524.772 558.826 524.741 562.731 524.501 562.731Z" fill="#F5F5F5"/>
<path d="M526.828 545.55C527.051 545.55 527.322 549.423 527.434 554.204C527.545 558.985 527.434 562.874 527.21 562.874C526.987 562.874 526.716 559.001 526.605 554.22C526.493 549.439 526.605 545.55 526.828 545.55Z" fill="#F5F5F5"/>
<path d="M532.437 553.296C543.194 554.475 555.831 555.16 566.762 556.132L532.437 553.296Z" fill="white"/>
<path d="M566.762 556.133C566.762 556.244 564.818 556.18 561.711 556.005C558.603 555.83 554.301 555.559 549.552 555.208C544.803 554.858 540.517 554.459 537.409 554.093C534.318 553.726 532.405 553.407 532.421 553.296C532.421 553.184 534.366 553.296 537.473 553.503C540.835 553.742 544.995 554.045 549.616 554.38C554.365 554.73 558.651 555.097 561.759 555.415C564.866 555.734 566.778 556.021 566.762 556.133Z" fill="#F5F5F5"/>
<path d="M571.272 565.185C571.049 565.185 570.683 561.679 570.475 557.328C570.268 552.977 570.268 549.439 570.507 549.423C570.73 549.423 571.097 552.929 571.304 557.28C571.511 561.631 571.511 565.169 571.272 565.185Z" fill="#F5F5F5"/>
<path d="M575.081 565.392C574.858 565.408 574.316 561.902 573.886 557.535C573.455 553.168 573.296 549.63 573.519 549.598C573.742 549.566 574.284 553.088 574.714 557.455C575.144 561.806 575.304 565.36 575.081 565.392Z" fill="#F5F5F5"/>
<path d="M541.584 557.248C548.389 557.71 553.568 558.045 558.986 558.172L541.584 557.248Z" fill="white"/>
<path d="M558.986 558.172C558.986 558.396 555.082 558.38 550.269 558.125C545.457 557.87 541.568 557.471 541.584 557.248C541.6 557.025 545.504 557.041 550.301 557.296C555.098 557.551 558.986 557.949 558.986 558.172Z" fill="#F5F5F5"/>
<path d="M521.84 596.741L520.677 579.178L582.57 581.138L585.152 596.741H521.84Z" fill="#E0E0E0"/>
<path d="M524.294 594.541L584.515 593.681L582.841 582.748L523.163 581.632L524.294 594.541Z" fill="#FAFAFA"/>
<path d="M523.529 579.528L522.956 561.918L584.738 565.95L586.793 581.632L523.529 579.528Z" fill="#EBEBEB"/>
<path d="M536.619 569.621L536.413 572.785L575.055 575.298L575.261 572.133L536.619 569.621Z" fill="#E0E0E0"/>
<path d="M583.447 587.242C583.447 587.242 582.602 587.354 581.088 587.417C579.415 587.465 577.248 587.513 574.65 587.577C569.216 587.672 561.695 587.752 553.393 587.784C545.09 587.816 537.569 587.784 532.135 587.752C529.537 587.704 527.37 587.672 525.697 587.641C524.167 587.593 523.338 587.545 523.338 587.481C523.338 587.417 524.183 587.37 525.697 587.306C527.37 587.258 529.537 587.21 532.135 587.147C537.569 587.051 545.09 586.971 553.393 586.939C561.695 586.907 569.216 586.939 574.65 586.971C577.248 587.019 579.415 587.051 581.088 587.083C582.602 587.131 583.447 587.178 583.447 587.242Z" fill="#E0E0E0"/>
<path d="M584.164 590.653C584.164 590.653 583.319 590.748 581.774 590.78C580.084 590.78 577.901 590.812 575.288 590.828C569.806 590.828 562.237 590.764 553.887 590.653C545.52 590.541 537.967 590.382 532.485 590.238C529.872 590.143 527.689 590.079 525.999 590.015C524.47 589.951 523.625 589.872 523.625 589.824C523.625 589.776 524.47 589.728 525.999 589.696C527.689 589.696 529.872 589.665 532.485 589.649C537.967 589.649 545.536 589.712 553.902 589.824C562.269 589.936 569.838 590.095 575.304 590.238C577.917 590.334 580.1 590.398 581.79 590.461C583.319 590.525 584.164 590.605 584.164 590.653Z" fill="#E0E0E0"/>
<path d="M63.0568 479.299C55.3122 480.542 51.8542 490.056 52.5235 497.882C53.1927 505.691 56.4117 513.341 55.5512 521.134C54.4676 531.031 46.9779 539.398 46.1014 549.327C45.0816 561.025 53.3521 571.4 55.8221 582.891C57.0173 588.485 56.8579 594.382 58.9295 599.705C62.4353 608.678 72.7297 614.447 82.2113 612.758C91.6929 611.068 99.3579 602.096 99.5332 592.454C99.7085 583.465 94.1629 575.002 94.8322 566.045C95.3262 559.416 99.2145 553.152 98.3859 546.554C97.3979 538.713 90.1313 533.151 87.5657 525.676C85 518.202 87.47 509.962 86.5777 502.105C84.9841 488.016 77.1757 478.183 63.0409 479.315" fill="#F5F5F5"/>
<path d="M23.5208 547.542C22.1982 560.595 27.9828 575.958 34.6916 587.242C41.4005 598.526 51.8223 607.546 63.9173 612.614C65.2878 613.188 66.977 613.666 68.1243 612.726C69.0645 611.961 69.1761 610.59 69.192 609.379C69.2876 595.641 64.8097 581.903 56.6507 570.843C48.4918 559.782 36.6676 551.479 23.5049 547.526" fill="#EBEBEB"/>
<path d="M80.3947 639.915C80.3947 639.915 80.2513 639.676 80.0282 639.182C79.7891 638.624 79.4704 637.907 79.1039 637.046C78.3231 635.182 77.1438 632.504 75.6459 629.205C72.666 622.607 68.2518 613.634 62.6744 604.104C57.097 594.573 51.4398 586.318 47.1691 580.485C45.0338 577.568 43.2649 575.225 42.022 573.632C41.4483 572.883 40.9861 572.261 40.6196 571.767C40.3009 571.337 40.1416 571.098 40.1734 571.082C40.1894 571.066 40.3806 571.273 40.7471 571.671C41.1455 572.134 41.6395 572.723 42.261 573.44C43.5677 574.986 45.4003 577.281 47.5994 580.166C51.9976 585.935 57.7344 594.159 63.3277 603.721C68.9052 613.284 73.2715 622.32 76.124 628.982C77.5582 632.313 78.6577 635.038 79.3589 636.935C79.6776 637.827 79.9485 638.544 80.1556 639.118C80.3309 639.628 80.4106 639.899 80.3947 639.899V639.915Z" fill="#E0E0E0"/>
<path d="M71.9966 515.429C71.9966 515.429 72.0763 515.859 72.1401 516.688C72.2038 517.58 72.2994 518.775 72.395 520.289C72.6022 523.477 72.889 527.987 73.2396 533.517C73.9408 544.69 74.9288 560.133 76.1399 577.17C77.335 594.207 78.5143 609.634 79.3907 620.806C79.821 626.336 80.1556 630.831 80.3947 634.034C80.4903 635.548 80.5859 636.743 80.6337 637.636C80.6815 638.465 80.6974 638.895 80.6656 638.895C80.6337 638.895 80.5699 638.465 80.4743 637.652C80.3787 636.775 80.2512 635.564 80.0919 634.066C79.7891 630.878 79.3748 626.384 78.8489 620.87C77.845 609.714 76.5861 594.302 75.3909 577.249C74.1957 560.212 73.2874 544.769 72.7137 533.581C72.4588 528.035 72.2516 523.525 72.0923 520.337C72.0445 518.823 71.9966 517.628 71.9648 516.735C71.9488 515.907 71.9488 515.476 71.9648 515.476L71.9966 515.429Z" fill="#E0E0E0"/>
<path d="M59.9813 621.284H92.6809V645.302C92.6809 653.972 85.6534 661 76.9845 661C68.6342 661 61.7501 654.466 61.3039 646.146L59.9813 621.3V621.284Z" fill="#E0E0E0"/>
<path d="M535.322 52.4178L526.685 132.567H637.325L646.504 52.4178H535.322Z" fill="#EBEBEB"/>
<path d="M539.879 58.1871L531.465 128.311H631.317L639.396 58.1871H539.879Z" fill="#FAFAFA"/>
<path d="M556.675 69.9807L551.512 116.518H614.521L617.756 69.9807H556.675Z" fill="#E0E0E0"/>
<path d="M642.552 86.938L665.403 132.885L637.325 132.567L642.902 83.9418" fill="#F5F5F5"/>
<path d="M665.786 142.113H655.826V167.039H665.786V142.113Z" fill="#E0E0E0"/>
<path d="M520.024 142.113H510.064V167.039H520.024V142.113Z" fill="#E0E0E0"/>
<path d="M684 133.045H489.587V143.563H684V133.045Z" fill="#E0E0E0"/>
<path d="M653.547 657.908C653.547 658.131 507.227 658.323 326.79 658.323C146.352 658.323 0 658.131 0 657.908C0 657.685 146.288 657.494 326.79 657.494C507.291 657.494 653.547 657.685 653.547 657.908Z" fill="#263238"/>
<path d="M468.09 427.152C440.601 407.947 434.37 372.296 435.454 340.246C435.629 334.891 435.039 329.265 437.589 324.563C440.139 319.878 446.067 316.658 450.863 318.922C454.831 320.786 456.568 325.408 458.783 329.233C461.731 334.317 466.146 338.524 471.325 341.218C474.735 342.987 478.942 344.071 482.304 342.206C486.91 339.656 487.467 333.281 487.435 327.958C487.372 318.045 487.308 308.132 487.244 298.219C487.212 292.896 487.196 287.461 488.854 282.425C490.511 277.373 494.16 272.687 499.228 271.269C504.295 269.851 510.542 272.767 511.61 277.979C512.056 280.146 511.61 282.393 511.753 284.608C511.896 286.824 512.932 289.262 515.02 289.884C517.139 290.505 519.275 288.991 520.868 287.445C526.366 282.074 530.079 275.158 533.569 268.273C537.059 261.388 540.437 254.344 545.409 248.495C550.397 242.63 557.281 237.992 564.898 237.562C572.515 237.131 580.626 241.833 582.555 249.307C584.483 256.814 580.116 264.416 575.352 270.488C568.292 279.493 559.926 287.461 550.636 294.059C548.962 295.255 547.146 296.53 546.492 298.506C545.329 302.06 548.692 305.582 552.197 306.745C556.165 308.068 560.468 307.654 564.611 308.148C568.754 308.642 573.248 310.459 574.826 314.379C577.009 319.814 572.451 325.52 567.989 329.249C559.034 336.723 548.803 342.636 537.887 346.637C533.967 348.071 529.856 349.33 526.701 352.071C523.545 354.828 521.633 359.609 523.545 363.355C525.458 367.1 530.35 368.311 534.445 367.546C538.541 366.781 542.206 364.566 546.126 363.084C553.44 360.327 562.874 360.821 567.559 367.148C570.635 371.307 570.906 377.077 569.344 382.033C567.782 386.99 564.627 391.245 561.281 395.182C549.568 408.935 534.573 419.996 517.601 425.877C500.646 431.758 484.934 433.351 468.074 427.184" fill="#E9A727"/>
<path d="M574.89 241.976C574.89 241.976 574.73 242.167 574.38 242.486C573.981 242.837 573.471 243.299 572.802 243.889C571.416 245.116 569.36 246.933 566.778 249.355C561.615 254.168 554.349 261.388 546.461 271.285C542.509 276.21 538.397 281.804 534.079 287.876C529.776 293.964 525.234 300.482 520.709 307.526C516.183 314.571 511.657 322.109 507.578 330.269C505.522 334.333 503.706 338.588 501.841 342.923C499.993 347.258 498.096 351.657 496.2 356.119C488.647 373.953 482.001 391.197 477.237 407.31C472.456 423.407 469.62 438.324 468.377 450.962C467.102 463.6 467.357 473.928 467.883 481.004C468.153 484.542 468.424 487.299 468.679 489.148C468.775 490.04 468.871 490.742 468.918 491.268C468.966 491.746 468.982 491.985 468.966 492.001C468.95 492.001 468.902 491.762 468.807 491.284C468.727 490.758 468.616 490.072 468.472 489.18C468.153 487.331 467.819 484.59 467.484 481.036C466.847 473.944 466.48 463.585 467.675 450.882C468.839 438.18 471.627 423.199 476.36 407.039C481.077 390.863 487.722 373.571 495.276 355.721C497.188 351.258 499.068 346.86 500.933 342.525C502.797 338.19 504.646 333.903 506.717 329.823C510.813 321.631 515.386 314.061 519.944 307.032C524.501 299.988 529.091 293.47 533.409 287.398C537.76 281.341 541.903 275.763 545.919 270.855C553.902 260.989 561.265 253.802 566.523 249.084C569.153 246.71 571.24 244.941 572.674 243.761C573.36 243.203 573.902 242.757 574.316 242.422C574.682 242.12 574.89 241.976 574.89 241.992V241.976Z" fill="#263238"/>
<path d="M507.004 329.791C507.004 329.791 506.765 328.994 506.478 327.528C506.191 326.061 505.873 323.926 505.49 321.264C504.741 315.973 503.945 308.61 503.116 300.514C502.271 292.402 501.379 285.087 500.55 279.811C500.136 277.182 499.785 275.046 499.53 273.58C499.276 272.114 499.164 271.285 499.228 271.269C499.291 271.269 499.53 272.05 499.897 273.5C500.279 274.95 500.726 277.07 501.22 279.7C502.224 284.959 503.228 292.29 504.072 300.418C504.885 308.419 505.618 315.654 506.176 321.185C506.447 323.687 506.67 325.791 506.861 327.48C507.02 328.962 507.068 329.791 507.004 329.807V329.791Z" fill="#263238"/>
<path d="M575.384 317.009C575.384 317.009 574.411 317.184 572.659 317.328C570.906 317.487 568.356 317.694 565.233 318.061C558.97 318.73 550.349 319.973 540.899 321.758C531.449 323.559 522.972 325.551 516.868 327.161C513.809 327.942 511.355 328.659 509.665 329.121C507.96 329.6 507.02 329.839 507.004 329.775C506.988 329.711 507.897 329.345 509.554 328.755C511.227 328.165 513.649 327.352 516.693 326.476C522.764 324.675 531.242 322.571 540.724 320.77C550.205 318.985 558.874 317.854 565.169 317.36C568.324 317.089 570.874 316.977 572.643 316.945C574.411 316.913 575.384 316.945 575.384 317.009Z" fill="#263238"/>
<path d="M477.205 405.796C477.205 405.796 477.014 405.525 476.743 404.967C476.424 404.298 476.042 403.485 475.579 402.497C474.575 400.345 473.205 397.19 471.548 393.269C468.249 385.428 464.026 374.463 459.548 362.303C455.054 350.127 450.943 339.146 447.82 331.241C446.29 327.4 445.015 324.245 444.091 321.902C443.692 320.882 443.358 320.037 443.087 319.352C442.864 318.762 442.768 318.459 442.8 318.443C442.832 318.443 442.991 318.714 443.262 319.272C443.581 319.941 443.963 320.754 444.426 321.742C445.429 323.894 446.8 327.05 448.457 330.97C451.756 338.811 455.979 349.776 460.473 361.936C464.966 374.096 469.078 385.093 472.201 392.982C473.731 396.823 475.006 399.979 475.93 402.321C476.328 403.341 476.663 404.186 476.934 404.871C477.157 405.461 477.253 405.78 477.221 405.78L477.205 405.796Z" fill="#263238"/>
<path d="M568.085 376.503C568.085 376.503 567.782 376.662 567.177 376.87C566.46 377.109 565.599 377.396 564.531 377.762C562.093 378.559 558.811 379.627 554.795 380.918C546.572 383.579 535.274 387.388 522.78 391.628C510.287 395.867 498.941 399.564 490.654 402.066C486.511 403.31 483.165 404.298 480.822 404.919C479.739 405.206 478.846 405.429 478.129 405.621C477.508 405.764 477.173 405.828 477.173 405.796C477.173 405.764 477.476 405.636 478.081 405.429C478.782 405.19 479.659 404.903 480.727 404.553C483.165 403.756 486.447 402.704 490.463 401.397C498.686 398.736 509.984 394.927 522.478 390.687C534.971 386.464 546.317 382.75 554.588 380.248C558.731 379.005 562.077 378.017 564.42 377.396C565.504 377.109 566.38 376.886 567.113 376.694C567.734 376.551 568.053 376.487 568.069 376.519L568.085 376.503Z" fill="#263238"/>
<path d="M490.001 420.538C495.547 420.729 500.901 417.35 503.706 412.553C506.51 407.756 506.893 401.78 505.379 396.441C504.678 393.97 503.403 391.404 501.044 390.384C498.845 389.428 496.184 390.129 494.32 391.643C492.455 393.158 491.276 395.357 490.431 397.604C487.531 405.302 486.129 413.286 490.017 420.538" fill="#4D878D"/>
<path d="M487.037 435.36C498.734 434.834 510.526 440.348 517.601 449.671C519.402 452.046 520.932 455.313 519.418 457.879C517.904 460.445 514.287 460.684 511.339 460.19C499.1 458.102 488.663 447.902 486.304 435.694" fill="#4D878D"/>
<path d="M558.38 414.737C555.544 410.657 550.747 408.218 545.823 407.485C540.915 406.768 535.879 407.629 531.147 409.159C522 412.107 513.633 419.343 507.307 426.594C515.785 433.08 528.151 432.475 534.413 431.758C544.293 430.642 561.488 422.626 558.38 414.737Z" fill="#4D878D"/>
<path d="M465.365 436.188C466.576 435.71 467.867 435.758 469.986 434.802C474.193 432.889 480.041 430.052 485.555 425.478C491.069 420.888 494.654 415.199 496.088 410.736C496.837 408.505 497.156 406.625 497.236 405.318C497.331 404.011 497.268 403.294 497.204 403.294C496.981 403.262 497.013 406.194 495.371 410.481C493.794 414.753 490.24 420.187 484.87 424.65C479.484 429.128 473.763 432.029 469.667 434.116" fill="#263238"/>
<path d="M465.205 436.236C467.484 435.726 470.464 435.073 474.05 434.276C481.523 432.602 491.85 430.323 503.275 427.965C514.701 425.606 525.091 423.598 532.613 422.163C536.23 421.462 539.226 420.888 541.521 420.442C543.624 420.028 544.771 419.757 544.771 419.677C544.771 419.598 543.576 419.725 541.457 420.028C539.337 420.315 536.278 420.793 532.485 421.414C524.932 422.658 514.51 424.538 503.068 426.913C491.626 429.287 481.316 431.678 473.89 433.543C470.177 434.467 467.181 435.248 465.11 435.838" fill="#263238"/>
<path d="M508.454 450.261C508.454 450.261 508.136 449.639 507.387 448.635C507.02 448.125 506.558 447.52 505.953 446.882C505.347 446.229 504.71 445.448 503.849 444.715C502.255 443.153 500.136 441.511 497.634 439.934C495.1 438.404 492.168 436.953 488.933 435.854C485.683 434.786 482.464 434.18 479.531 433.877C476.583 433.638 473.906 433.67 471.691 433.957C470.576 434.037 469.588 434.26 468.711 434.419C467.835 434.563 467.102 434.77 466.512 434.945C465.317 435.296 465.078 435.742 465.11 435.806C465.158 436.013 467.389 435.025 471.771 434.706C473.954 434.531 476.567 434.579 479.452 434.85C482.32 435.2 485.444 435.822 488.615 436.858C491.77 437.941 494.638 439.328 497.14 440.762C499.61 442.26 501.73 443.806 503.355 445.257C506.654 448.141 508.295 450.357 508.47 450.229L508.454 450.261Z" fill="#263238"/>
<path d="M435.533 523.844L257.821 523.015C236.451 522.919 219.193 505.516 219.289 484.128L221.169 38.5364C221.265 17.1645 238.682 -0.0955947 260.068 2.92063e-05L437.78 0.828769C459.15 0.924393 476.408 18.3279 476.312 39.7158L474.432 485.307C474.336 506.695 456.935 523.955 435.533 523.859V523.844Z" fill="#263238"/>
<path d="M437.525 16.1923L403.073 16.033C398.452 16.017 394.691 19.9057 394.675 24.7347L394.643 30.9822C394.627 35.8112 390.866 39.7158 386.245 39.6839L319.077 39.3811C314.455 39.3652 310.727 35.4287 310.742 30.5997L310.774 24.3522C310.79 19.5232 307.061 15.5867 302.44 15.5708L290.329 15.507L260.179 15.3636C245.2 15.2998 233.009 27.3803 232.945 42.3614L231.113 477.291C231.049 492.256 243.128 504.448 258.092 504.528L435.454 505.34C450.433 505.404 462.624 493.324 462.688 478.343L464.52 43.4133C464.584 28.4481 452.505 16.2561 437.541 16.1764L437.525 16.1923Z" fill="#FAFAFA"/>
<path d="M373.527 69.8423L327.776 69.6347L327.738 78.0336L373.489 78.2412L373.527 69.8423Z" fill="#4D878D"/>
<path d="M274.473 138.543C275.174 138.623 275.557 138.639 275.541 138.702C275.541 138.639 275.892 138.639 276.545 138.559H274.473V138.543Z" fill="#4D878D"/>
<path d="M287.015 115.514C286.186 114.382 285.166 113.346 283.971 112.502C281.628 110.748 278.632 109.76 275.541 109.728C272.449 109.76 269.454 110.748 267.111 112.502C265.932 113.346 264.896 114.382 264.067 115.514C263.223 116.629 262.553 117.856 262.107 119.116C261.135 121.634 261.056 124.279 261.454 126.638C261.852 129.013 262.888 131.069 264.099 132.694C264.275 132.933 264.466 133.124 264.641 133.348C265.693 130.335 268.035 126.973 273.278 126.176C270.856 125.172 269.135 122.67 269.151 119.737C269.151 115.928 272.083 112.852 275.652 112.868C279.222 112.884 282.106 115.992 282.09 119.801C282.09 122.717 280.369 125.188 277.979 126.192C283.126 126.973 285.421 130.304 286.457 133.332C286.632 133.124 286.807 132.933 286.983 132.71C288.194 131.069 289.214 129.013 289.628 126.654C290.026 124.311 289.931 121.65 288.975 119.147C288.528 117.888 287.859 116.661 287.015 115.546V115.514Z" fill="#FAFAFA"/>
<path d="M289.771 118.829C289.309 117.49 288.608 116.183 287.732 114.988C286.855 113.777 285.772 112.677 284.529 111.768C282.059 109.888 278.856 108.836 275.557 108.804C272.258 108.836 269.071 109.888 266.585 111.768C265.326 112.677 264.243 113.777 263.382 114.988C262.49 116.183 261.789 117.49 261.342 118.829C260.338 121.506 260.291 124.311 260.737 126.781C261.199 129.268 262.314 131.419 263.605 133.093C266.266 136.503 269.645 137.922 271.924 138.416C273.071 138.671 273.995 138.75 274.617 138.75C275.238 138.75 275.557 138.75 275.557 138.702C275.557 138.639 275.174 138.639 274.489 138.543H276.561C275.907 138.623 275.557 138.639 275.557 138.702C275.557 138.734 275.876 138.75 276.497 138.75C277.119 138.75 278.043 138.687 279.19 138.416C281.469 137.922 284.847 136.487 287.508 133.093C288.815 131.403 289.915 129.268 290.377 126.781C290.823 124.311 290.759 121.506 289.771 118.829ZM289.628 126.638C289.23 129.013 288.194 131.069 286.983 132.694C286.807 132.917 286.632 133.108 286.457 133.316C285.421 130.288 283.126 126.957 277.979 126.176C280.369 125.172 282.074 122.701 282.09 119.785C282.09 115.976 279.222 112.868 275.652 112.852C272.083 112.836 269.167 115.912 269.151 119.721C269.151 122.654 270.856 125.156 273.278 126.16C268.035 126.957 265.709 130.304 264.641 133.332C264.466 133.124 264.275 132.917 264.099 132.678C262.888 131.037 261.868 128.981 261.454 126.622C261.056 124.279 261.151 121.618 262.107 119.1C262.553 117.841 263.223 116.613 264.067 115.498C264.896 114.366 265.916 113.33 267.111 112.486C269.454 110.733 272.449 109.744 275.541 109.713C278.632 109.744 281.628 110.733 283.971 112.486C285.15 113.33 286.186 114.366 287.014 115.498C287.859 116.613 288.528 117.841 288.975 119.1C289.947 121.618 290.026 124.263 289.628 126.606V126.638Z" fill="#4D878D"/>
<path d="M447.724 151.978C447.724 151.978 448.186 151.978 449.047 151.803C449.891 151.628 451.198 151.197 452.441 150.018C453.684 148.87 454.768 146.846 454.592 144.328C454.592 141.794 454.56 138.894 454.545 135.611C454.529 129.044 454.497 121.028 454.465 111.721C454.465 109.394 454.465 106.987 454.449 104.501C454.592 102.079 453.333 99.5764 451.118 98.3014C448.919 96.9148 446.067 97.5205 443.294 97.393C440.505 97.393 437.637 97.393 434.721 97.4089C387.807 97.4408 323.045 97.4886 251.51 97.5523C249.407 97.5523 247.367 98.6042 246.172 100.309C245.55 101.154 245.184 102.142 245.04 103.162C244.913 104.15 244.993 105.33 244.961 106.413C244.961 110.828 244.961 115.227 244.961 119.578C244.961 128.279 244.961 136.87 244.961 145.285C245.024 147.261 246.06 149.157 247.67 150.289C248.451 150.863 249.375 151.261 250.331 151.42C251.271 151.596 252.323 151.516 253.359 151.532C257.502 151.532 261.597 151.532 265.661 151.532C273.772 151.532 281.724 151.532 289.469 151.532C320.463 151.564 348.382 151.596 371.839 151.628C395.264 151.691 414.228 151.739 427.375 151.771C433.908 151.803 438.992 151.835 442.465 151.851C444.171 151.867 445.477 151.883 446.386 151.899C447.278 151.899 447.724 151.946 447.724 151.946C447.724 151.946 447.278 151.978 446.386 151.994C445.477 151.994 444.171 152.026 442.465 152.042C438.992 152.058 433.908 152.09 427.375 152.122C414.228 152.154 395.28 152.201 371.839 152.265C348.382 152.297 320.479 152.329 289.469 152.361C281.724 152.361 273.772 152.361 265.661 152.361C261.597 152.361 257.502 152.361 253.359 152.361C252.323 152.345 251.287 152.424 250.172 152.233C249.072 152.042 248.036 151.596 247.128 150.942C245.311 149.651 244.132 147.5 244.052 145.253C244.052 136.806 244.052 128.216 244.036 119.498C244.036 115.147 244.036 110.748 244.036 106.334C244.068 105.218 243.973 104.166 244.116 102.955C244.291 101.792 244.706 100.644 245.407 99.6879C246.761 97.7436 249.12 96.5323 251.51 96.5323C323.045 96.5802 387.807 96.628 434.721 96.6758C437.653 96.6758 440.505 96.6758 443.294 96.6917C444.68 96.6917 446.067 96.6917 447.421 96.6917C448.808 96.6439 450.242 96.9945 451.405 97.7117C453.812 99.0983 455.166 101.855 454.991 104.405C454.991 106.892 454.991 109.298 454.975 111.625C454.943 120.932 454.911 128.949 454.895 135.515C454.879 138.782 454.863 141.699 454.847 144.233C455.007 146.815 453.859 148.918 452.553 150.066C451.246 151.261 449.907 151.66 449.047 151.803C448.17 151.946 447.708 151.883 447.708 151.883L447.724 151.978Z" fill="#4D878D"/>
<path d="M355.697 111.338H303.938V115.227H355.697V111.338Z" fill="#4D878D"/>
<path d="M394.611 133.284H303.938V137.173H394.611V133.284Z" fill="#4D878D"/>
<path d="M435.342 122.048H303.938V125.937H435.342V122.048Z" fill="#4D878D"/>
<path d="M274.473 275.875C275.174 275.955 275.557 275.97 275.541 276.034C275.541 275.97 275.892 275.97 276.545 275.891H274.473V275.875Z" fill="#4D878D"/>
<path d="M287.015 252.83C286.186 251.698 285.166 250.662 283.971 249.817C281.628 248.064 278.632 247.076 275.541 247.044C272.449 247.076 269.454 248.064 267.111 249.817C265.932 250.662 264.896 251.698 264.067 252.83C263.223 253.945 262.553 255.172 262.107 256.431C261.135 258.949 261.056 261.595 261.454 263.954C261.852 266.312 262.888 268.384 264.099 270.01C264.275 270.249 264.466 270.44 264.641 270.663C265.693 267.651 268.035 264.288 273.278 263.492C270.856 262.488 269.135 259.985 269.151 257.053C269.151 253.244 272.083 250.168 275.652 250.184C279.222 250.2 282.106 253.308 282.09 257.117C282.09 260.033 280.369 262.503 277.979 263.507C283.126 264.288 285.421 267.619 286.457 270.647C286.632 270.44 286.807 270.249 286.983 270.026C288.194 268.384 289.214 266.328 289.628 263.97C290.026 261.627 289.931 258.965 288.975 256.463C288.528 255.204 287.859 253.977 287.015 252.861V252.83Z" fill="#FAFAFA"/>
<path d="M289.771 256.16C289.309 254.822 288.608 253.515 287.732 252.32C286.855 251.108 285.772 250.009 284.529 249.1C282.059 247.22 278.856 246.168 275.557 246.136C272.258 246.168 269.071 247.22 266.585 249.1C265.326 250.009 264.243 251.108 263.382 252.32C262.49 253.515 261.789 254.822 261.342 256.16C260.338 258.838 260.291 261.643 260.737 264.113C261.199 266.599 262.314 268.751 263.605 270.424C266.266 273.835 269.645 275.253 271.924 275.747C273.071 276.002 273.995 276.082 274.617 276.082C275.238 276.082 275.557 276.082 275.557 276.034C275.557 275.971 275.174 275.971 274.489 275.875H276.561C275.907 275.955 275.557 275.971 275.557 276.034C275.557 276.066 275.876 276.082 276.497 276.082C277.119 276.082 278.043 276.018 279.19 275.747C281.469 275.253 284.847 273.819 287.508 270.424C288.815 268.735 289.915 266.599 290.377 264.113C290.823 261.643 290.759 258.838 289.771 256.16ZM289.628 263.97C289.23 266.344 288.194 268.4 286.983 270.026C286.807 270.249 286.632 270.44 286.457 270.647C285.421 267.619 283.126 264.288 277.979 263.508C280.369 262.503 282.074 260.033 282.09 257.117C282.09 253.308 279.222 250.2 275.652 250.184C272.083 250.168 269.167 253.244 269.151 257.053C269.151 259.985 270.856 262.488 273.278 263.492C268.035 264.288 265.709 267.635 264.641 270.663C264.466 270.456 264.275 270.249 264.099 270.01C262.888 268.368 261.868 266.312 261.454 263.954C261.056 261.595 261.151 258.949 262.107 256.431C262.553 255.172 263.223 253.945 264.067 252.83C264.896 251.698 265.916 250.662 267.111 249.817C269.454 248.064 272.449 247.076 275.541 247.044C278.632 247.076 281.628 248.064 283.971 249.817C285.15 250.662 286.186 251.698 287.014 252.83C287.859 253.945 288.528 255.172 288.975 256.431C289.947 258.949 290.026 261.595 289.628 263.938V263.97Z" fill="#4D878D"/>
<path d="M447.724 289.31C447.724 289.31 448.186 289.31 449.047 289.135C449.891 288.959 451.198 288.529 452.441 287.35C453.684 286.202 454.768 284.178 454.592 281.66C454.592 279.126 454.56 276.225 454.545 272.942C454.529 266.376 454.497 258.36 454.465 249.052C454.465 246.726 454.465 244.319 454.449 241.833C454.592 239.41 453.333 236.908 451.118 235.633C448.919 234.247 446.067 234.852 443.294 234.725C440.505 234.725 437.637 234.725 434.721 234.741C387.807 234.773 323.045 234.82 251.51 234.884C249.407 234.884 247.367 235.936 246.172 237.641C245.55 238.486 245.184 239.474 245.04 240.494C244.913 241.482 244.993 242.662 244.961 243.745C244.961 248.16 244.961 252.559 244.961 256.909C244.961 265.611 244.961 274.201 244.961 282.616C245.024 284.593 246.06 286.489 247.67 287.621C248.451 288.194 249.375 288.593 250.331 288.752C251.271 288.928 252.323 288.848 253.359 288.864C257.502 288.864 261.597 288.864 265.661 288.864C273.772 288.864 281.724 288.864 289.469 288.864C320.463 288.896 348.382 288.928 371.839 288.959C395.264 289.023 414.228 289.071 427.375 289.103C433.908 289.135 438.992 289.167 442.465 289.183C444.171 289.198 445.477 289.214 446.386 289.23C447.278 289.23 447.724 289.278 447.724 289.278C447.724 289.278 447.278 289.31 446.386 289.326C445.477 289.326 444.171 289.358 442.465 289.374C438.992 289.39 433.908 289.422 427.375 289.453C414.228 289.485 395.28 289.533 371.839 289.597C348.382 289.629 320.479 289.661 289.469 289.693C281.724 289.693 273.772 289.693 265.661 289.693C261.597 289.693 257.502 289.693 253.359 289.693C252.323 289.677 251.287 289.756 250.172 289.565C249.072 289.374 248.036 288.928 247.128 288.274C245.311 286.983 244.132 284.832 244.052 282.584C244.052 274.138 244.052 265.547 244.036 256.83C244.036 252.479 244.036 248.08 244.036 243.666C244.068 242.55 243.973 241.498 244.116 240.287C244.291 239.123 244.706 237.976 245.407 237.02C246.761 235.075 249.12 233.864 251.51 233.864C323.045 233.912 387.807 233.96 434.721 234.008C437.653 234.008 440.505 234.008 443.294 234.023C444.68 234.023 446.067 234.023 447.421 234.023C448.808 233.976 450.242 234.326 451.405 235.043C453.812 236.43 455.166 239.187 454.991 241.737C454.991 244.223 454.991 246.63 454.975 248.957C454.943 258.264 454.911 266.281 454.895 272.847C454.879 276.114 454.863 279.03 454.847 281.564C455.007 284.146 453.859 286.25 452.553 287.398C451.246 288.593 449.907 288.991 449.047 289.135C448.17 289.278 447.708 289.214 447.708 289.214L447.724 289.31Z" fill="#4D878D"/>
<path d="M355.697 248.67H303.938V252.559H355.697V248.67Z" fill="#4D878D"/>
<path d="M394.611 270.6H303.938V274.488H394.611V270.6Z" fill="#4D878D"/>
<path d="M435.342 259.364H303.938V263.253H435.342V259.364Z" fill="#4D878D"/>
<path d="M244.993 170.247L244.875 212.624C244.865 216.083 247.661 218.895 251.12 218.905L448.815 219.457C452.274 219.466 455.086 216.67 455.095 213.211L455.214 170.834C455.223 167.375 452.427 164.563 448.969 164.553L251.273 164.001C247.815 163.991 245.003 166.788 244.993 170.247Z" fill="#CE0000"/>
<path d="M356.217 178.568L304.458 178.423L304.447 182.312L356.206 182.456L356.217 178.568Z" fill="#FAFAFA"/>
<path d="M395.07 200.606L304.397 200.353L304.386 204.241L395.059 204.495L395.07 200.606Z" fill="#FAFAFA"/>
<path d="M435.832 189.484L304.428 189.117L304.417 193.006L435.821 193.373L435.832 189.484Z" fill="#FAFAFA"/>
<path d="M278.505 193.128C280.879 192.077 282.521 189.574 282.473 186.658C282.409 182.849 279.461 179.805 275.876 179.869C272.306 179.932 269.454 183.072 269.533 186.881C269.581 189.813 271.35 192.284 273.788 193.24C268.354 194.18 266.123 197.83 265.183 200.954C267.509 203.472 270.697 205.177 274.266 205.607L278.25 205.544C281.867 204.986 285.023 203.137 287.254 200.475C286.218 197.384 283.859 193.846 278.489 193.144L278.505 193.128Z" fill="#FAFAFA"/>
<path d="M276.338 205.719C276.338 205.623 277.644 205.655 279.875 205.018C282.059 204.396 285.262 202.834 287.668 199.471C288.847 197.798 289.835 195.726 290.186 193.336C290.536 190.977 290.393 188.315 289.373 185.813C288.895 184.554 288.21 183.343 287.333 182.243C286.489 181.128 285.437 180.108 284.226 179.295C281.851 177.59 278.808 176.665 275.716 176.697C272.609 176.793 269.629 177.845 267.318 179.661C266.139 180.538 265.135 181.59 264.338 182.753C263.526 183.901 262.872 185.128 262.458 186.419C261.55 188.969 261.518 191.614 261.964 193.973C262.426 196.332 263.494 198.372 264.753 199.981C267.302 203.233 270.569 204.651 272.784 205.177C275.031 205.719 276.354 205.607 276.354 205.719C276.354 205.719 275.047 205.942 272.72 205.496C270.442 205.05 267.031 203.679 264.306 200.348C262.968 198.691 261.82 196.571 261.311 194.101C260.817 191.646 260.817 188.857 261.757 186.164C262.187 184.809 262.856 183.502 263.717 182.291C264.561 181.064 265.613 179.948 266.856 179.024C269.278 177.111 272.449 175.98 275.732 175.884C279.015 175.836 282.218 176.825 284.736 178.641C286.011 179.518 287.11 180.586 288.002 181.781C288.911 182.96 289.644 184.235 290.122 185.574C291.174 188.22 291.301 191.009 290.903 193.479C290.504 195.965 289.437 198.133 288.178 199.838C285.596 203.296 282.25 204.795 280.003 205.352C277.692 205.91 276.37 205.735 276.37 205.735L276.338 205.719Z" fill="#FAFAFA"/>
<path d="M337.148 463.728C337.148 465.465 335.49 466.868 333.482 466.852C331.459 466.852 329.833 465.433 329.833 463.696C329.833 461.959 331.491 460.556 333.498 460.572C335.522 460.572 337.148 461.991 337.148 463.728Z" fill="#4D878D"/>
<path d="M348.494 463.776C348.494 465.513 346.836 466.915 344.829 466.899C342.821 466.883 341.179 465.481 341.179 463.744C341.179 462.007 342.837 460.604 344.844 460.62C346.868 460.62 348.494 462.039 348.494 463.776Z" fill="#4D878D"/>
<path d="M359.824 463.824C359.824 465.561 358.167 466.963 356.159 466.947C354.135 466.947 352.509 465.529 352.509 463.792C352.509 462.055 354.167 460.652 356.175 460.668C358.198 460.668 359.824 462.086 359.824 463.824Z" fill="#4D878D"/>
<path d="M274.473 347.099C275.174 347.178 275.557 347.194 275.541 347.258C275.541 347.194 275.892 347.194 276.545 347.115H274.473V347.099Z" fill="#4D878D"/>
<path d="M287.015 324.053C286.186 322.922 285.166 321.886 283.971 321.041C281.628 319.288 278.632 318.3 275.541 318.268C272.449 318.3 269.454 319.288 267.111 321.041C265.932 321.886 264.896 322.922 264.067 324.053C263.223 325.169 262.553 326.396 262.107 327.655C261.135 330.173 261.056 332.819 261.454 335.178C261.852 337.536 262.888 339.608 264.099 341.234C264.275 341.473 264.466 341.664 264.641 341.887C265.693 338.875 268.035 335.512 273.278 334.716C270.856 333.711 269.135 331.209 269.151 328.277C269.151 324.468 272.083 321.392 275.652 321.408C279.222 321.424 282.106 324.532 282.09 328.341C282.09 331.257 280.369 333.727 277.979 334.731C283.126 335.512 285.421 338.843 286.457 341.871C286.632 341.664 286.807 341.473 286.983 341.25C288.194 339.608 289.214 337.552 289.628 335.194C290.026 332.851 289.931 330.189 288.975 327.687C288.528 326.428 287.859 325.201 287.015 324.085V324.053Z" fill="#FAFAFA"/>
<path d="M289.771 327.368C289.309 326.03 288.608 324.723 287.732 323.527C286.855 322.316 285.772 321.217 284.529 320.308C282.059 318.428 278.856 317.376 275.557 317.344C272.258 317.376 269.071 318.428 266.585 320.308C265.326 321.217 264.243 322.316 263.382 323.527C262.49 324.723 261.789 326.03 261.342 327.368C260.338 330.046 260.291 332.851 260.737 335.321C261.199 337.807 262.314 339.959 263.605 341.632C266.266 345.043 269.645 346.461 271.924 346.955C273.071 347.21 273.995 347.29 274.617 347.29C275.238 347.29 275.557 347.29 275.557 347.242C275.557 347.178 275.174 347.178 274.489 347.083H276.561C275.907 347.163 275.557 347.178 275.557 347.242C275.557 347.274 275.876 347.29 276.497 347.29C277.119 347.29 278.043 347.226 279.19 346.955C281.469 346.461 284.847 345.027 287.508 341.632C288.815 339.943 289.915 337.807 290.377 335.321C290.823 332.851 290.759 330.046 289.771 327.368ZM289.628 335.178C289.23 337.552 288.194 339.608 286.983 341.234C286.807 341.457 286.632 341.648 286.457 341.855C285.421 338.827 283.126 335.496 277.979 334.715C280.369 333.711 282.074 331.241 282.09 328.325C282.09 324.516 279.222 321.408 275.652 321.392C272.083 321.376 269.167 324.452 269.151 328.261C269.151 331.193 270.856 333.695 273.278 334.7C268.035 335.496 265.709 338.843 264.641 341.871C264.466 341.664 264.275 341.457 264.099 341.218C262.888 339.576 261.868 337.52 261.454 335.162C261.056 332.803 261.151 330.157 262.107 327.639C262.553 326.38 263.223 325.153 264.067 324.038C264.896 322.906 265.916 321.87 267.111 321.025C269.454 319.272 272.449 318.284 275.541 318.252C278.632 318.284 281.628 319.272 283.971 321.025C285.15 321.87 286.186 322.906 287.014 324.038C287.859 325.153 288.528 326.38 288.975 327.639C289.947 330.157 290.026 332.803 289.628 335.146V335.178Z" fill="#4D878D"/>
<path d="M447.724 360.534C447.724 360.534 448.186 360.534 449.047 360.359C449.891 360.183 451.198 359.753 452.441 358.574C453.684 357.426 454.768 355.402 454.592 352.884C454.592 350.35 454.56 347.449 454.545 344.166C454.529 337.6 454.497 329.584 454.465 320.276C454.465 317.949 454.465 315.543 454.449 313.057C454.592 310.634 453.333 308.132 451.118 306.857C448.919 305.471 446.067 306.076 443.294 305.949C440.505 305.949 437.637 305.949 434.721 305.965C387.807 305.996 323.045 306.044 251.51 306.108C249.407 306.108 247.367 307.16 246.172 308.865C245.55 309.71 245.184 310.698 245.04 311.718C244.913 312.706 244.993 313.885 244.961 314.969C244.961 319.384 244.961 323.782 244.961 328.133C244.961 336.835 244.961 345.425 244.961 353.84C245.024 355.816 246.06 357.713 247.67 358.845C248.451 359.418 249.375 359.817 250.331 359.976C251.271 360.151 252.323 360.072 253.359 360.088C257.502 360.088 261.597 360.088 265.661 360.088C273.772 360.088 281.724 360.088 289.469 360.088C320.463 360.12 348.382 360.151 371.839 360.183C395.264 360.247 414.228 360.295 427.375 360.327C433.908 360.359 438.992 360.39 442.465 360.406C444.171 360.422 445.477 360.438 446.386 360.454C447.278 360.454 447.724 360.502 447.724 360.502C447.724 360.502 447.278 360.534 446.386 360.55C445.477 360.55 444.171 360.582 442.465 360.598C438.992 360.614 433.908 360.645 427.375 360.677C414.228 360.709 395.28 360.757 371.839 360.821C348.382 360.853 320.479 360.885 289.469 360.916C281.724 360.916 273.772 360.916 265.661 360.916C261.597 360.916 257.502 360.916 253.359 360.916C252.323 360.901 251.287 360.98 250.172 360.789C249.072 360.598 248.036 360.151 247.128 359.498C245.311 358.207 244.132 356.056 244.052 353.808C244.052 345.362 244.052 336.771 244.036 328.054C244.036 323.703 244.036 319.304 244.036 314.889C244.068 313.774 243.973 312.722 244.116 311.511C244.291 310.347 244.706 309.2 245.407 308.244C246.761 306.299 249.12 305.088 251.51 305.088C323.045 305.136 387.807 305.184 434.721 305.231C437.653 305.231 440.505 305.231 443.294 305.247C444.68 305.247 446.067 305.247 447.421 305.247C448.808 305.2 450.242 305.55 451.405 306.267C453.812 307.654 455.166 310.411 454.991 312.961C454.991 315.447 454.991 317.854 454.975 320.181C454.943 329.488 454.911 337.505 454.895 344.071C454.879 347.338 454.863 350.254 454.847 352.788C455.007 355.37 453.859 357.474 452.553 358.621C451.246 359.817 449.907 360.215 449.047 360.359C448.17 360.502 447.708 360.438 447.708 360.438L447.724 360.534Z" fill="#4D878D"/>
<path d="M355.697 319.894H303.938V323.783H355.697V319.894Z" fill="#4D878D"/>
<path d="M394.611 341.823H303.938V345.712H394.611V341.823Z" fill="#4D878D"/>
<path d="M435.342 330.588H303.938V334.476H435.342V330.588Z" fill="#4D878D"/>
<path d="M274.473 416.904C275.174 416.984 275.557 417 275.541 417.063C275.541 417 275.892 417 276.545 416.92H274.473V416.904Z" fill="#4D878D"/>
<path d="M287.015 393.859C286.186 392.727 285.166 391.691 283.971 390.847C281.628 389.094 278.632 388.105 275.541 388.074C272.449 388.105 269.454 389.094 267.111 390.847C265.932 391.691 264.896 392.727 264.067 393.859C263.223 394.974 262.553 396.202 262.107 397.461C261.135 399.979 261.056 402.624 261.454 404.983C261.852 407.358 262.888 409.414 264.099 411.039C264.275 411.278 264.466 411.47 264.641 411.693C265.693 408.681 268.035 405.318 273.278 404.521C270.856 403.517 269.135 401.015 269.151 398.082C269.151 394.273 272.083 391.197 275.652 391.213C279.222 391.229 282.106 394.337 282.09 398.146C282.09 401.062 280.369 403.533 277.979 404.537C283.126 405.318 285.421 408.649 286.457 411.677C286.632 411.47 286.807 411.278 286.983 411.055C288.194 409.414 289.214 407.358 289.628 404.999C290.026 402.656 289.931 399.995 288.975 397.493C288.528 396.233 287.859 395.006 287.015 393.891V393.859Z" fill="#FAFAFA"/>
<path d="M289.771 397.174C289.309 395.835 288.608 394.528 287.732 393.333C286.855 392.122 285.772 391.022 284.529 390.114C282.059 388.233 278.856 387.181 275.557 387.149C272.258 387.181 269.071 388.233 266.585 390.114C265.326 391.022 264.243 392.122 263.382 393.333C262.49 394.528 261.789 395.835 261.342 397.174C260.338 399.851 260.291 402.656 260.737 405.126C261.199 407.613 262.314 409.764 263.605 411.438C266.266 414.848 269.645 416.267 271.924 416.761C273.071 417.016 273.995 417.095 274.617 417.095C275.238 417.095 275.557 417.095 275.557 417.048C275.557 416.984 275.174 416.984 274.489 416.888H276.561C275.907 416.968 275.557 416.984 275.557 417.048C275.557 417.079 275.876 417.095 276.497 417.095C277.119 417.095 278.043 417.032 279.19 416.761C281.469 416.267 284.847 414.832 287.508 411.438C288.815 409.748 289.915 407.613 290.377 405.126C290.823 402.656 290.759 399.851 289.771 397.174ZM289.628 404.983C289.23 407.358 288.194 409.414 286.983 411.039C286.807 411.262 286.632 411.454 286.457 411.661C285.421 408.633 283.126 405.302 277.979 404.521C280.369 403.517 282.074 401.047 282.09 398.13C282.09 394.321 279.222 391.213 275.652 391.197C272.083 391.181 269.167 394.257 269.151 398.066C269.151 400.999 270.856 403.501 273.278 404.505C268.035 405.302 265.709 408.649 264.641 411.677C264.466 411.47 264.275 411.262 264.099 411.023C262.888 409.382 261.868 407.326 261.454 404.967C261.056 402.624 261.151 399.963 262.107 397.445C262.553 396.186 263.223 394.958 264.067 393.843C264.896 392.711 265.916 391.675 267.111 390.831C269.454 389.078 272.449 388.089 275.541 388.058C278.632 388.089 281.628 389.078 283.971 390.831C285.15 391.675 286.186 392.711 287.014 393.843C287.859 394.958 288.528 396.186 288.975 397.445C289.947 399.963 290.026 402.608 289.628 404.951V404.983Z" fill="#4D878D"/>
<path d="M447.724 430.323C447.724 430.323 448.186 430.323 449.047 430.148C449.891 429.973 451.198 429.542 452.441 428.363C453.684 427.216 454.768 425.192 454.592 422.673C454.592 420.139 454.56 417.239 454.545 413.956C454.529 407.39 454.497 399.373 454.465 390.066C454.465 387.739 454.465 385.332 454.449 382.846C454.592 380.424 453.333 377.921 451.118 376.646C448.919 375.26 446.067 375.866 443.294 375.738C440.505 375.738 437.637 375.738 434.721 375.754C387.807 375.786 323.045 375.834 251.51 375.897C249.407 375.897 247.367 376.949 246.172 378.655C245.55 379.499 245.184 380.487 245.04 381.507C244.913 382.495 244.993 383.675 244.961 384.759C244.961 389.173 244.961 393.572 244.961 397.923C244.961 406.625 244.961 415.215 244.961 423.63C245.024 425.606 246.06 427.502 247.67 428.634C248.451 429.208 249.375 429.606 250.331 429.766C251.271 429.941 252.323 429.861 253.359 429.877C257.502 429.877 261.597 429.877 265.661 429.877C273.772 429.877 281.724 429.877 289.469 429.877C320.463 429.909 348.382 429.941 371.839 429.973C395.264 430.036 414.228 430.084 427.375 430.116C433.908 430.148 438.992 430.18 442.465 430.196C444.171 430.212 445.477 430.228 446.386 430.244C447.278 430.244 447.724 430.291 447.724 430.291C447.724 430.291 447.278 430.323 446.386 430.339C445.477 430.339 444.171 430.371 442.465 430.387C438.992 430.403 433.908 430.435 427.375 430.467C414.228 430.499 395.28 430.546 371.839 430.61C348.382 430.642 320.479 430.674 289.469 430.706C281.724 430.706 273.772 430.706 265.661 430.706C261.597 430.706 257.502 430.706 253.359 430.706C252.323 430.69 251.287 430.77 250.172 430.578C249.072 430.387 248.036 429.941 247.128 429.287C245.311 427.996 244.132 425.845 244.052 423.598C244.052 415.151 244.052 406.561 244.036 397.843C244.036 393.492 244.036 389.094 244.036 384.679C244.068 383.563 243.973 382.511 244.116 381.3C244.291 380.137 244.706 378.989 245.407 378.033C246.761 376.089 249.12 374.877 251.51 374.877C323.045 374.925 387.807 374.973 434.721 375.021C437.653 375.021 440.505 375.021 443.294 375.037C444.68 375.037 446.067 375.037 447.421 375.037C448.808 374.989 450.242 375.34 451.405 376.057C453.812 377.443 455.166 380.2 454.991 382.766C454.991 385.253 454.991 387.659 454.975 389.986C454.943 399.293 454.911 407.31 454.895 413.876C454.879 417.143 454.863 420.06 454.847 422.594C455.007 425.176 453.859 427.279 452.553 428.427C451.246 429.622 449.907 430.021 449.047 430.164C448.17 430.307 447.708 430.244 447.708 430.244L447.724 430.323Z" fill="#4D878D"/>
<path d="M355.697 389.699H303.938V393.588H355.697V389.699Z" fill="#4D878D"/>
<path d="M394.611 411.629H303.938V415.518H394.611V411.629Z" fill="#4D878D"/>
<path d="M435.342 400.393H303.938V404.282H435.342V400.393Z" fill="#4D878D"/>
<path d="M448.346 179.151C454.207 179.151 458.959 174.399 458.959 168.537C458.959 162.675 454.207 157.923 448.346 157.923C442.484 157.923 437.733 162.675 437.733 168.537C437.733 174.399 442.484 179.151 448.346 179.151Z" fill="#263238"/>
<path d="M443.135 167.676L447.597 171.597L453.541 165.461" stroke="#FAFAFA" stroke-linecap="round" stroke-linejoin="round"/>
<path d="M154.224 641.11L151.626 656.219L174.892 657.908L174.972 643.071L154.224 641.11Z" fill="#CE0000"/>
<path d="M164.709 641.317C164.901 641.333 164.709 644.425 164.295 648.218C163.881 652.011 163.371 655.055 163.18 655.039C162.988 655.024 163.18 651.932 163.594 648.139C164.008 644.346 164.518 641.302 164.709 641.317Z" fill="#263238"/>
<path d="M174.892 656.283C174.876 656.378 173.586 656.251 171.53 656.028C169.203 655.773 166.478 655.47 163.451 655.135C160.295 654.769 157.427 654.386 155.371 654.035C153.316 653.685 152.057 653.382 152.073 653.286C152.089 653.191 153.379 653.318 155.435 653.541C157.762 653.796 160.487 654.099 163.53 654.434C166.685 654.8 169.538 655.183 171.61 655.534C173.665 655.884 174.924 656.187 174.908 656.283H174.892Z" fill="#263238"/>
<path d="M238.204 649.35L238.252 635.819L212.898 635.58L212.628 655.374L214.205 655.486C221.201 655.948 249.789 657.303 254.474 655.932C259.701 654.402 238.22 649.35 238.22 649.35H238.204Z" fill="#CE0000"/>
<g opacity="0.38">
<path d="M221.806 655.263C221.472 653.143 220.308 651.167 218.619 649.828C216.93 648.489 214.858 647.772 212.707 647.931L212.628 655.023L221.79 655.278L221.806 655.263Z" fill="black"/>
</g>
<g opacity="0.38">
<path d="M248.69 652.203C248.69 652.203 256.211 654.45 255.271 655.693C254.315 656.92 225.376 656.633 212.628 655.39L212.675 654.816L246.427 655.438C246.427 655.438 247.224 652.25 248.706 652.203H248.69Z" fill="black"/>
</g>
<path d="M212.277 654.8C212.277 654.8 212.42 654.832 212.707 654.848C213.09 654.88 213.488 654.896 213.95 654.944C215.209 655.008 216.739 655.087 218.556 655.183C222.444 655.358 227.83 655.534 233.758 655.597C239.702 655.661 245.088 655.597 248.976 655.502C250.793 655.438 252.339 655.39 253.582 655.358C254.044 655.342 254.458 655.31 254.841 655.295C255.128 655.279 255.271 655.263 255.271 655.247C255.271 655.247 255.128 655.231 254.841 655.231C254.458 655.231 254.06 655.231 253.582 655.231C252.323 655.231 250.793 655.263 248.976 655.279C245.088 655.31 239.702 655.342 233.774 655.279C227.83 655.215 222.46 655.071 218.571 654.944C216.755 654.88 215.209 654.832 213.966 654.8C213.504 654.8 213.09 654.784 212.707 654.769C212.42 654.769 212.277 654.769 212.277 654.769V654.8Z" fill="#263238"/>
<path d="M246.411 655.836C246.506 655.836 246.586 654.753 247.287 653.653C247.972 652.537 248.929 651.98 248.881 651.9C248.865 651.82 247.765 652.282 247.032 653.478C246.283 654.657 246.331 655.852 246.411 655.836Z" fill="#263238"/>
<path d="M238.969 651.964C238.969 651.964 239.399 651.581 239.782 650.991C240.164 650.418 240.403 649.908 240.339 649.86C240.276 649.812 239.909 650.242 239.527 650.832C239.144 651.406 238.905 651.916 238.969 651.964Z" fill="#263238"/>
<path d="M236.929 650.864C236.929 650.864 237.391 650.657 237.822 650.274C238.268 649.892 238.571 649.525 238.523 649.461C238.475 649.398 238.061 649.653 237.63 650.051C237.184 650.434 236.881 650.8 236.929 650.864Z" fill="#263238"/>
<path d="M235.654 648.457C235.654 648.537 236.244 648.617 236.977 648.633C237.71 648.633 238.3 648.585 238.3 648.505C238.3 648.425 237.71 648.346 236.977 648.33C236.244 648.33 235.654 648.378 235.654 648.457Z" fill="#263238"/>
<path d="M235.224 646.768C235.224 646.768 235.83 647.134 236.69 647.214C237.551 647.294 238.236 647.103 238.22 647.023C238.22 646.927 237.535 646.975 236.722 646.911C235.909 646.848 235.256 646.688 235.224 646.768Z" fill="#263238"/>
<path d="M239.845 649.764C239.845 649.764 240.467 649.876 241.471 649.764C241.981 649.716 242.57 649.589 243.208 649.398C243.526 649.286 243.861 649.206 244.212 648.999C244.371 648.888 244.562 648.744 244.626 648.505C244.69 648.266 244.562 647.979 244.387 647.852C242.841 647.023 241.264 647.884 240.69 648.68C240.371 649.095 240.212 649.493 240.148 649.764C240.084 650.035 240.084 650.195 240.1 650.21C240.164 650.226 240.212 649.573 240.849 648.824C241.168 648.457 241.646 648.107 242.252 647.931C242.825 647.772 243.654 647.724 244.196 648.091C244.451 648.282 244.355 648.585 244.052 648.76C243.781 648.935 243.431 649.031 243.128 649.143C242.507 649.35 241.933 649.477 241.439 649.557C240.467 649.716 239.845 649.716 239.845 649.764Z" fill="#263238"/>
<path d="M240.276 649.844C240.276 649.844 240.547 649.445 240.467 648.712C240.435 648.346 240.308 647.931 240.037 647.517C239.75 647.15 239.383 646.656 238.682 646.672C238.3 646.72 238.108 647.15 238.172 647.421C238.204 647.708 238.332 647.947 238.443 648.155C238.682 648.569 238.953 648.904 239.208 649.143C239.718 649.653 240.116 649.844 240.132 649.812C240.164 649.78 239.814 649.509 239.367 648.999C239.144 648.744 238.905 648.41 238.698 648.011C238.475 647.66 238.332 647.039 238.746 646.975C239.16 646.943 239.559 647.358 239.814 647.676C240.068 648.027 240.212 648.41 240.26 648.744C240.371 649.414 240.228 649.828 240.26 649.844H240.276Z" fill="#263238"/>
<path d="M212.851 647.868C212.851 647.868 213.584 647.804 214.715 647.947C215.847 648.091 217.424 648.569 218.779 649.669C220.133 650.784 220.93 652.219 221.296 653.302C221.679 654.386 221.695 655.119 221.759 655.119C221.775 655.119 221.79 654.944 221.759 654.609C221.743 654.274 221.663 653.812 221.504 653.239C221.185 652.107 220.388 650.593 218.97 649.429C217.552 648.282 215.894 647.804 214.731 647.724C214.141 647.676 213.663 647.708 213.329 647.74C213.01 647.788 212.819 647.836 212.835 647.852L212.851 647.868Z" fill="#263238"/>
<path d="M215.592 637.333C215.512 637.333 215.384 639.66 215.321 642.545C215.257 645.429 215.273 647.756 215.353 647.756C215.432 647.756 215.56 645.429 215.623 642.545C215.687 639.676 215.671 637.333 215.592 637.333Z" fill="#263238"/>
<path d="M225.025 652.824C225.025 652.824 226.667 653.191 228.722 653.223C230.778 653.27 232.435 653.047 232.435 652.968C232.435 652.872 230.778 652.968 228.738 652.92C226.699 652.888 225.041 652.728 225.041 652.824H225.025Z" fill="#263238"/>
<path d="M220.053 652.776C220.053 652.776 220.181 653.127 220.356 653.509C220.532 653.892 220.611 654.227 220.691 654.227C220.771 654.227 220.818 653.828 220.627 653.382C220.436 652.936 220.101 652.713 220.053 652.776Z" fill="#263238"/>
<path d="M218.205 650.418C218.205 650.418 218.301 650.736 218.571 651.007C218.826 651.278 219.097 651.454 219.145 651.39C219.209 651.326 219.05 651.071 218.779 650.8C218.524 650.529 218.253 650.37 218.205 650.418Z" fill="#263238"/>
<path d="M215.544 649.334C215.56 649.414 215.894 649.414 216.261 649.557C216.627 649.685 216.898 649.892 216.962 649.828C217.026 649.78 216.819 649.414 216.356 649.254C215.894 649.095 215.512 649.254 215.528 649.318L215.544 649.334Z" fill="#263238"/>
<path d="M213.647 648.808C213.647 648.808 213.759 649.015 213.966 649.095C214.173 649.174 214.364 649.174 214.396 649.095C214.428 649.015 214.285 648.888 214.078 648.808C213.87 648.728 213.679 648.712 213.647 648.808Z" fill="#263238"/>
<path d="M199.768 238.056C199.959 234.087 200.373 229.593 200.373 229.593C200.373 229.593 210.189 228.509 210.795 218.373C211.385 208.221 210.795 184.841 210.795 184.841L192.915 175.741L173.251 191.264L176.231 241.976L194.334 243.124C197.186 243.299 199.64 241.036 199.784 238.056H199.768Z" fill="#FFBE9D"/>
<path d="M201.536 210.341C201.536 210.341 201.568 210.532 201.377 210.771C201.202 211.01 200.803 211.281 200.246 211.265C199.098 211.217 198.015 209.958 197.6 208.412C197.393 207.631 197.393 206.834 197.553 206.165C197.68 205.496 198.062 204.826 198.62 204.635C198.891 204.539 199.162 204.539 199.369 204.651C199.576 204.763 199.704 204.922 199.768 205.065C199.895 205.368 199.799 205.544 199.768 205.544C199.72 205.544 199.736 205.368 199.592 205.177C199.449 204.986 199.114 204.81 198.748 205.002C198.365 205.177 198.11 205.655 198.015 206.277C197.903 206.882 197.919 207.583 198.094 208.285C198.445 209.655 199.401 210.787 200.262 210.898C200.676 210.946 201.026 210.787 201.218 210.643C201.409 210.484 201.473 210.341 201.52 210.357L201.536 210.341Z" fill="#EB996E"/>
<path d="M201.457 216.62C201.584 216.253 201.68 215.855 201.775 215.472C201.855 215.186 201.935 214.915 202.014 214.628C202.174 213.799 202.285 212.954 202.301 212.094C200.564 212.779 198.477 212.317 197.154 210.978C195.831 209.639 195.337 207.472 195.943 205.655C196.644 203.567 198.556 202.165 200.532 201.336C202.508 200.507 204.628 200.093 206.572 199.169C210.683 197.208 213.536 193.16 215.464 188.905C216.819 185.925 217.838 182.514 216.914 179.359C215.544 174.689 210.588 172.362 206.062 171.087C199.178 169.143 191.72 168.266 185.011 170.752C178.286 173.223 170.207 177.589 170.207 185.016C166.239 184.698 163.976 188.172 162.399 192.475C161.475 195.025 160.646 200.635 160.646 200.635" fill="#263238"/>
<path d="M175.609 231.585C175.609 231.585 159.61 221.927 160.614 200.619C161.634 179.327 201.457 216.604 201.457 216.604C201.457 216.604 193.824 241.689 176.422 231.569" fill="#263238"/>
<path d="M169.697 210.357C169.586 210.261 170.398 209.512 171.036 207.966C171.689 206.468 172.072 204.014 171.084 201.703C170.064 199.392 168.008 198.021 166.462 197.479C164.885 196.906 163.801 196.985 163.801 196.842C163.785 196.762 164.901 196.459 166.638 196.921C168.343 197.352 170.685 198.77 171.849 201.368C172.964 203.982 172.422 206.659 171.578 208.205C170.733 209.799 169.745 210.42 169.713 210.357H169.697Z" fill="#CE0000"/>
<path d="M161.49 197.32C161.49 197.32 161.092 197.384 160.455 197.097C159.833 196.826 158.973 196.188 158.351 195.073C157.714 193.973 157.459 192.427 157.666 190.802C157.873 189.192 158.351 187.455 159.307 185.813C160.247 184.172 161.714 182.897 163.259 182.307C164.805 181.685 166.446 181.765 167.594 182.291C168.757 182.785 169.474 183.582 169.825 184.172C170.175 184.777 170.207 185.16 170.175 185.176C170.064 185.271 169.57 183.646 167.387 182.833C166.335 182.434 164.933 182.419 163.562 183.008C162.192 183.582 160.901 184.713 160.024 186.228C158.319 189.272 157.857 192.762 158.877 194.786C159.897 196.89 161.586 197.176 161.506 197.304L161.49 197.32Z" fill="#263238"/>
<path d="M342.438 204.508C341.721 203.774 339.968 204.125 339.968 204.125C339.968 204.125 340.271 202.053 339.952 201.033C339.634 200.029 337.387 200.22 337.387 200.22C337.387 200.22 337.243 199.248 337.45 197.686C337.498 197.288 337.291 197.001 336.925 196.794C335.857 196.156 333.578 196.188 333.578 196.188C332.208 195.2 337.769 187.439 339.825 184.952C341.865 182.498 341.514 180.522 339.681 180.522C338.422 180.522 331.937 187.997 329.961 190.499C327.985 193.001 322.678 199.981 322.487 194.419C322.312 188.857 320.065 184.634 318.678 183.917C317.276 183.199 315.778 184.889 316.543 186.435C317.164 187.678 317.563 190.084 317.786 191.917C317.977 193.415 317.913 194.945 317.579 196.411C316.655 200.587 315.651 203.296 315.188 204.444L315.045 204.364C315.045 204.364 276.21 241.61 273.406 244.271C270.888 246.662 220.42 241.434 210.317 240.367C207.56 240.064 203.465 239.506 199.911 239.665C195.529 239.857 194.748 240.478 190.35 240.542C176.916 240.717 167.514 241.737 159.18 243.14C149.109 244.845 143.547 252.734 140.44 262.472C130.241 294.314 102.625 369.299 98.5133 411.661C95.2784 417.749 91.6451 424.873 90.1791 428.873C87.3266 436.65 88.0118 436.921 88.9839 437.097C91.5654 437.575 94.5295 423.598 95.6449 426.961C96.7445 430.339 90.0356 443.647 92.7606 444.029C96.3142 444.539 99.1507 429.845 99.4695 428.618C99.7882 427.423 101.589 427.821 101.222 428.921C100.712 430.483 95.6927 447.089 99.1826 447.615C101.111 447.918 101.318 444.396 101.318 444.396C101.318 444.396 104.856 428.522 106.497 428.825C108.154 429.144 106.401 438.531 105.573 441.655C104.76 444.747 105.907 446.388 107.565 445.607C108.696 445.081 111.437 435.567 112.17 432.459C112.903 429.351 114.783 420.793 117.285 425.765C119.803 430.738 123.596 433.606 125.173 433.67C126.751 433.734 127.404 431.566 126.05 430.499C124.95 429.622 123.58 427.614 122.608 426.052C121.811 424.777 121.221 423.359 120.903 421.893C119.66 416.203 119.66 412.888 119.66 412.888L119.373 411.055C123.357 391.309 136.87 324.053 153.363 287.063L158.128 310.395L161.076 320.738L142.973 365.474L220.213 364.454L208.691 320.069L222.683 273.787C237.822 274.122 276.72 274.695 283.254 271.763C291.397 268.129 333.562 214.962 333.562 214.962C336.415 212.699 339.299 210.245 341.45 208.125C341.45 208.125 343.968 206.085 342.422 204.508H342.438Z" fill="#FFBE9D"/>
<path d="M139.611 332.516C141.842 324.866 153.363 287.031 153.363 287.031C153.363 287.031 159.02 317.87 157.523 321.583C155.817 325.87 152.662 330.763 152.662 330.763C139.595 350.653 141.316 360.598 141.316 360.598L220.213 358.191C220.404 347.162 213.87 321.503 212.516 317.408C211.146 313.328 215.687 299.908 215.687 299.908C215.687 299.908 224.595 290.856 224.26 286.186C223.559 276.799 222.699 273.771 222.699 273.771L281.134 274.887L274.601 243.108L218.253 238.996L199.513 237.243C190.095 245.196 175.944 237.243 175.944 237.243C157.969 238.996 155.339 241.881 147.961 249.244C139.213 257.993 115.532 324.818 115.532 324.818L139.627 332.5L139.611 332.516Z" fill="#CE0000"/>
<path d="M186.27 324.834C186.27 324.962 184.677 325.057 182.111 325.041C179.545 325.041 175.992 324.866 172.088 324.468C168.183 324.069 164.678 323.527 162.16 323.033C159.642 322.539 158.112 322.125 158.128 321.997C158.16 321.87 159.722 322.061 162.271 322.38C164.805 322.715 168.311 323.161 172.183 323.543C176.056 323.926 179.577 324.197 182.127 324.372C184.677 324.563 186.254 324.691 186.254 324.818L186.27 324.834Z" fill="#263238"/>
<path d="M191.672 318.125C191.704 318.236 190.079 318.858 187.37 319.591C184.661 320.324 180.852 321.137 176.581 321.647C172.311 322.157 168.422 322.252 165.618 322.173C162.813 322.093 161.076 321.87 161.092 321.758C161.092 321.615 162.829 321.615 165.618 321.519C168.406 321.44 172.247 321.233 176.486 320.723C180.709 320.213 184.501 319.511 187.226 318.953C189.951 318.38 191.64 317.997 191.688 318.125H191.672Z" fill="#263238"/>
<path d="M218.221 288.179C218.348 288.21 218.141 289.74 217.679 292.211C217.217 294.665 216.5 298.06 215.592 301.757C214.683 305.47 213.759 308.801 213.026 311.192C212.293 313.583 211.767 315.049 211.64 315.017C211.512 314.985 211.815 313.471 212.388 311.033C213.058 308.26 213.839 305.072 214.683 301.55C215.56 298.028 216.341 294.856 217.026 292.083C217.647 289.661 218.077 288.179 218.205 288.194L218.221 288.179Z" fill="#263238"/>
<path d="M140.79 361.14L219.687 358.733L253.996 492.798L247.67 646.577H205.919L211.098 496.065L180.581 402.736L185.218 648.155L143.053 648.776L138.687 418.354C138.496 411.836 136.36 397.11 137.157 390.624L140.806 361.124L140.79 361.14Z" fill="#4D878D"/>
<path d="M191.099 404.648C191.083 404.776 189.601 404.696 187.226 404.425C184.852 404.154 181.585 403.644 178.016 402.927C174.446 402.21 171.227 401.397 168.932 400.744C166.638 400.09 165.235 399.58 165.267 399.453C165.331 399.198 171.068 400.584 178.191 402.019C185.314 403.453 191.131 404.393 191.099 404.648Z" fill="#263238"/>
<path d="M247.303 638.146C247.303 638.401 237.853 638.608 226.189 638.608C214.524 638.608 206.221 638.257 206.221 637.986C206.221 637.716 214.524 637.668 226.189 637.668C237.853 637.668 247.303 637.875 247.303 638.13V638.146Z" fill="#263238"/>
<path d="M184.613 638.608C184.613 638.863 175.434 639.07 164.136 639.07C152.837 639.07 143.659 638.863 143.659 638.608C143.659 638.353 152.822 638.146 164.136 638.146C175.45 638.146 184.613 638.353 184.613 638.608Z" fill="#263238"/>
<path d="M179.482 638.608C179.227 638.608 178.111 585.553 177.012 520.114C175.896 454.644 175.211 401.588 175.466 401.588C175.721 401.588 176.836 454.628 177.936 520.098C179.051 585.537 179.737 638.608 179.482 638.608Z" fill="#263238"/>
<path d="M241.694 638.146C241.694 638.146 241.678 637.907 241.678 637.413C241.678 636.887 241.694 636.186 241.71 635.277C241.758 633.349 241.837 630.608 241.949 627.085C242.204 619.93 242.554 609.634 243.001 596.964C243.973 571.48 245.311 536.37 246.793 497.579C246.793 497.228 246.825 496.862 246.841 496.527V496.654C237.503 459.202 229.057 425.367 222.922 400.823C219.91 388.6 217.472 378.702 215.783 371.802C214.97 368.407 214.333 365.761 213.886 363.897C213.695 363.02 213.536 362.351 213.424 361.841C213.329 361.379 213.281 361.14 213.297 361.14C213.297 361.14 213.392 361.363 213.52 361.825C213.663 362.319 213.839 363.004 214.078 363.865C214.556 365.714 215.257 368.343 216.133 371.722C217.902 378.607 220.436 388.488 223.559 400.68C229.758 425.208 238.3 459.026 247.749 496.447V496.511V496.575C247.749 496.909 247.718 497.26 247.702 497.627C246.108 536.418 244.674 571.528 243.622 596.996C243.064 609.682 242.602 619.945 242.284 627.117C242.108 630.639 241.965 633.381 241.869 635.309C241.821 636.202 241.774 636.919 241.742 637.445C241.71 637.923 241.678 638.162 241.662 638.162L241.694 638.146Z" fill="#263238"/>
<path d="M228.085 493.403C228.133 493.658 223.99 494.567 218.858 495.459C215.018 496.113 211.703 496.575 210.269 496.655V496.288C210.747 496.415 211.002 496.527 211.002 496.591C211.002 496.655 210.715 496.67 210.221 496.655L209.138 496.607L210.221 496.288C211.608 495.874 214.89 495.204 218.715 494.551C223.846 493.674 228.053 493.148 228.101 493.403H228.085Z" fill="#263238"/>
<path d="M227.288 498.535C227.256 498.79 223.543 498.503 218.986 498.153C214.428 497.786 210.715 497.499 210.715 497.244C210.715 496.989 214.46 496.878 219.05 497.244C223.639 497.595 227.32 498.296 227.288 498.551V498.535Z" fill="#263238"/>
<path d="M140.456 363.976C142.368 366.654 145.077 367.61 148.248 368.12C151.403 368.63 154.638 368.295 157.809 367.945C178.175 365.682 199.752 363.594 219.703 358.749C193.887 360.199 166.622 359.705 140.806 361.155C140.806 361.155 140.583 362.924 140.535 363.355" fill="#263238"/>
<path d="M167.052 400.377L181.601 456.843L180.581 402.752L167.052 400.377Z" fill="#263238"/>
<path d="M164.12 197.957C158.511 196.475 152.662 202.436 152.455 208.237C152.391 209.894 152.63 211.807 151.467 212.97C150.224 214.213 148.168 213.847 146.415 213.99C142.814 214.277 139.627 217.385 139.292 220.987C139.037 223.569 140.073 226.342 138.99 228.7C137.97 230.948 135.404 232.015 133.667 233.768C131.436 236.032 130.655 239.41 130.878 242.582C131.101 245.753 132.233 248.781 133.348 251.762C134.368 254.487 135.707 257.515 138.448 258.487H162.016L163.785 249.594L166.67 258.487H170.51L168.454 200.73C168.454 200.73 168.454 199.073 164.136 197.941L164.12 197.957Z" fill="#263238"/>
<path d="M131.898 225.545C131.898 225.545 131.643 225.481 131.261 225.672C130.894 225.848 130.432 226.437 130.703 227.202C130.926 227.951 131.723 228.732 132.838 228.94C133.938 229.194 135.34 228.621 135.882 227.298C136.169 226.66 136.217 225.911 135.93 225.21C135.675 224.493 135.165 223.824 134.639 223.075C133.508 221.624 132.87 219.536 133.173 217.433C133.428 215.345 134.719 213.225 136.743 212.094C138.719 210.93 141.38 210.675 143.611 211.695C145.794 212.636 147.674 214.022 149.746 213.751C150.734 213.656 151.658 213.178 152.057 212.365C152.471 211.552 152.407 210.532 152.375 209.528C152.184 205.4 153.778 201.687 156.104 199.567C158.431 197.416 161.124 196.906 162.813 196.985C163.674 197.017 164.343 197.192 164.773 197.32C165.203 197.479 165.411 197.575 165.411 197.607C165.395 197.686 164.502 197.304 162.829 197.32C161.204 197.352 158.67 197.925 156.519 200.013C154.399 202.053 152.949 205.591 153.156 209.528C153.188 210.516 153.316 211.648 152.774 212.747C152.232 213.863 150.989 214.484 149.842 214.596C148.678 214.723 147.451 214.468 146.4 213.974C145.332 213.512 144.344 212.923 143.308 212.492C141.284 211.568 138.958 211.807 137.157 212.827C135.324 213.831 134.193 215.68 133.938 217.576C133.651 219.489 134.177 221.321 135.213 222.708C135.707 223.441 136.249 224.158 136.535 225.019C136.838 225.864 136.774 226.836 136.408 227.569C136.057 228.318 135.468 228.908 134.783 229.21C134.097 229.529 133.364 229.545 132.743 229.418C131.468 229.147 130.607 228.206 130.4 227.314C130.145 226.374 130.767 225.672 131.213 225.545C131.675 225.385 131.93 225.561 131.914 225.577L131.898 225.545Z" fill="#263238"/>
<path d="M223.209 273.229C223.209 273.229 222.555 273.309 221.392 273.197C220.229 273.086 218.54 272.687 216.627 271.811C214.715 270.934 212.596 269.484 210.731 267.38C208.867 265.293 207.337 262.488 206.715 259.284C206.158 256.065 206.604 252.909 207.608 250.295C208.612 247.666 210.078 245.562 211.56 244.064C213.042 242.566 214.476 241.594 215.528 241.084C216.58 240.558 217.201 240.367 217.217 240.414C217.329 240.59 214.779 241.434 211.99 244.478C210.604 245.976 209.249 248.032 208.325 250.566C207.401 253.085 207.002 256.097 207.528 259.141C208.118 262.169 209.552 264.846 211.305 266.886C213.058 268.926 215.066 270.377 216.882 271.285C220.563 273.15 223.241 273.054 223.209 273.245V273.229Z" fill="#263238"/>
</g>
<defs>
<clipPath id="clip0_104_3351">
<rect width="684" height="661" fill="white"/>
</clipPath>
</defs>
</svg>
