<svg width="160" height="36" viewBox="0 0 160 36" fill="none" xmlns="http://www.w3.org/2000/svg">
<g clip-path="url(#clip0_101_440)">
<path d="M132.463 8.13776V16.4826C132.463 17.9496 133.015 18.9882 134.395 18.9882C136.756 18.9882 137.646 15.7482 137.646 12.1734V8.13776H142.246L142.228 22.6512H139.1L138.076 17.001C137.493 20.4552 135.746 22.6854 132.77 22.6854C129.365 22.6854 127.863 20.3328 127.863 16.4808V8.13776H132.463Z" fill="white"/>
<path d="M58.3118 8.11257C58.4654 7.80657 58.5268 7.53117 58.5268 7.28817C58.5268 6.58437 58.0969 6.18837 57.3004 6.15777L58.6803 3.98697C60.3365 4.04817 61.3786 4.96437 61.3786 6.24957C61.3786 7.19637 60.8566 7.93077 59.5996 8.66337C61.0715 9.51837 61.8698 10.8036 61.8698 12.3624C61.8698 14.8986 59.4479 17.1 55.1223 17.1C53.9266 17.1 52.852 16.947 51.902 16.6104C51.5336 16.794 51.1362 17.1306 51.1362 17.5878C51.1362 18.3816 51.9941 18.6264 53.0687 18.6264H56.4732C60.9505 18.6264 63.1901 20.2464 63.1901 22.7214C63.1901 25.839 60.1848 27.459 54.8477 27.459C50.4011 27.459 46.8124 26.4816 46.8124 24.0966C46.8124 22.446 48.8678 21.4992 51.474 21.4686C48.8985 21.1014 47.58 20.3382 47.58 18.6264C47.58 17.0982 49.3897 16.3044 50.7696 16.0902C49.2362 15.2658 48.409 13.95 48.409 12.3606C48.409 9.57957 51.0152 7.59237 55.1259 7.59237C56.3504 7.59237 57.3925 7.80657 58.3118 8.11257ZM54.1109 21.8052C52.2397 21.8052 51.1055 22.2948 51.1055 23.3946C51.1055 24.5556 52.5775 25.1676 55.0302 25.1676C57.4828 25.1676 58.9855 24.4332 58.9855 23.2416C58.9855 22.4172 58.189 21.8052 56.5328 21.8052H54.1109ZM55.1223 9.91617C53.4661 9.91617 52.7003 11.1078 52.7003 12.3606C52.7003 13.6134 53.4661 14.805 55.1223 14.805C56.7785 14.805 57.5749 13.6746 57.5749 12.3606C57.5749 11.0466 56.7785 9.91617 55.1223 9.91617Z" fill="white"/>
<path d="M90.1749 22.752C87.7223 22.752 86.402 21.1626 85.6362 19.359V27.459H81.0361V8.20438H83.7037L84.6844 12.7278C85.2678 10.4652 86.5555 7.89838 90.0503 7.89838C93.9135 7.89838 96.0303 11.1078 96.0303 15.3252C96.0303 19.5426 93.9768 22.752 90.1749 22.752ZM88.5802 10.9548C86.9547 10.9548 85.6362 12.6054 85.6362 15.3252C85.6362 18.045 86.9547 19.6956 88.5802 19.6956C90.4513 19.6956 91.432 17.892 91.432 15.3252C91.432 12.7584 90.4513 10.9548 88.5802 10.9548Z" fill="white"/>
<path d="M68.4928 8.13776V16.4826C68.4928 17.9496 69.0455 18.9882 70.4253 18.9882C72.7859 18.9882 73.6763 15.7482 73.6763 12.1734V8.13776H78.2764L78.2583 22.6512H75.1302L74.1061 17.001C73.5228 20.4552 71.7763 22.6854 68.7998 22.6854C65.3953 22.6854 63.8927 20.3328 63.8927 16.4808V8.13776H68.4928Z" fill="white"/>
<path d="M103.291 22.6854C100.052 22.6854 97.952 21.2814 96.6028 19.6362L98.6419 17.5446C99.9007 19.098 101.49 20.025 103.141 20.025C104.34 20.025 104.73 19.458 104.73 18.8298C104.73 18.1134 104.1 17.6634 102.451 17.127C98.5227 15.8418 97.3523 14.526 97.3523 12.1662C97.3523 9.35636 99.7508 8.16116 103.02 8.16116C105.449 8.16116 107.578 9.08816 109.137 10.5516L107.548 12.7044C106.379 11.6586 104.759 10.8216 103.17 10.8216C102.27 10.8216 101.761 11.1798 101.761 11.8674C101.761 12.8538 102.601 13.0626 104.671 13.869C107.519 14.9742 109.139 15.9912 109.139 18.3222C109.137 21.0708 106.889 22.6854 103.291 22.6854Z" fill="white"/>
<path d="M120.81 22.6854V14.3424C120.81 12.8754 120.257 11.8368 118.877 11.8368C116.517 11.8368 115.626 15.0768 115.626 18.6516V22.6854H111.026V2.32916H115.626V13.3326C116.21 10.0314 118.048 8.13596 120.503 8.13596C123.907 8.13596 125.41 10.4904 125.41 14.3406V22.6836H120.81V22.6854Z" fill="white"/>
<path d="M154.145 22.752C151.692 22.752 150.372 21.1626 149.606 19.359V27.459H145.006V8.20438H147.674L148.654 12.7278C149.238 10.4652 150.526 7.89838 154.02 7.89838C157.884 7.89838 160 11.1078 160 15.3252C160 19.5426 157.947 22.752 154.145 22.752ZM152.55 10.9548C150.925 10.9548 149.606 12.6054 149.606 15.3252C149.606 18.045 150.925 19.6956 152.55 19.6956C154.421 19.6956 155.402 17.892 155.402 15.3252C155.402 12.7584 154.421 10.9548 152.55 10.9548Z" fill="white"/>
<path d="M31.7189 5.48277V5.47917C31.5202 2.98797 29.2825 0.75597 26.7377 0.50217H26.7287C19.5097 -0.16563 12.4912 -0.16923 5.26868 0.50217H5.25784C2.71306 0.75597 0.47892 2.98977 0.276637 5.48277C-0.0918056 10.206 -0.0918056 14.9994 0.276637 19.7298C0.47892 22.2174 2.71306 24.4494 5.25784 24.705H5.26868C6.06697 24.7806 6.87971 24.8472 7.68162 24.903C7.72497 24.9066 7.76109 24.9462 7.76109 24.993V29.8512C7.76109 30.5316 8.16926 31.1436 8.8014 31.4028C9.01271 31.4892 9.23305 31.5324 9.45159 31.5324C9.88867 31.5324 10.3203 31.3614 10.6418 31.041L15.8614 25.839C16.2696 25.4322 16.8096 25.2054 17.3858 25.1982C20.4651 25.1622 23.6096 24.9966 26.7287 24.7068H26.7377C29.2825 24.453 31.5202 22.2192 31.7189 19.7298C32.0874 14.9994 32.0874 10.206 31.7189 5.48277Z" fill="#6A62A7"/>
<path d="M20.3821 17.4672C20.0461 17.4672 19.7138 17.307 19.5097 17.0082C19.181 16.5294 19.3038 15.8742 19.7842 15.5448L23.0442 13.3218L19.7842 11.0988C19.3038 10.7712 19.1792 10.116 19.5097 9.63539C19.8384 9.15659 20.4958 9.03239 20.9781 9.36179L25.5114 12.4524C25.7985 12.6486 25.9701 12.9726 25.9701 13.32C25.9701 13.6674 25.7985 13.9932 25.5114 14.1876L20.9781 17.2782C20.7957 17.4078 20.588 17.4672 20.3821 17.4672Z" fill="white"/>
<path d="M11.6135 17.4672C11.4076 17.4672 11.1999 17.4078 11.0175 17.2836L6.48417 14.193C6.197 13.9968 6.02542 13.6728 6.02542 13.3254C6.02542 12.978 6.197 12.6522 6.48417 12.4578L11.0175 9.36719C11.4997 9.03959 12.1553 9.16199 12.4858 9.64079C12.8145 10.1196 12.6917 10.7748 12.2113 11.1042L8.94949 13.3236L12.2095 15.5466C12.6899 15.8742 12.8145 16.5294 12.484 17.01C12.2799 17.307 11.9494 17.4672 11.6135 17.4672Z" fill="white"/>
<path d="M14.4526 20.5578C14.3678 20.5578 14.2811 20.547 14.1962 20.5254C13.6309 20.385 13.2859 19.8126 13.4286 19.2492L16.5297 6.88498C16.6705 6.32158 17.2431 5.97778 17.8102 6.11998C18.3755 6.26038 18.7204 6.83278 18.5778 7.39618L15.4767 19.7604C15.3575 20.2374 14.9258 20.5578 14.4526 20.5578Z" fill="white"/>
<path d="M39.4725 9.95398C39.2702 7.46098 37.0361 5.22718 34.4913 4.97338H34.4804C34.4804 4.97338 34.4696 4.97338 34.4642 4.97338C33.7869 4.91038 33.3787 5.54038 33.4925 6.20818C34.1355 9.99538 34.0741 16.8012 33.7056 21.528C33.5069 24.0192 31.2692 26.2512 28.7244 26.505H28.7154C25.5963 26.7948 22.45 26.9028 19.3725 26.9964C18.7765 27.0144 18.2816 27.1458 17.8734 27.3402C16.7843 27.855 17.1401 29.4894 18.3448 29.547C19.6885 29.61 21.0287 29.6514 22.3543 29.6676C22.9305 29.6748 23.4813 29.9016 23.8895 30.3084L29.1091 35.5104C29.4306 35.8308 29.8623 36.0018 30.2993 36.0018C30.5179 36.0018 30.7364 35.9586 30.9495 35.8722C31.5817 35.6112 31.9898 35.001 31.9898 34.3206V29.4624C31.9898 29.4156 32.026 29.376 32.0693 29.3724C32.8712 29.3166 33.6839 29.25 34.4822 29.1744H34.4931C37.0379 28.9206 39.272 26.6868 39.4743 24.1992C39.8409 19.4724 39.8409 14.679 39.4743 9.95578L39.4725 9.95398Z" fill="#EB435F"/>
</g>
<defs>
<clipPath id="clip0_101_440">
<rect width="160" height="36" fill="white" transform="translate(0.000305176 -3.05176e-05)"/>
</clipPath>
</defs>
</svg>
