<svg width="210" height="59" viewBox="0 0 210 59" fill="none" xmlns="http://www.w3.org/2000/svg">
<g clip-path="url(#clip0_1148_7969)">
<path d="M82.017 33.3696H81.9484L78.0651 17.6729H73.3723L69.4203 33.1775H69.3517L65.7429 17.6729H60.7344L66.772 40.4633H71.8354L75.6364 24.9449H75.705L79.5608 40.4633H84.5419L90.6618 17.6729H85.7494L82.017 33.3696Z" fill="white"/>
<path d="M105.948 25.384C105.496 24.794 104.892 24.3412 104.11 24.0119C103.328 23.6826 102.34 23.518 101.132 23.518C100.281 23.518 99.4031 23.7375 98.5112 24.1766C97.6193 24.6156 96.8783 25.3154 96.3157 26.2622H96.2196V17.6729H91.6914V40.4633H96.2196V31.8191C96.2196 30.1452 96.4941 28.9377 97.043 28.1968C97.5918 27.4696 98.4837 27.0991 99.7187 27.0991C100.803 27.0991 101.557 27.4284 101.983 28.1008C102.408 28.7731 102.614 29.7884 102.614 31.1468V40.4633H107.142V30.3098C107.142 29.2945 107.046 28.3615 106.868 27.5108C106.689 26.6738 106.374 25.9603 105.921 25.3703L105.948 25.384Z" fill="white"/>
<path d="M124.748 38.9263C124.666 38.2402 124.625 37.5405 124.625 36.7858V28.1965C124.625 27.1949 124.405 26.3991 123.953 25.7816C123.513 25.1779 122.937 24.6977 122.237 24.3547C121.538 24.0116 120.755 23.7921 119.905 23.6686C119.054 23.5451 118.217 23.4902 117.38 23.4902C116.46 23.4902 115.555 23.5863 114.649 23.7647C113.743 23.943 112.934 24.2449 112.207 24.6702C111.479 25.0956 110.889 25.6581 110.423 26.3579C109.956 27.0577 109.682 27.9495 109.627 29.006H114.155C114.237 28.1142 114.539 27.4693 115.047 27.0851C115.555 26.7009 116.255 26.5088 117.147 26.5088C117.544 26.5088 117.929 26.5363 118.285 26.5912C118.642 26.646 118.944 26.7558 119.205 26.9067C119.466 27.0714 119.685 27.2909 119.836 27.5791C120.001 27.8672 120.069 28.2514 120.069 28.7454C120.097 29.2119 119.946 29.5686 119.658 29.8156C119.356 30.0626 118.958 30.2547 118.45 30.3781C117.942 30.5016 117.352 30.5977 116.694 30.6663C116.035 30.7349 115.363 30.8172 114.69 30.927C114.004 31.0367 113.332 31.174 112.659 31.3523C111.987 31.5307 111.397 31.8051 110.876 32.1619C110.354 32.5323 109.929 33.0126 109.599 33.6163C109.27 34.22 109.105 34.9884 109.105 35.9351C109.105 36.7858 109.243 37.5267 109.531 38.1305C109.819 38.7479 110.217 39.2556 110.725 39.6672C111.232 40.0651 111.836 40.367 112.508 40.5591C113.195 40.7512 113.922 40.8472 114.704 40.8472C115.719 40.8472 116.721 40.6963 117.695 40.3944C118.67 40.0926 119.52 39.5712 120.248 38.8302C120.275 39.1047 120.303 39.3791 120.357 39.6398C120.412 39.9005 120.481 40.1612 120.563 40.4219H125.16C124.954 40.0788 124.803 39.5712 124.707 38.8851L124.748 38.9263ZM120.083 34.0691C120.083 34.3298 120.056 34.6728 120.001 35.0981C119.946 35.5235 119.809 35.9488 119.575 36.3605C119.342 36.7721 118.972 37.1288 118.491 37.4307C117.997 37.7326 117.311 37.8835 116.419 37.8835C116.062 37.8835 115.706 37.856 115.363 37.7874C115.02 37.7188 114.731 37.6091 114.471 37.4581C114.21 37.2935 114.018 37.074 113.867 36.7995C113.716 36.5251 113.647 36.1821 113.647 35.7842C113.647 35.3588 113.716 35.0021 113.867 34.7277C114.018 34.4533 114.21 34.22 114.457 34.0416C114.704 33.8633 114.992 33.7123 115.321 33.6163C115.651 33.5065 115.98 33.4242 116.323 33.3556C116.68 33.287 117.05 33.2321 117.407 33.1909C117.764 33.1498 118.121 33.0949 118.45 33.0263C118.779 32.9577 119.095 32.8753 119.369 32.7793C119.658 32.6833 119.891 32.546 120.083 32.3814V34.0691Z" fill="white"/>
<path d="M133.077 19.0176H128.549V23.9571H125.805V26.9894H128.549V36.7176C128.549 37.5546 128.686 38.2132 128.961 38.7346C129.235 39.2422 129.619 39.6401 130.1 39.9146C130.58 40.189 131.129 40.3811 131.76 40.4771C132.391 40.5732 133.05 40.6143 133.75 40.6143C134.202 40.6143 134.655 40.6143 135.122 40.5869C135.588 40.5594 136.014 40.5183 136.398 40.4634V36.9508C136.178 36.992 135.959 37.0332 135.726 37.0469C135.492 37.0743 135.245 37.0743 134.998 37.0743C134.23 37.0743 133.722 36.9508 133.462 36.6901C133.215 36.4294 133.077 35.9218 133.077 35.1534V26.9894H136.398V23.9571H133.077V19.0176Z" fill="white"/>
<path d="M151.792 33.2319C151.49 32.7105 151.106 32.2714 150.612 31.9284C150.118 31.5854 149.569 31.2972 148.938 31.0777C148.307 30.8719 147.662 30.6935 147.003 30.5426C146.372 30.3917 145.741 30.2545 145.123 30.131C144.506 30.0075 143.957 29.8565 143.477 29.7056C142.997 29.541 142.612 29.3352 142.31 29.0882C142.009 28.8275 141.858 28.4982 141.858 28.1003C141.858 27.7572 141.94 27.4828 142.118 27.2907C142.283 27.0849 142.503 26.934 142.736 26.8242C142.983 26.7145 143.244 26.6459 143.545 26.6184C143.847 26.591 144.122 26.5772 144.369 26.5772C145.178 26.5772 145.878 26.7282 146.482 27.0438C147.072 27.3456 147.401 27.9493 147.47 28.8138H151.779C151.696 27.7984 151.436 26.9477 150.996 26.2754C150.557 25.6031 150.008 25.0679 149.35 24.67C148.691 24.2721 147.936 23.984 147.099 23.8056C146.262 23.641 145.398 23.5449 144.506 23.5449C143.614 23.5449 142.736 23.6272 141.885 23.7782C141.034 23.9428 140.266 24.2172 139.594 24.6152C138.907 25.0131 138.359 25.5482 137.947 26.2205C137.535 26.9066 137.329 27.771 137.329 28.8412C137.329 29.5684 137.48 30.1721 137.782 30.6798C138.084 31.1738 138.468 31.5991 138.962 31.9284C139.456 32.2577 140.005 32.5184 140.636 32.7242C141.268 32.93 141.913 33.1084 142.571 33.2456C144.19 33.5886 145.453 33.9317 146.358 34.261C147.264 34.604 147.717 35.1117 147.717 35.7977C147.717 36.1956 147.621 36.5386 147.429 36.7993C147.237 37.06 147.003 37.2796 146.715 37.4442C146.427 37.6089 146.111 37.7186 145.755 37.801C145.398 37.8696 145.069 37.9107 144.753 37.9107C144.3 37.9107 143.875 37.8559 143.463 37.7461C143.051 37.6363 142.681 37.4717 142.365 37.2521C142.05 37.0326 141.789 36.7445 141.583 36.3877C141.377 36.031 141.281 35.6193 141.281 35.1254H136.973C137.014 36.2368 137.261 37.1561 137.727 37.8833C138.18 38.6242 138.77 39.2005 139.484 39.6533C140.197 40.1061 141.007 40.4217 141.926 40.6138C142.846 40.8059 143.779 40.9019 144.726 40.9019C145.672 40.9019 146.578 40.8059 147.484 40.6275C148.389 40.4491 149.185 40.1335 149.899 39.6807C150.599 39.2279 151.175 38.6379 151.6 37.9107C152.039 37.1698 152.259 36.2642 152.259 35.1803C152.259 34.4119 152.108 33.767 151.806 33.2456L151.792 33.2319Z" fill="white"/>
<path d="M165.941 17.6729H160.809L152.191 40.4633H157.227L159.011 35.3866H167.532L169.248 40.4633H174.448L165.927 17.6729H165.941ZM160.328 31.6545L163.292 23.2984H163.361L166.229 31.6545H160.328Z" fill="white"/>
<path d="M191.491 29.0197C191.189 27.9494 190.737 27.0027 190.119 26.1932C189.502 25.3836 188.719 24.7387 187.786 24.2448C186.853 23.7508 185.728 23.5176 184.438 23.5176C183.409 23.5176 182.476 23.7234 181.625 24.1213C180.774 24.5329 180.075 25.1778 179.526 26.0697H179.457V23.9566H175.148V46.2394H179.677V38.4185H179.732C180.28 39.228 180.994 39.8318 181.858 40.2571C182.723 40.6687 183.656 40.8746 184.685 40.8746C185.893 40.8746 186.949 40.6413 187.855 40.1748C188.761 39.7083 189.515 39.0771 190.119 38.295C190.723 37.5129 191.176 36.6073 191.477 35.5783C191.779 34.5629 191.93 33.4927 191.93 32.3813C191.93 31.215 191.779 30.0899 191.477 29.0197H191.491ZM187.21 34.2062C187.086 34.8511 186.867 35.3999 186.551 35.8801C186.249 36.3604 185.838 36.7446 185.344 37.0464C184.85 37.3483 184.219 37.4992 183.478 37.4992C182.737 37.4992 182.133 37.3483 181.625 37.0464C181.117 36.7446 180.706 36.3604 180.39 35.8801C180.088 35.3999 179.855 34.8373 179.718 34.2062C179.581 33.575 179.512 32.9164 179.512 32.2578C179.512 31.5992 179.581 30.9132 179.704 30.282C179.828 29.6371 180.047 29.0746 180.363 28.5943C180.665 28.1004 181.076 27.7025 181.57 27.4006C182.064 27.0987 182.695 26.9341 183.436 26.9341C184.177 26.9341 184.767 27.085 185.275 27.4006C185.769 27.7025 186.181 28.1141 186.51 28.608C186.826 29.102 187.059 29.6783 187.196 30.3094C187.333 30.9543 187.402 31.5992 187.402 32.2578C187.402 32.9164 187.333 33.5613 187.21 34.2062Z" fill="white"/>
<path d="M209.55 29.0197C209.248 27.9494 208.795 27.0027 208.178 26.1932C207.56 25.3836 206.792 24.7387 205.845 24.2448C204.912 23.7508 203.787 23.5176 202.497 23.5176C201.481 23.5176 200.535 23.7234 199.684 24.1213C198.833 24.5329 198.133 25.1778 197.584 26.0697H197.516V23.9566H193.207V46.2394H197.735V38.4185H197.804C198.353 39.228 199.066 39.8318 199.931 40.2571C200.795 40.6687 201.728 40.8746 202.757 40.8746C203.965 40.8746 205.022 40.6413 205.927 40.1748C206.833 39.7083 207.588 39.0771 208.191 38.295C208.795 37.5129 209.248 36.6073 209.55 35.5783C209.852 34.5629 210.003 33.4927 210.003 32.3813C210.003 31.215 209.852 30.0899 209.55 29.0197ZM205.269 34.2062C205.145 34.8511 204.926 35.3999 204.61 35.8801C204.294 36.3604 203.896 36.7446 203.402 37.0464C202.908 37.3483 202.277 37.4992 201.536 37.4992C200.795 37.4992 200.191 37.3483 199.684 37.0464C199.176 36.7446 198.764 36.3604 198.449 35.8801C198.147 35.3999 197.914 34.8373 197.776 34.2062C197.639 33.575 197.571 32.9164 197.571 32.2578C197.571 31.5992 197.639 30.9132 197.763 30.282C197.886 29.6371 198.106 29.0746 198.421 28.5943C198.723 28.1004 199.135 27.7025 199.629 27.4006C200.123 27.0987 200.754 26.9341 201.495 26.9341C202.236 26.9341 202.826 27.085 203.334 27.4006C203.841 27.7025 204.239 28.1141 204.569 28.608C204.884 29.102 205.118 29.6783 205.255 30.3094C205.392 30.9543 205.461 31.5992 205.461 32.2578C205.461 32.9164 205.392 33.5613 205.269 34.2062Z" fill="white"/>
<g filter="url(#filter0_d_1148_7969)">
<path d="M7.3125 51.412L10.4823 39.8452C8.53375 36.4562 7.50461 32.6143 7.50461 28.6901C7.50461 16.3824 17.5216 6.37988 29.8301 6.37988C35.7992 6.37988 41.4114 8.71244 45.6241 12.9248C49.8367 17.1371 52.1557 22.749 52.1557 28.7176C52.1557 41.0252 42.1387 51.0278 29.8301 51.0278C26.0978 51.0278 22.4203 50.0948 19.1682 48.311L7.33994 51.412H7.3125Z" fill="url(#paint0_linear_1148_7969)"/>
<path d="M6.50391 52.2215L9.78344 40.2431C7.76632 36.7443 6.69601 32.7652 6.69601 28.6901C6.69601 15.9433 17.0698 5.57031 29.8174 5.57031C36.006 5.57031 41.8104 7.9852 46.1739 12.3485C50.5375 16.7117 52.9388 22.5294 52.9388 28.7038C52.9388 41.4505 42.5513 51.8236 29.8174 51.8236C25.9478 51.8236 22.1469 50.8494 18.7713 49.0108L6.51763 52.2215H6.50391ZM19.3339 44.8259L20.0337 45.2375C22.9839 46.9938 26.3732 47.9131 29.8174 47.9131C40.4107 47.9131 49.0281 39.2964 49.0418 28.7038C49.0418 23.5722 47.0521 18.7424 43.4158 15.1064C39.7932 11.4703 34.9631 9.46706 29.8311 9.46706C19.2241 9.46706 10.6068 18.0838 10.6068 28.6764C10.6068 32.3124 11.6222 35.8387 13.5432 38.8985L13.9961 39.6257L12.0476 46.7194L19.3202 44.8122L19.3339 44.8259Z" fill="url(#paint1_linear_1148_7969)"/>
<path fill-rule="evenodd" clip-rule="evenodd" d="M24.055 19.0165C23.6159 18.056 23.163 18.0286 22.7514 18.0149C22.4083 18.0012 22.0241 18.0149 21.6399 18.0149C21.2557 18.0149 20.6245 18.1658 20.1031 18.7421C19.5679 19.3184 18.0859 20.7179 18.0859 23.5581C18.0859 26.3984 20.1579 29.1426 20.4461 29.5405C20.7343 29.9247 24.4392 35.9481 30.3122 38.267C35.1972 40.1879 36.1851 39.8037 37.2417 39.7077C38.2983 39.6116 40.6585 38.3081 41.1387 36.9635C41.619 35.6188 41.619 34.4526 41.4818 34.2193C41.3308 33.9723 40.9466 33.8351 40.3703 33.547C39.794 33.2588 36.9536 31.8593 36.4184 31.6672C35.8832 31.4751 35.499 31.3791 35.1148 31.9554C34.7306 32.5316 33.6191 33.8351 33.2898 34.2193C32.9468 34.6035 32.6174 34.6584 32.0411 34.3702C31.4648 34.0821 29.5986 33.4647 27.3894 31.5026C25.6741 29.9658 24.5078 28.0861 24.1785 27.4961C23.8354 26.9198 24.1373 26.6042 24.4255 26.3161C24.6862 26.0554 25.0018 25.6437 25.2899 25.3007C25.5781 24.9577 25.6742 24.7244 25.8663 24.3402C26.0584 23.956 25.9623 23.613 25.8114 23.3249C25.6604 23.0367 24.549 20.1828 24.0275 19.0302L24.055 19.0165Z" fill="white"/>
</g>
</g>
<defs>
<filter id="filter0_d_1148_7969" x="3.92391" y="3.64031" width="51.5936" height="51.8114" filterUnits="userSpaceOnUse" color-interpolation-filters="sRGB">
<feFlood flood-opacity="0" result="BackgroundImageFix"/>
<feColorMatrix in="SourceAlpha" type="matrix" values="0 0 0 0 0 0 0 0 0 0 0 0 0 0 0 0 0 0 127 0" result="hardAlpha"/>
<feOffset dy="0.65"/>
<feGaussianBlur stdDeviation="1.29"/>
<feColorMatrix type="matrix" values="0 0 0 0 0 0 0 0 0 0 0 0 0 0 0 0 0 0 0.15 0"/>
<feBlend mode="normal" in2="BackgroundImageFix" result="effect1_dropShadow_1148_7969"/>
<feBlend mode="normal" in="SourceGraphic" in2="effect1_dropShadow_1148_7969" result="shape"/>
</filter>
<linearGradient id="paint0_linear_1148_7969" x1="29.7341" y1="51.412" x2="29.7341" y2="6.37988" gradientUnits="userSpaceOnUse">
<stop stop-color="#20B038"/>
<stop offset="1" stop-color="#60D66A"/>
</linearGradient>
<linearGradient id="paint1_linear_1148_7969" x1="29.7351" y1="52.2215" x2="29.7351" y2="5.57031" gradientUnits="userSpaceOnUse">
<stop stop-color="#F9F9F9"/>
<stop offset="1" stop-color="white"/>
</linearGradient>
<clipPath id="clip0_1148_7969">
<rect width="210" height="59" fill="white"/>
</clipPath>
</defs>
</svg>
