<svg width="477" height="334" viewBox="0 0 477 334" fill="none" xmlns="http://www.w3.org/2000/svg">
<g clip-path="url(#clip0_992_5623)">
<path d="M296.087 16.9427L282.419 36.9937L269.005 56.667C268.188 57.6516 267.241 57.9984 266.214 57.8993C262.995 57.5959 259.014 52.9516 255.907 50.3755L255.591 50.1155C251.5 46.7282 250.918 40.6101 254.304 36.5169L274.805 11.7225L280.884 4.36594C284.27 0.272756 290.386 -0.309331 294.478 3.07792L294.793 3.338C298.885 6.72525 299.467 12.8433 296.081 16.9427H296.087Z" fill="#EFEFEF"/>
<path d="M266.547 58.5679C266.417 58.5679 266.287 58.5617 266.151 58.5493C263.539 58.3016 260.722 55.676 257.999 53.1371C257.107 52.3073 256.272 51.5271 255.486 50.8769L255.17 50.6168C253.053 48.8644 251.747 46.3874 251.487 43.638C251.227 40.8885 252.044 38.2072 253.796 36.0956L280.389 3.95082C282.14 1.83301 284.616 0.526416 287.365 0.266335C290.113 0.00625372 292.794 0.829844 294.904 2.5761L295.22 2.83618C299.597 6.45874 300.216 12.9546 296.613 17.3388L269.543 57.0383C268.695 58.0725 267.693 58.5741 266.547 58.5741V58.5679ZM275.467 11.9576L275.319 12.1372L254.817 36.9316C253.288 38.7769 252.576 41.1115 252.805 43.5141C253.034 45.9168 254.173 48.0779 256.018 49.6075L256.334 49.8675C257.151 50.5425 257.999 51.3351 258.903 52.1773C261.348 54.4561 264.115 57.0322 266.281 57.2427C267.16 57.3294 267.872 57.0074 268.503 56.2457L295.592 16.5214C298.755 12.6945 298.216 7.00368 294.391 3.83935L294.075 3.57927C292.23 2.04975 289.89 1.33762 287.489 1.56055C285.087 1.78967 282.927 2.92907 281.398 4.77441L275.467 11.9452V11.9576Z" fill="#0F2A54"/>
<path d="M282.443 67.5591H273.926V81.9812H282.443V67.5591Z" fill="black"/>
<path d="M282.419 36.9934L269.005 56.6667C268.188 57.6513 267.24 57.998 266.213 57.899L274.811 11.7222C274.83 11.9822 276.29 32.6959 282.419 36.9934Z" fill="#0F2A54"/>
<path d="M260.11 132.053C260.11 132.053 243.112 166.068 225.854 189.544C218.982 198.888 212.074 206.561 206.175 209.762C200.4 212.895 195.509 217.763 191.467 223.156C180.994 237.12 176.159 254.601 176.159 254.601L132.011 187.791C132.011 187.791 130.383 153.163 138.82 111.557C142.07 95.512 150.278 63.4725 153.243 57.0696C155.447 52.32 161.73 27.7795 162.337 25.9775C162.596 25.2034 164.689 24.0083 167.406 24.0083C169.585 24.0083 173.287 26.1137 174.222 30.4484C178.945 52.3448 173.262 66.7855 173.324 67.4295C174.989 84.2542 173.256 96.7505 176.772 100.057C176.902 100.181 173.869 100.119 174.215 99.9025C180.3 95.9951 218.073 40.9074 222.728 39.7184C227.643 38.4676 260.122 132.06 260.122 132.06L260.11 132.053Z" fill="#EFEFEF"/>
<path d="M176.4 256.155L131.361 187.989V187.81C131.336 187.463 129.82 152.624 138.17 111.414C141.265 96.1311 149.591 63.3671 152.643 56.7784C154.24 53.3292 158.133 38.9009 160.219 31.148C161.018 28.1942 161.544 26.2436 161.705 25.7544C162.089 24.6088 164.522 23.3394 167.388 23.3394H167.394C169.796 23.3394 173.825 25.55 174.847 30.2934C177.595 43.0312 177.366 55.2674 174.172 66.6491C174.085 66.9649 173.993 67.2869 173.968 67.4107C174.587 73.7146 174.735 79.3002 174.859 84.2293C175.008 89.9883 175.125 94.5706 175.98 97.3325C180.282 92.6696 188.787 81.3127 197.057 70.2592C211.263 51.2671 220.072 39.6935 222.548 39.0619C223.73 38.7585 226.188 38.133 243.861 85.1644C252.496 108.151 260.642 131.589 260.723 131.818L260.815 132.078L260.692 132.326C260.525 132.666 243.471 166.656 226.374 189.909C218.574 200.517 211.882 207.384 206.478 210.313C201.347 213.1 196.469 217.54 191.981 223.521C181.705 237.219 176.828 254.57 176.778 254.743L176.394 256.131L176.4 256.155ZM132.655 187.574L175.93 253.065C177.304 248.669 182.194 234.414 190.941 222.76C195.54 216.629 200.561 212.059 205.859 209.186C211.09 206.35 217.639 199.606 225.321 189.153C241.589 167.034 257.819 135.131 259.398 132.004C258.494 129.403 251.029 108.008 243.037 86.7063C227.847 46.1893 223.848 40.7524 222.82 40.3623C220.468 41.1797 208.082 57.7382 198.116 71.0581C189.251 82.9041 180.808 94.1929 176.537 98.67C176.735 99.0292 176.964 99.3326 177.218 99.5741L177.558 99.8961L177.372 100.33C177.261 100.571 177.1 100.936 174.686 100.714C174.234 100.67 173.677 100.621 173.547 100.088L173.435 99.636L173.856 99.345C174.147 99.1592 174.525 98.8372 174.977 98.3975C173.856 95.4995 173.733 90.7252 173.565 84.2789C173.435 79.3559 173.293 73.7703 172.674 67.4912C172.655 67.2869 172.711 67.0763 172.928 66.3085C176.066 55.1312 176.283 43.1117 173.584 30.5845C172.68 26.3984 169.115 24.6645 167.406 24.6645C164.85 24.6645 163.104 25.7915 162.962 26.1817C162.807 26.6337 162.231 28.7825 161.501 31.501C159.254 39.8359 155.49 53.7874 153.844 57.3419C151.015 63.4414 142.862 94.9422 139.464 111.686C131.448 151.219 132.556 184.831 132.661 187.581L132.655 187.574Z" fill="#0F2A54"/>
<path d="M267.347 1.69043H180.264C176.086 1.69043 172.699 5.07835 172.699 9.25755V185.791C172.699 189.97 176.086 193.358 180.264 193.358H267.347C271.524 193.358 274.911 189.97 274.911 185.791V9.25755C274.911 5.07835 271.524 1.69043 267.347 1.69043Z" fill="#A3B1C9"/>
<path d="M272.992 22.0762H174.513V165.356H272.992V22.0762Z" fill="black"/>
<path d="M223.755 187.227C227.481 187.227 230.502 184.114 230.502 180.273C230.502 176.433 227.481 173.319 223.755 173.319C220.029 173.319 217.008 176.433 217.008 180.273C217.008 184.114 220.029 187.227 223.755 187.227Z" fill="white"/>
<path d="M195.423 12.8184C194.853 12.8184 194.383 12.3353 194.383 11.7409C194.383 11.1464 194.847 10.6758 195.423 10.6758C195.998 10.6758 196.469 11.1588 196.469 11.7533C196.469 12.3477 195.998 12.8184 195.423 12.8184Z" fill="black"/>
<path d="M203.21 12.0814C203.025 12.0814 202.876 11.9266 202.876 11.7408C202.876 11.555 203.025 11.394 203.21 11.394H244.288C244.474 11.394 244.622 11.5489 244.622 11.7408C244.622 11.9328 244.474 12.0814 244.288 12.0814H203.21Z" fill="black"/>
<path d="M272.992 22.0762H174.513V165.356H272.992V22.0762Z" fill="white"/>
<path d="M162.027 26.9868L158.449 41.4337C158.449 41.4337 161.575 42.7155 163.587 41.7186C165.593 40.7278 167.233 27.7671 162.027 26.9868Z" fill="white"/>
<path d="M161.723 42.7464C159.959 42.7464 158.294 42.0776 158.195 42.0343L157.669 41.8176L161.525 26.2437L162.113 26.3303C164.144 26.6338 165.475 28.4358 165.964 31.5444C166.57 35.4022 165.642 41.4212 163.865 42.3006C163.203 42.6288 162.454 42.7464 161.717 42.7464H161.723ZM159.223 41.0064C160.133 41.2912 162.021 41.7556 163.29 41.124C164.032 40.7587 165.339 35.9781 164.67 31.7487C164.429 30.213 163.859 28.38 162.491 27.7918L159.216 41.0064H159.223Z" fill="#0F2A54"/>
<path d="M289.284 92.6511L287.247 93.4251L273.536 98.6391C273.214 98.763 272.892 98.8683 272.564 98.9488C268.027 100.132 263.193 97.7103 261.49 93.227L261.292 92.7006C259.466 87.8953 261.905 82.477 266.702 80.6502L279.485 75.7953L280.413 75.4424L282.45 74.6683C287.254 72.8416 292.67 75.2814 294.49 80.0805L294.688 80.6068C296.514 85.4122 294.075 90.8305 289.278 92.6573L289.284 92.6511Z" fill="#EFEFEF"/>
<path d="M270.206 99.9084C266.151 99.9084 262.388 97.4252 260.883 93.4621L260.685 92.9357C258.729 87.7836 261.323 81.9999 266.473 80.0369L282.221 74.0489C284.709 73.1076 287.421 73.1881 289.859 74.2842C292.298 75.3802 294.162 77.3556 295.109 79.8388L295.307 80.3651C297.263 85.5172 294.663 91.3009 289.519 93.2577L273.771 99.2458C273.418 99.382 273.066 99.4935 272.725 99.574C271.883 99.7907 271.035 99.896 270.206 99.896V99.9084ZM285.749 74.7115C284.715 74.7115 283.675 74.8972 282.685 75.275L266.937 81.263C262.462 82.9659 260.209 87.988 261.905 92.4651L262.103 92.9914C263.681 97.1404 268.101 99.4316 272.397 98.3107C272.694 98.2364 272.991 98.1435 273.301 98.0259L289.049 92.0378C293.524 90.3349 295.777 85.3129 294.081 80.8357L293.883 80.3094C293.06 78.1482 291.444 76.4329 289.321 75.4793C288.176 74.9653 286.962 74.7053 285.749 74.7053V74.7115Z" fill="#0F2A54"/>
<path d="M278.148 92.9666C275.858 93.8335 271.717 95.3754 269.5 95.6912C268.875 95.7841 267.718 95.4435 266.641 94.2608C265.997 93.5549 265.378 92.5455 264.914 91.1522C264.697 90.4958 264.517 89.8394 264.443 89.1644C264.356 88.3718 264.381 87.5854 264.517 86.8051C264.641 86.0992 265.124 85.4614 265.824 85.1208C265.824 85.1208 265.83 85.1208 265.836 85.1208C268.194 83.9938 271.364 82.6253 274.149 81.8574C276.074 81.3249 278.018 82.1732 278.631 83.8575L278.922 84.644L280.395 88.6752C281.002 90.3472 280.011 92.2668 278.142 92.9666H278.148Z" fill="white"/>
<path d="M269.309 96.36C268.498 96.36 267.291 95.9389 266.164 94.7004C265.378 93.8396 264.746 92.7126 264.301 91.3503C264.028 90.5205 263.874 89.8641 263.806 89.2325C263.713 88.3718 263.737 87.5172 263.886 86.6812C264.047 85.7771 264.641 84.9907 265.483 84.5572L265.613 84.4953C267.829 83.4364 271.073 82.0183 273.995 81.2133C276.273 80.5817 278.538 81.622 279.262 83.6284L281.02 88.4461C281.751 90.4524 280.568 92.756 278.39 93.5796C275.66 94.6137 271.778 96.0256 269.606 96.3414C269.519 96.3538 269.42 96.36 269.315 96.36H269.309ZM266.077 85.7276C265.595 85.9753 265.26 86.415 265.167 86.9165C265.044 87.6287 265.019 88.3594 265.099 89.0963C265.161 89.635 265.297 90.2047 265.539 90.9478C265.929 92.1305 266.461 93.0966 267.123 93.8211C268.046 94.8304 268.993 95.1029 269.408 95.0472C271.686 94.719 276.211 93.0037 277.913 92.3597C279.429 91.79 280.265 90.2357 279.776 88.9043L278.018 84.0866C277.529 82.7305 275.944 82.0431 274.329 82.489C271.512 83.263 268.374 84.6377 266.207 85.6719L266.164 85.709L266.071 85.7338L266.077 85.7276Z" fill="#0F2A54"/>
<path d="M268.987 101.933L279.559 99.0542C282.784 98.1758 286.112 100.08 286.99 103.307L287.316 104.502C288.194 107.728 286.29 111.058 283.065 111.936L272.493 114.815C269.267 115.694 265.939 113.789 265.061 110.563L264.736 109.368C263.858 106.141 265.762 102.812 268.987 101.933Z" fill="#EFEFEF"/>
<path d="M270.906 115.68C267.953 115.68 265.242 113.717 264.431 110.733L264.103 109.538C263.131 105.965 265.242 102.274 268.813 101.302L279.386 98.4222C281.107 97.9516 282.915 98.1869 284.475 99.0786C286.034 99.9703 287.149 101.413 287.619 103.135L287.947 104.33C288.418 106.051 288.182 107.859 287.291 109.42C286.4 110.98 284.957 112.095 283.237 112.566L272.664 115.445C272.076 115.606 271.488 115.68 270.906 115.68ZM281.144 99.4935C280.674 99.4935 280.197 99.5554 279.733 99.6855L269.16 102.565C266.288 103.345 264.586 106.324 265.372 109.197L265.7 110.392C266.48 113.265 269.457 114.962 272.323 114.182L282.896 111.302C284.283 110.925 285.44 110.027 286.158 108.77C286.876 107.513 287.062 106.057 286.691 104.67L286.363 103.475C285.985 102.088 285.087 100.93 283.831 100.212C283.001 99.735 282.079 99.4935 281.15 99.4935H281.144Z" fill="#0F2A54"/>
<path d="M277.349 111.414C275.405 111.934 271.896 112.85 270.057 112.95C269.389 112.987 268.045 112.423 267.172 110.658C266.956 110.231 266.776 109.736 266.634 109.166C266.504 108.646 266.411 108.132 266.399 107.612C266.386 106.999 266.467 106.392 266.634 105.803C266.789 105.271 267.228 104.807 267.829 104.596C267.829 104.596 267.835 104.596 267.841 104.596C269.853 103.884 272.564 103.035 274.904 102.627C276.52 102.342 278.055 103.122 278.432 104.454L278.705 105.407L279.522 108.268C279.899 109.593 278.94 110.999 277.355 111.42L277.349 111.414Z" fill="white"/>
<path d="M269.989 113.606C268.967 113.606 267.5 112.795 266.584 110.949C266.343 110.473 266.145 109.922 265.996 109.327C265.885 108.869 265.755 108.268 265.742 107.624C265.73 106.943 265.817 106.268 266.002 105.618C266.207 104.912 266.745 104.33 267.469 104.026H267.476L267.618 103.971C269.518 103.296 272.31 102.404 274.786 101.97C276.748 101.63 278.587 102.614 279.057 104.262L280.147 108.076C280.357 108.819 280.252 109.612 279.856 110.312C279.385 111.141 278.531 111.773 277.522 112.046C275.003 112.72 271.877 113.501 270.1 113.6C270.069 113.6 270.032 113.6 269.995 113.6L269.989 113.606ZM268.088 105.197L268.064 105.209C267.655 105.352 267.358 105.649 267.259 105.989C267.11 106.516 267.036 107.054 267.049 107.606C267.055 108.002 267.123 108.442 267.265 109.017C267.389 109.519 267.556 109.977 267.754 110.367C268.503 111.878 269.599 112.293 270.02 112.299C271.895 112.194 275.733 111.172 277.182 110.788C277.856 110.609 278.414 110.206 278.717 109.674C278.878 109.395 279.033 108.955 278.89 108.448L277.801 104.633C277.522 103.642 276.297 103.048 275.015 103.271C272.644 103.686 269.952 104.546 268.095 105.203L268.088 105.197Z" fill="#0F2A54"/>
<path d="M192.879 221.069C192.879 221.069 173.361 215.595 156.072 206.226C145.666 200.591 136.072 193.544 132.011 185.425C132.011 185.425 78.3425 285.197 62.5762 311.057H187.685C188.496 296.598 192.866 237.937 192.872 221.069H192.879Z" fill="#0F2A54"/>
<path d="M288.949 72.383C288.875 72.4078 288.8 72.4325 288.72 72.4635L274.86 76.0241C268.763 77.5908 262.461 74.2903 260.858 68.6923L260.035 65.8252C258.487 60.4502 261.811 54.8337 267.475 53.007L272.05 51.8304L281.335 49.4463C287.432 47.8796 293.734 51.1802 295.337 56.7781L296.16 59.6452C297.683 64.9459 294.471 70.4819 288.949 72.383Z" fill="#EFEFEF"/>
<path d="M271.778 77.0708C266.485 77.0708 261.651 73.826 260.227 68.8782L259.404 66.0111C257.763 60.3203 261.224 54.3384 267.272 52.3878L281.168 48.8148C287.619 47.1552 294.254 50.6478 295.963 56.5987L296.786 59.4658C298.389 65.0327 295.041 70.9836 289.16 73.0024C289.079 73.0333 288.999 73.0581 288.912 73.0829L275.015 76.6559C273.932 76.9345 272.836 77.0708 271.766 77.0708H271.778ZM284.431 49.7127C283.465 49.7127 282.481 49.8304 281.496 50.0843L267.637 53.6449C262.301 55.3602 259.224 60.6361 260.667 65.6458L261.49 68.5129C263.007 73.7888 268.93 76.8726 274.7 75.3864L288.559 71.8258C288.59 71.8134 288.658 71.7887 288.733 71.7639H288.739C293.957 69.9681 296.941 64.7231 295.536 59.8249L294.712 56.9578C293.456 52.5798 289.154 49.7127 284.431 49.7127Z" fill="#0F2A54"/>
<path d="M282.599 68.5131L275.864 71.5474C275.864 71.5474 275.839 71.5474 275.821 71.5598C275.548 71.6341 275.276 71.6898 275.003 71.727C274.892 71.7456 274.774 71.758 274.663 71.7703C274.613 71.7703 274.57 71.7703 274.521 71.7703C273.778 71.7456 273.27 70.9591 273.592 70.2594C274.23 68.8723 274.403 67.2685 273.976 65.6894L273.815 65.1011C273.815 65.1011 273.815 65.0887 273.815 65.0825L273.295 63.1691C272.88 61.6458 272.001 60.3701 270.856 59.4475C270.72 59.336 270.578 59.2307 270.429 59.1316C269.098 58.209 269.439 56.1221 270.992 55.6887C271.005 55.6887 271.017 55.6825 271.036 55.6763L278.427 54.5554C280.253 54.0601 282.011 55.4657 282.512 57.2925L283.106 59.4722L284.369 64.1165C284.864 65.9495 284.431 68.0116 282.605 68.5131H282.599Z" fill="white"/>
<path d="M274.576 72.4265C274.576 72.4265 274.52 72.4265 274.49 72.4265C273.932 72.4079 273.406 72.1045 273.103 71.6091C272.8 71.1199 272.762 70.5131 273.004 69.9867C273.598 68.6925 273.722 67.2311 273.351 65.8626L272.663 63.3484C272.298 62.0109 271.531 60.8405 270.441 59.9674C270.311 59.8621 270.181 59.7692 270.051 59.6763C269.222 59.1005 268.807 58.1159 268.98 57.1127C269.147 56.1157 269.853 55.3293 270.819 55.063L270.936 55.032L278.29 53.9174C280.339 53.391 282.512 54.8153 283.143 57.1251L285 63.9491C285.57 66.0607 285.007 68.5067 282.828 69.1322L276.031 72.185C275.709 72.2717 275.412 72.3336 275.102 72.377C275.003 72.3955 274.892 72.4079 274.78 72.4203C274.694 72.4327 274.626 72.4327 274.57 72.4327L274.576 72.4265ZM274.471 65.0018L274.613 65.5158C275.065 67.1815 274.917 68.9588 274.199 70.5316C274.118 70.705 274.18 70.8474 274.223 70.9218C274.26 70.9775 274.36 71.1137 274.551 71.1199L274.669 71.7701L274.638 71.1137C274.725 71.1013 274.818 71.0951 274.904 71.0828C275.164 71.0456 275.418 70.9961 275.653 70.928L282.425 67.8813C283.88 67.485 284.121 65.7449 283.731 64.2897L281.874 57.4657C281.484 56.0476 280.123 54.772 278.594 55.1868L278.519 55.1992L271.165 56.3139C270.689 56.4439 270.355 56.8216 270.274 57.317C270.187 57.8248 270.385 58.2954 270.8 58.5865C270.961 58.6979 271.116 58.8094 271.271 58.9394C272.571 59.986 273.493 61.3916 273.926 62.9955L274.471 64.9956V65.0018Z" fill="#0F2A54"/>
<path d="M112.425 80.4398L77.9395 85.8334L100.472 69.8013L101.877 74.6995L110.351 76.2352L112.425 80.4398Z" fill="#83A4CC"/>
<path d="M77.5684 85.412L106.575 70.4573L135.001 69.0269L77.5684 85.412Z" fill="#B7CDED"/>
<path d="M95.5011 60.1719L76.2002 86.7435L101.134 69.7453L95.5011 60.1719Z" fill="#B7CDED"/>
<path d="M185.37 193.209C185.37 193.209 206.02 198.232 220.456 196.504L222.672 193.748L185.376 193.216L185.37 193.209Z" fill="black"/>
<path d="M253.047 126.684H236.185C233.337 126.684 231.028 128.994 231.028 131.842V151.912C231.028 154.761 233.337 157.07 236.185 157.07H253.047C255.894 157.07 258.203 154.761 258.203 151.912V131.842C258.203 128.994 255.894 126.684 253.047 126.684Z" fill="#3C6099"/>
<path d="M369.935 333.343H288.268C284.35 330.718 268.224 316.364 258.19 302.288C256.55 299.985 247.296 285.408 242.282 270.069C239.149 260.489 236.611 252.285 236.178 250.408C236.03 249.752 235.931 248.458 235.869 246.699V246.68C235.658 240.407 235.949 228.308 236.246 218.697V218.654L236.252 218.53C236.265 218.109 236.277 217.694 236.296 217.279V217.266C236.296 217.223 236.296 217.186 236.296 217.143C236.351 215.471 236.407 213.898 236.457 212.467C236.58 208.888 236.692 206.201 236.735 205.148L236.754 204.659C236.884 204.584 240.815 202.491 246.064 206.275C247.333 207.191 248.503 209.396 249.574 212.282C250.255 214.121 250.898 216.232 251.493 218.462C253.783 227.026 256.271 237.132 256.921 239.937C258.351 246.098 265.464 254.526 270.472 259.92C272.267 261.858 275.504 260.582 275.516 257.944C275.516 242.395 272.731 226.964 267.29 212.399L262.913 200.689L257.738 186.837L255.139 179.877C255.139 179.877 251.152 173.325 247.803 165.442C246.336 161.993 244.999 158.29 244.163 154.773C243.965 153.937 243.798 153.107 243.662 152.296C243.173 149.317 243.136 146.555 243.823 144.314C245.042 140.313 247.791 139.558 249.902 139.645C250.118 139.651 250.329 139.669 250.533 139.694C250.737 139.719 250.942 139.756 251.14 139.812C251.511 139.911 251.864 140.059 252.186 140.251C252.724 140.567 253.195 141.001 253.554 141.533C253.554 141.533 255.337 143.862 257.726 146.989C259.298 149.051 261.137 151.454 262.901 153.776C266.046 157.906 268.961 161.764 269.766 162.891C274.105 168.997 285.78 188.899 285.78 188.899L299.454 189.475C301.614 189.568 303.675 190.429 305.254 191.902C310.113 196.441 320.593 206.269 321.881 207.73C321.881 208.207 330.021 212.127 336.316 215.613C340.816 217.514 349.365 224.258 349.365 224.258C351.135 225.824 352.485 227.379 353.172 228.865C356.1 235.243 364.054 290.733 367.849 318.166C369.074 326.984 369.867 332.904 369.929 333.362L369.935 333.343Z" fill="#EFEFEF"/>
<path d="M370.69 334H288.076L287.909 333.888C284.344 331.498 267.946 317.094 257.664 302.666C255.683 299.886 246.602 285.383 241.669 270.268C238.561 260.75 235.986 252.452 235.553 250.545C235.398 249.87 235.293 248.619 235.225 246.712C235.052 241.634 235.182 232.209 235.603 218.672L235.652 217.106C235.708 215.446 235.757 213.873 235.807 212.443C235.931 208.864 236.042 206.17 236.085 205.117L236.129 203.996H236.605C237.447 203.594 241.384 202.077 246.454 205.73C247.741 206.659 248.961 208.721 250.193 212.04C250.83 213.762 251.486 215.861 252.13 218.276C254.489 227.088 256.977 237.225 257.565 239.77C258.63 244.352 263.26 251.158 270.954 259.456C271.722 260.279 272.731 260.292 273.418 260.019C274.111 259.747 274.854 259.053 274.86 257.92C274.86 242.395 272.106 227.15 266.671 212.604L254.544 180.137C254.154 179.487 250.366 173.133 247.197 165.672C245.513 161.702 244.275 158.073 243.526 154.897C243.322 154.042 243.148 153.194 243.012 152.376V152.321C242.467 149.039 242.529 146.271 243.192 144.097C244.238 140.654 246.633 138.827 249.92 138.964C250.156 138.97 250.378 138.988 250.601 139.013C250.849 139.044 251.084 139.087 251.307 139.149C251.666 139.242 252.019 139.385 252.353 139.564H252.52L252.644 139.732C253.22 140.091 253.715 140.561 254.105 141.137C254.105 141.137 255.881 143.453 258.258 146.568L258.382 146.729C259.93 148.754 261.719 151.095 263.433 153.355C267.445 158.631 269.63 161.535 270.311 162.489C274.316 168.13 284.672 185.685 286.176 188.237L299.491 188.794C301.806 188.893 304.016 189.816 305.712 191.401C310.28 195.668 321.045 205.755 322.382 207.278L322.518 207.439C323.175 207.935 326.034 209.421 328.808 210.864C331.284 212.152 334.088 213.613 336.613 215.013C341.151 216.945 349.427 223.453 349.78 223.732C351.761 225.478 353.091 227.1 353.772 228.58C356.682 234.915 364.252 287.365 368.505 318.067C369.588 325.894 370.337 331.436 370.535 332.904L370.684 334.006L370.69 334ZM288.479 332.687H369.192C368.938 330.786 368.22 325.491 367.217 318.24C363.8 293.582 355.537 235.534 352.59 229.125C351.99 227.812 350.764 226.332 348.95 224.735C348.895 224.691 340.451 218.047 336.081 216.202L336.019 216.171C333.506 214.777 330.696 213.316 328.213 212.022C322.723 209.161 321.553 208.511 321.311 208.034C319.578 206.157 308.306 195.606 304.827 192.361C303.36 190.992 301.453 190.193 299.448 190.107L285.415 189.518L285.235 189.209C285.118 189.011 273.523 169.263 269.252 163.25C268.373 162.012 264.919 157.467 262.4 154.154C260.679 151.893 258.896 149.553 257.349 147.528L257.225 147.367C254.835 144.24 253.053 141.911 253.053 141.911C252.724 141.434 252.335 141.069 251.87 140.797H251.858C251.573 140.629 251.282 140.506 250.979 140.425C250.812 140.382 250.638 140.345 250.459 140.326C250.279 140.307 250.081 140.289 249.883 140.283C247.16 140.184 245.333 141.595 244.454 144.493C243.848 146.481 243.805 149.07 244.318 152.172V152.228C244.454 152.996 244.622 153.801 244.813 154.612C245.55 157.72 246.757 161.275 248.416 165.176C251.703 172.923 255.665 179.456 255.708 179.524L255.764 179.635L267.915 212.158C273.406 226.853 276.185 242.253 276.185 257.932C276.179 259.437 275.306 260.706 273.907 261.251C272.514 261.796 271.023 261.45 270.007 260.353C262.041 251.765 257.429 244.941 256.302 240.073C255.714 237.534 253.232 227.416 250.874 218.623C250.236 216.245 249.598 214.183 248.973 212.505C247.853 209.483 246.751 207.563 245.699 206.801C241.564 203.823 238.394 204.684 237.41 205.08V205.167C237.361 206.226 237.255 208.913 237.132 212.486C237.082 213.917 237.026 215.489 236.977 217.161L236.927 218.685C236.506 232.228 236.376 241.628 236.55 246.662C236.612 248.476 236.711 249.684 236.841 250.266C237.268 252.142 239.83 260.384 242.926 269.871C247.81 284.826 256.785 299.167 258.748 301.911C268.788 315.992 284.666 330.03 288.497 332.693L288.479 332.687Z" fill="#0F2A54"/>
<path d="M285.068 188.324C285.068 188.324 297.733 209 299.405 209.929C301.082 210.858 302.828 212.288 303.571 210.053C304.314 207.817 285.068 188.324 285.068 188.324Z" fill="#0F2A54"/>
<path d="M349.439 224.295C349.439 224.295 349.396 224.258 349.377 224.24C349.377 224.24 340.828 217.496 336.328 215.595C330.553 212.394 323.217 208.827 322.054 207.898C323.397 209.434 331.178 217.137 335.969 219.032C339.002 220.233 346.876 223.59 349.439 224.295Z" fill="#0F2A54"/>
<path d="M249.011 152.271C247.94 150.438 246.027 147.113 245.371 145.255C245.185 144.729 245.21 143.676 245.854 142.555C246.238 141.88 246.85 141.187 247.773 140.568C248.206 140.277 248.646 140.017 249.116 139.843C249.673 139.639 250.249 139.534 250.837 139.527C251.369 139.527 251.926 139.831 252.31 140.382C252.31 140.382 252.31 140.382 252.31 140.388C253.579 142.24 255.182 144.754 256.272 147.033C257.027 148.605 256.792 150.426 255.69 151.219L255.176 151.596L252.545 153.516C251.45 154.315 249.877 153.77 249.005 152.271H249.011Z" fill="white"/>
<path d="M251.425 154.538C251.239 154.538 251.047 154.519 250.855 154.476C249.902 154.271 249.023 153.59 248.447 152.6C247.172 150.407 245.402 147.293 244.758 145.472C244.523 144.809 244.523 143.565 245.29 142.227C245.773 141.385 246.485 140.642 247.407 140.023C247.977 139.639 248.435 139.397 248.893 139.224C249.524 138.995 250.174 138.877 250.83 138.865C251.555 138.877 252.26 139.23 252.756 139.874L252.786 139.893L252.867 140.023C254.062 141.769 255.721 144.339 256.872 146.735C257.77 148.605 257.429 150.76 256.08 151.739L252.935 154.036C252.489 154.358 251.969 154.525 251.418 154.525L251.425 154.538ZM250.855 140.178H250.849C250.341 140.184 249.834 140.277 249.345 140.456C248.992 140.586 248.614 140.791 248.144 141.113C247.389 141.62 246.813 142.221 246.429 142.89C245.884 143.831 245.872 144.692 245.996 145.045C246.671 146.958 248.788 150.581 249.586 151.949C249.976 152.624 250.539 153.076 251.134 153.2C251.4 153.256 251.802 153.268 252.174 152.99L255.318 150.692C256.154 150.085 256.315 148.605 255.696 147.317C254.6 145.026 253.003 142.549 251.839 140.846L251.771 140.741C251.53 140.394 251.183 140.184 250.861 140.184L250.855 140.178Z" fill="#0F2A54"/>
<path d="M377.994 333.343H290.045C294.458 331.61 311.333 325.163 328.826 320.73C328.857 320.73 328.882 320.717 328.907 320.711C343.93 316.909 359.399 314.605 367.799 318.061L367.861 318.154L377.994 333.35V333.343Z" fill="#0F2A54"/>
<path d="M236.76 204.653L236.259 218.697C236.259 218.697 239.211 219.18 240.889 217.923C242.567 216.673 241.681 204.486 236.76 204.653Z" fill="white"/>
<path d="M237.571 219.44C236.785 219.44 236.209 219.348 236.153 219.341L235.584 219.248L236.129 204.015L236.742 203.997C236.779 203.997 236.822 203.997 236.859 203.997C238.76 203.997 240.344 205.532 241.328 208.344C242.548 211.83 242.746 217.354 241.279 218.45C240.183 219.267 238.667 219.44 237.571 219.44ZM236.933 218.109C237.806 218.171 239.471 218.165 240.493 217.397C241.087 216.939 241.39 212.4 240.053 208.678C239.558 207.303 238.716 205.712 237.385 205.371L236.927 218.109H236.933Z" fill="#0F2A54"/>
<path d="M49.9665 177.208C49.6137 177.208 49.2608 177.208 48.9142 177.202L48.9328 175.889C50.016 175.902 51.0993 175.889 52.1826 175.865L52.2197 177.177C51.4707 177.196 50.7217 177.208 49.9727 177.208H49.9665ZM45.6087 177.097C44.4944 177.035 43.3864 176.954 42.3155 176.855L42.4393 175.549C43.4916 175.648 44.5873 175.728 45.6768 175.79L45.6087 177.097ZM55.5129 177.029L55.4262 175.722C56.5033 175.654 57.5928 175.561 58.6699 175.45L58.7999 176.756C57.7104 176.868 56.6023 176.961 55.5067 177.029H55.5129ZM39.0285 176.465C37.9267 176.31 36.8248 176.131 35.7663 175.927L36.0077 174.639C37.0477 174.837 38.1248 175.01 39.208 175.165L39.0285 176.465ZM62.0806 176.354L61.9011 175.053C62.9658 174.905 64.0491 174.731 65.1138 174.539L65.3428 175.827C64.2596 176.019 63.1639 176.193 62.0806 176.348V176.354ZM32.5289 175.233C31.4456 174.973 30.3747 174.676 29.3348 174.366L29.7124 173.109C30.7276 173.419 31.7799 173.703 32.8384 173.957L32.5289 175.233ZM68.5803 175.19L68.3017 173.908C69.354 173.679 70.4188 173.425 71.4587 173.152L71.7868 174.422C70.7283 174.694 69.645 174.954 68.5741 175.19H68.5803ZM74.9685 173.53L74.5847 172.273C75.6247 171.957 76.6646 171.617 77.6736 171.264L78.1069 172.502C77.0793 172.861 76.027 173.208 74.9685 173.53ZM26.1902 173.307C25.144 172.917 24.1103 172.496 23.1199 172.044L23.6584 170.849C24.6241 171.282 25.6269 171.697 26.6483 172.075L26.1902 173.301V173.307ZM81.202 171.338L80.713 170.124C81.7219 169.716 82.7248 169.288 83.6966 168.842L84.2413 170.031C83.2571 170.483 82.2357 170.923 81.202 171.338ZM20.1424 170.564C19.152 170.019 18.1925 169.437 17.2949 168.836L18.0254 167.746C18.892 168.328 19.8143 168.886 20.7738 169.412L20.1424 170.564ZM87.2126 168.576L86.606 167.412C87.5716 166.91 88.5249 166.378 89.4349 165.839L90.1034 166.966C89.1687 167.517 88.1968 168.062 87.2064 168.576H87.2126ZM14.6146 166.842C13.7418 166.124 12.9123 165.362 12.1509 164.576L13.0918 163.666C13.8161 164.415 14.6084 165.146 15.4441 165.833L14.6084 166.842H14.6146ZM92.9075 165.189L92.1709 164.105C93.0747 163.492 93.9537 162.854 94.7894 162.204L95.5941 163.238C94.7398 163.901 93.8361 164.557 92.9075 165.189ZM9.97201 162.031C9.29109 161.133 8.67827 160.185 8.13353 159.219L9.27871 158.575C9.79249 159.492 10.3806 160.384 11.0243 161.238L9.9782 162.025L9.97201 162.031ZM98.1444 161.114L97.2654 160.136C98.0763 159.405 98.8563 158.65 99.5805 157.888L100.528 158.792C99.7786 159.579 98.9739 160.359 98.1444 161.108V161.114ZM102.725 156.29L101.704 155.473C102.378 154.625 103.016 153.752 103.592 152.878L104.687 153.597C104.087 154.507 103.425 155.417 102.725 156.29ZM6.69123 156.185C6.28268 155.151 5.94222 154.074 5.68224 152.984L6.95741 152.674C7.20501 153.708 7.53309 154.724 7.91688 155.708L6.69742 156.191L6.69123 156.185ZM106.383 150.717L105.22 150.117L105.331 149.906C105.795 149.002 106.223 148.092 106.594 147.2L107.801 147.702C107.417 148.624 106.978 149.572 106.495 150.507L106.383 150.717ZM4.97656 149.751C4.7661 148.661 4.58039 147.565 4.42564 146.488L5.72557 146.302C5.87413 147.355 6.05984 148.432 6.26411 149.504L4.97656 149.751ZM108.928 144.556L107.671 144.178C107.981 143.138 108.234 142.091 108.414 141.069L109.701 141.299C109.51 142.37 109.25 143.472 108.921 144.556H108.928ZM4.04804 143.2C3.949 142.091 3.88091 140.977 3.84377 139.893L5.15608 139.85C5.19322 140.908 5.26131 141.998 5.35416 143.082L4.04804 143.2ZM110.079 137.961L108.773 137.899C108.791 137.534 108.798 137.168 108.798 136.809C108.798 136.109 108.767 135.403 108.705 134.716L110.011 134.598C110.079 135.329 110.11 136.072 110.11 136.809C110.11 137.187 110.104 137.571 110.085 137.961H110.079ZM5.13751 136.611L3.8252 136.574C3.85615 135.459 3.91805 134.345 4.01709 133.261L5.32321 133.378C5.23036 134.437 5.16227 135.521 5.13751 136.605V136.611ZM108.197 131.583C107.962 130.561 107.652 129.539 107.275 128.536L108.501 128.078C108.897 129.131 109.225 130.214 109.472 131.285L108.197 131.583ZM5.72557 130.177L4.43183 129.973C4.60515 128.87 4.82181 127.774 5.06941 126.709L6.34458 127.007C6.10317 128.041 5.8927 129.106 5.72557 130.177ZM105.975 125.626C105.498 124.703 104.947 123.774 104.347 122.864L105.436 122.139C106.062 123.087 106.637 124.053 107.139 125.019L105.975 125.626ZM7.19882 123.898L5.94841 123.502C6.07222 123.105 6.20221 122.721 6.3322 122.35L7.57023 122.783C7.44643 123.142 7.31644 123.514 7.19882 123.898ZM102.44 120.269C101.784 119.458 101.072 118.641 100.311 117.842L101.264 116.938C102.044 117.761 102.781 118.603 103.462 119.446L102.44 120.269ZM98.0082 115.575C97.2345 114.863 96.4112 114.151 95.5569 113.458L96.3802 112.442C97.253 113.154 98.0949 113.879 98.8934 114.609L98.0082 115.575ZM92.9818 111.482C92.1276 110.863 91.23 110.237 90.3077 109.631L91.0257 108.535C91.9666 109.154 92.8828 109.785 93.7494 110.417L92.9756 111.476L92.9818 111.482ZM87.5531 107.903C86.6369 107.352 85.6836 106.807 84.7242 106.281L85.3556 105.129C86.3274 105.661 87.2931 106.212 88.2278 106.77L87.5531 107.897V107.903ZM81.8396 104.77C80.8739 104.287 79.8835 103.81 78.8992 103.358L79.444 102.169C80.4406 102.627 81.4434 103.104 82.4276 103.599L81.8396 104.77ZM75.9094 102.057C74.4361 101.444 73.3714 101.054 72.87 100.875L73.3095 99.6423C73.8233 99.828 74.9066 100.224 76.4108 100.85L75.9094 102.063V102.057ZM69.7812 99.537C68.8093 99.0849 67.8065 98.6019 66.8037 98.1003L67.3918 96.93C68.3822 97.4254 69.3726 97.9022 70.3321 98.3542L69.7812 99.5432V99.537ZM63.8696 96.577C62.9534 96.0878 61.9816 95.5553 60.9788 94.9856L61.6287 93.8462C62.6254 94.4097 63.5848 94.936 64.4886 95.4252L63.8696 96.5832V96.577ZM58.1313 93.3136C57.1842 92.7377 56.2433 92.1494 55.3334 91.5673L56.0452 90.4651C56.9428 91.0472 57.8775 91.6293 58.8122 92.1928L58.1313 93.3136ZM52.5849 89.7344C51.675 89.109 50.765 88.465 49.8922 87.8147L50.6722 86.762C51.5326 87.3999 52.4302 88.0377 53.3278 88.6507L52.5849 89.7282V89.7344ZM47.2676 85.8084C46.3886 85.1087 45.5344 84.4027 44.7173 83.703L45.5715 82.7122C46.37 83.3996 47.2181 84.0993 48.0785 84.7867L47.2614 85.8146L47.2676 85.8084ZM42.2598 81.4861C41.4427 80.7182 40.6504 79.9318 39.9013 79.1578L40.8484 78.2475C41.5789 79.0091 42.3526 79.777 43.1574 80.5325L42.2598 81.4861ZM37.6729 76.7056C36.9363 75.851 36.2368 74.9779 35.593 74.1171L36.6391 73.3307C37.2705 74.1667 37.9515 75.015 38.6695 75.851L37.6729 76.7056ZM33.6864 71.3925C33.0736 70.445 32.5103 69.479 31.9965 68.5192L33.1541 67.9061C33.6431 68.8288 34.194 69.7639 34.7883 70.6803L33.6864 71.3925ZM30.5666 65.5097C30.1333 64.4694 29.7557 63.4105 29.44 62.3701L30.6966 61.9924C30.9937 62.9956 31.359 64.0049 31.7737 65.0019L30.5666 65.5035V65.5097ZM28.6662 59.1129C28.4682 58.0107 28.3382 56.896 28.2763 55.7938L29.5824 55.7195C29.6443 56.7722 29.7681 57.8373 29.9538 58.8838L28.6662 59.1129ZM29.6009 52.5242L28.2948 52.4375C28.3691 51.3353 28.5115 50.2144 28.7158 49.1122L30.0033 49.3537C29.8052 50.4064 29.6752 51.4715 29.6009 52.5242ZM30.7647 46.2451L29.5143 45.8612C29.83 44.8208 30.2138 43.7619 30.6471 42.7154L31.8542 43.2232C31.4332 44.2264 31.068 45.2419 30.7647 46.2389V46.2451ZM33.2284 40.319L32.0708 39.7059C32.5722 38.7523 33.1355 37.7801 33.736 36.8264L34.844 37.5262C34.2559 38.455 33.7174 39.3901 33.2284 40.3128V40.319ZM36.6639 34.8573L35.6054 34.0832C36.243 33.2163 36.9239 32.3369 37.6419 31.47L38.6509 32.306C37.9515 33.1543 37.2829 34.0089 36.6639 34.8573ZM40.7865 29.86L39.8209 28.9745C40.5451 28.188 41.3189 27.383 42.1112 26.5904L43.0336 27.5192C42.2474 28.2995 41.4922 29.0859 40.7803 29.86H40.7865ZM45.3858 25.2776L44.5006 24.3116C45.2991 23.5809 46.1286 22.8502 46.9705 22.1257L47.8185 23.1226C46.9891 23.8348 46.1658 24.5593 45.3796 25.2776H45.3858ZM50.3317 21.0544L49.5146 20.0264C50.3751 19.3391 51.2541 18.6641 52.1269 18.0139L52.9068 19.0666C52.0464 19.7106 51.1798 20.3732 50.3317 21.0544ZM169.758 18.6331C169.758 18.6331 168.749 18.0077 166.929 17.0293L167.554 15.8775C169.405 16.8807 170.408 17.4937 170.445 17.5185L169.758 18.6331ZM55.55 17.1717L54.8072 16.0943C55.711 15.4688 56.6333 14.8496 57.5494 14.2613L58.2551 15.3635C57.3514 15.9456 56.4414 16.5525 55.55 17.1655V17.1717ZM164.038 15.5184C163.153 15.0725 162.175 14.5957 161.104 14.0879L161.661 12.9052C162.739 13.4129 163.729 13.9021 164.627 14.348L164.038 15.5184ZM61.0221 13.6606L60.3536 12.5336C61.3007 11.9763 62.2663 11.4252 63.2258 10.905L63.851 12.0568C62.9101 12.5708 61.9568 13.1095 61.0221 13.6606ZM158.133 12.7318C157.18 12.3107 156.183 11.8834 155.131 11.4438L155.632 10.23C156.691 10.6697 157.7 11.1032 158.659 11.5304L158.127 12.7318H158.133ZM66.7356 10.552L66.1537 9.37549C67.138 8.88629 68.1408 8.40947 69.1374 7.96362L69.6759 9.15875C68.6979 9.59841 67.7075 10.069 66.7356 10.552ZM152.104 10.2238C151.12 9.83992 150.098 9.45599 149.046 9.07825L149.492 7.84596C150.55 8.22989 151.584 8.62001 152.574 9.00394L152.098 10.2238H152.104ZM145.969 8.00077C144.96 7.66019 143.927 7.3258 142.868 6.9976L143.258 5.74673C144.329 6.08112 145.375 6.41551 146.39 6.76229L145.969 8.00696V8.00077ZM72.6596 7.87692L72.1644 6.66321C73.1857 6.24832 74.2195 5.85201 75.2409 5.48046L75.6866 6.71275C74.6776 7.0781 73.6562 7.47442 72.6534 7.88312L72.6596 7.87692ZM139.736 6.06255C138.708 5.7715 137.656 5.48046 136.591 5.20799L136.919 3.93855C137.997 4.21721 139.055 4.50825 140.095 4.80549L139.736 6.06874V6.06255ZM78.7692 5.65385L78.3669 4.40298C79.4068 4.06859 80.4653 3.74659 81.5239 3.44935L81.8767 4.7126C80.8306 5.00364 79.7844 5.31946 78.7631 5.65385H78.7692ZM133.422 4.42775C132.376 4.18625 131.311 3.95094 130.234 3.72801L130.5 2.44618C131.59 2.66911 132.661 2.90442 133.719 3.15211L133.422 4.42775ZM85.0275 3.8952L84.718 2.61957C85.7951 2.35949 86.8783 2.11798 87.9369 1.90125L88.1968 3.18308C87.1507 3.39981 86.0798 3.63512 85.0213 3.88901L85.0275 3.8952ZM127.034 3.11496C125.963 2.923 124.886 2.74342 123.815 2.58241L124.013 1.2882C125.09 1.4492 126.186 1.63497 127.263 1.82694L127.034 3.11496ZM91.3971 2.5948L91.1805 1.30058C92.2514 1.121 93.3532 0.960001 94.4427 0.817576L94.6098 2.11798C93.5327 2.26041 92.4495 2.42141 91.391 2.5948H91.3971ZM120.59 2.13656C119.513 2.00652 118.423 1.88267 117.352 1.78359L117.476 0.476993C118.559 0.576072 119.661 0.69992 120.751 0.829961L120.59 2.13037V2.13656ZM97.8473 1.74644L97.7235 0.439839C98.8006 0.334568 99.9086 0.247874 101.01 0.179758L101.091 1.48636C100.001 1.55447 98.912 1.64117 97.8473 1.74024V1.74644ZM114.103 1.52351C113.019 1.45539 111.924 1.39966 110.853 1.36251L110.896 0.0559095C111.979 0.0930639 113.087 0.148796 114.189 0.216912L114.103 1.52351ZM104.341 1.34393L104.304 0.0311398C105.3 0.000177789 106.291 -0.012207 107.275 -0.012207H107.603V1.31297H107.281C106.303 1.31297 105.325 1.32535 104.341 1.35632V1.34393Z" fill="#193773"/>
<path d="M10.4737 115.476C10.1023 119.427 10.2199 124.616 11.2289 128.276L6.5925 123.539L0 122.864C3.49124 121.365 7.61388 118.232 10.4737 115.476Z" fill="#193773"/>
<path d="M172.408 43.6812C172.408 43.6812 164.751 68.5189 172.408 139.62V43.6812Z" fill="black"/>
<path d="M410.271 194.492C420.992 194.492 429.683 185.797 429.683 175.072C429.683 164.347 420.992 155.653 410.271 155.653C399.55 155.653 390.858 164.347 390.858 175.072C390.858 185.797 399.55 194.492 410.271 194.492Z" fill="#FF5D78"/>
<path d="M412.276 193.606C422.997 193.606 431.688 184.912 431.688 174.186C431.688 163.461 422.997 154.767 412.276 154.767C401.554 154.767 392.863 163.461 392.863 174.186C392.863 184.912 401.554 193.606 412.276 193.606Z" fill="white"/>
<path d="M420.317 192.318C410.32 196.758 398.583 192.231 394.145 182.23C389.707 172.23 394.232 160.489 404.229 156.049C414.226 151.609 425.962 156.136 430.401 166.136C434.839 176.137 430.314 187.878 420.317 192.318ZM404.569 156.817C394.993 161.065 390.666 172.316 394.913 181.896C399.159 191.476 410.406 195.804 419.983 191.556C429.559 187.308 433.886 176.057 429.639 166.477C425.393 156.897 414.145 152.563 404.569 156.817Z" fill="#231F20"/>
<path d="M418.875 175.023C419.438 176.391 419.215 177.704 418.46 178.942C417.965 179.754 417.284 180.373 416.454 180.825C416.337 180.887 416.324 180.943 416.38 181.06C416.566 181.456 416.739 181.859 416.912 182.261C416.987 182.429 416.937 182.583 416.807 182.683C416.671 182.782 416.528 182.775 416.398 182.683C416.337 182.633 416.293 182.553 416.256 182.478C416.089 182.113 415.922 181.754 415.773 181.382C415.711 181.221 415.643 181.196 415.476 181.252C414.003 181.729 412.561 181.667 411.199 180.881C410.487 180.466 409.948 179.877 409.596 179.128C409.478 178.88 409.534 178.682 409.75 178.589C409.924 178.521 410.103 178.577 410.177 178.744C410.889 180.342 412.66 181.023 414.251 180.812C415.916 180.596 417.216 179.785 418.026 178.298C418.571 177.301 418.67 176.242 418.194 175.184C417.785 174.267 417.061 173.685 416.126 173.369C414.95 172.967 413.792 173.078 412.66 173.574C411.453 174.1 410.208 174.23 408.939 173.852C407.534 173.431 406.531 172.552 406.08 171.134C405.739 170.087 405.869 169.053 406.333 168.062C406.835 166.991 407.639 166.205 408.661 165.635C408.686 165.622 408.71 165.61 408.76 165.579L408.357 164.675C408.296 164.539 408.24 164.409 408.178 164.273C408.091 164.062 408.153 163.87 408.333 163.783C408.512 163.697 408.716 163.783 408.816 163.994C408.989 164.378 409.156 164.768 409.329 165.152C409.348 165.195 409.373 165.239 409.385 165.263C409.837 165.164 410.27 165.04 410.716 164.985C412.14 164.817 413.433 165.133 414.535 166.087C414.95 166.446 415.272 166.892 415.501 167.394C415.6 167.61 415.532 167.808 415.352 167.901C415.167 167.988 414.975 167.901 414.87 167.691C414.257 166.446 413.211 165.839 411.873 165.678C410.994 165.573 410.159 165.734 409.348 166.093C408.283 166.57 407.472 167.307 406.971 168.353C406.519 169.301 406.439 170.279 406.866 171.258C407.299 172.255 408.085 172.868 409.113 173.171C410.215 173.499 411.292 173.4 412.338 172.942C413.526 172.428 414.746 172.261 416.008 172.601C417.339 172.954 418.348 173.728 418.875 175.023Z" fill="#FF5D78"/>
<path d="M376.75 153.244C387.471 153.244 396.162 144.549 396.162 133.824C396.162 123.099 387.471 114.405 376.75 114.405C366.029 114.405 357.338 123.099 357.338 133.824C357.338 144.549 366.029 153.244 376.75 153.244Z" fill="#FF5D78"/>
<path d="M378.836 153.925C389.557 153.925 398.248 145.23 398.248 134.505C398.248 123.78 389.557 115.086 378.836 115.086C368.115 115.086 359.424 123.78 359.424 134.505C359.424 145.23 368.115 153.925 378.836 153.925Z" fill="white"/>
<path d="M372.683 153.361C362.29 149.968 356.595 138.741 359.987 128.344C363.379 117.947 374.602 112.25 384.995 115.643C395.389 119.037 401.084 130.264 397.691 140.661C394.299 151.058 383.076 156.755 372.683 153.361ZM384.735 116.442C374.782 113.191 364.036 118.647 360.78 128.604C357.53 138.561 362.983 149.311 372.937 152.569C382.891 155.82 393.637 150.364 396.893 140.407C400.143 130.449 394.689 119.699 384.735 116.442Z" fill="#231F20"/>
<path d="M383.175 139.546C382.674 140.939 381.634 141.769 380.247 142.178C379.337 142.45 378.421 142.45 377.499 142.227C377.369 142.196 377.319 142.227 377.282 142.351C377.152 142.772 377.016 143.187 376.874 143.602C376.812 143.775 376.676 143.862 376.508 143.844C376.341 143.825 376.236 143.726 376.205 143.571C376.187 143.491 376.205 143.404 376.236 143.323C376.354 142.939 376.471 142.562 376.607 142.184C376.669 142.023 376.632 141.961 376.471 141.887C375.054 141.255 374.026 140.246 373.543 138.747C373.29 137.961 373.29 137.168 373.525 136.369C373.605 136.103 373.779 135.998 374.001 136.072C374.175 136.134 374.274 136.295 374.218 136.475C373.679 138.134 374.534 139.825 375.858 140.735C377.239 141.689 378.743 141.955 380.346 141.398C381.423 141.02 382.197 140.302 382.556 139.193C382.866 138.239 382.717 137.323 382.234 136.456C381.628 135.366 380.693 134.679 379.523 134.282C378.273 133.861 377.264 133.131 376.576 131.997C375.809 130.747 375.66 129.421 376.267 128.065C376.719 127.062 377.505 126.381 378.508 125.954C379.597 125.495 380.718 125.452 381.863 125.712C381.888 125.718 381.919 125.725 381.974 125.737L382.284 124.796C382.327 124.659 382.37 124.517 382.42 124.381C382.494 124.164 382.674 124.065 382.859 124.121C383.051 124.176 383.144 124.375 383.076 124.598C382.946 125 382.816 125.403 382.686 125.805C382.674 125.855 382.661 125.898 382.655 125.923C383.058 126.152 383.466 126.35 383.825 126.61C384.995 127.44 385.744 128.536 385.924 129.985C385.992 130.536 385.93 131.075 385.769 131.601C385.701 131.824 385.515 131.936 385.317 131.874C385.125 131.818 385.038 131.626 385.1 131.397C385.478 130.065 385.1 128.907 384.221 127.898C383.639 127.229 382.909 126.79 382.067 126.511C380.959 126.152 379.863 126.158 378.786 126.598C377.815 126.994 377.103 127.675 376.762 128.685C376.416 129.719 376.595 130.697 377.152 131.614C377.746 132.598 378.619 133.242 379.703 133.608C380.928 134.022 381.95 134.716 382.655 135.812C383.404 136.964 383.639 138.215 383.169 139.527L383.175 139.546Z" fill="#FF5D78"/>
<path d="M416.658 118.894L451.144 124.288L428.611 108.256L427.206 113.154L418.732 114.69L416.658 118.894Z" fill="#83A4CC"/>
<path d="M451.509 123.867L422.508 108.906L394.083 107.476L451.509 123.867Z" fill="#B7CDED"/>
<path d="M433.576 98.6265L452.883 125.198L427.943 108.194L433.576 98.6265Z" fill="#B7CDED"/>
<path d="M204.758 76.7798H253.784C255.288 76.7798 256.514 77.9997 256.514 79.5106V93.0039C256.514 94.5087 255.294 95.7348 253.784 95.7348H235.374C234.619 95.7348 234.012 96.3478 234.012 97.0971V101.915C234.012 103.128 232.545 103.742 231.685 102.881L225.34 96.5336C224.826 96.0196 224.133 95.7348 223.409 95.7348H204.764C203.26 95.7348 202.034 94.5149 202.034 93.0039V79.5106C202.034 78.0059 203.254 76.7798 204.764 76.7798" fill="#1C488E"/>
<path d="M235.876 87.6352C236.306 87.6352 236.656 87.2859 236.656 86.8549C236.656 86.424 236.306 86.0747 235.876 86.0747C235.445 86.0747 235.096 86.424 235.096 86.8549C235.096 87.2859 235.445 87.6352 235.876 87.6352Z" fill="white"/>
<path d="M240.048 86.8549C240.048 87.2884 239.695 87.6352 239.268 87.6352C238.841 87.6352 238.488 87.2822 238.488 86.8549C238.488 86.4277 238.841 86.0747 239.268 86.0747C239.702 86.0747 240.048 86.4277 240.048 86.8549Z" fill="white"/>
<path d="M242.654 87.6352C243.085 87.6352 243.434 87.2859 243.434 86.8549C243.434 86.424 243.085 86.0747 242.654 86.0747C242.223 86.0747 241.874 86.424 241.874 86.8549C241.874 87.2859 242.223 87.6352 242.654 87.6352Z" fill="white"/>
<path d="M225.879 87.6352C226.309 87.6352 226.659 87.2859 226.659 86.8549C226.659 86.424 226.309 86.0747 225.879 86.0747C225.448 86.0747 225.099 86.424 225.099 86.8549C225.099 87.2859 225.448 87.6352 225.879 87.6352Z" fill="white"/>
<path d="M229.271 87.6352C229.702 87.6352 230.051 87.2859 230.051 86.8549C230.051 86.424 229.702 86.0747 229.271 86.0747C228.84 86.0747 228.491 86.424 228.491 86.8549C228.491 87.2859 228.84 87.6352 229.271 87.6352Z" fill="white"/>
<path d="M232.657 87.6352C233.088 87.6352 233.437 87.2859 233.437 86.8549C233.437 86.424 233.088 86.0747 232.657 86.0747C232.226 86.0747 231.877 86.424 231.877 86.8549C231.877 87.2859 232.226 87.6352 232.657 87.6352Z" fill="white"/>
<path d="M215.882 87.6352C216.312 87.6352 216.661 87.2859 216.661 86.8549C216.661 86.424 216.312 86.0747 215.882 86.0747C215.451 86.0747 215.102 86.424 215.102 86.8549C215.102 87.2859 215.451 87.6352 215.882 87.6352Z" fill="white"/>
<path d="M219.274 87.6352C219.705 87.6352 220.054 87.2859 220.054 86.8549C220.054 86.424 219.705 86.0747 219.274 86.0747C218.843 86.0747 218.494 86.424 218.494 86.8549C218.494 87.2859 218.843 87.6352 219.274 87.6352Z" fill="white"/>
<path d="M222.66 87.6352C223.091 87.6352 223.44 87.2859 223.44 86.8549C223.44 86.424 223.091 86.0747 222.66 86.0747C222.229 86.0747 221.88 86.424 221.88 86.8549C221.88 87.2859 222.229 87.6352 222.66 87.6352Z" fill="white"/>
<path d="M467.065 178.434H384.278C381.967 178.434 380.094 180.308 380.094 182.62V239.058C380.094 241.37 381.967 243.244 384.278 243.244H467.065C469.376 243.244 471.25 241.37 471.25 239.058V182.62C471.25 180.308 469.376 178.434 467.065 178.434Z" fill="#193773"/>
<path d="M469.324 204.888H446.891C442.655 204.888 439.222 208.323 439.222 212.561C439.222 216.798 442.655 220.233 446.891 220.233H469.324C473.56 220.233 476.994 216.798 476.994 212.561C476.994 208.323 473.56 204.888 469.324 204.888Z" fill="#FF5D78"/>
<path d="M452.135 215.665C453.866 213.203 453.274 209.804 450.813 208.073C448.352 206.342 444.954 206.934 443.224 209.395C441.493 211.857 442.085 215.256 444.545 216.987C447.006 218.719 450.404 218.127 452.135 215.665Z" fill="black"/>
<path d="M347.533 132.381C346.926 131.929 346.326 131.483 345.726 131.044L346.351 130.183C346.957 130.623 347.564 131.069 348.171 131.527L347.533 132.375V132.381ZM255.944 132.097L255.151 131.384C255.151 131.384 255.721 130.747 256.786 129.743L257.516 130.517C256.495 131.484 255.95 132.084 255.944 132.09V132.097ZM343.893 129.75C343.274 129.316 342.655 128.895 342.036 128.48L342.63 127.595C343.249 128.01 343.875 128.437 344.5 128.87L343.893 129.743V129.75ZM259.175 129.025L258.482 128.22C259.045 127.731 259.639 127.242 260.24 126.765L260.902 127.595C260.314 128.065 259.732 128.542 259.181 129.025H259.175ZM340.161 127.248C339.523 126.839 338.892 126.443 338.26 126.059L338.817 125.149C339.455 125.539 340.099 125.941 340.742 126.35L340.167 127.248H340.161ZM262.672 126.226L262.041 125.372C262.648 124.926 263.273 124.48 263.898 124.046L264.498 124.926C263.886 125.347 263.273 125.786 262.672 126.226ZM336.329 124.901C335.685 124.523 335.029 124.152 334.379 123.793L334.893 122.864C335.549 123.229 336.211 123.601 336.867 123.984L336.335 124.901H336.329ZM266.368 123.687L265.798 122.789C266.436 122.381 267.092 121.984 267.742 121.6L268.281 122.517C267.643 122.895 266.999 123.291 266.368 123.687ZM332.404 122.734C331.742 122.387 331.067 122.046 330.405 121.718L330.875 120.764C331.55 121.093 332.231 121.439 332.9 121.792L332.404 122.734ZM270.231 121.415L269.723 120.48C270.392 120.12 271.066 119.761 271.741 119.427L272.218 120.381C271.555 120.709 270.887 121.062 270.231 121.415ZM328.381 120.758C327.706 120.449 327.013 120.139 326.332 119.848L326.753 118.87C327.446 119.167 328.139 119.476 328.826 119.792L328.381 120.758ZM274.236 119.414L273.796 118.448C274.483 118.133 275.183 117.829 275.882 117.538L276.291 118.523C275.604 118.808 274.91 119.105 274.236 119.414ZM324.258 118.987C323.559 118.709 322.859 118.442 322.166 118.188L322.531 117.191C323.231 117.445 323.949 117.718 324.654 118.003L324.264 118.993L324.258 118.987ZM278.371 117.705L277.999 116.708C278.711 116.442 279.429 116.188 280.147 115.953L280.481 116.962C279.776 117.198 279.07 117.445 278.371 117.705ZM320.049 117.451C319.343 117.216 318.619 116.987 317.913 116.777L318.217 115.755C318.935 115.972 319.665 116.201 320.383 116.442L320.049 117.451ZM282.617 116.3L282.32 115.278C283.044 115.067 283.787 114.869 284.517 114.683L284.777 115.718C284.059 115.897 283.329 116.095 282.617 116.3ZM315.753 116.163C315.029 115.972 314.298 115.792 313.58 115.625L313.822 114.591C314.552 114.758 315.295 114.944 316.025 115.142L315.753 116.17V116.163ZM286.95 115.216L286.733 114.176C287.47 114.021 288.225 113.878 288.968 113.748L289.148 114.795C288.417 114.919 287.681 115.061 286.95 115.216ZM311.389 115.154C310.658 115.012 309.916 114.875 309.185 114.758L309.358 113.705C310.101 113.823 310.856 113.959 311.599 114.108L311.395 115.154H311.389ZM291.358 114.461L291.215 113.408C291.964 113.309 292.719 113.222 293.475 113.148L293.574 114.207C292.831 114.275 292.088 114.361 291.351 114.461H291.358ZM306.969 114.442C306.232 114.349 305.483 114.269 304.747 114.2L304.846 113.142C305.595 113.21 306.356 113.29 307.105 113.389L306.969 114.442ZM295.808 114.039L295.746 112.974C296.502 112.931 297.263 112.9 298.018 112.888L298.037 113.953C297.294 113.965 296.545 113.996 295.802 114.039H295.808ZM302.512 114.039C301.769 113.996 301.02 113.971 300.278 113.959L300.296 112.894C301.051 112.906 301.819 112.937 302.568 112.974L302.512 114.039Z" fill="#193773"/>
<path d="M352.999 136.029C349.935 135.038 345.806 134.227 342.729 134.382L347.298 131.539L348.988 126.431C349.557 129.459 351.321 133.279 352.999 136.029Z" fill="#193773"/>
<path d="M362.019 181.592C361.263 181.475 360.508 181.339 359.778 181.196L359.982 180.15C360.7 180.292 361.443 180.422 362.179 180.54L362.012 181.592H362.019ZM357.555 180.707C356.813 180.527 356.076 180.329 355.352 180.119L355.649 179.097C356.355 179.301 357.079 179.493 357.803 179.673L357.555 180.707ZM353.185 179.431C352.461 179.184 351.743 178.917 351.05 178.632L351.446 177.648C352.127 177.92 352.826 178.18 353.532 178.428L353.185 179.431ZM348.957 177.728C348.27 177.413 347.583 177.072 346.915 176.719L347.41 175.778C348.066 176.124 348.734 176.453 349.403 176.762L348.957 177.728ZM344.921 175.604C344.278 175.22 343.628 174.818 342.99 174.391L343.578 173.505C344.203 173.92 344.835 174.316 345.466 174.688L344.921 175.604ZM341.121 173.096C340.52 172.657 339.907 172.192 339.307 171.715L339.969 170.886C340.557 171.356 341.158 171.808 341.746 172.242L341.121 173.103V173.096ZM337.555 170.26C336.998 169.777 336.428 169.27 335.859 168.743L336.583 167.963C337.14 168.477 337.704 168.978 338.248 169.455L337.555 170.26ZM334.212 167.176C333.686 166.662 333.154 166.124 332.615 165.566L333.377 164.823C333.909 165.374 334.441 165.907 334.955 166.415L334.212 167.176ZM331.055 163.919C330.548 163.368 330.034 162.811 329.526 162.247L330.319 161.535C330.826 162.099 331.328 162.65 331.835 163.195L331.055 163.919ZM328.028 160.551C327.539 159.987 327.044 159.417 326.549 158.841L327.354 158.148C327.849 158.724 328.338 159.294 328.827 159.851L328.028 160.551ZM325.082 157.12C324.599 156.55 324.116 155.974 323.627 155.392L324.444 154.705C324.933 155.287 325.416 155.863 325.899 156.426L325.088 157.114L325.082 157.12ZM322.179 153.665L320.73 151.937L321.547 151.256L322.996 152.983L322.179 153.665ZM319.276 150.209C318.793 149.64 318.31 149.07 317.815 148.488L318.626 147.8C319.121 148.376 319.604 148.952 320.087 149.522L319.276 150.209ZM316.348 146.779C315.865 146.215 315.37 145.652 314.868 145.082L315.667 144.382C316.168 144.952 316.663 145.522 317.152 146.085L316.348 146.779ZM313.376 143.391L313.339 143.348C312.856 142.809 312.355 142.277 311.847 141.775L312.596 141.02C313.116 141.54 313.63 142.085 314.125 142.642L314.163 142.685L313.37 143.391H313.376ZM310.232 140.252C309.675 139.763 309.099 139.286 308.523 138.834L309.173 137.992C309.768 138.456 310.362 138.945 310.937 139.453L310.232 140.252ZM306.722 137.527C306.109 137.112 305.478 136.716 304.84 136.344L305.379 135.428C306.035 135.812 306.685 136.221 307.316 136.648L306.722 137.527ZM266.121 135.8L265.669 134.834C265.7 134.821 266.455 134.468 267.805 133.96L268.176 134.957C266.876 135.447 266.127 135.793 266.121 135.793V135.8ZM302.89 135.286C302.228 134.957 301.553 134.648 300.872 134.363L301.281 133.378C301.98 133.669 302.686 133.991 303.367 134.332L302.89 135.286ZM270.287 134.22L269.959 133.211C270.677 132.976 271.407 132.759 272.144 132.555L272.429 133.576C271.711 133.775 270.992 133.998 270.287 134.22ZM298.792 133.57C298.099 133.335 297.381 133.112 296.669 132.92L296.948 131.892C297.684 132.09 298.421 132.319 299.139 132.567L298.792 133.576V133.57ZM274.589 133.013L274.341 131.979C275.078 131.805 275.827 131.638 276.57 131.496L276.774 132.542C276.05 132.685 275.313 132.846 274.589 133.013ZM294.503 132.4C293.785 132.251 293.048 132.121 292.311 132.01L292.466 130.957C293.221 131.069 293.983 131.205 294.719 131.353L294.503 132.394V132.4ZM278.978 132.152L278.817 131.099C279.572 130.982 280.333 130.883 281.076 130.802L281.188 131.861C280.457 131.942 279.714 132.035 278.972 132.152H278.978ZM290.101 131.75C289.371 131.682 288.622 131.638 287.879 131.607L287.916 130.542C288.684 130.567 289.451 130.616 290.194 130.685L290.101 131.744V131.75ZM283.416 131.675L283.348 130.616C284.109 130.567 284.877 130.542 285.626 130.53L285.645 131.595C284.908 131.607 284.159 131.632 283.416 131.682V131.675Z" fill="#193773"/>
<path d="M370.599 181.828C367.497 182.707 363.61 184.317 361.134 186.15L363.356 181.252L361.932 176.062C364.086 178.267 367.671 180.471 370.592 181.828H370.599Z" fill="#193773"/>
<path d="M222.74 36.7767H186.682C185.054 36.7767 183.729 38.0957 183.729 39.7305V54.326C183.729 55.9546 185.048 57.2798 186.682 57.2798H198.115C198.932 57.2798 199.589 57.9424 199.589 58.7536V63.9614C199.589 65.2742 201.18 65.9368 202.108 65.0017L208.967 58.1405C209.518 57.5894 210.273 57.2736 211.053 57.2736H222.74C224.368 57.2736 225.692 55.9546 225.692 54.3198V39.7243C225.692 38.0957 224.374 36.7705 222.74 36.7705" fill="#FF5D78"/>
<path d="M208.378 48.5239C208.847 48.5239 209.226 48.144 209.226 47.6755C209.226 47.207 208.847 46.8271 208.378 46.8271C207.91 46.8271 207.53 47.207 207.53 47.6755C207.53 48.144 207.91 48.5239 208.378 48.5239Z" fill="white"/>
<path d="M204.714 48.5239C205.183 48.5239 205.562 48.144 205.562 47.6755C205.562 47.207 205.183 46.8271 204.714 46.8271C204.246 46.8271 203.866 47.207 203.866 47.6755C203.866 48.144 204.246 48.5239 204.714 48.5239Z" fill="white"/>
<path d="M201.049 48.5239C201.518 48.5239 201.897 48.144 201.897 47.6755C201.897 47.207 201.518 46.8271 201.049 46.8271C200.581 46.8271 200.201 47.207 200.201 47.6755C200.201 48.144 200.581 48.5239 201.049 48.5239Z" fill="white"/>
<path d="M222.74 116.101H186.682C185.054 116.101 183.729 117.42 183.729 119.055V133.651C183.729 135.279 185.048 136.604 186.682 136.604H198.115C198.932 136.604 199.589 137.267 199.589 138.078V143.286C199.589 144.599 201.18 145.261 202.108 144.326L208.967 137.465C209.518 136.914 210.273 136.598 211.053 136.598H222.74C224.368 136.598 225.692 135.279 225.692 133.645V119.049C225.692 117.42 224.374 116.095 222.74 116.095" fill="#FF5D78"/>
<path d="M208.378 127.849C208.847 127.849 209.226 127.469 209.226 127C209.226 126.532 208.847 126.152 208.378 126.152C207.91 126.152 207.53 126.532 207.53 127C207.53 127.469 207.91 127.849 208.378 127.849Z" fill="white"/>
<path d="M204.714 127.849C205.183 127.849 205.562 127.469 205.562 127C205.562 126.532 205.183 126.152 204.714 126.152C204.246 126.152 203.866 126.532 203.866 127C203.866 127.469 204.246 127.849 204.714 127.849Z" fill="white"/>
<path d="M201.049 127.849C201.518 127.849 201.897 127.469 201.897 127C201.897 126.532 201.518 126.152 201.049 126.152C200.581 126.152 200.201 126.532 200.201 127C200.201 127.469 200.581 127.849 201.049 127.849Z" fill="white"/>
</g>
<defs>
<clipPath id="clip0_992_5623">
<rect width="477" height="334" fill="white"/>
</clipPath>
</defs>
</svg>
