<svg width="494" height="372" viewBox="0 0 494 372" fill="none" xmlns="http://www.w3.org/2000/svg">
<g clip-path="url(#clip0_992_5738)">
<path d="M273.971 22.7837H134.054C119.829 22.7837 108.298 34.3151 108.298 48.5398V339.796C108.298 354.021 119.829 365.552 134.054 365.552H273.971C288.196 365.552 299.727 354.021 299.727 339.796V48.5398C299.727 34.3151 288.196 22.7837 273.971 22.7837Z" fill="#193773"/>
<path d="M292.748 22.7212H139.58C129.015 22.7212 120.449 31.2865 120.449 41.8523V346.421C120.449 356.987 129.015 365.552 139.58 365.552H292.748C303.313 365.552 311.879 356.987 311.879 346.421V41.8523C311.879 31.2865 303.313 22.7212 292.748 22.7212Z" fill="#A3B1C9"/>
<path d="M192.97 41.748H253.067" stroke="#193773" stroke-width="3" stroke-miterlimit="10"/>
<path d="M235.591 343.397C235.591 347.276 234.02 350.794 231.476 353.338C228.932 355.882 225.421 357.454 221.535 357.454C217.649 357.454 214.138 355.882 211.594 353.338C209.05 350.794 207.479 347.283 207.479 343.397C207.479 339.511 209.05 336.001 211.594 333.456C214.138 330.912 217.649 329.341 221.535 329.341C225.421 329.341 228.932 330.912 231.476 333.456C234.02 336.001 235.591 339.511 235.591 343.397Z" fill="white"/>
<path d="M311.948 59.6558H120.22V321.687H311.948V59.6558Z" fill="#5E739D"/>
<path d="M338.22 242.271H281.918C280.833 242.271 279.86 242.716 279.151 243.432C279.13 243.452 279.102 243.473 279.081 243.494C279.06 243.515 279.033 243.536 279.012 243.557C278.991 243.578 278.963 243.598 278.942 243.619C278.921 243.64 278.894 243.661 278.873 243.682C278.852 243.703 278.824 243.724 278.803 243.744C278.782 243.765 278.755 243.786 278.734 243.807C278.713 243.828 278.685 243.849 278.664 243.87C278.643 243.89 278.616 243.911 278.595 243.932C278.574 243.953 278.546 243.974 278.525 243.995C278.504 244.016 278.477 244.036 278.456 244.057C278.435 244.078 278.407 244.099 278.386 244.12C278.365 244.141 278.337 244.161 278.317 244.182C278.296 244.203 278.268 244.224 278.247 244.245C278.226 244.266 278.198 244.287 278.178 244.307C278.157 244.328 278.129 244.349 278.108 244.37C278.087 244.391 278.059 244.412 278.039 244.433C278.018 244.453 277.99 244.474 277.969 244.495C277.948 244.516 277.92 244.537 277.899 244.558C277.879 244.579 277.851 244.599 277.83 244.62C277.809 244.641 277.781 244.662 277.76 244.683C277.74 244.704 277.712 244.725 277.691 244.745C277.67 244.766 277.642 244.787 277.621 244.808C277.601 244.829 277.573 244.85 277.552 244.871C277.531 244.891 277.51 244.912 277.482 244.933C277.462 244.954 277.434 244.975 277.413 244.996C277.392 245.017 277.364 245.037 277.343 245.058C277.323 245.079 277.295 245.1 277.274 245.121C277.253 245.142 277.225 245.163 277.204 245.183C277.183 245.204 277.156 245.225 277.135 245.246C277.114 245.267 277.086 245.288 277.065 245.309C277.044 245.329 277.017 245.35 276.996 245.371C276.975 245.392 276.947 245.413 276.926 245.434C276.905 245.455 276.878 245.475 276.857 245.496C276.836 245.517 276.808 245.538 276.787 245.559C276.766 245.58 276.739 245.601 276.718 245.621C276.697 245.642 276.669 245.663 276.648 245.684C276.627 245.705 276.6 245.726 276.579 245.746C276.558 245.767 276.53 245.788 276.509 245.809C276.488 245.83 276.46 245.851 276.44 245.872C276.419 245.892 276.391 245.913 276.37 245.934C276.349 245.955 276.321 245.976 276.301 245.997C276.28 246.018 276.252 246.038 276.231 246.059C276.21 246.08 276.182 246.101 276.162 246.122C276.141 246.143 276.113 246.164 276.092 246.184C276.071 246.205 276.043 246.226 276.023 246.247C276.002 246.268 275.974 246.289 275.953 246.31C275.932 246.33 275.904 246.351 275.884 246.372C275.863 246.393 275.835 246.414 275.814 246.435C275.793 246.456 275.765 246.476 275.744 246.497C275.724 246.518 275.696 246.539 275.675 246.56C275.654 246.581 275.626 246.602 275.605 246.622C275.585 246.643 275.557 246.664 275.536 246.685C275.515 246.706 275.487 246.727 275.466 246.748C275.446 246.768 275.418 246.789 275.397 246.81C275.376 246.831 275.348 246.852 275.327 246.873C275.307 246.894 275.279 246.914 275.258 246.935C275.237 246.956 275.209 246.977 275.188 246.998C275.167 247.019 275.14 247.04 275.119 247.06C275.098 247.081 275.07 247.102 275.049 247.123C275.028 247.144 275.001 247.165 274.98 247.186C274.959 247.206 274.931 247.227 274.91 247.248C274.889 247.269 274.869 247.29 274.841 247.311C274.82 247.331 274.792 247.352 274.771 247.373C274.75 247.394 274.723 247.415 274.702 247.436C274.681 247.457 274.653 247.477 274.632 247.498C274.611 247.519 274.584 247.54 274.563 247.561C274.542 247.582 274.514 247.603 274.493 247.623C274.472 247.644 274.444 247.665 274.424 247.686C274.403 247.707 274.375 247.728 274.354 247.749C274.333 247.769 274.305 247.79 274.285 247.811C274.264 247.832 274.236 247.853 274.215 247.874C274.194 247.895 274.166 247.915 274.146 247.936C274.125 247.957 274.097 247.978 274.076 247.999C274.055 248.02 274.027 248.041 274.007 248.061C273.986 248.082 273.958 248.103 273.937 248.124C273.916 248.145 273.888 248.166 273.868 248.187C273.847 248.207 273.819 248.228 273.798 248.249C273.777 248.27 273.749 248.291 273.728 248.312C273.708 248.333 273.68 248.353 273.659 248.374C273.638 248.395 273.61 248.416 273.589 248.437C273.569 248.458 273.541 248.479 273.52 248.499C273.499 248.52 273.471 248.541 273.45 248.562C273.43 248.583 273.402 248.604 273.381 248.625C273.36 248.645 273.332 248.666 273.311 248.687C273.291 248.708 273.263 248.729 273.242 248.75C273.221 248.77 273.193 248.791 273.172 248.812C273.151 248.833 273.124 248.854 273.103 248.875C273.082 248.896 273.054 248.916 273.033 248.937C273.012 248.958 272.985 248.979 272.964 249C272.943 249.021 272.915 249.042 272.894 249.062C272.873 249.083 272.846 249.104 272.825 249.125C272.804 249.146 272.776 249.167 272.755 249.188C272.734 249.208 272.707 249.229 272.686 249.25C272.665 249.271 272.637 249.292 272.616 249.313C272.595 249.334 272.568 249.354 272.547 249.375C272.526 249.396 272.498 249.417 272.477 249.438C272.456 249.459 272.428 249.48 272.408 249.5C272.387 249.521 272.359 249.542 272.338 249.563C272.317 249.584 272.289 249.605 272.269 249.626C272.248 249.646 272.22 249.667 272.199 249.688C272.178 249.709 272.15 249.73 272.13 249.751C272.109 249.772 272.081 249.792 272.06 249.813C272.039 249.834 272.011 249.855 271.991 249.876C271.97 249.897 271.942 249.918 271.921 249.938C271.9 249.959 271.872 249.98 271.852 250.001C271.831 250.022 271.803 250.043 271.782 250.064C271.761 250.084 271.733 250.105 271.712 250.126C271.692 250.147 271.664 250.168 271.643 250.189C271.622 250.21 271.594 250.23 271.573 250.251C271.553 250.272 271.525 250.293 271.504 250.314C271.483 250.335 271.455 250.355 271.434 250.376C271.414 250.397 271.386 250.418 271.365 250.439C271.344 250.46 271.316 250.481 271.295 250.501C271.275 250.522 271.247 250.543 271.226 250.564C271.205 250.585 271.177 250.606 271.156 250.627C271.135 250.647 271.108 250.668 271.087 250.689C271.066 250.71 271.038 250.731 271.017 250.752C270.996 250.773 270.969 250.793 270.948 250.814C270.927 250.835 270.899 250.856 270.878 250.877C270.857 250.898 270.83 250.919 270.809 250.939C270.079 251.642 269.627 252.629 269.627 253.72V271.961C269.627 274.103 271.365 275.84 273.506 275.84H330.114C331.115 275.84 332.012 275.43 332.665 274.77C332.686 274.749 332.714 274.728 332.735 274.707C332.756 274.687 332.783 274.666 332.804 274.645C332.825 274.624 332.853 274.603 332.874 274.582C332.895 274.561 332.922 274.541 332.943 274.52C332.964 274.499 332.992 274.478 333.013 274.457C333.034 274.436 333.061 274.415 333.082 274.395C333.103 274.374 333.131 274.353 333.152 274.332C333.173 274.311 333.2 274.29 333.221 274.269C333.242 274.249 333.27 274.228 333.291 274.207C333.312 274.186 333.339 274.165 333.36 274.144C333.381 274.123 333.409 274.103 333.43 274.082C333.451 274.061 333.479 274.04 333.499 274.019C333.52 273.998 333.548 273.977 333.569 273.957C333.59 273.936 333.618 273.915 333.638 273.894C333.659 273.873 333.687 273.852 333.708 273.831C333.729 273.811 333.757 273.79 333.777 273.769C333.798 273.748 333.826 273.727 333.847 273.706C333.868 273.685 333.896 273.665 333.916 273.644C333.937 273.623 333.965 273.602 333.986 273.581C334.007 273.56 334.035 273.539 334.056 273.519C334.076 273.498 334.104 273.477 334.125 273.456C334.146 273.435 334.174 273.414 334.195 273.393C334.215 273.373 334.243 273.352 334.264 273.331C334.285 273.31 334.313 273.289 334.334 273.268C334.354 273.247 334.382 273.227 334.403 273.206C334.424 273.185 334.452 273.164 334.473 273.143C334.493 273.122 334.521 273.102 334.542 273.081C334.563 273.06 334.591 273.039 334.612 273.018C334.633 272.997 334.66 272.976 334.681 272.956C334.702 272.935 334.73 272.914 334.751 272.893C334.772 272.872 334.799 272.851 334.82 272.83C334.841 272.81 334.869 272.789 334.89 272.768C334.911 272.747 334.938 272.726 334.959 272.705C334.98 272.684 335.008 272.664 335.029 272.643C335.05 272.622 335.077 272.601 335.098 272.58C335.119 272.559 335.147 272.538 335.168 272.518C335.189 272.497 335.216 272.476 335.237 272.455C335.258 272.434 335.286 272.413 335.307 272.392C335.328 272.372 335.355 272.351 335.376 272.33C335.397 272.309 335.425 272.288 335.446 272.267C335.467 272.246 335.495 272.226 335.515 272.205C335.536 272.184 335.564 272.163 335.585 272.142C335.606 272.121 335.634 272.1 335.654 272.08C335.675 272.059 335.703 272.038 335.724 272.017C335.745 271.996 335.773 271.975 335.793 271.954C335.814 271.934 335.842 271.913 335.863 271.892C335.884 271.871 335.912 271.85 335.932 271.829C335.953 271.808 335.981 271.788 336.002 271.767C336.023 271.746 336.051 271.725 336.071 271.704C336.092 271.683 336.12 271.663 336.141 271.642C336.162 271.621 336.19 271.6 336.211 271.579C336.231 271.558 336.259 271.537 336.28 271.517C336.301 271.496 336.329 271.475 336.35 271.454C336.37 271.433 336.398 271.412 336.419 271.391C336.44 271.371 336.468 271.35 336.489 271.329C336.509 271.308 336.537 271.287 336.558 271.266C336.579 271.245 336.607 271.225 336.628 271.204C336.648 271.183 336.676 271.162 336.697 271.141C336.718 271.12 336.746 271.099 336.767 271.079C336.788 271.058 336.815 271.037 336.836 271.016C336.857 270.995 336.885 270.974 336.906 270.953C336.927 270.933 336.954 270.912 336.975 270.891C336.996 270.87 337.024 270.849 337.045 270.828C337.066 270.807 337.093 270.787 337.114 270.766C337.135 270.745 337.163 270.724 337.184 270.703C337.205 270.682 337.232 270.661 337.253 270.641C337.274 270.62 337.302 270.599 337.323 270.578C337.344 270.557 337.371 270.536 337.392 270.515C337.413 270.495 337.441 270.474 337.462 270.453C337.483 270.432 337.511 270.411 337.531 270.39C337.552 270.369 337.58 270.349 337.601 270.328C337.622 270.307 337.65 270.286 337.67 270.265C337.691 270.244 337.719 270.223 337.74 270.203C337.761 270.182 337.789 270.161 337.809 270.14C337.83 270.119 337.858 270.098 337.879 270.078C337.9 270.057 337.928 270.036 337.948 270.015C337.969 269.994 337.997 269.973 338.018 269.952C338.039 269.932 338.067 269.911 338.088 269.89C338.108 269.869 338.136 269.848 338.157 269.827C338.178 269.806 338.206 269.786 338.227 269.765C338.247 269.744 338.275 269.723 338.296 269.702C338.317 269.681 338.345 269.66 338.366 269.64C338.386 269.619 338.414 269.598 338.435 269.577C338.456 269.556 338.484 269.535 338.505 269.514C338.525 269.494 338.553 269.473 338.574 269.452C338.595 269.431 338.623 269.41 338.644 269.389C338.664 269.368 338.692 269.348 338.713 269.327C338.734 269.306 338.762 269.285 338.783 269.264C338.804 269.243 338.831 269.222 338.852 269.202C338.873 269.181 338.901 269.16 338.922 269.139C338.943 269.118 338.97 269.097 338.991 269.076C339.012 269.056 339.04 269.035 339.061 269.014C339.082 268.993 339.109 268.972 339.13 268.951C339.151 268.93 339.179 268.91 339.2 268.889C339.221 268.868 339.248 268.847 339.269 268.826C339.29 268.805 339.318 268.784 339.339 268.764C339.36 268.743 339.387 268.722 339.408 268.701C339.429 268.68 339.457 268.659 339.478 268.639C339.499 268.618 339.527 268.597 339.547 268.576C339.568 268.555 339.596 268.534 339.617 268.513C339.638 268.493 339.666 268.472 339.686 268.451C339.707 268.43 339.735 268.409 339.756 268.388C339.777 268.367 339.805 268.347 339.825 268.326C339.846 268.305 339.874 268.284 339.895 268.263C339.916 268.242 339.944 268.221 339.964 268.201C339.985 268.18 340.013 268.159 340.034 268.138C340.055 268.117 340.083 268.096 340.104 268.075C340.124 268.055 340.152 268.034 340.173 268.013C340.194 267.992 340.222 267.971 340.243 267.95C340.263 267.929 340.291 267.909 340.312 267.888C340.333 267.867 340.361 267.846 340.382 267.825C340.402 267.804 340.43 267.783 340.451 267.763C340.472 267.742 340.5 267.721 340.521 267.7C340.541 267.679 340.569 267.658 340.59 267.637C340.611 267.617 340.639 267.596 340.66 267.575C340.68 267.554 340.708 267.533 340.729 267.512C340.75 267.491 340.778 267.471 340.799 267.45C340.82 267.429 340.847 267.408 340.868 267.387C340.889 267.366 340.917 267.345 340.938 267.325C340.959 267.304 340.986 267.283 341.007 267.262C341.682 266.609 342.106 265.705 342.106 264.69V246.143C342.106 244.002 340.368 242.264 338.227 242.264L338.22 242.271Z" fill="#0F2A54"/>
<path d="M330.239 268.277H281.91C279.769 268.277 278.031 266.539 278.031 264.398V246.157C278.031 244.016 279.769 242.278 281.91 242.278H338.212C340.353 242.278 342.091 244.016 342.091 246.157V264.704C342.091 266.678 340.492 268.284 338.511 268.284H330.232L330.239 268.277Z" fill="white"/>
<path d="M338.518 268.472H281.911C279.665 268.472 277.837 266.643 277.837 264.398V246.157C277.837 243.911 279.665 242.083 281.911 242.083H338.213C340.458 242.083 342.286 243.911 342.286 246.157V264.704C342.286 266.782 340.597 268.479 338.518 268.479V268.472ZM281.911 242.465C279.881 242.465 278.226 244.12 278.226 246.15V264.391C278.226 266.421 279.881 268.075 281.911 268.075H338.518C340.382 268.075 341.904 266.56 341.904 264.69V246.143C341.904 244.113 340.249 242.458 338.22 242.458H281.918L281.911 242.465Z" fill="#0F2A54"/>
<path d="M291.546 255.437C291.546 258.106 293.708 260.275 296.384 260.275C299.061 260.275 301.223 258.113 301.223 255.437C301.223 252.761 299.061 250.599 296.384 250.599C293.708 250.599 291.546 252.761 291.546 255.437Z" fill="#FF5D78"/>
<path d="M305.679 255.437C305.679 258.106 307.841 260.275 310.517 260.275C313.194 260.275 315.356 258.113 315.356 255.437C315.356 252.761 313.194 250.599 310.517 250.599C307.841 250.599 305.679 252.761 305.679 255.437Z" fill="#FF5D78"/>
<path d="M319.818 255.437C319.818 258.106 321.98 260.275 324.657 260.275C327.333 260.275 329.495 258.113 329.495 255.437C329.495 252.761 327.333 250.599 324.657 250.599C321.98 250.599 319.818 252.761 319.818 255.437Z" fill="#FF5D78"/>
<path d="M492.52 196.479C492.52 196.479 492.478 196.431 492.457 196.403C492.436 196.375 492.416 196.354 492.395 196.326C492.374 196.299 492.353 196.278 492.332 196.25C492.311 196.222 492.29 196.201 492.27 196.173C492.249 196.146 492.228 196.118 492.207 196.097C492.186 196.069 492.165 196.048 492.144 196.02C492.124 195.993 492.103 195.972 492.082 195.944C492.061 195.916 492.04 195.888 492.019 195.868C491.998 195.84 491.978 195.819 491.957 195.791C491.936 195.763 491.915 195.735 491.894 195.715C491.873 195.687 491.852 195.666 491.832 195.638C491.811 195.61 491.79 195.589 491.769 195.562C491.748 195.534 491.727 195.513 491.706 195.485C491.686 195.457 491.665 195.437 491.644 195.409C491.623 195.381 491.602 195.36 491.581 195.332C491.56 195.304 491.54 195.284 491.519 195.256C491.498 195.228 491.477 195.207 491.456 195.179C491.435 195.152 491.414 195.131 491.394 195.103C491.373 195.075 491.352 195.047 491.331 195.026C491.31 194.999 491.289 194.978 491.269 194.95C491.248 194.922 491.227 194.901 491.206 194.873C491.185 194.846 491.164 194.818 491.143 194.797C491.123 194.769 491.102 194.748 491.081 194.721C491.06 194.693 491.039 194.672 491.018 194.644C490.997 194.616 490.977 194.588 490.956 194.568C490.935 194.54 490.914 194.519 490.893 194.491C490.872 194.463 490.851 194.435 490.831 194.415C490.81 194.387 490.789 194.366 490.768 194.338C490.747 194.31 490.726 194.29 490.705 194.262C490.685 194.234 490.664 194.213 490.643 194.185C490.622 194.157 490.601 194.137 490.58 194.109C490.559 194.081 490.539 194.06 490.518 194.032C490.497 194.004 490.476 193.984 490.455 193.956C490.434 193.928 490.413 193.9 490.393 193.879C490.372 193.852 490.351 193.831 490.33 193.803C490.309 193.775 490.288 193.754 490.267 193.726C490.247 193.699 490.226 193.671 490.205 193.65C490.184 193.622 490.163 193.601 490.142 193.573C490.121 193.546 490.101 193.525 490.08 193.497C490.059 193.469 490.038 193.448 490.017 193.421C489.996 193.393 489.975 193.372 489.955 193.344C489.934 193.316 489.913 193.295 489.892 193.268C489.871 193.24 489.85 193.219 489.829 193.191C489.809 193.163 489.788 193.142 489.767 193.115C489.746 193.087 489.725 193.066 489.704 193.038C489.684 193.01 489.663 192.99 489.642 192.962C489.621 192.934 489.6 192.913 489.579 192.885C489.558 192.857 489.538 192.837 489.517 192.809C489.496 192.781 489.475 192.753 489.454 192.732C489.433 192.705 489.412 192.684 489.392 192.656C489.371 192.628 489.35 192.6 489.329 192.579C489.308 192.552 489.287 192.531 489.266 192.503C489.246 192.475 489.225 192.454 489.204 192.426C489.183 192.399 489.162 192.378 489.141 192.35C489.12 192.322 489.1 192.301 489.079 192.273C489.058 192.246 489.037 192.225 489.016 192.197C488.995 192.169 488.974 192.148 488.954 192.121C488.933 192.093 488.912 192.072 488.891 192.044C488.87 192.016 488.849 191.995 488.828 191.968C488.808 191.94 488.787 191.919 488.766 191.891C488.745 191.863 488.724 191.836 488.703 191.815C488.682 191.787 488.662 191.766 488.641 191.738C488.62 191.71 488.599 191.69 488.578 191.662C488.557 191.634 488.536 191.606 488.516 191.585C488.495 191.557 488.474 191.537 488.453 191.509C488.432 191.481 488.411 191.453 488.39 191.432C488.37 191.405 488.349 191.384 488.328 191.356C488.307 191.328 488.286 191.307 488.265 191.279C488.245 191.252 488.224 191.231 488.203 191.203C488.182 191.175 488.161 191.154 488.14 191.126C488.119 191.099 488.099 191.078 488.078 191.05C488.057 191.022 488.036 191.001 488.015 190.974C487.994 190.946 487.973 190.918 487.953 190.897C487.932 190.869 487.911 190.848 487.89 190.821C487.869 190.793 487.848 190.772 487.827 190.744C487.807 190.716 487.786 190.689 487.765 190.668C487.744 190.64 487.723 190.619 487.702 190.591C487.681 190.563 487.661 190.536 487.64 190.515C487.619 190.487 487.598 190.466 487.577 190.438C487.556 190.41 487.535 190.39 487.515 190.362C487.494 190.334 487.473 190.306 487.452 190.285C487.431 190.258 487.41 190.237 487.389 190.209C487.369 190.181 487.348 190.16 487.327 190.132C487.306 190.105 487.285 190.084 487.264 190.056C487.243 190.028 487.223 190 487.202 189.979C487.181 189.952 487.16 189.931 487.139 189.903C487.118 189.875 487.097 189.854 487.077 189.826C487.056 189.799 487.035 189.778 487.014 189.75C486.993 189.722 486.972 189.701 486.951 189.674C486.931 189.646 486.91 189.618 486.889 189.597C486.868 189.569 486.847 189.548 486.826 189.521C486.805 189.493 486.785 189.472 486.764 189.444C486.743 189.416 486.722 189.389 486.701 189.368C486.68 189.34 486.66 189.319 486.639 189.291C486.618 189.263 486.597 189.243 486.576 189.215C486.555 189.187 486.534 189.166 486.514 189.138C486.493 189.11 486.472 189.09 486.451 189.062C486.43 189.034 486.409 189.013 486.388 188.985C486.368 188.958 486.347 188.937 486.326 188.909C486.305 188.881 486.284 188.86 486.263 188.832C486.242 188.805 486.222 188.784 486.201 188.756C486.18 188.728 486.159 188.707 486.138 188.679C486.117 188.652 486.096 188.631 486.076 188.603C486.055 188.575 486.034 188.554 486.013 188.527C485.992 188.499 485.971 188.471 485.95 188.45C485.93 188.422 485.909 188.401 485.888 188.374C485.867 188.346 485.846 188.318 485.825 188.297C485.804 188.269 485.784 188.248 485.763 188.221C485.742 188.193 485.721 188.172 485.7 188.144C485.679 188.116 485.658 188.096 485.638 188.068C485.617 188.04 485.596 188.019 485.575 187.991C485.554 187.963 485.533 187.943 485.512 187.915C485.492 187.887 485.471 187.866 485.45 187.838C485.429 187.811 485.408 187.783 485.387 187.762C485.366 187.734 485.346 187.713 485.325 187.685C485.304 187.658 485.283 187.637 485.262 187.609C485.241 187.581 485.22 187.553 485.2 187.532C485.179 187.505 485.158 187.484 485.137 187.456C485.116 187.428 485.095 187.407 485.075 187.379C485.054 187.352 485.033 187.324 485.012 187.303C483.837 185.843 482.037 184.912 480.014 184.912H366.409C362.863 184.912 359.992 187.783 359.992 191.328V229.813C359.992 231.37 360.548 232.802 361.473 233.907C361.494 233.935 361.515 233.956 361.535 233.984C361.556 234.012 361.577 234.032 361.598 234.06C361.619 234.088 361.64 234.109 361.661 234.137C361.681 234.165 361.702 234.185 361.723 234.213C361.744 234.241 361.765 234.262 361.786 234.29C361.807 234.318 361.827 234.345 361.848 234.366C361.869 234.394 361.89 234.415 361.911 234.443C361.932 234.47 361.953 234.491 361.973 234.519C361.994 234.547 362.015 234.575 362.036 234.596C362.057 234.623 362.078 234.644 362.099 234.672C362.119 234.7 362.14 234.721 362.161 234.749C362.182 234.776 362.203 234.797 362.224 234.825C362.245 234.853 362.265 234.874 362.286 234.901C362.307 234.929 362.328 234.95 362.349 234.978C362.37 235.006 362.391 235.027 362.411 235.054C362.432 235.082 362.453 235.103 362.474 235.131C362.495 235.159 362.516 235.18 362.537 235.207C362.557 235.235 362.578 235.263 362.599 235.284C362.62 235.312 362.641 235.332 362.662 235.36C362.683 235.388 362.703 235.409 362.724 235.437C362.745 235.465 362.766 235.492 362.787 235.513C362.808 235.541 362.828 235.562 362.849 235.59C362.87 235.617 362.891 235.638 362.912 235.666C362.933 235.694 362.954 235.715 362.974 235.743C362.995 235.77 363.016 235.791 363.037 235.819C363.058 235.847 363.079 235.875 363.1 235.896C363.12 235.923 363.141 235.944 363.162 235.972C363.183 236 363.204 236.021 363.225 236.048C363.246 236.076 363.266 236.097 363.287 236.125C363.308 236.153 363.329 236.181 363.35 236.201C363.371 236.229 363.392 236.25 363.412 236.278C363.433 236.306 363.454 236.327 363.475 236.354C363.496 236.382 363.517 236.41 363.538 236.431C363.558 236.459 363.579 236.479 363.6 236.507C363.621 236.535 363.642 236.563 363.663 236.584C363.684 236.612 363.704 236.632 363.725 236.66C363.746 236.688 363.767 236.709 363.788 236.737C363.809 236.765 363.83 236.792 363.85 236.813C363.871 236.841 363.892 236.862 363.913 236.89C363.934 236.917 363.955 236.938 363.976 236.966C363.996 236.994 364.017 237.015 364.038 237.043C364.059 237.07 364.08 237.091 364.101 237.119C364.122 237.147 364.142 237.168 364.163 237.196C364.184 237.223 364.205 237.244 364.226 237.272C364.247 237.3 364.267 237.321 364.288 237.348C364.309 237.376 364.33 237.397 364.351 237.425C364.372 237.453 364.393 237.474 364.413 237.501C364.434 237.529 364.455 237.55 364.476 237.578C364.497 237.606 364.518 237.627 364.539 237.654C364.559 237.682 364.58 237.71 364.601 237.731C364.622 237.759 364.643 237.779 364.664 237.807C364.685 237.835 364.705 237.863 364.726 237.884C364.747 237.912 364.768 237.932 364.789 237.96C364.81 237.988 364.831 238.009 364.851 238.037C364.872 238.064 364.893 238.092 364.914 238.113C364.935 238.141 364.956 238.162 364.977 238.19C364.997 238.217 365.018 238.238 365.039 238.266C365.06 238.294 365.081 238.315 365.102 238.343C365.123 238.37 365.143 238.391 365.164 238.419C365.185 238.447 365.206 238.468 365.227 238.496C365.248 238.523 365.269 238.544 365.289 238.572C365.31 238.6 365.331 238.628 365.352 238.648C365.373 238.676 365.394 238.697 365.415 238.725C365.435 238.753 365.456 238.774 365.477 238.801C365.498 238.829 365.519 238.857 365.54 238.878C365.561 238.906 365.581 238.927 365.602 238.954C365.623 238.982 365.644 239.003 365.665 239.031C365.686 239.059 365.707 239.079 365.727 239.107C365.748 239.135 365.769 239.156 365.79 239.184C365.811 239.212 365.832 239.232 365.852 239.26C365.873 239.288 365.894 239.309 365.915 239.337C365.936 239.364 365.957 239.385 365.978 239.413C365.998 239.441 366.019 239.462 366.04 239.49C366.061 239.517 366.082 239.545 366.103 239.566C366.124 239.594 366.144 239.615 366.165 239.643C366.186 239.67 366.207 239.691 366.228 239.719C366.249 239.747 366.27 239.775 366.29 239.795C366.311 239.823 366.332 239.844 366.353 239.872C366.374 239.9 366.395 239.921 366.416 239.948C366.436 239.976 366.457 239.997 366.478 240.025C366.499 240.053 366.52 240.074 366.541 240.101C366.562 240.129 366.582 240.157 366.603 240.178C366.624 240.206 366.645 240.226 366.666 240.254C366.687 240.282 366.708 240.303 366.728 240.331C366.749 240.359 366.77 240.379 366.791 240.407C366.812 240.435 366.833 240.463 366.854 240.484C366.874 240.511 366.895 240.532 366.916 240.56C366.937 240.588 366.958 240.609 366.979 240.637C367 240.664 367.02 240.692 367.041 240.713C367.062 240.741 367.083 240.762 367.104 240.79C367.125 240.817 367.146 240.845 367.166 240.866C367.187 240.894 367.208 240.915 367.229 240.943C367.25 240.97 367.271 240.991 367.291 241.019C367.312 241.047 367.333 241.075 367.354 241.095C367.375 241.123 367.396 241.144 367.417 241.172C367.437 241.2 367.458 241.221 367.479 241.248C367.5 241.276 367.521 241.297 367.542 241.325C367.563 241.353 367.583 241.374 367.604 241.401C367.625 241.429 367.646 241.45 367.667 241.478C367.688 241.506 367.709 241.526 367.729 241.554C367.75 241.582 367.771 241.61 367.792 241.631C367.813 241.659 367.834 241.679 367.855 241.707C367.875 241.735 367.896 241.756 367.917 241.784C367.938 241.811 367.959 241.839 367.98 241.86C368.001 241.888 368.021 241.909 368.042 241.937C368.063 241.964 368.084 241.985 368.105 242.013C368.126 242.041 368.147 242.062 368.167 242.09C368.188 242.117 368.209 242.138 368.23 242.166C368.251 242.194 368.272 242.215 368.293 242.242C368.313 242.27 368.334 242.291 368.355 242.319C368.376 242.347 368.397 242.368 368.418 242.395C368.439 242.423 368.459 242.444 368.48 242.472C368.501 242.5 368.522 242.521 368.543 242.548C368.564 242.576 368.585 242.597 368.605 242.625C368.626 242.653 368.647 242.673 368.668 242.701C368.689 242.729 368.71 242.75 368.731 242.778C368.751 242.806 368.772 242.826 368.793 242.854C368.814 242.882 368.835 242.91 368.856 242.931C368.876 242.959 368.897 242.979 368.918 243.007C368.939 243.035 368.96 243.056 368.981 243.084C370.156 244.544 371.956 245.482 373.979 245.482H470.601C470.817 245.482 471.039 245.482 471.254 245.503C473.507 245.635 475.648 246.539 477.435 247.922L488.46 256.473C490.928 257.884 493.994 256.104 493.994 253.261V200.581C493.994 199.024 493.437 197.592 492.513 196.486L492.52 196.479Z" fill="#5C6470"/>
<path d="M480.292 184.842H366.687C363.142 184.842 360.271 187.713 360.271 191.259V229.743C360.271 233.289 363.142 236.16 366.687 236.16H463.309C463.524 236.16 463.747 236.16 463.962 236.181C466.215 236.313 468.356 237.217 470.142 238.6L481.168 247.151C483.636 248.562 486.701 246.782 486.701 243.939V191.259C486.701 187.713 483.83 184.842 480.285 184.842H480.292Z" fill="white" stroke="#5C6470" stroke-miterlimit="10"/>
<path d="M468.196 202.917H379.721C378.518 202.917 377.538 201.937 377.538 200.734C377.538 199.531 378.518 198.551 379.721 198.551H468.196C469.398 198.551 470.378 199.531 470.378 200.734C470.378 201.937 469.398 202.917 468.196 202.917Z" fill="#FF5D78"/>
<path d="M468.196 212.955H379.721C378.518 212.955 377.538 211.975 377.538 210.772C377.538 209.57 378.518 208.589 379.721 208.589H468.196C469.398 208.589 470.378 209.57 470.378 210.772C470.378 211.975 469.398 212.955 468.196 212.955Z" fill="#FF5D78"/>
<path d="M468.196 222.986H434.056C432.853 222.986 431.873 222.006 431.873 220.803C431.873 219.601 432.853 218.621 434.056 218.621H468.196C469.398 218.621 470.379 219.601 470.379 220.803C470.379 222.006 469.398 222.986 468.196 222.986Z" fill="#FF5D78"/>
<path d="M472.075 118.738C472.075 118.738 472.033 118.69 472.013 118.662C471.992 118.634 471.971 118.613 471.95 118.585C471.929 118.557 471.908 118.537 471.887 118.509C471.867 118.481 471.846 118.46 471.825 118.432C471.804 118.404 471.783 118.384 471.762 118.356C471.741 118.328 471.721 118.307 471.7 118.279C471.679 118.252 471.658 118.231 471.637 118.203C471.616 118.175 471.595 118.154 471.575 118.126C471.554 118.099 471.533 118.078 471.512 118.05C471.491 118.022 471.47 118.001 471.449 117.973C471.429 117.946 471.408 117.925 471.387 117.897C471.366 117.869 471.345 117.848 471.324 117.821C471.303 117.793 471.283 117.772 471.262 117.744C471.241 117.716 471.22 117.695 471.199 117.668C471.178 117.64 471.157 117.619 471.137 117.591C471.116 117.563 471.095 117.542 471.074 117.515C471.053 117.487 471.032 117.466 471.011 117.438C470.991 117.41 470.97 117.39 470.949 117.362C470.928 117.334 470.907 117.313 470.886 117.285C470.866 117.257 470.845 117.237 470.824 117.209C470.803 117.181 470.782 117.16 470.761 117.132C470.74 117.105 470.719 117.084 470.699 117.056C470.678 117.028 470.657 117.007 470.636 116.979C470.615 116.952 470.594 116.931 470.574 116.903C470.553 116.875 470.532 116.854 470.511 116.826C470.49 116.799 470.469 116.778 470.448 116.75C470.428 116.722 470.407 116.701 470.386 116.674C470.365 116.646 470.344 116.625 470.323 116.597C470.302 116.569 470.282 116.548 470.261 116.521C470.24 116.493 470.219 116.472 470.198 116.444C470.177 116.416 470.156 116.395 470.136 116.368C470.115 116.34 470.094 116.319 470.073 116.291C470.052 116.263 470.031 116.242 470.01 116.215C469.99 116.187 469.969 116.166 469.948 116.138C469.927 116.11 469.906 116.09 469.885 116.062C469.864 116.034 469.844 116.013 469.823 115.985C469.802 115.957 469.781 115.937 469.76 115.909C469.739 115.881 469.718 115.86 469.698 115.832C469.677 115.805 469.656 115.784 469.635 115.756C469.614 115.728 469.593 115.707 469.572 115.679C469.552 115.652 469.531 115.631 469.51 115.603C469.489 115.575 469.468 115.554 469.447 115.526C469.426 115.499 469.406 115.478 469.385 115.45C469.364 115.422 469.343 115.401 469.322 115.374C469.301 115.346 469.28 115.325 469.26 115.297C469.239 115.269 469.218 115.248 469.197 115.221C469.176 115.193 469.155 115.172 469.135 115.144C469.114 115.116 469.093 115.095 469.072 115.068C469.051 115.04 469.03 115.019 469.009 114.991C468.989 114.963 468.968 114.943 468.947 114.915C468.926 114.887 468.905 114.866 468.884 114.838C468.863 114.81 468.843 114.79 468.822 114.762C468.801 114.734 468.78 114.713 468.759 114.685C468.738 114.658 468.717 114.637 468.697 114.609C468.676 114.581 468.655 114.56 468.634 114.532C468.613 114.505 468.592 114.484 468.571 114.456C468.551 114.428 468.53 114.407 468.509 114.379C468.488 114.352 468.467 114.331 468.446 114.303C468.425 114.275 468.405 114.254 468.384 114.226C468.363 114.199 468.342 114.178 468.321 114.15C468.3 114.122 468.279 114.101 468.259 114.074C468.238 114.046 468.217 114.025 468.196 113.997C468.175 113.969 468.154 113.948 468.133 113.921C468.113 113.893 468.092 113.872 468.071 113.844C468.05 113.816 468.029 113.795 468.008 113.768C467.987 113.74 467.967 113.719 467.946 113.691C467.925 113.663 467.904 113.643 467.883 113.615C467.862 113.587 467.841 113.566 467.821 113.538C467.8 113.51 467.779 113.49 467.758 113.462C467.737 113.434 467.716 113.413 467.695 113.385C467.675 113.358 467.654 113.337 467.633 113.309C467.612 113.281 467.591 113.26 467.57 113.232C467.55 113.205 467.529 113.184 467.508 113.156C467.487 113.128 467.466 113.107 467.445 113.079C467.424 113.052 467.404 113.031 467.383 113.003C467.362 112.975 467.341 112.954 467.32 112.927C467.299 112.899 467.278 112.878 467.258 112.85C467.237 112.822 467.216 112.801 467.195 112.774C467.174 112.746 467.153 112.725 467.132 112.697C467.112 112.669 467.091 112.648 467.07 112.621C467.049 112.593 467.028 112.572 467.007 112.544C466.986 112.516 466.966 112.496 466.945 112.468C466.924 112.44 466.903 112.419 466.882 112.391C466.861 112.363 466.84 112.343 466.82 112.315C466.799 112.287 466.778 112.266 466.757 112.238C466.736 112.21 466.715 112.19 466.694 112.162C466.674 112.134 466.653 112.113 466.632 112.085C466.611 112.058 466.59 112.037 466.569 112.009C466.548 111.981 466.528 111.96 466.507 111.932C466.486 111.905 466.465 111.884 466.444 111.856C466.423 111.828 466.402 111.807 466.382 111.779C466.361 111.752 466.34 111.731 466.319 111.703C466.298 111.675 466.277 111.654 466.256 111.627C466.236 111.599 466.215 111.578 466.194 111.55C466.173 111.522 466.152 111.501 466.131 111.474C466.111 111.446 466.09 111.425 466.069 111.397C466.048 111.369 466.027 111.348 466.006 111.321C465.985 111.293 465.965 111.272 465.944 111.244C465.923 111.216 465.902 111.196 465.881 111.168C465.86 111.14 465.839 111.119 465.819 111.091C465.798 111.063 465.777 111.043 465.756 111.015C465.735 110.987 465.714 110.966 465.693 110.938C465.673 110.911 465.652 110.89 465.631 110.862C465.61 110.834 465.589 110.813 465.568 110.785C465.547 110.758 465.527 110.737 465.506 110.709C465.485 110.681 465.464 110.66 465.443 110.632C465.422 110.605 465.401 110.584 465.381 110.556C465.36 110.528 465.339 110.507 465.318 110.48C465.297 110.452 465.276 110.431 465.255 110.403C465.235 110.375 465.214 110.354 465.193 110.327C465.172 110.299 465.151 110.278 465.13 110.25C465.109 110.222 465.089 110.201 465.068 110.174C465.047 110.146 465.026 110.125 465.005 110.097C464.984 110.069 464.964 110.049 464.943 110.021C464.922 109.993 464.901 109.972 464.88 109.944C464.859 109.916 464.838 109.896 464.817 109.868C464.797 109.84 464.776 109.819 464.755 109.791C464.734 109.763 464.713 109.743 464.692 109.715C464.671 109.687 464.651 109.666 464.63 109.638C464.609 109.611 464.588 109.59 464.567 109.562C463.365 108.081 461.536 107.136 459.486 107.136H343.649C340.034 107.136 337.107 110.062 337.107 113.677V167.4C337.107 168.325 337.427 169.138 337.949 169.778C337.969 169.806 337.99 169.826 338.011 169.854C338.032 169.882 338.053 169.903 338.074 169.931C338.095 169.958 338.115 169.979 338.136 170.007C338.157 170.035 338.178 170.056 338.199 170.084C338.22 170.111 338.241 170.132 338.261 170.16C338.282 170.188 338.303 170.209 338.324 170.237C338.345 170.264 338.366 170.285 338.387 170.313C338.407 170.341 338.428 170.362 338.449 170.389C338.47 170.417 338.491 170.438 338.512 170.466C338.533 170.494 338.553 170.515 338.574 170.542C338.595 170.57 338.616 170.591 338.637 170.619C338.658 170.647 338.678 170.668 338.699 170.695C338.72 170.723 338.741 170.744 338.762 170.772C338.783 170.8 338.804 170.82 338.824 170.848C338.845 170.876 338.866 170.897 338.887 170.925C338.908 170.953 338.929 170.973 338.95 171.001C338.97 171.029 338.991 171.05 339.012 171.078C339.033 171.105 339.054 171.126 339.075 171.154C339.096 171.182 339.116 171.203 339.137 171.231C339.158 171.258 339.179 171.279 339.2 171.307C339.221 171.335 339.242 171.356 339.262 171.384C339.283 171.411 339.304 171.432 339.325 171.46C339.346 171.488 339.367 171.509 339.388 171.536C339.408 171.564 339.429 171.585 339.45 171.613C339.471 171.641 339.492 171.662 339.513 171.689C339.534 171.717 339.554 171.738 339.575 171.766C339.596 171.794 339.617 171.815 339.638 171.842C339.659 171.87 339.68 171.891 339.7 171.919C339.721 171.947 339.742 171.967 339.763 171.995C339.784 172.023 339.805 172.044 339.826 172.072C339.846 172.1 339.867 172.12 339.888 172.148C339.909 172.176 339.93 172.197 339.951 172.225C339.972 172.253 339.992 172.273 340.013 172.301C340.034 172.329 340.055 172.35 340.076 172.378C340.097 172.405 340.118 172.426 340.138 172.454C340.159 172.482 340.18 172.503 340.201 172.531C340.222 172.558 340.243 172.579 340.263 172.607C340.284 172.635 340.305 172.656 340.326 172.684C340.347 172.711 340.368 172.732 340.389 172.76C340.409 172.788 340.43 172.809 340.451 172.836C340.472 172.864 340.493 172.885 340.514 172.913C340.535 172.941 340.555 172.962 340.576 172.989C340.597 173.017 340.618 173.038 340.639 173.066C340.66 173.094 340.681 173.115 340.701 173.142C340.722 173.17 340.743 173.191 340.764 173.219C340.785 173.247 340.806 173.267 340.827 173.295C340.847 173.323 340.868 173.344 340.889 173.372C340.91 173.4 340.931 173.42 340.952 173.448C340.973 173.476 340.993 173.497 341.014 173.525C341.035 173.552 341.056 173.573 341.077 173.601C341.098 173.629 341.119 173.65 341.139 173.678C341.16 173.705 341.181 173.726 341.202 173.754C341.223 173.782 341.244 173.803 341.265 173.831C341.285 173.858 341.306 173.879 341.327 173.907C341.348 173.935 341.369 173.956 341.39 173.983C341.411 174.011 341.431 174.032 341.452 174.06C341.473 174.088 341.494 174.109 341.515 174.136C341.536 174.164 341.557 174.185 341.577 174.213C341.598 174.241 341.619 174.262 341.64 174.289C341.661 174.317 341.682 174.338 341.702 174.366C341.723 174.394 341.744 174.414 341.765 174.442C341.786 174.47 341.807 174.491 341.828 174.519C341.848 174.547 341.869 174.567 341.89 174.595C341.911 174.623 341.932 174.644 341.953 174.672C341.974 174.7 341.994 174.72 342.015 174.748C342.036 174.776 342.057 174.797 342.078 174.825C342.099 174.852 342.12 174.873 342.14 174.901C342.161 174.929 342.182 174.95 342.203 174.978C342.224 175.005 342.245 175.026 342.266 175.054C342.286 175.082 342.307 175.103 342.328 175.131C342.349 175.158 342.37 175.179 342.391 175.207C342.412 175.235 342.432 175.256 342.453 175.283C342.474 175.311 342.495 175.332 342.516 175.36C342.537 175.388 342.558 175.409 342.578 175.436C342.599 175.464 342.62 175.485 342.641 175.513C342.662 175.541 342.683 175.562 342.704 175.589C342.724 175.617 342.745 175.638 342.766 175.666C342.787 175.694 342.808 175.714 342.829 175.742C342.85 175.77 342.87 175.791 342.891 175.819C342.912 175.847 342.933 175.867 342.954 175.895C342.975 175.923 342.996 175.944 343.016 175.972C343.037 175.999 343.058 176.02 343.079 176.048C343.1 176.076 343.121 176.097 343.142 176.125C343.162 176.152 343.183 176.173 343.204 176.201C343.225 176.229 343.246 176.25 343.267 176.278C343.287 176.305 343.308 176.326 343.329 176.354C343.35 176.382 343.371 176.403 343.392 176.43C343.413 176.458 343.433 176.479 343.454 176.507C343.475 176.535 343.496 176.556 343.517 176.583C343.538 176.611 343.559 176.632 343.579 176.66C343.6 176.688 343.621 176.709 343.642 176.736C343.663 176.764 343.684 176.785 343.705 176.813C343.725 176.841 343.746 176.862 343.767 176.889C343.788 176.917 343.809 176.938 343.83 176.966C343.851 176.994 343.871 177.014 343.892 177.042C343.913 177.07 343.934 177.091 343.955 177.119C343.976 177.147 343.997 177.167 344.017 177.195C344.038 177.223 344.059 177.244 344.08 177.272C344.101 177.299 344.122 177.32 344.143 177.348C344.163 177.376 344.184 177.397 344.205 177.425C344.226 177.452 344.247 177.473 344.268 177.501C344.289 177.529 344.309 177.55 344.33 177.578C344.351 177.605 344.372 177.626 344.393 177.654C344.414 177.682 344.435 177.703 344.455 177.73C344.476 177.758 344.497 177.779 344.518 177.807C344.539 177.835 344.56 177.856 344.581 177.883C344.601 177.911 344.622 177.932 344.643 177.96C344.664 177.988 344.685 178.009 344.706 178.036C344.727 178.064 344.747 178.085 344.768 178.113C344.789 178.141 344.81 178.161 344.831 178.189C344.852 178.217 344.872 178.238 344.893 178.266C344.914 178.294 344.935 178.314 344.956 178.342C344.977 178.37 344.998 178.391 345.018 178.419C345.039 178.446 345.06 178.467 345.081 178.495C345.102 178.523 345.123 178.544 345.144 178.572C345.164 178.599 345.185 178.62 345.206 178.648C345.227 178.676 345.248 178.697 345.269 178.725C345.29 178.752 345.31 178.773 345.331 178.801C345.352 178.829 345.373 178.85 345.394 178.878C345.415 178.905 345.436 178.926 345.456 178.954C346.541 180.358 348.578 180.921 350.323 179.927L361.564 171.203C363.385 169.792 365.568 168.867 367.869 168.735C368.091 168.721 368.314 168.714 368.536 168.714H467.063C470.678 168.714 473.604 165.787 473.604 162.173V122.93C473.604 121.338 473.034 119.878 472.082 118.738H472.075Z" fill="#5C6470"/>
<path d="M345.122 108.123H458.727C462.273 108.123 465.144 110.994 465.144 114.539V153.024C465.144 156.57 462.273 159.441 458.727 159.441H362.105C361.89 159.441 361.667 159.441 361.452 159.462C359.2 159.594 357.058 160.497 355.272 161.881L344.246 170.431C341.779 171.843 338.713 170.063 338.713 167.22V114.539C338.713 110.994 341.584 108.123 345.129 108.123H345.122Z" fill="white" stroke="#5C6470" stroke-miterlimit="10"/>
<path d="M428.299 126.684H358.442C357.239 126.684 356.259 125.711 356.259 124.501C356.259 123.292 357.239 122.318 358.442 122.318H428.299C429.502 122.318 430.482 123.292 430.482 124.501C430.482 125.711 429.502 126.684 428.299 126.684Z" fill="#FF5D78"/>
<path d="M443.809 136.723H358.442C357.239 136.723 356.259 135.749 356.259 134.54C356.259 133.33 357.239 132.357 358.442 132.357H443.809C445.011 132.357 445.992 133.33 445.992 134.54C445.992 135.749 445.011 136.723 443.809 136.723Z" fill="#FF5D78"/>
<path d="M415.842 146.754H358.435C357.232 146.754 356.252 145.781 356.252 144.571C356.252 143.361 357.232 142.388 358.435 142.388H415.842C417.045 142.388 418.025 143.361 418.025 144.571C418.025 145.781 417.045 146.754 415.842 146.754Z" fill="#FF5D78"/>
<path d="M480.291 125.311C490.173 115.429 490.173 99.4076 480.291 89.5256C470.409 79.6437 454.387 79.6437 444.505 89.5257C434.623 99.4076 434.623 115.429 444.505 125.311C454.387 135.193 470.409 135.193 480.291 125.311Z" fill="#FF5D78" stroke="white" stroke-width="5" stroke-miterlimit="10"/>
<path d="M461.202 121.22C460.883 120.901 460.723 120.511 460.723 120.059C460.723 119.608 460.883 119.218 461.202 118.898C461.522 118.579 461.911 118.419 462.363 118.419C462.843 118.419 463.246 118.579 463.566 118.898C463.886 119.218 464.046 119.608 464.046 120.059C464.046 120.511 463.886 120.901 463.566 121.22C463.246 121.54 462.843 121.7 462.363 121.7C461.911 121.7 461.522 121.54 461.202 121.22ZM462.363 93.5107C463.003 93.5107 463.517 94.0321 463.503 94.6717L463.142 112.732C463.135 113.156 462.787 113.49 462.363 113.49C461.939 113.49 461.599 113.149 461.585 112.732L461.223 94.6717C461.209 94.0321 461.724 93.5107 462.363 93.5107Z" fill="white"/>
<path d="M195.883 215.117L221.576 304.933L240.325 371.128H253.999L234.076 215.117H195.883Z" fill="#FF5D78"/>
<path d="M189.015 215.117C188.424 261.409 186.394 286.657 185.768 290.863C185.143 295.069 175.709 321.826 157.461 371.128H171.622C194.847 323.828 207.819 297.071 210.523 290.863C213.228 284.655 208.952 259.4 221.528 215.117H189.008H189.015Z" fill="#FF5D78"/>
<path d="M232.789 148.429L232.845 143.194C228.514 134.477 227.061 130.007 228.493 129.805C230.634 129.493 230.342 120.184 240.276 124.459C240.916 129.201 240.395 134.074 239.505 140.358L240.144 147.338L232.789 148.429Z" fill="#231F20"/>
<path d="M156.898 205.537L169.571 205.141C161.354 236.125 156.912 252.531 156.244 254.352C154.743 258.454 158.42 264.488 160.019 267.741C155.264 270.063 155.507 262.083 149.508 265.121C144.037 267.894 139.963 272.712 133.408 268.993C132.601 268.534 131.67 266.74 133.714 265.239C138.802 261.499 146.095 255.006 147.04 252.92C148.326 250.077 151.614 234.283 156.891 205.537H156.898Z" fill="#231F20"/>
<path d="M231.726 171.314C231.726 171.314 218.309 142.416 206.644 142.777H191.399C187.012 142.291 160.638 155.165 156.891 205.53L169.564 205.134C169.564 205.134 175.591 172.051 182.96 171.349C183.036 172.267 187.402 197.376 189.008 215.103H234.069L220.144 172.927L231.719 171.3L231.726 171.314Z" fill="white" stroke="#231F20" stroke-width="2" stroke-miterlimit="10"/>
<path d="M220.151 172.941L214.305 162.152" stroke="#231F20" stroke-width="2" stroke-miterlimit="10"/>
<path d="M206.637 107.581C200.707 101.317 179.456 103.584 182.32 118.384C183.314 123.521 186.651 127.442 190.794 130.271L191.406 142.784L200.86 154.7L204.016 142.84L200.561 134.748C205.705 136.208 210.405 136.319 212.309 135.249C217.085 132.565 212.574 113.851 206.644 107.588L206.637 107.581Z" fill="#231F20"/>
<path d="M231.726 171.314L235.202 178.183L232.79 148.429L240.145 147.338C240.145 147.338 246.269 187.136 241.139 190.557C236.008 193.977 221.069 175.715 221.069 175.715L220.151 172.934L231.726 171.307V171.314Z" fill="#231F20"/>
<path d="M198.01 101.338C195.584 101.262 192.261 101.901 190.933 102.43C191.218 100.372 190.975 98.2239 190.182 96.2843C189.411 94.4004 188.09 92.9684 186.811 91.4459C186.22 90.7438 185.58 90.0626 184.781 89.6176C183.968 89.1658 183.043 88.9711 182.132 89.0059C181.201 89.0406 180.29 89.3048 179.456 89.7219C179.087 89.9096 178.789 90.1738 178.434 90.3754C178.072 90.577 177.815 90.3893 177.468 90.2224C176.627 89.8192 175.549 89.7984 174.659 89.9235C173.658 90.0695 172.692 90.4797 171.851 91.0428C171.03 91.5919 170.3 92.3219 169.849 93.2256C169.647 93.6288 169.48 94.0667 169.418 94.5186C169.39 94.7063 169.411 94.8036 169.258 94.9149C169.119 95.0122 168.938 95.0608 168.792 95.1582C167.381 96.0967 166.373 97.6399 166.06 99.357C165.879 100.358 166.095 101.978 166.623 103.723C167.151 105.461 169.974 109.618 171.92 110.89C173.658 112.023 175.883 112.482 177.892 112.405C177.016 114.164 176.654 116.173 176.522 118.148C176.376 120.296 176.508 122.451 176.912 124.571C177.294 126.587 177.843 128.686 178.83 130.494C179.755 132.19 181.09 133.42 182.904 133.942C183.738 134.178 184.593 134.296 185.448 134.387C186.289 134.477 187.131 134.554 187.972 134.505C189.571 134.408 191.295 133.886 192.143 132.385C192.449 131.842 192.761 131.175 192.928 130.57C192.991 130.355 193.019 130.209 192.838 130.063C192.616 129.882 192.317 129.785 192.059 129.667C190.62 128.992 189.536 127.873 188.938 126.351C188.326 124.814 188.208 122.645 189.578 121.533C191.274 120.164 193.658 120.574 195.612 121.032C195.66 118.293 196.536 115.603 198.566 113.81C200.812 111.828 203.738 110.876 206.102 109.062C206.721 108.589 207.339 108.068 207.687 107.345C207.833 107.039 208 106.656 208 106.309C208 105.85 207.624 105.572 207.318 105.294C205.706 103.834 200.436 101.429 198.01 101.352V101.338Z" fill="white" stroke="#231F20" stroke-width="2" stroke-miterlimit="10"/>
<path d="M233.617 215.694L239.095 261.214L206.297 236L207.479 216.625L233.617 215.694Z" fill="#FF5D78"/>
<path d="M214.91 242.618L231.983 326.275L227.013 324.127L212.073 271.662L214.91 242.618Z" fill="#231F20"/>
<path d="M266.095 131.995L217.106 129.236L247.52 90.73" fill="white"/>
<path d="M266.095 131.995L217.106 129.236L247.52 90.73" stroke="#231F20" stroke-width="2" stroke-miterlimit="10"/>
<path d="M266.093 132.003C269.023 130.684 267.241 120.377 262.112 108.981C256.984 97.5845 250.45 89.4153 247.52 90.7341C244.589 92.0529 246.372 102.36 251.5 113.757C256.629 125.153 263.162 133.322 266.093 132.003Z" fill="#231F20"/>
<path d="M142.313 162.173H21.8675C18.913 162.173 16.5146 159.774 16.5146 156.82V78.7866H147.666V156.82C147.666 159.774 145.268 162.173 142.313 162.173Z" fill="#E5E5E5"/>
<path d="M16.5078 78.7868L69.042 33.5589C76.5429 27.1008 87.6378 27.1008 95.1318 33.5589L147.666 78.7868H16.5078Z" fill="#B2B2B2"/>
<path d="M147.666 78.7866H16.5078V94.6157H147.666V78.7866Z" fill="#7F7F7F"/>
<path d="M29.3126 28.0603V17.4172C29.3126 8.665 22.5138 1.51863 13.9145 0.927734C6.63609 1.178 0.810547 7.14257 0.810547 14.4836V28.0603H29.3126Z" fill="#819DC6"/>
<path d="M29.3127 130.932V17.4172C29.3127 8.27565 21.9091 0.87207 12.7676 0.87207H118.83C127.589 0.87207 134.687 7.96978 134.687 16.7289V130.932H29.3127Z" fill="#ACC6EF"/>
<path d="M108.469 56.904C111.224 40.0777 99.8173 24.2035 82.991 21.4481C66.1646 18.6927 50.2904 30.0994 47.535 46.9258C44.7796 63.7521 56.1863 79.6263 73.0127 82.3817C89.839 85.1371 105.713 73.7304 108.469 56.904Z" fill="#231F20"/>
<path d="M16.5078 142.507V78.7871L84.3914 101.081L147.666 78.7871V142.507" fill="#E5E5E5"/>
<path d="M112.557 56.9089C115.312 40.0826 103.905 24.2084 87.0788 21.453C70.2525 18.6976 54.3783 30.1043 51.6229 46.9307C48.8675 63.757 60.2742 79.6312 77.1006 82.3866C93.9269 85.142 109.801 73.7353 112.557 56.9089Z" fill="white" stroke="#231F20" stroke-width="2" stroke-miterlimit="10"/>
<path d="M64.6407 53.3159C64.6407 62.951 72.4545 70.7647 82.0826 70.7647C91.7107 70.7647 99.5245 62.951 99.5245 53.3159H64.6338H64.6407Z" fill="#231F20"/>
<path d="M73.3378 47.3096C71.8501 47.3096 70.6475 46.1069 70.6475 44.6193V37.8622C70.6475 36.3745 71.8501 35.1719 73.3378 35.1719C74.8254 35.1719 76.0281 36.3745 76.0281 37.8622V44.6193C76.0281 46.1069 74.8254 47.3096 73.3378 47.3096Z" fill="#231F20"/>
<path d="M90.8212 47.3096C89.3335 47.3096 88.1309 46.1069 88.1309 44.6193V37.8622C88.1309 36.3745 89.3335 35.1719 90.8212 35.1719C92.3088 35.1719 93.5115 36.3745 93.5115 37.8622V44.6193C93.5115 46.1069 92.3088 47.3096 90.8212 47.3096Z" fill="#231F20"/>
<path d="M17.335 160.936L82.0902 121.707L145.58 161.874" stroke="#7C7C7C" stroke-miterlimit="10"/>
</g>
<defs>
<clipPath id="clip0_992_5738">
<rect width="493.19" height="370.256" fill="white" transform="translate(0.810547 0.87207)"/>
</clipPath>
</defs>
</svg>
