<svg width="133" height="32" viewBox="0 0 133 32" fill="none" xmlns="http://www.w3.org/2000/svg">
<g clip-path="url(#clip0_992_5823)">
<path d="M133 19.5051C132.922 20.0023 132.875 20.4996 132.749 20.9808C132.342 22.6329 131.479 23.9161 129.88 24.5256C128.25 25.1512 126.18 24.7983 125.114 23.2745C125.098 23.2424 125.067 23.2264 124.988 23.1622V28.3753H122.072V13.5542C122.48 13.5542 122.888 13.5542 123.295 13.5542C123.703 13.5542 124.126 13.5542 124.534 13.5542C124.785 13.5542 124.847 13.6344 124.832 13.875C124.832 14.2119 124.832 14.5487 124.832 14.9016C124.847 14.9016 124.879 14.9016 124.894 14.9176C124.941 14.8535 125.004 14.7893 125.051 14.7251C125.71 13.7788 126.635 13.3457 127.732 13.2655C130.648 13.0409 132.373 15.0139 132.828 17.5001C132.906 17.9332 132.953 18.3662 133.016 18.7993V19.5051H133ZM124.863 19.0239C124.894 19.7778 124.957 20.4996 125.286 21.1733C125.741 22.1036 126.478 22.5848 127.497 22.5848C128.516 22.5848 129.269 22.1196 129.661 21.1572C129.88 20.6119 129.99 20.0023 130.037 19.4249C130.115 18.4785 130.006 17.5322 129.52 16.6981C129.049 15.88 128.344 15.463 127.403 15.479C126.494 15.4951 125.819 15.9442 125.365 16.7462C124.973 17.452 124.926 18.2379 124.879 19.0239H124.863Z" fill="#405B66"/>
<path d="M49.5129 19.7776C49.6383 19.2643 49.7637 18.7349 49.8892 18.2217C50.5477 15.3826 51.2062 12.5274 51.8646 9.68833C51.9274 9.44773 52.0057 9.33545 52.2723 9.33545C53.1032 9.35149 53.9499 9.33545 54.7808 9.33545C54.8749 9.33545 54.969 9.33545 55.1101 9.33545C54.9533 9.96101 54.7965 10.5385 54.6554 11.1319C53.5109 15.4948 52.3507 19.8578 51.2218 24.2367C51.1591 24.4452 51.0807 24.5094 50.8769 24.5094C49.9989 24.5094 49.1209 24.4933 48.2586 24.5094C47.9921 24.5094 47.898 24.4131 47.8353 24.1725C47.0514 20.9324 46.2674 17.6923 45.4835 14.4683C45.4678 14.372 45.4365 14.2918 45.3424 14.1956C45.264 14.5164 45.1856 14.8372 45.1072 15.142C44.386 18.1735 43.6491 21.2051 42.9279 24.2367C42.8809 24.4452 42.8025 24.5254 42.583 24.5254C41.658 24.5254 40.733 24.5254 39.8236 24.5254C39.6668 24.5254 39.5728 24.5094 39.5257 24.3169C38.2558 19.3766 36.9701 14.4362 35.7002 9.49585C35.7002 9.46377 35.7002 9.43169 35.7002 9.38357C35.7943 9.38357 35.8727 9.36753 35.951 9.36753C36.8447 9.36753 37.7384 9.36753 38.6321 9.36753C38.8359 9.36753 38.9143 9.43169 38.9613 9.64021C39.6982 12.9124 40.4508 16.1685 41.1876 19.4407C41.2033 19.5209 41.2347 19.6011 41.3131 19.6974C41.3915 19.3926 41.4699 19.0878 41.5482 18.7831C42.3008 15.7515 43.0534 12.7199 43.8059 9.68833C43.8686 9.46377 43.947 9.36753 44.1822 9.36753C44.9975 9.38357 45.8128 9.38357 46.628 9.36753C46.8632 9.36753 46.9416 9.44773 46.9887 9.65625C47.7726 12.9284 48.5722 16.1846 49.3561 19.4568C49.3875 19.569 49.4188 19.6813 49.4502 19.7936C49.4815 19.7936 49.4972 19.7936 49.5286 19.7936L49.5129 19.7776Z" fill="#405B66"/>
<path d="M109.749 24.5095C109.216 24.5095 108.715 24.5095 108.197 24.5095C107.696 24.5095 107.194 24.5095 106.692 24.5095C106.457 24.5095 106.363 24.4293 106.3 24.2047C106.002 23.2744 105.689 22.344 105.391 21.4137C105.312 21.1892 105.218 21.125 104.983 21.125C103.321 21.125 101.659 21.125 99.9975 21.125C99.7623 21.125 99.6682 21.2052 99.5898 21.4298C99.2763 22.3761 98.947 23.3225 98.6178 24.2689C98.5551 24.4613 98.461 24.5255 98.2728 24.5255C97.3008 24.5255 96.313 24.5255 95.2939 24.5255C95.3253 24.4132 95.3567 24.317 95.388 24.2368C97.1754 19.3766 98.9784 14.5165 100.766 9.64028C100.844 9.43176 100.922 9.35156 101.158 9.35156C102.083 9.35156 103.023 9.35156 103.948 9.35156C104.137 9.35156 104.231 9.41572 104.309 9.59216C106.096 14.4844 107.868 19.3606 109.655 24.2528C109.687 24.317 109.702 24.3972 109.734 24.5095H109.749ZM104.45 18.6548C103.823 16.7621 103.196 14.9175 102.569 13.0729C102.537 13.0729 102.522 13.0729 102.49 13.0729C101.848 14.9175 101.205 16.7781 100.562 18.6548H104.45Z" fill="#405B66"/>
<path d="M113.198 23.1621V23.531C113.198 25.0387 113.198 26.5626 113.198 28.0703C113.198 28.3109 113.136 28.3911 112.9 28.3911C112.132 28.3911 111.364 28.3911 110.596 28.3911C110.502 28.3911 110.408 28.3911 110.298 28.3751V13.5701H113.042V14.9014C113.042 14.9014 113.089 14.9174 113.104 14.9335C113.151 14.8693 113.214 14.8212 113.245 14.757C113.904 13.7946 114.829 13.3616 115.942 13.2814C118.827 13.0568 120.599 14.9976 121.053 17.5961C121.304 19.0879 121.257 20.5796 120.646 21.9911C120.018 23.4508 118.984 24.4453 117.416 24.734C115.801 25.0227 114.374 24.6698 113.324 23.2904C113.308 23.2743 113.277 23.2583 113.198 23.1941V23.1621ZM118.325 19.1681C118.231 18.5746 118.184 18.0453 118.074 17.548C117.776 16.2969 116.867 15.527 115.754 15.4949C114.562 15.4788 113.669 16.1365 113.324 17.3716C112.995 18.5585 112.995 19.7616 113.402 20.9325C113.778 21.9911 114.641 22.5846 115.707 22.5846C116.773 22.5846 117.62 22.0072 117.98 20.9325C118.168 20.339 118.231 19.7134 118.341 19.1681H118.325Z" fill="#405B66"/>
<path d="M58.7315 24.5096H55.8467V9.38379H58.7315V15.0459C58.7315 15.0459 58.7785 15.062 58.8099 15.078C58.8569 15.0139 58.9197 14.9337 58.9667 14.8695C59.6722 13.8429 60.66 13.3136 61.8672 13.2815C62.3689 13.2815 62.8863 13.3136 63.3723 13.4259C64.6893 13.7467 65.4419 14.6449 65.6927 15.9763C65.8025 16.5698 65.8495 17.1793 65.8652 17.7888C65.8809 19.9382 65.8652 22.0875 65.8652 24.253C65.8652 24.3332 65.8652 24.4134 65.8652 24.5096H62.9647C62.9647 24.3813 62.9647 24.269 62.9647 24.1567C62.9647 22.248 62.9647 20.3231 62.9647 18.4144C62.9647 17.869 62.8706 17.3236 62.7452 16.7943C62.5884 16.0886 62.071 15.7036 61.3812 15.6555C61.0206 15.6234 60.6443 15.6555 60.2993 15.7357C59.437 15.9282 59.0451 16.5698 58.8726 17.4038C58.7942 17.7888 58.7472 18.2058 58.7472 18.6068C58.7472 20.4675 58.7472 22.3281 58.7472 24.1728C58.7472 24.285 58.7472 24.3973 58.7472 24.5577L58.7315 24.5096Z" fill="#405B66"/>
<path d="M77.5934 24.5096C77.2641 24.5096 76.9663 24.5096 76.6527 24.5096C76.0726 24.5096 75.4768 24.5096 74.8967 24.5096C74.7242 24.5096 74.6302 24.4615 74.5988 24.269C74.5518 24.0124 74.5047 23.7557 74.442 23.4831C74.3793 23.5151 74.348 23.5312 74.3323 23.5633C72.8585 24.8465 71.1496 25.0389 69.3465 24.5577C67.669 24.1086 67.0261 22.681 67.2143 21.061C67.3867 19.6334 68.155 18.7833 69.6444 18.4465C70.6008 18.2219 71.5886 18.1257 72.5606 17.9492C72.9683 17.869 73.3602 17.7728 73.7522 17.6284C74.0971 17.5001 74.3323 17.2435 74.348 16.8425C74.3636 16.281 74.2852 15.7357 73.7522 15.479C72.8742 15.062 71.9648 15.062 71.1025 15.5592C70.7262 15.7678 70.6165 16.0565 70.4283 16.8745H67.5435C67.5749 16.2329 67.716 15.6715 68.0452 15.1582C68.5313 14.4044 69.2054 13.8911 70.0364 13.6344C71.7767 13.073 73.5327 13.073 75.273 13.6344C76.1666 13.9232 76.8879 14.4685 77.1544 15.447C77.2485 15.7838 77.2641 16.1367 77.2641 16.4896C77.2641 18.2219 77.2641 19.9542 77.2641 21.6866C77.2641 22.6329 77.2641 23.5793 77.5934 24.5096ZM74.3793 19.1362C73.7365 19.5211 73.0937 19.5693 72.4822 19.6815C71.9335 19.7938 71.3691 19.9061 70.8517 20.1146C70.2716 20.3552 70.0207 20.9968 70.1148 21.6384C70.2089 22.28 70.6008 22.665 71.275 22.7612C71.6356 22.8094 71.9962 22.8254 72.3568 22.8094C73.3289 22.7452 74.1128 22.0876 74.2539 21.1412C74.348 20.5156 74.3323 19.858 74.3793 19.1362Z" fill="#405B66"/>
<path d="M94.9801 16.7302C94.6195 16.7302 94.2589 16.7302 93.8983 16.7302C93.4122 16.7302 92.9419 16.7302 92.4558 16.7302C92.2991 16.7302 92.2207 16.6981 92.1893 16.5056C92.1109 15.9602 91.813 15.6074 91.2956 15.4149C90.6528 15.1903 89.9943 15.1743 89.3358 15.3186C88.9282 15.4149 88.599 15.6394 88.5362 16.1046C88.4578 16.5858 88.6773 16.9708 89.1007 17.1312C89.7435 17.3718 90.4176 17.5643 91.0761 17.7407C91.7503 17.9332 92.4402 18.0775 93.0987 18.2861C93.7258 18.4785 94.2745 18.8154 94.7135 19.3126C95.5602 20.243 95.3563 22.0394 94.8076 22.9217C94.2902 23.7237 93.569 24.253 92.691 24.4936C91.1232 24.9427 89.5397 24.9427 87.9718 24.4455C86.6078 23.9963 85.6828 23.0981 85.4162 21.5903C85.3849 21.4139 85.3849 21.2214 85.3535 21.0129H88.0972C88.207 22.2961 89.2731 23.0019 90.841 22.7933C91.1232 22.7613 91.4211 22.649 91.6876 22.5206C92.1266 22.2961 92.3774 21.9111 92.3618 21.3818C92.3304 20.8846 92.0168 20.5798 91.5935 20.4515C90.7155 20.1628 89.8219 19.9382 88.9439 19.6816C88.3951 19.5212 87.8307 19.3768 87.2976 19.1683C86.4197 18.7993 85.7298 18.2059 85.6201 17.1793C85.4946 15.9923 85.7768 14.9337 86.7646 14.1798C87.376 13.7146 88.0972 13.4901 88.8498 13.3778C90.1354 13.2014 91.4211 13.2014 92.6597 13.6344C94.0394 14.1156 94.9487 15.3347 94.9644 16.7302H94.9801Z" fill="#405B66"/>
<path d="M84.9306 22.2958C84.9306 22.2958 84.9462 22.392 84.9462 22.4562C84.9462 23.0657 84.9462 23.6752 84.9462 24.2847C84.9462 24.4451 84.8992 24.5414 84.7268 24.5574C83.6763 24.6537 82.6102 24.7178 81.5754 24.4451C80.4465 24.1564 79.8508 23.3865 79.8508 22.1995C79.8508 20.0983 79.8508 18.0131 79.8508 15.9118C79.8508 15.7995 79.8508 15.6873 79.8508 15.5429H78.0791V13.5539C78.5338 13.5539 78.9728 13.5539 79.4118 13.5539C79.9135 13.5539 79.8508 13.586 79.8508 13.1208C79.8508 12.2868 79.8508 11.4527 79.8508 10.6186V10.2817H82.767C82.767 10.6667 82.767 11.0356 82.767 11.4045C82.767 12.0301 82.767 12.6557 82.767 13.2973C82.767 13.5058 82.8297 13.57 83.0335 13.57C83.5509 13.57 84.0683 13.57 84.5856 13.57C84.6954 13.57 84.7895 13.57 84.9149 13.57V15.5589H82.7826C82.7826 15.6873 82.767 15.7835 82.767 15.8797C82.767 17.58 82.767 19.2802 82.767 20.9805C82.767 21.1248 82.7669 21.2692 82.7826 21.4296C82.8767 22.0712 83.1119 22.2958 83.7547 22.3279C84.131 22.3279 84.5229 22.3279 84.9149 22.3279L84.9306 22.2958Z" fill="#405B66"/>
<path d="M0 32L2.16362 23.996C0.768242 21.5098 0 18.7509 0 15.8797C0 7.16992 7.00825 0 15.5843 0C24.1604 0 31.2784 7.16992 31.2784 15.8957C31.2784 24.6216 24.1604 32 15.5843 32C12.8877 32 10.3007 31.1178 7.98031 29.7865L0 32Z" fill="#EDEDEE"/>
<path d="M8.41891 26.9312L8.90494 27.2039C10.8961 28.4711 13.2165 29.241 15.6467 29.241C22.7176 29.241 28.597 23.226 28.597 15.8956C28.597 8.5653 22.7019 2.75879 15.5839 2.75879C8.46595 2.75879 2.69629 8.61343 2.69629 15.8956C2.69629 18.43 3.40182 20.9162 4.68745 23.0174L5.01669 23.5147L3.7781 28.1503L8.41891 26.9312Z" fill="#65BE6B"/>
<path d="M11.4297 8.50125L10.4106 8.45312C10.0813 8.45312 9.76777 8.56541 9.54827 8.78997C9.06224 9.23909 8.24696 10.0571 8.04314 11.1639C7.66686 12.816 8.26264 14.805 9.65802 16.794C11.0534 18.7829 13.7501 21.9749 18.5006 23.3544C20.0058 23.8035 21.1973 23.5148 22.1694 22.9053C22.922 22.408 23.408 21.6381 23.5648 20.804L23.7216 20.0341C23.7686 19.8095 23.6745 19.5368 23.455 19.4246L20.0528 17.8205C19.8333 17.7083 19.5668 17.7724 19.41 17.9809L18.0617 19.7454C17.9519 19.8576 17.7951 19.9058 17.6227 19.8576C16.7133 19.5208 13.6247 18.2055 11.9627 14.8852C11.9157 14.7248 11.9157 14.5484 12.0098 14.4361L13.3111 12.9444C13.4208 12.784 13.4679 12.5594 13.4208 12.399L11.853 8.80601C11.806 8.64561 11.6335 8.46917 11.414 8.46917" fill="white"/>
</g>
<defs>
<clipPath id="clip0_992_5823">
<rect width="133" height="32" fill="white"/>
</clipPath>
</defs>
</svg>
