<svg width="70" height="69" viewBox="0 0 70 69" fill="none" xmlns="http://www.w3.org/2000/svg">
<path d="M69.5816 34.5C69.5816 15.4458 54.1358 0 35.0815 0C16.0273 0 0.581543 15.4458 0.581543 34.5C0.581543 51.7193 13.1958 65.9947 29.6893 68.5809V44.4718H20.9289V34.5H29.6893V26.8998C29.6893 18.2518 34.8413 13.478 42.7227 13.478C46.4998 13.478 50.4455 14.1527 50.4455 14.1527V22.6422H46.096C41.8129 22.6422 40.4738 25.3 40.4738 28.0293V34.5H50.0418L48.5135 44.4718H40.4738V68.5809C56.9673 65.9947 69.5816 51.7193 69.5816 34.5Z" fill="#4676ED"/>
<path d="M48.5087 44.4718L50.037 34.5H40.469V28.0293C40.469 25.3 41.803 22.6422 46.0912 22.6422H50.4407V14.1527C50.4407 14.1527 46.495 13.478 42.7178 13.478C34.8365 13.478 29.6845 18.2518 29.6845 26.8998V34.5H20.9241V44.4718H29.6845V68.5809C31.4427 68.8569 33.2418 69 35.0767 69C36.9116 69 38.7107 68.8569 40.469 68.5809V44.4718H48.5087Z" fill="white"/>
</svg>
