<svg width="545" height="402" viewBox="0 0 545 402" fill="none" xmlns="http://www.w3.org/2000/svg">
<g clip-path="url(#clip0_705_5117)">
<path d="M238.263 341.507C223.056 341.554 207.843 341.944 192.663 343.735C186.936 344.409 181.334 345.896 175.594 346.491C164.133 347.687 152.877 349.922 141.376 350.946C132.115 351.772 122.814 352.261 113.579 353.312C104.919 354.297 95.3342 354.073 86.7467 352.44C80.3854 351.237 73.9976 350.556 67.742 348.619C60.7465 346.451 53.1499 344.905 45.8572 344.958C35.4663 345.037 25.3397 345.044 15.3981 348.871C11.9037 350.212 7.62974 352.42 4.98084 355.242C-1.08984 361.694 -1.90895 377.795 4.14851 384.484C14.3544 395.747 36.1401 400.162 50.4482 400.374C66.1236 400.605 81.3564 399.369 97.0583 398.642C111.65 397.968 126.203 397.01 140.815 397.043C170.659 397.109 200.511 397.043 230.309 394.928C258.298 392.945 286.366 393.625 314.414 393.625C342.462 393.625 371.751 393.863 400.315 397.915C412.76 399.68 425.436 400.301 437.941 401.537C449.144 402.648 459.905 401.517 471.062 400.493C480.429 399.634 489.737 397.082 498.245 392.773C504.983 389.362 516.992 378.76 519.059 370.61C524.853 347.773 437.439 348.322 424.016 348.375C409.001 348.434 393.867 348.957 378.866 348.348C372.557 348.091 366.335 346.789 360.178 345.354C354.041 343.926 347.865 344.29 341.642 343.689C315.702 341.19 289.695 341.554 263.668 341.554C255.2 341.554 246.725 341.474 238.249 341.501L238.263 341.507Z" fill="#F7F7F7"/>
<path d="M75.0744 266.182L43.1885 254.45L49.7612 310.336L45.9563 358.547L45.8506 358.871L45.9299 358.878L45.6722 362.09L51.2937 363.115L66.4869 316.648L73.9184 270.888L75.0744 266.182Z" fill="black"/>
<path d="M59.2871 373.588L54.7587 373.086L44.2866 366.877L45.7296 362.124L51.7057 362.275L58.6908 367.655L58.6908 367.655L58.6992 367.661L59.8479 368.508L59.2871 373.588Z" fill="white" stroke="black"/>
<path d="M81.8238 366.461L75.0686 311.385L75.0659 311.363L75.0612 311.342L64.2308 260.641L96.2454 267.535L86.4693 365.324L81.8238 366.461Z" fill="black" stroke="black"/>
<path d="M81.1582 366.251L87.0978 365.567L95.0044 370.047L94.3822 373.171L80.4145 371.063L81.1582 366.251Z" fill="white" stroke="black"/>
<mask id="path-6-inside-1_705_5117" fill="white">
<path fill-rule="evenodd" clip-rule="evenodd" d="M25.9011 117.231L28.081 109.577L31.3905 110.37L31.0602 115.936L32.7975 115.585L30.9219 120.026L31.7538 120.067L30.9017 155.779L50.0807 171.28C50.5816 170.918 51.0983 170.58 51.6438 170.288C57.9325 166.904 66.8502 166.196 73.8061 167.723C73.9447 167.75 74.0833 167.783 74.2218 167.816L74.2219 167.816L74.222 167.816L74.2222 167.816L74.2445 167.821L74.2156 167.743L84.1638 170.691L110.692 200.19L104.06 209.404L104.06 209.404L104.06 209.404L99.9627 207.943C102.495 216.147 105.349 227.851 106.637 241.858C107.634 252.698 109.906 262.778 111.908 271.146C112.958 275.608 113.784 280.301 113.791 284.888C113.797 287.334 113.751 289.773 111.736 291.174L111.743 291.167C111.624 291.253 111.492 291.333 111.353 291.412C107.172 293.758 101.365 294.657 96.6553 294.968C82.4794 295.907 68.2705 296.349 54.0615 296.283C52.9009 296.279 51.7336 296.287 50.563 296.295C45.1973 296.333 39.7634 296.371 34.601 295.166C33.2402 294.849 18.0801 290.011 19.137 288.147C19.9803 286.659 21.0053 285.116 22.0556 283.534L22.0557 283.534C24.7898 279.418 27.6953 275.043 28.0151 270.717C28.5132 264.001 29.5707 257.337 30.626 250.686L30.6508 250.53C31.8834 242.768 32.9634 234.982 34.0433 227.196L34.0433 227.196L34.0433 227.196L34.0434 227.195C34.775 221.921 35.5065 216.647 36.2855 211.381C36.6214 209.099 36.9303 206.813 37.2392 204.527L37.2393 204.526C37.8232 200.204 38.4073 195.881 39.1743 191.588L38.5445 192.232L14.3279 161.655L24.6725 119.723L26.3065 119.802L25.9011 117.231Z"/>
</mask>
<path fill-rule="evenodd" clip-rule="evenodd" d="M25.9011 117.231L28.081 109.577L31.3905 110.37L31.0602 115.936L32.7975 115.585L30.9219 120.026L31.7538 120.067L30.9017 155.779L50.0807 171.28C50.5816 170.918 51.0983 170.58 51.6438 170.288C57.9325 166.904 66.8502 166.196 73.8061 167.723C73.9447 167.75 74.0833 167.783 74.2218 167.816L74.2219 167.816L74.222 167.816L74.2222 167.816L74.2445 167.821L74.2156 167.743L84.1638 170.691L110.692 200.19L104.06 209.404L104.06 209.404L104.06 209.404L99.9627 207.943C102.495 216.147 105.349 227.851 106.637 241.858C107.634 252.698 109.906 262.778 111.908 271.146C112.958 275.608 113.784 280.301 113.791 284.888C113.797 287.334 113.751 289.773 111.736 291.174L111.743 291.167C111.624 291.253 111.492 291.333 111.353 291.412C107.172 293.758 101.365 294.657 96.6553 294.968C82.4794 295.907 68.2705 296.349 54.0615 296.283C52.9009 296.279 51.7336 296.287 50.563 296.295C45.1973 296.333 39.7634 296.371 34.601 295.166C33.2402 294.849 18.0801 290.011 19.137 288.147C19.9803 286.659 21.0053 285.116 22.0556 283.534L22.0557 283.534C24.7898 279.418 27.6953 275.043 28.0151 270.717C28.5132 264.001 29.5707 257.337 30.626 250.686L30.6508 250.53C31.8834 242.768 32.9634 234.982 34.0433 227.196L34.0433 227.196L34.0433 227.196L34.0434 227.195C34.775 221.921 35.5065 216.647 36.2855 211.381C36.6214 209.099 36.9303 206.813 37.2392 204.527L37.2393 204.526C37.8232 200.204 38.4073 195.881 39.1743 191.588L38.5445 192.232L14.3279 161.655L24.6725 119.723L26.3065 119.802L25.9011 117.231Z" fill="white"/>
<path d="M28.081 109.577L28.3141 108.604L27.3819 108.381L27.1193 109.303L28.081 109.577ZM25.9011 117.231L24.9394 116.957L24.879 117.169L24.9133 117.387L25.9011 117.231ZM31.3905 110.37L32.3888 110.429L32.4384 109.593L31.6236 109.398L31.3905 110.37ZM31.0602 115.936L30.062 115.876L29.9851 117.172L31.2579 116.916L31.0602 115.936ZM32.7975 115.585L33.7187 115.974L34.4551 114.231L32.5999 114.605L32.7975 115.585ZM30.9219 120.026L30.0007 119.637L29.4439 120.956L30.8734 121.025L30.9219 120.026ZM31.7538 120.067L32.7535 120.09L32.7768 119.115L31.8023 119.068L31.7538 120.067ZM30.9017 155.779L29.902 155.755L29.8902 156.248L30.2731 156.557L30.9017 155.779ZM50.0807 171.28L49.4521 172.057L50.0462 172.538L50.6657 172.091L50.0807 171.28ZM51.6438 170.288L52.1164 171.169L52.1177 171.168L51.6438 170.288ZM73.8061 167.723L73.5917 168.7L73.6052 168.703L73.6189 168.705L73.8061 167.723ZM74.2218 167.816L73.9901 168.788L74.0078 168.793L74.0257 168.796L74.2218 167.816ZM74.222 167.816L74.4468 166.841L74.4325 166.838L74.4181 166.835L74.222 167.816ZM74.2222 167.816L74.452 166.842L74.4471 166.841L74.2222 167.816ZM74.2445 167.821L74.0148 168.794L75.8317 169.223L75.182 167.473L74.2445 167.821ZM74.2156 167.743L74.4997 166.784L72.5821 166.216L73.2781 168.091L74.2156 167.743ZM84.1638 170.691L84.9074 170.022L84.7186 169.812L84.4479 169.732L84.1638 170.691ZM110.692 200.19L111.504 200.775L111.975 200.121L111.436 199.522L110.692 200.19ZM104.06 209.404L103.249 208.82L103.024 209.132L103.067 209.515L104.06 209.404ZM104.06 209.404L103.662 210.321L105.245 211.01L105.054 209.294L104.06 209.404ZM104.06 209.404L104.459 208.487L104.428 208.474L104.396 208.462L104.06 209.404ZM99.9627 207.943L100.299 207.001L98.4183 206.33L99.0072 208.238L99.9627 207.943ZM106.637 241.858L105.641 241.95L105.641 241.95L106.637 241.858ZM111.908 271.146L112.881 270.917L112.881 270.914L111.908 271.146ZM113.791 284.888L112.791 284.889V284.891L113.791 284.888ZM111.736 291.174L111.03 290.466L112.307 291.995L111.736 291.174ZM111.743 291.167L112.449 291.876L111.157 290.357L111.743 291.167ZM111.353 291.412L111.843 292.284L111.849 292.28L111.353 291.412ZM96.6553 294.968L96.5895 293.97L96.5893 293.97L96.6553 294.968ZM54.0615 296.283L54.0662 295.283H54.0656L54.0615 296.283ZM50.563 296.295L50.57 297.295H50.57L50.563 296.295ZM34.601 295.166L34.8282 294.192L34.8281 294.192L34.601 295.166ZM19.137 288.147L20.0069 288.64L20.0069 288.64L19.137 288.147ZM22.0556 283.534L21.2294 282.971L21.2226 282.981L22.0556 283.534ZM22.0557 283.534L22.8819 284.098L22.8888 284.087L22.0557 283.534ZM28.0151 270.717L27.0178 270.643L27.0178 270.643L28.0151 270.717ZM30.626 250.686L29.6384 250.53L29.6384 250.53L30.626 250.686ZM30.6508 250.53L29.6632 250.374L29.6631 250.374L30.6508 250.53ZM34.0433 227.196L35.0339 227.333L35.0356 227.32L34.0433 227.196ZM34.0433 227.196L33.0531 227.057L33.052 227.064L33.0511 227.072L34.0433 227.196ZM34.0434 227.195L35.0337 227.335L35.0339 227.333L34.0434 227.195ZM36.2855 211.381L37.2747 211.527L37.2748 211.526L36.2855 211.381ZM37.2392 204.527L38.2302 204.66L38.2306 204.658L37.2392 204.527ZM37.2393 204.526L36.2483 204.392L36.2479 204.395L37.2393 204.526ZM39.1743 191.588L40.1587 191.764L40.7297 188.569L38.4595 190.889L39.1743 191.588ZM38.5445 192.232L37.7606 192.853L38.4654 193.743L39.2593 192.931L38.5445 192.232ZM14.3279 161.655L13.357 161.416L13.2396 161.892L13.544 162.276L14.3279 161.655ZM24.6725 119.723L24.7209 118.724L23.8987 118.684L23.7016 119.483L24.6725 119.723ZM26.3065 119.802L26.258 120.801L27.4856 120.861L27.2943 119.647L26.3065 119.802ZM27.1193 109.303L24.9394 116.957L26.8629 117.505L29.0428 109.851L27.1193 109.303ZM31.6236 109.398L28.3141 108.604L27.848 110.549L31.1574 111.343L31.6236 109.398ZM32.0585 115.995L32.3888 110.429L30.3923 110.311L30.062 115.876L32.0585 115.995ZM32.5999 114.605L30.8626 114.955L31.2579 116.916L32.9952 116.565L32.5999 114.605ZM31.8431 120.415L33.7187 115.974L31.8763 115.196L30.0007 119.637L31.8431 120.415ZM31.8023 119.068L30.9704 119.027L30.8734 121.025L31.7053 121.065L31.8023 119.068ZM31.9014 155.803L32.7535 120.09L30.7541 120.043L29.902 155.755L31.9014 155.803ZM50.7092 170.502L31.5303 155.001L30.2731 156.557L49.4521 172.057L50.7092 170.502ZM50.6657 172.091C51.1428 171.746 51.6211 171.435 52.1164 171.169L51.1712 169.406C50.5755 169.726 50.0204 170.09 49.4956 170.469L50.6657 172.091ZM52.1177 171.168C58.1553 167.919 66.8201 167.213 73.5917 168.7L74.0205 166.746C66.8804 165.179 57.7097 165.888 51.1699 169.407L52.1177 171.168ZM73.6189 168.705C73.7313 168.727 73.8476 168.754 73.9901 168.788L74.4536 166.843C74.3189 166.811 74.1581 166.772 73.9933 166.741L73.6189 168.705ZM74.0257 168.796L74.0258 168.796L74.418 166.835L74.418 166.835L74.0257 168.796ZM74.0258 168.796L74.0258 168.796L74.4181 166.835L74.418 166.835L74.0258 168.796ZM73.9971 168.79L73.9974 168.79L74.4471 166.841L74.4468 166.841L73.9971 168.79ZM73.9925 168.789L74.0148 168.794L74.4743 166.848L74.452 166.842L73.9925 168.789ZM75.182 167.473L75.1531 167.395L73.2781 168.091L73.307 168.169L75.182 167.473ZM73.9315 168.702L83.8797 171.65L84.4479 169.732L74.4997 166.784L73.9315 168.702ZM83.4203 171.36L109.949 200.859L111.436 199.522L84.9074 170.022L83.4203 171.36ZM109.881 199.606L103.249 208.82L104.872 209.988L111.504 200.775L109.881 199.606ZM103.067 209.515L103.067 209.515L105.054 209.294L105.054 209.294L103.067 209.515ZM104.459 208.487L104.459 208.487L103.662 210.321L103.662 210.321L104.459 208.487ZM104.396 208.462L100.299 207.001L99.6268 208.885L103.724 210.346L104.396 208.462ZM99.0072 208.238C101.524 216.389 104.361 228.025 105.641 241.95L107.632 241.767C106.337 227.677 103.467 215.904 100.918 207.648L99.0072 208.238ZM105.641 241.95C106.645 252.866 108.932 263.005 110.935 271.379L112.881 270.914C110.881 262.552 108.623 252.531 107.632 241.767L105.641 241.95ZM110.935 271.375C111.978 275.806 112.784 280.414 112.791 284.889L114.791 284.887C114.784 280.188 113.939 275.41 112.881 270.917L110.935 271.375ZM112.791 284.891C112.794 286.131 112.779 287.233 112.549 288.189C112.328 289.107 111.922 289.827 111.165 290.353L112.307 291.995C113.565 291.12 114.19 289.92 114.494 288.657C114.789 287.431 114.794 286.091 114.791 284.885L112.791 284.891ZM112.442 291.882L112.449 291.876L111.037 290.459L111.03 290.466L112.442 291.882ZM111.157 290.357C111.083 290.411 110.988 290.469 110.857 290.544L111.849 292.28C111.996 292.196 112.165 292.096 112.329 291.978L111.157 290.357ZM110.864 290.54C106.887 292.772 101.269 293.661 96.5895 293.97L96.7212 295.966C101.461 295.653 107.457 294.745 111.842 292.284L110.864 290.54ZM96.5893 293.97C82.4366 294.907 68.2513 295.349 54.0662 295.283L54.0569 297.283C68.2897 297.349 82.5222 296.906 96.7214 295.966L96.5893 293.97ZM54.0656 295.283C52.8985 295.279 51.7256 295.287 50.5559 295.295L50.57 297.295C51.7416 297.287 52.9034 297.279 54.0574 297.283L54.0656 295.283ZM50.556 295.295C45.1679 295.333 39.8552 295.365 34.8282 294.192L34.3738 296.14C39.6717 297.376 45.2268 297.332 50.57 297.295L50.556 295.295ZM34.8281 294.192C34.2155 294.05 30.1361 292.78 26.3234 291.304C24.4193 290.567 22.6337 289.797 21.4026 289.112C20.7758 288.762 20.3612 288.472 20.1439 288.258C20.0331 288.149 20.0348 288.118 20.0543 288.169C20.0881 288.256 20.1152 288.449 20.0069 288.64L18.2671 287.653C18.0267 288.077 18.0483 288.526 18.1888 288.89C18.3149 289.216 18.5352 289.481 18.7404 289.683C19.1553 290.091 19.7623 290.487 20.4294 290.859C21.7861 291.614 23.6774 292.424 25.6013 293.169C29.4447 294.657 33.6258 295.966 34.374 296.14L34.8281 294.192ZM20.0069 288.64C20.8296 287.189 21.8337 285.676 22.8886 284.088L21.2226 282.981C20.1768 284.556 19.131 286.129 18.267 287.654L20.0069 288.64ZM22.8816 284.098L22.8818 284.098L21.2297 282.971L21.2295 282.971L22.8816 284.098ZM22.8888 284.087C24.2497 282.038 25.6917 279.869 26.8296 277.662C27.9674 275.456 28.8385 273.143 29.0124 270.79L27.0178 270.643C26.872 272.616 26.1304 274.654 25.052 276.746C23.9736 278.837 22.5959 280.913 21.2227 282.981L22.8888 284.087ZM29.0124 270.791C29.5069 264.123 30.5572 257.501 31.6137 250.843L29.6384 250.53C28.5842 257.173 27.5196 263.878 27.0178 270.643L29.0124 270.791ZM31.6137 250.843L31.6384 250.687L29.6631 250.374L29.6384 250.53L31.6137 250.843ZM31.6384 250.687C32.8728 242.913 33.9541 235.118 35.0338 227.333L33.0528 227.059C31.9726 234.846 30.894 242.622 29.6632 250.374L31.6384 250.687ZM35.0356 227.32L35.0356 227.32L33.0511 227.072L33.051 227.072L35.0356 227.32ZM35.0356 227.32L35.0356 227.32L33.0511 227.072L33.0511 227.072L35.0356 227.32ZM35.0336 227.335L35.0336 227.335L33.0531 227.056L33.0531 227.057L35.0336 227.335ZM35.0339 227.333C35.7656 222.058 36.4965 216.788 37.2747 211.527L35.2962 211.234C34.5165 216.506 33.7843 221.785 33.0529 227.058L35.0339 227.333ZM37.2748 211.526C37.6117 209.238 37.9214 206.946 38.2302 204.66L36.2482 204.393C35.9392 206.68 35.6311 208.961 35.2961 211.235L37.2748 211.526ZM38.2306 204.658L38.2306 204.657L36.2479 204.395L36.2479 204.395L38.2306 204.658ZM38.2303 204.66C38.8147 200.335 39.3961 196.033 40.1587 191.764L38.1899 191.413C37.4185 195.73 36.8318 200.074 36.2483 204.392L38.2303 204.66ZM39.2593 192.931L39.8891 192.288L38.4595 190.889L37.8297 191.533L39.2593 192.931ZM13.544 162.276L37.7606 192.853L39.3284 191.611L15.1118 161.034L13.544 162.276ZM23.7016 119.483L13.357 161.416L15.2988 161.895L25.6434 119.962L23.7016 119.483ZM26.3549 118.803L24.7209 118.724L24.624 120.722L26.258 120.801L26.3549 118.803ZM24.9133 117.387L25.3187 119.958L27.2943 119.647L26.8889 117.075L24.9133 117.387Z" fill="black" mask="url(#path-6-inside-1_705_5117)"/>
<path d="M66.0047 166.956C66.0047 166.956 58.0052 164.795 56.8954 182.859C55.7922 200.924 53.9492 246.65 51.3664 259.183C48.7902 271.721 44.9192 296.31 44.9192 296.31L69.4265 297.162L97.4348 294.948C97.4348 294.948 87.8565 277.247 86.3768 264.715C84.9037 252.176 87.48 204.982 81.2177 187.281C74.9555 169.58 73.6409 167.267 66.0047 166.95V166.956Z" fill="black"/>
<path d="M81.1617 194.791L81.2811 194.116L84.8584 197.607L83.7034 199.857L80.2573 199.098L74.9053 195.013L76.1772 193.179L80.4597 195.158L81.0487 195.43L81.1617 194.791Z" fill="white" stroke="black"/>
<path d="M77.1617 152.64C78.3706 156.275 76.62 160.155 75.0809 163.473C73.7135 166.414 73.2445 168.351 76.7059 169.144C78.6546 169.594 82.1226 170.427 83.8335 168.933C85.1282 167.802 84.4016 164.306 83.7674 162.911C83.2852 161.854 82.0103 161.312 81.5611 160.241C81.3762 159.798 81.3497 159.309 81.3431 158.826C81.3167 156.863 81.5876 154.9 82.1424 153.016C82.519 151.741 83.0342 150.485 83.1465 149.156C83.3117 147.233 81.9509 144.992 81.2374 143.221C79.9097 139.929 75.2791 135.52 71.4081 138.098C70.5229 138.686 70.0143 139.678 69.5849 140.649C69.3273 141.231 69.0829 141.833 69.0763 142.467C69.0432 144.992 71.3487 145.422 72.9406 146.618C74.9025 148.099 76.3888 150.313 77.1617 152.633V152.64Z" fill="black"/>
<path d="M69.7963 166.837C73.1587 166.044 75.7877 163.222 77.0494 160.003C78.3111 156.791 78.3772 153.221 78.0271 149.784C76.8645 138.349 62.6423 139.083 57.8267 147.848C53.6321 155.488 60.0198 169.138 69.7897 166.837H69.7963Z" fill="white"/>
<path d="M69.7897 165.601C69.7303 166.904 69.6774 168.206 69.618 169.508C69.6114 169.699 69.5915 169.911 69.4594 170.043C69.3075 170.202 69.0631 170.202 68.8451 170.195C67.7816 170.156 66.7247 170.123 65.6611 170.083C65.1327 170.063 64.591 170.043 64.122 169.792C63.1047 169.25 62.8999 167.869 63.0585 166.732C63.2236 165.588 63.6266 164.438 63.3888 163.314C65.5819 164.392 67.6627 161.953 69.8492 163.037L69.7765 165.601H69.7897Z" fill="white"/>
<path d="M65.2053 129.955C61.4731 131.224 59.0752 135.005 55.4354 136.512C53.348 137.378 50.8709 137.49 49.1666 138.977C45.3485 142.309 48.4135 149.302 45.2758 153.281C44.6218 154.107 43.7433 154.735 43.0893 155.561C41.6757 157.339 41.4907 159.772 41.3652 162.045C41.3388 162.554 41.3322 163.109 41.4181 163.625C41.9069 168.867 49.5167 168.536 52.5421 168.199C55.8582 167.829 54.7551 165.985 54.7551 165.985L54.6361 165.839C54.3191 163.711 55.191 161.437 56.8623 160.082C57.4832 159.58 58.2165 159.177 58.6524 158.509C59.6367 157.009 58.6987 155.019 58.844 153.234C59.4253 146.036 71.5006 147.576 74.9092 142.447C79.0906 136.161 72.2603 127.555 65.2053 129.955Z" fill="black"/>
<path d="M444.223 36.0299L531.531 43.294C539.61 43.9682 545.621 51.0671 544.947 59.1509L540.27 115.466C539.603 123.517 532.555 129.519 524.502 128.897L510.465 127.813L492.603 148.938C492.081 149.553 491.077 149.15 491.13 148.343L492.63 126.333L437.082 121.58C429.016 120.893 423.032 113.801 423.699 105.723L428.369 49.461C429.043 41.3772 436.137 35.3623 444.216 36.0365L444.223 36.0299Z" fill="#24B500"/>
<path d="M445.01 53.1589L444.762 56.0632L514.497 62.0207L514.744 59.1163L445.01 53.1589Z" fill="#FFFFEE"/>
<path d="M443.124 75.3316L442.876 78.2359L526.05 85.3415L526.298 82.4372L443.124 75.3316Z" fill="#FFFFEE"/>
<path d="M441.238 97.5026L440.99 100.407L524.164 107.513L524.412 104.608L441.238 97.5026Z" fill="#FFFFEE"/>
<path d="M379.46 264.51L381.131 303.342L376.223 369.368L368.884 369.89L359.973 309.926L347.634 259.183L379.46 264.51Z" fill="black"/>
<path d="M327.506 250.775L325.894 280.122L330.67 367.391L338.022 367.761L349.034 310.521L358.751 247.754L327.506 250.775Z" fill="black"/>
<path d="M365.698 136.233L366.306 136.367V136.362C366.469 136.399 366.632 136.436 366.795 136.471C367.444 136.616 368.083 136.777 368.637 137.031C369.186 137.282 369.614 137.609 369.879 138.065L369.879 138.066C370.385 138.934 370.175 140.09 369.806 141.304C369.312 142.918 368.681 144.481 368.031 146.055C367.964 146.217 367.897 146.38 367.829 146.542C367.246 147.952 366.656 149.375 366.159 150.832C365.175 153.709 363.495 156.243 360.973 157.907L360.973 157.907C360.323 158.336 359.627 158.691 358.901 158.984L358.601 159.105L358.588 159.428C358.555 160.258 358.524 161.086 358.493 161.914L358.493 161.915C358.463 162.696 358.433 163.475 358.402 164.257C358.188 164.533 357.762 164.791 357.118 164.973C356.42 165.171 355.555 165.255 354.668 165.222C353.782 165.188 352.901 165.037 352.174 164.784C351.568 164.572 351.116 164.305 350.839 164.016C351.344 162.799 351.75 161.542 352.045 160.26L352.161 159.758L351.654 159.658C350.205 159.372 348.809 158.831 347.548 158.045C346.6 157.453 345.739 156.735 345.108 155.853C343.421 153.486 342.99 150.36 343.186 147.09C343.382 143.827 344.197 140.498 344.926 137.785L344.926 137.785L344.927 137.781C345.052 137.301 345.182 136.879 345.402 136.526C345.966 135.631 347.126 135.217 348.391 134.966L348.392 134.966C354.056 133.839 359.911 134.956 365.698 136.233Z" fill="white" stroke="black"/>
<path d="M346.564 138.852C349.417 137.014 353.704 136.221 356.393 136.419C364.511 137.007 367.491 142.976 367.92 150.445C370.159 147.603 374.354 144.02 374.612 140.359C374.816 137.364 374.407 133.273 372.729 130.689C371.157 128.269 367.147 126.934 364.756 125.533C362.503 124.211 360.257 122.889 358.005 121.567C357.536 121.289 357.054 121.012 356.518 120.919C355.884 120.807 355.244 120.972 354.623 121.131C349.305 122.506 343.987 123.88 338.663 125.255C337.639 125.52 336.477 125.903 336.1 126.894C335.869 127.496 336.008 128.164 336.14 128.792C336.741 131.554 337.903 134.377 338.188 137.179C338.511 138.805 339.482 147.14 342.356 146.175C343.201 144.794 343.327 143.088 343.987 141.608C344.476 140.511 345.394 139.598 346.557 138.852H346.564Z" fill="black"/>
<path d="M296.03 361.033L289.312 301.624L297.397 235.123L295.574 220.978L259.474 219.603L258.166 242.632L264.23 301.716L287.033 364.066L296.03 361.033Z" fill="black"/>
<path d="M232.978 226.259L232.885 286.21L244.941 363.379L253.621 363.293L258.397 291.927L269.561 220.496L232.978 226.259Z" fill="black"/>
<path d="M253.066 362.767L253.105 366.651L244.36 371.138L240.237 367.093L244.387 362.853L253.066 362.767Z" fill="white" stroke="black"/>
<mask id="path-25-inside-2_705_5117" fill="white">
<path fill-rule="evenodd" clip-rule="evenodd" d="M275.717 155.977L294.286 146.202L281.543 94.1629L290.322 89.4236L312.491 146.202L291.081 172.061C293.159 177.709 295.602 188.047 296.373 192.516C297.003 196.188 297.61 203.141 298.162 209.471C298.536 213.762 298.886 217.766 299.2 220.271C300.072 227.191 300.693 234.145 300.878 241.111C300.887 241.379 300.91 241.814 300.939 242.376C300.994 243.437 301.073 244.952 301.129 246.65H301.116C301.288 252.123 301.189 259.493 299.095 259.784C298.705 259.837 298.322 259.645 297.978 259.46C296.173 258.495 294.625 257.33 293.085 256.171C291.515 254.99 289.953 253.815 288.136 252.864C284.364 250.894 280.064 249.869 275.849 249.162C269.547 248.078 263.107 247.424 256.692 247.378C249.73 247.325 236.188 248.832 236.188 248.832C233.136 248.349 230.184 247.45 227.251 246.498C212.593 241.208 218.672 232.922 223.581 226.229C224.217 225.363 224.833 224.524 225.381 223.721C228.003 219.885 231.362 208.262 233.865 198.529L226.96 205.339L226.922 205.215L226.868 205.28L216.919 196.066L237.919 158.82L255.788 153.956C255.809 153.951 255.829 153.945 255.849 153.94C255.866 153.935 255.882 153.931 255.899 153.926L256.085 153.876L256.084 153.878C257.858 153.434 259.893 153.345 262.373 153.704C268.156 154.54 272.452 155.238 275.718 155.979L275.717 155.977Z"/>
</mask>
<path fill-rule="evenodd" clip-rule="evenodd" d="M275.717 155.977L294.286 146.202L281.543 94.1629L290.322 89.4236L312.491 146.202L291.081 172.061C293.159 177.709 295.602 188.047 296.373 192.516C297.003 196.188 297.61 203.141 298.162 209.471C298.536 213.762 298.886 217.766 299.2 220.271C300.072 227.191 300.693 234.145 300.878 241.111C300.887 241.379 300.91 241.814 300.939 242.376C300.994 243.437 301.073 244.952 301.129 246.65H301.116C301.288 252.123 301.189 259.493 299.095 259.784C298.705 259.837 298.322 259.645 297.978 259.46C296.173 258.495 294.625 257.33 293.085 256.171C291.515 254.99 289.953 253.815 288.136 252.864C284.364 250.894 280.064 249.869 275.849 249.162C269.547 248.078 263.107 247.424 256.692 247.378C249.73 247.325 236.188 248.832 236.188 248.832C233.136 248.349 230.184 247.45 227.251 246.498C212.593 241.208 218.672 232.922 223.581 226.229C224.217 225.363 224.833 224.524 225.381 223.721C228.003 219.885 231.362 208.262 233.865 198.529L226.96 205.339L226.922 205.215L226.868 205.28L216.919 196.066L237.919 158.82L255.788 153.956C255.809 153.951 255.829 153.945 255.849 153.94C255.866 153.935 255.882 153.931 255.899 153.926L256.085 153.876L256.084 153.878C257.858 153.434 259.893 153.345 262.373 153.704C268.156 154.54 272.452 155.238 275.718 155.979L275.717 155.977Z" fill="#FEFEFE"/>
<path d="M294.286 146.202L294.752 147.086L295.443 146.723L295.257 145.964L294.286 146.202ZM275.717 155.977L275.251 155.093L274.252 155.619L274.895 156.547L275.717 155.977ZM281.543 94.1629L281.068 93.2829L280.388 93.65L280.572 94.4007L281.543 94.1629ZM290.322 89.4236L291.254 89.0599L290.842 88.0064L289.847 88.5437L290.322 89.4236ZM312.491 146.202L313.261 146.839L313.637 146.386L313.423 145.838L312.491 146.202ZM291.081 172.061L290.311 171.423L289.944 171.866L290.142 172.406L291.081 172.061ZM296.373 192.516L297.359 192.347L297.359 192.346L296.373 192.516ZM298.162 209.471L297.166 209.558L298.162 209.471ZM299.2 220.271L298.208 220.396L298.208 220.396L299.2 220.271ZM300.878 241.111L299.879 241.138L299.879 241.146L300.878 241.111ZM300.939 242.376L299.941 242.428L300.939 242.376ZM301.129 246.65V247.65H302.163L302.129 246.617L301.129 246.65ZM301.116 246.65V245.65H300.084L300.117 246.682L301.116 246.65ZM299.095 259.784L299.229 260.775L299.232 260.775L299.095 259.784ZM297.978 259.46L298.453 258.58L298.45 258.578L297.978 259.46ZM293.085 256.171L293.686 255.372L293.085 256.171ZM288.136 252.864L288.599 251.978L288.599 251.977L288.136 252.864ZM275.849 249.162L275.68 250.148L275.684 250.148L275.849 249.162ZM256.692 247.378L256.685 248.377H256.685L256.692 247.378ZM236.188 248.832L236.032 249.819L236.165 249.84L236.299 249.826L236.188 248.832ZM227.251 246.498L226.911 247.439L226.927 247.445L226.942 247.45L227.251 246.498ZM223.581 226.229L222.775 225.638H222.775L223.581 226.229ZM225.381 223.721L224.556 223.157L225.381 223.721ZM233.865 198.529L234.833 198.778L235.732 195.283L233.163 197.817L233.865 198.529ZM226.96 205.339L226.004 205.632L226.487 207.21L227.662 206.051L226.96 205.339ZM226.922 205.215L227.878 204.923L227.341 203.168L226.158 204.57L226.922 205.215ZM226.868 205.28L226.188 206.014L226.956 206.725L227.632 205.925L226.868 205.28ZM216.919 196.066L216.048 195.575L215.66 196.263L216.24 196.799L216.919 196.066ZM237.919 158.82L237.656 157.855L237.253 157.965L237.048 158.329L237.919 158.82ZM255.788 153.956L256.051 154.921L256.056 154.92L255.788 153.956ZM255.849 153.94L255.587 152.975L255.849 153.94ZM255.899 153.926L256.157 154.892L256.161 154.891L255.899 153.926ZM256.085 153.876L257.001 154.276L257.839 152.362L255.822 152.911L256.085 153.876ZM256.084 153.878L255.167 153.478L254.351 155.343L256.327 154.848L256.084 153.878ZM262.373 153.704L262.517 152.714L262.517 152.714L262.373 153.704ZM275.718 155.979L275.497 156.954L278.003 157.522L276.54 155.41L275.718 155.979ZM293.82 145.317L275.251 155.093L276.183 156.862L294.752 147.086L293.82 145.317ZM280.572 94.4007L293.314 146.439L295.257 145.964L282.515 93.925L280.572 94.4007ZM289.847 88.5437L281.068 93.2829L282.018 95.0428L290.797 90.3036L289.847 88.5437ZM313.423 145.838L291.254 89.0599L289.391 89.7874L311.56 146.565L313.423 145.838ZM291.851 172.699L313.261 146.839L311.721 145.564L290.311 171.423L291.851 172.699ZM297.359 192.346C296.581 187.839 294.125 177.439 292.019 171.716L290.142 172.406C292.193 177.98 294.623 188.254 295.388 192.686L297.359 192.346ZM299.158 209.384C298.608 203.077 297.998 196.071 297.359 192.347L295.388 192.685C296.009 196.305 296.611 203.204 297.166 209.558L299.158 209.384ZM300.193 220.146C299.881 217.665 299.533 213.684 299.158 209.384L297.166 209.558C297.539 213.839 297.89 217.867 298.208 220.396L300.193 220.146ZM301.878 241.085C301.692 234.077 301.067 227.09 300.193 220.146L298.208 220.396C299.077 227.293 299.695 234.212 299.879 241.138L301.878 241.085ZM301.938 242.324C301.908 241.757 301.886 241.334 301.878 241.077L299.879 241.146C299.888 241.425 299.912 241.871 299.941 242.428L301.938 242.324ZM302.129 246.617C302.072 244.909 301.993 243.385 301.938 242.324L299.941 242.428C299.996 243.489 300.074 244.995 300.13 246.683L302.129 246.617ZM301.116 247.65H301.129V245.65H301.116V247.65ZM299.232 260.775C300.367 260.617 300.946 259.566 301.257 258.725C301.601 257.789 301.814 256.572 301.95 255.263C302.222 252.63 302.202 249.363 302.116 246.619L300.117 246.682C300.202 249.411 300.218 252.565 299.96 255.058C299.831 256.312 299.637 257.334 299.38 258.033C299.088 258.826 298.869 258.806 298.957 258.794L299.232 260.775ZM297.504 260.341C297.804 260.502 298.469 260.878 299.229 260.775L298.96 258.793C298.971 258.792 298.941 258.799 298.844 258.766C298.742 258.73 298.624 258.672 298.453 258.58L297.504 260.341ZM292.484 256.97C294.016 258.123 295.623 259.335 297.507 260.342L298.45 258.578C296.723 257.655 295.234 256.537 293.686 255.372L292.484 256.97ZM287.672 253.75C289.406 254.657 290.905 255.782 292.484 256.97L293.686 255.372C292.125 254.197 290.5 252.972 288.599 251.978L287.672 253.75ZM275.684 250.148C279.865 250.85 284.042 251.854 287.673 253.75L288.599 251.977C284.686 249.934 280.262 248.889 276.015 248.176L275.684 250.148ZM256.685 248.377C263.037 248.423 269.423 249.071 275.68 250.148L276.019 248.177C269.672 247.085 263.176 246.424 256.7 246.378L256.685 248.377ZM236.188 248.832C236.299 249.826 236.299 249.826 236.299 249.826C236.299 249.826 236.299 249.825 236.299 249.825C236.3 249.825 236.3 249.825 236.301 249.825C236.303 249.825 236.305 249.825 236.308 249.824C236.315 249.824 236.324 249.823 236.337 249.821C236.362 249.818 236.401 249.814 236.451 249.809C236.551 249.798 236.699 249.782 236.89 249.761C237.273 249.72 237.827 249.662 238.514 249.592C239.889 249.452 241.794 249.266 243.916 249.081C248.173 248.711 253.256 248.351 256.685 248.377L256.7 246.378C253.166 246.351 247.998 246.718 243.743 247.089C241.609 247.274 239.693 247.461 238.312 247.602C237.621 247.673 237.063 247.731 236.677 247.773C236.485 247.793 236.335 247.81 236.233 247.821C236.183 247.826 236.144 247.83 236.118 247.833C236.105 247.835 236.095 247.836 236.088 247.837C236.085 247.837 236.082 247.837 236.08 247.837C236.08 247.838 236.079 247.838 236.078 247.838C236.078 247.838 236.078 247.838 236.078 247.838C236.078 247.838 236.078 247.838 236.188 248.832ZM226.942 247.45C229.879 248.403 232.896 249.324 236.032 249.819L236.344 247.844C233.376 247.375 230.488 246.498 227.559 245.547L226.942 247.45ZM222.775 225.638C221.554 227.302 220.219 229.121 219.155 230.979C218.093 232.832 217.25 234.81 217.082 236.806C216.91 238.847 217.449 240.858 219.049 242.697C220.619 244.501 223.164 246.087 226.911 247.439L227.59 245.558C224.009 244.265 221.817 242.83 220.558 241.384C219.329 239.972 218.946 238.502 219.075 236.974C219.208 235.4 219.889 233.721 220.89 231.973C221.888 230.23 223.154 228.503 224.388 226.821L222.775 225.638ZM224.556 223.157C224.018 223.943 223.413 224.769 222.775 225.638L224.388 226.821C225.021 225.958 225.647 225.105 226.207 224.285L224.556 223.157ZM232.896 198.28C231.647 203.138 230.187 208.456 228.716 213.03C227.229 217.652 225.772 221.377 224.556 223.157L226.207 224.285C227.613 222.229 229.146 218.225 230.62 213.643C232.109 209.014 233.58 203.653 234.833 198.778L232.896 198.28ZM227.662 206.051L234.567 199.241L233.163 197.817L226.258 204.627L227.662 206.051ZM225.966 205.508L226.004 205.632L227.916 205.047L227.878 204.923L225.966 205.508ZM227.632 205.925L227.686 205.86L226.158 204.57L226.103 204.635L227.632 205.925ZM216.24 196.799L226.188 206.014L227.547 204.546L217.599 195.332L216.24 196.799ZM237.048 158.329L216.048 195.575L217.791 196.557L238.79 159.311L237.048 158.329ZM255.526 152.991L237.656 157.855L238.182 159.785L256.051 154.921L255.526 152.991ZM255.587 152.975C255.565 152.981 255.543 152.987 255.521 152.993L256.056 154.92C256.074 154.915 256.093 154.91 256.111 154.905L255.587 152.975ZM255.641 152.96C255.623 152.965 255.605 152.97 255.587 152.975L256.111 154.905C256.126 154.901 256.142 154.896 256.157 154.892L255.641 152.96ZM255.822 152.911L255.636 152.961L256.161 154.891L256.347 154.841L255.822 152.911ZM257 154.279L257.001 154.276L255.169 153.475L255.167 153.478L257 154.279ZM262.517 152.714C259.934 152.341 257.765 152.426 255.841 152.908L256.327 154.848C257.95 154.442 259.851 154.349 262.23 154.693L262.517 152.714ZM275.939 155.004C272.63 154.253 268.299 153.551 262.517 152.714L262.23 154.693C268.012 155.53 272.273 156.223 275.497 156.954L275.939 155.004ZM274.895 156.547L274.896 156.548L276.54 155.41L276.539 155.408L274.895 156.547Z" fill="black" mask="url(#path-25-inside-2_705_5117)"/>
<path d="M295.237 362.662L295.237 362.663L295.798 367.01L287.641 372.492L283.07 368.96L286.771 364.165L294.745 358.806L295.237 362.662Z" fill="white" stroke="black"/>
<path d="M288.24 89.3124L284.839 93.5319C284.787 93.5052 284.731 93.4759 284.67 93.4445C284.35 93.2786 283.925 93.0536 283.501 92.8156C283.075 92.5762 282.661 92.3298 282.359 92.1206C282.22 92.0242 282.118 91.9445 282.052 91.8841C282.086 91.4132 282.214 89.9723 282.344 88.5427C282.417 87.7346 282.49 86.9402 282.545 86.3478L282.611 85.6344L282.612 85.6236L284.646 84.4572L284.806 84.3654L284.868 84.1916L285.819 81.5279L285.897 81.3115L285.783 81.112L285.783 81.112L285.783 81.1119L285.782 81.1115L285.781 81.1094L285.776 81.1004L285.755 81.0638C285.737 81.0313 285.71 80.9832 285.676 80.9212C285.608 80.7971 285.51 80.6178 285.395 80.3983C285.163 79.9588 284.86 79.3608 284.572 78.724C284.283 78.0844 284.016 77.4189 283.85 76.8412C283.768 76.5522 283.714 76.2976 283.693 76.0868C283.689 76.0539 283.687 76.0229 283.685 75.9939C283.695 76.0023 283.704 76.0109 283.713 76.0198C284.063 76.3467 284.514 76.9207 284.973 77.5708C285.426 78.2121 285.866 78.897 286.194 79.4236C286.358 79.6864 286.493 79.9088 286.587 80.0652C286.634 80.1434 286.671 80.205 286.696 80.247L286.709 80.2694L287.931 83.7584L288.24 89.3124Z" fill="white" stroke="black"/>
<path d="M246.773 176.554L246.952 177.572L247.065 178.213L247.655 177.939L252.922 175.498L254.582 177.881L247.989 182.911L243.711 183.855L242.238 180.977L246.773 176.554Z" fill="white" stroke="black"/>
<path d="M262.715 156.626C262.561 156.274 262.444 155.886 262.338 155.468C262.289 155.276 262.238 155.058 262.186 154.835C262.118 154.544 262.048 154.244 261.978 153.981C261.715 152.995 261.319 151.952 260.324 151.319L260.323 151.318C259.763 150.963 259.137 150.832 258.582 150.736C258.487 150.72 258.394 150.705 258.303 150.69C257.838 150.612 257.429 150.545 257.046 150.396C256.22 150.073 255.617 149.416 255.15 148.555C254.679 147.689 254.368 146.659 254.105 145.652L254.105 145.651L252.718 140.378C252.718 140.378 252.718 140.378 252.718 140.377C252.215 138.447 251.774 136.558 252.375 134.868C252.762 133.784 253.565 132.862 254.512 132.062C258.045 129.081 263.04 128.075 267.645 128.874C269.475 129.194 271.24 129.857 272.124 131.253L272.124 131.254C272.637 132.061 272.817 133.043 273.005 134.118L262.715 156.626ZM262.715 156.626C263.247 156.847 264.118 157.01 265.211 156.995C266.397 156.977 267.802 156.748 269.239 156.186C269.656 156.021 269.93 155.621 269.926 155.19C269.9 153.395 269.756 151.599 269.495 149.824L269.435 149.416L269.825 149.279C270.938 148.889 272.093 148.414 273.011 147.766C273.924 147.122 274.557 146.341 274.722 145.346L274.722 145.345C274.831 144.703 274.725 144.033 274.591 143.282L274.59 143.279L273.005 134.119L262.715 156.626Z" fill="white" stroke="black"/>
<path d="M235.072 126.551C234.61 125.791 234.108 125.05 233.546 124.363C232.337 122.869 230.838 121.587 229.867 119.928C228.889 118.269 228.546 116.021 229.721 114.488C230.475 113.503 231.703 113.007 232.892 112.657C236.816 111.5 241.05 111.421 245.014 112.432C248.792 113.397 252.168 114.984 255.973 113.569C259.546 112.234 262.123 112.776 265.855 114.111C269.898 115.552 275.314 115.896 278.974 117.932C280.5 118.784 281.722 120.113 282.666 121.58C285.956 126.663 285.976 133.676 282.713 138.779C281.979 139.922 281.108 140.967 280.183 141.971C278.274 144.04 275.995 146.592 273.379 147.358C273.319 145.012 275.453 137.616 273.65 135.692C270.789 132.638 264.329 133.703 260.782 134.456C256.917 135.276 253.469 138.019 249.631 138.6C246.87 139.023 243.349 137.668 241.004 136.241C238.111 134.476 236.763 129.34 235.065 126.557L235.072 126.551Z" fill="black"/>
<path d="M139.421 366.036L139.025 369.982L146.502 374.721L150.842 371.179L147.302 366.836L139.824 362.09L139.421 366.036Z" fill="black"/>
<path d="M149.095 311.322L149.112 311.229L149.093 311.137L138.42 257.691L139.585 246.21L169.105 244.299L172.417 284.045L171.064 303.377L146.502 366.466L139.706 364.373L149.095 311.322Z" fill="white" stroke="black"/>
<path d="M176.403 305.271L176.402 305.249L176.398 305.227L166.882 245.65L196.677 250.246L196.919 300.371L187.029 365.077L180.592 365.031L176.403 305.271Z" fill="white" stroke="black"/>
<path d="M180.152 368.621L188.046 372.639L192.036 368.7L188.099 364.708L180.178 364.655L180.152 368.621Z" fill="black"/>
<path d="M161.773 159.101C160.162 155.973 159.564 152.398 160.45 149.355L160.558 149.029C162.154 144.213 166.472 140.962 170.783 140.319C172.931 139.999 175.056 140.329 176.839 141.412C178.616 142.491 180.095 144.343 180.914 147.148C181.922 150.613 182.513 154.231 181.841 157.693C181.171 161.147 179.071 164.406 175.941 165.796C175.908 165.807 175.848 165.831 175.786 165.873L175.524 166.048L175.568 166.359C175.634 166.821 175.698 167.284 175.763 167.749L175.763 167.75C175.827 168.213 175.891 168.677 175.958 169.14C175.971 169.243 175.978 169.304 175.976 169.355C175.975 169.364 175.974 169.372 175.974 169.378C175.969 169.38 175.962 169.382 175.955 169.385C175.9 169.405 175.827 169.419 175.713 169.436L175.712 169.436C175.157 169.519 174.604 169.601 174.05 169.684C173.498 169.767 172.945 169.849 172.39 169.932C171.815 170.015 171.363 170.074 170.966 169.944L170.964 169.944C170.552 169.812 170.231 169.492 170 169.027C169.767 168.559 169.644 167.981 169.62 167.424L169.62 167.423C169.608 167.152 169.614 166.878 169.62 166.577L169.628 166.212L169.283 166.093C166.157 165.021 163.443 162.342 161.773 159.101ZM175.99 169.369C175.99 169.369 175.99 169.369 175.989 169.37L175.99 169.369Z" fill="white" stroke="black"/>
<path d="M177.873 131.779C180.548 131.383 182.821 133.974 185.291 135.335C187.345 136.465 189.671 136.769 191.798 137.708C193.925 138.647 196.012 140.61 196.058 143.062C198.212 141.938 200.55 140.788 202.961 141.258C205.379 141.72 207.618 144.609 206.654 146.988C205.795 149.117 203.014 149.619 202.089 151.714C200.63 155.032 204.58 160.181 201.885 162.382C201.237 162.911 200.352 163.037 199.718 163.585C198.925 164.26 198.674 165.423 198.318 166.454C196.719 171.134 192.009 174.187 187.352 173.566C184.459 172.211 182.147 169.402 181.116 166.196C179.868 162.329 181.935 160.974 182.285 157.346C182.669 153.373 181.407 149.176 178.91 146.089C177.285 144.087 174.96 142.355 172.502 142.117C171.505 142.024 171.815 142.857 170.692 142.084C170.21 141.753 169.55 140.497 169.417 139.896C172.106 137.735 174.352 132.314 177.873 131.792V131.779Z" fill="black"/>
<path d="M148.96 136.928C147.579 137.311 146.086 137.259 144.772 137.834C142.796 138.7 142.915 140.749 142.36 142.527C141.74 144.496 140.841 147.147 139.546 148.674C138.608 149.778 137.3 150.405 136.158 151.258C135.015 152.111 133.971 153.367 133.991 154.907C134.011 156.361 134.995 157.67 135.134 159.124C135.306 161.292 134.936 162.402 135.603 164.616C135.946 165.76 136.336 166.97 137.188 167.75C138.318 168.774 139.93 168.754 141.343 168.523C142.757 168.285 144.217 167.895 145.61 168.364C148.636 169.382 148.068 172.442 148.874 175.007C150.096 178.907 154.621 181.187 158.082 179.799C161.015 178.623 162.713 175.212 162.581 171.854C162.515 170.169 161.847 168.602 161.795 166.917C161.748 165.291 162.667 163.037 161.193 161.748C160.837 161.431 160.374 161.265 160.051 160.908C159.793 160.618 159.648 160.228 159.555 159.844C159.245 158.502 159.535 157.035 160.328 156.004C160.896 155.264 161.715 154.722 162.059 153.829C162.455 152.805 162.145 151.615 162.072 150.485C161.907 147.755 163.4 145.078 165.672 144.02C167.172 143.326 168.519 142.917 169.827 141.859C170.025 141.7 173.004 139.063 173.084 139.632C172.952 138.64 172.37 137.774 171.789 136.981C170.825 135.672 169.754 134.403 168.4 133.617C164.014 131.085 163.803 136.968 160.282 136.194C159.43 136.009 158.796 135.229 158.029 134.767C156.583 133.888 154.812 134.205 153.339 134.859C151.866 135.52 150.512 136.492 148.96 136.922V136.928Z" fill="black"/>
<path d="M437.143 268.616L468.157 258.204L460.104 313.072L460.097 313.121L460.099 313.17L462.689 364.703H457.729L444.192 318.87L438.073 272.957L438.071 272.938L438.066 272.919L437.143 268.616Z" fill="white" stroke="black"/>
<path d="M457.005 364.509L463.532 364.536L465.038 370.088L464.873 370.128L464.919 370.134L453.953 376.215L448.814 376.638L448.332 370.762L449.745 369.784L457.005 364.509Z" fill="black"/>
<path d="M431.966 313.43L431.961 313.451L431.957 313.473L423.694 367.893L419.036 367.316L412.042 269.031L444.241 263.061L431.966 313.43Z" fill="white" stroke="black"/>
<path d="M418.289 366.763L409.801 371.265L410.468 375.23L425.463 373.413L424.749 367.702L418.289 366.763Z" fill="black"/>
<path fill-rule="evenodd" clip-rule="evenodd" d="M493.602 151.391C495.716 151.522 500.108 150.26 501.164 148.634C503.306 145.339 499.534 145.569 496.863 145.732C496.271 145.769 495.732 145.801 495.325 145.792C495.354 145.703 495.383 145.615 495.413 145.528C495.642 144.842 495.865 144.174 495.952 143.465C496.045 142.732 489.373 144.635 488.732 145.336C488.296 145.811 488.04 146.254 487.9 146.691L487.306 146.202L469.556 169.779L452.324 169.048C450.825 162.896 449.787 158.355 450.023 158.337C448.243 158.467 446.058 158.461 443.693 158.455C436.422 158.437 427.459 158.414 423.402 162.31C423.25 162.455 423.104 162.607 422.966 162.766C421.27 164.701 419.903 167.44 418.746 170.41L396.08 186.958L371.216 176.21L367.57 182.919L386.396 195.755L396.952 199.701L411.819 192.54C410.534 197.368 409.475 202.256 408.651 207.183C407.455 214.296 406.749 221.48 406.247 228.672C405.997 232.27 406.009 235.859 406.02 239.431C406.029 241.993 406.038 244.546 405.949 247.087C405.757 252.683 404.329 258.668 402.988 264.289L402.988 264.289C402.715 265.433 402.445 266.562 402.191 267.67C400.671 274.266 398.749 280.783 396.087 287.016C403.294 290.209 411.313 291.068 419.194 291.101C422.919 291.117 426.642 290.954 430.364 290.791C434.515 290.609 438.664 290.427 442.816 290.493C444.347 290.517 445.883 290.574 447.42 290.631C452.565 290.822 457.72 291.012 462.745 289.984C467.586 288.992 472.076 286.914 476.575 284.832C476.748 284.752 476.921 284.672 477.094 284.592C477.248 284.521 477.402 284.45 477.556 284.379L477.549 284.372C478.223 268.159 463.75 216.596 463.75 216.596C462.217 211.751 461.054 206.82 460.354 201.882C460.189 200.711 458.911 195.497 457.305 189.061L477.199 185.748L493.977 151.701L493.602 151.391Z" fill="black"/>
<path d="M425.179 141.377C421.869 143.016 418.414 147.233 418.626 151.166C418.731 153.056 419.775 154.53 419.802 156.559C419.874 160.558 425.938 164.749 422.226 168.609C420.317 170.592 417.338 170.982 414.603 171.253C414.273 171.286 413.922 171.319 413.619 171.187C413.11 170.975 412.866 170.374 412.879 169.825C412.892 169.276 413.103 168.754 413.268 168.232C415.012 162.759 412.383 156.368 412.073 150.789C411.762 145.223 413.083 139.209 417.641 135.58C420.7 136.512 422.979 137.807 424.485 140.63L425.179 141.383V141.377Z" fill="black"/>
<path d="M427.233 165.139C423.461 164.663 420.257 161.88 418.494 158.502C416.736 155.131 416.248 151.232 416.228 147.424C416.168 134.767 431.824 133.907 438.119 142.95C443.602 150.828 438.198 166.52 427.226 165.139H427.233Z" fill="white"/>
<path d="M446.192 166.685C444.249 166.13 442.321 165.522 440.821 163.876C438.39 161.219 437.664 156.222 436.521 152.911C435.312 149.421 433.885 145.653 430.721 143.763C428.653 142.527 426.572 142.626 424.3 143.029C422.748 143.307 422.801 143.901 421.334 143.333C420.205 142.89 418.976 141.158 418.527 140.094C417.767 138.296 418.137 136.168 419.088 134.463C420.555 131.839 422.596 130.279 425.456 129.651C435.497 127.45 444.236 131.944 449.006 141.244C451.298 145.713 451.324 151.185 453.676 155.455C455.129 158.093 457.296 159.613 458.617 162.468C462.039 169.871 468.281 178.98 469.53 187.083C469.576 187.381 469.602 187.718 469.424 187.962C469.047 188.451 468.275 188.094 467.786 187.718C464.952 185.484 462.118 183.256 459.284 181.022C458.174 180.143 457.045 179.251 456.212 178.107C454.151 175.245 454.099 171.028 451.331 168.847C449.818 167.657 448.002 167.194 446.205 166.679L446.192 166.685Z" fill="black"/>
<path d="M104.708 30.4711L0.687056 38.9184C0.284106 38.9514 -0.00654641 39.3282 0.0264823 39.7512L6.55295 117.277C6.58598 117.707 6.94269 118.031 7.34564 117.998L30.8555 116.088L48.8627 137.014C49.3912 137.622 50.4019 137.219 50.349 136.426L48.8495 114.627L89.5144 111.322C101.979 110.311 111.181 98.6708 110.058 85.319L105.5 31.1849C105.467 30.7553 105.111 30.4314 104.708 30.4645V30.4711Z" fill="#FD9A07"/>
<path d="M93.1211 47.1079L28.332 52.3693L28.1074 49.7188L92.9031 44.4574L93.1211 47.1079Z" fill="#FFFFEE"/>
<path d="M94.8255 67.3272L17.5449 73.6065L17.3269 70.956L94.6009 64.6767L94.8255 67.3272Z" fill="#FFFFEE"/>
<path d="M96.5298 87.5531L19.2493 93.8324L19.0247 91.1819L96.3052 84.9026L96.5298 87.5531Z" fill="#FFFFEE"/>
<path d="M314.414 57.0754C314.414 34.622 340.183 16.4187 371.976 16.4187C403.769 16.4187 429.538 34.622 429.538 57.0754C429.538 79.5288 403.769 97.7322 371.976 97.7322C370.714 97.7322 369.459 97.6991 368.217 97.6462C367.656 97.6198 367.213 98.1288 367.312 98.684L371.897 123.715C372.055 124.588 370.972 125.123 370.377 124.462L340.427 91.162C340.348 91.0761 340.255 91.0034 340.15 90.9571C324.639 83.6732 314.414 71.2204 314.414 57.082V57.0754Z" fill="#FD9A07"/>
<path d="M396.463 62.046C393.141 62.046 393.141 56.8837 396.463 56.8837C399.786 56.8837 399.786 62.046 396.463 62.046Z" fill="#ECE9DE"/>
<path d="M373.244 62.046C369.922 62.046 369.922 56.8837 373.244 56.8837C376.567 56.8837 376.567 62.046 373.244 62.046Z" fill="#ECE9DE"/>
<path d="M344.225 62.046C340.902 62.046 340.902 56.8837 344.225 56.8837C347.548 56.8837 347.548 62.046 344.225 62.046Z" fill="#ECE9DE"/>
<mask id="path-55-inside-3_705_5117" fill="white">
<path fill-rule="evenodd" clip-rule="evenodd" d="M374.649 180.934L384.665 218.77L388.041 246.34C388.972 255.25 389.686 266.929 381.211 265.085C374.036 263.756 365.72 265.3 353.081 267.647L353.081 267.647L353.08 267.647C348.182 268.557 342.634 269.587 336.252 270.617C322.948 272.766 319.804 260.108 319.262 257.219C319.4 249.208 319.714 240.208 320.34 231.21L306.031 207.573L307.874 196.879L338.828 164.431L345.459 162.41C346.619 161.92 347.303 161.847 347.303 161.847L367.461 164.009L381.131 149.229L377.419 103.053L384.342 100.006L393.762 146.856L390.881 158.529L374.649 180.934ZM318.555 204.989L321.906 214.649C322.497 209.89 323.21 205.321 324.069 201.109L318.555 204.989Z"/>
</mask>
<path fill-rule="evenodd" clip-rule="evenodd" d="M374.649 180.934L384.665 218.77L388.041 246.34C388.972 255.25 389.686 266.929 381.211 265.085C374.036 263.756 365.72 265.3 353.081 267.647L353.081 267.647L353.08 267.647C348.182 268.557 342.634 269.587 336.252 270.617C322.948 272.766 319.804 260.108 319.262 257.219C319.4 249.208 319.714 240.208 320.34 231.21L306.031 207.573L307.874 196.879L338.828 164.431L345.459 162.41C346.619 161.92 347.303 161.847 347.303 161.847L367.461 164.009L381.131 149.229L377.419 103.053L384.342 100.006L393.762 146.856L390.881 158.529L374.649 180.934ZM318.555 204.989L321.906 214.649C322.497 209.89 323.21 205.321 324.069 201.109L318.555 204.989Z" fill="white"/>
<path d="M374.649 180.934L373.839 180.348L373.561 180.732L373.682 181.19L374.649 180.934ZM384.665 218.77L385.658 218.649L385.65 218.581L385.632 218.514L384.665 218.77ZM388.041 246.34L389.036 246.236L389.035 246.227L389.034 246.218L388.041 246.34ZM381.211 265.085L381.423 264.108L381.408 264.105L381.393 264.102L381.211 265.085ZM353.081 267.647L352.898 266.664L352.852 266.673L352.806 266.686L353.081 267.647ZM353.081 267.647L353.252 268.633L353.305 268.624L353.356 268.609L353.081 267.647ZM353.08 267.647L352.909 266.662L352.898 266.664L353.08 267.647ZM336.252 270.617L336.093 269.63L336.093 269.63L336.252 270.617ZM319.262 257.219L318.262 257.202L318.26 257.304L318.279 257.404L319.262 257.219ZM320.34 231.21L321.337 231.28L321.359 230.964L321.195 230.693L320.34 231.21ZM306.031 207.573L305.045 207.404L304.982 207.772L305.175 208.091L306.031 207.573ZM307.874 196.879L307.15 196.189L306.94 196.409L306.888 196.709L307.874 196.879ZM338.828 164.431L338.537 163.475L338.286 163.551L338.105 163.741L338.828 164.431ZM345.459 162.41L345.75 163.366L345.8 163.351L345.848 163.331L345.459 162.41ZM347.303 161.847L347.41 160.853L347.304 160.841L347.197 160.853L347.303 161.847ZM367.461 164.009L367.354 165.003L367.854 165.057L368.195 164.688L367.461 164.009ZM381.131 149.229L381.866 149.908L382.163 149.586L382.128 149.149L381.131 149.229ZM377.419 103.053L377.016 102.138L376.365 102.424L376.422 103.133L377.419 103.053ZM384.342 100.006L385.322 99.8088L385.077 98.5897L383.939 99.0907L384.342 100.006ZM393.762 146.856L394.733 147.096L394.786 146.878L394.742 146.659L393.762 146.856ZM390.881 158.529L391.691 159.116L391.806 158.958L391.852 158.768L390.881 158.529ZM321.906 214.649L320.962 214.977L322.899 214.772L321.906 214.649ZM318.555 204.989L317.98 204.171L317.364 204.605L317.61 205.317L318.555 204.989ZM324.069 201.109L325.048 201.308L325.551 198.843L323.493 200.291L324.069 201.109ZM373.682 181.19L383.699 219.026L385.632 218.514L375.616 180.678L373.682 181.19ZM383.673 218.892L387.048 246.461L389.034 246.218L385.658 218.649L383.673 218.892ZM387.046 246.444C387.515 250.924 387.902 255.919 387.173 259.548C386.808 261.361 386.194 262.672 385.325 263.436C384.509 264.152 383.313 264.519 381.423 264.108L380.998 266.062C383.346 266.573 385.239 266.172 386.644 264.939C387.995 263.752 388.734 261.932 389.134 259.942C389.933 255.965 389.499 250.665 389.036 246.236L387.046 246.444ZM381.393 264.102C373.994 262.731 365.464 264.331 352.898 266.664L353.264 268.631C365.976 266.27 374.079 264.781 381.028 266.068L381.393 264.102ZM352.806 266.686L352.806 266.686L353.356 268.609L353.356 268.609L352.806 266.686ZM352.91 266.662L352.909 266.662L353.252 268.633L353.252 268.633L352.91 266.662ZM352.898 266.664C347.999 267.574 342.462 268.602 336.093 269.63L336.411 271.605C342.806 270.572 348.365 269.54 353.263 268.631L352.898 266.664ZM336.093 269.63C332.932 270.141 330.435 269.764 328.454 268.917C326.467 268.067 324.939 266.718 323.762 265.196C321.39 262.126 320.506 258.425 320.245 257.035L318.279 257.404C318.56 258.902 319.518 262.975 322.18 266.419C323.52 268.153 325.306 269.746 327.668 270.756C330.034 271.768 332.919 272.169 336.411 271.605L336.093 269.63ZM320.262 257.237C320.4 249.237 320.713 240.255 321.337 231.28L319.342 231.141C318.715 240.16 318.401 249.179 318.262 257.202L320.262 257.237ZM321.195 230.693L306.886 207.056L305.175 208.091L319.484 231.728L321.195 230.693ZM307.016 207.743L308.859 197.049L306.888 196.709L305.045 207.404L307.016 207.743ZM308.597 197.569L339.552 165.122L338.105 163.741L307.15 196.189L308.597 197.569ZM339.12 165.388L345.75 163.366L345.167 161.453L338.537 163.475L339.12 165.388ZM345.848 163.331C346.379 163.107 346.791 162.982 347.06 162.915C347.194 162.881 347.292 162.861 347.352 162.851C347.381 162.846 347.401 162.843 347.411 162.841C347.416 162.841 347.418 162.84 347.418 162.84C347.418 162.84 347.417 162.84 347.416 162.841C347.415 162.841 347.414 162.841 347.413 162.841C347.413 162.841 347.412 162.841 347.411 162.841C347.411 162.841 347.411 162.841 347.41 162.841C347.41 162.841 347.41 162.841 347.41 162.841C347.41 162.841 347.409 162.841 347.303 161.847C347.197 160.853 347.197 160.853 347.197 160.853C347.197 160.853 347.196 160.853 347.196 160.853C347.196 160.853 347.195 160.853 347.195 160.853C347.194 160.853 347.193 160.853 347.193 160.853C347.191 160.853 347.189 160.854 347.187 160.854C347.183 160.854 347.178 160.855 347.173 160.855C347.162 160.857 347.148 160.859 347.132 160.861C347.1 160.865 347.057 160.872 347.005 160.881C346.899 160.9 346.754 160.929 346.572 160.975C346.208 161.066 345.699 161.223 345.07 161.488L345.848 163.331ZM347.197 162.841L367.354 165.003L367.567 163.014L347.41 160.853L347.197 162.841ZM368.195 164.688L381.866 149.908L380.397 148.55L366.727 163.33L368.195 164.688ZM382.128 149.149L378.416 102.973L376.422 103.133L380.135 149.309L382.128 149.149ZM377.822 103.968L384.745 100.921L383.939 99.0907L377.016 102.138L377.822 103.968ZM383.361 100.203L392.781 147.053L394.742 146.659L385.322 99.8088L383.361 100.203ZM392.791 146.616L389.911 158.289L391.852 158.768L394.733 147.096L392.791 146.616ZM390.072 157.942L373.839 180.348L375.459 181.521L391.691 159.116L390.072 157.942ZM322.851 214.321L319.5 204.661L317.61 205.317L320.962 214.977L322.851 214.321ZM323.089 200.909C322.224 205.152 321.507 209.748 320.914 214.526L322.899 214.772C323.487 210.032 324.197 205.489 325.048 201.308L323.089 200.909ZM319.131 205.807L324.644 201.926L323.493 200.291L317.98 204.171L319.131 205.807Z" fill="black" mask="url(#path-55-inside-3_705_5117)"/>
<path d="M377.365 95.6632L377.675 95.5358V95.2007V91.0113L379.694 87.2869L383.842 89.7107V99.6798L377.69 102.388L375.314 96.5054L377.365 95.6632Z" fill="white" stroke="black"/>
<path d="M217.421 0.158655L301.671 2.07258e-05C309.472 -0.0131988 315.801 6.29914 315.821 14.1053L315.926 68.4443C315.939 76.2174 309.684 82.5429 301.915 82.6024L288.374 82.7082L272.982 104.408C272.533 105.043 271.536 104.732 271.522 103.959L271.166 82.7478L217.547 82.728C209.759 82.728 203.45 76.4156 203.43 68.6227L203.325 14.33C203.312 6.52387 209.62 0.191704 217.421 0.171875V0.158655Z" fill="#2956A6"/>
<path d="M286.841 16.5178H219.535V19.327H286.841V16.5178Z" fill="#FFFFEF"/>
<path d="M299.808 37.9137H219.535V40.7229H299.808V37.9137Z" fill="#FFFFEF"/>
<path d="M299.802 59.3095H219.529V62.1187H299.802V59.3095Z" fill="#FFFFEF"/>
<path d="M215.737 73.4082C215.559 62.6541 206.76 54.068 196.039 54.1275C196.045 53.7904 196.052 53.4533 196.045 53.1096C195.827 39.976 185.014 29.4995 171.881 29.7176C164.741 29.8366 158.386 33.0952 154.112 38.1583C150.01 33.6306 144.051 30.8214 137.465 30.9338C125.74 31.1255 116.307 40.4717 115.865 52.0586C115.369 52.0322 114.867 52.0124 114.359 52.019C103.538 52.1974 94.9047 61.1206 95.083 71.9474C95.2284 80.6591 101.028 87.9431 108.922 90.3689C107.984 92.6757 107.482 95.2006 107.522 97.8512C107.693 108.334 116.327 116.689 126.797 116.511C127.603 116.497 128.389 116.431 129.162 116.319L129.499 136.617C129.525 137.497 130.662 137.834 130.972 137.378L143.53 119.115C146.562 121.058 150.175 122.162 154.046 122.096C161.061 121.977 167.125 118.064 170.309 112.34C173.599 114.323 177.463 115.446 181.585 115.374C193.284 115.182 202.605 105.538 202.413 93.8324C202.407 93.3235 202.373 92.8211 202.327 92.3188C210.228 89.6815 215.862 82.1595 215.717 73.3884L215.737 73.4082Z" fill="#24B500"/>
<path d="M178.421 76.105C175.528 76.1512 175.594 80.6525 178.494 80.6062C181.387 80.56 181.321 76.0587 178.421 76.105Z" fill="#ECE9DE"/>
<path d="M158.181 76.4421C155.288 76.4883 155.354 80.9896 158.254 80.9433C161.147 80.8971 161.081 76.3958 158.181 76.4421Z" fill="#ECE9DE"/>
<path d="M132.881 76.8585C129.988 76.9048 130.054 81.406 132.954 81.3598C135.847 81.3135 135.781 76.8122 132.881 76.8585Z" fill="#ECE9DE"/>
<path fill-rule="evenodd" clip-rule="evenodd" d="M194.649 182.133C195.373 185.265 195.675 188.522 195.966 191.736C196.229 194.656 196.464 197.58 196.699 200.502L196.699 200.502L196.699 200.503C197.835 214.664 198.971 228.805 203.351 242.387L203.358 242.38C204.226 245.067 205.093 247.756 205.96 250.444C206.827 253.133 207.694 255.821 208.563 258.508C199.183 264.067 188.865 265.568 178.223 266.618C170.448 267.385 162.581 267.2 154.839 266.176C146.106 265.026 137.532 262.825 129.248 259.857C128.825 259.705 128.376 259.553 127.914 259.401C124.468 256.922 125.832 252.66 127.704 246.812C128.577 244.083 129.561 241.008 130.219 237.608C131.586 230.529 133.852 223.609 136.204 216.801C138.141 211.194 140.892 206.425 143.754 201.464L143.755 201.463C144.513 200.149 145.279 198.821 146.04 197.46C147.558 194.747 149.024 191.295 150.464 187.663L123.812 173.93L115.957 131.449L122.55 128.851L136.488 161.735L159.327 167.68C160.509 166.065 161.708 165.119 162.937 165.158C164.166 165.234 165.429 165.29 166.709 165.347H166.709C171.815 165.573 177.206 165.811 181.922 167.359C182.69 167.613 183.441 167.901 184.169 168.229L202.988 149.381L191.448 115.579L198.093 113.12L220.559 150.002L194.649 182.133Z" fill="black"/>
</g>
<path d="M190.218 112.032L190.911 111.971L191.613 111.908L191.322 111.266L189.525 107.305L191.65 106.234L195.7 111.409L196.253 114.519L193.669 115.46L190.218 112.032Z" fill="white" stroke="black"/>
<path d="M120.479 123.656L121.178 123.229L121.318 127.76L118.635 128.521L116.521 125.802L115.467 119.784L117.926 119.386L119.763 123.436L119.996 123.951L120.479 123.656Z" fill="white" stroke="black"/>
<path d="M380.28 372.398L377.239 375.355L369.62 372.693L369.406 370.176L376.655 369.743L380.28 372.398Z" fill="white" stroke="black"/>
<path d="M337.493 368.391L337.344 370.913L329.795 373.708L326.681 370.804L330.236 368.085L337.493 368.391Z" fill="white" stroke="black"/>
<defs>
<clipPath id="clip0_705_5117">
<rect width="545" height="402" fill="white"/>
</clipPath>
</defs>
</svg>
