<svg width="69" height="69" viewBox="0 0 69 69" fill="none" xmlns="http://www.w3.org/2000/svg">
<path d="M0 34.5C0 53.5506 15.4494 69 34.5 69C53.5506 69 69 53.5506 69 34.5C69 15.4494 53.5506 0 34.5 0C15.4494 0 0 15.4494 0 34.5Z" fill="#62B160"/>
<path fill-rule="evenodd" clip-rule="evenodd" d="M51.0902 18.3359C42.5408 9.78645 28.6858 9.8002 20.1364 18.3359C13.1402 25.3321 11.7107 36.1494 16.6452 44.7125L13.5388 56.0522L25.1396 53.0145C28.3422 54.7602 31.9434 55.6811 35.5996 55.6811C47.6814 55.6811 57.4816 45.8809 57.4816 33.799C57.4816 27.9986 55.1725 22.4319 51.0765 18.3359H51.0902ZM35.5996 51.9974C32.342 51.9974 29.1394 51.1177 26.3492 49.4546L25.6894 49.056L18.8032 50.8566L20.645 44.149L20.2052 43.4618C14.8721 34.9536 17.4424 23.7239 25.9506 18.3908C34.4587 13.0578 45.6884 15.6281 51.0215 24.1363C56.3546 32.6444 53.7842 43.8741 45.2761 49.2072C42.3759 51.0215 39.0221 51.9837 35.6133 51.9837L35.5996 51.9974ZM45.5922 38.3623C45.0424 38.0874 42.3621 36.7679 41.8536 36.5892C41.345 36.4106 40.9876 36.3143 40.6303 36.8641C40.2729 37.4139 39.2145 38.6372 38.8984 39.0084C38.5822 39.3795 38.2661 39.4207 37.7163 39.1458C36.1081 38.4998 34.6099 37.5926 33.3179 36.438C32.1221 35.3384 31.105 34.0602 30.2803 32.6444C29.9641 32.0946 30.2528 31.806 30.5139 31.5311C30.7613 31.2837 31.0637 30.8851 31.3386 30.5689C31.5585 30.294 31.751 29.9916 31.8884 29.6617C32.0396 29.3594 32.0259 28.9882 31.8472 28.6996C31.7097 28.4247 30.6239 25.7307 30.1565 24.6448C29.7167 23.5727 29.2631 23.7239 28.9332 23.7102C28.6034 23.6964 28.246 23.6964 27.8886 23.6964C27.3251 23.7102 26.8028 23.9576 26.4316 24.3837C25.1808 25.5657 24.4936 27.2151 24.5211 28.947C24.6998 31.0088 25.4695 32.9743 26.7478 34.5962C27.0227 34.9536 30.5964 40.4791 36.0944 42.8432C37.1115 43.2831 38.1561 43.6679 39.2145 43.9978C40.3279 44.3414 41.5099 44.4102 42.6645 44.2177C44.204 43.9016 45.5372 42.9669 46.3482 41.6199C46.6918 40.809 46.8018 39.9018 46.6368 39.0359C46.4994 38.8022 46.142 38.6785 45.5922 38.4036" fill="white"/>
</svg>
