<svg aria-hidden="true" version="1.1" xmlns="http://www.w3.org/2000/svg" xmlns:xlink="http://www.w3.org/1999/xlink" display="none">
	<defs>

		<symbol id="jt_icon-arrow-bottom" viewBox="0 0 11.6 7.5">
			<path fill="currentColor" d="M5,7.1L0.2,1.7C-0.3,1,0.1,0,1,0h9.6c0.2,0,0.4,0.1,0.5,0.2c0.2,0.1,0.3,0.3,0.4,0.4s0.1,0.4,0.1,0.6
			c0,0.2-0.1,0.4-0.2,0.5L6.6,7.1C6.5,7.2,6.3,7.3,6.2,7.4S5.9,7.5,5.8,7.5c-0.1,0-0.3,0-0.4-0.1C5.3,7.3,5.1,7.2,5,7.1L5,7.1z"></path>
		</symbol>

		<symbol id="jt_icon-location" viewBox="0 0 12 18">
			<path fill="currentColor" d="M6 0C2.68286 0 0 2.817 0 6.3C0 11.025 6 18 6 18C6 18 12 11.025 12 6.3C12 2.817 9.31714 0 6 0ZM6 8.55C5.43168 8.55 4.88663 8.31295 4.48477 7.89099C4.08291 7.46903 3.85714 6.89674 3.85714 6.3C3.85714 5.70326 4.08291 5.13097 4.48477 4.70901C4.88663 4.28705 5.43168 4.05 6 4.05C6.56832 4.05 7.11337 4.28705 7.51523 4.70901C7.91709 5.13097 8.14286 5.70326 8.14286 6.3C8.14286 6.89674 7.91709 7.46903 7.51523 7.89099C7.11337 8.31295 6.56832 8.55 6 8.55Z"></path>
		</symbol>

		<symbol id="jt_icon-facebook" viewBox="0 0 16 16">
			<path fill="currentColor" d="M16,8c0,4-2.9,7.3-6.7,8v-5.6h1.9L11.5,8H9.3V6.5c0-0.6,0.3-1.3,1.3-1.3h1v-2c0,0-0.9-0.2-1.8-0.2
			c-1.8,0-3,1.1-3,3.1v1.8h-2v2.3h2V16C2.9,15.4,0,12.1,0,8.1C0,3.6,3.6,0,8,0C12.4,0,16,3.6,16,8z"></path>
		</symbol>

		<symbol id="jt_icon-facebook-2" viewBox="0 0 8 16">
			<path fill="currentColor" d="M8,5.8L7.9,8.5H5V16H2V8.5H0V5.8h2V3.5C2,1.7,3.2,0,6,0c1.1,0,2,0.1,2,0.1L7.9,2.6c0,0-0.8,0-1.8,0
	C5.1,2.6,5,3.1,5,3.8v2H8z"></path>
		</symbol>

		<symbol id="jt_icon-twitter" viewBox="0 0 16 16">
			<path fill="currentColor" d="M8 0C3.58214 0 0 3.58214 0 8C0 12.4179 3.58214 16 8 16C12.4179 16 16 12.4179 16 8C16 3.58214 12.4179 0 8 0ZM11.8446 6.03036C11.85 6.11429 11.85 6.20179 11.85 6.2875C11.85 8.90893 9.85357 11.9286 6.20536 11.9286C5.08036 11.9286 4.0375 11.6018 3.15893 11.0393C3.31964 11.0571 3.47321 11.0643 3.6375 11.0643C4.56607 11.0643 5.41964 10.75 6.1 10.2179C5.22857 10.2 4.49643 9.62857 4.24643 8.84286C4.55179 8.8875 4.82679 8.8875 5.14107 8.80714C4.69237 8.71598 4.28906 8.47229 3.99967 8.11747C3.71028 7.76265 3.55265 7.31858 3.55357 6.86071V6.83571C3.81607 6.98393 4.125 7.075 4.44821 7.0875C4.1765 6.90642 3.95368 6.66109 3.79948 6.37327C3.64529 6.08544 3.56451 5.76402 3.56429 5.4375C3.56429 5.06786 3.66071 4.73036 3.83393 4.4375C4.33197 5.0506 4.95345 5.55204 5.65797 5.90922C6.3625 6.26641 7.1343 6.47135 7.92321 6.51071C7.64286 5.1625 8.65 4.07143 9.86071 4.07143C10.4321 4.07143 10.9464 4.31071 11.3089 4.69643C11.7571 4.6125 12.1857 4.44464 12.5679 4.21964C12.4196 4.67857 12.1089 5.06607 11.6964 5.31071C12.0964 5.26786 12.4821 5.15714 12.8393 5.00179C12.5696 5.39821 12.2321 5.75 11.8446 6.03036Z"></path>
		</symbol>

		<symbol id="jt_icon-instagram" viewBox="0 0 16 16">
			<path fill="currentColor" d="M10.3998 7.99982C10.3998 8.63634 10.147 9.24679 9.69688 9.69688C9.24679 10.147 8.63634 10.3998 7.99982 10.3998C7.36331 10.3998 6.75286 10.147 6.30277 9.69688C5.85268 9.24679 5.59982 8.63634 5.59982 7.99982C5.59982 7.86302 5.61422 7.72942 5.63902 7.59982H4.79982V10.7974C4.79982 11.0198 4.97982 11.1998 5.20222 11.1998H10.7982C10.9048 11.1996 11.007 11.1571 11.0822 11.0817C11.1575 11.0062 11.1998 10.904 11.1998 10.7974V7.59982H10.3606C10.3854 7.72942 10.3998 7.86302 10.3998 7.99982ZM7.99982 9.59982C8.20999 9.59977 8.41809 9.55832 8.61224 9.47785C8.80639 9.39737 8.98279 9.27944 9.13136 9.13079C9.27993 8.98215 9.39778 8.80569 9.47816 8.6115C9.55853 8.41731 9.59988 8.20919 9.59982 7.99902C9.59977 7.78886 9.55832 7.58076 9.47785 7.38661C9.39737 7.19246 9.27944 7.01606 9.1308 6.86749C8.98215 6.71891 8.80569 6.60107 8.6115 6.52069C8.41731 6.44031 8.20919 6.39897 7.99902 6.39902C7.57457 6.39913 7.16755 6.56784 6.86749 6.86805C6.56743 7.16826 6.39892 7.57537 6.39902 7.99982C6.39913 8.42428 6.56785 8.8313 6.86805 9.13136C7.16826 9.43142 7.57537 9.59993 7.99982 9.59982ZM9.91982 6.31982H10.879C10.9427 6.31982 11.0039 6.29456 11.049 6.24958C11.0941 6.20459 11.1196 6.14355 11.1198 6.07982V5.12062C11.1198 5.05676 11.0945 4.99551 11.0493 4.95035C11.0041 4.90519 10.9429 4.87982 10.879 4.87982H9.91982C9.85596 4.87982 9.79471 4.90519 9.74955 4.95035C9.70439 4.99551 9.67902 5.05676 9.67902 5.12062V6.07982C9.67982 6.21182 9.78782 6.31982 9.91982 6.31982ZM7.99982 0.319824C5.96296 0.319824 4.00952 1.12896 2.56924 2.56924C1.12896 4.00952 0.319824 5.96296 0.319824 7.99982C0.319824 10.0367 1.12896 11.9901 2.56924 13.4304C4.00952 14.8707 5.96296 15.6798 7.99982 15.6798C9.00838 15.6798 10.0071 15.4812 10.9388 15.0952C11.8706 14.7093 12.7173 14.1436 13.4304 13.4304C14.1436 12.7172 14.7093 11.8706 15.0952 10.9388C15.4812 10.0071 15.6798 9.00838 15.6798 7.99982C15.6798 6.99127 15.4812 5.9926 15.0952 5.06082C14.7093 4.12903 14.1436 3.2824 13.4304 2.56924C12.7173 1.85609 11.8706 1.29039 10.9388 0.904429C10.0071 0.518473 9.00838 0.319824 7.99982 0.319824ZM11.9998 11.111C11.9998 11.5998 11.5998 11.9998 11.111 11.9998H4.88862C4.39982 11.9998 3.99982 11.5998 3.99982 11.111V4.88862C3.99982 4.39982 4.39982 3.99982 4.88862 3.99982H11.111C11.5998 3.99982 11.9998 4.39982 11.9998 4.88862V11.111Z" fill="white"></path>
		</symbol>

		<symbol id="jt_icon-thumb-up" viewBox="0 0 15 13.2">
			<path fill="currentColor" d="M3.5,5.3H1.1C1,5.3,0.8,5.4,0.6,5.5C0.5,5.6,0.4,5.7,0.4,5.9c-0.5,2.1-0.5,4.3,0,6.5l0,0.2
			c0,0.2,0.1,0.3,0.3,0.4s0.3,0.2,0.5,0.2h2.3c0.2,0,0.4-0.1,0.5-0.2c0.1-0.1,0.2-0.3,0.2-0.5V6.1c0-0.2-0.1-0.4-0.2-0.5
			C3.9,5.4,3.7,5.3,3.5,5.3z M3.2,12.2H1.3l0,0c-0.4-1.9-0.4-3.9,0-5.9h1.9V12.2z M15,7.6l-0.7-1.8c-0.1-0.1-0.2-0.3-0.3-0.4
			c-0.1-0.1-0.3-0.1-0.4-0.1H9.9V4.4l0.3-0.7c0.1-0.3,0.2-0.7,0.2-1.1c0-0.4-0.1-0.7-0.2-1.1c-0.1-0.3-0.3-0.7-0.6-0.9
			C9.4,0.4,9.1,0.2,8.8,0.1C8.6,0,8.4,0,8.2,0C8,0.1,7.9,0.3,7.8,0.4L5.3,5.9v0.8H6l2.6-5.6c0.4,0.2,0.6,0.6,0.8,1
			c0.1,0.4,0.1,0.8-0.1,1.2L8.9,4.1l0,0.2v1.5l0.5,0.5h4L14,7.9v0.3L11.9,12H8l-2.7-1.6v1.2l2.3,1.3C7.6,12.9,7.8,13,7.9,13H12
			c0.1,0,0.3,0,0.4-0.1c0.1-0.1,0.2-0.2,0.3-0.3l2.2-3.9C15,8.6,15,8.4,15,8.3V7.9C15,7.8,15,7.7,15,7.6z"></path>
		</symbol>

		<symbol id="jt_icon-calendar" viewBox="0 0 20 20">
			<path fill="currentColor" d="M5,0.6c0-0.2-0.1-0.3-0.2-0.4C4.7,0.1,4.5,0,4.4,0S4.1,0.1,3.9,0.2C3.8,0.3,3.8,0.5,3.8,0.6v0.6H2.5
			C1.8,1.3,1.2,1.5,0.7,2C0.3,2.5,0,3.1,0,3.8V5h20V3.8c0-0.7-0.3-1.3-0.7-1.8c-0.5-0.5-1.1-0.7-1.8-0.7h-1.3V0.6
			c0-0.2-0.1-0.3-0.2-0.4C15.9,0.1,15.8,0,15.6,0s-0.3,0.1-0.4,0.2C15.1,0.3,15,0.5,15,0.6v0.6H5V0.6z M20,17.5V6.3H0v11.3
			c0,0.7,0.3,1.3,0.7,1.8C1.2,19.7,1.8,20,2.5,20h15c0.7,0,1.3-0.3,1.8-0.7C19.7,18.8,20,18.2,20,17.5z M13.6,11.1l-3.8,3.8
			c-0.1,0.1-0.1,0.1-0.2,0.1c-0.1,0-0.2,0-0.2,0s-0.2,0-0.2,0c-0.1,0-0.1-0.1-0.2-0.1l-1.9-1.9c-0.1-0.1-0.2-0.3-0.2-0.4
			s0.1-0.3,0.2-0.4s0.3-0.2,0.4-0.2s0.3,0.1,0.4,0.2l1.4,1.4l3.3-3.3c0.1-0.1,0.3-0.2,0.4-0.2s0.3,0.1,0.4,0.2s0.2,0.3,0.2,0.4
			S13.7,11,13.6,11.1z"></path>
		</symbol>

		<symbol id="jt_icon-close" viewBox="0 0 20 20">
			<path fill="currentColor" d="M10,0C4.5,0,0,4.5,0,10s4.5,10,10,10s10-4.5,10-10S15.5,0,10,0z M13.4,12.1c0.2,0.2,0.3,0.4,0.3,0.6
			c0,0.2-0.1,0.5-0.3,0.6c-0.2,0.2-0.4,0.3-0.6,0.3c-0.2,0-0.5-0.1-0.6-0.3L10,11.3l-2.1,2.1c-0.1,0.1-0.2,0.2-0.3,0.2
			c-0.1,0-0.2,0.1-0.4,0.1c-0.1,0-0.2,0-0.4-0.1c-0.1,0-0.2-0.1-0.3-0.2c-0.1-0.1-0.2-0.2-0.2-0.3s-0.1-0.2-0.1-0.4
			c0-0.1,0-0.2,0.1-0.4s0.1-0.2,0.2-0.3L8.7,10L6.6,7.9C6.5,7.8,6.5,7.7,6.4,7.6S6.4,7.4,6.4,7.3c0-0.1,0-0.2,0.1-0.4
			c0-0.1,0.1-0.2,0.2-0.3c0.1-0.1,0.2-0.2,0.3-0.2c0.1,0,0.2-0.1,0.4-0.1c0.1,0,0.2,0,0.4,0.1s0.2,0.1,0.3,0.2L10,8.7l2.1-2.1
			c0.2-0.2,0.4-0.3,0.6-0.3s0.5,0.1,0.6,0.3c0.2,0.2,0.3,0.4,0.3,0.6c0,0.2-0.1,0.5-0.3,0.6L11.3,10L13.4,12.1z"></path>
		</symbol>

		<symbol id="jt_icon-close-2" viewBox="0 0 20 20">
			<path fill="currentColor" d="M19.2,15.6c0.5,0.5,0.8,1.1,0.8,1.6c0,0.5-0.3,1.3-0.8,1.6c-0.5,0.5-1.1,0.8-1.6,0.8c-0.5,0-1.3-0.3-1.6-0.8l-5.9-5.3
			l-5.6,5.6c-0.3,0.3-0.5,0.5-0.8,0.5c-0.3,0-0.5,0.3-1.1,0.3c-0.3,0-0.5,0-1.1-0.3c-0.3,0-0.5-0.3-0.8-0.5c-0.3-0.3-0.5-0.5-0.5-0.8
			C0.3,18,0,17.7,0,17.2c0-0.3,0-0.5,0.3-1.1c0.3-0.5,0.3-0.5,0.5-0.8L6.7,10L1.1,4.4C0.8,4.1,0.8,3.9,0.5,3.6s0-0.5,0-0.8
			s0-0.5,0.3-1.1c0-0.3,0.3-0.5,0.5-0.8c0.3-0.3,0.5-0.5,0.8-0.5c0.3,0,0.5-0.3,1.1-0.3c0.3,0,0.5,0,1.1,0.3c0.5,0.3,0.5,0.3,0.8,0.5
			l5.1,5.6l5.6-5.6c0.5-0.5,1.1-0.8,1.6-0.8s1.3,0.3,1.6,0.8c0.5,0.5,0.8,1.1,0.8,1.6s-0.3,1.3-0.8,1.6L13.6,10L19.2,15.6z"></path>
		</symbol>

		<symbol id="jt_icon-arrow-top" viewBox="0 0 20 20">
			<path fill="currentColor" d="M20,10c0-2.7-1.1-5.2-2.9-7.1C15.2,1.1,12.7,0,10,0C7.3,0,4.8,1.1,2.9,2.9C1.1,4.8,0,7.3,0,10
			c0,2.7,1.1,5.2,2.9,7.1C4.8,18.9,7.3,20,10,20c2.7,0,5.2-1.1,7.1-2.9C18.9,15.2,20,12.7,20,10z M10.6,14.4c0,0.2-0.1,0.3-0.2,0.4
			C10.3,14.9,10.2,15,10,15c-0.2,0-0.3-0.1-0.4-0.2c-0.1-0.1-0.2-0.3-0.2-0.4V7.1L6.7,9.8C6.6,9.9,6.4,10,6.3,10S5.9,9.9,5.8,9.8
			S5.6,9.5,5.6,9.4S5.7,9,5.8,8.9l3.8-3.8C9.6,5.1,9.7,5.1,9.8,5C9.8,5,9.9,5,10,5c0.1,0,0.2,0,0.2,0c0.1,0,0.1,0.1,0.2,0.1l3.8,3.8
			c0.1,0.1,0.2,0.3,0.2,0.4s-0.1,0.3-0.2,0.4S13.9,10,13.8,10s-0.3-0.1-0.4-0.2l-2.7-2.7V14.4z"></path>
		</symbol>

		<symbol id="jt_icon-check" viewBox="0 0 13 13">
			<path fill="currentColor" d="M12,0.3C11.8,0.1,11.5,0,11.3,0c-0.3,0-0.5,0-0.8,0.1C10.2,0.1,10,0.3,9.8,0.4C9.6,0.6,9.4,0.8,9.3,1L5.6,7.7
			L3.4,5.6C3.3,5.4,3,5.2,2.8,5.1C2.5,5,2.3,5,2,5C1.8,5,1.5,5,1.2,5.1C1,5.2,0.8,5.4,0.6,5.6C0.4,5.7,0.2,6,0.1,6.2C0,6.5,0,6.7,0,7
			c0,0.3,0.1,0.5,0.2,0.8s0.3,0.5,0.4,0.6l4,4C5,12.8,5.5,13,6,13l0.3,0c0.3,0,0.6-0.2,0.9-0.3c0.3-0.2,0.5-0.4,0.6-0.7l5-9
			C12.9,2.7,13,2.5,13,2.2c0-0.3,0-0.5-0.1-0.8c-0.1-0.3-0.2-0.5-0.4-0.7C12.4,0.6,12.2,0.4,12,0.3z"></path>
		</symbol>

		<symbol id="jt_icon-overview" viewBox="0 0 22 22">
			<path fill="currentColor" d="M16.6,11.1l-6.3,6.3c-0.4,0.4-0.6,0.8-0.7,1.3l-0.5,1.9c0,0.2,0,0.4,0,0.6c0.1,0.2,0.2,0.4,0.3,0.5
			c0.1,0.1,0.3,0.2,0.5,0.3c0.2,0.1,0.4,0.1,0.6,0l1.9-0.5c0.5-0.1,1-0.4,1.3-0.7l6.3-6.3c0.4-0.5,0.7-1.1,0.7-1.7
			c0-0.6-0.3-1.3-0.7-1.7c-0.5-0.5-1.1-0.7-1.7-0.7C17.7,10.4,17,10.6,16.6,11.1L16.6,11.1z M5.2,0.6c0-0.2-0.1-0.3-0.2-0.5
			C4.9,0.1,4.7,0,4.5,0C4.4,0,4.2,0.1,4.1,0.2C4,0.3,3.9,0.5,3.9,0.6v0.6H3.2c-0.5,0-1,0.2-1.4,0.6C1.5,2.2,1.3,2.7,1.3,3.2v15.5
			c0,0.5,0.2,1,0.6,1.4c0.4,0.4,0.9,0.6,1.4,0.6h4.5c0-0.1,0-0.3,0.1-0.4l0.5-1.9c0.2-0.7,0.6-1.4,1.1-1.9l6.3-6.3
			c0.3-0.3,0.7-0.6,1.2-0.8V3.2c0-0.5-0.2-1-0.6-1.4s-0.9-0.6-1.4-0.6h-0.6V0.6c0-0.2-0.1-0.3-0.2-0.5C13.9,0.1,13.8,0,13.6,0
			c-0.2,0-0.3,0.1-0.5,0.2c-0.1,0.1-0.2,0.3-0.2,0.5v0.6H9.7V0.6c0-0.2-0.1-0.3-0.2-0.5C9.4,0.1,9.2,0,9.1,0C8.9,0,8.7,0.1,8.6,0.2
			C8.5,0.3,8.4,0.5,8.4,0.6v0.6H5.2V0.6z M5.8,6.5h6.5c0.2,0,0.3,0.1,0.5,0.2c0.1,0.1,0.2,0.3,0.2,0.5c0,0.2-0.1,0.3-0.2,0.5
			c-0.1,0.1-0.3,0.2-0.5,0.2H5.8c-0.2,0-0.3-0.1-0.5-0.2C5.3,7.5,5.2,7.3,5.2,7.1c0-0.2,0.1-0.3,0.2-0.5C5.5,6.5,5.7,6.5,5.8,6.5z
			 M12.9,11c0,0.2-0.1,0.3-0.2,0.5c-0.1,0.1-0.3,0.2-0.5,0.2H5.8c-0.2,0-0.3-0.1-0.5-0.2c-0.1-0.1-0.2-0.3-0.2-0.5
			c0-0.2,0.1-0.3,0.2-0.5c0.1-0.1,0.3-0.2,0.5-0.2h6.5c0.2,0,0.3,0.1,0.5,0.2C12.9,10.7,12.9,10.8,12.9,11z M5.8,14.2h2.6
			c0.2,0,0.3,0.1,0.5,0.2c0.1,0.1,0.2,0.3,0.2,0.5S9,15.2,8.9,15.3c-0.1,0.1-0.3,0.2-0.5,0.2H5.8c-0.2,0-0.3-0.1-0.5-0.2
			c-0.1-0.1-0.2-0.3-0.2-0.5s0.1-0.3,0.2-0.5C5.5,14.3,5.7,14.2,5.8,14.2z"></path>
		</symbol>

		<symbol id="jt_icon-da" viewBox="0 0 21 21">
			<path fill="currentColor" d="M4.9,14.4l0.6-2h2.6l0.6,2h1.7L7.7,6.6H5.9l-2.6,7.9H4.9z M6.8,8.1l1,3.2h-2L6.8,8.1L6.8,8.1z M13.1,8.2
			c-1.4,0-2.3,1-2.3,2.7v0.9c0,1.7,0.9,2.7,2.3,2.7c0.9,0,1.6-0.4,1.8-1.1h0.1v1h1.5V6.1h-1.5v3.1h-0.1C14.6,8.6,13.9,8.2,13.1,8.2
			L13.1,8.2z M13.6,9.4c0.8,0,1.3,0.6,1.3,1.5v0.8c0,1-0.5,1.6-1.3,1.6c-0.8,0-1.3-0.6-1.3-1.6v-0.6C12.3,10,12.8,9.4,13.6,9.4
			L13.6,9.4z M18.4,3.9c0.3,0,0.7,0.1,0.9,0.4c0.2,0.2,0.4,0.6,0.4,0.9v10.5c0,0.3-0.1,0.7-0.4,0.9c-0.2,0.2-0.6,0.4-0.9,0.4H2.6
			c-0.3,0-0.7-0.1-0.9-0.4c-0.2-0.2-0.4-0.6-0.4-0.9V5.3c0-0.3,0.1-0.7,0.4-0.9s0.6-0.4,0.9-0.4H18.4z M2.6,2.6
			c-0.7,0-1.4,0.3-1.9,0.8C0.3,3.9,0,4.6,0,5.3v10.5c0,0.7,0.3,1.4,0.8,1.9c0.5,0.5,1.2,0.8,1.9,0.8h15.8c0.7,0,1.4-0.3,1.9-0.8
			c0.5-0.5,0.8-1.2,0.8-1.9V5.3c0-0.7-0.3-1.4-0.8-1.9c-0.5-0.5-1.2-0.8-1.9-0.8H2.6z"></path>
		</symbol>

		<symbol id="jt_icon-profile" viewBox="0 0 22 22">
			<path fill="currentColor" d="M11,4C9.9,4,8.9,4.4,8.2,5.2S7,6.9,7,8s0.4,2.1,1.2,2.8C8.9,11.6,9.9,12,11,12c1.1,0,2.1-0.4,2.8-1.2
			C14.6,10.1,15,9.1,15,8s-0.4-2.1-1.2-2.8C13.1,4.4,12.1,4,11,4z M12.4,9.4C12,9.8,11.5,10,11,10s-1-0.2-1.4-0.6C9.2,9,9,8.5,9,8
			s0.2-1,0.6-1.4C10,6.2,10.5,6,11,6s1,0.2,1.4,0.6C12.8,7,13,7.5,13,8S12.8,9,12.4,9.4z M11,0C4.9,0,0,4.9,0,11s4.9,11,11,11
			s11-4.9,11-11S17.1,0,11,0z M11,20c-2.1,0-4.1-0.7-5.7-2c0.6-0.9,1.5-1.7,2.5-2.2S9.9,15,11.1,15c1.1,0,2.2,0.3,3.2,0.8
			c1,0.5,1.8,1.2,2.5,2.1C15.1,19.3,13.1,20,11,20z M18.2,16.5c-0.8-1.1-1.9-2-3.1-2.5c-1.2-0.6-2.6-0.9-3.9-0.9c-1.4,0-2.8,0.3-4,0.9
			c-1.2,0.6-2.3,1.5-3.2,2.6C2.7,15,2,13.1,2,11c0-1.4,0.3-2.8,1-4.1c0.7-1.3,1.6-2.4,2.8-3.2c1.2-0.8,2.5-1.4,3.9-1.6
			s2.9-0.1,4.2,0.4c1.4,0.5,2.6,1.2,3.6,2.3c1,1,1.7,2.3,2.2,3.6c0.4,1.4,0.5,2.8,0.3,4.2C19.6,14,19,15.3,18.2,16.5z"></path>
		</symbol>

		<symbol id="jt_icon-search" viewBox="0 0 19.1 19.1">
			<path fill="currentColor" d="M17,15c-0.5-0.4-0.9-0.9-1.4-1.4c-0.4-0.4-0.6-0.7-0.6-0.7l-2.8-1.3C13.4,10.3,14,8.7,14,7c0-3.9-3.1-7-7-7S0,3.1,0,7
			s3.1,7,7,7c1.8,0,3.4-0.7,4.6-1.7l1.3,2.8c0,0,0.3,0.2,0.7,0.6C14,16,14.5,16.5,15,17l1.4,1.4l0.6,0.6l2.1-2.1l-0.6-0.6
			C18,16,17.5,15.5,17,15z M7,12c-2.8,0-5-2.2-5-5s2.2-5,5-5s5,2.2,5,5S9.8,12,7,12z"></path>
		</symbol>

		<symbol id="jt_icon-search-2" viewBox="0 0 30 30">
			<path fill="currentColor" d="M29.7,28.3l-6.8-6.8c2-2.3,3.1-5.2,3.1-8.4c0-7.2-5.8-13-13-13C5.8,0,0,5.8,0,13c0,7.2,5.8,13,13,13
			c3.2,0,6.2-1.2,8.4-3.1l6.8,6.8c0.2,0.2,0.5,0.3,0.7,0.3s0.5-0.1,0.7-0.3C30.1,29.3,30.1,28.7,29.7,28.3z M13,24C6.9,24,2,19.1,2,13
			S6.9,2,13,2s11,4.9,11,11S19.1,24,13,24z"></path>
		</symbol>

		<symbol id="jt_icon-bookmarks" viewBox="0 0 22 22">
			<path fill="currentColor" d="M8.5,12.2l2.5-1.8l2.5,1.8l-0.9-3L15,7.3h-3l-1-2.9l-1,2.9H7l2.5,1.9L8.5,12.2z M19.5,8.4C19.5,3.8,15.7,0,11,0
			C6.3,0,2.5,3.8,2.5,8.4c0,2.1,0.8,4.1,2.1,5.5V22l6.4-2.1l6.4,2.1v-8.1C18.7,12.4,19.5,10.4,19.5,8.4z M11,2.1
			c3.5,0,6.4,2.8,6.4,6.3c0,3.5-2.9,6.3-6.4,6.3c-3.5,0-6.4-2.8-6.4-6.3C4.6,4.9,7.5,2.1,11,2.1z M11,17.8l-4.3,1.1v-3.2
			c1.3,0.7,2.7,1.1,4.3,1.1c1.6,0,3-0.4,4.3-1.1v3.2L11,17.8z"></path>
		</symbol>

		<symbol id="jt_icon-refresh" viewBox="0 0 20 20">
			<path fill="currentColor" d="M10 0C4.48 0 0 4.48 0 10C0 15.52 4.48 20 10 20C15.52 20 20 15.52 20 10C20 4.48 15.52 0 10 0ZM10 18C5.59 18 2 14.41 2 10C2 5.59 5.59 2 10 2C14.41 2 18 5.59 18 10C18 14.41 14.41 18 10 18ZM14.17 12.76L13.07 11.66C13.78 10.33 13.6 8.65 12.48 7.53C12.1554 7.2027 11.769 6.94312 11.3433 6.7663C10.9176 6.58949 10.461 6.49898 10 6.5C9.97 6.5 9.94 6.51 9.91 6.51L11 7.6L9.94 8.66L7.11 5.83L9.94 3L11 4.06L10.04 5.02C11.31 5.03 12.57 5.5 13.54 6.46C15.24 8.17 15.45 10.82 14.17 12.76ZM12.89 14.17L10.06 17L9 15.94L9.95 14.99C8.64316 14.9798 7.39293 14.4553 6.47 13.53C5.65604 12.7152 5.14793 11.6446 5.03135 10.4988C4.91476 9.35302 5.19683 8.20206 5.83 7.24L6.93 8.34C6.22 9.67 6.4 11.35 7.52 12.47C8.22 13.17 9.15 13.51 10.08 13.48L9 12.4L10.06 11.34L12.89 14.17Z"></path>
		</symbol>

		<symbol id="jt_icon-activities" viewBox="0 0 20 20">
			<path fill="currentColor" d="M20,8V4c0-1.1-0.9-2-2-2H2C0.9,2,0,2.9,0,4v4c1.1,0,2,0.9,2,2s-0.9,2-2,2v4c0,1.1,0.9,2,2,2h16c1.1,0,2-0.9,2-2
			v-4c-1.1,0-2-0.9-2-2S18.9,8,20,8z M18,6.5c-1.2,0.7-2,2-2,3.5s0.8,2.8,2,3.5V16H2v-2.5c1.2-0.7,2-2,2-3.5c0-1.5-0.8-2.8-2-3.5L2,4
			h16V6.5z M7.1,14l2.9-1.9l2.9,1.9L12,10.6l2.7-2.2l-3.5-0.2L10,5L8.7,8.2L5.3,8.4l2.7,2.2L7.1,14z"></path>
		</symbol>

		<symbol id="jt_icon-logout" viewBox="0 0 21 21">
			<path fill="currentColor" d="M0,4.8v11.4c0,1.1,0.4,2,1.1,2.7C1.8,19.6,2.8,20,3.8,20h5.7v-2.4H3.8c-0.8,0-1.4-0.6-1.4-1.4V4.8
			C2.4,4,3,3.4,3.8,3.4h5.7V1H3.8c-1.1,0-2,0.4-2.7,1.1C0.4,2.8,0,3.7,0,4.8z M6.3,8.2v4.6c0,0.5,0.5,1,1,1h5.3v3.6
			c0,0.3,0.2,0.6,0.5,0.7c0.1,0,0.2,0,0.3,0c0.2,0,0.4-0.1,0.5-0.2l6.9-6.9c0.3-0.3,0.3-0.8,0-1.1l-6.9-6.8c-0.4-0.4-1.3-0.2-1.3,0.5
			v3.6H7.3C6.8,7.3,6.3,7.7,6.3,8.2z"></path>
		</symbol>

		<symbol id="jt_icon-notification" viewBox="0 0 18 18">
			<path fill="currentColor" d="M9,0C8.2,0,6.9,0.3,5.7,0.6C4.4,1,3.1,1.4,2.4,1.6C2,1.7,1.8,1.9,1.6,2.1C1.3,2.4,1.2,2.7,1.2,3
			c-0.7,5,0.9,8.8,2.8,11.2c0.8,1.1,1.8,2,2.9,2.8c0.4,0.3,0.9,0.5,1.2,0.7C8.4,17.9,8.7,18,9,18s0.6-0.1,0.9-0.3
			c0.4-0.2,0.8-0.4,1.2-0.7c1.1-0.8,2.1-1.7,2.9-2.8c1.9-2.5,3.5-6.2,2.8-11.2c0-0.3-0.2-0.6-0.4-0.9c-0.2-0.3-0.5-0.4-0.8-0.5
			c-1.1-0.4-2.2-0.7-3.3-1C11.1,0.3,9.8,0,9,0z M8.4,9.6L8,5.6c0-0.1,0-0.3,0-0.4c0-0.1,0.1-0.3,0.2-0.4s0.2-0.2,0.3-0.2
			C8.7,4.5,8.9,4.5,9,4.5c0.1,0,0.3,0,0.4,0.1c0.1,0.1,0.3,0.1,0.3,0.2C9.9,4.9,9.9,5.1,10,5.2c0,0.1,0.1,0.3,0,0.4L9.6,9.6
			c0,0.2-0.1,0.3-0.2,0.4c-0.1,0.1-0.3,0.2-0.4,0.2S8.7,10.1,8.6,10C8.5,9.9,8.4,9.7,8.4,9.6z M9,13.5c-0.3,0-0.6-0.1-0.8-0.3
			C8,13,7.9,12.7,7.9,12.4s0.1-0.6,0.3-0.8c0.2-0.2,0.5-0.3,0.8-0.3c0.3,0,0.6,0.1,0.8,0.3c0.2,0.2,0.3,0.5,0.3,0.8S10,13,9.8,13.2
			C9.6,13.4,9.3,13.5,9,13.5z"></path>
		</symbol>

		<symbol id="jt_icon-notification-2" viewBox="0 0 21.7 21.7">
			<path fill="currentColor" d="M8.8,1.4C9,1,9.3,0.6,9.6,0.4C10,0.1,10.4,0,10.8,0c0.4,0,0.9,0.1,1.2,0.4c0.4,0.2,0.6,0.6,0.8,1
			c1.6,0.4,3,1.4,4,2.7c1,1.3,1.6,2.9,1.6,4.6v5.1l2,3c0.1,0.2,0.2,0.4,0.2,0.5s0,0.4-0.1,0.6c-0.1,0.2-0.2,0.3-0.4,0.4
			c-0.2,0.1-0.4,0.2-0.6,0.2h-4.9c-0.1,0.9-0.6,1.7-1.3,2.3c-0.7,0.6-1.6,0.9-2.5,0.9c-0.9,0-1.8-0.3-2.5-0.9
			c-0.7-0.6-1.1-1.4-1.3-2.3H2.2c-0.2,0-0.4-0.1-0.6-0.2c-0.2-0.1-0.3-0.2-0.4-0.4c-0.1-0.2-0.1-0.4-0.1-0.6c0-0.2,0.1-0.4,0.2-0.5
			l2-3V8.7C3.3,5.2,5.6,2.2,8.8,1.4z M9.3,18.4c0.1,0.3,0.3,0.6,0.6,0.8c0.3,0.2,0.6,0.3,0.9,0.3c0.3,0,0.7-0.1,0.9-0.3
			c0.3-0.2,0.5-0.5,0.6-0.8H9.3L9.3,18.4z M10.8,3.3C9.4,3.3,8,3.8,7,4.8c-1,1-1.6,2.4-1.6,3.8v5.4c0,0.2-0.1,0.4-0.2,0.6l-1,1.6h13.3
			l-1-1.6c-0.1-0.2-0.2-0.4-0.2-0.6V8.7c0-1.4-0.6-2.8-1.6-3.8S12.3,3.3,10.8,3.3z"></path>
		</symbol>

		<symbol id="jt_icon-qualification" viewBox="0 0 23 23">
			<path fill="currentColor" d="M19.5,5.8l-4.7-5.2C14.4,0.2,13.8,0,13.3,0H6.5C5.6,0,4.7,0.4,4,1C3.4,1.7,3,2.6,3,3.5v16c0,0.9,0.4,1.8,1,2.5
			c0.7,0.7,1.5,1,2.5,1h10c0.9,0,1.8-0.4,2.5-1s1-1.5,1-2.5V7.2C20,6.7,19.8,6.2,19.5,5.8z M18,19.5c0,0.4-0.2,0.8-0.4,1.1
			S16.9,21,16.5,21h-10c-0.4,0-0.8-0.2-1.1-0.4C5.2,20.3,5,19.9,5,19.5v-16c0-0.4,0.2-0.8,0.4-1.1C5.7,2.2,6.1,2,6.5,2h6.8L18,7.2
			V19.5z M16.5,16c0,0.3-0.2,0.5-0.5,0.5H7c-0.3,0-0.5-0.2-0.5-0.5s0.2-0.5,0.5-0.5h9C16.3,15.5,16.5,15.7,16.5,16z M13.5,18
			c0,0.3-0.2,0.5-0.5,0.5H7c-0.3,0-0.5-0.2-0.5-0.5s0.2-0.5,0.5-0.5h6C13.3,17.5,13.5,17.7,13.5,18z M6.8,14c0.3,0.1,0.5,0,0.7-0.3
			L8,12.5H11l0.5,1.2c0.1,0.2,0.3,0.3,0.5,0.3c0.1,0,0.1,0,0.2,0c0.3-0.1,0.4-0.4,0.3-0.7l-0.6-1.5c0,0,0,0,0,0L10,7.3
			C9.8,6.9,9.2,6.9,9,7.3l-1.9,4.5c0,0,0,0,0,0l-0.6,1.5C6.4,13.6,6.6,13.9,6.8,14z M9.5,8.8l1.1,2.7H8.4L9.5,8.8z M14,11.5v-1
			c0-0.3,0.2-0.5,0.5-0.5s0.5,0.2,0.5,0.5v1h1c0.3,0,0.5,0.2,0.5,0.5s-0.2,0.5-0.5,0.5h-1v1c0,0.3-0.2,0.5-0.5,0.5S14,13.8,14,13.5v-1
			h-1c-0.3,0-0.5-0.2-0.5-0.5s0.2-0.5,0.5-0.5H14z"></path>
		</symbol>

		<symbol id="jt_icon-suggetion" viewBox="0 0 20.5 20.5">
			<path fill="currentColor" d="M10.2,20.5c-0.2,0-0.4,0-0.5-0.1c-0.2-0.1-0.3-0.2-0.4-0.3l-3.3-3.6H1.8c-0.4,0-0.7-0.1-1-0.4c-0.3-0.3-0.4-0.6-0.4-1V1.4
			c0-0.4,0.1-0.7,0.4-1C1.1,0.1,1.5,0,1.8,0h16.8c0.4,0,0.7,0.1,1,0.4C19.8,0.6,20,1,20,1.4v13.8c0,0.2,0,0.4-0.1,0.5
			c-0.1,0.2-0.2,0.3-0.3,0.4s-0.3,0.2-0.4,0.3c-0.2,0.1-0.3,0.1-0.5,0.1h-4.1L11.2,20c-0.1,0.1-0.3,0.2-0.4,0.3
			C10.6,20.4,10.4,20.5,10.2,20.5z M2,15h4c0.2,0,0.4,0,0.5,0.1c0.2,0.1,0.3,0.2,0.5,0.3l3.3,3.5l3.3-3.5c0.1-0.1,0.3-0.2,0.4-0.3
			c0.2-0.1,0.4-0.1,0.5-0.1h4V1.5H2V15z M14.5,16.5L14.5,16.5L14.5,16.5L14.5,16.5z M10.2,13.5c-0.3,0-0.5-0.1-0.7-0.4l-1.3-2.4
			L5.9,9.4C5.6,9.3,5.5,9,5.5,8.8s0.1-0.5,0.4-0.7l2.4-1.3l1.3-2.4c0.3-0.5,1-0.5,1.3,0l1.3,2.4l2.4,1.3C14.8,8.2,15,8.5,15,8.8
			s-0.1,0.5-0.4,0.7l-2.4,1.3l-1.3,2.4C10.8,13.4,10.5,13.5,10.2,13.5z M7.8,8.8l1.4,0.8c0.1,0.1,0.2,0.2,0.3,0.3l0.8,1.4L11,9.8
			c0.1-0.1,0.2-0.2,0.3-0.3l1.4-0.8L11.3,8c-0.1-0.1-0.2-0.2-0.3-0.3l-0.8-1.4L9.5,7.7C9.4,7.8,9.3,7.9,9.2,8L7.8,8.8z"></path>
		</symbol>

		<symbol id="jt_icon-file" viewBox="0 0 20 20">
			<path fill="currentColor" d="M0.4,5.4L0.4,4.2c0-0.7,0.3-1.3,0.8-1.8C1.6,1.9,2.3,1.7,3,1.7h4.7c0.7,0,1.3,0.3,1.8,0.8l1.1,1.1C11,4,11.7,4.2,12.3,4.2
			h5.1c0.4,0,0.7,0.1,1,0.2c0.3,0.1,0.6,0.4,0.9,0.6c0.2,0.3,0.4,0.6,0.5,0.9C20,6.3,20,6.7,20,7l-0.8,9c-0.1,0.6-0.4,1.2-0.8,1.7
			c-0.5,0.4-1.1,0.7-1.7,0.7H3.4c-0.6,0-1.3-0.2-1.7-0.7c-0.5-0.4-0.8-1-0.8-1.7L0,7C0,6.4,0.1,5.8,0.4,5.4L0.4,5.4z M2.6,5.5
			c-0.2,0-0.4,0-0.5,0.1S1.7,5.8,1.6,5.9C1.5,6.1,1.4,6.2,1.3,6.4C1.3,6.6,1.3,6.7,1.3,6.9l0.8,9c0,0.3,0.2,0.6,0.4,0.8
			C2.7,16.9,3.1,17,3.4,17h13.2c0.3,0,0.6-0.1,0.9-0.3c0.2-0.2,0.4-0.5,0.4-0.8l0.8-9c0-0.2,0-0.4-0.1-0.5c-0.1-0.2-0.1-0.3-0.3-0.5
			c-0.1-0.1-0.3-0.2-0.4-0.3c-0.2-0.1-0.3-0.1-0.5-0.1H2.6z M8.6,3.3C8.4,3.2,8.3,3.1,8.2,3.1C8,3,7.8,3,7.7,3H3
			C2.6,3,2.3,3.1,2.1,3.3C1.8,3.6,1.7,3.9,1.7,4.2l0,0.2C2,4.3,2.3,4.2,2.6,4.2h6.9L8.6,3.3L8.6,3.3z"></path>
		</symbol>

		<symbol id="jt_icon-download" viewBox="0 0 18 18">
			<path fill="currentColor" d="M16 9V16H2V9H0V16C0 17.1 0.9 18 2 18H16C17.1 18 18 17.1 18 16V9H16ZM10 9.67L12.59 7.09L14 8.5L9 13.5L4 8.5L5.41 7.09L8 9.67V0H10V9.67Z"></path>
		</symbol>

		<symbol id="jt_icon-affiliate" viewBox="0 0 20 20">
			<path fill="currentColor" d="M17.3,14.6c-0.8,0-1.6,0.4-2.1,1l-3.2-0.9c0-0.2,0.1-0.5,0.1-0.8c0-1.3-0.4-2.5-1.1-3.5l5.3-5.3
			c0.3,0.1,0.7,0.2,1.1,0.2c1.5,0,2.7-1.2,2.7-2.7S18.8,0,17.3,0s-2.7,1.2-2.7,2.7c0,0.4,0.1,0.7,0.2,1.1L9.6,9
			c-1-0.7-2.2-1.1-3.5-1.1c-0.3,0-0.5,0-0.8,0.1L4.4,4.8c0.6-0.5,1-1.2,1-2.1C5.4,1.2,4.2,0,2.7,0S0,1.2,0,2.7c0,1.4,1.1,2.5,2.4,2.7
			l0.9,3.2c-2,1-3.4,3.1-3.4,5.4C0,17.3,2.7,20,6.1,20c2.4,0,4.4-1.4,5.4-3.4l3.2,0.9c0.1,1.4,1.3,2.4,2.7,2.4c1.5,0,2.7-1.2,2.7-2.7
			S18.8,14.6,17.3,14.6z M2.7,2c0.4,0,0.7,0.3,0.7,0.7S3.1,3.4,2.7,3.4S2,3.1,2,2.7S2.3,2,2.7,2z M17.3,2C17.7,2,18,2.3,18,2.7
			s-0.3,0.7-0.7,0.7c-0.2,0-0.4-0.1-0.5-0.2c0,0,0,0,0,0s0,0,0,0c-0.1-0.1-0.2-0.3-0.2-0.5C16.6,2.3,16.9,2,17.3,2z M6.1,18
			C3.8,18,2,16.2,2,13.9s1.8-4.1,4.1-4.1s4.1,1.8,4.1,4.1S8.3,18,6.1,18z M17.3,18c-0.4,0-0.7-0.3-0.7-0.7s0.3-0.7,0.7-0.7
			s0.7,0.3,0.7,0.7S17.7,18,17.3,18z"></path>
		</symbol>

		<symbol id="jt_icon-print" viewBox="0 0 30 30">
			<path fill="currentColor" d="M5.6,4.7c0-0.7,0.3-1.5,0.8-2s1.2-0.8,2-0.8h13.1c0.7,0,1.5,0.3,2,0.8c0.5,0.5,0.8,1.2,0.8,2v0.9h0.9
			c1.2,0,2.4,0.5,3.3,1.4c0.9,0.9,1.4,2.1,1.4,3.3v9.4c0,0.7-0.3,1.5-0.8,2c-0.5,0.5-1.2,0.8-2,0.8h-2.8v2.8c0,0.7-0.3,1.5-0.8,2
			c-0.5,0.5-1.2,0.8-2,0.8H8.4c-0.7,0-1.5-0.3-2-0.8c-0.5-0.5-0.8-1.2-0.8-2v-2.8H2.8c-0.7,0-1.5-0.3-2-0.8c-0.5-0.5-0.8-1.2-0.8-2
			v-9.4C0,9.1,0.5,7.9,1.4,7c0.9-0.9,2.1-1.4,3.3-1.4h0.9V4.7z M7.5,5.6h15V4.7c0-0.2-0.1-0.5-0.3-0.7c-0.2-0.2-0.4-0.3-0.7-0.3H8.4
			C8.2,3.8,8,3.8,7.8,4C7.6,4.2,7.5,4.4,7.5,4.7V5.6z M5.6,20.6v-2.8c0-0.7,0.3-1.5,0.8-2C7,15.3,7.7,15,8.4,15h13.1
			c0.7,0,1.5,0.3,2,0.8c0.5,0.5,0.8,1.2,0.8,2v2.8h2.8c0.2,0,0.5-0.1,0.7-0.3c0.2-0.2,0.3-0.4,0.3-0.7v-9.4c0-0.7-0.3-1.5-0.8-2
			c-0.5-0.5-1.2-0.8-2-0.8H4.7c-0.7,0-1.5,0.3-2,0.8c-0.5,0.5-0.8,1.2-0.8,2v9.4c0,0.2,0.1,0.5,0.3,0.7c0.2,0.2,0.4,0.3,0.7,0.3H5.6z
			 M8.4,16.9c-0.2,0-0.5,0.1-0.7,0.3c-0.2,0.2-0.3,0.4-0.3,0.7v7.5c0,0.2,0.1,0.5,0.3,0.7c0.2,0.2,0.4,0.3,0.7,0.3h13.1
			c0.2,0,0.5-0.1,0.7-0.3c0.2-0.2,0.3-0.4,0.3-0.7v-7.5c0-0.2-0.1-0.5-0.3-0.7s-0.4-0.3-0.7-0.3H8.4z"></path>
		</symbol>

		<symbol id="jt_icon-folder" viewBox="0 0 48.4 60">
			<path fill="currentColor" d="M25.2,44.5c0,0.6-0.4,1-1,1h-8.7c-0.6,0-1-0.4-1-1s0.4-1,1-1h8.7C24.8,43.5,25.2,43.9,25.2,44.5z M48.4,19.4v33.8
			c0,1.8-0.7,3.5-2,4.8c-1.3,1.3-3,2-4.8,2H6.8C5,60,3.3,59.3,2,58c-1.3-1.3-2-3-2-4.8V6.8C0,5,0.7,3.3,2,2s3-2,4.8-2h21.9
			c0.5,0,1,0.1,1.5,0.2c0,0,0,0,0,0c1.2,0.3,2.4,0.9,3.3,1.8l12.9,12.6c0.7,0.6,1.2,1.4,1.5,2.2c0.2,0.5,0.3,1,0.4,1.5c0,0,0,0,0,0
			C48.4,18.6,48.4,19,48.4,19.4z M32.1,3.4c-0.3-0.3-0.7-0.6-1.1-0.8v10c0,1.3,0.5,2.5,1.4,3.4c0.9,0.9,2.1,1.4,3.4,1.4H46
			c-0.2-0.5-0.6-1-1-1.4L32.1,3.4z M46.4,19.4H35.8c-1.8,0-3.5-0.7-4.8-2c-1.3-1.3-2-3-2-4.8V2c-0.1,0-0.2,0-0.3,0H6.8
			C5.5,2,4.3,2.5,3.4,3.4C2.5,4.3,2,5.5,2,6.8v46.4c0,1.3,0.5,2.5,1.4,3.4C4.3,57.5,5.5,58,6.8,58h34.8c1.3,0,2.5-0.5,3.4-1.4
			c0.9-0.9,1.4-2.1,1.4-3.4V19.4z M32.9,31.9H15.5c-0.6,0-1,0.4-1,1s0.4,1,1,1h17.4c0.6,0,1-0.4,1-1S33.5,31.9,32.9,31.9z"></path>
		</symbol>

		<symbol id="jt_icon-notice" viewBox="0 0 16.5 22">
			<path fill="currentColor" d="M8,5.6c0,0,0.1-0.1,0.1-0.1c0,0,0.1,0,0.1,0c0,0,0.1,0,0.1,0c0,0,0.1,0.1,0.1,0.1l0.9,1.8c0,0,0,0.1,0.1,0.1
			c0,0,0.1,0,0.1,0l2,0.3c0.2,0,0.3,0.3,0.1,0.4l-1.4,1.4c0,0,0,0.1-0.1,0.1c0,0,0,0.1,0,0.1l0.3,1.9c0,0,0,0.1,0,0.1
			c0,0,0,0.1-0.1,0.1c0,0-0.1,0-0.1,0c0,0-0.1,0-0.1,0l-1.7-0.9c0,0-0.1,0-0.1,0c0,0-0.1,0-0.1,0l-1.7,0.9c0,0-0.1,0-0.1,0
			s-0.1,0-0.1,0c0,0-0.1-0.1-0.1-0.1c0,0,0-0.1,0-0.1l0.3-1.9c0,0,0-0.1,0-0.1s0-0.1-0.1-0.1L4.9,8.3c0,0-0.1-0.1-0.1-0.1
			c0,0,0-0.1,0-0.1c0,0,0-0.1,0.1-0.1c0,0,0.1,0,0.1-0.1l2-0.3c0,0,0.1,0,0.1,0c0,0,0.1-0.1,0.1-0.1L8,5.6z M0,2.8
			C0,2,0.3,1.3,0.8,0.8C1.3,0.3,2,0,2.8,0h11c0.7,0,1.4,0.3,1.9,0.8c0.5,0.5,0.8,1.2,0.8,1.9v18.6c0,0.1,0,0.2-0.1,0.4
			c-0.1,0.1-0.2,0.2-0.3,0.3C16,22,15.9,22,15.8,22c-0.1,0-0.2,0-0.3-0.1L8.3,18l-7.2,3.9C1,22,0.8,22,0.7,22c-0.1,0-0.2,0-0.4-0.1
			c-0.1-0.1-0.2-0.1-0.3-0.3C0,21.6,0,21.5,0,21.3V2.8z M2.8,1.4c-0.4,0-0.7,0.1-1,0.4s-0.4,0.6-0.4,1v17.3l6.5-3.4
			c0.1-0.1,0.2-0.1,0.4-0.1c0.1,0,0.3,0,0.4,0.1l6.5,3.4V2.8c0-0.4-0.1-0.7-0.4-1c-0.3-0.3-0.6-0.4-1-0.4H2.8z"></path>
		</symbol>

		<symbol id="jt_icon-notice-2" viewBox="0 0 19.5 26">
			<path fill="currentColor" d="M0,25.2v-22C0,2.4,0.3,1.6,1,1c0.6-0.6,1.4-1,2.3-1h13c0.9,0,1.7,0.3,2.3,1c0.6,0.6,1,1.4,1,2.3v22
			c0,0.1,0,0.3-0.1,0.4c-0.1,0.1-0.2,0.2-0.3,0.3C19,26,18.9,26,18.7,26c-0.1,0-0.3,0-0.4-0.1l-8.6-4.7l-8.6,4.7C1.1,26,0.9,26,0.8,26
			c-0.1,0-0.3,0-0.4-0.1c-0.1-0.1-0.2-0.2-0.3-0.3C0,25.5,0,25.4,0,25.2z M10,6.7c0,0-0.1-0.1-0.1-0.1c0,0-0.1,0-0.2,0s-0.1,0-0.2,0
			c0,0-0.1,0.1-0.1,0.1l-1,2.1c0,0-0.1,0.1-0.1,0.1c0,0-0.1,0-0.1,0.1L5.9,9.3c-0.1,0-0.1,0-0.1,0.1c0,0-0.1,0.1-0.1,0.1
			c0,0.1,0,0.1,0,0.2c0,0.1,0,0.1,0.1,0.1l1.7,1.6c0.1,0.1,0.1,0.2,0.1,0.3l-0.4,2.3c0,0.1,0,0.1,0,0.2c0,0,0.1,0.1,0.1,0.1
			c0,0,0.1,0.1,0.1,0.1c0.1,0,0.1,0,0.2,0l2.1-1.1c0,0,0.1,0,0.1,0c0,0,0.1,0,0.1,0l2.1,1.1c0,0,0.1,0,0.2,0c0.1,0,0.1,0,0.1-0.1
			c0,0,0.1-0.1,0.1-0.1c0,0,0-0.1,0-0.2L12,11.6c0,0,0-0.1,0-0.1c0,0,0-0.1,0.1-0.1l1.7-1.6c0,0,0.1-0.1,0.1-0.1c0-0.1,0-0.1,0-0.2
			c0-0.1,0-0.1-0.1-0.1c0,0-0.1-0.1-0.1-0.1l-2.3-0.3c0,0-0.1,0-0.1-0.1c0,0-0.1-0.1-0.1-0.1L10,6.7z"></path>
		</symbol>

		<symbol id="jt_icon-next" viewBox="0 0 45.1 45">
			<path fill="currentColor" d="M22.5,0C10.1,0,0,10.1,0,22.5S10.1,45,22.5,45s22.5-10.1,22.5-22.5S35,0,22.5,0z M18,15.8
			c-0.4-0.4-0.6-0.9-0.6-1.4c0-0.5,0.2-1,0.6-1.4c0.4-0.4,0.9-0.6,1.4-0.6c0.5,0,1.1,0.2,1.4,0.6l8.2,8.2c0.4,0.4,0.6,0.9,0.6,1.4
			s-0.2,1.1-0.6,1.4l-8.2,8.2c-0.4,0.4-0.9,0.6-1.4,0.6c-0.5,0-1.1-0.2-1.4-0.6c-0.4-0.4-0.6-0.9-0.6-1.4c0-0.5,0.2-1.1,0.6-1.4
			l6.7-6.7L18,15.8z"></path>
		</symbol>

		<symbol id="jt_icon-prev" viewBox="0 0 45.1 45">
			<path fill="currentColor" d="M22.5,0C35,0,45.1,10.1,45.1,22.5S35,45,22.5,45S0,34.9,0,22.5S10.1,0,22.5,0z M27.1,15.8
			c0.4-0.4,0.6-0.9,0.6-1.4c0-0.5-0.2-1-0.6-1.4c-0.4-0.4-0.9-0.6-1.4-0.6c-0.5,0-1.1,0.2-1.4,0.6L16,21.1c-0.4,0.4-0.6,0.9-0.6,1.4
			s0.2,1.1,0.6,1.4l8.2,8.2c0.4,0.4,0.9,0.6,1.4,0.6c0.5,0,1.1-0.2,1.4-0.6c0.4-0.4,0.6-0.9,0.6-1.4c0-0.5-0.2-1.1-0.6-1.4l-6.7-6.7
			L27.1,15.8z"></path>
		</symbol>

		<symbol id="jt_icon-news" viewBox="0 0 20 20">
			<path fill="currentColor" d="M18.3,7.3l-14-7C3.8,0,3.2-0.1,2.6,0C1.9,0.1,1.4,0.4,0.9,0.8s-0.7,1-0.9,1.6C-0.1,3,0,3.6,0.3,4.2l2.4,5.4
			C2.7,9.7,2.7,9.9,2.7,10c0,0.1,0,0.3-0.1,0.4l-2.4,5.4c-0.2,0.5-0.3,1-0.3,1.5c0,0.5,0.2,1,0.5,1.4c0.3,0.4,0.6,0.8,1.1,1
			C2,19.9,2.5,20,3,20c0.5,0,0.9-0.1,1.3-0.3l14-7c0.5-0.2,0.9-0.6,1.2-1.1c0.3-0.5,0.4-1,0.4-1.6c0-0.6-0.2-1.1-0.4-1.6
			C19.3,7.9,18.8,7.6,18.3,7.3L18.3,7.3z M17.4,10.9l-14,7C3.3,18,3.1,18,2.9,18c-0.2,0-0.4-0.1-0.5-0.3c-0.1-0.1-0.2-0.3-0.3-0.5
			c0-0.2,0-0.4,0.1-0.6l2.4-5.4c0-0.1,0.1-0.1,0.1-0.2h6.9c0.3,0,0.5-0.1,0.7-0.3c0.2-0.2,0.3-0.4,0.3-0.7c0-0.3-0.1-0.5-0.3-0.7
			C12,9.1,11.7,9,11.5,9H4.6c0-0.1,0-0.1-0.1-0.2L2.1,3.4C2,3.2,2,3,2,2.8c0-0.2,0.1-0.4,0.3-0.5C2.5,2.1,2.7,2.1,2.9,2
			c0.2,0,0.4,0,0.6,0.1l14,7c0.2,0.1,0.3,0.2,0.4,0.4C17.9,9.6,18,9.8,18,10c0,0.2-0.1,0.4-0.1,0.5C17.8,10.7,17.6,10.8,17.4,10.9z"></path>
		</symbol>

		<symbol id="jt_icon-minus" viewBox="0 0 17 17">
			<path fill="currentColor" d="M8.5,0C3.8,0,0,3.8,0,8.5C0,13.2,3.8,17,8.5,17c4.7,0,8.5-3.8,8.5-8.5C17,3.8,13.2,0,8.5,0z M12.1,9
			c-0.1,0.1-0.3,0.2-0.5,0.2H5.4C5.2,9.3,5,9.2,4.9,9C4.7,8.9,4.6,8.7,4.6,8.5S4.7,8.1,4.9,8C5,7.8,5.2,7.7,5.4,7.7h6.2
			c0.2,0,0.4,0.1,0.5,0.2c0.1,0.1,0.2,0.3,0.2,0.5S12.3,8.9,12.1,9z"></path>
		</symbol>

		<symbol id="jt_icon-plus" viewBox="0 0 17 17">
			<path fill="currentColor" d="M8.5,0C3.8,0,0,3.8,0,8.5C0,13.2,3.8,17,8.5,17c4.7,0,8.5-3.8,8.5-8.5C17,3.8,13.2,0,8.5,0z M9.3,11.6
			c0,0.2-0.1,0.4-0.2,0.5c-0.1,0.1-0.3,0.2-0.5,0.2S8.1,12.3,8,12.1c-0.1-0.1-0.2-0.3-0.2-0.5V9.3H5.4C5.2,9.3,5,9.2,4.9,9
			S4.6,8.7,4.6,8.5S4.7,8.1,4.9,8C5,7.8,5.2,7.7,5.4,7.7h2.3V5.4C7.7,5.2,7.8,5,8,4.9c0.1-0.1,0.3-0.2,0.5-0.2S8.9,4.7,9,4.9
			s0.2,0.3,0.2,0.5v2.3h2.3c0.2,0,0.4,0.1,0.5,0.2c0.1,0.1,0.2,0.3,0.2,0.5S12.3,8.9,12.1,9c-0.1,0.1-0.3,0.2-0.5,0.2H9.3V11.6z"></path>
		</symbol>

		<symbol id="jt_icon-test-1" viewBox="0 0 22 22">
			<path fill="currentColor" d="M15,8c0,1.1-0.4,2.1-1.2,2.8C13.1,11.6,12.1,12,11,12c-1.1,0-2.1-0.4-2.8-1.2C7.4,10.1,7,9.1,7,8
			s0.4-2.1,1.2-2.8C8.9,4.4,9.9,4,11,4c1.1,0,2.1,0.4,2.8,1.2C14.6,5.9,15,6.9,15,8z M13,8c0,0.5-0.2,1-0.6,1.4C12,9.8,11.5,10,11,10
			s-1-0.2-1.4-0.6C9.2,9,9,8.5,9,8s0.2-1,0.6-1.4C10,6.2,10.5,6,11,6s1,0.2,1.4,0.6C12.8,7,13,7.5,13,8z M11,0C4.9,0,0,4.9,0,11
			s4.9,11,11,11s11-4.9,11-11S17.1,0,11,0z M2,11c0,2.1,0.7,4,1.9,5.5c0.8-1.1,1.9-2,3.2-2.6c1.2-0.6,2.6-0.9,4-0.9
			c1.4,0,2.7,0.3,3.9,0.9c1.2,0.6,2.3,1.5,3.1,2.5c0.9-1.1,1.4-2.5,1.7-3.9s0.2-2.9-0.3-4.2s-1.2-2.6-2.2-3.6c-1-1-2.2-1.8-3.6-2.3
			s-2.8-0.6-4.2-0.4S6.9,2.9,5.8,3.7C4.6,4.5,3.6,5.6,3,6.9C2.3,8.2,2,9.6,2,11z M11,20c-2.1,0-4.1-0.7-5.7-2c0.6-0.9,1.5-1.7,2.5-2.2
			c1-0.5,2.1-0.8,3.2-0.8c1.1,0,2.2,0.3,3.2,0.8c1,0.5,1.8,1.2,2.5,2.1C15.1,19.3,13.1,20,11,20z"></path>
		</symbol>

		<symbol id="jt_icon-gallery" viewBox="0 0 60 60">
			<path fill="currentColor" d="M47.8,60H12.6l0,0c-3.4,0-6.5-1.3-8.9-3.7C1.3,53.9,0,50.8,0,47.4V12.6c0-3.4,1.3-6.5,3.7-8.9S9.2,0,12.6,0h34.8
			c3.4,0,6.5,1.3,8.9,3.7c2.4,2.4,3.7,5.5,3.7,8.9v35.2c0,3.3-1.3,6.3-3.6,8.6C54.1,58.7,51,60,47.8,60z M14.9,58h32.5
			c2.8,0,5.5-1.1,7.5-3.1s3.1-4.7,3.1-7.5c0-0.9-0.3-1.2-1.1-2.1l-0.1-0.1L45.2,32.5c-0.5-0.5-1-0.9-1.6-1.2c-0.6-0.3-1.3-0.4-1.9-0.4
			c0,0,0,0,0,0c-0.7,0-1.3,0.1-1.9,0.4s-1.2,0.7-1.6,1.2l0,0L14.9,58z M12.6,2C9.8,2,7.1,3.1,5.1,5.1S2,9.8,2,12.6v34.8
			c0,2.8,1.1,5.5,3.1,7.5c1.9,1.9,4.4,3,7.1,3.1l24.4-26.9c0.6-0.7,1.4-1.3,2.3-1.6s1.8-0.6,2.7-0.6c1,0,1.9,0.2,2.7,0.6
			c0.9,0.4,1.6,0.9,2.3,1.6L58,43.5V12.6c0-2.8-1.1-5.5-3.1-7.5c-2-2-4.7-3.1-7.5-3.1H12.6z M37.3,31.8L37.3,31.8L37.3,31.8z
			 M19.8,28.1c-4.5,0-8.3-3.7-8.3-8.3s3.7-8.3,8.3-8.3s8.3,3.7,8.3,8.3S24.4,28.1,19.8,28.1z M19.8,13.6c-3.4,0-6.3,2.8-6.3,6.3
			s2.8,6.3,6.3,6.3s6.3-2.8,6.3-6.3S23.3,13.6,19.8,13.6z"></path>
		</symbol>

		<symbol id="jt_icon-show" viewBox="0 0 20.1 14">
			<path fill="currentColor" d="M10.1,0C2.4,0,0.1,6.6,0.1,6.7L0,7l0.1,0.3c0,0.1,2.3,6.7,9.9,6.7S20,7.4,20,7.3L20.1,7L20,6.7
			C20,6.6,17.7,0,10.1,0z M10.1,11c-2.2,0-4-1.8-4-4s1.8-4,4-4s4,1.8,4,4S12.3,11,10.1,11z M10.1,5c-1.1,0-2,0.9-2,2s0.9,2,2,2
			c1.1,0,2-0.9,2-2S11.1,5,10.1,5z"></path>
		</symbol>

		<symbol id="jt_icon-hide" viewBox="0 0 22 22">
			<path fill="currentColor" d="M1.286,19.532l3.518-2.795c0.004,0.002,0.008,0.004,0.012,0.007l2.713-2.156 c-0.003-0.003-0.007-0.005-0.01-0.008l1.592-1.265c0.003,0.003,0.007,0.005,0.011,0.007l4.567-3.629 c-0.002-0.004-0.003-0.008-0.005-0.012l1.581-1.257c0.002,0.004,0.004,0.008,0.006,0.011l3.024-2.403 c-0.003-0.003-0.006-0.006-0.009-0.008l3.376-2.683l-0.625-0.745l-3.574,2.84C15.605,4.215,13.388,3.5,11,3.5C6,3.5,1.73,6.61,0,11 c0.817,2.072,2.204,3.853,3.963,5.163l-3.302,2.624L1.286,19.532z M11,6c1.464,0,2.768,0.641,3.683,1.644l-1.557,1.237 C12.583,8.337,11.832,8,11,8c-1.66,0-3,1.34-3,3c0,0.585,0.174,1.126,0.462,1.587l-1.573,1.25C6.331,13.03,6,12.055,6,11 C6,8.24,8.24,6,11,6z M10.04,13.832l3.925-3.119C13.975,10.81,14,10.901,14,11c0,1.66-1.34,3-3,3 C10.662,14,10.341,13.938,10.04,13.832z M22,11c-1.73,4.39-6,7.5-11,7.5c-1.894,0-3.677-0.455-5.262-1.249l2.576-2.047 C9.09,15.703,10.009,16,11,16c2.76,0,5-2.24,5-5c0-0.586-0.117-1.14-0.307-1.66l3.335-2.65C20.311,7.884,21.346,9.34,22,11z"></path>
		</symbol>

		<symbol id="jt_icon-youtube" viewBox="0 0 24 24">
			<path fill="currentColor" d="M23.8,7.1c0,0-0.3-1.7-1-2.4c-0.6-0.6-1.5-1-2.4-1C17,3.5,12,3.5,12,3.5s-5,0-8.5,0.3c-0.9,0-1.8,0.4-2.4,1
	C0.4,5.5,0.2,7.2,0.2,7.2C0.1,8.5,0,9.8,0,11.1v1.8c0,1.3,0.1,2.6,0.2,4c0,0,0.3,1.7,1,2.4c0.9,0.9,2.1,0.9,2.6,1
	c2,0.1,8.2,0.2,8.2,0.2s5-0.1,8.4-0.3c0.9,0,1.8-0.3,2.4-1c0.8-0.7,1-2.4,1-2.4c0.1-1.3,0.2-2.6,0.2-4V11C24,9.7,24,8.4,23.8,7.1z
	 M9.5,15.1V8.3l6.5,3.4L9.5,15.1z"/>
		</symbol>

		<symbol id="jt_icon-expand" viewBox="0 0 15 15">
			<path fill="currentColor" d="M13.1,5.4V2.5c0-0.3-0.3-0.6-0.6-0.6H9.6c-0.6,0-0.8,0.7-0.4,1.1l1,1l-6.3,6.2l-1-1C2.5,8.8,1.9,9.1,1.9,9.6 v2.9c0,0.3,0.3,0.6,0.6,0.6h2.9c0.6,0,0.8-0.7,0.4-1.1l-1-1l6.2-6.2l1,1C12.4,6.2,13.1,5.9,13.1,5.4z"/>
		</symbol>

		<symbol id="jt_icon-download" viewBox="0 0 15 15">
			<path fill="currentColor" d="M10.4,5.9h-1V2.8c0-0.3-0.3-0.6-0.6-0.6H6.2c-0.3,0-0.6,0.3-0.6,0.6v3.1h-1C4.1,5.9,3.8,6.6,4.2,7l2.9,2.9 c0.2,0.2,0.6,0.2,0.9,0L10.8,7C11.2,6.6,10.9,5.9,10.4,5.9z M3.1,12.2c0,0.3,0.3,0.6,0.6,0.6h7.5c0.3,0,0.6-0.3,0.6-0.6 s-0.3-0.6-0.6-0.6H3.8C3.4,11.6,3.1,11.8,3.1,12.2z"/>
		</symbol>
		
	</defs>
</svg>
