<svg xmlns="http://www.w3.org/2000/svg" width="142" height="30" viewBox="0 0 142 30">
  <defs>
    <style>
      .cls-1 {
        fill: #ffffff;
      }

      .cls-1, .cls-2 {
        fill-rule: evenodd;
      }

      .cls-2 {
        fill: #1e81f6;
      }
    </style>
  </defs>
  <path id="motors_copy" data-name="motors copy" class="cls-1" d="M50.317,29A13.048,13.048,0,0,0,63.435,16.243c0-5.751-4.112-10.166-10.938-10.166A13.032,13.032,0,0,0,39.42,18.795C39.42,24.587,43.532,29,50.317,29Zm0.452-6.4A3.742,3.742,0,0,1,46.9,18.511c0-2.835,2.1-6.035,5.181-6.035a3.73,3.73,0,0,1,3.865,4.05C55.95,19.4,53.853,22.6,50.769,22.6Zm19.82,6.318a14.251,14.251,0,0,0,4.606-.77l1.727-6.4a8.977,8.977,0,0,1-2.961.608c-1.234,0-1.768-.486-1.768-1.377a6.607,6.607,0,0,1,.206-1.337L74.29,12.76h5.181l1.686-6.2H75.977L77.5,1.014H69.685L68.163,6.563H65.532l-1.686,6.2h2.632l-2.221,8.1a10.757,10.757,0,0,0-.411,2.876C63.846,26.977,66.066,28.921,70.59,28.921ZM89.135,29a13.049,13.049,0,0,0,13.118-12.758c0-5.751-4.113-10.166-10.939-10.166A13.032,13.032,0,0,0,78.238,18.795C78.238,24.587,82.35,29,89.135,29Zm0.452-6.4a3.742,3.742,0,0,1-3.865-4.091c0-2.835,2.1-6.035,5.181-6.035a3.73,3.73,0,0,1,3.865,4.05C94.768,19.4,92.671,22.6,89.587,22.6Zm10.568,5.873h7.813l1.809-6.6c1.4-5.225,4.154-7.574,8.43-7.574h0.658l2.221-8.1c-3.619-.243-6.209,1.661-8.348,4.779l1.193-4.415h-7.813ZM125.691,29c6.415,0,9.622-3.645,9.622-7.858,0-3.645-3-5.144-6.209-6.4-2.3-.891-3.084-1.337-3.084-2.066,0-.77.658-1.256,1.933-1.256a11.307,11.307,0,0,1,6.291,2.349l3.742-4.617a16.009,16.009,0,0,0-9.622-3.078c-6.127,0-9.7,3.4-9.7,7.777,0,3.483,2.714,5.022,6.251,6.4,2.179,0.851,3.043,1.3,3.043,2.066,0,0.81-.658,1.337-1.974,1.337a11.981,11.981,0,0,1-7.4-2.957l-3.865,4.5A16.958,16.958,0,0,0,125.691,29Z"/>
  <path id="motors_copy_2" data-name="motors copy 2" class="cls-2" d="M-0.015,28.475H7.8l3.166-11.584c0.7-2.511,1.974-3.969,4.071-3.969a2.1,2.1,0,0,1,2.385,2.309,7.282,7.282,0,0,1-.288,1.782L14.007,28.475h7.813l3.166-11.584c0.7-2.511,1.974-3.969,4.071-3.969a2.085,2.085,0,0,1,2.385,2.309,7.277,7.277,0,0,1-.288,1.782L28.071,28.475h7.772l3.249-11.908a16.273,16.273,0,0,0,.658-3.969c0-4.01-2.344-6.521-6.579-6.521a10.615,10.615,0,0,0-8.06,3.807,5.715,5.715,0,0,0-5.8-3.807A8.749,8.749,0,0,0,13.1,8.993l0.658-2.43H5.948Zm3.87-15.806H14.888l-3.009,3.951H2.852Z"/>
</svg>
