<svg xmlns="http://www.w3.org/2000/svg" width="18.156" height="23.656" viewBox="0 0 18.156 23.656">
  <defs>
    <style>
      .cls-1 {
        fill: #acacac;
        fill-rule: evenodd;
      }
    </style>
  </defs>
  <path id="Shape_10_copy_30" data-name="Shape 10 copy 30" class="cls-1" d="M874.881,779.81a7.635,7.635,0,0,0,.358-2.291,7.778,7.778,0,0,0-.415-2.5l-1.136-3.334a3.461,3.461,0,0,0-2.459-2.249c-0.418-.1-0.949-0.211-1.535-0.3v-1.2h0.5a1,1,0,0,0,1.008-.986v-1.972A2,2,0,0,0,869.19,763h-4.033a2,2,0,0,0-2.017,1.973v1.972a1,1,0,0,0,1.008.986h0.5v1.2c-0.586.093-1.117,0.2-1.535,0.3a3.461,3.461,0,0,0-2.459,2.249l-1.136,3.334a7.778,7.778,0,0,0-.415,2.5,7.635,7.635,0,0,0,.358,2.291,1.722,1.722,0,0,0-1.367,1.667,12.8,12.8,0,0,0,.51,3.574l0.222,0.542a1.741,1.741,0,0,0,1.625,1.076h13.51a1.746,1.746,0,0,0,1.566-.947,11.305,11.305,0,0,0,.717-3.957v-0.288A1.722,1.722,0,0,0,874.881,779.81Zm-10.733-12.866v-1.972a1,1,0,0,1,1.008-.987h4.034a1,1,0,0,1,1.008.987v1.972h-6.05Zm4.537,0.986V769c-0.483-.048-0.984-0.084-1.512-0.084s-1.029.036-1.512,0.084v-1.07h3.024Zm-8.206,7.4,1.137-3.334a2.459,2.459,0,0,1,1.747-1.605,15.238,15.238,0,0,1,7.62,0,2.459,2.459,0,0,1,1.747,1.605l1.137,3.334a6.651,6.651,0,0,1-.1,4.611,1.719,1.719,0,0,0-.836.775l-0.463.907c-0.147-.049-0.338-0.107-0.548-0.168l0.662-1.273a5.832,5.832,0,0,0,.329-4.54l-1.137-3.334a1.484,1.484,0,0,0-1.037-.96,14.19,14.19,0,0,0-7.129,0,1.483,1.483,0,0,0-1.036.959l-1.137,3.335a5.83,5.83,0,0,0,.332,4.545l0.659,1.268c-0.21.061-.4,0.119-0.548,0.168l-0.463-.908a1.721,1.721,0,0,0-.836-0.774A6.651,6.651,0,0,1,860.479,775.326Zm11.2,4.409-0.758,1.459a16.1,16.1,0,0,0-7.5,0l-0.755-1.455a4.912,4.912,0,0,1-.535-2.22,4.859,4.859,0,0,1,.26-1.57l1.137-3.335a0.483,0.483,0,0,1,.326-0.314,13.161,13.161,0,0,1,6.635,0,0.483,0.483,0,0,1,.327.316l1.137,3.333a4.86,4.86,0,0,1,.261,1.57A4.92,4.92,0,0,1,871.682,779.735Zm3.557,2.03a10.389,10.389,0,0,1-.61,3.517,0.741,0.741,0,0,1-.664.4h-13.51a0.74,0.74,0,0,1-.69-0.456l-0.221-.542a11.9,11.9,0,0,1-.437-3.208,0.735,0.735,0,0,1,.742-0.726,0.742,0.742,0,0,1,.664.4l0.663,1.3a0.509,0.509,0,0,0,.638.237,15.559,15.559,0,0,1,10.718,0,0.513,0.513,0,0,0,.638-0.237l0.663-1.3a0.742,0.742,0,0,1,.664-0.4,0.735,0.735,0,0,1,.742.726v0.288Zm-3.182,1.477a25.665,25.665,0,0,1-9.768,0,0.507,0.507,0,0,0-.635.314,0.488,0.488,0,0,0,.318.622,26.32,26.32,0,0,0,10.4,0,0.488,0.488,0,0,0,.318-0.622A0.507,0.507,0,0,0,872.057,783.242Z" transform="translate(-858.094 -763)"/>
</svg>
