<svg xmlns="http://www.w3.org/2000/svg" width="23.688" height="23.656" viewBox="0 0 23.688 23.656">
  <defs>
    <style>
      .cls-1 {
        fill: #acacac;
        fill-rule: evenodd;
      }
    </style>
  </defs>
  <path id="Shape_7_copy_27" data-name="Shape 7 copy 27" class="cls-1" d="M555.124,463a11.835,11.835,0,1,0,11.837,11.835A11.849,11.849,0,0,0,555.124,463Zm0,22.684a10.849,10.849,0,1,1,10.85-10.849A10.862,10.862,0,0,1,555.124,485.683Zm5.425-16.767a1.481,1.481,0,0,0-1.479,1.48v2.959h-2.96V470.4a1.48,1.48,0,1,0-2.959,0v2.959H549.7a1.481,1.481,0,0,0-1.48,1.479v4.438a1.48,1.48,0,0,0,2.96,0v-2.959h1.972v2.959a1.48,1.48,0,0,0,2.959,0v-2.959h2.96v2.959a1.48,1.48,0,0,0,2.959,0V470.4A1.482,1.482,0,0,0,560.549,468.916Zm0.493,10.356a0.493,0.493,0,1,1-.986,0v-3.451a0.494,0.494,0,0,0-.493-0.494h-3.946a0.494,0.494,0,0,0-.493.494v3.451a0.493,0.493,0,1,1-.986,0v-3.451a0.494,0.494,0,0,0-.494-0.494h-2.959a0.494,0.494,0,0,0-.493.494v3.451a0.493,0.493,0,1,1-.986,0v-4.438a0.493,0.493,0,0,1,.493-0.493h3.945a0.493,0.493,0,0,0,.494-0.493V470.4a0.493,0.493,0,1,1,.986,0v3.452a0.493,0.493,0,0,0,.493.493h3.946a0.493,0.493,0,0,0,.493-0.493V470.4a0.493,0.493,0,1,1,.986,0v8.876Z" transform="translate(-543.281 -463)"/>
</svg>
