<svg xmlns="http://www.w3.org/2000/svg" width="18.156" height="23.656" viewBox="0 0 18.156 23.656">
  <defs>
    <style>
      .cls-1 {
        fill: #acacac;
        fill-rule: evenodd;
      }
    </style>
  </defs>
  <path id="Shape_9_copy_27" data-name="Shape 9 copy 27" class="cls-1" d="M453.576,464.972H444.5a0.5,0.5,0,0,0-.5.493v6.9a0.5,0.5,0,0,0,.5.492h9.075a0.5,0.5,0,0,0,.5-0.492v-6.9A0.5,0.5,0,0,0,453.576,464.972Zm-0.5,6.9h-8.067v-5.917h8.067v5.917Zm6.877-5.8-3.025-2.465a0.512,0.512,0,0,0-.71.063,0.484,0.484,0,0,0,.064.694l1.291,1.052a2.376,2.376,0,0,0,.641,3.024l0.911,0.714v13.077a0.5,0.5,0,0,1-1.008,0v-1.972a2.483,2.483,0,0,0-2.017-2.416V464.972A2,2,0,0,0,454.08,463H444a2,2,0,0,0-2.017,1.973V484.7A2,2,0,0,0,444,486.669H454.08A2,2,0,0,0,456.1,484.7V478.87a1.48,1.48,0,0,1,1.009,1.389v1.972a1.513,1.513,0,0,0,3.025,0v-15.78A0.49,0.49,0,0,0,459.949,466.072ZM455.088,484.7a1,1,0,0,1-1.008.986H444a1,1,0,0,1-1.008-.986V464.972a1,1,0,0,1,1.008-.987H454.08a1,1,0,0,1,1.008.987V484.7Zm4.033-16.807-0.281-.221a1.4,1.4,0,0,1-.456-1.588l0.738,0.6v1.208h0Zm-5.545,5.958H444.5a0.493,0.493,0,1,0,0,.986h9.075A0.493,0.493,0,1,0,453.576,473.848Z" transform="translate(-441.969 -463)"/>
</svg>
