<svg width="1920" height="560" viewBox="0 0 1920 560" fill="none" xmlns="http://www.w3.org/2000/svg">
<g style="mix-blend-mode:multiply">
<g style="mix-blend-mode:multiply">
<path d="M80.3157 133.047V123.044H100.1L126.478 112.44V105.638H165.646V112.44L192.224 122.844H212.208V132.847L80.3157 133.248V133.047ZM297.338 227.681V207.674L-4.41504 208.675V228.682L297.338 227.681ZM314.324 237.485L297.338 233.684L143.664 234.284L-4.2152 234.884L-21.2013 238.885C-22.6002 239.286 -23.3995 240.686 -22.6002 242.087L-21.0015 245.288C-20.0023 247.088 -18.2038 248.089 -16.2054 248.089L143.664 247.488L309.528 246.888C311.527 246.888 313.325 245.688 314.324 243.887L315.923 240.686C316.523 239.486 315.923 237.885 314.524 237.485H314.324ZM19.965 184.866V138.049L272.559 137.249V184.066L19.965 184.866ZM194.822 160.857C194.822 166.659 199.618 171.461 205.413 171.461C211.209 171.461 216.005 166.659 216.005 160.857C216.005 155.055 211.209 150.254 205.413 150.254C199.618 150.254 194.822 155.055 194.822 160.857ZM106.494 150.454V171.661H186.229V150.054H106.494V150.454ZM76.5188 161.458C76.5188 167.26 81.3149 172.061 87.1102 172.061C92.9054 172.061 97.7015 167.26 97.7015 161.458C97.7015 155.656 92.9054 150.854 87.1102 150.854C81.3149 150.854 76.5188 155.656 76.5188 161.458ZM301.135 549.797V559.2H202.216V550.197H207.012V495.777H202.016V483.173H206.812L206.413 383.137H201.617V370.533H206.413V366.931C206.413 334.12 179.635 307.71 147.061 307.91C114.288 307.91 87.9095 334.72 88.1094 367.331V370.933H92.9054V383.537H88.1094L88.509 483.573H93.3051V496.178H88.509V550.597H93.5049V559.2H-5.81389V550.997H-1.21765V496.578H-6.01373V483.973H-1.41749L-1.81716 383.937H-6.4134V371.333H-1.81716L-2.21684 254.291L295.34 253.291L295.74 370.333H300.336V382.937H295.74L296.139 482.973H300.736V495.577H296.139V549.997H300.935L301.135 549.797ZM32.1551 300.107C32.1551 305.909 36.9512 310.711 42.7464 310.711C48.5417 310.711 53.3378 305.909 53.3378 300.107C53.3378 294.305 48.5417 289.504 42.7464 289.504C36.9512 289.504 32.1551 294.305 32.1551 300.107ZM14.3696 343.123H71.5229V330.718H66.9267V319.714H18.9659V330.918H14.3696V343.123ZM14.3696 357.728H71.5229V350.725H14.3696V357.728ZM14.5694 420.55H71.7227V396.142H14.5694V420.55ZM14.5694 434.756H71.7227V427.753H14.7693V434.756H14.5694ZM14.5694 447.56H71.7227V440.558H14.7693V447.56H14.5694ZM14.5694 460.365H71.7227V453.362H14.7693V460.365H14.5694ZM14.5694 473.169H71.7227V466.167H14.7693V473.169H14.5694ZM14.5694 511.583H71.7227V504.581H14.9691V511.583H14.5694ZM14.5694 524.388H71.7227V517.385H14.9691V524.388H14.5694ZM71.7227 536.992V530.19H14.9691V537.192H72.1224L71.7227 536.992ZM239.985 299.307C239.985 305.109 244.781 309.911 250.577 309.911C256.372 309.911 261.168 305.109 261.168 299.307C261.168 293.505 256.372 288.703 250.577 288.703C244.781 288.703 239.985 293.505 239.985 299.307ZM222.2 342.322H279.353V329.918H274.757V318.914H226.996V330.118H222.4V342.322H222.2ZM222.2 356.928H279.353V349.925H222.2V356.928ZM222.4 419.75H279.553V395.341H222.4V419.75ZM222.4 433.955H279.553V426.953H222.4V433.955ZM222.4 446.76H279.553V439.757H222.4V446.76ZM222.4 459.565H279.553V452.562H222.4V459.565ZM222.4 472.369H279.553V465.367H222.4V472.369ZM222.4 510.783H279.553V503.78H222.4V510.783ZM222.4 523.587H279.553V516.585H222.4V523.587ZM279.553 536.192V529.39H222.4V536.392H279.553V536.192ZM288.146 202.872V188.467L3.57843 189.468V203.873L288.146 202.872Z" fill="#2956A6" fill-opacity="0.12"/>
</g>
<g style="mix-blend-mode:multiply">
<path d="M1806.7 350.725H1806.9C1808.5 350.926 1816.9 352.526 1816.5 358.328V359.729C1813.5 360.329 1811.7 360.929 1811.7 361.729C1811.7 362.33 1813.3 363.13 1816.3 363.73L1804.91 559H1825.29L1832.28 365.331C1833.48 365.331 1834.68 365.331 1835.88 365.531L1828.89 558.8H1864.06L1863.46 366.131H1867.06L1867.66 558.8H1902.83L1894.63 365.331C1895.83 365.331 1897.03 365.331 1898.23 365.131L1906.42 559H1927.01L1914.22 363.33C1917.21 362.73 1918.81 362.13 1918.81 361.329C1918.81 360.729 1917.01 359.929 1914.02 359.329V357.728C1913.62 352.126 1921.81 350.525 1923.61 350.325C1931 349.325 1935.2 348.125 1935.2 346.924C1935.2 346.324 1933.8 345.524 1931.4 344.923L1930.8 335.12C1930.8 332.319 1923.61 329.918 1912.02 328.117L1904.03 205.673C1906.42 205.273 1907.62 204.873 1907.62 204.273C1907.62 203.873 1906.22 203.273 1903.83 202.872V201.272C1903.83 197.471 1910.22 196.47 1911.42 196.27C1917.41 195.47 1920.81 194.67 1920.81 193.869C1920.81 193.469 1919.81 192.869 1917.81 192.469L1917.41 185.466C1917.41 183.466 1911.62 181.865 1902.43 180.464L1896.43 88.4315C1898.23 88.0313 1899.43 87.4311 1899.23 86.8309C1899.23 86.2307 1898.03 85.8305 1896.23 85.2303V84.0299C1895.83 79.2282 1901.23 78.0277 1902.43 77.8277C1907.22 77.0274 1910.02 76.027 1910.02 75.0266C1910.02 74.4264 1909.22 74.0263 1907.62 73.4261V67.4239C1907.22 65.2231 1902.63 63.2224 1895.03 61.8219L1894.23 40.2142H1898.43C1898.43 40.2142 1899.83 40.0141 1900.03 39.614L1900.63 38.8137C1900.63 38.8137 1900.63 38.2135 1900.03 38.0134L1894.23 37.2131V34.012C1894.43 28.8101 1888.44 24.4085 1881.44 20.4071C1878.65 18.8065 1875.45 17.2059 1872.45 15.2052C1872.65 15.2052 1873.05 15.0051 1873.25 14.8051C1873.65 14.8051 1873.45 14.2049 1873.25 14.2049C1870.05 13.2045 1867.26 10.6036 1865.66 9.00299C1865.46 8.80291 1865.06 8.60284 1864.86 8.60284V7.60248C1864.86 7.60248 1865.66 7.20234 1865.66 6.8022C1865.66 6.40205 1865.26 6.00191 1864.66 6.00191V5.20162C1864.66 5.20162 1865.06 5.00155 1865.06 4.60141C1865.06 4.40134 1864.86 4.00119 1864.46 4.00119V3.20091C1865.66 2.60069 1864.46 0.399902 1864.46 0.399902C1864.46 0.399902 1863.06 2.80076 1864.46 3.20091V4.00119C1864.46 4.00119 1863.86 4.20127 1863.86 4.60141C1863.86 4.80148 1864.06 5.00155 1864.46 5.20162V6.00191C1864.46 6.00191 1863.46 6.40205 1863.46 6.8022C1863.46 7.20234 1863.86 7.40241 1864.46 7.60248V8.60284C1864.46 8.60284 1863.86 8.80291 1863.46 9.00299C1861.86 10.6036 1858.86 13.2045 1855.86 14.2049C1855.46 14.2049 1855.46 14.605 1855.86 14.8051C1856.06 14.8051 1856.26 15.0051 1856.66 15.2052C1853.67 17.0059 1850.67 18.6064 1847.67 20.4071C1840.68 24.4085 1834.68 28.8101 1835.08 34.212V37.6132L1829.09 38.6136C1829.09 38.6136 1828.29 39.0137 1828.49 39.4139L1829.09 40.2142C1829.09 40.2142 1830.09 40.8144 1830.69 40.8144H1834.88L1834.28 62.4221C1826.89 63.8226 1822.09 65.8233 1822.09 68.2242V74.2264C1820.29 74.8266 1819.49 75.2267 1819.49 75.8269C1819.49 76.8273 1822.09 77.8277 1826.89 78.4279C1826.89 78.4279 1833.48 79.8284 1833.08 84.6301V85.8305C1831.08 86.2307 1829.89 86.8309 1829.89 87.4311C1829.89 88.0313 1830.89 88.4315 1832.68 89.0317L1827.29 181.065C1818.1 182.465 1812.5 184.066 1812.3 186.066V193.069C1810.1 193.469 1809.1 194.069 1809.1 194.469C1809.1 195.27 1812.5 196.07 1818.3 196.87C1819.29 196.87 1825.69 197.871 1826.09 201.872V203.473C1823.69 203.873 1822.29 204.273 1822.29 204.873C1822.29 205.273 1823.49 205.874 1825.89 206.274L1818.7 328.718C1807.3 330.518 1800.11 333.119 1800.11 335.72L1799.71 345.524C1797.31 346.124 1795.91 346.724 1795.91 347.524C1795.91 348.725 1800.11 349.925 1807.3 350.926L1806.7 350.725ZM1862.46 91.2325C1862.46 91.2325 1863.66 91.2325 1864.26 91.2325H1866.06V178.864C1866.06 178.864 1865.06 178.864 1864.46 178.864H1862.66V91.2325H1862.46ZM1864.86 325.316H1863.06L1862.66 207.874H1866.26L1866.66 325.316C1866.66 325.316 1865.46 325.316 1864.86 325.316ZM1896.43 326.517C1895.23 326.517 1894.03 326.517 1892.83 326.317L1887.84 207.474C1889.04 207.474 1890.24 207.474 1891.44 207.274L1896.43 326.717V326.517ZM1890.24 179.664C1889.04 179.664 1887.84 179.664 1886.64 179.464L1882.84 90.6322C1884.04 90.6322 1885.44 90.6322 1886.44 90.2321L1890.24 179.664ZM1880.04 47.4168C1881.04 46.4164 1882.24 45.6161 1883.24 44.4157C1884.24 45.6161 1885.44 46.6165 1886.44 47.4168C1887.84 48.6172 1888.84 49.8176 1888.84 51.2181C1888.84 51.2181 1888.84 52.0184 1888.24 52.0184V52.4185C1888.24 52.4185 1888.84 52.4185 1889.04 55.8198V61.2217C1885.84 60.8216 1882.04 60.4214 1878.05 60.2213V55.8198C1878.05 52.2185 1878.45 52.4185 1878.45 52.4185V52.0184L1877.85 51.2181C1877.85 49.6175 1878.85 48.4171 1880.04 47.2167V47.4168ZM1855.27 56.0198C1855.27 52.4185 1856.26 52.6186 1856.26 52.6186V52.2185L1855.27 51.4182C1855.27 49.8176 1856.86 48.6172 1858.86 47.4168C1860.46 46.4164 1862.46 45.6161 1864.06 44.4157C1865.66 45.6161 1867.46 46.6165 1869.25 47.4168C1871.25 48.4171 1873.05 49.8176 1873.05 51.2181C1873.05 51.2181 1873.05 52.0184 1872.05 52.0184V52.4185C1872.05 52.4185 1872.85 52.4185 1873.05 55.8198V59.8212C1870.25 59.8212 1867.26 59.8212 1864.26 59.8212C1861.26 59.8212 1858.26 59.8212 1855.27 60.0213V56.0198ZM1839.28 56.0198C1839.28 52.4185 1839.88 52.6186 1839.88 52.6186V52.2185L1839.28 51.4182C1839.28 49.8176 1840.28 48.6172 1841.68 47.4168C1842.68 46.4164 1843.87 45.6161 1844.87 44.4157C1845.87 45.6161 1847.07 46.6165 1848.07 47.4168C1849.27 48.6172 1850.47 49.8176 1850.27 51.2181C1850.27 51.2181 1850.27 52.0184 1849.67 52.0184V52.4185C1849.67 52.4185 1850.27 52.4185 1850.27 55.8198V60.2213C1846.27 60.4214 1842.48 60.8216 1839.08 61.4218V56.0198H1839.28ZM1842.28 90.2321C1843.47 90.2321 1844.67 90.2321 1845.87 90.4322L1842.68 179.264C1841.48 179.264 1840.28 179.264 1839.08 179.464L1842.28 90.032V90.2321ZM1838.08 207.074C1839.28 207.074 1840.48 207.074 1841.68 207.074L1837.48 325.917C1836.28 325.917 1835.08 325.917 1833.88 326.317L1838.08 206.874V207.074Z" fill="#2956A6" fill-opacity="0.12"/>
</g>
<g style="mix-blend-mode:multiply">
<path d="M1044.33 559H1751.35L1750.95 427.753H1743.16V416.149C1743.16 407.346 1735.96 400.143 1726.97 400.143C1725.37 400.143 1723.77 400.343 1722.37 400.743V325.717H1734.56V321.115L1723.17 318.114C1727.97 308.911 1727.57 297.106 1723.37 287.503C1711.78 259.893 1681.41 249.889 1659.62 232.683C1660.02 232.083 1660.22 231.283 1660.22 230.482C1660.22 228.682 1659.23 227.081 1657.63 226.281C1657.63 218.478 1655.43 206.674 1655.43 206.674C1655.43 206.674 1653.43 218.678 1653.43 226.281C1651.83 227.081 1650.83 228.682 1650.83 230.482C1650.83 231.283 1651.03 232.083 1651.43 232.683C1629.85 250.089 1599.47 260.293 1588.08 287.903C1584.09 297.506 1583.69 309.311 1588.48 318.514L1577.09 321.515V325.917H1589.68V400.943C1588.48 400.543 1586.88 400.343 1585.49 400.343C1576.69 400.343 1569.5 407.546 1569.5 416.349V427.953H1561.71V449.961H1544.12V430.754C1544.12 426.353 1540.32 422.751 1535.93 422.751H1529.33L1528.73 232.083H1529.33C1529.33 232.083 1530.73 231.483 1530.73 230.682C1530.73 229.882 1530.13 229.282 1529.33 229.282H1528.73C1528.73 227.481 1530.13 226.481 1530.13 223.08C1530.13 219.679 1531.13 219.478 1531.13 219.478C1532.53 219.078 1533.53 217.878 1533.53 216.277C1533.53 214.477 1532.13 213.076 1530.33 213.076H1528.53V203.273H1531.33C1532.53 203.273 1533.53 202.272 1533.53 201.072C1533.53 199.871 1532.53 198.871 1531.33 198.871C1532.13 197.07 1531.93 194.87 1531.33 193.069C1529.53 187.867 1524.74 186.066 1521.14 182.865C1521.14 182.865 1521.14 182.665 1521.14 182.465C1521.14 182.065 1521.14 181.865 1520.74 181.665C1520.74 180.264 1520.34 178.064 1520.34 178.064C1520.34 178.064 1519.94 180.264 1519.94 181.665C1519.74 181.665 1519.54 182.065 1519.54 182.465C1519.54 182.465 1519.54 182.665 1519.54 182.865C1516.14 186.066 1511.35 188.067 1509.55 193.069C1508.95 194.87 1508.95 197.07 1509.55 198.671C1508.35 198.671 1507.35 199.671 1507.35 200.872C1507.35 202.072 1508.35 203.073 1509.55 203.073H1512.35V212.876H1510.55C1508.75 212.876 1507.35 214.277 1507.35 216.077C1507.35 217.678 1508.35 218.878 1509.95 219.278C1509.95 219.278 1510.95 219.278 1510.95 222.88C1510.95 226.281 1512.35 227.281 1512.35 229.082H1511.75C1511.75 229.082 1510.35 229.682 1510.35 230.482C1510.35 231.283 1510.95 231.883 1511.75 231.883H1512.35L1512.94 422.551H1502.15V365.331C1501.95 362.33 1499.56 359.729 1496.36 359.929V359.329L1493.96 358.728C1494.96 356.928 1494.76 354.327 1493.96 352.326C1491.56 346.524 1485.37 344.523 1480.77 340.922C1480.77 340.922 1480.77 340.722 1480.77 340.522C1480.77 340.122 1480.57 339.722 1480.17 339.722C1480.17 338.121 1479.77 335.72 1479.77 335.72C1479.77 335.72 1479.37 338.121 1479.37 339.722C1478.97 339.722 1478.77 340.122 1478.77 340.522V340.922C1474.38 344.523 1467.98 346.524 1465.78 352.326C1464.98 354.327 1464.98 356.728 1465.78 358.728L1463.39 359.329V359.929H1462.39V359.329L1459.99 358.728C1460.99 356.928 1460.79 354.327 1459.99 352.326C1457.59 346.524 1451.4 344.523 1446.8 340.922C1446.8 340.922 1446.8 340.722 1446.8 340.522C1446.8 340.122 1446.6 339.722 1446.2 339.722C1446.2 338.121 1445.8 335.72 1445.8 335.72C1445.8 335.72 1445.4 338.121 1445.4 339.722C1445 339.722 1444.8 340.122 1444.8 340.522V340.922C1440.4 344.523 1434.01 346.524 1431.81 352.326C1431.01 354.327 1431.01 356.728 1431.81 358.728L1429.41 359.329V359.929H1428.41V359.329L1426.02 358.728C1427.02 356.928 1426.82 354.327 1426.02 352.326C1423.62 346.524 1417.42 344.523 1412.83 340.922C1412.83 340.922 1412.83 340.722 1412.83 340.522C1412.83 340.122 1412.63 339.722 1412.23 339.722C1412.23 338.121 1411.83 335.72 1411.83 335.72C1411.83 335.72 1411.43 338.121 1411.43 339.722C1411.03 339.722 1410.83 340.122 1410.83 340.522V340.922C1406.43 344.523 1400.04 346.524 1397.84 352.326C1397.04 354.327 1397.04 356.728 1397.84 358.728L1395.44 359.329V359.929H1394.44V359.329L1392.04 358.728C1393.04 356.928 1392.84 354.327 1392.04 352.326C1389.65 346.524 1383.45 344.523 1378.85 340.922C1378.85 340.922 1378.85 340.722 1378.85 340.522C1378.85 340.122 1378.65 339.722 1378.26 339.722C1378.26 338.121 1377.86 335.72 1377.86 335.72C1377.86 335.72 1377.46 338.121 1377.46 339.722C1377.06 339.722 1376.86 340.122 1376.86 340.522V340.922C1372.46 344.523 1366.06 346.524 1363.87 352.326C1363.07 354.327 1363.07 356.728 1363.87 358.728L1361.47 359.329V359.929H1360.47V359.329L1358.07 358.728C1359.07 356.928 1358.87 354.327 1358.07 352.326C1355.67 346.524 1349.48 344.523 1344.88 340.922C1344.88 340.922 1344.88 340.722 1344.88 340.522C1344.88 340.122 1344.68 339.722 1344.28 339.722C1344.28 338.121 1343.88 335.72 1343.88 335.72C1343.88 335.72 1343.48 338.121 1343.48 339.722C1343.08 339.722 1342.88 340.122 1342.88 340.522V340.922C1338.49 344.523 1332.09 346.524 1329.89 352.326C1329.1 354.327 1329.1 356.728 1329.89 358.728L1327.5 359.329V359.929H1326.5V359.329L1324.1 358.728C1325.1 356.928 1324.9 354.327 1324.1 352.326C1321.7 346.524 1315.51 344.523 1310.91 340.922C1310.91 340.922 1310.91 340.722 1310.91 340.522C1310.91 340.122 1310.71 339.722 1310.31 339.722C1310.31 338.121 1309.91 335.72 1309.91 335.72C1309.91 335.72 1309.51 338.121 1309.51 339.722C1309.11 339.722 1308.91 340.122 1308.91 340.522V340.922C1304.52 344.523 1298.12 346.524 1295.92 352.326C1295.12 354.327 1295.12 356.728 1295.92 358.728L1293.52 359.329V359.929C1290.53 359.929 1287.93 362.33 1288.13 365.531V422.751H1277.34L1276.74 232.083H1277.34C1277.34 232.083 1278.74 231.483 1278.74 230.682C1278.74 229.882 1278.14 229.282 1277.34 229.282H1276.74C1276.74 227.481 1278.14 226.481 1278.14 223.08C1278.14 219.679 1279.14 219.478 1279.14 219.478C1280.53 219.078 1281.53 217.878 1281.53 216.277C1281.53 214.477 1280.14 213.076 1278.34 213.076H1276.54V203.273H1279.34C1280.53 203.273 1281.53 202.272 1281.53 201.072C1281.53 199.871 1280.53 198.871 1279.34 198.871C1280.14 197.07 1279.94 194.87 1279.34 193.069C1277.54 187.867 1272.74 186.066 1269.14 182.865C1269.14 182.865 1269.14 182.665 1269.14 182.465C1269.14 182.065 1269.14 181.865 1268.74 181.665C1268.74 180.264 1268.34 178.064 1268.34 178.064C1268.34 178.064 1267.95 180.264 1267.95 181.665C1267.75 181.665 1267.55 182.065 1267.55 182.465C1267.55 182.465 1267.55 182.665 1267.55 182.865C1264.15 186.066 1259.35 188.067 1257.55 193.069C1256.95 194.87 1256.95 197.07 1257.55 198.671C1256.35 198.671 1255.36 199.671 1255.36 200.872C1255.36 202.072 1256.35 203.073 1257.55 203.073H1260.35V212.876H1258.55C1256.75 212.876 1255.36 214.277 1255.36 216.077C1255.36 217.678 1256.35 218.878 1257.95 219.278C1257.95 219.278 1258.95 219.278 1258.95 222.88C1258.95 226.281 1260.35 227.281 1260.35 229.082H1259.75C1259.75 229.082 1258.35 229.682 1258.35 230.482C1258.35 231.283 1258.95 231.883 1259.75 231.883H1260.35L1260.95 422.551H1254.36C1249.96 422.551 1246.36 426.153 1246.36 430.754V449.961H1228.78V427.953H1220.98V416.349C1220.98 407.546 1213.79 400.343 1204.8 400.343C1203.2 400.343 1201.6 400.543 1200.2 400.943V325.917H1212.39V321.315L1201 318.314C1205.8 309.111 1205.4 297.306 1201.2 287.703C1189.61 260.093 1159.23 250.089 1137.45 232.883C1137.85 232.283 1138.05 231.483 1138.05 230.682C1138.05 228.882 1137.05 227.281 1135.45 226.481C1135.45 218.678 1133.26 206.874 1133.26 206.874C1133.26 206.874 1131.26 218.878 1131.26 226.481C1129.66 227.281 1128.66 228.882 1128.66 230.682C1128.66 231.483 1128.86 232.283 1129.26 232.883C1107.68 250.289 1077.3 260.493 1065.91 288.103C1061.91 297.706 1061.51 309.511 1066.31 318.714L1054.92 321.715V326.117H1067.51V401.144C1066.31 400.743 1064.71 400.543 1063.31 400.543C1054.52 400.543 1047.33 407.746 1047.33 416.549V428.153H1039.53L1039.93 556.999L1044.33 559ZM1726.97 411.747C1729.57 411.747 1731.77 413.948 1731.77 416.549V427.753H1722.17V416.549C1722.17 413.948 1724.37 411.747 1726.97 411.747ZM1651.43 428.153V416.949C1651.43 414.348 1653.63 412.148 1656.23 412.148C1658.83 412.148 1661.02 414.348 1661.02 416.949V428.153H1651.43ZM1690.2 349.725C1694.6 339.121 1706.39 335.72 1714.18 328.718V406.145C1712.18 408.946 1710.78 412.548 1710.78 416.349V427.953H1707.59V416.349C1707.59 407.546 1700.39 400.343 1691.4 400.343C1690.6 400.343 1690 400.343 1689.2 400.343V371.333C1689.2 365.931 1692.4 363.93 1692.4 363.93V362.53H1689V354.327C1689 352.726 1689.4 351.126 1690 349.525L1690.2 349.725ZM1691.4 412.148C1694 412.148 1696.2 414.348 1696.2 416.949V428.153H1686.6V416.949C1686.6 414.348 1688.8 412.148 1691.4 412.148ZM1631.45 349.925C1635.84 339.121 1648.03 335.72 1655.83 328.518C1663.62 335.52 1675.81 338.921 1680.41 349.725C1681.01 351.126 1681.41 352.926 1681.61 354.527V362.73H1678.21V364.13C1678.21 364.13 1681.61 366.331 1681.61 371.533V403.744C1678.01 406.746 1675.41 411.347 1675.41 416.549V428.153H1672.21V416.549C1672.21 407.746 1665.02 400.543 1656.03 400.543C1647.24 400.543 1640.04 407.746 1640.04 416.549V428.153H1636.84V416.549C1636.84 411.347 1634.25 406.746 1630.45 403.945V371.733C1630.45 366.331 1633.65 364.33 1633.65 364.33V362.93H1630.25V354.727C1630.25 353.126 1630.65 351.526 1631.25 349.925H1631.45ZM1625.65 417.149V428.353H1616.06V417.149C1616.06 414.548 1618.26 412.348 1620.86 412.348C1623.45 412.348 1625.65 414.548 1625.65 417.149ZM1621.66 349.925C1622.26 351.326 1622.66 353.126 1622.86 354.727V362.93H1619.46V364.33C1619.46 364.33 1622.86 366.531 1622.86 371.733V400.743C1622.86 400.743 1621.46 400.743 1620.86 400.743C1612.06 400.743 1604.87 407.946 1604.87 416.749V428.353H1601.67V416.749C1601.67 412.948 1600.27 409.347 1597.88 406.546V329.118C1605.47 335.92 1617.26 339.321 1621.66 349.925ZM1585.49 412.348C1588.08 412.348 1590.28 414.548 1590.28 417.149V428.353H1580.69V417.149C1580.69 414.548 1582.89 412.348 1585.49 412.348ZM1497.36 435.556C1499.96 435.556 1501.95 437.557 1501.95 440.158V450.761H1492.76V440.158C1492.76 437.557 1494.76 435.556 1497.36 435.556ZM1479.37 370.933C1486.37 370.333 1492.16 375.734 1492.16 382.537V425.552C1486.37 427.553 1481.97 433.355 1482.17 439.957V450.961H1479.17V439.957C1479.17 433.355 1474.98 427.753 1469.18 425.752V383.137C1469.18 377.135 1473.58 371.733 1479.57 371.133L1479.37 370.933ZM1463.79 435.756C1466.38 435.756 1468.38 437.757 1468.38 440.358V450.961H1459.19V440.358C1459.19 437.757 1461.19 435.756 1463.79 435.756ZM1447 371.133C1453.39 371.133 1458.59 376.335 1458.79 382.737V425.752C1452.99 427.753 1448.8 433.555 1448.8 440.158V451.161H1445.8V440.158C1445.8 433.555 1441.6 427.953 1435.81 425.952V382.937C1435.81 376.535 1440.8 371.333 1447.2 371.133H1447ZM1430.41 435.956C1433.01 435.956 1435.01 437.957 1435.01 440.558V451.161H1425.82V440.558C1425.82 437.957 1427.81 435.956 1430.41 435.956ZM1413.63 371.333C1420.02 371.333 1425.22 376.535 1425.42 382.937V425.952C1419.62 427.953 1415.42 433.755 1415.42 440.358V451.362H1412.43V440.358C1412.43 433.755 1408.23 428.153 1402.24 426.153V383.137C1402.24 376.735 1407.23 371.533 1413.63 371.333ZM1397.04 436.156C1399.64 436.156 1401.64 438.157 1401.64 440.758V451.362H1392.44V440.758C1392.44 438.157 1394.44 436.156 1397.04 436.156ZM1380.25 371.533C1386.65 371.533 1391.84 376.735 1392.04 383.137V426.153C1386.25 428.153 1382.05 433.955 1382.05 440.558V451.562H1379.05V440.558C1379.05 433.955 1374.86 428.353 1368.86 426.353V383.337C1368.86 376.935 1373.86 371.733 1380.25 371.533ZM1363.67 436.356C1366.26 436.356 1368.26 438.357 1368.26 440.958V451.562H1359.07V440.958C1359.07 438.357 1361.07 436.356 1363.67 436.356ZM1346.68 371.733C1353.08 371.733 1358.27 376.935 1358.47 383.337V426.353C1352.68 428.353 1348.48 434.155 1348.48 440.758V451.762H1345.48V440.758C1345.48 434.155 1341.29 428.553 1335.29 426.553V383.537C1335.29 377.135 1340.29 371.933 1346.68 371.733ZM1330.09 436.556C1332.69 436.556 1334.69 438.557 1334.69 441.158V451.762H1325.5V441.158C1325.5 438.557 1327.5 436.556 1330.09 436.556ZM1312.11 371.933C1319.1 371.333 1324.9 376.735 1324.9 383.537V426.553C1319.1 428.753 1314.91 434.355 1314.91 440.958V451.962H1311.91V440.958C1311.91 434.355 1307.51 428.753 1301.72 426.753V384.137C1301.72 378.135 1306.11 372.733 1312.11 372.133V371.933ZM1296.72 436.756C1299.32 436.756 1301.32 438.757 1301.32 441.358V451.962H1292.13V441.358C1292.13 438.757 1294.12 436.756 1296.72 436.756ZM1208.59 414.148C1211.19 414.148 1213.39 416.349 1213.39 418.95V430.154H1203.8V418.95C1203.8 416.349 1206 414.148 1208.59 414.148ZM1133.06 430.554V419.35C1133.06 416.749 1135.25 414.548 1137.85 414.548C1140.45 414.548 1142.65 416.749 1142.65 419.35V430.554H1133.06ZM1171.82 352.126C1176.22 341.522 1188.01 338.121 1195.8 331.118V408.546C1193.81 411.347 1192.41 414.949 1192.41 418.75V430.354H1189.21V418.75C1189.21 409.947 1182.02 402.744 1173.02 402.744C1173.02 402.744 1171.62 402.744 1170.82 402.744V373.734C1170.82 368.332 1174.02 366.331 1174.02 366.331V364.931H1170.62V356.728C1170.62 355.127 1171.02 353.527 1171.62 351.926L1171.82 352.126ZM1173.02 414.548C1175.62 414.548 1177.82 416.749 1177.82 419.35V430.554H1168.23V419.35C1168.23 416.749 1170.42 414.548 1173.02 414.548ZM1113.07 352.326C1117.47 341.522 1129.66 338.121 1137.45 330.918C1145.25 337.921 1157.44 341.322 1162.03 352.126C1162.63 353.526 1163.03 355.327 1163.23 356.928V365.131H1159.83V366.531C1159.83 366.531 1163.23 368.732 1163.23 373.934V406.145C1159.63 409.146 1157.04 413.748 1157.04 418.95V430.554H1153.84V418.95C1153.84 410.147 1146.64 402.944 1137.65 402.944C1128.86 402.944 1121.66 410.147 1121.66 418.95V430.554H1118.47V418.95C1118.47 413.748 1115.87 409.146 1112.07 406.345V374.134C1112.07 368.732 1115.27 366.731 1115.27 366.731V365.331H1111.87V357.128C1111.87 355.527 1112.27 353.927 1112.87 352.326H1113.07ZM1107.28 419.55V430.754H1097.68V419.55C1097.68 416.949 1099.88 414.748 1102.48 414.748C1105.08 414.748 1107.28 416.949 1107.28 419.55ZM1103.28 352.326C1103.88 353.727 1104.28 355.527 1104.48 357.128V365.331H1101.08V366.731C1101.08 366.731 1104.48 368.932 1104.48 374.134V403.144C1104.48 403.144 1103.08 403.144 1102.48 403.144C1093.69 403.144 1086.49 410.347 1086.49 419.15V430.754H1083.3V419.15C1083.3 415.349 1081.9 411.747 1079.5 408.946V331.519C1087.09 338.321 1098.88 341.722 1103.28 352.326ZM1067.11 414.748C1069.71 414.748 1071.91 416.949 1071.91 419.55V430.754H1062.31V419.55C1062.31 416.949 1064.51 414.748 1067.11 414.748Z" fill="#2956A6" fill-opacity="0.12"/>
</g>
<g style="mix-blend-mode:multiply">
<path d="M359.088 531.99V559H997.366V534.992L987.774 529.99L985.976 459.564C986.975 459.364 987.574 458.964 987.574 458.764C987.574 458.564 986.975 458.164 985.976 457.964V457.364C985.976 454.763 989.573 454.363 989.573 454.363C992.171 453.962 993.569 453.562 993.569 452.962C993.569 452.762 993.17 452.362 992.171 452.162V447.96C992.171 446.76 989.573 445.76 985.576 444.959L984.177 387.139C984.177 387.139 985.576 386.738 985.576 386.338C985.576 386.138 984.977 385.938 984.177 385.538V384.738C984.177 382.537 987.375 382.137 987.375 382.137C989.773 381.737 991.171 381.336 991.171 380.936C991.171 380.736 990.772 380.336 989.972 380.136V376.335C989.972 375.334 987.574 374.334 983.977 373.734L982.578 319.314C982.578 319.314 983.977 318.714 983.977 318.314C983.977 317.914 983.578 317.714 982.578 317.314V316.513C982.578 313.112 985.576 312.512 985.576 312.512C987.774 311.912 988.973 311.311 988.973 310.711C988.973 310.311 988.574 309.911 987.974 309.711V305.709C987.974 304.309 985.776 302.908 982.578 301.908V286.903H984.577C984.577 286.903 985.176 286.903 985.376 286.502V285.902C985.376 285.902 985.576 285.502 985.376 285.302L982.578 284.702V282.301C982.778 278.5 979.981 275.298 976.783 272.497C975.384 271.297 973.985 270.097 972.587 268.696H972.986V268.096C971.587 267.296 970.189 265.495 969.389 264.294C969.389 264.294 969.189 264.094 968.99 263.894V263.094C968.99 263.094 969.389 262.894 969.389 262.494C969.389 262.294 969.189 261.894 968.99 261.894V261.293C968.99 261.293 969.189 261.093 969.189 260.893C969.189 260.693 969.189 260.493 968.99 260.493V259.893V257.692C968.99 257.692 968.39 259.493 968.99 259.893V260.493C968.99 260.493 968.79 260.693 968.79 260.893C968.79 261.093 968.79 261.293 968.99 261.293V261.894C968.99 261.894 968.59 262.094 968.59 262.494C968.59 262.694 968.59 263.094 968.99 263.094V263.894C968.99 263.894 968.59 263.894 968.59 264.294C967.79 265.495 966.392 267.496 964.993 268.096V268.496H965.392C963.994 270.097 962.595 271.297 961.196 272.497C957.998 275.499 955.201 278.7 955.401 282.501V284.902L952.603 285.502C952.603 285.502 952.203 285.902 952.403 286.102V286.703C952.403 286.703 953.202 287.103 953.402 287.103H955.401V301.908C952.003 302.908 950.005 304.309 950.005 305.709V309.711C950.005 309.711 949.006 310.311 949.006 310.711C949.006 311.311 950.205 311.912 952.403 312.512C952.403 312.512 955.401 313.112 955.401 316.513V317.314C955.401 317.314 954.002 317.914 954.002 318.314C954.002 318.714 954.401 318.914 955.401 319.314L954.401 373.734C950.605 374.534 948.406 375.334 948.406 376.535V380.336C948.406 380.336 947.207 380.736 947.207 381.136C947.207 381.537 948.606 381.937 951.004 382.337C951.004 382.337 954.202 382.737 954.202 384.938V385.738C954.202 385.738 952.803 386.138 952.803 386.538C952.803 386.738 953.402 386.938 954.202 387.139L953.202 444.959C949.006 445.76 946.608 446.76 946.608 447.96V452.162C946.608 452.162 945.409 452.762 945.409 452.962C945.409 453.562 947.008 453.962 949.406 454.363C949.406 454.363 953.003 454.763 953.003 457.564V458.164C952.003 458.364 951.404 458.764 951.404 458.964C951.404 459.164 952.003 459.564 953.003 459.765L951.804 530.19H914.634L913.635 487.174L914.634 486.774C914.634 486.774 914.234 486.374 913.635 486.374V485.974C913.635 484.373 915.833 484.173 915.833 484.173C917.432 483.973 918.431 483.573 918.431 483.373C918.431 483.373 918.231 482.973 917.631 482.973V480.372C917.631 480.372 916.033 478.971 913.635 478.571L912.835 443.159C912.835 443.159 913.635 442.959 913.635 442.758C913.635 442.758 913.235 442.358 912.636 442.358V441.958C912.636 440.558 914.634 440.358 914.634 440.358C916.033 440.158 916.832 439.957 916.832 439.557C916.832 439.557 916.632 439.157 916.033 439.157V436.956C916.033 436.956 914.634 435.756 912.236 435.356L911.437 401.944C911.437 401.944 912.236 401.544 912.236 401.344C912.236 401.144 911.836 400.943 911.437 400.743V400.343C911.437 398.142 913.235 397.942 913.235 397.942C914.434 397.542 915.233 397.342 915.233 396.742C915.233 396.542 915.034 396.342 914.634 396.142V393.741C914.634 393.741 913.435 391.94 911.237 391.34V382.137H912.436C912.436 382.137 912.835 382.137 912.835 381.937V381.537C912.835 381.537 912.835 381.336 912.835 381.136L911.237 380.736V379.336C911.237 376.935 909.638 375.134 907.64 373.334C906.84 372.533 905.841 371.933 905.042 370.933H905.242V370.533C904.242 370.132 903.443 368.932 903.043 368.132C903.043 368.132 903.043 368.132 902.844 368.132V367.732C902.844 367.732 903.043 367.732 903.043 367.331C903.043 367.331 903.043 366.931 902.844 366.931V366.531C902.844 366.531 902.844 366.531 902.844 366.331V366.131V365.731V364.33C902.844 364.33 902.444 365.331 902.844 365.731V366.131C902.844 366.131 902.844 366.131 902.844 366.331V366.531V366.931C902.844 366.931 902.444 366.931 902.444 367.331C902.444 367.331 902.444 367.732 902.644 367.732V368.132H902.444C902.044 368.932 901.045 370.132 900.246 370.533V370.733H900.445C900.445 370.733 898.647 372.533 897.848 373.134C895.849 374.934 894.251 376.935 894.251 379.136V380.536L892.652 380.936C892.652 380.936 892.452 380.936 892.652 381.336V381.737C892.652 381.737 893.052 381.937 893.251 381.937H894.45V391.14C892.452 391.74 891.053 392.54 891.053 393.541V395.942C891.053 395.942 890.454 396.342 890.454 396.542C890.454 396.942 891.253 397.342 892.452 397.542C892.452 397.542 894.251 397.942 894.251 399.943V400.343C894.251 400.343 893.451 400.743 893.451 400.943C893.451 401.144 893.651 401.344 894.251 401.544L893.651 434.956C891.453 435.356 890.054 435.956 890.054 436.556V438.757C890.054 438.757 889.255 438.957 889.255 439.157C889.255 439.357 890.054 439.757 891.453 439.957C891.453 439.957 893.451 440.158 893.451 441.558V441.958C893.451 441.958 892.452 442.158 892.452 442.358C892.452 442.358 892.852 442.558 893.251 442.758L892.652 478.171C890.054 478.571 888.655 479.372 888.655 479.972V482.573L887.856 482.973C887.856 483.373 888.855 483.573 890.454 483.773C890.454 483.773 892.652 483.973 892.652 485.774V486.174L891.653 486.574C891.653 486.574 892.052 486.974 892.652 486.974L891.853 530.19H877.065L876.665 401.144V374.534C876.665 374.534 877.464 373.534 877.864 370.533C878.264 367.331 879.862 367.131 879.862 367.131C879.862 367.131 880.262 367.131 880.262 366.931C880.262 366.931 880.262 366.531 880.262 366.331L878.863 365.931C878.863 364.73 877.864 363.73 876.865 362.73C876.465 362.33 875.866 361.929 875.266 361.329C875.266 361.329 874.267 360.129 873.867 359.729V359.329C873.867 359.329 873.867 359.329 873.867 359.128V358.728V358.328V357.528C873.867 357.528 873.667 358.128 873.867 358.328V358.728V359.128C873.867 359.128 873.867 359.128 873.867 359.329V359.729C873.867 359.729 872.868 360.929 872.468 361.129C872.468 361.129 871.469 362.33 870.87 362.73C869.871 363.73 868.871 364.73 868.871 365.931L867.473 366.331C867.473 366.331 867.473 366.331 867.473 366.531C867.473 366.531 867.672 366.931 867.872 366.931C867.872 366.931 869.471 367.131 870.07 370.332C870.47 373.334 870.87 374.334 871.269 374.334V400.143L860.278 398.743V336.72C860.278 336.72 861.078 335.72 861.477 332.719C861.877 329.518 863.476 329.318 863.476 329.318C863.476 329.318 863.875 329.318 863.875 329.118C863.875 329.118 863.875 328.718 863.875 328.518L862.477 328.117C862.477 326.917 861.477 325.917 860.478 324.916C860.078 324.516 859.479 324.116 858.88 323.516C858.88 323.516 857.88 322.315 857.481 321.915V321.515C857.481 321.515 857.481 321.515 857.481 321.315V320.915V320.515V319.714C857.481 319.714 857.281 320.315 857.481 320.515V320.915V321.315C857.481 321.315 857.481 321.315 857.481 321.515V321.915C857.481 321.915 856.481 323.116 856.082 323.316C856.082 323.316 855.083 324.516 854.483 324.916C853.484 325.917 852.485 326.917 852.485 328.117L851.086 328.518C851.086 328.518 851.086 328.518 851.086 328.718C851.086 328.718 851.286 329.118 851.486 329.118C851.486 329.118 853.084 329.318 853.684 332.519C854.083 335.52 854.483 336.52 854.883 336.52V379.136H844.092L827.505 390.34V356.928C827.505 356.928 828.304 355.927 828.704 352.926C829.104 349.725 830.703 349.525 830.703 349.525C830.703 349.525 831.102 349.525 831.102 349.325C831.102 349.325 831.102 348.925 831.102 348.725L829.703 348.325C829.703 347.124 828.704 346.124 827.705 345.123C827.305 344.723 826.706 344.323 826.106 343.723C826.106 343.723 825.107 342.523 824.707 342.122V341.722C824.707 341.722 824.707 341.722 824.707 341.522V341.122V340.722V339.922C824.707 339.922 824.508 340.522 824.707 340.722V341.122V341.522C824.707 341.522 824.707 341.522 824.707 341.722V342.122C824.707 342.122 823.708 343.323 823.309 343.523C823.309 343.523 822.309 344.723 821.71 345.123C820.711 346.124 819.711 347.124 819.711 348.325L818.313 348.725C818.313 348.725 818.313 348.725 818.313 348.925C818.313 348.925 818.512 349.325 818.712 349.325C818.712 349.325 820.311 349.525 820.91 352.726C821.31 355.727 821.71 356.728 822.11 356.728V395.742H805.123V357.328H808.92C808.92 357.328 810.119 356.928 810.519 356.327L811.119 355.327C811.119 355.327 811.119 354.327 810.719 354.327L805.123 353.126V348.325C805.523 340.522 799.728 334.12 793.133 328.117C790.336 325.717 787.338 323.116 784.34 320.315C784.54 320.315 784.94 319.914 785.14 319.714C785.539 319.514 785.34 318.914 785.14 318.714C782.142 317.314 779.145 313.312 777.746 310.711C777.546 310.311 777.146 310.111 776.946 310.111V308.71C776.946 308.71 777.746 308.11 777.746 307.51C777.746 306.91 777.346 306.31 776.747 306.31V304.909C776.747 304.909 777.146 304.509 777.146 304.109C777.146 303.709 776.946 303.308 776.547 303.308V301.908C777.746 301.108 776.547 297.506 776.547 297.506C776.547 297.506 775.148 301.108 776.547 301.908V303.308C776.547 303.308 775.947 303.709 775.947 304.109C775.947 304.509 776.147 304.909 776.547 304.909V306.31C776.547 306.31 775.548 306.91 775.548 307.51C775.548 308.11 775.947 308.51 776.547 308.71V310.111C776.547 310.111 775.947 310.511 775.747 310.711C774.149 313.112 771.351 317.113 768.353 318.714C767.954 318.714 767.954 319.314 768.353 319.714C768.553 319.714 768.753 320.115 769.153 320.115C766.155 322.916 763.358 325.316 760.56 327.917C753.965 333.919 748.17 340.522 748.769 348.325V353.126L743.973 354.327C744.573 350.325 745.172 348.325 745.172 348.325C742.774 348.325 742.575 337.321 742.575 336.52C742.575 316.113 725.788 300.708 708.402 288.103C702.008 283.501 695.613 279.1 689.418 274.298C690.017 274.098 690.417 273.698 690.817 273.498C691.416 273.098 691.217 272.097 690.817 271.897C684.622 269.496 678.827 263.094 675.829 259.293C674.63 257.892 672.432 257.892 671.233 259.293C668.235 263.094 662.44 269.696 656.445 272.097C655.845 272.297 655.646 273.298 656.445 273.698C656.845 273.898 657.244 274.298 657.844 274.498C651.649 279.3 645.254 283.701 638.859 288.503C622.473 300.708 606.486 315.313 605.087 334.32C603.288 332.319 601.49 330.518 599.491 328.718C596.694 326.317 593.696 323.716 590.699 320.915C590.898 320.915 591.298 320.515 591.498 320.315C591.898 320.115 591.698 319.514 591.498 319.314C588.5 317.914 585.503 313.912 584.104 311.311C583.904 310.911 583.505 310.711 583.305 310.711V309.311C583.305 309.311 584.104 308.71 584.104 308.11C584.104 307.51 583.704 306.91 583.105 306.91V305.509C583.105 305.509 583.505 305.109 583.505 304.709C583.505 304.309 583.305 303.909 582.905 303.909V302.508C584.104 301.708 582.905 298.107 582.905 298.107C582.905 298.107 581.506 301.708 582.905 302.508V303.909C582.905 303.909 582.305 304.309 582.305 304.709C582.305 305.109 582.505 305.509 582.905 305.509V306.91C582.905 306.91 581.906 307.51 581.906 308.11C581.906 308.71 582.305 309.111 582.905 309.311V310.711C582.905 310.711 582.305 311.111 582.106 311.311C580.507 313.712 577.709 317.714 574.712 319.314C574.312 319.314 574.312 319.914 574.712 320.315C574.912 320.315 575.111 320.715 575.511 320.715C572.514 323.516 569.716 325.917 566.918 328.518C560.323 334.52 554.528 341.122 555.128 348.925V353.727L549.532 354.927C549.532 354.927 548.933 355.527 549.133 355.927L549.732 356.928C549.732 356.928 550.731 357.928 551.331 357.928H555.328V396.342H538.341V357.328C538.341 357.328 539.141 356.327 539.54 353.326C539.94 350.125 541.539 349.925 541.539 349.925C541.539 349.925 541.938 349.925 541.938 349.725C541.938 349.725 541.938 349.325 541.938 349.125L540.54 348.725C540.54 347.524 539.54 346.524 538.541 345.524C538.142 345.123 537.542 344.723 536.943 344.123C536.943 344.123 535.943 342.923 535.544 342.523V342.122C535.544 342.122 535.544 342.122 535.544 341.922V341.522V341.122V340.322C535.544 340.322 535.344 340.922 535.544 341.122V341.522V341.922C535.544 341.922 535.544 341.922 535.544 342.122V342.523C535.544 342.523 534.544 343.723 534.145 343.923C534.145 343.923 533.146 345.123 532.546 345.524C531.547 346.524 530.548 347.524 530.548 348.725L529.149 349.125C529.149 349.125 529.149 349.125 529.149 349.325C529.149 349.325 529.349 349.725 529.549 349.725C529.549 349.725 531.147 349.925 531.747 353.126C532.146 356.127 532.546 357.128 532.946 357.128V390.54L516.359 379.536H505.368V336.921C505.368 336.921 506.168 335.92 506.567 332.919C506.967 329.718 508.566 329.518 508.566 329.518C508.566 329.518 508.965 329.518 508.965 329.318C508.965 329.318 508.965 328.918 508.965 328.718L507.567 328.317C507.567 327.117 506.567 326.117 505.568 325.116C505.169 324.716 504.569 324.316 503.97 323.716C503.97 323.716 502.97 322.515 502.571 322.115V321.715C502.571 321.715 502.571 321.715 502.571 321.515V321.115V320.715V319.914C502.571 319.914 502.371 320.515 502.571 320.715V321.115V321.515C502.571 321.515 502.571 321.515 502.571 321.715V322.115C502.571 322.115 501.571 323.316 501.172 323.516C501.172 323.516 500.173 324.716 499.573 325.116C498.574 326.117 497.575 327.117 497.575 328.317L496.176 328.718C496.176 328.718 496.176 328.718 496.176 328.918C496.176 328.918 496.376 329.318 496.576 329.318C496.576 329.318 498.174 329.518 498.774 332.719C499.173 335.72 499.573 336.72 499.973 336.72V398.743L489.182 400.143V374.334C489.182 374.334 489.981 373.334 490.381 370.332C490.78 367.131 492.379 366.931 492.379 366.931C492.379 366.931 492.779 366.931 492.779 366.731C492.779 366.731 492.779 366.331 492.779 366.131L491.38 365.731C491.38 364.53 490.381 363.53 489.381 362.53C488.982 362.13 488.382 361.729 487.783 361.129C487.783 361.129 486.784 359.929 486.384 359.529V359.128C486.384 359.128 486.384 359.128 486.384 358.928V358.528V358.128V357.328C486.384 357.328 486.184 357.928 486.384 358.128V358.528V358.928C486.384 358.928 486.384 358.928 486.384 359.128V359.529C486.384 359.529 485.385 360.729 484.985 360.929C484.985 360.929 483.986 362.13 483.386 362.53C482.387 363.53 481.388 364.53 481.388 365.731L479.989 366.131C479.989 366.131 479.989 366.131 479.989 366.331C479.989 366.331 480.189 366.731 480.389 366.731C480.389 366.731 481.987 366.931 482.587 370.132C482.987 373.134 483.386 374.134 483.786 374.134V400.743L484.186 529.99H469.398L468.399 486.774L469.398 486.374C469.398 486.374 468.998 485.974 468.399 485.974V485.574C468.399 483.973 470.597 483.773 470.597 483.773C472.195 483.573 473.195 483.173 473.195 482.973C473.195 482.973 472.995 482.573 472.395 482.573V479.972C472.395 479.972 470.797 478.571 468.399 478.171L467.599 442.758C467.599 442.758 468.399 442.558 468.399 442.358C468.399 442.358 467.999 441.958 467.399 441.958V441.558C467.399 440.158 469.398 439.957 469.398 439.957C470.797 439.757 471.596 439.557 471.596 439.157C471.596 439.157 471.396 438.757 470.797 438.757V436.556C470.797 436.556 469.398 435.356 467 434.956L466.2 401.544C466.2 401.544 467 401.144 467 400.943C467 400.743 466.6 400.543 466.2 400.343V399.943C466.2 397.742 467.999 397.342 467.999 397.342C469.198 396.942 469.997 396.742 469.997 396.142C469.997 395.942 469.797 395.742 469.398 395.542V393.141C469.398 393.141 468.199 391.34 466.001 390.74V381.537H467.2C467.2 381.537 467.599 381.537 467.599 381.336V380.936C467.599 380.936 467.599 380.736 467.599 380.536L466.001 380.136V378.736C466.001 376.335 464.402 374.534 462.403 372.733C461.604 371.933 460.605 371.333 459.806 370.332H460.005V369.932C459.006 369.532 458.207 368.332 457.807 367.531C457.807 367.531 457.807 367.531 457.607 367.531V367.131C457.607 367.131 457.807 367.131 457.807 366.731C457.807 366.731 457.807 366.331 457.607 366.331V365.931C457.607 365.931 457.607 365.931 457.607 365.731V365.531V365.131V363.73C457.607 363.73 457.208 364.731 457.607 365.131V365.531C457.607 365.531 457.607 365.531 457.607 365.731V365.931V366.331C457.607 366.331 457.208 366.331 457.208 366.731C457.208 366.731 457.208 367.131 457.408 367.131V367.531H457.208C456.808 368.332 455.809 369.532 455.009 369.932V370.132H455.209C455.209 370.132 453.411 371.933 452.611 372.533C450.613 374.334 449.014 376.335 449.014 378.535V379.936L447.416 380.336C447.416 380.336 447.216 380.336 447.416 380.736V381.136C447.416 381.136 447.815 381.336 448.015 381.336H449.214V390.54C447.216 391.14 445.817 391.94 445.817 392.941V395.341C445.817 395.341 445.218 395.742 445.218 395.942C445.218 396.342 446.017 396.742 447.216 396.942C447.216 396.942 449.014 397.342 449.014 399.343V399.743C449.014 399.743 448.215 400.143 448.215 400.343C448.215 400.543 448.415 400.743 449.014 400.943L448.415 434.355C446.217 434.756 444.818 435.356 444.818 435.956V438.157C444.818 438.157 444.018 438.357 444.018 438.557C444.018 438.757 444.818 439.157 446.217 439.357C446.217 439.357 448.215 439.557 448.215 440.958V441.358C448.215 441.358 447.216 441.558 447.216 441.758C447.216 441.758 447.616 441.958 448.015 442.158L447.416 477.571C444.818 477.971 443.419 478.771 443.419 479.372V481.973L442.62 482.373C442.62 482.773 443.619 482.973 445.218 483.173C445.218 483.173 447.416 483.373 447.416 485.174V485.574L446.417 485.974C446.417 485.974 446.816 486.374 447.416 486.374L446.616 529.59H409.447L407.648 459.364C408.647 459.164 409.247 458.764 409.247 458.564C409.247 458.364 408.647 457.964 407.648 457.764V456.964C407.648 454.363 411.245 453.962 411.245 453.962C413.843 453.562 415.242 453.162 415.242 452.562C415.242 452.362 414.842 451.962 413.843 451.762V447.56C413.843 446.36 411.245 445.359 407.249 444.559L405.85 386.738C405.85 386.738 407.249 386.338 407.249 385.938C407.249 385.738 406.649 385.538 405.85 385.138V384.338C405.85 382.137 409.047 381.537 409.047 381.537C411.445 381.136 412.844 380.736 412.844 380.336C412.844 380.136 412.444 379.736 411.645 379.536V375.734C411.645 374.734 409.247 373.734 405.65 373.134L404.251 318.714C404.251 318.714 405.65 318.114 405.65 317.714C405.65 317.313 405.25 317.113 404.251 316.713V315.913C404.251 312.512 407.249 311.912 407.249 311.912C409.447 311.311 410.646 310.711 410.646 310.111C410.646 309.711 410.246 309.311 409.647 309.111V305.109C409.647 303.709 407.448 302.308 404.251 301.308V286.302H406.249C406.249 286.302 406.849 286.302 407.049 285.902V285.302C407.049 285.302 407.249 284.902 407.049 284.702L404.251 284.102V281.701C404.251 277.899 401.653 274.698 398.456 271.897C397.057 270.697 395.658 269.496 394.259 268.096H394.659V267.496C393.26 266.695 391.861 264.895 391.062 263.694C391.062 263.694 390.862 263.494 390.662 263.294V262.494C390.662 262.494 391.062 262.294 391.062 261.894C391.062 261.694 390.862 261.293 390.662 261.293V260.693C390.662 260.693 390.862 260.493 390.862 260.293C390.862 260.093 390.862 259.893 390.662 259.893V259.293V257.092C390.662 257.092 390.063 258.893 390.662 259.293V259.893C390.662 259.893 390.462 260.093 390.462 260.293C390.462 260.493 390.462 260.693 390.662 260.693V261.293C390.662 261.293 390.262 261.493 390.262 261.894C390.262 262.094 390.262 262.494 390.662 262.494V263.294C390.662 263.294 390.262 263.294 390.262 263.694C389.463 264.895 388.064 266.895 386.665 267.496V267.896H387.065C385.666 269.496 384.267 270.697 382.868 271.897C379.671 274.898 376.873 278.099 377.073 281.901V284.302L374.275 284.902C374.275 284.902 373.876 285.302 374.076 285.502V286.102C374.076 286.102 374.875 286.502 375.075 286.502H377.073V301.308C373.676 302.308 371.678 303.709 371.678 305.109V309.111C371.678 309.111 370.678 309.711 370.678 310.111C370.678 310.711 371.877 311.311 374.076 311.912C374.076 311.912 377.073 312.512 377.073 315.913V316.713C377.073 316.713 375.674 317.313 375.674 317.714C375.674 318.114 376.074 318.314 377.073 318.714L376.074 373.134C372.277 373.934 370.079 374.734 370.079 375.935V379.736C370.079 379.736 368.88 380.136 368.88 380.536C368.88 380.936 370.279 381.336 372.677 381.737C372.677 381.737 375.874 382.137 375.874 384.338V385.138C375.874 385.138 374.475 385.538 374.475 385.938C374.475 386.138 375.075 386.338 375.874 386.538L374.875 444.359C370.678 445.159 368.28 446.16 368.28 447.36V451.562C368.28 451.562 367.081 452.162 367.081 452.362C367.081 452.962 368.68 453.362 371.078 453.762C371.078 453.762 374.675 454.163 374.675 456.964V457.564C373.676 457.764 373.076 458.164 373.076 458.364C373.076 458.564 373.676 458.964 374.675 459.164L373.476 529.59H363.884L359.088 531.99ZM975.384 291.904C975.384 291.904 976.383 290.704 976.783 289.704C977.183 290.504 977.782 291.104 978.182 291.904C978.781 292.705 979.381 293.505 979.181 294.505C979.181 294.505 979.181 295.106 978.981 295.106C978.981 295.106 979.181 295.306 979.181 297.706V302.108H974.185V297.706C974.185 295.306 974.385 295.306 974.385 295.306L974.185 294.505C974.185 293.305 974.585 292.505 975.184 291.704L975.384 291.904ZM965.592 291.904C965.592 291.904 967.191 290.704 967.99 289.704C968.79 290.504 969.589 291.104 970.388 291.904C971.388 292.705 972.187 293.505 972.187 294.505C972.187 294.505 972.187 295.106 971.787 295.106C971.787 295.106 972.187 295.306 972.187 297.706V302.108H963.994V297.706C963.994 295.306 964.393 295.306 964.393 295.306L963.994 294.505C963.994 293.305 964.793 292.505 965.592 291.704V291.904ZM957.599 291.904C957.599 291.904 958.598 290.704 958.998 289.704C959.397 290.504 959.997 291.104 960.397 291.904C960.996 292.705 961.596 293.505 961.396 294.505C961.396 294.505 961.396 295.106 961.196 295.106C961.196 295.106 961.396 295.306 961.396 297.706V302.108H956.4V297.706C956.4 295.306 956.6 295.306 956.6 295.306L956.4 294.505C956.4 293.305 956.799 292.505 957.399 291.704L957.599 291.904ZM905.441 384.137C905.441 384.137 906.041 383.337 906.441 382.737C906.64 383.337 907.04 383.737 907.44 383.937C907.84 384.338 908.039 384.938 908.039 385.538V385.938C908.039 385.938 908.039 385.938 908.039 387.539V390.34H904.842V387.539C904.842 386.138 904.842 386.138 904.842 386.138V385.738C904.842 385.738 905.042 384.538 905.441 384.137ZM899.446 384.137C899.446 384.137 900.445 383.337 900.845 382.737C901.245 383.337 901.844 383.737 902.244 383.937C902.844 384.338 903.243 384.938 903.243 385.538C903.243 385.538 903.243 385.938 903.043 385.938C903.043 385.938 903.243 385.938 903.243 387.539V390.34H898.247V387.539C898.247 386.138 898.447 386.138 898.447 386.138L898.247 385.738C898.247 385.738 898.647 384.538 899.247 384.137H899.446ZM894.45 384.137C894.45 384.137 895.05 383.337 895.45 382.737C895.649 383.337 896.049 383.737 896.449 383.937C896.848 384.338 897.048 384.938 897.048 385.538V385.938C897.048 385.938 897.048 385.938 897.048 387.539V390.34H893.851V387.539C893.851 386.138 893.851 386.138 893.851 386.138V385.738C893.851 385.738 894.051 384.538 894.45 384.137ZM843.892 506.181H824.108V481.572C824.108 476.571 826.506 471.969 829.104 469.768C830.703 468.368 832.301 467.167 833.9 465.767C835.299 467.167 837.097 468.368 838.696 469.768C841.294 471.969 843.892 476.571 843.892 481.572V506.381V506.181ZM829.104 414.348C830.703 412.948 832.301 411.747 833.9 410.347C835.299 411.747 837.097 412.948 838.696 414.348C841.294 416.549 843.892 421.151 843.892 426.153V450.961H824.308V426.353C824.308 421.351 826.706 416.749 829.304 414.548L829.104 414.348ZM766.355 506.381V481.572C766.355 476.571 770.152 471.969 774.349 469.768C776.946 468.368 779.544 467.167 781.942 465.767C784.34 467.167 787.138 468.368 789.736 469.768C793.933 471.969 797.929 476.571 797.929 481.572V506.381H766.155H766.355ZM790.336 367.932C791.335 366.731 792.534 365.331 793.333 363.53C794.332 365.331 795.331 366.531 796.331 367.932C797.53 369.532 798.529 371.333 798.529 373.334C798.529 373.334 798.529 374.534 797.929 374.534V375.134C797.929 375.134 798.529 375.134 798.529 380.136V389.339H788.137V380.136C788.137 375.134 788.737 375.134 788.737 375.134V374.534L788.137 373.534C788.137 371.333 789.137 369.532 790.336 367.932ZM770.352 367.932C771.951 366.731 773.749 365.331 775.148 363.53C776.547 365.331 778.345 366.531 779.944 367.932C781.942 369.532 783.541 371.133 783.341 373.334C783.341 373.334 783.341 374.534 782.342 374.534V375.134C782.342 375.134 783.141 375.134 783.341 380.136V389.339H766.755V380.136C766.755 375.134 767.554 375.134 767.554 375.134V374.534L766.555 373.534C766.555 371.333 768.154 369.532 769.952 367.932H770.352ZM774.349 414.548C776.946 413.148 779.544 411.947 781.942 410.547C784.34 411.947 787.138 413.148 789.736 414.548C793.933 416.749 797.929 421.351 797.929 426.353V451.161H766.155V426.553C766.155 421.551 769.952 416.949 774.149 414.748L774.349 414.548ZM753.965 367.932C754.964 366.731 756.163 365.331 756.963 363.53C757.962 365.331 758.961 366.531 759.96 367.932C761.159 369.532 762.159 371.333 762.159 373.334C762.159 373.334 762.158 374.534 761.559 374.534V375.134C761.559 375.134 762.159 375.134 762.159 380.136V389.339H751.767V380.136C751.767 375.134 752.367 375.134 752.367 375.134V374.534L751.767 373.534C751.767 371.333 752.766 369.532 753.965 367.932ZM660.841 419.75C666.437 416.749 672.632 414.148 677.827 410.747C683.223 413.948 689.218 416.549 695.013 419.55C704.406 424.552 713.198 434.556 713.398 445.559V506.381H643.056V445.76C642.856 434.556 651.649 424.552 661.041 419.55L660.841 419.75ZM595.495 368.532C596.494 367.331 597.693 365.931 598.492 364.13C599.491 365.931 600.491 367.131 601.49 368.532C602.689 370.132 603.688 371.933 603.688 373.934C603.688 373.934 603.688 375.134 603.089 375.134V375.734C603.089 375.734 603.688 375.734 603.688 380.736V389.94H593.297V380.736C593.297 375.734 593.896 375.734 593.896 375.734V375.134L593.297 374.134C593.297 371.933 594.296 370.132 595.495 368.532ZM590.099 506.982H558.325V482.373C558.325 477.371 562.122 472.769 566.319 470.568C568.916 469.168 571.514 467.968 573.912 466.567C576.31 467.968 579.108 469.168 581.706 470.568C585.903 472.769 589.899 477.371 589.899 482.373V507.182L590.099 506.982ZM590.099 451.762H558.325V427.153C558.325 422.151 562.122 417.549 566.319 415.349C568.916 413.948 571.514 412.748 573.912 411.347C576.31 412.748 579.108 413.948 581.706 415.349C585.903 417.549 589.899 422.151 589.899 427.153V451.962L590.099 451.762ZM575.711 368.732C577.31 367.531 579.108 366.131 580.507 364.33C581.906 366.131 583.704 367.331 585.303 368.732C587.301 370.332 588.9 371.933 588.7 374.134C588.7 374.134 588.7 375.334 587.701 375.334V375.935C587.701 375.935 588.5 375.935 588.7 380.936V390.14H572.114V380.936C572.114 375.935 572.913 375.935 572.913 375.935V375.334L571.914 374.334C571.914 372.133 573.513 370.332 575.311 368.732H575.711ZM559.324 368.732C560.323 367.531 561.522 366.131 562.322 364.33C563.321 366.131 564.32 367.331 565.319 368.732C566.518 370.332 567.518 372.133 567.518 374.134C567.518 374.134 567.518 375.334 566.918 375.334V375.935C566.918 375.935 567.518 375.935 567.518 380.936V390.14H557.126V380.936C557.126 375.935 557.726 375.935 557.726 375.935V375.334L557.126 374.334C557.126 372.133 558.125 370.332 559.324 368.732ZM532.346 482.373V507.182H512.762V482.573C512.762 477.571 515.16 472.969 517.758 470.768C519.357 469.368 520.956 468.168 522.554 466.767C523.953 468.168 525.752 469.368 527.35 470.768C529.948 472.969 532.546 477.571 532.546 482.573L532.346 482.373ZM517.558 415.349C519.157 413.948 520.756 412.748 522.354 411.347C523.753 412.748 525.552 413.948 527.151 415.349C529.748 417.549 532.346 422.151 532.346 427.153V451.962H512.762V427.353C512.762 422.351 515.16 417.749 517.758 415.549L517.558 415.349ZM458.806 386.938C458.806 386.938 459.006 385.738 459.406 385.338C459.606 384.938 460.005 384.538 460.405 383.937C460.605 384.538 461.005 384.938 461.404 385.138C461.804 385.538 462.004 386.138 462.004 386.738V387.139C462.004 387.139 462.004 387.139 462.004 388.739V391.54H458.806V388.739C458.806 387.339 458.806 387.339 458.806 387.339V386.938ZM453.411 385.338C453.411 385.338 454.41 384.538 454.81 383.937C455.209 384.538 455.809 384.938 456.209 385.138C456.808 385.538 457.208 386.138 457.208 386.738C457.208 386.738 457.208 387.139 457.008 387.139C457.008 387.139 457.208 387.139 457.208 388.739V391.54H452.212V388.739C452.212 387.339 452.412 387.339 452.412 387.339L452.212 386.938C452.212 386.938 452.611 385.738 453.211 385.338H453.411ZM447.815 386.938C447.815 386.938 448.015 385.738 448.415 385.338C448.615 384.938 449.014 384.538 449.414 383.937C449.614 384.538 450.014 384.938 450.413 385.138C450.813 385.538 451.013 386.138 451.013 386.738V387.139C451.013 387.139 451.013 387.139 451.013 388.739V391.54H447.815V388.739C447.815 387.339 447.815 387.339 447.815 387.339V386.938ZM394.459 293.505C394.459 293.505 395.458 292.305 395.858 291.304C396.257 292.104 396.857 292.705 397.257 293.505C397.856 294.305 398.456 295.106 398.256 296.106C398.256 296.106 398.256 296.706 398.056 296.706C398.056 296.706 398.256 296.906 398.256 299.307V303.709H393.26V299.307C393.26 296.906 393.46 296.906 393.46 296.906L393.26 296.106C393.26 294.905 393.66 294.105 394.259 293.305L394.459 293.505ZM384.667 293.505C384.667 293.505 386.266 292.305 387.065 291.304C387.864 292.104 388.664 292.705 389.463 293.505C390.462 294.305 391.262 295.106 391.262 296.106C391.262 296.106 391.262 296.706 390.862 296.706C390.862 296.706 391.262 296.906 391.262 299.307V303.709H383.068V299.307C383.068 296.906 383.468 296.906 383.468 296.906L383.068 296.106C383.068 294.905 383.868 294.105 384.667 293.305V293.505ZM376.674 293.505C376.674 293.505 377.673 292.305 378.072 291.304C378.472 292.104 379.072 292.705 379.471 293.505C380.071 294.305 380.67 295.106 380.47 296.106C380.47 296.106 380.47 296.706 380.271 296.706C380.271 296.706 380.47 296.906 380.47 299.307V303.709H375.474V299.307C375.474 296.906 375.674 296.906 375.674 296.906L375.474 296.106C375.474 294.905 375.874 294.105 376.474 293.305L376.674 293.505Z" fill="#2956A6" fill-opacity="0.12"/>
</g>
<g style="mix-blend-mode:multiply">
<path d="M740.976 559V558.4C740.976 558.4 741.775 559 742.375 559H740.976Z" fill="#2956A6" fill-opacity="0.12"/>
</g>
</g>
</svg>
