<svg width="108" height="26" viewBox="0 0 108 26" fill="none" xmlns="http://www.w3.org/2000/svg">
<path d="M89.1792 8.15149V14.022C89.1792 15.0616 89.5551 15.7915 90.4674 15.7915C92.0507 15.7915 92.6409 13.5164 92.6409 11.0162V8.15149H95.7266V18.3474H93.634L92.9097 14.3866C92.5075 16.8021 91.3533 18.3749 89.3678 18.3749C87.0872 18.3749 86.0941 16.7175 86.0941 14.0213V8.15079H89.1799L89.1792 8.15149Z" fill="#3F3F3F"/>
<path d="M39.5919 8.1515C39.6721 7.98294 39.726 7.78618 39.726 7.56191C39.726 7.05624 39.4309 6.77555 38.8939 6.77555L39.8061 5.25854C40.9064 5.31497 41.6037 5.93277 41.6037 6.85947C41.6037 7.53369 41.2547 8.03936 40.4233 8.54503C40.8794 8.79751 41.2554 9.16283 41.5235 9.61208C41.7917 10.0613 41.9257 10.5952 41.9257 11.1291C41.9257 12.8986 40.3155 14.4438 37.4177 14.4438C36.6935 14.472 35.9685 14.3316 35.2712 14.1067C35.1371 14.1631 35.003 14.247 34.9222 14.3874C34.842 14.4995 34.7881 14.6398 34.7612 14.8084C34.7612 15.3705 35.3244 15.5383 36.0494 15.5383H38.33C41.3355 15.5383 42.811 16.69 42.811 18.4031C42.811 20.5936 40.7986 21.7178 37.2298 21.7178C34.2511 21.7178 31.8634 21.0435 31.8634 19.3587C31.8634 18.207 33.2318 17.5328 34.9761 17.5046C33.2587 17.2521 32.3734 16.7182 32.3734 15.5101C32.3734 14.4431 33.5808 13.881 34.493 13.7406C34.0099 13.5157 33.6347 13.1228 33.3389 12.6736C33.0707 12.2243 32.9097 11.6623 32.9097 11.1291C32.9097 9.16283 34.654 7.78688 37.3908 7.78688C38.1959 7.78688 38.8932 7.89902 39.5912 8.1522L39.5919 8.1515ZM36.7743 17.7578C35.5131 17.7578 34.7618 18.0949 34.7618 18.8812C34.7618 19.6676 35.7549 20.1168 37.3914 20.1168C39.028 20.1168 40.048 19.6112 40.048 18.7684C40.048 18.1788 39.511 17.7571 38.4115 17.7571H36.775L36.7743 17.7578ZM37.4716 9.41531C37.0424 9.41531 36.6133 9.58387 36.3175 9.92098C36.0224 10.2299 35.8344 10.6791 35.8344 11.1291C35.8344 11.579 35.9955 12.0276 36.3175 12.3372C36.6126 12.6461 37.0418 12.8428 37.4716 12.8428C37.6865 12.8428 37.9008 12.8146 38.1157 12.7307C38.3306 12.6468 38.5179 12.5339 38.6527 12.3654C38.8137 12.1968 38.9208 12.0001 39.0017 11.8033C39.0819 11.5783 39.1088 11.3541 39.1088 11.1291C39.1358 10.9041 39.0819 10.6798 39.0286 10.4549C38.9485 10.2299 38.8407 10.0338 38.6796 9.89277C38.5186 9.72421 38.3306 9.61208 38.1427 9.52745C37.9015 9.41531 37.6865 9.3871 37.4716 9.41531Z" fill="#3F3F3F"/>
<path d="M60.8976 18.432C59.2611 18.432 58.3751 17.3085 57.8658 16.0447V21.7185H54.78V8.20791H56.5513L57.2223 11.3816C57.6246 9.78063 58.4836 7.98294 60.8181 7.98294C63.3938 7.98294 64.8161 10.2299 64.8161 13.2075C64.8161 16.1568 63.4477 18.432 60.8983 18.432H60.8976ZM59.8243 10.146C58.7241 10.146 57.8658 11.2976 57.8658 13.2075C57.8658 15.1173 58.7511 16.269 59.8243 16.269C61.0856 16.269 61.7297 15.0052 61.7297 13.2075C61.7297 11.4098 61.0856 10.146 59.8243 10.146Z" fill="#3F3F3F"/>
<path d="M46.4074 8.15149V14.022C46.4074 15.0616 46.7834 15.7915 47.6956 15.7915C49.2789 15.7915 49.8691 13.5164 49.8691 11.0162V8.15149H52.9279V18.3474H50.8353L50.138 14.3866C49.7357 16.8021 48.5816 18.3749 46.5961 18.3749C44.3155 18.3749 43.3224 16.7175 43.3224 14.0213V8.15079H46.4081L46.4074 8.15149Z" fill="#3F3F3F"/>
<path d="M69.6718 18.3756C68.8134 18.4038 67.9813 18.2352 67.2032 17.8699C66.425 17.5046 65.7539 16.9432 65.2177 16.2408L66.586 14.7802C66.935 15.2859 67.3911 15.7069 67.9012 16.0158C68.4112 16.3247 69.0014 16.4932 69.5916 16.5215C70.3967 16.5215 70.6648 16.1279 70.6648 15.6787C70.6648 15.173 70.2357 14.8641 69.1355 14.4706C66.5058 13.5721 65.7277 12.6447 65.7277 10.9873C65.7277 9.02108 67.3379 8.1783 69.5114 8.1783C71.0408 8.1783 72.49 8.76789 73.5902 9.86386L72.517 11.3809C71.7118 10.5945 70.6925 10.117 69.5923 10.0606C69.0021 10.0606 68.6531 10.3131 68.6531 10.7906C68.6531 11.493 69.2163 11.6333 70.5853 12.1947C72.4907 12.9811 73.564 13.6835 73.564 15.3127C73.564 17.2507 72.0615 18.3742 69.6731 18.3742L69.6718 18.3756Z" fill="#3F3F3F"/>
<path d="M81.3713 18.3756V12.505C81.3713 11.4655 80.9953 10.7356 80.0831 10.7356C78.4998 10.7356 77.9096 13.0107 77.9096 15.5108V18.3481H74.8239V4.07936H77.9096V11.8033C78.3118 9.47173 79.5198 8.1522 81.1563 8.1522C83.437 8.1522 84.4301 9.80955 84.4301 12.5057V18.3763H81.3713V18.3756Z" fill="#3F3F3F"/>
<path d="M103.669 18.432C102.033 18.432 101.147 17.3085 100.637 16.0447V21.7185H97.5518V8.20791H99.323L99.9671 11.3816C100.369 9.78063 101.228 7.98294 103.563 7.98294C106.139 7.98294 107.561 10.2299 107.561 13.2075C107.588 16.1568 106.219 18.432 103.67 18.432H103.669ZM102.596 10.146C101.523 10.146 100.637 11.2976 100.637 13.2075C100.637 15.1173 101.523 16.269 102.596 16.269C103.857 16.269 104.501 15.0052 104.501 13.2075C104.501 11.4098 103.857 10.146 102.596 10.146Z" fill="#3F3F3F"/>
<path d="M21.4938 9.10217C21.4938 10.6622 21.446 12.2081 21.3496 13.7435C21.2054 15.6476 19.8324 17.19 18.0597 17.5025C15.9637 17.7415 13.8246 17.8755 11.6794 17.9052C11.3264 17.9101 10.9888 18.0568 10.7396 18.3177L7.10338 22.1219C6.42425 22.8321 5.26339 22.3292 5.26339 21.3242V17.9411C5.26339 17.7944 5.15626 17.6731 5.01613 17.6604C4.56 17.6202 4.10456 17.5751 3.65248 17.5257C1.80845 17.2754 0.361926 15.6998 0.213029 13.7427C0.116684 12.2067 0.0688477 10.6608 0.0688477 9.10147C0.0695214 7.49772 0.120053 5.91019 0.223135 4.33113C0.396286 2.39732 1.83742 0.849286 3.66797 0.605268C8.38753 0.0840848 13.3281 0.0932528 18.0469 0.629246C19.827 0.939558 21.2068 2.49041 21.3463 4.40306C21.4419 5.95885 21.4945 7.5224 21.4938 9.10147V9.10217Z" fill="#5E34F1"/>
<path d="M9.08394 12.9005C8.9877 13.2768 9.20105 13.6635 9.56049 13.7642C9.91992 13.8649 10.2893 13.6416 10.3856 13.2654L12.4755 5.09506C12.5718 4.71881 12.3584 4.33213 11.999 4.23139C11.6395 4.13064 11.2701 4.35398 11.1739 4.73023L9.08394 12.9005Z" fill="white"/>
<path d="M17.6339 8.55137C17.9661 8.79468 17.9661 9.30952 17.6339 9.55283L14.5011 11.8477C14.1965 12.0713 13.7761 11.9937 13.5625 11.6749C13.4803 11.5515 13.4406 11.4105 13.4406 11.2708C13.4406 11.0487 13.541 10.83 13.7283 10.6925L15.9685 9.0514L13.7283 7.40956C13.4231 7.1867 13.349 6.74733 13.5625 6.42856C13.6939 6.2325 13.9028 6.12741 14.1157 6.12741C14.2491 6.12741 14.3838 6.16902 14.5011 6.25506L17.6339 8.55067V8.55137Z" fill="white"/>
<path d="M3.90109 9.55213C3.56894 9.30881 3.56894 8.79398 3.90109 8.55066L7.03399 6.25577C7.33852 6.0322 7.75893 6.10978 7.97251 6.42855C8.05471 6.55197 8.09446 6.69302 8.09446 6.83266C8.09446 7.05482 7.99407 7.27345 7.80677 7.41097L5.56658 9.0521L7.80677 10.6939C8.11197 10.9168 8.18609 11.3562 7.97251 11.6749C7.84113 11.871 7.63227 11.9761 7.41937 11.9761C7.28597 11.9761 7.15122 11.9345 7.03399 11.8484L3.90109 9.55283V9.55213Z" fill="white"/>
<path d="M26.4795 7.02308V15.6483C26.4795 18.9962 23.8856 21.71 20.6853 21.71C20.6482 21.71 20.6179 21.7417 20.6179 21.7805V24.8329C20.6179 25.8379 19.4571 26.3414 18.7779 25.6305L15.0306 21.71H13.2405C12.6078 21.71 12.0951 21.1733 12.0951 20.5111C12.0951 19.851 12.6051 19.315 13.2357 19.3128C14.7665 19.3079 17.2714 19.2945 18.2349 19.1845C18.2349 19.1845 20.0392 19.0195 21.5052 17.3649C21.6723 17.1759 22.821 15.8768 22.9619 13.8774C22.9619 13.8774 23.1108 10.6932 23.1108 9.10217C23.1108 7.81438 23.0393 5.39042 22.976 4.43903C22.9625 4.23521 23.1168 4.06242 23.3122 4.06242H23.6497C25.2128 4.06242 26.4795 5.3876 26.4795 7.02308Z" fill="#FF3964"/>
</svg>
