<svg width="125" height="40" viewBox="0 0 125 40" fill="none" xmlns="http://www.w3.org/2000/svg">
<path d="M102.899 9.4056V16.1793C102.899 17.3788 103.333 18.221 104.385 18.221C106.212 18.221 106.893 15.5958 106.893 12.7111V9.4056H110.454V21.1701H108.039L107.203 16.6C106.739 19.3871 105.408 21.2018 103.117 21.2018C100.485 21.2018 99.3394 19.2895 99.3394 16.1785V9.40479H102.9L102.899 9.4056Z" fill="#3F3F3F"/>
<path d="M45.6829 9.40565C45.7754 9.21116 45.8376 8.98412 45.8376 8.72535C45.8376 8.14189 45.4971 7.81801 44.8775 7.81801L45.9301 6.06763C47.1996 6.13273 48.0042 6.84558 48.0042 7.91485C48.0042 8.6928 47.6015 9.27626 46.6422 9.85973C47.1685 10.151 47.6022 10.5726 47.9116 11.0909C48.2211 11.6093 48.3757 12.2253 48.3757 12.8413C48.3757 14.883 46.5178 16.666 43.1742 16.666C42.3385 16.6985 41.502 16.5366 40.6974 16.277C40.5427 16.3421 40.388 16.4389 40.2947 16.6009C40.2022 16.7303 40.14 16.8922 40.109 17.0867C40.109 17.7352 40.7589 17.9289 41.5953 17.9289H44.2268C47.6948 17.9289 49.3973 19.2578 49.3973 21.2344C49.3973 23.7619 47.0752 25.059 42.9573 25.059C39.5205 25.059 36.7654 24.2811 36.7654 22.337C36.7654 21.0082 38.3443 20.2302 40.3569 20.1977C38.3754 19.9063 37.3539 19.2903 37.3539 17.8964C37.3539 16.6652 38.747 16.0166 39.7995 15.8547C39.2422 15.5951 38.8092 15.1418 38.4679 14.6234C38.1585 14.1051 37.9727 13.4565 37.9727 12.8413C37.9727 10.5726 39.9853 8.98494 43.1431 8.98494C44.0721 8.98494 44.8767 9.11433 45.6821 9.40646L45.6829 9.40565ZM42.4318 20.4898C40.9765 20.4898 40.1097 20.8788 40.1097 21.7861C40.1097 22.6935 41.2556 23.2118 43.1439 23.2118C45.0322 23.2118 46.2092 22.6284 46.2092 21.6559C46.2092 20.9756 45.5896 20.489 44.3209 20.489H42.4326L42.4318 20.4898ZM43.2364 10.8639C42.7412 10.8639 42.246 11.0584 41.9047 11.4474C41.5642 11.8038 41.3473 12.3221 41.3473 12.8413C41.3473 13.3605 41.5331 13.878 41.9047 14.2353C42.2452 14.5917 42.7404 14.8187 43.2364 14.8187C43.4844 14.8187 43.7316 14.7862 43.9796 14.6894C44.2276 14.5925 44.4437 14.4623 44.5992 14.2678C44.785 14.0733 44.9086 13.8463 45.0019 13.6193C45.0944 13.3597 45.1255 13.1009 45.1255 12.8413C45.1566 12.5817 45.0944 12.323 45.033 12.0634C44.9404 11.8038 44.8161 11.5776 44.6303 11.4148C44.4445 11.2203 44.2276 11.0909 44.0107 10.9933C43.7324 10.8639 43.4844 10.8313 43.2364 10.8639Z" fill="#3F3F3F"/>
<path d="M70.2663 21.2678C68.378 21.2678 67.3557 19.9715 66.768 18.5132V25.0599H63.2075V9.47077H65.2513L66.0256 13.1327C66.4897 11.2854 67.4808 9.21118 70.1745 9.21118C73.1465 9.21118 74.7876 11.8038 74.7876 15.2395C74.7876 18.6426 73.2087 21.2678 70.267 21.2678H70.2663ZM69.0279 11.707C67.7584 11.707 66.768 13.0358 66.768 15.2395C66.768 17.4431 67.7895 18.772 69.0279 18.772C70.4831 18.772 71.2263 17.3137 71.2263 15.2395C71.2263 13.1652 70.4831 11.707 69.0279 11.707Z" fill="#3F3F3F"/>
<path d="M53.547 9.4056V16.1793C53.547 17.3788 53.9808 18.221 55.0334 18.221C56.8602 18.221 57.5412 15.5958 57.5412 12.7111V9.4056H61.0706V21.1701H58.656L57.8514 16.6C57.3873 19.3871 56.0556 21.2018 53.7647 21.2018C51.1332 21.2018 49.9873 19.2895 49.9873 16.1785V9.40479H53.5478L53.547 9.4056Z" fill="#3F3F3F"/>
<path d="M80.3903 21.2026C79.3999 21.2352 78.4398 21.0407 77.542 20.6191C76.6441 20.1976 75.8698 19.5499 75.251 18.7394L76.8299 17.0541C77.2326 17.6375 77.7588 18.1234 78.3473 18.4798C78.9358 18.8362 79.6168 19.0307 80.2978 19.0632C81.2268 19.0632 81.5362 18.6092 81.5362 18.0908C81.5362 17.5073 81.041 17.1509 79.7715 16.6968C76.7374 15.6601 75.8395 14.59 75.8395 12.6777C75.8395 10.409 77.6974 9.43652 80.2053 9.43652C81.97 9.43652 83.6422 10.1168 84.9116 11.3814L83.6733 13.1318C82.7443 12.2244 81.5681 11.6735 80.2986 11.6084C79.6176 11.6084 79.2149 11.8998 79.2149 12.4507C79.2149 13.2612 79.8648 13.4231 81.4445 14.0709C83.6429 14.9782 84.8813 15.7887 84.8813 17.6685C84.8813 19.9047 83.1477 21.201 80.3919 21.201L80.3903 21.2026Z" fill="#3F3F3F"/>
<path d="M93.8899 21.2027V14.429C93.8899 13.2295 93.4561 12.3873 92.4035 12.3873C90.5767 12.3873 89.8957 15.0124 89.8957 17.8972V21.1709H86.3352V4.70703H89.8957V13.6193C90.3598 10.929 91.7536 9.40647 93.6419 9.40647C96.2734 9.40647 97.4193 11.3188 97.4193 14.4298V21.2035H93.8899V21.2027Z" fill="#3F3F3F"/>
<path d="M119.618 21.2678C117.73 21.2678 116.708 19.9715 116.12 18.5132V25.0599H112.56V9.47077H114.603L115.347 13.1327C115.811 11.2854 116.802 9.21118 119.495 9.21118C122.467 9.21118 124.109 11.8038 124.109 15.2395C124.14 18.6426 122.561 21.2678 119.619 21.2678H119.618ZM118.38 11.707C117.142 11.707 116.12 13.0358 116.12 15.2395C116.12 17.4431 117.142 18.772 118.38 18.772C119.835 18.772 120.578 17.3137 120.578 15.2395C120.578 13.1652 119.835 11.707 118.38 11.707Z" fill="#3F3F3F"/>
<path d="M24.8005 10.5025C24.8005 12.3025 24.7453 14.0862 24.6341 15.8578C24.4677 18.0549 22.8834 19.8346 20.8381 20.1951C18.4196 20.471 15.9514 20.6256 13.4762 20.6598C13.0688 20.6655 12.6793 20.8347 12.3917 21.1358L8.19611 25.5252C7.4125 26.3447 6.07305 25.7644 6.07305 24.6048V20.7013C6.07305 20.532 5.94944 20.392 5.78774 20.3774C5.26145 20.331 4.73593 20.2789 4.2143 20.222C2.08658 19.9331 0.417513 18.1151 0.245709 15.857C0.134542 14.0846 0.0793457 12.3009 0.0793457 10.5017C0.0801231 8.65118 0.138428 6.81942 0.257369 4.99742C0.45716 2.7661 2.12 0.979909 4.23218 0.698349C9.67782 0.0969845 15.3784 0.107563 20.8233 0.726017C22.8772 1.08407 24.4693 2.87352 24.6302 5.08042C24.7406 6.87556 24.8012 8.67966 24.8005 10.5017V10.5025Z" fill="#5E34F1"/>
<path d="M10.4814 14.8853C10.3704 15.3194 10.6166 15.7656 11.0313 15.8818C11.446 15.9981 11.8723 15.7404 11.9833 15.3062L14.3948 5.87896C14.5058 5.44483 14.2596 4.99866 13.8449 4.88242C13.4302 4.76617 13.0039 5.02387 12.8929 5.458L10.4814 14.8853Z" fill="white"/>
<path d="M20.3468 9.86695C20.7301 10.1477 20.7301 10.7417 20.3468 11.0225L16.732 13.6704C16.3806 13.9284 15.8955 13.8389 15.649 13.4711C15.5542 13.3287 15.5083 13.1659 15.5083 13.0048C15.5083 12.7485 15.6242 12.4962 15.8403 12.3375L18.4251 10.4439L15.8403 8.54948C15.4881 8.29233 15.4026 7.78536 15.649 7.41754C15.8006 7.19132 16.0416 7.07007 16.2873 7.07007C16.4412 7.07007 16.5967 7.11808 16.732 7.21736L20.3468 9.86613V9.86695Z" fill="white"/>
<path d="M4.50106 11.0217C4.11781 10.7409 4.11781 10.1469 4.50106 9.86614L8.11594 7.21818C8.46733 6.96022 8.95242 7.04973 9.19885 7.41755C9.2937 7.55996 9.33956 7.72271 9.33956 7.88383C9.33956 8.14016 9.22373 8.39243 9.00761 8.55111L6.42278 10.4447L9.00761 12.3391C9.35977 12.5963 9.44529 13.1033 9.19885 13.4711C9.04726 13.6973 8.80627 13.8185 8.56061 13.8185C8.40669 13.8185 8.25121 13.7705 8.11594 13.6713L4.50106 11.0225V11.0217Z" fill="white"/>
<path d="M30.5532 8.10364V18.0559C30.5532 21.9188 27.5602 25.0501 23.8676 25.0501C23.8248 25.0501 23.7898 25.0867 23.7898 25.1315V28.6534C23.7898 29.813 22.4504 30.394 21.6668 29.5738L17.3429 25.0501H15.2774C14.5474 25.0501 13.9558 24.4308 13.9558 23.6667C13.9558 22.905 14.5443 22.2866 15.2719 22.2841C17.0382 22.2784 19.9285 22.263 21.0402 22.136C21.0402 22.136 23.1221 21.9456 24.8137 20.0365C25.0065 19.8185 26.3319 18.3195 26.4944 16.0125C26.4944 16.0125 26.6662 12.3384 26.6662 10.5026C26.6662 9.01668 26.5838 6.2198 26.5107 5.12205C26.4952 4.88687 26.6732 4.6875 26.8986 4.6875H27.2881C29.0917 4.6875 30.5532 6.21655 30.5532 8.10364Z" fill="#FF3964"/>
<path d="M66.7156 34.07C66.7156 34.65 66.5156 35.1333 66.1156 35.52C65.7223 35.9 65.119 36.09 64.3056 36.09H62.9656V39H62.0556V32.03H64.3056C65.0923 32.03 65.689 32.22 66.0956 32.6C66.509 32.98 66.7156 33.47 66.7156 34.07ZM64.3056 35.34C64.8123 35.34 65.1856 35.23 65.4256 35.01C65.6656 34.79 65.7856 34.4767 65.7856 34.07C65.7856 33.21 65.2923 32.78 64.3056 32.78H62.9656V35.34H64.3056ZM67.5067 36.24C67.5067 35.68 67.62 35.19 67.8467 34.77C68.0733 34.3433 68.3833 34.0133 68.7767 33.78C69.1767 33.5467 69.62 33.43 70.1067 33.43C70.5867 33.43 71.0033 33.5333 71.3567 33.74C71.71 33.9467 71.9733 34.2067 72.1467 34.52V33.52H73.0667V39H72.1467V37.98C71.9667 38.3 71.6967 38.5667 71.3367 38.78C70.9833 38.9867 70.57 39.09 70.0967 39.09C69.61 39.09 69.17 38.97 68.7767 38.73C68.3833 38.49 68.0733 38.1533 67.8467 37.72C67.62 37.2867 67.5067 36.7933 67.5067 36.24ZM72.1467 36.25C72.1467 35.8367 72.0633 35.4767 71.8967 35.17C71.73 34.8633 71.5033 34.63 71.2167 34.47C70.9367 34.3033 70.6267 34.22 70.2867 34.22C69.9467 34.22 69.6367 34.3 69.3567 34.46C69.0767 34.62 68.8533 34.8533 68.6867 35.16C68.52 35.4667 68.4367 35.8267 68.4367 36.24C68.4367 36.66 68.52 37.0267 68.6867 37.34C68.8533 37.6467 69.0767 37.8833 69.3567 38.05C69.6367 38.21 69.9467 38.29 70.2867 38.29C70.6267 38.29 70.9367 38.21 71.2167 38.05C71.5033 37.8833 71.73 37.6467 71.8967 37.34C72.0633 37.0267 72.1467 36.6633 72.1467 36.25ZM75.5145 34.41C75.6745 34.0967 75.9011 33.8533 76.1945 33.68C76.4945 33.5067 76.8578 33.42 77.2845 33.42V34.36H77.0445C76.0245 34.36 75.5145 34.9133 75.5145 36.02V39H74.6045V33.52H75.5145V34.41ZM79.4449 34.27V37.5C79.4449 37.7667 79.5016 37.9567 79.6149 38.07C79.7283 38.1767 79.9249 38.23 80.2049 38.23H80.8749V39H80.0549C79.5483 39 79.1683 38.8833 78.9149 38.65C78.6616 38.4167 78.5349 38.0333 78.5349 37.5V34.27H77.8249V33.52H78.5349V32.14H79.4449V33.52H80.8749V34.27H79.4449ZM84.6475 33.42C85.3142 33.42 85.8542 33.6233 86.2675 34.03C86.6809 34.43 86.8875 35.01 86.8875 35.77V39H85.9875V35.9C85.9875 35.3533 85.8509 34.9367 85.5775 34.65C85.3042 34.3567 84.9309 34.21 84.4575 34.21C83.9775 34.21 83.5942 34.36 83.3075 34.66C83.0275 34.96 82.8875 35.3967 82.8875 35.97V39H81.9775V33.52H82.8875V34.3C83.0675 34.02 83.3109 33.8033 83.6175 33.65C83.9309 33.4967 84.2742 33.42 84.6475 33.42ZM93.374 36.05C93.374 36.2233 93.364 36.4067 93.344 36.6H88.964C88.9973 37.14 89.1807 37.5633 89.514 37.87C89.854 38.17 90.264 38.32 90.744 38.32C91.1373 38.32 91.464 38.23 91.724 38.05C91.9907 37.8633 92.1773 37.6167 92.284 37.31H93.264C93.1173 37.8367 92.824 38.2667 92.384 38.6C91.944 38.9267 91.3973 39.09 90.744 39.09C90.224 39.09 89.7573 38.9733 89.344 38.74C88.9373 38.5067 88.6173 38.1767 88.384 37.75C88.1507 37.3167 88.034 36.8167 88.034 36.25C88.034 35.6833 88.1473 35.1867 88.374 34.76C88.6007 34.3333 88.9173 34.0067 89.324 33.78C89.7373 33.5467 90.2107 33.43 90.744 33.43C91.264 33.43 91.724 33.5433 92.124 33.77C92.524 33.9967 92.8307 34.31 93.044 34.71C93.264 35.1033 93.374 35.55 93.374 36.05ZM92.434 35.86C92.434 35.5133 92.3573 35.2167 92.204 34.97C92.0507 34.7167 91.8407 34.5267 91.574 34.4C91.314 34.2667 91.024 34.2 90.704 34.2C90.244 34.2 89.8507 34.3467 89.524 34.64C89.204 34.9333 89.0207 35.34 88.974 35.86H92.434ZM95.4852 34.41C95.6452 34.0967 95.8718 33.8533 96.1652 33.68C96.4652 33.5067 96.8285 33.42 97.2552 33.42V34.36H97.0152C95.9952 34.36 95.4852 34.9133 95.4852 36.02V39H94.5752V33.52H95.4852V34.41ZM104.066 32.03L101.436 39H100.386L97.7556 32.03H98.7256L100.916 38.04L103.106 32.03H104.066ZM104.723 36.24C104.723 35.68 104.837 35.19 105.063 34.77C105.29 34.3433 105.6 34.0133 105.993 33.78C106.393 33.5467 106.837 33.43 107.323 33.43C107.803 33.43 108.22 33.5333 108.573 33.74C108.927 33.9467 109.19 34.2067 109.363 34.52V33.52H110.283V39H109.363V37.98C109.183 38.3 108.913 38.5667 108.553 38.78C108.2 38.9867 107.787 39.09 107.313 39.09C106.827 39.09 106.387 38.97 105.993 38.73C105.6 38.49 105.29 38.1533 105.063 37.72C104.837 37.2867 104.723 36.7933 104.723 36.24ZM109.363 36.25C109.363 35.8367 109.28 35.4767 109.113 35.17C108.947 34.8633 108.72 34.63 108.433 34.47C108.153 34.3033 107.843 34.22 107.503 34.22C107.163 34.22 106.853 34.3 106.573 34.46C106.293 34.62 106.07 34.8533 105.903 35.16C105.737 35.4667 105.653 35.8267 105.653 36.24C105.653 36.66 105.737 37.0267 105.903 37.34C106.07 37.6467 106.293 37.8833 106.573 38.05C106.853 38.21 107.163 38.29 107.503 38.29C107.843 38.29 108.153 38.21 108.433 38.05C108.72 37.8833 108.947 37.6467 109.113 37.34C109.28 37.0267 109.363 36.6633 109.363 36.25ZM116.681 33.52V39H115.771V38.19C115.598 38.47 115.355 38.69 115.041 38.85C114.735 39.0033 114.395 39.08 114.021 39.08C113.595 39.08 113.211 38.9933 112.871 38.82C112.531 38.64 112.261 38.3733 112.061 38.02C111.868 37.6667 111.771 37.2367 111.771 36.73V33.52H112.671V36.61C112.671 37.15 112.808 37.5667 113.081 37.86C113.355 38.1467 113.728 38.29 114.201 38.29C114.688 38.29 115.071 38.14 115.351 37.84C115.631 37.54 115.771 37.1033 115.771 36.53V33.52H116.681ZM119.128 31.6V39H118.218V31.6H119.128ZM121.789 34.27V37.5C121.789 37.7667 121.845 37.9567 121.959 38.07C122.072 38.1767 122.269 38.23 122.549 38.23H123.219V39H122.399C121.892 39 121.512 38.8833 121.259 38.65C121.005 38.4167 120.879 38.0333 120.879 37.5V34.27H120.169V33.52H120.879V32.14H121.789V33.52H123.219V34.27H121.789Z" fill="#3F3F3F"/>
</svg>
