<svg width="24" height="24" viewBox="0 0 24 24" fill="none" xmlns="http://www.w3.org/2000/svg">
<path d="M21.6935 4.6444C22.2561 5.20701 22.5722 5.97007 22.5722 6.76572V21C22.5722 22.6569 21.229 24 19.5722 24H5.52636C3.86951 24 2.52637 22.6569 2.52637 21V3.00013C2.52637 1.34327 3.86951 0.00012207 5.52637 0.00012207H15.8066C16.6023 0.00012207 17.3653 0.3162 17.928 0.878821L19.6217 2.57258L21.6935 4.6444Z" fill="#B12A27"/>
<path d="M11.6139 1.60767H2V5.90929H11.6139V1.60767Z" fill="#F2F2F2"/>
<path d="M5.44833 3.01781C5.40591 2.91534 5.34937 2.82347 5.27166 2.74575C5.19394 2.66803 5.0985 2.60442 4.98895 2.562C4.87589 2.51606 4.74867 2.49487 4.60734 2.49487H3.55078V5.22276H4.08436V4.19447H4.60734C4.74867 4.19447 4.87589 4.17328 4.98895 4.12734C5.0985 4.08492 5.19389 4.02136 5.27166 3.94359C5.34942 3.86587 5.40595 3.77751 5.44833 3.67153C5.48719 3.56906 5.50842 3.45951 5.50842 3.34645C5.50837 3.22983 5.48719 3.12028 5.44833 3.01781ZM4.87233 3.61495C4.80164 3.68208 4.70273 3.71742 4.58259 3.71742H4.08436V2.96831H4.58259C4.70273 2.96831 4.80169 3.00365 4.87233 3.07429C4.93945 3.14142 4.9748 3.23329 4.9748 3.34636C4.97484 3.45595 4.9395 3.54783 4.87233 3.61495Z" fill="#B12A27"/>
<path d="M7.99944 3.55127C7.99592 3.45588 7.99236 3.37108 7.98176 3.29331C7.97117 3.21555 7.9535 3.14491 7.92875 3.07778C7.904 3.01417 7.87222 2.95056 7.82979 2.89403C7.7344 2.75622 7.61778 2.65375 7.48704 2.59014C7.35275 2.52653 7.19375 2.49475 7.00648 2.49475H6.02417V5.22264H7.00648C7.19375 5.22264 7.35275 5.19086 7.48704 5.12725C7.61778 5.06364 7.7344 4.96117 7.82979 4.82336C7.87222 4.76683 7.904 4.70322 7.92875 4.63961C7.9535 4.57248 7.97117 4.5018 7.98176 4.42408C7.99236 4.34636 7.99587 4.26152 7.99944 4.16613C8.00295 4.07425 8.00295 3.97178 8.00295 3.85872C8.00295 3.74566 8.00295 3.64314 7.99944 3.55127ZM7.46586 4.13434C7.46586 4.21563 7.45878 4.27924 7.4517 4.33577C7.44462 4.38878 7.43403 4.43824 7.41992 4.47358C7.40581 4.51244 7.38458 4.54778 7.35987 4.57956C7.27151 4.69263 7.13726 4.74564 6.96059 4.74564H6.55423V2.96824H6.96059C7.13726 2.96824 7.27156 3.02477 7.35987 3.13783C7.38462 3.16961 7.40581 3.20144 7.41992 3.2403C7.43403 3.27916 7.44467 3.32509 7.4517 3.38163C7.45878 3.43464 7.46586 3.50177 7.46586 3.57949C7.46937 3.65725 7.46937 3.75264 7.46937 3.85863C7.46942 3.9647 7.46942 4.05658 7.46586 4.13434Z" fill="#B12A27"/>
<path d="M10.2788 2.96824V2.49475H8.48022V5.22264H9.0138V4.11667H10.0916V3.63963H9.0138V2.96824H10.2788Z" fill="#B12A27"/>
<path d="M5.44833 3.01781C5.40591 2.91534 5.34937 2.82347 5.27166 2.74575C5.19394 2.66803 5.0985 2.60442 4.98895 2.562C4.87589 2.51606 4.74867 2.49487 4.60734 2.49487H3.55078V5.22276H4.08436V4.19447H4.60734C4.74867 4.19447 4.87589 4.17328 4.98895 4.12734C5.0985 4.08492 5.19389 4.02136 5.27166 3.94359C5.34942 3.86587 5.40595 3.77751 5.44833 3.67153C5.48719 3.56906 5.50842 3.45951 5.50842 3.34645C5.50837 3.22983 5.48719 3.12028 5.44833 3.01781ZM4.87233 3.61495C4.80164 3.68208 4.70273 3.71742 4.58259 3.71742H4.08436V2.96831H4.58259C4.70273 2.96831 4.80169 3.00365 4.87233 3.07429C4.93945 3.14142 4.9748 3.23329 4.9748 3.34636C4.97484 3.45595 4.9395 3.54783 4.87233 3.61495Z" fill="#B12A27"/>
<path opacity="0.08" d="M22.5722 5.52301V24H2.52637V19.6678L11.8973 10.2969L12.4521 9.74209L12.7595 9.43463L13.2719 8.92229L13.8797 8.31451L19.6217 2.57251L22.5722 5.52301Z" fill="#040000"/>
<path d="M22.5719 5.52356H17.0483V0L22.5719 5.52356Z" fill="#771B1B"/>
<path d="M19.7099 17.3746C19.5933 17.1696 19.4343 16.9753 19.2364 16.7986C19.0739 16.6502 18.8831 16.5124 18.6675 16.3852C17.7982 15.8728 16.558 15.6255 14.8724 15.6255H14.7028C14.611 15.5407 14.5156 15.4559 14.4166 15.3675C13.7771 14.7916 13.2682 14.1661 12.8725 13.47C13.6498 11.7562 14.0209 10.2297 13.9749 8.92939C13.9678 8.7103 13.9361 8.50536 13.8795 8.31453C13.7947 8.00712 13.6534 7.73501 13.4555 7.5124C13.452 7.50889 13.452 7.50889 13.4484 7.50533C13.1339 7.15198 12.6958 6.95056 12.2505 6.95056C11.8017 6.95056 11.3884 7.14491 11.088 7.50181C10.7912 7.85515 10.6322 8.33928 10.6251 8.90815C10.6145 9.77741 10.6851 10.6007 10.8336 11.3604C10.8477 11.4205 10.8583 11.4806 10.8724 11.5406C11.0209 12.2297 11.2399 12.8833 11.5226 13.4911C11.1904 14.166 10.8548 14.7491 10.6215 15.1448C10.4449 15.4452 10.2505 15.7597 10.0491 16.0742C9.14098 16.2367 8.37063 16.4346 7.69929 16.682C6.79118 17.0106 6.06326 17.4346 5.54027 17.9399C5.20104 18.265 4.97135 18.6113 4.85829 18.9717C4.73815 19.3427 4.74523 19.7137 4.87948 20.0459C5.00313 20.3533 5.22574 20.6112 5.5226 20.7879C5.59329 20.8303 5.66749 20.8656 5.74521 20.8975C5.97138 20.9893 6.2187 21.0388 6.47665 21.0388C7.07384 21.0388 7.68865 20.7808 8.20807 20.318C9.17627 19.4522 10.1763 18.06 10.7664 17.1801C11.2504 17.1059 11.7769 17.0423 12.3706 16.9787C13.0703 16.908 13.6886 16.8657 14.2505 16.8444C14.4236 16.9999 14.5897 17.1483 14.7487 17.2896C15.6321 18.0776 16.3035 18.6465 16.9113 19.0458C16.9113 19.0493 16.9148 19.0493 16.9183 19.0493C17.1586 19.2083 17.3883 19.3391 17.618 19.4451C17.8759 19.5652 18.1374 19.6288 18.406 19.6288C18.7452 19.6288 19.0632 19.5264 19.3282 19.3391C19.5968 19.1448 19.7911 18.8656 19.8795 18.5511C19.9819 18.1731 19.9219 17.7527 19.7099 17.3746ZM11.8972 10.2969C11.8477 9.85869 11.8265 9.40287 11.8336 8.92231C11.8406 8.4665 12.0067 8.15905 12.2505 8.15905C12.4343 8.15905 12.6286 8.32512 12.7169 8.64312C12.7417 8.73851 12.7594 8.84806 12.7629 8.97172C12.7699 9.12012 12.7664 9.27561 12.7594 9.43461C12.7382 9.88339 12.6604 10.3604 12.5261 10.8728C12.4449 11.2014 12.3389 11.5442 12.2081 11.901C12.0597 11.3993 11.9537 10.8657 11.8972 10.2969ZM6.00321 19.5972C5.94312 19.4487 6.01029 19.1625 6.37779 18.8092C6.93963 18.2721 7.81948 17.8481 9.04563 17.5265C8.81243 17.8445 8.58274 18.1343 8.36013 18.3993C8.0209 18.8091 7.69582 19.1555 7.40252 19.4169C7.15165 19.643 6.87602 19.7844 6.61456 19.8198C6.56862 19.8268 6.52268 19.8304 6.47674 19.8304C6.24701 19.8304 6.05974 19.7385 6.00321 19.5972ZM11.6498 15.841L11.6746 15.8022L11.6357 15.8092C11.6428 15.7916 11.6534 15.7739 11.664 15.7598C11.8124 15.5089 11.9996 15.1873 12.2011 14.8163L12.2187 14.8552L12.2647 14.7598C12.4131 14.9718 12.5756 15.1803 12.7452 15.3817C12.8265 15.4771 12.9113 15.569 12.9961 15.6608L12.9396 15.6643L12.989 15.7103C12.8441 15.7209 12.6922 15.735 12.5403 15.7491C12.4449 15.7597 12.3459 15.7668 12.247 15.7774C12.0421 15.7986 11.8406 15.8198 11.6498 15.841ZM17.5968 18.0459C17.1763 17.7774 16.7064 17.3993 16.1269 16.894C16.9502 16.9788 17.5968 17.159 18.0562 17.4275C18.2576 17.5442 18.4095 17.6643 18.512 17.7809C18.6816 17.9611 18.7417 18.1236 18.7099 18.2332C18.6816 18.3427 18.5579 18.4169 18.406 18.4169C18.3176 18.4169 18.2258 18.3957 18.1303 18.3498C17.9678 18.2721 17.7982 18.1767 17.618 18.0601C17.6109 18.0601 17.6039 18.053 17.5968 18.0459Z" fill="#F2F2F2"/>
</svg>
