<svg width="24" height="24" viewBox="0 0 24 24" fill="none" xmlns="http://www.w3.org/2000/svg">
<path d="M20.2594 6.62812V21.1078C20.2594 22.7062 18.9656 24 17.3672 24H5.89219C4.29375 24 3 22.7062 3 21.1078V2.89219C3 1.29375 4.29375 0 5.89219 0H13.6313L20.2594 6.62812Z" fill="#F15642"/>
<path d="M20.2592 6.62812H14.8264C14.1655 6.62812 13.6311 6.09375 13.6311 5.43281V0L20.2592 6.62812Z" fill="#FF9587"/>
<path d="M8.25464 12.9374C8.25464 13.9358 7.72495 14.489 6.79214 14.489H6.22026V16.1624H5.53589V11.3999H6.79683C7.72495 11.3999 8.25464 11.9671 8.25464 12.9374ZM7.5562 12.9374C7.5562 12.3515 7.30308 12.0515 6.78745 12.0515H6.22495V13.8327H6.78745C7.30308 13.8374 7.5562 13.5515 7.5562 12.9374Z" fill="white"/>
<path d="M11.5593 12.9374C11.5593 13.9358 11.0296 14.489 10.0968 14.489H9.52495V16.1624H8.84058V11.3999H10.0968C11.0296 11.3999 11.5593 11.9671 11.5593 12.9374ZM10.8562 12.9374C10.8562 12.3515 10.6031 12.0515 10.0875 12.0515H9.52495V13.8327H10.0875C10.6078 13.8374 10.8562 13.5515 10.8562 12.9374Z" fill="white"/>
<path d="M14.4842 12.0562H13.4904V16.1625H12.792V12.0562H11.8076V11.4047H14.4842V12.0562Z" fill="white"/>
<path d="M16.964 16.1625L16.214 14.4L15.4593 16.1625H14.7L15.8343 13.6969L14.7656 11.4047H15.5203L16.214 13.0172L16.8984 11.4047H17.6531L16.5843 13.6969L17.7187 16.1625H16.964Z" fill="white"/>
</svg>
