<svg width="26" height="26" viewBox="0 0 26 26" fill="none" xmlns="http://www.w3.org/2000/svg">
<path d="M21.0641 20.3733L21.0641 20.3733C21.1629 20.472 21.2411 20.5892 21.2946 20.7182C21.348 20.8472 21.3755 20.9854 21.3755 21.125C21.3755 21.2646 21.348 21.4028 21.2946 21.5317C21.2411 21.6607 21.1629 21.7779 21.0641 21.8766C20.9654 21.9753 20.8483 22.0536 20.7193 22.107C20.5903 22.1604 20.4521 22.1879 20.3125 22.1879C20.1729 22.1879 20.0347 22.1604 19.9058 22.107C19.7768 22.0536 19.6596 21.9753 19.5609 21.8766L11.436 13.7517L11.4359 13.7516L11.6127 13.5748C11.5371 13.4993 11.4772 13.4097 11.4363 13.3111C11.3954 13.2125 11.3744 13.1067 11.3744 13C11.3744 12.8932 11.3954 12.7875 11.4363 12.6888C11.4772 12.5902 11.5371 12.5006 11.6127 12.4251L21.0641 20.3733ZM21.0641 20.3733L13.6898 13L21.0641 5.6266L21.0641 5.62658C21.2635 5.42724 21.3755 5.15688 21.3755 4.87496C21.3755 4.59305 21.2635 4.32269 21.0641 4.12334C20.8648 3.924 20.5944 3.81201 20.3125 3.81201C20.0306 3.81201 19.7603 3.924 19.5609 4.12334L11.436 12.2482L21.0641 20.3733ZM5.56478 13L12.9391 5.6266L12.9391 5.62658C13.1385 5.42724 13.2505 5.15688 13.2505 4.87496C13.2505 4.59305 13.1385 4.32268 12.9391 4.12334C12.7398 3.924 12.4694 3.81201 12.1875 3.81201C11.9056 3.81201 11.6353 3.924 11.4359 4.12334L3.31101 12.2482L3.31091 12.2483L3.48768 12.4251C3.41214 12.5006 3.35221 12.5902 3.31132 12.6888C3.27044 12.7875 3.24939 12.8932 3.24939 13C3.24939 13.1067 3.27044 13.2125 3.31132 13.3111C3.35221 13.4097 3.41214 13.4993 3.48768 13.5748L3.31091 13.7516L3.31101 13.7517L11.4359 21.8766C11.5346 21.9753 11.6518 22.0536 11.7808 22.107C11.9097 22.1604 12.0479 22.1879 12.1875 22.1879C12.3271 22.1879 12.4653 22.1604 12.5943 22.107C12.7233 22.0536 12.8404 21.9753 12.9392 21.8766C13.0379 21.7779 13.1162 21.6607 13.1696 21.5317C13.223 21.4028 13.2505 21.2646 13.2505 21.125C13.2505 20.9854 13.223 20.8472 13.1696 20.7182C13.1162 20.5892 13.0379 20.472 12.9391 20.3733L12.9391 20.3733L5.56478 13Z" fill="#5E34F1" stroke="#5E34F1" stroke-width="0.5"/>
</svg>
