<?xml version="1.0" standalone="no"?>
<!DOCTYPE svg PUBLIC "-//W3C//DTD SVG 1.1//EN" "http://www.w3.org/Graphics/SVG/1.1/DTD/svg11.dtd" >
<svg xmlns="http://www.w3.org/2000/svg" xmlns:xlink="http://www.w3.org/1999/xlink" version="1.1">
<metadata>
Created by FontForge 20170731 at Fri Apr 13 17:04:30 2007
 By Aleksey,,,
Copyright (c) 2002, 2005 Parachute :, www.parachute.gr.  All rights reserved.
</metadata>
<defs>
<font id="PFDinTextCompPro-XBlack" horiz-adv-x="1818" >
  <font-face 
    font-family="PF Din Text Comp Pro XBlack"
    font-weight="1000"
    font-stretch="normal"
    units-per-em="1000"
    panose-1="2 0 8 6 0 0 0 2 0 4"
    ascent="750"
    descent="-250"
    x-height="494"
    cap-height="696"
    bbox="-227 -305 1760 968"
    underline-thickness="90"
    underline-position="-295"
    unicode-range="U+0020-FB05"
  />
<missing-glyph horiz-adv-x="460" 
d="M0 700h460v-700h-460v700zM323 95l-93 167l-92 -167h185zM323 605h-187l94 -165zM95 199l83 152l-83 153v-305zM365 199v304l-83 -154z" />
    <glyph glyph-name="fj" unicode="fj" horiz-adv-x="525" 
d="M237 495h243v-530q0 -87 -49 -128.5t-140 -41.5h-47v148h23q26 0 34.5 16.5t8.5 52.5v352h-73v-364h-170v364h-45v131h44v72q0 44 14 77t39.5 55t61.5 33.5t79 11.5q15 0 36.5 -1t46 -6t50.5 -15.5t51 -30.5l-73 -127q-20 15 -39.5 20t-37.5 5t-29 -5t-17.5 -12.5
t-8.5 -16t-2 -15.5v-45z" />
    <glyph glyph-name="ffj" unicode="ffj" horiz-adv-x="768" 
d="M480 495h243v-530q0 -87 -49 -128.5t-140 -41.5h-47v148h23q26 0 34.5 16.5t8.5 52.5v352h-73v-364h-170v364h-73v-364h-170v364h-45v131h44v49q0 43 14 76.5t39.5 55.5t61.5 33.5t79 11.5q26 0 55 -4t60 -18q24 21 57 33t71 12q15 0 36.5 -1t46 -6t50.5 -15.5t51 -30.5
l-73 -127q-20 15 -39.5 20t-37.5 5t-29 -5t-17.5 -12.5t-8.5 -16t-2 -15.5v-45zM309 495v44v8.5t2 10.5q-15 4 -29 4q-27 0 -36 -14t-9 -31v-22h72z" />
    <glyph glyph-name="ff" unicode="ff" horiz-adv-x="580" 
d="M237 364v-364h-170v364h-45v131h44v49q0 44 14 77t38.5 55t58 33.5t72.5 11.5q29 0 54 -3t49 -11q44 41 138 41h67v-148h-33q-26 0 -34.5 -14t-8.5 -33v-58h74v-131h-74v-364h-170v364h-74zM311 495v69q-7 1 -14 1.5t-12 0.5q-15 0 -24 -5t-14.5 -12.5t-7.5 -16t-2 -15.5
v-22h74z" />
    <glyph glyph-name="fi" unicode="fi" horiz-adv-x="525" 
d="M310 0v364h-73v-364h-170v364h-45v131h44v72q0 44 14 77t39.5 55t61.5 33.5t79 11.5q15 0 36.5 -1t46 -6t50.5 -15.5t51 -30.5l-73 -127q-20 15 -39.5 20t-37.5 5t-29 -5t-17.5 -12.5t-8.5 -16t-2 -15.5v-45h243v-495h-170z" />
    <glyph glyph-name="fl" unicode="fl" horiz-adv-x="550" 
d="M283 364h-54v-364h-170v364h-37v131h36v72q0 88 53.5 132.5t157.5 44.5q25 0 80.5 -5t138.5 -30v-534q0 -14 8 -25t27 -11h12v-144h-45q-51 0 -84 10.5t-52.5 31.5t-27.5 53t-8 75l-1 419q-8 3 -20 4t-20 1q-16 0 -25.5 -5t-14.5 -12.5t-6.5 -16t-1.5 -15.5v-45h54v-131z
" />
    <glyph glyph-name="ffi" unicode="ffi" horiz-adv-x="768" 
d="M309 495v44v8.5t2 10.5q-15 4 -29 4q-27 0 -36 -14t-9 -31v-22h72zM503 744q15 0 36.5 -1t46 -6t50.5 -15.5t51 -30.5l-73 -127q-20 15 -39.5 20t-37.5 5t-29 -5t-17.5 -12.5t-8.5 -16t-2 -15.5v-45h243v-495h-170v364h-73v-364h-170v364h-73v-364h-170v364h-45v131h44
v49q0 43 14 76.5t39.5 55.5t61.5 33.5t79 11.5q26 0 55 -4t60 -18q24 21 57 33t71 12z" />
    <glyph glyph-name="ffl" unicode="ffl" horiz-adv-x="781" 
d="M522 589q-15 0 -24 -5t-14.5 -12.5t-7.5 -16t-2 -15.5v-45h47v-131h-47v-364h-170v364h-73v-364h-170v364h-39v131h38v49q0 44 14 77t39.5 55t61.5 33.5t79 11.5q26 0 55 -4t60 -18q25 21 57.5 33t70.5 12h32.5t49 -3t64 -10t76.5 -22v-534q0 -14 8 -25t27 -11h12v-144
h-45q-51 0 -84 10.5t-52.5 31.5t-27.5 53t-8 75v419q-5 2 -12.5 3.5t-14.5 1.5zM303 495v68q-12 3 -24 3q-15 0 -24 -5t-14.5 -12.5t-7.5 -16t-2 -15.5v-22h72z" />
    <glyph glyph-name="ft" unicode="ft" horiz-adv-x="579" 
d="M237 364v-364h-170v364h-45v131h45v89q0 87 44 126.5t135 39.5h45v-148h-11q-26 0 -34.5 -14t-8.5 -33v-60h77v142h169v-142h63v-132h-63v-156q0 -24 8.5 -37.5t34.5 -13.5h23v-156h-57q-91 0 -135 39.5t-44 126.5v197z" />
    <glyph glyph-name=".notdef" horiz-adv-x="460" 
d="M0 700h460v-700h-460v700zM323 95l-93 167l-92 -167h185zM323 605h-187l94 -165zM95 199l83 152l-83 153v-305zM365 199v304l-83 -154z" />
    <glyph glyph-name=".null" horiz-adv-x="0" 
 />
    <glyph glyph-name="nonmarkingreturn" horiz-adv-x="333" 
 />
    <glyph glyph-name="space" unicode=" " horiz-adv-x="240" 
 />
    <glyph glyph-name="exclam" unicode="!" horiz-adv-x="314" 
d="M234 203h-153l-10 493h173zM74 0v139h168v-139h-168z" />
    <glyph glyph-name="quotedbl" unicode="&#x22;" horiz-adv-x="352" 
d="M194 467v229h118v-229h-118zM39 467v229h117v-229h-117z" />
    <glyph glyph-name="numbersign" unicode="#" horiz-adv-x="508" 
d="M24 312h70l14 81h-58v106h76l35 196h128l-35 -196h70l35 196h128l-35 -196h58v-106h-77l-14 -81h60v-104h-79l-36 -208h-127l36 208h-70l-36 -208h-128l36 208h-51v104zM222 312h70l14 81h-70z" />
    <glyph glyph-name="dollar" unicode="$" horiz-adv-x="480" 
d="M437 208q0 -45 -9 -82.5t-29.5 -65.5t-53 -44.5t-79.5 -20.5v-85h-53v85q-42 4 -72.5 22t-50 45t-28.5 60.5t-9 69.5l163 15q-1 -39 7 -48.5t17 -9.5q15 0 21 13.5t6 39.5q0 31 -11.5 49.5t-40.5 31.5q-51 22 -83 46t-50 50t-24 56t-6 64q0 40 9.5 74t29.5 60.5t50 43
t72 21.5v81h53v-80q47 -4 78.5 -22.5t50 -45.5t26.5 -60t8 -64l-165 -17q1 28 -3.5 42t-19.5 14q-14 0 -19 -13t-5 -30q0 -10 2 -19t8.5 -18t19.5 -18t35 -18q48 -20 78 -42.5t47.5 -49t23.5 -58.5t6 -72z" />
    <glyph glyph-name="percent" unicode="%" horiz-adv-x="820" 
d="M660 342q0 13 -13 13q-5 0 -9.5 -3.5t-4.5 -9.5v-229q0 -6 4.5 -9t9.5 -3q13 0 13 12v229zM787 115q0 -51 -36 -85t-104 -34q-65 0 -102.5 34t-37.5 85v225q0 25 10 47t28 38t44 25t58 9q67 0 103.5 -34t36.5 -85v-225zM189 617q0 13 -13 13q-5 0 -9.5 -3.5t-4.5 -9.5
v-229q0 -6 4.5 -9t9.5 -3q13 0 13 12v229zM316 390q0 -51 -36 -85t-104 -34q-32 0 -58 10t-44 26.5t-28 39t-10 47.5v225q0 51 38 83t102 32q67 0 103.5 -34t36.5 -85v-225zM313 -17h-124l314 731h124z" />
    <glyph glyph-name="ampersand" unicode="&#x26;" horiz-adv-x="559" 
d="M342 40q-26 -23 -62 -34.5t-72 -11.5q-48 0 -81.5 16t-54.5 42t-30.5 60.5t-9.5 71.5q0 58 22 109t76 93l-8 14q-16 27 -28.5 57t-12.5 68q0 39 13.5 71.5t38 56t59 36t77.5 12.5q16 0 41 -3t52 -15.5t53 -36.5t44 -66l-118 -73q-20 29 -35.5 36.5t-24.5 7.5
q-15 0 -24 -8t-12 -20t-0.5 -26t10.5 -26l103 -164q5 16 8 28.5t8 34.5l135 -33q-6 -42 -21.5 -93.5t-35.5 -89.5l98 -154h-184zM213 256q-8 -10 -15 -26.5t-7 -37.5q0 -20 10.5 -32.5t27.5 -12.5q10 0 20.5 4t21.5 15z" />
    <glyph glyph-name="quotesingle" unicode="'" horiz-adv-x="197" 
d="M40 467v229h117v-229h-117z" />
    <glyph glyph-name="parenleft" unicode="(" horiz-adv-x="335" 
d="M56 308q0 61 11.5 120t30.5 114t44.5 105t54.5 92l118 -56q-24 -42 -43 -89t-32.5 -95t-20.5 -95.5t-7 -91.5q0 -98 27.5 -198t72.5 -180l-107 -65q-66 94 -107.5 206t-41.5 233z" />
    <glyph glyph-name="parenright" unicode=")" horiz-adv-x="335" 
d="M316 308q0 -121 -41.5 -233t-107.5 -206l-107 65q45 80 72.5 180t27.5 198q0 44 -7 91.5t-20.5 95.5t-32.5 95t-43 89l118 56q28 -42 54 -92t45 -105t30.5 -114t11.5 -120z" />
    <glyph glyph-name="asterisk" unicode="*" horiz-adv-x="416" 
d="M357 389l-93 -66l-56 92l-59 -94l-92 68l69 88l-100 29l36 107l98 -39l-11 111h116l-10 -111l96 39l40 -108l-105 -28z" />
    <glyph glyph-name="plus" unicode="+" horiz-adv-x="480" 
d="M307 238v-151h-134v151h-140v136h140v151h134v-151h140v-136h-140z" />
    <glyph glyph-name="comma" unicode="," horiz-adv-x="262" 
d="M153 -149h-106l33 145h-29v154h166v-151z" />
    <glyph glyph-name="hyphen" unicode="-" horiz-adv-x="383" 
d="M45 201v145h301v-145h-301z" />
    <glyph glyph-name="period" unicode="." horiz-adv-x="255" 
d="M45 0v150h165v-150h-165z" />
    <glyph glyph-name="slash" unicode="/" horiz-adv-x="323" 
d="M136 -42h-136l187 767h136z" />
    <glyph glyph-name="zero" unicode="0" horiz-adv-x="480" 
d="M430 172q0 -37 -12.5 -69.5t-36.5 -56.5t-59 -38t-81 -14q-45 0 -80.5 14t-60 38t-37.5 56.5t-13 69.5v351q0 37 13 70t38 57t60.5 38t79.5 14q46 0 81 -14t59 -38t36.5 -57t12.5 -70v-351zM264 526q0 28 -23 28q-25 0 -25 -28v-357q0 -12 7 -19.5t18 -7.5t17 7.5t6 19.5
v357z" />
    <glyph glyph-name="one" unicode="1" horiz-adv-x="480" 
d="M192 0v517l-91 -71v169l104 81h153v-696h-166z" />
    <glyph glyph-name="two" unicode="2" horiz-adv-x="480" 
d="M63 0v127l172 311q11 21 14.5 37t3.5 39q0 13 -4 26.5t-20 13.5q-15 0 -21.5 -13t-6.5 -57l-158 18q0 51 14 89t38.5 62.5t58.5 36.5t75 12q91 0 138.5 -47.5t47.5 -128.5q0 -23 -2 -42.5t-7.5 -37.5t-13.5 -37t-20 -41l-123 -225h160v-143h-346z" />
    <glyph glyph-name="three" unicode="3" horiz-adv-x="480" 
d="M353 360q32 -17 44.5 -47.5t12.5 -59.5v-68q0 -87 -46 -139t-141 -52q-93 0 -143 50t-45 151l160 18q-3 -27 -1 -41.5t6.5 -21.5t10.5 -8t10 -1q8 0 15 7.5t7 31.5v71q0 26 -12 37t-29 11h-43v122h48q15 0 26.5 9.5t11.5 32.5v55q0 12 -4.5 24t-16.5 12q-5 0 -10.5 -1.5
t-9.5 -8t-6.5 -21t-2.5 -40.5l-155 18q0 48 14.5 85.5t39.5 63t58.5 39t71.5 13.5q51 0 86 -14.5t56.5 -37.5t31.5 -52t10 -58v-42q0 -18 -2 -38t-7.5 -38t-16.5 -34t-29 -26v-2z" />
    <glyph glyph-name="four" unicode="4" horiz-adv-x="480" 
d="M415 97v-97h-160v97h-229v115l152 484h163l-143 -463h57v122h160v-122h37v-136h-37z" />
    <glyph glyph-name="five" unicode="5" horiz-adv-x="480" 
d="M425 185q0 -91 -49 -141t-141 -50q-46 0 -82 12.5t-60 37.5t-36 63t-10 88l159 18q-3 -27 -0.5 -41.5t7 -21t10.5 -7.5t10 -1q8 0 16 7t8 31v126q0 11 -6 17t-14 6q-5 0 -15.5 -2.5t-19.5 -22.5h-127v392h340v-142h-182v-99q13 7 29 10.5t28 3.5q72 0 103.5 -38.5
t31.5 -100.5v-145z" />
    <glyph glyph-name="six" unicode="6" horiz-adv-x="480" 
d="M268 262q0 12 -8 17.5t-16 5.5t-15.5 -5.5t-7.5 -17.5v-99q0 -11 7.5 -16.5t15.5 -5.5t16 5.5t8 16.5v99zM243 -6q-47 0 -82.5 14t-59 38t-35.5 55t-12 64v48q0 36 3.5 71t17.5 71l140 341h172l-118 -284q7 2 17.5 3t18.5 1q17 0 39.5 -5.5t42 -20.5t33 -42t13.5 -71v-97
q0 -36 -9.5 -69.5t-32 -59.5t-59 -41.5t-89.5 -15.5z" />
    <glyph glyph-name="seven" unicode="7" horiz-adv-x="480" 
d="M245 0h-162l162 554h-48v-66h-137v208h355v-128z" />
    <glyph glyph-name="eight" unicode="8" horiz-adv-x="480" 
d="M236 702q44 0 78.5 -13.5t58 -36.5t36 -54t12.5 -66v-29q0 -18 -1.5 -38t-6.5 -38.5t-15.5 -34.5t-29.5 -26v-3q18 -11 29 -26t17 -33t7.5 -37t1.5 -38v-55q0 -44 -14 -77.5t-39 -56t-58.5 -34.5t-73.5 -12q-46 0 -81.5 14t-60 38t-37 56t-12.5 68v35q0 18 1.5 40t6.5 44
t16 41t31 33v4q-18 11 -28.5 27t-16 34t-7 37.5t-1.5 37.5v27q0 33 12.5 64t36 55t58.5 38.5t80 14.5zM259 282q0 9 -6.5 15.5t-16.5 6.5q-11 0 -17.5 -6.5t-6.5 -15.5v-119q0 -9 7 -15t18 -6q7 0 14.5 6t7.5 15v119zM259 532q0 9 -7 15.5t-16 6.5q-10 0 -17 -6.5t-7 -15.5
v-85q0 -9 7 -15t18 -6q7 0 14.5 6t7.5 15v85z" />
    <glyph glyph-name="nine" unicode="9" horiz-adv-x="480" 
d="M220 434q0 -12 8 -17.5t16 -5.5t15.5 5.5t7.5 17.5v99q0 11 -7.5 16.5t-15.5 5.5t-16 -5.5t-8 -16.5v-99zM245 702q47 0 82.5 -14t59 -38t35.5 -55t12 -64v-48q0 -36 -3.5 -71t-17.5 -71l-140 -341h-172l118 284q-7 -2 -17.5 -3t-18.5 -1q-17 0 -39.5 5.5t-42 20.5
t-33 42t-13.5 71v97q0 36 9.5 69.5t32 59.5t59 41.5t89.5 15.5z" />
    <glyph glyph-name="colon" unicode=":" horiz-adv-x="260" 
d="M47 265v150h165v-150h-165zM49 0v150h165v-150h-165z" />
    <glyph glyph-name="semicolon" unicode=";" horiz-adv-x="260" 
d="M151 -149h-106l33 145h-29v154h166v-151zM47 265v150h165v-150h-165z" />
    <glyph glyph-name="less" unicode="&#x3c;" horiz-adv-x="480" 
d="M432 56l-388 180v131l391 181v-152l-219 -95l216 -93v-152z" />
    <glyph glyph-name="equal" unicode="=" horiz-adv-x="480" 
d="M45 328v126h389v-126h-389zM45 148v126h389v-126h-389z" />
    <glyph glyph-name="greater" unicode="&#x3e;" horiz-adv-x="480" 
d="M48 208l218 93l-221 95v152l391 -181v-131l-388 -180v152z" />
    <glyph glyph-name="question" unicode="?" horiz-adv-x="466" 
d="M428 516q0 -26 -4 -45.5t-10.5 -35t-14.5 -28t-15 -25.5q-23 -40 -35 -66.5t-17.5 -44.5t-6.5 -30t-1 -23v-27h-158v69q0 23 4.5 43t21.5 49q22 36 34.5 59.5t18.5 39t7.5 27.5t1.5 26q0 18 -5 32t-22 14q-16 0 -24 -15t-8 -52l-160 15q4 94 52 149t147 55
q93 0 143.5 -48t50.5 -138zM164 0v139h164v-139h-164z" />
    <glyph glyph-name="at" unicode="@" horiz-adv-x="862" 
d="M593 270q0 -20 8.5 -26t17.5 -6q12 0 23 6.5t19 23.5t13 46t5 73q0 55 -14.5 101t-43.5 79.5t-73 52t-103 18.5q-70 0 -120.5 -25t-83 -66.5t-48 -95.5t-15.5 -113q0 -148 69.5 -226.5t189.5 -78.5q45 0 88 6.5t96 33.5l44 -103q-57 -26 -112 -38.5t-111 -12.5
q-84 0 -154 24.5t-121 76t-79 130.5t-28 188q0 88 25.5 163.5t74.5 131t120 87t162 31.5q94 0 162 -29t112 -79t65 -116t21 -140q0 -71 -17.5 -122t-48 -84t-70.5 -49t-85 -16q-36 0 -65 13.5t-40 39.5q-20 -20 -47.5 -33t-59.5 -13q-35 0 -57 10t-34.5 28t-17.5 42.5
t-5 52.5q0 30 9 56.5t27.5 46t48.5 30.5t72 11h35v32q0 21 -21 21q-8 0 -16.5 -6.5t-13.5 -29.5l-131 36q13 64 59.5 92t108.5 28q72 0 116 -33.5t44 -108.5v-161zM447 311h-13q-13 0 -23 -6.5t-10 -28.5q0 -15 6 -21t17 -6q23 0 23 29v33z" />
    <glyph glyph-name="A" unicode="A" horiz-adv-x="511" 
d="M309 126h-109l-17 -126h-177l140 696h216l141 -696h-176zM221 269h68l-12 87l-19 136h-6l-19 -137z" />
    <glyph glyph-name="B" unicode="B" horiz-adv-x="482" 
d="M264 497q0 28 -9 41t-35 13h-7v-116h9q28 0 35 18.5t7 43.5zM270 223q0 39 -10 55.5t-34 16.5h-13v-149h13q26 0 35 19t9 58zM365 364q24 -8 39.5 -23t25 -34.5t13.5 -42.5t4 -47q0 -112 -49 -164.5t-146 -52.5h-212v696h215q186 0 186 -190q0 -21 -4.5 -42.5t-13.5 -40
t-23.5 -33t-34.5 -21.5v-5z" />
    <glyph glyph-name="C" unicode="C" horiz-adv-x="460" 
d="M240 702q50 0 86 -15t59 -40t34 -57.5t11 -67.5v-11.5t-1 -11.5l-162 -19q2 32 -5 51t-24 19q-15 0 -20.5 -11.5t-5.5 -26.5v-333q0 -14 6.5 -23.5t20.5 -9.5q12 0 21 16t8 54l167 -12q0 -41 -10 -79t-32.5 -67t-60.5 -46.5t-94 -17.5q-94 0 -146 46.5t-52 134.5v344
q0 83 52 133t148 50z" />
    <glyph glyph-name="D" unicode="D" horiz-adv-x="478" 
d="M266 496q0 29 -8 42t-37 13h-6v-405h6q26 0 35.5 14t9.5 44v292zM268 696q62 0 104.5 -22.5t56.5 -71.5q9 -32 10.5 -99.5t1.5 -153.5t-1.5 -150t-12.5 -96q-9 -27 -26 -46.5t-40 -32t-49 -18.5t-53 -6h-216v696h225z" />
    <glyph glyph-name="E" unicode="E" horiz-adv-x="429" 
d="M40 0v696h359v-150h-183v-117h160v-151h-160v-127h183v-151h-359z" />
    <glyph glyph-name="F" unicode="F" horiz-adv-x="424" 
d="M216 546v-117h160v-151h-160v-278h-176v696h359v-150h-183z" />
    <glyph glyph-name="G" unicode="G" horiz-adv-x="474" 
d="M239 -6q-97 0 -148 47.5t-51 135.5v342q0 83 52 133t148 50q51 0 87.5 -15t59 -39.5t33 -57t10.5 -67.5v-11.5t-1 -11.5l-162 -19q2 32 -5 50.5t-24 18.5q-15 0 -20.5 -11.5t-5.5 -26.5v-333q0 -14 6.5 -23.5t20.5 -9.5q11 0 18.5 8.5t7.5 25.5v90h-30v134h203l1 -229
q0 -43 -15.5 -76.5t-42.5 -57t-63.5 -35.5t-78.5 -12z" />
    <glyph glyph-name="H" unicode="H" horiz-adv-x="489" 
d="M274 0v278h-58v-278h-176v696h176v-266h58v266h175v-696h-175z" />
    <glyph glyph-name="I" unicode="I" horiz-adv-x="276" 
d="M50 0v696h176v-696h-176z" />
    <glyph glyph-name="J" unicode="J" horiz-adv-x="441" 
d="M391 696v-527q0 -82 -53.5 -128.5t-146.5 -46.5q-57 0 -103.5 20t-86.5 77l113 108q20 -25 36.5 -35.5t30.5 -10.5q12 0 18.5 4.5t10.5 10.5t5 13t1 12v503h175z" />
    <glyph glyph-name="K" unicode="K" horiz-adv-x="524" 
d="M341 410l175 -410h-187l-91 229l-22 -39v-190h-176v696h176v-180h7l95 180h185z" />
    <glyph glyph-name="L" unicode="L" horiz-adv-x="409" 
d="M40 0v696h176v-545h183v-151h-359z" />
    <glyph glyph-name="M" unicode="M" horiz-adv-x="658" 
d="M263 136l-21 76l-25 94h-5v-306h-172v696h184l49 -151l53 -157h6l51 153l51 155h184v-696h-173v303h-4l-25 -94l-20 -73h-133z" />
    <glyph glyph-name="N" unicode="N" horiz-adv-x="518" 
d="M309 414v282h169v-696h-152l-56 148l-54 140h-5v-288h-171v696h155l49 -129l60 -153h5z" />
    <glyph glyph-name="O" unicode="O" horiz-adv-x="478" 
d="M263 519q0 17 -8 22.5t-16 5.5t-17 -5.5t-9 -22.5v-342q0 -18 9 -23t17 -5t16 5t8 23v342zM438 182q0 -92 -52.5 -140t-146.5 -48q-96 0 -147.5 48t-51.5 140v333q0 46 14.5 81t40.5 58.5t62.5 35.5t81.5 12q199 0 199 -187v-333z" />
    <glyph glyph-name="P" unicode="P" horiz-adv-x="463" 
d="M249 696q42 0 77.5 -9.5t61.5 -33.5t40.5 -64.5t14.5 -102.5q0 -107 -48.5 -164t-145.5 -57h-37v-265h-172v696h209zM212 551v-141h13q23 0 35.5 18t12.5 59q0 29 -10 46.5t-36 17.5h-15z" />
    <glyph glyph-name="Q" unicode="Q" horiz-adv-x="493" 
d="M438 182q0 -44 -12 -78l66 -49l-74 -98l-76 56q-42 -19 -103 -19q-96 0 -147.5 48t-51.5 140v333q0 46 14.5 81t40.5 58.5t62.5 35.5t81.5 12q199 0 199 -187v-333zM263 519q0 17 -8 22.5t-16 5.5t-17 -5.5t-9 -22.5v-342q0 -18 9 -23t17 -5t16 5t8 23v342z" />
    <glyph glyph-name="R" unicode="R" horiz-adv-x="497" 
d="M212 0h-172v696h209q45 0 81.5 -11t62.5 -36t40 -65t14 -97q0 -62 -18 -101t-53 -67l96 -319h-174l-71 273h-15v-273zM212 552v-132h10q18 0 32 13.5t14 50.5q0 29 -8 48.5t-35 19.5h-13z" />
    <glyph glyph-name="S" unicode="S" horiz-adv-x="455" 
d="M430 209q0 -49 -11 -88.5t-35.5 -67.5t-64.5 -43.5t-97 -15.5q-52 0 -89 16.5t-61 44t-35 63.5t-11 75l172 15q-1 -20 1 -31.5t6 -17.5t8.5 -8t9.5 -2q16 0 22 14t6 40q0 31 -12 49.5t-43 31.5q-54 22 -87.5 46t-52 50t-25 56t-6.5 64q0 44 12 81t37 64t63 42t91 15
q57 0 94 -17.5t59.5 -45.5t31.5 -62.5t9 -68.5l-174 -17q1 29 -3.5 43t-20.5 14q-15 0 -20 -13t-5 -31q0 -10 2 -19t9 -18t20.5 -18t36.5 -18q51 -20 82.5 -42.5t49.5 -49t24.5 -58.5t6.5 -72z" />
    <glyph glyph-name="T" unicode="T" horiz-adv-x="410" 
d="M293 546v-546h-176v546h-107v150h390v-150h-107z" />
    <glyph glyph-name="U" unicode="U" horiz-adv-x="478" 
d="M438 696v-514q0 -92 -52.5 -140t-146.5 -48q-96 0 -147.5 48t-51.5 140v514h173v-519q0 -18 9 -23t17 -5t16 5t8 23v519h175z" />
    <glyph glyph-name="V" unicode="V" horiz-adv-x="513" 
d="M319 696h184l-139 -696h-216l-138 696h185l32 -246l28 -227h5l27 227z" />
    <glyph glyph-name="W" unicode="W" horiz-adv-x="692" 
d="M345 319l-53 -319h-179l-103 696h182l29 -356h5l49 356h146l48 -350h5l26 350h182l-103 -696h-179l-51 319h-4z" />
    <glyph glyph-name="X" unicode="X" horiz-adv-x="524" 
d="M259 204l-61 -204h-185l144 363l-134 333h186l51 -172h6l48 172h187l-138 -333l148 -363h-187l-61 204h-4z" />
    <glyph glyph-name="Y" unicode="Y" horiz-adv-x="490" 
d="M247 457l46 239h184l-145 -438v-258h-177v258l-146 438h185l50 -239h3z" />
    <glyph glyph-name="Z" unicode="Z" horiz-adv-x="411" 
d="M25 0v144l179 402h-173v150h355v-142l-181 -403h181v-151h-361z" />
    <glyph glyph-name="bracketleft" unicode="[" horiz-adv-x="312" 
d="M50 -102v799h222v-117h-60v-565h60v-117h-222z" />
    <glyph glyph-name="backslash" unicode="\" horiz-adv-x="323" 
d="M1 725h136l187 -767h-136z" />
    <glyph glyph-name="bracketright" unicode="]" horiz-adv-x="312" 
d="M40 -102v117h60v565h-60v117h222v-799h-222z" />
    <glyph glyph-name="asciicircum" unicode="^" horiz-adv-x="487" 
d="M236 531l-66 -223h-162l157 388h151l161 -391h-162l-71 226h-8z" />
    <glyph glyph-name="underscore" unicode="_" horiz-adv-x="500" 
d="M0 -170v110h500v-110h-500z" />
    <glyph glyph-name="grave" unicode="`" horiz-adv-x="385" 
d="M255 529l-138 182l122 72l106 -203z" />
    <glyph glyph-name="a" unicode="a" horiz-adv-x="450" 
d="M246 33q-19 -20 -44.5 -29.5t-44.5 -9.5q-40 0 -65.5 10.5t-40.5 30t-20.5 47t-5.5 60.5q0 34 10 64.5t32 52.5t56.5 35t82.5 13h41v37q0 11 -6.5 17.5t-18.5 6.5q-8 0 -18 -7.5t-17 -34.5l-150 42q7 37 25 63t43.5 42.5t57.5 24.5t67 8q83 0 134 -39t51 -124v-343h-165
v33h-4zM247 205h-15q-15 0 -27 -8t-12 -33q0 -31 27 -31t27 34v38z" />
    <glyph glyph-name="b" unicode="b" horiz-adv-x="458" 
d="M231 362q-14 0 -21 -17q-3 -7 -3.5 -21.5t-0.5 -37.5v-56q0 -26 0.5 -45.5t2.5 -27.5q3 -18 22 -18q8 0 14 5.5t6 12.5q2 6 3 28.5t1 57.5q0 30 -0.5 58t-3.5 42q-2 8 -7 13.5t-13 5.5zM209 467q20 21 44.5 30t49.5 9q29 0 49 -7.5t33.5 -20t21 -28.5t11.5 -34
q3 -12 4.5 -31.5t3 -42.5t2 -47.5t0.5 -45.5q0 -38 -1.5 -69.5t-3.5 -48.5q-8 -75 -44 -106t-90 -31q-16 0 -40.5 6.5t-41.5 29.5h-3v-30h-169v726h172l-1 -259h3z" />
    <glyph glyph-name="c" unicode="c" horiz-adv-x="434" 
d="M226 506q91 0 137 -46.5t44 -132.5l-156 -11q0 50 -26 50q-16 0 -21 -17q-3 -11 -4 -37.5t-1 -66.5q0 -37 1 -58.5t3 -33.5q2 -8 6 -13t13 -5q27 0 27 47l160 -9q-2 -93 -52.5 -136.5t-138.5 -43.5q-42 0 -72.5 10t-51.5 26t-33.5 36.5t-18.5 40.5q-3 12 -5.5 29t-4 36
t-2 38.5t-0.5 36.5q0 45 5 90t14 71q8 19 21.5 37t34.5 32t50.5 22t70.5 8z" />
    <glyph glyph-name="d" unicode="d" horiz-adv-x="458" 
d="M228 362q-8 0 -13.5 -5.5t-7.5 -13.5q-3 -14 -3.5 -42t-0.5 -58q0 -35 0.5 -57.5t2.5 -28.5q0 -7 6.5 -12.5t14.5 -5.5q19 0 22 18q2 8 2.5 30t0.5 48v46q0 23 -0.5 41t-2.5 23q-7 17 -21 17zM251 475v251h172v-726h-169v38h-3q-8 -12 -20.5 -20t-25.5 -13.5t-25 -8
t-20 -2.5q-116 0 -126 123q-2 22 -3 58t-1 74q0 21 0.5 45t2 46.5t3.5 41.5t5 31q4 18 12 34.5t21.5 29.5t34 21t49.5 8q25 0 47.5 -7t42.5 -24h3z" />
    <glyph glyph-name="e" unicode="e" horiz-adv-x="434" 
d="M218 -7q-42 0 -73 10t-52 26t-33 36.5t-18 40.5q-8 30 -10 67.5t-2 72.5q0 45 5 86.5t17 73.5q7 20 20 38t34 32t51 22t71 8q38 0 71 -10.5t57 -31t38 -51t14 -69.5v-127h-208v-44q0 -15 3.5 -27.5t20.5 -12.5q9 0 16.5 7.5t9.5 30.5l159 -18q-8 -77 -54.5 -118.5
t-136.5 -41.5zM224 371q-11 0 -17 -11q-4 -7 -5 -20.5t-1 -30.5h47q0 20 -1 34t-6 20q-4 5 -7 6.5t-10 1.5z" />
    <glyph glyph-name="f" unicode="f" horiz-adv-x="336" 
d="M22 495h45v65q0 87 44 126.5t135 39.5h67v-148h-33q-26 0 -34.5 -14t-8.5 -33v-36h74v-131h-74v-364h-170v364h-45v131z" />
    <glyph glyph-name="g" unicode="g" horiz-adv-x="458" 
d="M423 -16q0 -95 -52.5 -139t-141.5 -44q-98 0 -141.5 39.5t-47.5 117.5l160 17q2 -21 9.5 -30t16.5 -9q14 0 19 9.5t5 21.5l1 47v34h-3q-20 -21 -44 -30t-49 -9q-31 0 -51.5 7.5t-33.5 20t-20 28.5t-11 34q-5 23 -7 64t-2 83q0 38 1.5 69.5t3.5 48.5q8 75 44 106t90 31
q16 0 40.5 -6.5t41.5 -29.5h3v30h169v-511zM227 153q14 0 21 17q3 7 4 24t1 40v31q0 26 -1 45.5t-3 27.5q-3 18 -22 18q-8 0 -14 -5.5t-6 -12.5q-2 -6 -3 -28.5t-1 -57.5q0 -30 0.5 -48t3.5 -32q2 -8 7 -13.5t13 -5.5z" />
    <glyph glyph-name="h" unicode="h" horiz-adv-x="461" 
d="M208 456q24 29 54.5 38.5t52.5 9.5q35 0 56.5 -10t33.5 -27.5t16.5 -41t4.5 -50.5v-375h-172v312q0 17 -5 26t-19 9q-15 0 -19.5 -11.5t-4.5 -22.5v-313h-171v726h171v-269z" />
    <glyph glyph-name="i" unicode="i" horiz-adv-x="260" 
d="M45 566v130h170v-130h-170zM45 0v495h170v-495h-170z" />
    <glyph glyph-name="j" unicode="j" horiz-adv-x="261" 
d="M46 566v130h170v-130h-170zM216 -35q0 -87 -49 -128.5t-140 -41.5h-47v148h23q26 0 34.5 16.5t8.5 52.5v483h170v-530z" />
    <glyph glyph-name="k" unicode="k" horiz-adv-x="486" 
d="M340 311l136 -311h-185l-63 159l-23 -31v-128h-170v725h170v-347l4 -1l74 117h193z" />
    <glyph glyph-name="l" unicode="l" horiz-adv-x="277" 
d="M45 726h170v-551q0 -14 8 -25t27 -11h12v-144h-45q-51 0 -84 10.5t-52.5 31.5t-27.5 53t-8 75v561z" />
    <glyph glyph-name="m" unicode="m" horiz-adv-x="664" 
d="M513 504q35 0 57.5 -10t35.5 -27.5t18 -41t5 -50.5v-375h-172v308q0 17 -3 26t-17 9q-11 0 -14.5 -8.5t-4.5 -18.5v-316h-172v308q0 17 -3.5 26t-17.5 9q-12 0 -15.5 -11.5t-3.5 -22.5v-309h-171v495h171v-45l2 -1q24 29 53 42t51 13q37 0 61.5 -14t35.5 -36q31 34 60 42
t44 8z" />
    <glyph glyph-name="n" unicode="n" horiz-adv-x="461" 
d="M208 456q24 29 54.5 38.5t52.5 9.5q35 0 56.5 -10t33.5 -27.5t16.5 -41t4.5 -50.5v-375h-172v312q0 17 -5 26t-19 9q-15 0 -19.5 -11.5t-4.5 -22.5v-313h-171v495h171v-38z" />
    <glyph glyph-name="o" unicode="o" horiz-adv-x="450" 
d="M227 506q42 0 72 -8t51 -21.5t34 -30.5t20 -36q5 -13 8 -32t5 -40.5t2.5 -44.5t0.5 -44q0 -38 -1.5 -63.5t-4.5 -50.5q-5 -44 -24.5 -71.5t-47.5 -43t-60 -21.5t-63 -6q-40 0 -70.5 10t-52.5 26t-35 36.5t-19 40.5q-3 12 -5.5 29t-4 36t-2 38.5t-0.5 36.5q0 45 5 90
t14 71q8 19 22.5 37t36 32t51 22t68.5 8zM226 366q-9 0 -13.5 -4.5t-6.5 -12.5q-3 -10 -3.5 -32.5t-1.5 -69.5q0 -38 0.5 -60.5t3.5 -34.5q5 -17 22 -17q8 0 13 5t7 12q2 6 3 33t1 61q0 31 -0.5 59t-2.5 42q-3 19 -22 19z" />
    <glyph glyph-name="p" unicode="p" horiz-adv-x="458" 
d="M230 134q8 0 13.5 5.5t7.5 13.5q3 14 3.5 41.5t0.5 57.5q0 35 -0.5 57.5t-2.5 28.5q0 7 -6.5 12.5t-14.5 5.5q-19 0 -22 -18q-2 -8 -2.5 -27.5t-0.5 -45.5v-50q0 -23 0.5 -41t2.5 -23q7 -17 21 -17zM207 20v-211h-172v686h169v-38h3q8 12 20.5 20t25.5 13.5t25 8t20 2.5
q114 0 125 -123q1 -9 1.5 -23.5t1.5 -32.5t1.5 -37.5t0.5 -38.5q0 -21 -0.5 -45t-2 -46.5t-3 -41.5t-4.5 -31q-4 -18 -12 -34.5t-21.5 -29.5t-34 -21t-49.5 -8q-25 0 -48 7t-43 24h-3z" />
    <glyph glyph-name="q" unicode="q" horiz-adv-x="458" 
d="M227 135q14 0 21 17q3 7 3.5 24t0.5 40v49q0 26 -0.5 45.5t-2.5 27.5q-3 18 -22 18q-8 0 -14 -5.5t-6 -12.5q-2 -6 -3 -28.5t-1 -57.5q0 -30 0.5 -57t3.5 -41q2 -8 7 -13.5t13 -5.5zM248 28q-20 -21 -44 -30t-49 -9q-31 0 -51.5 7.5t-33.5 20t-20 28.5t-11 34
q-3 12 -4.5 31.5t-2.5 42.5t-1.5 47.5t-0.5 45.5q0 38 1.5 69.5t3.5 48.5q8 75 44 106t90 31q16 0 40.5 -6.5t41.5 -29.5h3v30h169v-686h-172v219h-3z" />
    <glyph glyph-name="r" unicode="r" horiz-adv-x="351" 
d="M45 495h171v-54h2q19 38 50.5 50.5t57.5 12.5h15v-170q-13 2 -20 2h-14q-43 0 -67 -20.5t-24 -72.5v-243h-171v495z" />
    <glyph glyph-name="s" unicode="s" horiz-adv-x="427" 
d="M182 168q0 -42 29 -42q11 0 16 8.5t5 18.5q0 11 -5.5 18.5t-14 13t-19 9t-20.5 7.5q-27 10 -53 21t-45.5 27.5t-31.5 41t-12 62.5q0 32 12.5 60t36 48.5t58 32.5t78.5 12q52 0 86.5 -12t56 -33.5t30.5 -50.5t10 -62l-149 -11q1 20 -4.5 32.5t-22.5 12.5q-11 0 -17 -8.5
t-6 -15.5q0 -19 15 -27.5t34 -15.5q33 -11 61.5 -24t50 -31.5t34 -44.5t12.5 -63q0 -31 -10.5 -60t-34 -51t-61.5 -35t-93 -13q-82 0 -131 39t-52 117z" />
    <glyph glyph-name="t" unicode="t" horiz-adv-x="328" 
d="M15 495h48v142h169v-142h63v-132h-63v-156q0 -24 8.5 -37.5t34.5 -13.5h23v-156h-57q-91 0 -135 39.5t-44 126.5v197h-47v132z" />
    <glyph glyph-name="u" unicode="u" horiz-adv-x="461" 
d="M253 39q-24 -29 -53 -38.5t-51 -9.5q-35 0 -57 10t-35 27.5t-17.5 41t-4.5 50.5v375h172v-309q0 -17 5 -26t19 -9q15 0 19.5 11.5t4.5 22.5v310h171v-495h-171v38z" />
    <glyph glyph-name="v" unicode="v" horiz-adv-x="469" 
d="M241 194l12 111l25 189h181l-123 -494h-203l-123 494h184l25 -183l15 -117h7z" />
    <glyph glyph-name="w" unicode="w" horiz-adv-x="695" 
d="M345 222l-28 -124l-22 -98h-178l-107 494h177l16 -139l14 -133h5l21 133l23 139h166l24 -139l21 -133h5l15 135l15 137h173l-106 -494h-178l-23 99l-28 123h-5z" />
    <glyph glyph-name="x" unicode="x" horiz-adv-x="466" 
d="M230 140l-40 -140h-180l118 253l-112 245h183l36 -120h4l35 120h176l-114 -245l120 -253h-179l-43 140h-4z" />
    <glyph glyph-name="y" unicode="y" horiz-adv-x="459" 
d="M231 191l16 140q5 35 9.5 82t9.5 82h183l-121 -529q-11 -47 -29.5 -77.5t-42.5 -48.5t-53 -25t-60 -7h-88v151h26q20 0 30.5 4.5t15.5 20.5l5 15l-127 496h185l20 -166l18 -139z" />
    <glyph glyph-name="z" unicode="z" horiz-adv-x="388" 
d="M25 0v130l145 234h-134v131h327v-121l-153 -238h153v-136h-338z" />
    <glyph glyph-name="braceleft" unicode="{" horiz-adv-x="357" 
d="M200 298q27 -11 43.5 -41.5t16.5 -75.5v-128q0 -15 4 -23t9 -11.5t11 -4.5t10 -1h23v-116h-109q-46 0 -77.5 32.5t-31.5 89.5v144q0 46 -16.5 66.5t-42.5 22.5v101q27 2 43 21.5t16 64.5v135q0 57 31.5 89.5t77.5 32.5h109v-116h-24q-8 0 -20.5 -8t-12.5 -36v-115
q0 -41 -16 -71.5t-45 -44.5z" />
    <glyph glyph-name="bar" unicode="|" horiz-adv-x="287" 
d="M70 -162v892h147v-892h-147z" />
    <glyph glyph-name="braceright" unicode="}" horiz-adv-x="357" 
d="M159 305q-29 14 -45 44.5t-16 71.5v115q0 28 -12.5 36t-20.5 8h-24v116h109q46 0 77.5 -32.5t31.5 -89.5v-135q0 -45 16 -64.5t43 -21.5v-101q-26 -2 -42.5 -22.5t-16.5 -66.5v-144q0 -57 -31.5 -89.5t-77.5 -32.5h-109v116h23q4 0 10 1t11 4.5t9 11.5t4 23v128
q0 45 16.5 75.5t43.5 41.5z" />
    <glyph glyph-name="asciitilde" unicode="~" horiz-adv-x="480" 
d="M165 403q22 0 42 -8t38 -17.5t33.5 -17.5t29.5 -8q19 0 37.5 11.5t38.5 40.5l80 -46q-58 -124 -135 -124q-22 0 -42 7.5t-38.5 17t-35 17t-31.5 7.5q-19 0 -40.5 -9.5t-44.5 -42.5l-79 50q29 58 62.5 90t84.5 32z" />
    <glyph glyph-name="exclamdown" unicode="&#xa1;" horiz-adv-x="314" 
d="M244 -201h-173l10 493h153zM242 495v-139h-168v139h168z" />
    <glyph glyph-name="cent" unicode="&#xa2;" horiz-adv-x="480" 
d="M72 407q14 34 45.5 61t91.5 35v95h70v-94q76 -8 114.5 -53.5t36.5 -123.5l-156 -11q0 50 -26 50q-16 0 -21 -17q-3 -11 -4 -37.5t-1 -66.5q0 -37 1 -58.5t3 -33.5q2 -8 6 -13t13 -5q27 0 27 47l160 -9q-2 -82 -42 -126t-111 -52v-106h-70v106q-33 3 -58 14t-42.5 26.5
t-28 34t-15.5 36.5q-3 12 -5.5 29t-4 36t-2 38.5t-0.5 36.5q0 45 5 90t14 71z" />
    <glyph glyph-name="sterling" unicode="&#xa3;" horiz-adv-x="480" 
d="M253 703q91 0 140 -49t49 -129v-8l-143 -32q-1 31 -10.5 49t-26.5 18q-11 0 -19 -8.5t-8 -22.5q0 -29 11.5 -61.5t20.5 -78.5h94v-119h-91q-6 -72 -26 -121h181v-141h-371v122q21 31 34 63.5t17 76.5h-52v119h44q-8 35 -18.5 67.5t-10.5 78.5q0 40 15 72.5t40.5 55.5
t59 35.5t70.5 12.5z" />
    <glyph glyph-name="currency" unicode="&#xa4;" horiz-adv-x="480" 
d="M8 437l86 87l57 -58q20 8 43 13t46 5q21 0 44.5 -5t43.5 -16q14 14 28.5 30.5t28.5 30.5l86 -87l-57 -58q8 -20 13 -42.5t5 -43.5q0 -23 -5.5 -46t-13.5 -43l58 -56l-86 -87l-58 57q-41 -18 -87 -18q-49 0 -89 18l-57 -57l-86 87l57 57q-18 42 -18 88q0 43 19 86z
M169 293q0 -30 20.5 -50.5t50.5 -20.5q28 0 49 20t21 51q0 27 -20.5 48.5t-49.5 21.5q-30 0 -50.5 -21t-20.5 -49z" />
    <glyph glyph-name="yen" unicode="&#xa5;" horiz-adv-x="480" 
d="M67 236h88v22l-6 17h-80v80h55l-109 342h178l47 -239h3l44 239h177l-108 -342h64v-80h-90l-5 -17v-22h96v-75h-96v-161h-170v161h-88v75z" />
    <glyph glyph-name="brokenbar" unicode="&#xa6;" horiz-adv-x="297" 
d="M75 326v396h147v-396h-147zM222 232v-402h-147v402h147z" />
    <glyph glyph-name="section" unicode="&#xa7;" horiz-adv-x="472" 
d="M432 298q0 -34 -14 -56t-41 -41q20 -26 27 -54t7 -54q0 -34 -13 -64t-37.5 -52t-58.5 -35t-76 -13q-54 0 -102.5 19t-83.5 61l78 91q34 -31 58.5 -43.5t41.5 -12.5q28 0 39.5 11t11.5 29q0 20 -19 43.5t-72 52.5q-32 18 -56.5 34.5t-42 35.5t-26.5 42t-9 54
q0 32 15.5 58.5t42.5 42.5q-21 23 -29.5 47.5t-8.5 50.5q0 34 14 63t38.5 50t57 33t69.5 12q41 0 83 -13.5t84 -53.5l-69 -91q-34 27 -57 34.5t-41 7.5q-19 0 -30 -10.5t-11 -25.5q0 -19 23.5 -36t53.5 -35q29 -17 56.5 -35.5t49 -40t34.5 -47.5t13 -59zM297 296
q0 20 -24 39.5t-77 45.5q-8 -5 -15.5 -14t-7.5 -18q0 -12 10 -23.5t25.5 -23t34 -21.5t35.5 -19q8 5 13.5 15t5.5 19z" />
    <glyph glyph-name="dieresis" unicode="&#xa8;" horiz-adv-x="392" 
d="M223 547v130h139v-130h-139zM29 547v130h138v-130h-138z" />
    <glyph glyph-name="copyright" unicode="&#xa9;" horiz-adv-x="743" 
d="M372 -26q-80 0 -140 28t-100.5 77t-61 116t-20.5 145q0 80 20.5 147.5t61 117t101 77t139.5 27.5q77 0 136.5 -27.5t100.5 -77t62.5 -117t21.5 -147.5q0 -78 -21.5 -145t-62.5 -116t-100.5 -77t-136.5 -28zM372 611q-55 0 -95.5 -21.5t-67.5 -58t-40 -86t-13 -105.5
q0 -55 14 -103.5t41.5 -85t67.5 -57.5t93 -21q54 0 94.5 21t67.5 57.5t40.5 85t13.5 103.5q0 56 -14 105.5t-41.5 86t-68 58t-92.5 21.5zM376 567q33 0 56.5 -9.5t39 -26t22.5 -38t7 -45.5v-7t-1 -7l-106 -12q1 20 -3.5 32.5t-15.5 12.5q-10 0 -13.5 -7.5t-3.5 -17.5v-219
q0 -9 4.5 -15t12.5 -6t14 10.5t5 35.5l110 -8q0 -27 -6.5 -51.5t-21.5 -43.5t-39.5 -30.5t-61.5 -11.5q-61 0 -95.5 30t-34.5 88v226q0 54 34 87t97 33z" />
    <glyph glyph-name="ordfeminine" unicode="&#xaa;" horiz-adv-x="329" 
d="M178 302q-14 -14 -32.5 -20t-32.5 -6q-29 0 -47.5 7.5t-28.5 20t-13.5 30.5t-3.5 39q0 46 31.5 77.5t103.5 31.5h23v19q0 8 -3 12.5t-12 4.5q-6 0 -10.5 -5t-9.5 -19l-111 29q11 48 48 69t91 21q62 0 97.5 -25t35.5 -82v-226h-123v22h-3zM178 415h-7q-26 0 -26 -27
q0 -21 16 -21q17 0 17 23v25z" />
    <glyph glyph-name="guillemotleft" unicode="&#xab;" horiz-adv-x="595" 
d="M164 46l-116 201l116 200h169l-115 -200l115 -201h-169zM381 46l-116 201l116 200h169l-115 -200l115 -201h-169z" />
    <glyph glyph-name="logicalnot" unicode="&#xac;" horiz-adv-x="480" 
d="M448 87h-134v151h-281v136h414z" />
    <glyph glyph-name="sfthyphen" unicode="&#xad;" horiz-adv-x="383" 
d="M45 201v145h301v-145h-301z" />
    <glyph glyph-name="registered" unicode="&#xae;" horiz-adv-x="502" 
d="M252 209q-54 0 -94.5 19t-68 52t-41 78t-13.5 98q0 54 13.5 99.5t41 78.5t68 51.5t94.5 18.5q51 0 91 -18.5t67.5 -51.5t42 -78.5t14.5 -99.5q0 -53 -14.5 -98t-42 -78t-67.5 -52t-91 -19zM252 637q-37 0 -64.5 -14t-45.5 -38.5t-26.5 -57t-8.5 -69.5q0 -78 37 -127.5
t108 -49.5q37 0 63.5 13.5t44 37.5t25.5 56.5t8 69.5t-9 69.5t-26.5 57t-44 38.5t-61.5 14zM242 334h-73v256h87q16 0 31 -4t26.5 -13t18.5 -24t7 -36q0 -23 -7.5 -37.5t-19.5 -24.5l38 -117h-76l-26 101h-6v-101zM242 537v-48h4q6 0 11.5 4.5t5.5 18.5q0 11 -2.5 18
t-13.5 7h-5z" />
    <glyph glyph-name="macron" unicode="&#xaf;" horiz-adv-x="383" 
d="M70 566v120h275v-120h-275z" />
    <glyph glyph-name="degree" unicode="&#xb0;" horiz-adv-x="379" 
d="M244 558q0 23 -14 37.5t-37 14.5t-37 -14.5t-14 -37.5q0 -22 14 -37t37 -15t37 15t14 37zM336 558q0 -30 -11 -56t-30.5 -45.5t-45.5 -30.5t-56 -11t-56 11t-45.5 30.5t-30.5 45.5t-11 56t11 56t30.5 45.5t45.5 31t56 11.5t56 -11.5t45.5 -31t30.5 -45.5t11 -56z" />
    <glyph glyph-name="plusminus" unicode="&#xb1;" horiz-adv-x="480" 
d="M434 125v-125h-389v125h389zM307 269v-121h-134v121h-140v136h140v131h134v-131h140v-136h-140z" />
    <glyph glyph-name="twosuperior" unicode="&#xb2;" horiz-adv-x="350" 
d="M56 365v88l118 201v-1q7 13 9.5 22.5t2.5 23.5q0 7 -2 14t-10 7t-11 -8t-3 -36l-122 10q0 36 11 62.5t30.5 44t45 26.5t54.5 9q64 0 100 -31.5t36 -85.5q0 -29 -7 -53.5t-24 -53.5l-79 -137h104v-102h-253z" />
    <glyph glyph-name="threesuperior" unicode="&#xb3;" horiz-adv-x="350" 
d="M185 828q39 0 64.5 -9.5t40.5 -25t21.5 -35t6.5 -38.5v-27q0 -23 -8 -47t-35 -41q26 -11 35 -31t9 -38v-44q0 -58 -34 -92.5t-101 -34.5q-66 0 -105 32.5t-36 102.5l120 11q-2 -17 -1 -26t3.5 -12.5t5.5 -4t5 -0.5q5 0 9 3.5t4 15.5v44q0 14 -6.5 19.5t-16.5 5.5h-38v88
h41q8 0 14.5 5t6.5 17v34q0 6 -3 12t-8 6q-3 0 -6 -0.5t-5.5 -4.5t-4 -13t-1.5 -26l-115 12q0 33 11.5 59.5t30.5 44.5t44 28t52 10z" />
    <glyph glyph-name="acute" unicode="&#xb4;" horiz-adv-x="385" 
d="M104 577l107 205l122 -71l-138 -182z" />
    <glyph glyph-name="mu" unicode="&#xb5;" horiz-adv-x="461" 
d="M35 495h172l1 -324q0 -20 23 -20q15 0 19.5 11.5t4.5 22.5v310h171v-495h-171v38l-2 1q-20 -24 -45 -35v-195h-173v686z" />
    <glyph glyph-name="mu" unicode="&#x3bc;" horiz-adv-x="461" 
d="M35 495h172l1 -324q0 -20 23 -20q15 0 19.5 11.5t4.5 22.5v310h171v-495h-171v38l-2 1q-20 -24 -45 -35v-195h-173v686z" />
    <glyph glyph-name="paragraph" unicode="&#xb6;" horiz-adv-x="504" 
d="M156 324q-37 7 -62 24t-40.5 42.5t-22.5 57.5t-7 68q0 35 10.5 70t33 62.5t59 45t89.5 17.5h261v-109h-45v-670h-117v670h-39v-670h-120v392z" />
    <glyph glyph-name="periodcentered" unicode="&#xb7;" horiz-adv-x="260" 
d="M47 215v150h165v-150h-165z" />
    <glyph glyph-name="cedilla" unicode="&#xb8;" horiz-adv-x="431" 
d="M253 34l-28 -71q31 -2 51 -11t31.5 -23t15.5 -31.5t3 -35.5q-1 -12 -7.5 -27.5t-21 -29t-37 -23t-55.5 -9.5q-8 0 -37 2t-66 19l20 67q24 -10 39.5 -12t27.5 -2q15 0 25 8.5t10 19.5q0 10 -6 17.5t-26 5.5l-45 33l35 103h71z" />
    <glyph glyph-name="onesuperior" unicode="&#xb9;" horiz-adv-x="350" 
d="M131 369v318l-61 -45v129l73 53h121v-455h-133z" />
    <glyph glyph-name="ordmasculine" unicode="&#xba;" horiz-adv-x="322" 
d="M162 613q59 0 88 -19.5t41 -46.5q6 -17 8.5 -47t2.5 -59q0 -25 -1.5 -42t-3.5 -32q-5 -29 -19 -47.5t-34 -29.5t-43 -15.5t-44 -4.5q-29 0 -51 7t-38 18t-25.5 25.5t-13.5 28.5q-5 15 -7 41t-2 49q0 30 3.5 60t10.5 46q11 28 42 48t86 20zM164 374q9 0 11 9q2 4 2 20.5
v36.5v37t-2 28q-1 4 -4.5 5.5t-6.5 1.5q-8 0 -11 -8q-2 -4 -2.5 -17.5t-0.5 -30.5v-15q0 -23 0.5 -37.5t2.5 -22.5q2 -7 11 -7z" />
    <glyph glyph-name="guillemotright" unicode="&#xbb;" horiz-adv-x="595" 
d="M265 46l115 201l-115 200h169l116 -200l-116 -201h-169zM48 46l115 201l-115 200h169l116 -200l-116 -201h-169z" />
    <glyph glyph-name="onequarter" unicode="&#xbc;" horiz-adv-x="820" 
d="M121 279v318l-61 -45v129l73 53h121v-455h-133zM287 -17h-124l314 731h124zM720 62v-62h-116v62h-166v81l109 312h118l-101 -296h40v69h116v-69h26v-97h-26z" />
    <glyph glyph-name="onehalf" unicode="&#xbd;" horiz-adv-x="820" 
d="M135 279v318l-61 -45v129l73 53h121v-455h-133zM289 -17h-124l314 731h124zM505 0v88l118 201v-1q7 13 9.5 22.5t2.5 23.5q0 7 -2 14t-10 7t-11 -8t-3 -36l-122 10q0 36 11 62t30.5 43t45 25t54.5 8q64 0 100 -31.5t36 -85.5q0 -29 -7 -51.5t-24 -51.5l-79 -137h104v-102
h-253z" />
    <glyph glyph-name="threequarters" unicode="&#xbe;" horiz-adv-x="820" 
d="M189 738q39 0 64.5 -9.5t40.5 -25t21.5 -35t6.5 -38.5v-27q0 -23 -8 -47t-35 -41q26 -11 35 -31t9 -38v-44q0 -58 -34 -92.5t-101 -34.5q-66 0 -105 32.5t-36 102.5l120 11q-2 -17 -1 -26t3.5 -12.5t5.5 -4t5 -0.5q5 0 9 3.5t4 15.5v44q0 14 -6.5 19.5t-16.5 5.5h-38v88
h41q8 0 14.5 5t6.5 17v34q0 6 -3 12t-8 6q-3 0 -6 -0.5t-5.5 -4.5t-4 -13t-1.5 -26l-115 12q0 33 11.5 59.5t30.5 44.5t44 28t52 10zM319 -17h-124l314 731h124zM748 62v-62h-116v62h-166v81l109 312h118l-101 -296h40v69h116v-69h26v-97h-26z" />
    <glyph glyph-name="questiondown" unicode="&#xbf;" horiz-adv-x="466" 
d="M51 -21q0 26 4 45.5t10.5 35t14.5 28t15 25.5q23 40 35 66.5t17.5 44.5t6.5 30t1 23v27h158v-69q0 -23 -4.5 -43t-21.5 -49q-22 -36 -34.5 -59.5t-18.5 -39t-7.5 -27.5t-1.5 -26q0 -18 5 -32t22 -14q16 0 24 15t8 52l160 -15q-4 -94 -52 -149t-147 -55q-93 0 -143.5 48
t-50.5 138zM315 495v-139h-164v139h164z" />
    <glyph glyph-name="Agrave" unicode="&#xc0;" horiz-adv-x="511" 
d="M309 126h-109l-17 -126h-177l140 696h216l141 -696h-176zM221 269h68l-12 87l-19 136h-6l-19 -137zM268 714l-207 98l76 120l187 -131z" />
    <glyph glyph-name="Aacute" unicode="&#xc1;" horiz-adv-x="511" 
d="M309 126h-109l-17 -126h-177l140 696h216l141 -696h-176zM221 269h68l-12 87l-19 136h-6l-19 -137zM157 801l187 131l76 -120l-207 -98z" />
    <glyph glyph-name="Acircumflex" unicode="&#xc2;" horiz-adv-x="511" 
d="M309 126h-109l-17 -126h-177l140 696h216l141 -696h-176zM221 269h68l-12 87l-19 136h-6l-19 -137zM254 806l-126 -87l-59 62l128 142h119l125 -142l-66 -63z" />
    <glyph glyph-name="Atilde" unicode="&#xc3;" horiz-adv-x="511" 
d="M309 126h-109l-17 -126h-177l140 696h216l141 -696h-176zM221 269h68l-12 87l-19 136h-6l-19 -137zM198 894q17 -1 32 -7t28.5 -12.5t25.5 -12t23 -5.5q14 0 29 9t31 32l76 -45q-22 -57 -54 -84.5t-63 -27.5q-17 0 -31.5 5.5t-27.5 12t-25.5 12t-24.5 5.5q-14 0 -31 -6.5
t-35 -32.5l-80 46q22 53 54 82t73 29z" />
    <glyph glyph-name="Adieresis" unicode="&#xc4;" horiz-adv-x="511" 
d="M309 126h-109l-17 -126h-177l140 696h216l141 -696h-176zM221 269h68l-12 87l-19 136h-6l-19 -137zM284 728v130h139v-130h-139zM90 728v130h138v-130h-138z" />
    <glyph glyph-name="Aring" unicode="&#xc5;" horiz-adv-x="511" 
d="M134 797q0 24 9.5 45t26.5 36t39 24t48 9q25 0 47 -9t38.5 -24t26 -36t9.5 -45q0 -34 -18 -60.5t-47 -40.5h49l141 -696h-176l-18 126h-109l-17 -126h-177l140 696h53q-29 14 -47 40.5t-18 60.5zM221 269h68l-12 87l-19 136h-6l-19 -137zM294 797q0 14 -10.5 24.5
t-26.5 10.5q-17 0 -27.5 -10.5t-10.5 -24.5t10.5 -25.5t27.5 -11.5q16 0 26.5 11.5t10.5 25.5z" />
    <glyph glyph-name="AE" unicode="&#xc6;" horiz-adv-x="731" 
d="M357 0v126h-131l-38 -126h-186l240 696h459v-150h-168v-117h145v-151h-145v-127h168v-151h-344zM351 534l-81 -265h87v265h-6z" />
    <glyph glyph-name="Ccedilla" unicode="&#xc7;" horiz-adv-x="460" 
d="M240 702q50 0 86 -15t59 -40t34 -57.5t11 -67.5v-11.5t-1 -11.5l-162 -19q2 32 -5 51t-24 19q-15 0 -20.5 -11.5t-5.5 -26.5v-333q0 -14 6.5 -23.5t20.5 -9.5q12 0 21 16t8 54l167 -12q0 -41 -9.5 -78t-31 -65.5t-57.5 -46.5t-89 -20l-12 -31q31 -2 51 -11t31.5 -23
t15.5 -31.5t3 -35.5q-1 -12 -7.5 -27.5t-21 -29t-37 -23t-55.5 -9.5q-8 0 -37 2t-66 19l20 67q24 -10 39.5 -12t27.5 -2q15 0 25 8.5t10 19.5q0 10 -6 17.5t-26 5.5l-45 33l23 69q-68 13 -104.5 57t-36.5 118v344q0 83 52 133t148 50z" />
    <glyph glyph-name="Egrave" unicode="&#xc8;" horiz-adv-x="429" 
d="M40 0v696h359v-150h-183v-117h160v-151h-160v-127h183v-151h-359zM277 714l-207 98l76 120l187 -131z" />
    <glyph glyph-name="Eacute" unicode="&#xc9;" horiz-adv-x="429" 
d="M40 0v696h359v-150h-183v-117h160v-151h-160v-127h183v-151h-359zM135 801l187 131l76 -120l-207 -98z" />
    <glyph glyph-name="Ecircumflex" unicode="&#xca;" horiz-adv-x="429" 
d="M40 0v696h359v-150h-183v-117h160v-151h-160v-127h183v-151h-359zM216 806l-126 -87l-59 62l128 142h119l125 -142l-66 -63z" />
    <glyph glyph-name="Edieresis" unicode="&#xcb;" horiz-adv-x="429" 
d="M40 0v696h359v-150h-183v-117h160v-151h-160v-127h183v-151h-359zM245 728v130h139v-130h-139zM51 728v130h138v-130h-138z" />
    <glyph glyph-name="Igrave" unicode="&#xcc;" horiz-adv-x="276" 
d="M50 0v696h176v-696h-176zM146 714l-207 98l76 120l187 -131z" />
    <glyph glyph-name="Iacute" unicode="&#xcd;" horiz-adv-x="276" 
d="M50 0v696h176v-696h-176zM65 801l187 131l76 -120l-207 -98z" />
    <glyph glyph-name="Icircumflex" unicode="&#xce;" horiz-adv-x="276" 
d="M50 0v696h176v-696h-176zM139 806l-126 -87l-59 62l128 142h119l125 -142l-66 -63z" />
    <glyph glyph-name="Idieresis" unicode="&#xcf;" horiz-adv-x="276" 
d="M50 0v696h176v-696h-176zM171 728v130h139v-130h-139zM-23 728v130h138v-130h-138z" />
    <glyph glyph-name="Eth" unicode="&#xd0;" horiz-adv-x="478" 
d="M268 696q62 0 104.5 -22.5t56.5 -71.5q9 -32 10.5 -99.5t1.5 -153.5t-1.5 -150t-12.5 -96q-9 -27 -26 -46.5t-40 -32t-49 -18.5t-53 -6h-216v290h-34v123h34v283h225zM266 496q0 29 -8 42t-37 13h-6v-138h29v-123h-29v-144h6q26 0 35.5 14t9.5 44v292z" />
    <glyph glyph-name="Ntilde" unicode="&#xd1;" horiz-adv-x="518" 
d="M309 414v282h169v-696h-152l-56 148l-54 140h-5v-288h-171v696h155l49 -129l60 -153h5zM197 887q17 -1 32 -7t28.5 -12.5t25.5 -12t23 -5.5q14 0 29 9t31 32l76 -45q-22 -57 -54 -84.5t-63 -27.5q-17 0 -31.5 5.5t-27.5 12t-25.5 12t-24.5 5.5q-14 0 -31 -6.5t-35 -32.5
l-80 46q22 53 54 82t73 29z" />
    <glyph glyph-name="Ograve" unicode="&#xd2;" horiz-adv-x="478" 
d="M263 519q0 17 -8 22.5t-16 5.5t-17 -5.5t-9 -22.5v-342q0 -18 9 -23t17 -5t16 5t8 23v342zM438 182q0 -92 -52.5 -140t-146.5 -48q-96 0 -147.5 48t-51.5 140v333q0 46 14.5 81t40.5 58.5t62.5 35.5t81.5 12q199 0 199 -187v-333zM264 714l-207 98l76 120l187 -131z" />
    <glyph glyph-name="Oacute" unicode="&#xd3;" horiz-adv-x="478" 
d="M263 519q0 17 -8 22.5t-16 5.5t-17 -5.5t-9 -22.5v-342q0 -18 9 -23t17 -5t16 5t8 23v342zM438 182q0 -92 -52.5 -140t-146.5 -48q-96 0 -147.5 48t-51.5 140v333q0 46 14.5 81t40.5 58.5t62.5 35.5t81.5 12q199 0 199 -187v-333zM148 801l187 131l76 -120l-207 -98z" />
    <glyph glyph-name="Ocircumflex" unicode="&#xd4;" horiz-adv-x="478" 
d="M263 519q0 17 -8 22.5t-16 5.5t-17 -5.5t-9 -22.5v-342q0 -18 9 -23t17 -5t16 5t8 23v342zM438 182q0 -92 -52.5 -140t-146.5 -48q-96 0 -147.5 48t-51.5 140v333q0 46 14.5 81t40.5 58.5t62.5 35.5t81.5 12q199 0 199 -187v-333zM237 806l-126 -87l-59 62l128 142h119
l125 -142l-66 -63z" />
    <glyph glyph-name="Otilde" unicode="&#xd5;" horiz-adv-x="478" 
d="M263 519q0 17 -8 22.5t-16 5.5t-17 -5.5t-9 -22.5v-342q0 -18 9 -23t17 -5t16 5t8 23v342zM438 182q0 -92 -52.5 -140t-146.5 -48q-96 0 -147.5 48t-51.5 140v333q0 46 14.5 81t40.5 58.5t62.5 35.5t81.5 12q199 0 199 -187v-333zM180 904q17 -1 32 -7t28.5 -12.5
t25.5 -12t23 -5.5q14 0 29 9t31 32l76 -45q-22 -57 -54 -84.5t-63 -27.5q-17 0 -31.5 5.5t-27.5 12t-25.5 12t-24.5 5.5q-14 0 -31 -6.5t-35 -32.5l-80 46q22 53 54 82t73 29z" />
    <glyph glyph-name="Odieresis" unicode="&#xd6;" horiz-adv-x="478" 
d="M263 519q0 17 -8 22.5t-16 5.5t-17 -5.5t-9 -22.5v-342q0 -18 9 -23t17 -5t16 5t8 23v342zM438 182q0 -92 -52.5 -140t-146.5 -48q-96 0 -147.5 48t-51.5 140v333q0 46 14.5 81t40.5 58.5t62.5 35.5t81.5 12q199 0 199 -187v-333zM267 728v130h139v-130h-139zM73 728v130
h138v-130h-138z" />
    <glyph glyph-name="multiply" unicode="&#xd7;" horiz-adv-x="480" 
d="M239 211l-128 -128l-94 94l128 128l-128 128l96 96l128 -128l128 128l94 -94l-128 -128l128 -128l-96 -96z" />
    <glyph glyph-name="Oslash" unicode="&#xd8;" horiz-adv-x="478" 
d="M48 17l23 49q-31 44 -31 116v333q0 46 14.5 81t40.5 58.5t62.5 35.5t81.5 12q72 0 118 -25l13 28l47 -21l-19 -40q40 -48 40 -129v-333q0 -92 -52.5 -140t-146.5 -48q-82 0 -132 35l-15 -32zM263 358l-50 -106v-75q0 -18 9 -23t17 -5t16 5t8 23v181zM213 369l50 107v43
q0 17 -8 22.5t-16 5.5t-17 -5.5t-9 -22.5v-150z" />
    <glyph glyph-name="Ugrave" unicode="&#xd9;" horiz-adv-x="478" 
d="M438 696v-514q0 -92 -52.5 -140t-146.5 -48q-96 0 -147.5 48t-51.5 140v514h173v-519q0 -18 9 -23t17 -5t16 5t8 23v519h175zM273 714l-207 98l76 120l187 -131z" />
    <glyph glyph-name="Uacute" unicode="&#xda;" horiz-adv-x="478" 
d="M438 696v-514q0 -92 -52.5 -140t-146.5 -48q-96 0 -147.5 48t-51.5 140v514h173v-519q0 -18 9 -23t17 -5t16 5t8 23v519h175zM140 801l187 131l76 -120l-207 -98z" />
    <glyph glyph-name="Ucircumflex" unicode="&#xdb;" horiz-adv-x="478" 
d="M438 696v-514q0 -92 -52.5 -140t-146.5 -48q-96 0 -147.5 48t-51.5 140v514h173v-519q0 -18 9 -23t17 -5t16 5t8 23v519h175zM236 806l-126 -87l-59 62l128 142h119l125 -142l-66 -63z" />
    <glyph glyph-name="Udieresis" unicode="&#xdc;" horiz-adv-x="478" 
d="M438 696v-514q0 -92 -52.5 -140t-146.5 -48q-96 0 -147.5 48t-51.5 140v514h173v-519q0 -18 9 -23t17 -5t16 5t8 23v519h175zM265 728v130h139v-130h-139zM71 728v130h138v-130h-138z" />
    <glyph glyph-name="Yacute" unicode="&#xdd;" horiz-adv-x="490" 
d="M247 457l46 239h184l-145 -438v-258h-177v258l-146 438h185l50 -239h3zM153 801l187 131l76 -120l-207 -98z" />
    <glyph glyph-name="Thorn" unicode="&#xde;" horiz-adv-x="463" 
d="M39 696h173v-119h37q42 0 77.5 -9.5t61.5 -33.5t40.5 -64.5t14.5 -102.5q0 -107 -48.5 -164t-145.5 -57h-37v-146h-172zM212 432v-141h13q23 0 35.5 18t12.5 59q0 29 -10 46.5t-36 17.5h-15z" />
    <glyph glyph-name="germandbls" unicode="&#xdf;" horiz-adv-x="461" 
d="M373 413q22 -11 37.5 -36.5t19.5 -74.5q1 -15 1 -33.5v-38.5q0 -23 -0.5 -45t-2 -42t-3 -36.5t-4.5 -26.5q-11 -45 -39.5 -69t-81.5 -24q-11 0 -33 2t-42 6v139q8 0 19 5t13 22q3 22 3 70q0 40 -1.5 63t-7.5 34q-8 15 -31 17v122q12 2 20.5 11.5t8.5 34.5v50
q0 10 -6.5 17t-17.5 7t-17 -8.5t-6 -18.5v-560h-167v540q0 37 13 71t37.5 59.5t60 40.5t81.5 15q94 0 143.5 -49.5t49.5 -137.5q0 -41 -10.5 -70.5t-36.5 -52.5v-3z" />
    <glyph glyph-name="agrave" unicode="&#xe0;" horiz-adv-x="450" 
d="M246 33q-19 -20 -44.5 -29.5t-44.5 -9.5q-40 0 -65.5 10.5t-40.5 30t-20.5 47t-5.5 60.5q0 34 10 64.5t32 52.5t56.5 35t82.5 13h41v37q0 11 -6.5 17.5t-18.5 6.5q-8 0 -18 -7.5t-17 -34.5l-150 42q7 37 25 63t43.5 42.5t57.5 24.5t67 8q83 0 134 -39t51 -124v-343h-165
v33h-4zM247 205h-15q-15 0 -27 -8t-12 -33q0 -31 27 -31t27 34v38zM242 529l-138 182l122 72l106 -203z" />
    <glyph glyph-name="aacute" unicode="&#xe1;" horiz-adv-x="450" 
d="M246 33q-19 -20 -44.5 -29.5t-44.5 -9.5q-40 0 -65.5 10.5t-40.5 30t-20.5 47t-5.5 60.5q0 34 10 64.5t32 52.5t56.5 35t82.5 13h41v37q0 11 -6.5 17.5t-18.5 6.5q-8 0 -18 -7.5t-17 -34.5l-150 42q7 37 25 63t43.5 42.5t57.5 24.5t67 8q83 0 134 -39t51 -124v-343h-165
v33h-4zM247 205h-15q-15 0 -27 -8t-12 -33q0 -31 27 -31t27 34v38zM171 577l107 205l122 -71l-138 -182z" />
    <glyph glyph-name="acircumflex" unicode="&#xe2;" horiz-adv-x="450" 
d="M246 33q-19 -20 -44.5 -29.5t-44.5 -9.5q-40 0 -65.5 10.5t-40.5 30t-20.5 47t-5.5 60.5q0 34 10 64.5t32 52.5t56.5 35t82.5 13h41v37q0 11 -6.5 17.5t-18.5 6.5q-8 0 -18 -7.5t-17 -34.5l-150 42q7 37 25 63t43.5 42.5t57.5 24.5t67 8q83 0 134 -39t51 -124v-343h-165
v33h-4zM247 205h-15q-15 0 -27 -8t-12 -33q0 -31 27 -31t27 34v38zM232 627l-126 -107l-65 58l134 166h119l129 -165l-70 -60z" />
    <glyph glyph-name="atilde" unicode="&#xe3;" horiz-adv-x="450" 
d="M246 33q-19 -20 -44.5 -29.5t-44.5 -9.5q-40 0 -65.5 10.5t-40.5 30t-20.5 47t-5.5 60.5q0 34 10 64.5t32 52.5t56.5 35t82.5 13h41v37q0 11 -6.5 17.5t-18.5 6.5q-8 0 -18 -7.5t-17 -34.5l-150 42q7 37 25 63t43.5 42.5t57.5 24.5t67 8q83 0 134 -39t51 -124v-343h-165
v33h-4zM247 205h-15q-15 0 -27 -8t-12 -33q0 -31 27 -31t27 34v38zM169 701q17 -1 32 -7t28.5 -12.5t25.5 -12t23 -5.5q14 0 29 9t31 32l76 -45q-22 -57 -54 -84.5t-63 -27.5q-17 0 -31.5 5.5t-27.5 12t-25.5 12t-24.5 5.5q-14 0 -31 -6.5t-35 -32.5l-80 46q22 53 54 82
t73 29z" />
    <glyph glyph-name="adieresis" unicode="&#xe4;" horiz-adv-x="450" 
d="M246 33q-19 -20 -44.5 -29.5t-44.5 -9.5q-40 0 -65.5 10.5t-40.5 30t-20.5 47t-5.5 60.5q0 34 10 64.5t32 52.5t56.5 35t82.5 13h41v37q0 11 -6.5 17.5t-18.5 6.5q-8 0 -18 -7.5t-17 -34.5l-150 42q7 37 25 63t43.5 42.5t57.5 24.5t67 8q83 0 134 -39t51 -124v-343h-165
v33h-4zM247 205h-15q-15 0 -27 -8t-12 -33q0 -31 27 -31t27 34v38zM265 547v130h139v-130h-139zM71 547v130h138v-130h-138z" />
    <glyph glyph-name="aring" unicode="&#xe5;" horiz-adv-x="450" 
d="M246 33q-19 -20 -44.5 -29.5t-44.5 -9.5q-40 0 -65.5 10.5t-40.5 30t-20.5 47t-5.5 60.5q0 34 10 64.5t32 52.5t56.5 35t82.5 13h41v37q0 11 -6.5 17.5t-18.5 6.5q-8 0 -18 -7.5t-17 -34.5l-150 42q7 37 25 63t43.5 42.5t57.5 24.5t67 8q83 0 134 -39t51 -124v-343h-165
v33h-4zM247 205h-15q-15 0 -27 -8t-12 -33q0 -31 27 -31t27 34v38zM114 643q0 24 9.5 45t26.5 36t39 24t48 9q25 0 47 -9t38.5 -24t26 -36t9.5 -45t-9.5 -45t-26 -36t-39 -24t-47.5 -9t-47.5 9t-39 24t-26 36t-9.5 45zM274 643q0 14 -10.5 24.5t-26.5 10.5
q-17 0 -27.5 -10.5t-10.5 -24.5t10.5 -25.5t27.5 -11.5q16 0 26.5 11.5t10.5 25.5z" />
    <glyph glyph-name="ae" unicode="&#xe6;" horiz-adv-x="656" 
d="M440 -7q-89 0 -130 50q-36 -32 -68.5 -40.5t-64.5 -8.5q-82 0 -117 41t-35 107q0 34 10 64t32 52.5t56.5 35t82.5 12.5h41v38q0 11 -6.5 17.5t-18.5 6.5q-8 0 -18 -7.5t-17 -34.5l-150 42q7 37 25 63t43.5 42.5t57.5 24.5t67 8q66 0 110 -34q18 12 47 23t65 11
q38 0 70.5 -10.5t56.5 -31t37.5 -51t13.5 -69.5v-137h-208v-23v-18t2 -15q3 -18 22 -18q14 0 19 7.5t7 30.5l159 -18q-8 -77 -54.5 -118.5t-136.5 -41.5zM247 206h-15q-15 0 -27 -8.5t-12 -33.5q0 -31 27 -31t27 34v39zM446 371q-11 0 -17 -11q-4 -7 -5 -21.5t-1 -31.5h47
q0 20 -1 35t-6 21q-4 5 -7 6.5t-10 1.5z" />
    <glyph glyph-name="ccedilla" unicode="&#xe7;" horiz-adv-x="434" 
d="M226 506q91 0 137 -46.5t44 -132.5l-156 -11q0 50 -26 50q-16 0 -21 -17q-3 -11 -4 -37.5t-1 -66.5q0 -37 1 -58.5t3 -33.5q2 -8 6 -13t13 -5q27 0 27 47l160 -9q-2 -85 -44.5 -128.5t-117.5 -50.5l-12 -31q31 -2 51 -11t31.5 -23t15.5 -31.5t3 -35.5q-1 -12 -7.5 -27.5
t-21 -29t-37 -23t-55.5 -9.5q-8 0 -37 2t-66 19l20 67q24 -10 39.5 -12t27.5 -2q15 0 25 8.5t10 19.5q0 10 -6 17.5t-26 5.5l-45 33l22 65q-32 4 -55.5 15t-40 26t-26.5 33t-15 36q-3 12 -5.5 29t-4 36t-2 38.5t-0.5 36.5q0 45 5 90t14 71q8 19 21.5 37t34.5 32t50.5 22
t70.5 8z" />
    <glyph glyph-name="egrave" unicode="&#xe8;" horiz-adv-x="434" 
d="M218 -7q-42 0 -73 10t-52 26t-33 36.5t-18 40.5q-8 30 -10 67.5t-2 72.5q0 45 5 86.5t17 73.5q7 20 20 38t34 32t51 22t71 8q38 0 71 -10.5t57 -31t38 -51t14 -69.5v-127h-208v-44q0 -15 3.5 -27.5t20.5 -12.5q9 0 16.5 7.5t9.5 30.5l159 -18q-8 -77 -54.5 -118.5
t-136.5 -41.5zM224 371q-11 0 -17 -11q-4 -7 -5 -20.5t-1 -30.5h47q0 20 -1 34t-6 20q-4 5 -7 6.5t-10 1.5zM219 529l-138 182l122 72l106 -203z" />
    <glyph glyph-name="eacute" unicode="&#xe9;" horiz-adv-x="434" 
d="M218 -7q-42 0 -73 10t-52 26t-33 36.5t-18 40.5q-8 30 -10 67.5t-2 72.5q0 45 5 86.5t17 73.5q7 20 20 38t34 32t51 22t71 8q38 0 71 -10.5t57 -31t38 -51t14 -69.5v-127h-208v-44q0 -15 3.5 -27.5t20.5 -12.5q9 0 16.5 7.5t9.5 30.5l159 -18q-8 -77 -54.5 -118.5
t-136.5 -41.5zM224 371q-11 0 -17 -11q-4 -7 -5 -20.5t-1 -30.5h47q0 20 -1 34t-6 20q-4 5 -7 6.5t-10 1.5zM143 577l107 205l122 -71l-138 -182z" />
    <glyph glyph-name="ecircumflex" unicode="&#xea;" horiz-adv-x="434" 
d="M218 -7q-42 0 -73 10t-52 26t-33 36.5t-18 40.5q-8 30 -10 67.5t-2 72.5q0 45 5 86.5t17 73.5q7 20 20 38t34 32t51 22t71 8q38 0 71 -10.5t57 -31t38 -51t14 -69.5v-127h-208v-44q0 -15 3.5 -27.5t20.5 -12.5q9 0 16.5 7.5t9.5 30.5l159 -18q-8 -77 -54.5 -118.5
t-136.5 -41.5zM224 371q-11 0 -17 -11q-4 -7 -5 -20.5t-1 -30.5h47q0 20 -1 34t-6 20q-4 5 -7 6.5t-10 1.5zM225 627l-126 -107l-65 58l134 166h119l129 -165l-70 -60z" />
    <glyph glyph-name="edieresis" unicode="&#xeb;" horiz-adv-x="434" 
d="M218 -7q-42 0 -73 10t-52 26t-33 36.5t-18 40.5q-8 30 -10 67.5t-2 72.5q0 45 5 86.5t17 73.5q7 20 20 38t34 32t51 22t71 8q38 0 71 -10.5t57 -31t38 -51t14 -69.5v-127h-208v-44q0 -15 3.5 -27.5t20.5 -12.5q9 0 16.5 7.5t9.5 30.5l159 -18q-8 -77 -54.5 -118.5
t-136.5 -41.5zM224 371q-11 0 -17 -11q-4 -7 -5 -20.5t-1 -30.5h47q0 20 -1 34t-6 20q-4 5 -7 6.5t-10 1.5zM254 547v130h139v-130h-139zM60 547v130h138v-130h-138z" />
    <glyph glyph-name="igrave" unicode="&#xec;" horiz-adv-x="302" 
d="M87 0v495h170v-495h-170zM140 529l-138 182l122 72l106 -203z" />
    <glyph glyph-name="iacute" unicode="&#xed;" horiz-adv-x="276" 
d="M45 0v495h170v-495h-170zM59 577l107 205l122 -71l-138 -182z" />
    <glyph glyph-name="icircumflex" unicode="&#xee;" horiz-adv-x="342" 
d="M86 0v495h170v-495h-170zM171 627l-126 -107l-65 58l134 166h119l129 -165l-70 -60z" />
    <glyph glyph-name="idieresis" unicode="&#xef;" horiz-adv-x="313" 
d="M72 0v495h170v-495h-170zM184 547v130h139v-130h-139zM-10 547v130h138v-130h-138z" />
    <glyph glyph-name="eth" unicode="&#xf0;" horiz-adv-x="450" 
d="M363 639q33 -48 45 -115t12 -154v-107v-28.5t-1 -33.5l-2 -34t-2 -30q-6 -43 -25 -71t-46 -44t-60 -22.5t-66 -6.5q-75 0 -119.5 33.5t-56.5 79.5q-5 21 -8.5 57.5t-3.5 71.5q0 47 6 81t16 60q14 41 52.5 66t98.5 25q9 0 26 -1t34 -8q2 42 -10 71l-45 -45l-59 56l44 46
q-33 15 -89 21l19 132q58 -2 101.5 -13t75.5 -30l53 54l62 -59zM226 346q-9 0 -13.5 -4.5t-6.5 -12.5q-2 -5 -2.5 -11t-1 -16.5t-1 -26t-0.5 -38.5q0 -38 0.5 -55.5t3.5 -29.5q5 -17 22 -17q8 0 13 5t7 12q2 6 3 28t1 56q0 31 -0.5 54t-2.5 37q-3 19 -22 19z" />
    <glyph glyph-name="ntilde" unicode="&#xf1;" horiz-adv-x="461" 
d="M208 456q24 29 54.5 38.5t52.5 9.5q35 0 56.5 -10t33.5 -27.5t16.5 -41t4.5 -50.5v-375h-172v312q0 17 -5 26t-19 9q-15 0 -19.5 -11.5t-4.5 -22.5v-313h-171v495h171v-38zM161 714q17 -1 32 -7t28.5 -12.5t25.5 -12t23 -5.5q14 0 29 9t31 32l76 -45q-22 -57 -54 -84.5
t-63 -27.5q-17 0 -31.5 5.5t-27.5 12t-25.5 12t-24.5 5.5q-14 0 -31 -6.5t-35 -32.5l-80 46q22 53 54 82t73 29z" />
    <glyph glyph-name="ograve" unicode="&#xf2;" horiz-adv-x="450" 
d="M227 506q42 0 72 -8t51 -21.5t34 -30.5t20 -36q5 -13 8 -32t5 -40.5t2.5 -44.5t0.5 -44q0 -38 -1.5 -63.5t-4.5 -50.5q-5 -44 -24.5 -71.5t-47.5 -43t-60 -21.5t-63 -6q-40 0 -70.5 10t-52.5 26t-35 36.5t-19 40.5q-3 12 -5.5 29t-4 36t-2 38.5t-0.5 36.5q0 45 5 90
t14 71q8 19 22.5 37t36 32t51 22t68.5 8zM226 366q-9 0 -13.5 -4.5t-6.5 -12.5q-3 -10 -3.5 -32.5t-1.5 -69.5q0 -38 0.5 -60.5t3.5 -34.5q5 -17 22 -17q8 0 13 5t7 12q2 6 3 33t1 61q0 31 -0.5 59t-2.5 42q-3 19 -22 19zM219 529l-138 182l122 72l106 -203z" />
    <glyph glyph-name="oacute" unicode="&#xf3;" horiz-adv-x="450" 
d="M227 506q42 0 72 -8t51 -21.5t34 -30.5t20 -36q5 -13 8 -32t5 -40.5t2.5 -44.5t0.5 -44q0 -38 -1.5 -63.5t-4.5 -50.5q-5 -44 -24.5 -71.5t-47.5 -43t-60 -21.5t-63 -6q-40 0 -70.5 10t-52.5 26t-35 36.5t-19 40.5q-3 12 -5.5 29t-4 36t-2 38.5t-0.5 36.5q0 45 5 90
t14 71q8 19 22.5 37t36 32t51 22t68.5 8zM226 366q-9 0 -13.5 -4.5t-6.5 -12.5q-3 -10 -3.5 -32.5t-1.5 -69.5q0 -38 0.5 -60.5t3.5 -34.5q5 -17 22 -17q8 0 13 5t7 12q2 6 3 33t1 61q0 31 -0.5 59t-2.5 42q-3 19 -22 19zM153 577l107 205l122 -71l-138 -182z" />
    <glyph glyph-name="ocircumflex" unicode="&#xf4;" horiz-adv-x="450" 
d="M227 506q42 0 72 -8t51 -21.5t34 -30.5t20 -36q5 -13 8 -32t5 -40.5t2.5 -44.5t0.5 -44q0 -38 -1.5 -63.5t-4.5 -50.5q-5 -44 -24.5 -71.5t-47.5 -43t-60 -21.5t-63 -6q-40 0 -70.5 10t-52.5 26t-35 36.5t-19 40.5q-3 12 -5.5 29t-4 36t-2 38.5t-0.5 36.5q0 45 5 90
t14 71q8 19 22.5 37t36 32t51 22t68.5 8zM226 366q-9 0 -13.5 -4.5t-6.5 -12.5q-3 -10 -3.5 -32.5t-1.5 -69.5q0 -38 0.5 -60.5t3.5 -34.5q5 -17 22 -17q8 0 13 5t7 12q2 6 3 33t1 61q0 31 -0.5 59t-2.5 42q-3 19 -22 19zM229 627l-126 -107l-65 58l134 166h119l129 -165
l-70 -60z" />
    <glyph glyph-name="otilde" unicode="&#xf5;" horiz-adv-x="450" 
d="M227 506q42 0 72 -8t51 -21.5t34 -30.5t20 -36q5 -13 8 -32t5 -40.5t2.5 -44.5t0.5 -44q0 -38 -1.5 -63.5t-4.5 -50.5q-5 -44 -24.5 -71.5t-47.5 -43t-60 -21.5t-63 -6q-40 0 -70.5 10t-52.5 26t-35 36.5t-19 40.5q-3 12 -5.5 29t-4 36t-2 38.5t-0.5 36.5q0 45 5 90
t14 71q8 19 22.5 37t36 32t51 22t68.5 8zM226 366q-9 0 -13.5 -4.5t-6.5 -12.5q-3 -10 -3.5 -32.5t-1.5 -69.5q0 -38 0.5 -60.5t3.5 -34.5q5 -17 22 -17q8 0 13 5t7 12q2 6 3 33t1 61q0 31 -0.5 59t-2.5 42q-3 19 -22 19zM169 714q17 -1 32 -7t28.5 -12.5t25.5 -12t23 -5.5
q14 0 29 9t31 32l76 -45q-22 -57 -54 -84.5t-63 -27.5q-17 0 -31.5 5.5t-27.5 12t-25.5 12t-24.5 5.5q-14 0 -31 -6.5t-35 -32.5l-80 46q22 53 54 82t73 29z" />
    <glyph glyph-name="odieresis" unicode="&#xf6;" horiz-adv-x="450" 
d="M227 506q42 0 72 -8t51 -21.5t34 -30.5t20 -36q5 -13 8 -32t5 -40.5t2.5 -44.5t0.5 -44q0 -38 -1.5 -63.5t-4.5 -50.5q-5 -44 -24.5 -71.5t-47.5 -43t-60 -21.5t-63 -6q-40 0 -70.5 10t-52.5 26t-35 36.5t-19 40.5q-3 12 -5.5 29t-4 36t-2 38.5t-0.5 36.5q0 45 5 90
t14 71q8 19 22.5 37t36 32t51 22t68.5 8zM226 366q-9 0 -13.5 -4.5t-6.5 -12.5q-3 -10 -3.5 -32.5t-1.5 -69.5q0 -38 0.5 -60.5t3.5 -34.5q5 -17 22 -17q8 0 13 5t7 12q2 6 3 33t1 61q0 31 -0.5 59t-2.5 42q-3 19 -22 19zM255 547v130h139v-130h-139zM61 547v130h138v-130
h-138z" />
    <glyph glyph-name="divide" unicode="&#xf7;" horiz-adv-x="480" 
d="M327 467q0 -17 -6.5 -32.5t-18 -27.5t-27 -19t-33.5 -7t-33.5 7t-27 19t-18 27.5t-6.5 32.5q0 18 6.5 34t18 28t27 19t33.5 7t33.5 -7t27 -19t18 -28t6.5 -34zM327 112q0 -18 -6.5 -34t-18 -28.5t-27 -19.5t-33.5 -7t-33.5 7t-27 19.5t-18 28.5t-6.5 34q0 17 6.5 32.5
t18 27.5t27 19t33.5 7t33.5 -7t27 -19t18 -27.5t6.5 -32.5zM434 354v-126h-389v126h389z" />
    <glyph glyph-name="oslash" unicode="&#xf8;" horiz-adv-x="450" 
d="M227 506q41 0 70.5 -7.5t50.5 -20.5l24 35l38 -25l-28 -40q14 -16 22 -38q5 -13 8 -32t5 -40.5t2.5 -44.5t0.5 -44q0 -38 -1.5 -63.5t-4.5 -50.5q-5 -44 -24.5 -71.5t-47.5 -43t-60 -21.5t-63 -6q-42 0 -72.5 10t-52.5 27l-25 -37l-35 26l29 42v1q-15 21 -21 44
q-3 12 -5.5 29t-4 36t-2 38.5t-0.5 36.5q0 45 5 90t14 71q8 19 22.5 37t36 32t51 22t68.5 8zM247 152q2 6 3 33t1 61v11l-50 -72q2 -25 4 -33q5 -17 22 -17q8 0 13 5t7 12zM226 366q-9 0 -13.5 -4.5t-6.5 -12.5q-3 -9 -3.5 -28.5t-1.5 -57.5l48 71q0 4 -0.5 7t-0.5 6
q-3 19 -22 19z" />
    <glyph glyph-name="ugrave" unicode="&#xf9;" horiz-adv-x="461" 
d="M253 39q-24 -29 -53 -38.5t-51 -9.5q-35 0 -57 10t-35 27.5t-17.5 41t-4.5 50.5v375h172v-309q0 -17 5 -26t19 -9q15 0 19.5 11.5t4.5 22.5v310h171v-495h-171v38zM206 529l-138 182l122 72l106 -203z" />
    <glyph glyph-name="uacute" unicode="&#xfa;" horiz-adv-x="461" 
d="M253 39q-24 -29 -53 -38.5t-51 -9.5q-35 0 -57 10t-35 27.5t-17.5 41t-4.5 50.5v375h172v-309q0 -17 5 -26t19 -9q15 0 19.5 11.5t4.5 22.5v310h171v-495h-171v38zM141 577l107 205l122 -71l-138 -182z" />
    <glyph glyph-name="ucircumflex" unicode="&#xfb;" horiz-adv-x="461" 
d="M253 39q-24 -29 -53 -38.5t-51 -9.5q-35 0 -57 10t-35 27.5t-17.5 41t-4.5 50.5v375h172v-309q0 -17 5 -26t19 -9q15 0 19.5 11.5t4.5 22.5v310h171v-495h-171v38zM229 627l-126 -107l-65 58l134 166h119l129 -165l-70 -60z" />
    <glyph glyph-name="udieresis" unicode="&#xfc;" horiz-adv-x="461" 
d="M253 39q-24 -29 -53 -38.5t-51 -9.5q-35 0 -57 10t-35 27.5t-17.5 41t-4.5 50.5v375h172v-309q0 -17 5 -26t19 -9q15 0 19.5 11.5t4.5 22.5v310h171v-495h-171v38zM259 547v130h139v-130h-139zM65 547v130h138v-130h-138z" />
    <glyph glyph-name="yacute" unicode="&#xfd;" horiz-adv-x="459" 
d="M231 191l16 140q5 35 9.5 82t9.5 82h183l-121 -529q-11 -47 -29.5 -77.5t-42.5 -48.5t-53 -25t-60 -7h-88v151h26q20 0 30.5 4.5t15.5 20.5l5 15l-127 496h185l20 -166l18 -139zM157 577l107 205l122 -71l-138 -182z" />
    <glyph glyph-name="thorn" unicode="&#xfe;" horiz-adv-x="458" 
d="M230 134q8 0 13.5 5.5t7.5 13.5q3 14 3.5 41.5t0.5 57.5q0 35 -0.5 57.5t-2.5 28.5q0 7 -6.5 12.5t-14.5 5.5q-19 0 -22 -18q-2 -8 -2.5 -27.5t-0.5 -45.5v-50q0 -23 0.5 -41t2.5 -23q7 -17 21 -17zM207 20v-211h-172v887h169v-239h3q8 12 20.5 20t25.5 13.5t25 8t20 2.5
q114 0 125 -123q1 -9 1.5 -23.5t1.5 -32.5t1.5 -37.5t0.5 -38.5q0 -21 -0.5 -45t-2 -46.5t-3 -41.5t-4.5 -31q-4 -18 -12 -34.5t-21.5 -29.5t-34 -21t-49.5 -8q-25 0 -48 7t-43 24h-3z" />
    <glyph glyph-name="ydieresis" unicode="&#xff;" horiz-adv-x="459" 
d="M231 191l16 140q5 35 9.5 82t9.5 82h183l-121 -529q-11 -47 -29.5 -77.5t-42.5 -48.5t-53 -25t-60 -7h-88v151h26q20 0 30.5 4.5t15.5 20.5l5 15l-127 496h185l20 -166l18 -139zM257 547v130h139v-130h-139zM63 547v130h138v-130h-138z" />
    <glyph glyph-name="Amacron" unicode="&#x100;" horiz-adv-x="511" 
d="M309 126h-109l-17 -126h-177l140 696h216l141 -696h-176zM221 269h68l-12 87l-19 136h-6l-19 -137zM118 744v120h275v-120h-275z" />
    <glyph glyph-name="amacron" unicode="&#x101;" horiz-adv-x="450" 
d="M246 33q-19 -20 -44.5 -29.5t-44.5 -9.5q-40 0 -65.5 10.5t-40.5 30t-20.5 47t-5.5 60.5q0 34 10 64.5t32 52.5t56.5 35t82.5 13h41v37q0 11 -6.5 17.5t-18.5 6.5q-8 0 -18 -7.5t-17 -34.5l-150 42q7 37 25 63t43.5 42.5t57.5 24.5t67 8q83 0 134 -39t51 -124v-343h-165
v33h-4zM247 205h-15q-15 0 -27 -8t-12 -33q0 -31 27 -31t27 34v38zM99 566v120h275v-120h-275z" />
    <glyph glyph-name="Abreve" unicode="&#x102;" horiz-adv-x="511" 
d="M309 126h-109l-17 -126h-177l140 696h216l141 -696h-176zM221 269h68l-12 87l-19 136h-6l-19 -137zM191 879q1 -11 4.5 -24t11 -24t18.5 -18t28 -7q16 0 27.5 7t19 18t11.5 24t5 24h106q-2 -24 -12 -53.5t-30 -54.5t-51 -42t-74 -17q-45 0 -76.5 17t-51.5 42t-29.5 54.5
t-11.5 53.5h105z" />
    <glyph glyph-name="abreve" unicode="&#x103;" horiz-adv-x="450" 
d="M246 33q-19 -20 -44.5 -29.5t-44.5 -9.5q-40 0 -65.5 10.5t-40.5 30t-20.5 47t-5.5 60.5q0 34 10 64.5t32 52.5t56.5 35t82.5 13h41v37q0 11 -6.5 17.5t-18.5 6.5q-8 0 -18 -7.5t-17 -34.5l-150 42q7 37 25 63t43.5 42.5t57.5 24.5t67 8q83 0 134 -39t51 -124v-343h-165
v33h-4zM247 205h-15q-15 0 -27 -8t-12 -33q0 -31 27 -31t27 34v38zM172 700q1 -11 4.5 -23.5t11 -23t18.5 -17t28 -6.5q16 0 27.5 6.5t19 17t11.5 23t5 23.5h106q-2 -24 -12 -53.5t-30 -55t-51 -43t-74 -17.5q-45 0 -76.5 17.5t-51.5 43t-29.5 55t-11.5 53.5h105z" />
    <glyph glyph-name="Aogonek" unicode="&#x104;" horiz-adv-x="511" 
d="M270 -125q0 22 13.5 58t43.5 68l-18 125h-109l-17 -126h-177l140 696h216l141 -696h-92q-21 -35 -26 -62.5t-5 -39.5q0 -20 13 -27.5t31 -7.5q10 0 23.5 1t29.5 6l22 -72q-29 -14 -59 -20.5t-53 -6.5q-54 0 -85.5 26t-31.5 78zM221 269h68l-12 87l-19 136h-6l-19 -137z
" />
    <glyph glyph-name="aogonek" unicode="&#x105;" horiz-adv-x="450" 
d="M194 -125q0 22 13.5 57.5t42.5 67.5v33h-4q-19 -20 -44.5 -29.5t-44.5 -9.5q-40 0 -65.5 10.5t-40.5 30t-20.5 47t-5.5 60.5q0 34 10 64.5t32 52.5t56.5 35t82.5 13h41v37q0 11 -6.5 17.5t-18.5 6.5q-8 0 -18 -7.5t-17 -34.5l-150 42q7 37 25 63t43.5 42.5t57.5 24.5
t67 8q83 0 134 -39t51 -124v-343h-80q-21 -35 -26 -62.5t-5 -39.5q0 -20 13 -27.5t31 -7.5q10 0 23.5 1t29.5 6l22 -72q-29 -14 -59 -20.5t-53 -6.5q-54 0 -85.5 26t-31.5 78zM247 205h-15q-15 0 -27 -8t-12 -33q0 -31 27 -31t27 34v38z" />
    <glyph glyph-name="Cacute" unicode="&#x106;" horiz-adv-x="460" 
d="M240 702q50 0 86 -15t59 -40t34 -57.5t11 -67.5v-11.5t-1 -11.5l-162 -19q2 32 -5 51t-24 19q-15 0 -20.5 -11.5t-5.5 -26.5v-333q0 -14 6.5 -23.5t20.5 -9.5q12 0 21 16t8 54l167 -12q0 -41 -10 -79t-32.5 -67t-60.5 -46.5t-94 -17.5q-94 0 -146 46.5t-52 134.5v344
q0 83 52 133t148 50zM139 801l187 131l76 -120l-207 -98z" />
    <glyph glyph-name="cacute" unicode="&#x107;" horiz-adv-x="434" 
d="M226 506q91 0 137 -46.5t44 -132.5l-156 -11q0 50 -26 50q-16 0 -21 -17q-3 -11 -4 -37.5t-1 -66.5q0 -37 1 -58.5t3 -33.5q2 -8 6 -13t13 -5q27 0 27 47l160 -9q-2 -93 -52.5 -136.5t-138.5 -43.5q-42 0 -72.5 10t-51.5 26t-33.5 36.5t-18.5 40.5q-3 12 -5.5 29t-4 36
t-2 38.5t-0.5 36.5q0 45 5 90t14 71q8 19 21.5 37t34.5 32t50.5 22t70.5 8zM134 577l107 205l122 -71l-138 -182z" />
    <glyph glyph-name="Ccircumflex" unicode="&#x108;" horiz-adv-x="460" 
d="M240 702q50 0 86 -15t59 -40t34 -57.5t11 -67.5v-11.5t-1 -11.5l-162 -19q2 32 -5 51t-24 19q-15 0 -20.5 -11.5t-5.5 -26.5v-333q0 -14 6.5 -23.5t20.5 -9.5q12 0 21 16t8 54l167 -12q0 -41 -10 -79t-32.5 -67t-60.5 -46.5t-94 -17.5q-94 0 -146 46.5t-52 134.5v344
q0 83 52 133t148 50zM236 806l-126 -87l-59 62l128 142h119l125 -142l-66 -63z" />
    <glyph glyph-name="ccircumflex" unicode="&#x109;" horiz-adv-x="434" 
d="M226 506q91 0 137 -46.5t44 -132.5l-156 -11q0 50 -26 50q-16 0 -21 -17q-3 -11 -4 -37.5t-1 -66.5q0 -37 1 -58.5t3 -33.5q2 -8 6 -13t13 -5q27 0 27 47l160 -9q-2 -93 -52.5 -136.5t-138.5 -43.5q-42 0 -72.5 10t-51.5 26t-33.5 36.5t-18.5 40.5q-3 12 -5.5 29t-4 36
t-2 38.5t-0.5 36.5q0 45 5 90t14 71q8 19 21.5 37t34.5 32t50.5 22t70.5 8zM223 627l-126 -107l-65 58l134 166h119l129 -165l-70 -60z" />
    <glyph glyph-name="Cdotaccent" unicode="&#x10a;" horiz-adv-x="460" 
d="M240 702q50 0 86 -15t59 -40t34 -57.5t11 -67.5v-11.5t-1 -11.5l-162 -19q2 32 -5 51t-24 19q-15 0 -20.5 -11.5t-5.5 -26.5v-333q0 -14 6.5 -23.5t20.5 -9.5q12 0 21 16t8 54l167 -12q0 -41 -10 -79t-32.5 -67t-60.5 -46.5t-94 -17.5q-94 0 -146 46.5t-52 134.5v344
q0 83 52 133t148 50zM150 734v130h164v-130h-164z" />
    <glyph glyph-name="cdotaccent" unicode="&#x10b;" horiz-adv-x="434" 
d="M226 506q91 0 137 -46.5t44 -132.5l-156 -11q0 50 -26 50q-16 0 -21 -17q-3 -11 -4 -37.5t-1 -66.5q0 -37 1 -58.5t3 -33.5q2 -8 6 -13t13 -5q27 0 27 47l160 -9q-2 -93 -52.5 -136.5t-138.5 -43.5q-42 0 -72.5 10t-51.5 26t-33.5 36.5t-18.5 40.5q-3 12 -5.5 29t-4 36
t-2 38.5t-0.5 36.5q0 45 5 90t14 71q8 19 21.5 37t34.5 32t50.5 22t70.5 8zM141 566v130h164v-130h-164z" />
    <glyph glyph-name="Ccaron" unicode="&#x10c;" horiz-adv-x="460" 
d="M240 702q50 0 86 -15t59 -40t34 -57.5t11 -67.5v-11.5t-1 -11.5l-162 -19q2 32 -5 51t-24 19q-15 0 -20.5 -11.5t-5.5 -26.5v-333q0 -14 6.5 -23.5t20.5 -9.5q12 0 21 16t8 54l167 -12q0 -41 -10 -79t-32.5 -67t-60.5 -46.5t-94 -17.5q-94 0 -146 46.5t-52 134.5v344
q0 83 52 133t148 50zM359 929l66 -63l-125 -142h-119l-128 142l59 62l126 -87z" />
    <glyph glyph-name="ccaron" unicode="&#x10d;" horiz-adv-x="434" 
d="M226 506q91 0 137 -46.5t44 -132.5l-156 -11q0 50 -26 50q-16 0 -21 -17q-3 -11 -4 -37.5t-1 -66.5q0 -37 1 -58.5t3 -33.5q2 -8 6 -13t13 -5q27 0 27 47l160 -9q-2 -93 -52.5 -136.5t-138.5 -43.5q-42 0 -72.5 10t-51.5 26t-33.5 36.5t-18.5 40.5q-3 12 -5.5 29t-4 36
t-2 38.5t-0.5 36.5q0 45 5 90t14 71q8 19 21.5 37t34.5 32t50.5 22t70.5 8zM351 752l70 -60l-129 -165h-119l-134 166l65 58l126 -107z" />
    <glyph glyph-name="Dcaron" unicode="&#x10e;" horiz-adv-x="478" 
d="M266 496q0 29 -8 42t-37 13h-6v-405h6q26 0 35.5 14t9.5 44v292zM268 696q62 0 104.5 -22.5t56.5 -71.5q9 -32 10.5 -99.5t1.5 -153.5t-1.5 -150t-12.5 -96q-9 -27 -26 -46.5t-40 -32t-49 -18.5t-53 -6h-216v696h225zM349 929l66 -63l-125 -142h-119l-128 142l59 62
l126 -87z" />
    <glyph glyph-name="dcaron" unicode="&#x10f;" horiz-adv-x="635" 
d="M567 479h-94l29 111h-25v136h146v-133zM228 362q-8 0 -13.5 -5.5t-7.5 -13.5q-3 -14 -3.5 -42t-0.5 -58q0 -35 0.5 -57.5t2.5 -28.5q0 -7 6.5 -12.5t14.5 -5.5q19 0 22 18q2 8 2.5 30t0.5 48v46q0 23 -0.5 41t-2.5 23q-7 17 -21 17zM251 475v251h172v-726h-169v38h-3
q-8 -12 -20.5 -20t-25.5 -13.5t-25 -8t-20 -2.5q-116 0 -126 123q-2 22 -3 58t-1 74q0 21 0.5 45t2 46.5t3.5 41.5t5 31q4 18 12 34.5t21.5 29.5t34 21t49.5 8q25 0 47.5 -7t42.5 -24h3z" />
    <glyph glyph-name="Dcroat" unicode="&#x110;" horiz-adv-x="478" 
d="M268 696q62 0 104.5 -22.5t56.5 -71.5q9 -32 10.5 -99.5t1.5 -153.5t-1.5 -150t-12.5 -96q-9 -27 -26 -46.5t-40 -32t-49 -18.5t-53 -6h-216v290h-34v123h34v283h225zM266 496q0 29 -8 42t-37 13h-6v-138h29v-123h-29v-144h6q26 0 35.5 14t9.5 44v292z" />
    <glyph glyph-name="dcroat" unicode="&#x111;" horiz-adv-x="479" 
d="M251 455v86h-99v110h99v75h172v-75h36v-110h-36v-541h-169v38h-3q-8 -12 -20.5 -20t-25.5 -13.5t-25 -8t-20 -2.5q-116 0 -126 123q-2 22 -3 53t-1 69q0 21 0.5 43.5t2 43t3.5 38t5 29.5q4 18 12 34.5t21.5 29.5t34 21t49.5 8q25 0 47.5 -7t42.5 -24h3zM228 342
q-8 0 -13.5 -5.5t-7.5 -13.5q-3 -14 -3.5 -37t-0.5 -53q0 -35 0.5 -52.5t2.5 -23.5q0 -7 6.5 -12.5t14.5 -5.5q19 0 22 18q2 8 2.5 30t0.5 48v26q0 23 -0.5 41t-2.5 23q-7 17 -21 17z" />
    <glyph glyph-name="Emacron" unicode="&#x112;" horiz-adv-x="429" 
d="M40 0v696h359v-150h-183v-117h160v-151h-160v-127h183v-151h-359zM82 744v120h275v-120h-275z" />
    <glyph glyph-name="emacron" unicode="&#x113;" horiz-adv-x="434" 
d="M218 -7q-42 0 -73 10t-52 26t-33 36.5t-18 40.5q-8 30 -10 67.5t-2 72.5q0 45 5 86.5t17 73.5q7 20 20 38t34 32t51 22t71 8q38 0 71 -10.5t57 -31t38 -51t14 -69.5v-127h-208v-44q0 -15 3.5 -27.5t20.5 -12.5q9 0 16.5 7.5t9.5 30.5l159 -18q-8 -77 -54.5 -118.5
t-136.5 -41.5zM224 371q-11 0 -17 -11q-4 -7 -5 -20.5t-1 -30.5h47q0 20 -1 34t-6 20q-4 5 -7 6.5t-10 1.5zM91 566v120h275v-120h-275z" />
    <glyph glyph-name="Ebreve" unicode="&#x114;" horiz-adv-x="429" 
d="M40 0v696h359v-150h-183v-117h160v-151h-160v-127h183v-151h-359zM149 882q1 -11 4.5 -24t11 -24t18.5 -18t28 -7q16 0 27.5 7t19 18t11.5 24t5 24h106q-2 -24 -12 -53.5t-30 -54.5t-51 -42t-74 -17q-45 0 -76.5 17t-51.5 42t-29.5 54.5t-11.5 53.5h105z" />
    <glyph glyph-name="ebreve" unicode="&#x115;" horiz-adv-x="434" 
d="M218 -7q-42 0 -73 10t-52 26t-33 36.5t-18 40.5q-8 30 -10 67.5t-2 72.5q0 45 5 86.5t17 73.5q7 20 20 38t34 32t51 22t71 8q38 0 71 -10.5t57 -31t38 -51t14 -69.5v-127h-208v-44q0 -15 3.5 -27.5t20.5 -12.5q9 0 16.5 7.5t9.5 30.5l159 -18q-8 -77 -54.5 -118.5
t-136.5 -41.5zM224 371q-11 0 -17 -11q-4 -7 -5 -20.5t-1 -30.5h47q0 20 -1 34t-6 20q-4 5 -7 6.5t-10 1.5zM162 700q1 -11 4.5 -23.5t11 -23t18.5 -17t28 -6.5q16 0 27.5 6.5t19 17t11.5 23t5 23.5h106q-2 -24 -12 -53.5t-30 -55t-51 -43t-74 -17.5q-45 0 -76.5 17.5
t-51.5 43t-29.5 55t-11.5 53.5h105z" />
    <glyph glyph-name="Edotaccent" unicode="&#x116;" horiz-adv-x="429" 
d="M40 0v696h359v-150h-183v-117h160v-151h-160v-127h183v-151h-359zM138 726v130h164v-130h-164z" />
    <glyph glyph-name="edotaccent" unicode="&#x117;" horiz-adv-x="434" 
d="M218 -7q-42 0 -73 10t-52 26t-33 36.5t-18 40.5q-8 30 -10 67.5t-2 72.5q0 45 5 86.5t17 73.5q7 20 20 38t34 32t51 22t71 8q38 0 71 -10.5t57 -31t38 -51t14 -69.5v-127h-208v-44q0 -15 3.5 -27.5t20.5 -12.5q9 0 16.5 7.5t9.5 30.5l159 -18q-8 -77 -54.5 -118.5
t-136.5 -41.5zM224 371q-11 0 -17 -11q-4 -7 -5 -20.5t-1 -30.5h47q0 20 -1 34t-6 20q-4 5 -7 6.5t-10 1.5zM143 566v130h164v-130h-164z" />
    <glyph glyph-name="Eogonek" unicode="&#x118;" horiz-adv-x="429" 
d="M399 0q-23 -37 -29 -66t-6 -41q0 -20 13 -27.5t31 -7.5q10 0 23.5 1t29.5 6l22 -72q-29 -14 -59 -20.5t-53 -6.5q-54 0 -85.5 26t-31.5 78q0 11 3.5 27t11 33.5t19 35.5t27.5 34h-275v696h359v-150h-183v-117h160v-151h-160v-127h183v-151v0z" />
    <glyph glyph-name="eogonek" unicode="&#x119;" horiz-adv-x="434" 
d="M201 -98q0 17 7 41.5t24 50.5q-4 0 -7.5 -0.5t-6.5 -0.5q-42 0 -73 10t-52 26t-33 36.5t-18 40.5q-8 30 -10 67.5t-2 72.5q0 45 5 86.5t17 73.5q7 20 20 38t34 32t51 22t71 8q38 0 71 -10.5t57 -31t38 -51t14 -69.5v-127h-208v-44q0 -15 3.5 -27.5t20.5 -12.5
q9 0 16.5 7.5t9.5 30.5l159 -18q-9 -88 -68 -128q-20 -35 -25 -62t-5 -38q0 -20 13 -27.5t31 -7.5q10 0 23.5 1t29.5 6l22 -72q-29 -14 -59 -20.5t-53 -6.5q-54 0 -85.5 26t-31.5 78zM224 371q-11 0 -17 -11q-4 -7 -5 -20.5t-1 -30.5h47q0 20 -1 34t-6 20q-4 5 -7 6.5
t-10 1.5z" />
    <glyph glyph-name="Ecaron" unicode="&#x11a;" horiz-adv-x="429" 
d="M40 0v696h359v-150h-183v-117h160v-151h-160v-127h183v-151h-359zM338 929l66 -63l-125 -142h-119l-128 142l59 62l126 -87z" />
    <glyph glyph-name="ecaron" unicode="&#x11b;" horiz-adv-x="434" 
d="M218 -7q-42 0 -73 10t-52 26t-33 36.5t-18 40.5q-8 30 -10 67.5t-2 72.5q0 45 5 86.5t17 73.5q7 20 20 38t34 32t51 22t71 8q38 0 71 -10.5t57 -31t38 -51t14 -69.5v-127h-208v-44q0 -15 3.5 -27.5t20.5 -12.5q9 0 16.5 7.5t9.5 30.5l159 -18q-8 -77 -54.5 -118.5
t-136.5 -41.5zM224 371q-11 0 -17 -11q-4 -7 -5 -20.5t-1 -30.5h47q0 20 -1 34t-6 20q-4 5 -7 6.5t-10 1.5zM345 752l70 -60l-129 -165h-119l-134 166l65 58l126 -107z" />
    <glyph glyph-name="Gcircumflex" unicode="&#x11c;" horiz-adv-x="474" 
d="M239 -6q-97 0 -148 47.5t-51 135.5v342q0 83 52 133t148 50q51 0 87.5 -15t59 -39.5t33 -57t10.5 -67.5v-11.5t-1 -11.5l-162 -19q2 32 -5 50.5t-24 18.5q-15 0 -20.5 -11.5t-5.5 -26.5v-333q0 -14 6.5 -23.5t20.5 -9.5q11 0 18.5 8.5t7.5 25.5v90h-30v134h203l1 -229
q0 -43 -15.5 -76.5t-42.5 -57t-63.5 -35.5t-78.5 -12zM233 790l-126 -87l-59 62l128 142h119l125 -142l-66 -63z" />
    <glyph glyph-name="gcircumflex" unicode="&#x11d;" horiz-adv-x="458" 
d="M423 -16q0 -95 -52.5 -139t-141.5 -44q-98 0 -141.5 39.5t-47.5 117.5l160 17q2 -21 9.5 -30t16.5 -9q14 0 19 9.5t5 21.5l1 47v34h-3q-20 -21 -44 -30t-49 -9q-31 0 -51.5 7.5t-33.5 20t-20 28.5t-11 34q-5 23 -7 64t-2 83q0 38 1.5 69.5t3.5 48.5q8 75 44 106t90 31
q16 0 40.5 -6.5t41.5 -29.5h3v30h169v-511zM227 153q14 0 21 17q3 7 4 24t1 40v31q0 26 -1 45.5t-3 27.5q-3 18 -22 18q-8 0 -14 -5.5t-6 -12.5q-2 -6 -3 -28.5t-1 -57.5q0 -30 0.5 -48t3.5 -32q2 -8 7 -13.5t13 -5.5zM231 627l-126 -107l-65 58l134 166h119l129 -165
l-70 -60z" />
    <glyph glyph-name="Gbreve" unicode="&#x11e;" horiz-adv-x="474" 
d="M239 -6q-97 0 -148 47.5t-51 135.5v342q0 83 52 133t148 50q51 0 87.5 -15t59 -39.5t33 -57t10.5 -67.5v-11.5t-1 -11.5l-162 -19q2 32 -5 50.5t-24 18.5q-15 0 -20.5 -11.5t-5.5 -26.5v-333q0 -14 6.5 -23.5t20.5 -9.5q11 0 18.5 8.5t7.5 25.5v90h-30v134h203l1 -229
q0 -43 -15.5 -76.5t-42.5 -57t-63.5 -35.5t-78.5 -12zM170 884q1 -11 4.5 -24t11 -24t18.5 -18t28 -7q16 0 27.5 7t19 18t11.5 24t5 24h106q-2 -24 -12 -53.5t-30 -54.5t-51 -42t-74 -17q-45 0 -76.5 17t-51.5 42t-29.5 54.5t-11.5 53.5h105z" />
    <glyph glyph-name="gbreve" unicode="&#x11f;" horiz-adv-x="458" 
d="M423 -16q0 -95 -52.5 -139t-141.5 -44q-98 0 -141.5 39.5t-47.5 117.5l160 17q2 -21 9.5 -30t16.5 -9q14 0 19 9.5t5 21.5l1 47v34h-3q-20 -21 -44 -30t-49 -9q-31 0 -51.5 7.5t-33.5 20t-20 28.5t-11 34q-5 23 -7 64t-2 83q0 38 1.5 69.5t3.5 48.5q8 75 44 106t90 31
q16 0 40.5 -6.5t41.5 -29.5h3v30h169v-511zM227 153q14 0 21 17q3 7 4 24t1 40v31q0 26 -1 45.5t-3 27.5q-3 18 -22 18q-8 0 -14 -5.5t-6 -12.5q-2 -6 -3 -28.5t-1 -57.5q0 -30 0.5 -48t3.5 -32q2 -8 7 -13.5t13 -5.5zM184 700q1 -11 4.5 -23.5t11 -23t18.5 -17t28 -6.5
q16 0 27.5 6.5t19 17t11.5 23t5 23.5h106q-2 -24 -12 -53.5t-30 -55t-51 -43t-74 -17.5q-45 0 -76.5 17.5t-51.5 43t-29.5 55t-11.5 53.5h105z" />
    <glyph glyph-name="Gdotaccent" unicode="&#x120;" horiz-adv-x="474" 
d="M239 -6q-97 0 -148 47.5t-51 135.5v342q0 83 52 133t148 50q51 0 87.5 -15t59 -39.5t33 -57t10.5 -67.5v-11.5t-1 -11.5l-162 -19q2 32 -5 50.5t-24 18.5q-15 0 -20.5 -11.5t-5.5 -26.5v-333q0 -14 6.5 -23.5t20.5 -9.5q11 0 18.5 8.5t7.5 25.5v90h-30v134h203l1 -229
q0 -43 -15.5 -76.5t-42.5 -57t-63.5 -35.5t-78.5 -12zM153 726v130h164v-130h-164z" />
    <glyph glyph-name="gdotaccent" unicode="&#x121;" horiz-adv-x="458" 
d="M423 -16q0 -95 -52.5 -139t-141.5 -44q-98 0 -141.5 39.5t-47.5 117.5l160 17q2 -21 9.5 -30t16.5 -9q14 0 19 9.5t5 21.5l1 47v34h-3q-20 -21 -44 -30t-49 -9q-31 0 -51.5 7.5t-33.5 20t-20 28.5t-11 34q-5 23 -7 64t-2 83q0 38 1.5 69.5t3.5 48.5q8 75 44 106t90 31
q16 0 40.5 -6.5t41.5 -29.5h3v30h169v-511zM227 153q14 0 21 17q3 7 4 24t1 40v31q0 26 -1 45.5t-3 27.5q-3 18 -22 18q-8 0 -14 -5.5t-6 -12.5q-2 -6 -3 -28.5t-1 -57.5q0 -30 0.5 -48t3.5 -32q2 -8 7 -13.5t13 -5.5zM151 566v130h164v-130h-164z" />
    <glyph glyph-name="Gcommaaccent" unicode="&#x122;" horiz-adv-x="474" 
d="M239 -6q-97 0 -148 47.5t-51 135.5v342q0 83 52 133t148 50q51 0 87.5 -15t59 -39.5t33 -57t10.5 -67.5v-11.5t-1 -11.5l-162 -19q2 32 -5 50.5t-24 18.5q-15 0 -20.5 -11.5t-5.5 -26.5v-333q0 -14 6.5 -23.5t20.5 -9.5q11 0 18.5 8.5t7.5 25.5v90h-30v134h203l1 -229
q0 -43 -15.5 -76.5t-42.5 -57t-63.5 -35.5t-78.5 -12zM252 -305h-94l29 111h-25v136h146v-133z" />
    <glyph glyph-name="gcommaaccent" unicode="&#x123;" horiz-adv-x="458" 
d="M225 792h94l-29 -111h25v-136h-146v133zM423 -16q0 -95 -52.5 -139t-141.5 -44q-98 0 -141.5 39.5t-47.5 117.5l160 17q2 -21 9.5 -30t16.5 -9q14 0 19 9.5t5 21.5l1 47v34h-3q-20 -21 -44 -30t-49 -9q-31 0 -51.5 7.5t-33.5 20t-20 28.5t-11 34q-5 23 -7 64t-2 83
q0 38 1.5 69.5t3.5 48.5q8 75 44 106t90 31q16 0 40.5 -6.5t41.5 -29.5h3v30h169v-511zM227 153q14 0 21 17q3 7 4 24t1 40v31q0 26 -1 45.5t-3 27.5q-3 18 -22 18q-8 0 -14 -5.5t-6 -12.5q-2 -6 -3 -28.5t-1 -57.5q0 -30 0.5 -48t3.5 -32q2 -8 7 -13.5t13 -5.5z" />
    <glyph glyph-name="Hcircumflex" unicode="&#x124;" horiz-adv-x="489" 
d="M274 0v278h-58v-278h-176v696h176v-266h58v266h175v-696h-175zM250 806l-126 -87l-59 62l128 142h119l125 -142l-66 -63z" />
    <glyph glyph-name="hcircumflex" unicode="&#x125;" horiz-adv-x="491" 
d="M238 456q24 29 54.5 38.5t52.5 9.5q35 0 56.5 -10t33.5 -27.5t16.5 -41t4.5 -50.5v-375h-172v312q0 17 -5 26t-19 9q-15 0 -19.5 -11.5t-4.5 -22.5v-313h-171v726h171v-269zM156 812l-126 -87l-59 62l128 142h119l125 -142l-66 -63z" />
    <glyph glyph-name="Hbar" unicode="&#x126;" horiz-adv-x="489" 
d="M274 0v278h-58v-278h-176v504h-29v101h29v91h176v-91h58v91h175v-91h41v-101h-41v-504h-175zM274 430v74h-58v-74h58z" />
    <glyph glyph-name="hbar" unicode="&#x127;" horiz-adv-x="473" 
d="M220 436q24 29 54.5 38.5t52.5 9.5q35 0 56.5 -10t33.5 -27.5t16.5 -41t4.5 -50.5v-355h-172v292q0 17 -5 26t-19 9q-15 0 -19.5 -11.5t-4.5 -22.5v-293h-171v541h-35v110h35v75h171v-75h129v-110h-129v-104z" />
    <glyph glyph-name="Itilde" unicode="&#x128;" horiz-adv-x="308" 
d="M68 0v696h176v-696h-176zM98 884q17 -1 32 -7t28.5 -12.5t25.5 -12t23 -5.5q14 0 29 9t31 32l76 -45q-22 -57 -54 -84.5t-63 -27.5q-17 0 -31.5 5.5t-27.5 12t-25.5 12t-24.5 5.5q-14 0 -31 -6.5t-35 -32.5l-80 46q22 53 54 82t73 29z" />
    <glyph glyph-name="itilde" unicode="&#x129;" horiz-adv-x="353" 
d="M119 714q17 -1 32 -7t28.5 -12.5t25.5 -12t23 -5.5q14 0 29 9t31 32l76 -45q-22 -57 -54 -84.5t-63 -27.5q-17 0 -31.5 5.5t-27.5 12t-25.5 12t-24.5 5.5q-14 0 -31 -6.5t-35 -32.5l-80 46q22 53 54 82t73 29zM93 0v495h170v-495h-170z" />
    <glyph glyph-name="Imacron" unicode="&#x12a;" horiz-adv-x="276" 
d="M50 0v696h176v-696h-176zM-3 744v120h275v-120h-275z" />
    <glyph glyph-name="imacron" unicode="&#x12b;" horiz-adv-x="290" 
d="M6 566v120h275v-120h-275zM57 0v495h170v-495h-170z" />
    <glyph glyph-name="Ibreve" unicode="&#x12c;" horiz-adv-x="242" 
d="M33 0v696h176v-696h-176zM59 884q1 -11 4.5 -24t11 -24t18.5 -18t28 -7q16 0 27.5 7t19 18t11.5 24t5 24h106q-2 -24 -12 -53.5t-30 -54.5t-51 -42t-74 -17q-45 0 -76.5 17t-51.5 42t-29.5 54.5t-11.5 53.5h105z" />
    <glyph glyph-name="ibreve" unicode="&#x12d;" horiz-adv-x="323" 
d="M103 706q1 -11 4.5 -23.5t11 -23t18.5 -17t28 -6.5q16 0 27.5 6.5t19 17t11.5 23t5 23.5h106q-2 -24 -12 -53.5t-30 -55t-51 -43t-74 -17.5q-45 0 -76.5 17.5t-51.5 43t-29.5 55t-11.5 53.5h105zM84 0v495h170v-495h-170z" />
    <glyph glyph-name="Iogonek" unicode="&#x12e;" horiz-adv-x="276" 
d="M32 -123q0 22 13 56.5t41 66.5h-36v696h176v-696h-54q-20 -35 -25 -62t-5 -38q0 -20 13 -27.5t31 -7.5q10 0 23.5 1t29.5 6l22 -72q-29 -14 -59 -20.5t-53 -6.5q-54 0 -85.5 26t-31.5 78z" />
    <glyph glyph-name="iogonek" unicode="&#x12f;" horiz-adv-x="260" 
d="M23 -123q0 22 13 56.5t41 66.5h-32v495h170v-495h-52q-20 -35 -25 -62t-5 -38q0 -20 13 -27.5t31 -7.5q10 0 23.5 1t29.5 6l22 -72q-29 -14 -59 -20.5t-53 -6.5q-54 0 -85.5 26t-31.5 78zM45 566v130h170v-130h-170z" />
    <glyph glyph-name="Idotaccent" unicode="&#x130;" horiz-adv-x="276" 
d="M50 0v696h176v-696h-176zM57 746v130h164v-130h-164z" />
    <glyph glyph-name="dotlessi" unicode="&#x131;" horiz-adv-x="260" 
d="M45 0v495h170v-495h-170z" />
    <glyph glyph-name="IJ" unicode="&#x132;" horiz-adv-x="687" 
d="M50 0v696h176v-696h-176zM637 696v-527q0 -82 -53.5 -128.5t-146.5 -46.5q-57 0 -103.5 20t-86.5 77l113 108q20 -25 36.5 -35.5t30.5 -10.5q12 0 18.5 4.5t10.5 10.5t5 13t1 12v503h175z" />
    <glyph glyph-name="ij" unicode="&#x133;" horiz-adv-x="500" 
d="M45 566v130h170v-130h-170zM45 0v495h170v-495h-170zM285 566v130h170v-130h-170zM455 -35q0 -87 -49 -128.5t-140 -41.5h-47v148h23q26 0 34.5 16.5t8.5 52.5v483h170v-530z" />
    <glyph glyph-name="Jcircumflex" unicode="&#x134;" horiz-adv-x="441" 
d="M391 697v-527q0 -82 -53.5 -128.5t-146.5 -46.5q-57 0 -103.5 20t-86.5 77l113 108q20 -25 36.5 -35.5t30.5 -10.5q12 0 18.5 4.5t10.5 10.5t5 13t1 12v503h175zM306 808l-126 -87l-59 62l128 142h119l125 -142l-66 -63z" />
    <glyph glyph-name="jcircumflex" unicode="&#x135;" horiz-adv-x="344" 
d="M255 -35q0 -87 -49 -128.5t-140 -41.5h-47v148h23q26 0 34.5 16.5t8.5 52.5v483h170v-530zM170 627l-126 -107l-65 58l134 166h119l129 -165l-70 -60z" />
    <glyph glyph-name="Kcommaaccent" unicode="&#x136;" horiz-adv-x="524" 
d="M341 410l175 -410h-187l-91 229l-22 -39v-190h-176v696h176v-180h7l95 180h185zM268 -285h-94l29 111h-25v136h146v-133z" />
    <glyph glyph-name="kcommaaccent" unicode="&#x137;" horiz-adv-x="486" 
d="M340 311l136 -311h-185l-63 159l-23 -31v-128h-170v725h170v-347l4 -1l74 117h193zM250 -305h-94l29 111h-25v136h146v-133z" />
    <glyph glyph-name="kgreenlandic" unicode="&#x138;" horiz-adv-x="486" 
d="M340 311l136 -311h-185l-63 159l-23 -31v-128h-170v494h170v-116l4 -1l74 117h193z" />
    <glyph glyph-name="Lacute" unicode="&#x139;" horiz-adv-x="409" 
d="M40 0v696h176v-545h183v-151h-359zM71 801l187 131l76 -120l-207 -98z" />
    <glyph glyph-name="lacute" unicode="&#x13a;" horiz-adv-x="277" 
d="M45 726h170v-551q0 -14 8 -25t27 -11h12v-144h-45q-51 0 -84 10.5t-52.5 31.5t-27.5 53t-8 75v561zM58 831l187 131l76 -120l-207 -98z" />
    <glyph glyph-name="Lcommaaccent" unicode="&#x13b;" horiz-adv-x="409" 
d="M40 0v696h176v-545h183v-151h-359zM250 -305h-94l29 111h-25v136h146v-133z" />
    <glyph glyph-name="lcommaaccent" unicode="&#x13c;" horiz-adv-x="277" 
d="M45 726h170v-551q0 -14 8 -25t27 -11h12v-144h-45q-51 0 -84 10.5t-52.5 31.5t-27.5 53t-8 75v561zM166 -305h-94l29 111h-25v136h146v-133z" />
    <glyph glyph-name="Lcaron" unicode="&#x13d;" horiz-adv-x="434" 
d="M40 0v696h176v-545h183v-151h-359zM375 449h-94l29 111h-25v136h146v-133z" />
    <glyph glyph-name="lcaron" unicode="&#x13e;" horiz-adv-x="395" 
d="M340 476h-94l29 111h-25v136h146v-133zM31 726h170v-551q0 -14 8 -25t27 -11h12v-144h-45q-51 0 -84 10.5t-52.5 31.5t-27.5 53t-8 75v561z" />
    <glyph glyph-name="Ldot" unicode="&#x13f;" horiz-adv-x="449" 
d="M40 0v696h176v-545h183v-151h-359zM277 320v130h164v-130h-164z" />
    <glyph glyph-name="ldot" unicode="&#x140;" horiz-adv-x="428" 
d="M250 348v130h164v-130h-164zM31 726h170v-551q0 -14 8 -25t27 -11h12v-144h-45q-51 0 -84 10.5t-52.5 31.5t-27.5 53t-8 75v561z" />
    <glyph glyph-name="Lslash" unicode="&#x141;" horiz-adv-x="433" 
d="M64 0v214l-22 -15l-54 82l76 53v362h176v-239l62 44l54 -82l-116 -81v-187h183v-151h-359z" />
    <glyph glyph-name="lslash" unicode="&#x142;" horiz-adv-x="338" 
d="M75 217l-27 -18l-54 82l81 55v390h170v-274l39 27l54 -82l-93 -64v-158q0 -14 8 -25t27 -11h12v-144h-45q-51 0 -84 10.5t-52.5 31.5t-27.5 53t-8 75v52z" />
    <glyph glyph-name="Nacute" unicode="&#x143;" horiz-adv-x="518" 
d="M309 414v282h169v-696h-152l-56 148l-54 140h-5v-288h-171v696h155l49 -129l60 -153h5zM166 801l187 131l76 -120l-207 -98z" />
    <glyph glyph-name="nacute" unicode="&#x144;" horiz-adv-x="461" 
d="M208 456q24 29 54.5 38.5t52.5 9.5q35 0 56.5 -10t33.5 -27.5t16.5 -41t4.5 -50.5v-375h-172v312q0 17 -5 26t-19 9q-15 0 -19.5 -11.5t-4.5 -22.5v-313h-171v495h171v-38zM136 577l107 205l122 -71l-138 -182z" />
    <glyph glyph-name="Ncommaaccent" unicode="&#x145;" horiz-adv-x="518" 
d="M309 414v282h169v-696h-152l-56 148l-54 140h-5v-288h-171v696h155l49 -129l60 -153h5zM290 -285h-94l29 111h-25v136h146v-133z" />
    <glyph glyph-name="ncommaaccent" unicode="&#x146;" horiz-adv-x="461" 
d="M208 456q24 29 54.5 38.5t52.5 9.5q35 0 56.5 -10t33.5 -27.5t16.5 -41t4.5 -50.5v-375h-172v312q0 17 -5 26t-19 9q-15 0 -19.5 -11.5t-4.5 -22.5v-313h-171v495h171v-38zM239 -305h-94l29 111h-25v136h146v-133z" />
    <glyph glyph-name="Ncaron" unicode="&#x147;" horiz-adv-x="518" 
d="M309 414v282h169v-696h-152l-56 148l-54 140h-5v-288h-171v696h155l49 -129l60 -153h5zM376 929l66 -63l-125 -142h-119l-128 142l59 62l126 -87z" />
    <glyph glyph-name="ncaron" unicode="&#x148;" horiz-adv-x="461" 
d="M208 456q24 29 54.5 38.5t52.5 9.5q35 0 56.5 -10t33.5 -27.5t16.5 -41t4.5 -50.5v-375h-172v312q0 17 -5 26t-19 9q-15 0 -19.5 -11.5t-4.5 -22.5v-313h-171v495h171v-38zM338 752l70 -60l-129 -165h-119l-134 166l65 58l126 -107z" />
    <glyph glyph-name="napostrophe" unicode="&#x149;" horiz-adv-x="581" 
d="M328 456q24 29 54.5 38.5t52.5 9.5q35 0 56.5 -10t33.5 -27.5t16.5 -41t4.5 -50.5v-375h-172v312q0 17 -5 26t-19 9q-15 0 -19.5 -11.5t-4.5 -22.5v-313h-171v495h171v-38zM94 422h-94l29 111h-25v136h146v-133z" />
    <glyph glyph-name="Eng" unicode="&#x14a;" horiz-adv-x="518" 
d="M309 414v282h169l-1 -756q0 -44 -11.5 -73t-31.5 -46.5t-47 -24.5t-57 -7q-40 0 -82 9l10 125q26 0 36.5 7t10.5 28v97l-35 93l-54 140h-5v-288h-171v696h155l49 -129l60 -153h5z" />
    <glyph glyph-name="eng" unicode="&#x14b;" horiz-adv-x="461" 
d="M208 456q24 29 54.5 38.5t52.5 9.5q35 0 56.5 -10t33.5 -27.5t16.5 -41t4.5 -50.5v-435q0 -44 -11.5 -73t-31.5 -46.5t-47 -24.5t-57 -7q-40 0 -82 9l10 125q26 0 36.5 7t10.5 28v354q0 17 -5 26t-19 9q-15 0 -19.5 -11.5t-4.5 -22.5v-313h-171v495h171v-38z" />
    <glyph glyph-name="Omacron" unicode="&#x14c;" horiz-adv-x="478" 
d="M263 519q0 17 -8 22.5t-16 5.5t-17 -5.5t-9 -22.5v-342q0 -18 9 -23t17 -5t16 5t8 23v342zM438 182q0 -92 -52.5 -140t-146.5 -48q-96 0 -147.5 48t-51.5 140v333q0 46 14.5 81t40.5 58.5t62.5 35.5t81.5 12q199 0 199 -187v-333zM99 744v120h275v-120h-275z" />
    <glyph glyph-name="omacron" unicode="&#x14d;" horiz-adv-x="450" 
d="M227 506q42 0 72 -8t51 -21.5t34 -30.5t20 -36q5 -13 8 -32t5 -40.5t2.5 -44.5t0.5 -44q0 -38 -1.5 -63.5t-4.5 -50.5q-5 -44 -24.5 -71.5t-47.5 -43t-60 -21.5t-63 -6q-40 0 -70.5 10t-52.5 26t-35 36.5t-19 40.5q-3 12 -5.5 29t-4 36t-2 38.5t-0.5 36.5q0 45 5 90
t14 71q8 19 22.5 37t36 32t51 22t68.5 8zM226 366q-9 0 -13.5 -4.5t-6.5 -12.5q-3 -10 -3.5 -32.5t-1.5 -69.5q0 -38 0.5 -60.5t3.5 -34.5q5 -17 22 -17q8 0 13 5t7 12q2 6 3 33t1 61q0 31 -0.5 59t-2.5 42q-3 19 -22 19zM91 566v120h275v-120h-275z" />
    <glyph glyph-name="Obreve" unicode="&#x14e;" horiz-adv-x="478" 
d="M263 519q0 17 -8 22.5t-16 5.5t-17 -5.5t-9 -22.5v-342q0 -18 9 -23t17 -5t16 5t8 23v342zM438 182q0 -92 -52.5 -140t-146.5 -48q-96 0 -147.5 48t-51.5 140v333q0 46 14.5 81t40.5 58.5t62.5 35.5t81.5 12q199 0 199 -187v-333zM175 886q1 -11 4.5 -24t11 -24t18.5 -18
t28 -7q16 0 27.5 7t19 18t11.5 24t5 24h106q-2 -24 -12 -53.5t-30 -54.5t-51 -42t-74 -17q-45 0 -76.5 17t-51.5 42t-29.5 54.5t-11.5 53.5h105z" />
    <glyph glyph-name="obreve" unicode="&#x14f;" horiz-adv-x="450" 
d="M227 506q42 0 72 -8t51 -21.5t34 -30.5t20 -36q5 -13 8 -32t5 -40.5t2.5 -44.5t0.5 -44q0 -38 -1.5 -63.5t-4.5 -50.5q-5 -44 -24.5 -71.5t-47.5 -43t-60 -21.5t-63 -6q-40 0 -70.5 10t-52.5 26t-35 36.5t-19 40.5q-3 12 -5.5 29t-4 36t-2 38.5t-0.5 36.5q0 45 5 90
t14 71q8 19 22.5 37t36 32t51 22t68.5 8zM226 366q-9 0 -13.5 -4.5t-6.5 -12.5q-3 -10 -3.5 -32.5t-1.5 -69.5q0 -38 0.5 -60.5t3.5 -34.5q5 -17 22 -17q8 0 13 5t7 12q2 6 3 33t1 61q0 31 -0.5 59t-2.5 42q-3 19 -22 19zM161 700q1 -11 4.5 -23.5t11 -23t18.5 -17t28 -6.5
q16 0 27.5 6.5t19 17t11.5 23t5 23.5h106q-2 -24 -12 -53.5t-30 -55t-51 -43t-74 -17.5q-45 0 -76.5 17.5t-51.5 43t-29.5 55t-11.5 53.5h105z" />
    <glyph glyph-name="Ohungarumlaut" unicode="&#x150;" horiz-adv-x="478" 
d="M263 519q0 17 -8 22.5t-16 5.5t-17 -5.5t-9 -22.5v-342q0 -18 9 -23t17 -5t16 5t8 23v342zM438 182q0 -92 -52.5 -140t-146.5 -48q-96 0 -147.5 48t-51.5 140v333q0 46 14.5 81t40.5 58.5t62.5 35.5t81.5 12q199 0 199 -187v-333zM42 791l167 156l92 -108l-191 -126z
M271 791l167 156l92 -108l-191 -126z" />
    <glyph glyph-name="ohungarumlaut" unicode="&#x151;" horiz-adv-x="450" 
d="M227 506q42 0 72 -8t51 -21.5t34 -30.5t20 -36q5 -13 8 -32t5 -40.5t2.5 -44.5t0.5 -44q0 -38 -1.5 -63.5t-4.5 -50.5q-5 -44 -24.5 -71.5t-47.5 -43t-60 -21.5t-63 -6q-40 0 -70.5 10t-52.5 26t-35 36.5t-19 40.5q-3 12 -5.5 29t-4 36t-2 38.5t-0.5 36.5q0 45 5 90
t14 71q8 19 22.5 37t36 32t51 22t68.5 8zM226 366q-9 0 -13.5 -4.5t-6.5 -12.5q-3 -10 -3.5 -32.5t-1.5 -69.5q0 -38 0.5 -60.5t3.5 -34.5q5 -17 22 -17q8 0 13 5t7 12q2 6 3 33t1 61q0 31 -0.5 59t-2.5 42q-3 19 -22 19zM56 575l107 205l122 -74l-138 -182zM244 565
l107 205l122 -74l-138 -182z" />
    <glyph glyph-name="OE" unicode="&#x152;" horiz-adv-x="609" 
d="M239 -6q-96 0 -147.5 48t-51.5 140v333q0 46 14.5 81t40.5 58.5t62.5 35.5t81.5 12q34 0 64 -6h276v-150h-153v-117h130v-151h-130v-127h153v-151h-281q-27 -6 -59 -6zM239 547q-8 0 -17 -5.5t-9 -22.5v-342q0 -18 9 -23t17 -5q7 0 11 2v394q-8 2 -11 2z" />
    <glyph glyph-name="oe" unicode="&#x153;" horiz-adv-x="656" 
d="M440 -7q-67 0 -106 33q-27 -17 -56.5 -25t-58.5 -8q-42 0 -73 10t-52 26t-33.5 36.5t-18.5 40.5q-3 12 -5.5 29t-4 36t-2 38.5t-0.5 36.5q0 45 5 90t14 71q8 19 21.5 37t34.5 32t51 22t71 8q76 0 113 -34q17 17 45.5 25.5t64.5 8.5q38 0 71 -10.5t57 -31t38 -51t14 -69.5
v-127h-208v-33v-18t2 -15q3 -18 22 -18q14 0 19 7.5t7 30.5l159 -18q-8 -77 -54.5 -118.5t-136.5 -41.5zM226 366q-9 0 -13.5 -4.5t-6.5 -12.5q-3 -10 -3.5 -32.5t-1.5 -69.5q0 -38 0.5 -60.5t3.5 -34.5q5 -17 22 -17q8 0 13 5t7 12q2 6 3 33t1 61q0 31 -0.5 59t-2.5 42
q-3 19 -22 19zM446 371q-11 0 -17 -11q-4 -7 -5 -20.5t-1 -30.5h47q0 20 -1 34t-6 20q-4 5 -7 6.5t-10 1.5z" />
    <glyph glyph-name="Racute" unicode="&#x154;" horiz-adv-x="497" 
d="M212 0h-172v696h209q45 0 81.5 -11t62.5 -36t40 -65t14 -97q0 -62 -18 -101t-53 -67l96 -319h-174l-71 273h-15v-273zM212 552v-132h10q18 0 32 13.5t14 50.5q0 29 -8 48.5t-35 19.5h-13zM141 801l187 131l76 -120l-207 -98z" />
    <glyph glyph-name="racute" unicode="&#x155;" horiz-adv-x="351" 
d="M45 495h171v-54h2q19 38 50.5 50.5t57.5 12.5h15v-170q-13 2 -20 2h-14q-43 0 -67 -20.5t-24 -72.5v-243h-171v495zM80 577l107 205l122 -71l-138 -182z" />
    <glyph glyph-name="Rcommaaccent" unicode="&#x156;" horiz-adv-x="497" 
d="M212 0h-172v696h209q45 0 81.5 -11t62.5 -36t40 -65t14 -97q0 -62 -18 -101t-53 -67l96 -319h-174l-71 273h-15v-273zM212 552v-132h10q18 0 32 13.5t14 50.5q0 29 -8 48.5t-35 19.5h-13zM267 -285h-94l29 111h-25v136h146v-133z" />
    <glyph glyph-name="rcommaaccent" unicode="&#x157;" horiz-adv-x="351" 
d="M45 495h171v-54h2q19 38 50.5 50.5t57.5 12.5h15v-170q-13 2 -20 2h-14q-43 0 -67 -20.5t-24 -72.5v-243h-171v495zM141 -302h-94l29 111h-25v136h146v-133z" />
    <glyph glyph-name="Rcaron" unicode="&#x158;" horiz-adv-x="497" 
d="M212 0h-172v696h209q45 0 81.5 -11t62.5 -36t40 -65t14 -97q0 -62 -18 -101t-53 -67l96 -319h-174l-71 273h-15v-273zM212 552v-132h10q18 0 32 13.5t14 50.5q0 29 -8 48.5t-35 19.5h-13zM335 929l66 -63l-125 -142h-119l-128 142l59 62l126 -87z" />
    <glyph glyph-name="rcaron" unicode="&#x159;" horiz-adv-x="361" 
d="M55 495h171v-54h2q19 38 50.5 50.5t57.5 12.5h15v-170q-13 2 -20 2h-14q-43 0 -67 -20.5t-24 -72.5v-243h-171v495zM297 752l70 -60l-129 -165h-119l-134 166l65 58l126 -107z" />
    <glyph glyph-name="Sacute" unicode="&#x15a;" horiz-adv-x="455" 
d="M430 209q0 -49 -11 -88.5t-35.5 -67.5t-64.5 -43.5t-97 -15.5q-52 0 -89 16.5t-61 44t-35 63.5t-11 75l172 15q-1 -20 1 -31.5t6 -17.5t8.5 -8t9.5 -2q16 0 22 14t6 40q0 31 -12 49.5t-43 31.5q-54 22 -87.5 46t-52 50t-25 56t-6.5 64q0 44 12 81t37 64t63 42t91 15
q57 0 94 -17.5t59.5 -45.5t31.5 -62.5t9 -68.5l-174 -17q1 29 -3.5 43t-20.5 14q-15 0 -20 -13t-5 -31q0 -10 2 -19t9 -18t20.5 -18t36.5 -18q51 -20 82.5 -42.5t49.5 -49t24.5 -58.5t6.5 -72zM122 801l187 131l76 -120l-207 -98z" />
    <glyph glyph-name="sacute" unicode="&#x15b;" horiz-adv-x="427" 
d="M182 168q0 -42 29 -42q11 0 16 8.5t5 18.5q0 11 -5.5 18.5t-14 13t-19 9t-20.5 7.5q-27 10 -53 21t-45.5 27.5t-31.5 41t-12 62.5q0 32 12.5 60t36 48.5t58 32.5t78.5 12q52 0 86.5 -12t56 -33.5t30.5 -50.5t10 -62l-149 -11q1 20 -4.5 32.5t-22.5 12.5q-11 0 -17 -8.5
t-6 -15.5q0 -19 15 -27.5t34 -15.5q33 -11 61.5 -24t50 -31.5t34 -44.5t12.5 -63q0 -31 -10.5 -60t-34 -51t-61.5 -35t-93 -13q-82 0 -131 39t-52 117zM117 577l107 205l122 -71l-138 -182z" />
    <glyph glyph-name="Scircumflex" unicode="&#x15c;" horiz-adv-x="455" 
d="M430 209q0 -49 -11 -88.5t-35.5 -67.5t-64.5 -43.5t-97 -15.5q-52 0 -89 16.5t-61 44t-35 63.5t-11 75l172 15q-1 -20 1 -31.5t6 -17.5t8.5 -8t9.5 -2q16 0 22 14t6 40q0 31 -12 49.5t-43 31.5q-54 22 -87.5 46t-52 50t-25 56t-6.5 64q0 44 12 81t37 64t63 42t91 15
q57 0 94 -17.5t59.5 -45.5t31.5 -62.5t9 -68.5l-174 -17q1 29 -3.5 43t-20.5 14q-15 0 -20 -13t-5 -31q0 -10 2 -19t9 -18t20.5 -18t36.5 -18q51 -20 82.5 -42.5t49.5 -49t24.5 -58.5t6.5 -72zM218 798l-126 -87l-59 62l128 142h119l125 -142l-66 -63z" />
    <glyph glyph-name="scircumflex" unicode="&#x15d;" horiz-adv-x="427" 
d="M182 168q0 -42 29 -42q11 0 16 8.5t5 18.5q0 11 -5.5 18.5t-14 13t-19 9t-20.5 7.5q-27 10 -53 21t-45.5 27.5t-31.5 41t-12 62.5q0 32 12.5 60t36 48.5t58 32.5t78.5 12q52 0 86.5 -12t56 -33.5t30.5 -50.5t10 -62l-149 -11q1 20 -4.5 32.5t-22.5 12.5q-11 0 -17 -8.5
t-6 -15.5q0 -19 15 -27.5t34 -15.5q33 -11 61.5 -24t50 -31.5t34 -44.5t12.5 -63q0 -31 -10.5 -60t-34 -51t-61.5 -35t-93 -13q-82 0 -131 39t-52 117zM213 627l-126 -107l-65 58l134 166h119l129 -165l-70 -60z" />
    <glyph glyph-name="Scedilla" unicode="&#x15e;" horiz-adv-x="455" 
d="M430 209q0 -44 -9 -81t-29 -64t-51.5 -44.5t-77.5 -22.5l-13 -34q31 -2 51 -11t31.5 -23t15.5 -31.5t3 -35.5q-1 -12 -7.5 -27.5t-21 -29t-37 -23t-55.5 -9.5q-8 0 -37 2t-66 19l20 67q24 -10 39.5 -12t27.5 -2q15 0 25 8.5t10 19.5q0 10 -6 17.5t-26 5.5l-45 33l22 65
q-45 4 -76.5 21.5t-52 44.5t-30 61t-9.5 70l172 15q-1 -20 1 -31.5t6 -17.5t8.5 -8t9.5 -2q16 0 22 14t6 40q0 31 -12 49.5t-43 31.5q-54 22 -87.5 46t-52 50t-25 56t-6.5 64q0 44 12 81t37 64t63 42t91 15q57 0 94 -17.5t59.5 -45.5t31.5 -62.5t9 -68.5l-174 -17
q1 29 -3.5 43t-20.5 14q-15 0 -20 -13t-5 -31q0 -10 2 -19t9 -18t20.5 -18t36.5 -18q51 -20 82.5 -42.5t49.5 -49t24.5 -58.5t6.5 -72z" />
    <glyph glyph-name="scedilla" unicode="&#x15f;" horiz-adv-x="427" 
d="M182 168q0 -42 29 -42q11 0 16 8.5t5 18.5q0 11 -5.5 18.5t-14 13t-19 9t-20.5 7.5q-27 10 -53 21t-45.5 27.5t-31.5 41t-12 62.5q0 32 12.5 60t36 48.5t58 32.5t78.5 12q52 0 86.5 -12t56 -33.5t30.5 -50.5t10 -62l-149 -11q1 20 -4.5 32.5t-22.5 12.5q-11 0 -17 -8.5
t-6 -15.5q0 -19 15 -27.5t34 -15.5q33 -11 61.5 -24t50 -31.5t34 -44.5t12.5 -63q0 -29 -9 -56t-29.5 -48.5t-53 -36t-78.5 -17.5l-12 -31q31 -2 51 -11t31.5 -23t15.5 -31.5t3 -35.5q-1 -12 -7.5 -27.5t-21 -29t-37 -23t-55.5 -9.5q-8 0 -37 2t-66 19l20 67
q24 -10 39.5 -12t27.5 -2q15 0 25 8.5t10 19.5q0 10 -6 17.5t-26 5.5l-45 33l22 65q-66 8 -104 46.5t-40 106.5z" />
    <glyph glyph-name="Scaron" unicode="&#x160;" horiz-adv-x="455" 
d="M430 209q0 -49 -11 -88.5t-35.5 -67.5t-64.5 -43.5t-97 -15.5q-52 0 -89 16.5t-61 44t-35 63.5t-11 75l172 15q-1 -20 1 -31.5t6 -17.5t8.5 -8t9.5 -2q16 0 22 14t6 40q0 31 -12 49.5t-43 31.5q-54 22 -87.5 46t-52 50t-25 56t-6.5 64q0 44 12 81t37 64t63 42t91 15
q57 0 94 -17.5t59.5 -45.5t31.5 -62.5t9 -68.5l-174 -17q1 29 -3.5 43t-20.5 14q-15 0 -20 -13t-5 -31q0 -10 2 -19t9 -18t20.5 -18t36.5 -18q51 -20 82.5 -42.5t49.5 -49t24.5 -58.5t6.5 -72zM349 929l66 -63l-125 -142h-119l-128 142l59 62l126 -87z" />
    <glyph glyph-name="scaron" unicode="&#x161;" horiz-adv-x="427" 
d="M182 168q0 -42 29 -42q11 0 16 8.5t5 18.5q0 11 -5.5 18.5t-14 13t-19 9t-20.5 7.5q-27 10 -53 21t-45.5 27.5t-31.5 41t-12 62.5q0 32 12.5 60t36 48.5t58 32.5t78.5 12q52 0 86.5 -12t56 -33.5t30.5 -50.5t10 -62l-149 -11q1 20 -4.5 32.5t-22.5 12.5q-11 0 -17 -8.5
t-6 -15.5q0 -19 15 -27.5t34 -15.5q33 -11 61.5 -24t50 -31.5t34 -44.5t12.5 -63q0 -31 -10.5 -60t-34 -51t-61.5 -35t-93 -13q-82 0 -131 39t-52 117zM338 752l70 -60l-129 -165h-119l-134 166l65 58l126 -107z" />
    <glyph glyph-name="Tcommaaccent" unicode="&#x162;" horiz-adv-x="410" 
d="M293 546v-546h-176v546h-107v150h390v-150h-107zM225 -305h-94l29 111h-25v136h146v-133z" />
    <glyph glyph-name="tcommaaccent" unicode="&#x163;" horiz-adv-x="328" 
d="M15 495h48v142h169v-142h63v-132h-63v-156q0 -24 8.5 -37.5t34.5 -13.5h23v-156h-57q-91 0 -135 39.5t-44 126.5v197h-47v132zM193 -305h-94l29 111h-25v136h146v-133z" />
    <glyph glyph-name="Tcaron" unicode="&#x164;" horiz-adv-x="410" 
d="M293 546v-546h-176v546h-107v150h390v-150h-107zM327 929l66 -63l-125 -142h-119l-128 142l59 62l126 -87z" />
    <glyph glyph-name="tcaron" unicode="&#x165;" horiz-adv-x="452" 
d="M393 524h-94l29 111h-25v136h146v-133zM10 495h48v142h169v-142h63v-132h-63v-156q0 -24 8.5 -37.5t34.5 -13.5h23v-156h-57q-91 0 -135 39.5t-44 126.5v197h-47v132z" />
    <glyph glyph-name="Tbar" unicode="&#x166;" horiz-adv-x="410" 
d="M293 546v-132h84v-128h-84v-286h-176v286h-79v128h79v132h-107v150h390v-150h-107z" />
    <glyph glyph-name="tbar" unicode="&#x167;" horiz-adv-x="328" 
d="M15 495h48v142h169v-142h63v-132h-63v-40h46v-113h-46v-3q0 -24 8.5 -37.5t34.5 -13.5h23v-156h-57q-91 0 -135 39.5t-44 126.5v44h-34v113h34v40h-47v132z" />
    <glyph glyph-name="Utilde" unicode="&#x168;" horiz-adv-x="478" 
d="M438 696v-514q0 -92 -52.5 -140t-146.5 -48q-96 0 -147.5 48t-51.5 140v514h173v-519q0 -18 9 -23t17 -5t16 5t8 23v519h175zM181 894q17 -1 32 -7t28.5 -12.5t25.5 -12t23 -5.5q14 0 29 9t31 32l76 -45q-22 -57 -54 -84.5t-63 -27.5q-17 0 -31.5 5.5t-27.5 12t-25.5 12
t-24.5 5.5q-14 0 -31 -6.5t-35 -32.5l-80 46q22 53 54 82t73 29z" />
    <glyph glyph-name="utilde" unicode="&#x169;" horiz-adv-x="461" 
d="M253 39q-24 -29 -53 -38.5t-51 -9.5q-35 0 -57 10t-35 27.5t-17.5 41t-4.5 50.5v375h172v-309q0 -17 5 -26t19 -9q15 0 19.5 11.5t4.5 22.5v310h171v-495h-171v38zM168 714q17 -1 32 -7t28.5 -12.5t25.5 -12t23 -5.5q14 0 29 9t31 32l76 -45q-22 -57 -54 -84.5t-63 -27.5
q-17 0 -31.5 5.5t-27.5 12t-25.5 12t-24.5 5.5q-14 0 -31 -6.5t-35 -32.5l-80 46q22 53 54 82t73 29z" />
    <glyph glyph-name="Umacron" unicode="&#x16a;" horiz-adv-x="478" 
d="M438 696v-514q0 -92 -52.5 -140t-146.5 -48q-96 0 -147.5 48t-51.5 140v514h173v-519q0 -18 9 -23t17 -5t16 5t8 23v519h175zM99 744v120h275v-120h-275z" />
    <glyph glyph-name="umacron" unicode="&#x16b;" horiz-adv-x="461" 
d="M253 39q-24 -29 -53 -38.5t-51 -9.5q-35 0 -57 10t-35 27.5t-17.5 41t-4.5 50.5v375h172v-309q0 -17 5 -26t19 -9q15 0 19.5 11.5t4.5 22.5v310h171v-495h-171v38zM94 566v120h275v-120h-275z" />
    <glyph glyph-name="Ubreve" unicode="&#x16c;" horiz-adv-x="478" 
d="M438 696v-514q0 -92 -52.5 -140t-146.5 -48q-96 0 -147.5 48t-51.5 140v514h173v-519q0 -18 9 -23t17 -5t16 5t8 23v519h175zM180 884q1 -11 4.5 -24t11 -24t18.5 -18t28 -7q16 0 27.5 7t19 18t11.5 24t5 24h106q-2 -24 -12 -53.5t-30 -54.5t-51 -42t-74 -17
q-45 0 -76.5 17t-51.5 42t-29.5 54.5t-11.5 53.5h105z" />
    <glyph glyph-name="ubreve" unicode="&#x16d;" horiz-adv-x="461" 
d="M253 39q-24 -29 -53 -38.5t-51 -9.5q-35 0 -57 10t-35 27.5t-17.5 41t-4.5 50.5v375h172v-309q0 -17 5 -26t19 -9q15 0 19.5 11.5t4.5 22.5v310h171v-495h-171v38zM168 700q1 -11 4.5 -23.5t11 -23t18.5 -17t28 -6.5q16 0 27.5 6.5t19 17t11.5 23t5 23.5h106
q-2 -24 -12 -53.5t-30 -55t-51 -43t-74 -17.5q-45 0 -76.5 17.5t-51.5 43t-29.5 55t-11.5 53.5h105z" />
    <glyph glyph-name="Uring" unicode="&#x16e;" horiz-adv-x="478" 
d="M438 696v-514q0 -92 -52.5 -140t-146.5 -48q-96 0 -147.5 48t-51.5 140v514h173v-519q0 -18 9 -23t17 -5t16 5t8 23v519h175zM115 828q0 24 9.5 45t26.5 36t39 24t48 9q25 0 47 -9t38.5 -24t26 -36t9.5 -45t-9.5 -45t-26 -36t-39 -24t-47.5 -9t-47.5 9t-39 24t-26 36
t-9.5 45zM275 828q0 14 -10.5 24.5t-26.5 10.5q-17 0 -27.5 -10.5t-10.5 -24.5t10.5 -25.5t27.5 -11.5q16 0 26.5 11.5t10.5 25.5z" />
    <glyph glyph-name="uring" unicode="&#x16f;" horiz-adv-x="461" 
d="M253 39q-24 -29 -53 -38.5t-51 -9.5q-35 0 -57 10t-35 27.5t-17.5 41t-4.5 50.5v375h172v-309q0 -17 5 -26t19 -9q15 0 19.5 11.5t4.5 22.5v310h171v-495h-171v38zM109 643q0 24 9.5 45t26.5 36t39 24t48 9q25 0 47 -9t38.5 -24t26 -36t9.5 -45t-9.5 -45t-26 -36t-39 -24
t-47.5 -9t-47.5 9t-39 24t-26 36t-9.5 45zM269 643q0 14 -10.5 24.5t-26.5 10.5q-17 0 -27.5 -10.5t-10.5 -24.5t10.5 -25.5t27.5 -11.5q16 0 26.5 11.5t10.5 25.5z" />
    <glyph glyph-name="Uhungarumlaut" unicode="&#x170;" horiz-adv-x="478" 
d="M438 696v-514q0 -92 -52.5 -140t-146.5 -48q-96 0 -147.5 48t-51.5 140v514h173v-519q0 -18 9 -23t17 -5t16 5t8 23v519h175zM43 791l167 156l92 -108l-191 -126zM272 791l167 156l92 -108l-191 -126z" />
    <glyph glyph-name="uhungarumlaut" unicode="&#x171;" horiz-adv-x="461" 
d="M253 39q-24 -29 -53 -38.5t-51 -9.5q-35 0 -57 10t-35 27.5t-17.5 41t-4.5 50.5v375h172v-309q0 -17 5 -26t19 -9q15 0 19.5 11.5t4.5 22.5v310h171v-495h-171v38zM47 575l107 205l122 -74l-138 -182zM235 565l107 205l122 -74l-138 -182z" />
    <glyph glyph-name="Uogonek" unicode="&#x172;" horiz-adv-x="478" 
d="M438 696v-514q0 -80 -39.5 -126.5t-111.5 -57.5q-20 -35 -25 -62t-5 -38q0 -20 13 -27.5t31 -7.5q10 0 23.5 1t29.5 6l22 -72q-29 -14 -59 -20.5t-53 -6.5q-54 0 -85.5 26t-31.5 78q0 21 12.5 55.5t40.5 66.5q-78 9 -119 56t-41 129v514h173v-519q0 -18 9 -23t17 -5t16 5
t8 23v519h175z" />
    <glyph glyph-name="uogonek" unicode="&#x173;" horiz-adv-x="461" 
d="M200 -123q0 22 13 56.5t42 66.5v38l-2 1q-24 -29 -53 -38.5t-51 -9.5q-35 0 -57 10t-35 27.5t-17.5 41t-4.5 50.5v375h172v-309q0 -17 5 -26t19 -9q15 0 19.5 11.5t4.5 22.5v310h171v-495h-86q-20 -35 -25 -62t-5 -38q0 -20 13 -27.5t31 -7.5q10 0 23.5 1t29.5 6l22 -72
q-29 -14 -59 -20.5t-53 -6.5q-54 0 -85.5 26t-31.5 78z" />
    <glyph glyph-name="Wcircumflex" unicode="&#x174;" horiz-adv-x="692" 
d="M345 319l-53 -319h-179l-103 696h182l29 -356h5l49 356h146l48 -350h5l26 350h182l-103 -696h-179l-51 319h-4zM346 806l-126 -87l-59 62l128 142h119l125 -142l-66 -63z" />
    <glyph glyph-name="wcircumflex" unicode="&#x175;" horiz-adv-x="695" 
d="M345 222l-28 -124l-22 -98h-178l-107 494h177l16 -139l14 -133h5l21 133l23 139h166l24 -139l21 -133h5l15 135l15 137h173l-106 -494h-178l-23 99l-28 123h-5zM346 627l-126 -107l-65 58l134 166h119l129 -165l-70 -60z" />
    <glyph glyph-name="Ycircumflex" unicode="&#x176;" horiz-adv-x="490" 
d="M247 457l46 239h184l-145 -438v-258h-177v258l-146 438h185l50 -239h3zM245 806l-126 -87l-59 62l128 142h119l125 -142l-66 -63z" />
    <glyph glyph-name="ycircumflex" unicode="&#x177;" horiz-adv-x="459" 
d="M231 191l16 140q5 35 9.5 82t9.5 82h183l-121 -529q-11 -47 -29.5 -77.5t-42.5 -48.5t-53 -25t-60 -7h-88v151h26q20 0 30.5 4.5t15.5 20.5l5 15l-127 496h185l20 -166l18 -139zM228 627l-126 -107l-65 58l134 166h119l129 -165l-70 -60z" />
    <glyph glyph-name="Ydieresis" unicode="&#x178;" horiz-adv-x="490" 
d="M247 457l46 239h184l-145 -438v-258h-177v258l-146 438h185l50 -239h3zM274 728v130h139v-130h-139zM80 728v130h138v-130h-138z" />
    <glyph glyph-name="Zacute" unicode="&#x179;" horiz-adv-x="411" 
d="M25 0v144l179 402h-173v150h355v-142l-181 -403h181v-151h-361zM115 801l187 131l76 -120l-207 -98z" />
    <glyph glyph-name="zacute" unicode="&#x17a;" horiz-adv-x="388" 
d="M25 0v130l145 234h-134v131h327v-121l-153 -238h153v-136h-338zM122 577l107 205l122 -71l-138 -182z" />
    <glyph glyph-name="Zdotaccent" unicode="&#x17b;" horiz-adv-x="411" 
d="M25 0v144l179 402h-173v150h355v-142l-181 -403h181v-151h-361zM139 726v130h164v-130h-164z" />
    <glyph glyph-name="zdotaccent" unicode="&#x17c;" horiz-adv-x="388" 
d="M25 0v130l145 234h-134v131h327v-121l-153 -238h153v-136h-338zM122 566v130h164v-130h-164z" />
    <glyph glyph-name="Zcaron" unicode="&#x17d;" horiz-adv-x="411" 
d="M25 0v144l179 402h-173v150h355v-142l-181 -403h181v-151h-361zM342 929l66 -63l-125 -142h-119l-128 142l59 62l126 -87z" />
    <glyph glyph-name="zcaron" unicode="&#x17e;" horiz-adv-x="388" 
d="M25 0v130l145 234h-134v131h327v-121l-153 -238h153v-136h-338zM323 752l70 -60l-129 -165h-119l-134 166l65 58l126 -107z" />
    <glyph glyph-name="florin" unicode="&#x192;" horiz-adv-x="480" 
d="M86 443h79l7 59q4 36 16 71.5t34.5 64.5t57.5 47t86 18q24 0 51 -4.5t54 -15.5l-26 -140q-14 5 -27.5 6.5t-16.5 1.5q-22 0 -37.5 -13t-19.5 -53l-4 -42h78v-130h-90l-12 -131q-5 -54 -14.5 -102t-29.5 -84t-53.5 -57t-86.5 -21q-23 0 -51.5 4t-67.5 21l33 131
q8 -1 12 -2t7 -1.5t6 -0.5h9q25 0 36.5 16.5t16.5 63.5l16 163h-63v130z" />
    <glyph glyph-name="Ohorn" unicode="&#x1a0;" horiz-adv-x="543" 
d="M438 182q0 -92 -52.5 -140t-146.5 -48q-96 0 -147.5 48t-51.5 140v333q0 46 14.5 81t40.5 58.5t62.5 35.5t81.5 12q109 0 159 -59q15 7 22 25.5t7 56.5v71h116v-99q0 -66 -28 -106.5t-78 -52.5q0 -6 0.5 -11.5t0.5 -11.5v-333zM263 519q0 17 -8 22.5t-16 5.5t-17 -5.5
t-9 -22.5v-342q0 -18 9 -23t17 -5t16 5t8 23v342z" />
    <glyph glyph-name="ohorn" unicode="&#x1a1;" horiz-adv-x="527" 
d="M227 506q60 0 96.5 -15.5t56.5 -39.5q14 7 20.5 23.5t6.5 49.5v79h116v-99q0 -67 -28.5 -107.5t-78.5 -51.5q2 -23 3 -48t1 -48q0 -38 -1.5 -63.5t-4.5 -50.5q-5 -44 -24.5 -71.5t-47.5 -43t-60 -21.5t-63 -6q-40 0 -70.5 10t-52.5 26t-35 36.5t-19 40.5q-3 12 -5.5 29
t-4 36t-2 38.5t-0.5 36.5q0 45 5 90t14 71q8 19 22.5 37t36 32t51 22t68.5 8zM226 366q-9 0 -13.5 -4.5t-6.5 -12.5q-3 -10 -3.5 -32.5t-1.5 -69.5q0 -38 0.5 -60.5t3.5 -34.5q5 -17 22 -17q8 0 13 5t7 12q2 6 3 33t1 61q0 31 -0.5 59t-2.5 42q-3 19 -22 19z" />
    <glyph glyph-name="Uhorn" unicode="&#x1af;" horiz-adv-x="596" 
d="M438 696v-54q22 2 32 18t10 62v74h116v-99q0 -80 -40 -122t-109 -42h-9v-351q0 -92 -52.5 -140t-146.5 -48q-96 0 -147.5 48t-51.5 140v514h173v-519q0 -18 9 -23t17 -5t16 5t8 23v519h175z" />
    <glyph glyph-name="uhorn" unicode="&#x1b0;" horiz-adv-x="592" 
d="M253 39q-24 -29 -53 -38.5t-51 -9.5q-35 0 -57 10t-35 27.5t-17.5 41t-4.5 50.5v375h172v-309q0 -17 5 -26t19 -9q15 0 19.5 11.5t4.5 22.5v310h171v-43q11 1 18.5 4.5t12.5 12t7.5 23t2.5 37.5v74h116v-99q0 -80 -40 -122t-109 -42h-8v-340h-171v38z" />
    <glyph glyph-name="AEacute" unicode="&#x1fc;" horiz-adv-x="731" 
d="M357 0v126h-131l-38 -126h-186l240 696h459v-150h-168v-117h145v-151h-145v-127h168v-151h-344zM351 534l-81 -265h87v265h-6zM354 801l187 131l76 -120l-207 -98z" />
    <glyph glyph-name="aeacute" unicode="&#x1fd;" horiz-adv-x="656" 
d="M440 -7q-89 0 -130 50q-36 -32 -68.5 -40.5t-64.5 -8.5q-82 0 -117 41t-35 107q0 34 10 64t32 52.5t56.5 35t82.5 12.5h41v38q0 11 -6.5 17.5t-18.5 6.5q-8 0 -18 -7.5t-17 -34.5l-150 42q7 37 25 63t43.5 42.5t57.5 24.5t67 8q66 0 110 -34q18 12 47 23t65 11
q38 0 70.5 -10.5t56.5 -31t37.5 -51t13.5 -69.5v-137h-208v-23v-18t2 -15q3 -18 22 -18q14 0 19 7.5t7 30.5l159 -18q-8 -77 -54.5 -118.5t-136.5 -41.5zM247 206h-15q-15 0 -27 -8.5t-12 -33.5q0 -31 27 -31t27 34v39zM446 371q-11 0 -17 -11q-4 -7 -5 -21.5t-1 -31.5h47
q0 20 -1 35t-6 21q-4 5 -7 6.5t-10 1.5zM249 577l107 205l122 -71l-138 -182z" />
    <glyph glyph-name="Oslashacute" unicode="&#x1fe;" horiz-adv-x="478" 
d="M48 17l23 49q-31 44 -31 116v333q0 46 14.5 81t40.5 58.5t62.5 35.5t81.5 12q72 0 118 -25l13 28l47 -21l-19 -40q40 -48 40 -129v-333q0 -92 -52.5 -140t-146.5 -48q-82 0 -132 35l-15 -32zM163 801l187 131l76 -120l-207 -98zM263 358l-50 -106v-75q0 -18 9 -23t17 -5
t16 5t8 23v181zM213 369l50 107v43q0 17 -8 22.5t-16 5.5t-17 -5.5t-9 -22.5v-150z" />
    <glyph glyph-name="oslashacute" unicode="&#x1ff;" horiz-adv-x="450" 
d="M227 506q41 0 70.5 -7.5t50.5 -20.5l24 35l38 -25l-28 -40q14 -16 22 -38q5 -13 8 -32t5 -40.5t2.5 -44.5t0.5 -44q0 -38 -1.5 -63.5t-4.5 -50.5q-5 -44 -24.5 -71.5t-47.5 -43t-60 -21.5t-63 -6q-42 0 -72.5 10t-52.5 27l-25 -37l-35 26l29 42v1q-15 21 -21 44
q-3 12 -5.5 29t-4 36t-2 38.5t-0.5 36.5q0 45 5 90t14 71q8 19 22.5 37t36 32t51 22t68.5 8zM136 577l107 205l122 -71l-138 -182zM247 152q2 6 3 33t1 61v11l-50 -72q2 -25 4 -33q5 -17 22 -17q8 0 13 5t7 12zM226 366q-9 0 -13.5 -4.5t-6.5 -12.5q-3 -9 -3.5 -28.5
t-1.5 -57.5l48 71q0 4 -0.5 7t-0.5 6q-3 19 -22 19z" />
    <glyph glyph-name="Scommaaccent" unicode="&#x218;" horiz-adv-x="455" 
d="M430 209q0 -49 -11 -88.5t-35.5 -67.5t-64.5 -43.5t-97 -15.5q-52 0 -89 16.5t-61 44t-35 63.5t-11 75l172 15q-1 -20 1 -31.5t6 -17.5t8.5 -8t9.5 -2q16 0 22 14t6 40q0 31 -12 49.5t-43 31.5q-54 22 -87.5 46t-52 50t-25 56t-6.5 64q0 44 12 81t37 64t63 42t91 15
q57 0 94 -17.5t59.5 -45.5t31.5 -62.5t9 -68.5l-174 -17q1 29 -3.5 43t-20.5 14q-15 0 -20 -13t-5 -31q0 -10 2 -19t9 -18t20.5 -18t36.5 -18q51 -20 82.5 -42.5t49.5 -49t24.5 -58.5t6.5 -72zM256 -305h-94l29 111h-25v136h146v-133z" />
    <glyph glyph-name="scommaaccent" unicode="&#x219;" horiz-adv-x="427" 
d="M182 168q0 -42 29 -42q11 0 16 8.5t5 18.5q0 11 -5.5 18.5t-14 13t-19 9t-20.5 7.5q-27 10 -53 21t-45.5 27.5t-31.5 41t-12 62.5q0 32 12.5 60t36 48.5t58 32.5t78.5 12q52 0 86.5 -12t56 -33.5t30.5 -50.5t10 -62l-149 -11q1 20 -4.5 32.5t-22.5 12.5q-11 0 -17 -8.5
t-6 -15.5q0 -19 15 -27.5t34 -15.5q33 -11 61.5 -24t50 -31.5t34 -44.5t12.5 -63q0 -31 -10.5 -60t-34 -51t-61.5 -35t-93 -13q-82 0 -131 39t-52 117zM234 -305h-94l29 111h-25v136h146v-133z" />
    <glyph glyph-name="schwa" unicode="&#x259;" horiz-adv-x="434" 
d="M219 507q42 0 73 -10t52 -26t33 -36.5t18 -40.5q8 -30 10 -67.5t2 -72.5q0 -45 -5 -86.5t-17 -73.5q-8 -20 -20.5 -38t-33.5 -32t-51 -22t-71 -8q-38 0 -71 10.5t-57 31t-38 51t-14 69.5v127h208v33v18t-2 15q-3 18 -22 18q-14 0 -19 -7.5t-7 -30.5l-159 18
q8 77 54.5 118.5t136.5 41.5zM213 129q11 0 17 11q4 7 5 20.5t1 30.5h-47q0 -20 1 -34t6 -20q4 -5 7 -6.5t10 -1.5z" />
    <glyph glyph-name="primemod" unicode="&#x2b9;" horiz-adv-x="266" 
d="M305 706l-148 -319l-116 43l109 322z" />
    <glyph glyph-name="circumflex" unicode="&#x2c6;" horiz-adv-x="416" 
d="M211 627l-126 -107l-65 58l134 166h119l129 -165l-70 -60z" />
    <glyph glyph-name="caron" unicode="&#x2c7;" horiz-adv-x="423" 
d="M332 752l70 -60l-129 -165h-119l-134 166l65 58l126 -107z" />
    <glyph glyph-name="breve" unicode="&#x2d8;" horiz-adv-x="472" 
d="M177 700q1 -11 4.5 -23.5t11 -23t18.5 -17t28 -6.5q16 0 27.5 6.5t19 17t11.5 23t5 23.5h106q-2 -24 -12 -53.5t-30 -55t-51 -43t-74 -17.5q-45 0 -76.5 17.5t-51.5 43t-29.5 55t-11.5 53.5h105z" />
    <glyph glyph-name="dotaccent" unicode="&#x2d9;" horiz-adv-x="408" 
d="M119 566v130h164v-130h-164z" />
    <glyph glyph-name="ring" unicode="&#x2da;" horiz-adv-x="408" 
d="M78 643q0 24 9.5 45t26.5 36t39 24t48 9q25 0 47 -9t38.5 -24t26 -36t9.5 -45t-9.5 -45t-26 -36t-39 -24t-47.5 -9t-47.5 9t-39 24t-26 36t-9.5 45zM238 643q0 14 -10.5 24.5t-26.5 10.5q-17 0 -27.5 -10.5t-10.5 -24.5t10.5 -25.5t27.5 -11.5q16 0 26.5 11.5t10.5 25.5z
" />
    <glyph glyph-name="ogonek" unicode="&#x2db;" horiz-adv-x="395" 
d="M205 -125q0 12 4 28t12 34t20 36.5t29 35.5h77l3 -4q-23 -37 -29 -66t-6 -41q0 -20 13 -27.5t31 -7.5q10 0 23.5 1t29.5 6l22 -72q-29 -14 -59 -20.5t-53 -6.5q-54 0 -85.5 26t-31.5 78z" />
    <glyph glyph-name="tilde" unicode="&#x2dc;" horiz-adv-x="391" 
d="M136 714q17 -1 32 -7t28.5 -12.5t25.5 -12t23 -5.5q14 0 29 9t31 32l76 -45q-22 -57 -54 -84.5t-63 -27.5q-17 0 -31.5 5.5t-27.5 12t-25.5 12t-24.5 5.5q-14 0 -31 -6.5t-35 -32.5l-80 46q22 53 54 82t73 29z" />
    <glyph glyph-name="hungarumlaut" unicode="&#x2dd;" horiz-adv-x="497" 
d="M52 575l107 205l122 -74l-138 -182zM240 565l107 205l122 -74l-138 -182z" />
    <glyph glyph-name="tonos" unicode="&#x384;" horiz-adv-x="385" 
d="M104 575l107 205l122 -74l-138 -182z" />
    <glyph glyph-name="dieresistonos" unicode="&#x385;" horiz-adv-x="539" 
d="M375 547v130h139v-130h-139zM31 547v130h138v-130h-138zM178 562l81 216l131 -58l-115 -198z" />
    <glyph glyph-name="Alphatonos" unicode="&#x386;" horiz-adv-x="511" 
d="M309 126h-109l-17 -126h-177l140 696h216l141 -696h-176zM221 269h68l-12 87l-19 136h-6l-19 -137zM-153 535l107 205l122 -74l-138 -182z" />
    <glyph glyph-name="anoteleia" unicode="&#x387;" horiz-adv-x="260" 
d="M47 265v150h165v-150h-165z" />
    <glyph glyph-name="Epsilontonos" unicode="&#x388;" horiz-adv-x="429" 
d="M40 0v696h359v-150h-183v-117h160v-151h-160v-127h183v-151h-359zM-215 535l107 205l122 -74l-138 -182z" />
    <glyph glyph-name="Etatonos" unicode="&#x389;" horiz-adv-x="489" 
d="M274 0v278h-58v-278h-176v696h176v-266h58v266h175v-696h-175zM-212 535l107 205l122 -74l-138 -182z" />
    <glyph glyph-name="Iotatonos" unicode="&#x38a;" horiz-adv-x="276" 
d="M50 0v696h176v-696h-176zM-201 535l107 205l122 -74l-138 -182z" />
    <glyph glyph-name="Omicrontonos" unicode="&#x38c;" horiz-adv-x="478" 
d="M263 519q0 17 -8 22.5t-16 5.5t-17 -5.5t-9 -22.5v-342q0 -18 9 -23t17 -5t16 5t8 23v342zM438 182q0 -92 -52.5 -140t-146.5 -48q-96 0 -147.5 48t-51.5 140v333q0 46 14.5 81t40.5 58.5t62.5 35.5t81.5 12q199 0 199 -187v-333zM-190 535l107 205l122 -74l-138 -182z
" />
    <glyph glyph-name="Upsilontonos" unicode="&#x38e;" horiz-adv-x="490" 
d="M247 457l46 239h184l-145 -438v-258h-177v258l-146 438h185l50 -239h3zM-227 535l107 205l122 -74l-138 -182z" />
    <glyph glyph-name="Omegatonos" unicode="&#x38f;" horiz-adv-x="486" 
d="M440 244q0 -62 -36 -94h47v-150h-200v156q17 8 17 38v313q0 20 -5.5 30.5t-21.5 10.5q-29 0 -29 -41v-315q0 -17 4.5 -24.5t15.5 -11.5v-156h-198v150h43q-21 15 -27.5 38.5t-6.5 55.5v281q0 45 16 78.5t43 55.5t63 33t76 11q43 0 80 -11t63 -33t41 -55.5t15 -78.5v-281z
M-180 535l107 205l122 -74l-138 -182z" />
    <glyph glyph-name="iotadieresistonos" unicode="&#x390;" horiz-adv-x="371" 
d="M293 -3q-58 -5 -98 -0.5t-65 21t-36 46.5t-11 77v354h170v-312q0 -29 8 -36.5t32 -8.5v-141zM273 547v130h139v-130h-139zM-71 547v130h138v-130h-138zM76 562l81 216l131 -58l-115 -198z" />
    <glyph glyph-name="Alpha" unicode="&#x391;" horiz-adv-x="511" 
d="M309 126h-109l-17 -126h-177l140 696h216l141 -696h-176zM221 269h68l-12 87l-19 136h-6l-19 -137z" />
    <glyph glyph-name="Beta" unicode="&#x392;" horiz-adv-x="482" 
d="M264 497q0 28 -9 41t-35 13h-7v-116h9q28 0 35 18.5t7 43.5zM270 223q0 39 -10 55.5t-34 16.5h-13v-149h13q26 0 35 19t9 58zM365 364q24 -8 39.5 -23t25 -34.5t13.5 -42.5t4 -47q0 -112 -49 -164.5t-146 -52.5h-212v696h215q186 0 186 -190q0 -21 -4.5 -42.5t-13.5 -40
t-23.5 -33t-34.5 -21.5v-5z" />
    <glyph glyph-name="Gamma" unicode="&#x393;" horiz-adv-x="414" 
d="M216 546v-546h-176v696h359v-150h-183z" />
    <glyph glyph-name="Delta" unicode="&#x394;" horiz-adv-x="511" 
d="M6 0l140 696h216l141 -696h-497zM228 320l-24 -169h100l-23 172l-23 174h-6z" />
    <glyph glyph-name="Delta" unicode="&#x2206;" horiz-adv-x="511" 
d="M6 0l140 696h216l141 -696h-497zM228 320l-24 -169h100l-23 172l-23 174h-6z" />
    <glyph glyph-name="Epsilon" unicode="&#x395;" horiz-adv-x="429" 
d="M40 0v696h359v-150h-183v-117h160v-151h-160v-127h183v-151h-359z" />
    <glyph glyph-name="Zeta" unicode="&#x396;" horiz-adv-x="411" 
d="M25 0v144l179 402h-173v150h355v-142l-181 -403h181v-151h-361z" />
    <glyph glyph-name="Eta" unicode="&#x397;" horiz-adv-x="489" 
d="M274 0v278h-58v-278h-176v696h176v-266h58v266h175v-696h-175z" />
    <glyph glyph-name="Theta" unicode="&#x398;" horiz-adv-x="478" 
d="M438 182q0 -92 -52.5 -140t-146.5 -48q-96 0 -147.5 48t-51.5 140v333q0 46 14.5 81t40.5 58.5t62.5 35.5t81.5 12q199 0 199 -187v-333zM239 149q8 0 16 5t8 23v110h-50v-110q0 -18 9 -23t17 -5zM263 519q0 17 -8 22.5t-16 5.5t-17 -5.5t-9 -22.5v-100h50v100z" />
    <glyph glyph-name="Iota" unicode="&#x399;" horiz-adv-x="276" 
d="M50 0v696h176v-696h-176z" />
    <glyph glyph-name="Kappa" unicode="&#x39a;" horiz-adv-x="524" 
d="M341 410l175 -410h-187l-91 229l-22 -39v-190h-176v696h176v-180h7l95 180h185z" />
    <glyph glyph-name="Lambda" unicode="&#x39b;" horiz-adv-x="511" 
d="M183 0h-177l140 696h216l141 -696h-176l-45 305l-24 170h-6l-24 -180z" />
    <glyph glyph-name="Mu" unicode="&#x39c;" horiz-adv-x="658" 
d="M263 136l-21 76l-25 94h-5v-306h-172v696h184l49 -151l53 -157h6l51 153l51 155h184v-696h-173v303h-4l-25 -94l-20 -73h-133z" />
    <glyph glyph-name="Nu" unicode="&#x39d;" horiz-adv-x="518" 
d="M309 414v282h169v-696h-152l-56 148l-54 140h-5v-288h-171v696h155l49 -129l60 -153h5z" />
    <glyph glyph-name="Xi" unicode="&#x39e;" horiz-adv-x="448" 
d="M36 542v154h377v-154h-377zM66 276v154h316v-154h-316zM31 0v156h387v-156h-387z" />
    <glyph glyph-name="Omicron" unicode="&#x39f;" horiz-adv-x="478" 
d="M263 519q0 17 -8 22.5t-16 5.5t-17 -5.5t-9 -22.5v-342q0 -18 9 -23t17 -5t16 5t8 23v342zM438 182q0 -92 -52.5 -140t-146.5 -48q-96 0 -147.5 48t-51.5 140v333q0 46 14.5 81t40.5 58.5t62.5 35.5t81.5 12q199 0 199 -187v-333z" />
    <glyph glyph-name="Pi" unicode="&#x3a0;" horiz-adv-x="498" 
d="M283 0v544h-67v-544h-176v696h418v-696h-175z" />
    <glyph glyph-name="Rho" unicode="&#x3a1;" horiz-adv-x="463" 
d="M249 696q42 0 77.5 -9.5t61.5 -33.5t40.5 -64.5t14.5 -102.5q0 -107 -48.5 -164t-145.5 -57h-37v-265h-172v696h209zM212 551v-141h13q23 0 35.5 18t12.5 59q0 29 -10 46.5t-36 17.5h-15z" />
    <glyph glyph-name="Sigma" unicode="&#x3a3;" horiz-adv-x="411" 
d="M210 151h181v-151h-361v144l88 215l-91 195v142h358v-150h-176l86 -187z" />
    <glyph glyph-name="Tau" unicode="&#x3a4;" horiz-adv-x="410" 
d="M293 546v-546h-176v546h-107v150h390v-150h-107z" />
    <glyph glyph-name="Upsilon" unicode="&#x3a5;" horiz-adv-x="490" 
d="M247 457l46 239h184l-145 -438v-258h-177v258l-146 438h185l50 -239h3z" />
    <glyph glyph-name="Phi" unicode="&#x3a6;" horiz-adv-x="677" 
d="M253 54q-54 3 -94 20.5t-66.5 47t-39.5 68.5t-13 84v172q0 45 13 84t39.5 68t66.5 46.5t94 20.5v31h169v-31q54 -1 94 -18.5t67 -46.5t40.5 -68.5t13.5 -85.5v-172q0 -45 -14.5 -84t-42 -68.5t-67.5 -47t-91 -20.5v-54h-169v54zM466 471q0 16 -7 31.5t-37 16.5v-320
q27 2 35.5 16.5t8.5 31.5v224zM210 247q0 -17 9.5 -31.5t33.5 -16.5v320q-26 -2 -34.5 -17t-8.5 -31v-224z" />
    <glyph glyph-name="Chi" unicode="&#x3a7;" horiz-adv-x="524" 
d="M259 204l-61 -204h-185l144 363l-134 333h186l51 -172h6l48 172h187l-138 -333l148 -363h-187l-61 204h-4z" />
    <glyph glyph-name="Psi" unicode="&#x3a8;" horiz-adv-x="668" 
d="M247 161q-103 6 -157.5 60t-54.5 146v329h171v-336q0 -18 9 -30t32 -14h1v379h173v-379q22 1 31.5 13.5t9.5 30.5v336h171v-329q0 -92 -55.5 -146t-156.5 -60v-161h-173v161h-1z" />
    <glyph glyph-name="Omega" unicode="&#x3a9;" horiz-adv-x="486" 
d="M440 244q0 -62 -36 -94h47v-150h-200v156q17 8 17 38v313q0 20 -5.5 30.5t-21.5 10.5q-29 0 -29 -41v-315q0 -17 4.5 -24.5t15.5 -11.5v-156h-198v150h43q-21 15 -27.5 38.5t-6.5 55.5v281q0 45 16 78.5t43 55.5t63 33t76 11q43 0 80 -11t63 -33t41 -55.5t15 -78.5v-281
v0z" />
    <glyph glyph-name="Iotadieresis" unicode="&#x3aa;" horiz-adv-x="276" 
d="M50 0v696h176v-696h-176zM169 728v130h139v-130h-139zM-25 728v130h138v-130h-138z" />
    <glyph glyph-name="Upsilondieresis" unicode="&#x3ab;" horiz-adv-x="490" 
d="M247 457l46 239h184l-145 -438v-258h-177v258l-146 438h185l50 -239h3zM274 728v130h139v-130h-139zM80 728v130h138v-130h-138z" />
    <glyph glyph-name="alphatonos" unicode="&#x3ac;" horiz-adv-x="458" 
d="M227 135q14 0 21 17q3 7 3.5 24t0.5 40v49q0 26 -0.5 45.5t-2.5 27.5q-3 18 -22 18q-8 0 -14 -5.5t-6 -12.5q-2 -6 -3 -28.5t-1 -57.5q0 -30 0.5 -57t3.5 -41q2 -8 7 -13.5t13 -5.5zM248 28q-20 -21 -44 -28.5t-49 -7.5q-31 0 -51.5 7.5t-33.5 20t-20 28.5t-11 34
q-3 12 -4.5 31t-2.5 41.5t-1.5 46.5t-0.5 45q0 38 1.5 69.5t3.5 48.5q8 75 44 106t90 31q16 0 40.5 -6.5t41.5 -29.5h3v30h169v-495h-172v28h-3zM147 575l107 205l122 -74l-138 -182z" />
    <glyph glyph-name="epsilontonos" unicode="&#x3ad;" horiz-adv-x="431" 
d="M89 257q-18 8 -29 20t-16.5 24.5t-7.5 25.5t-2 22q0 33 12.5 61.5t36 49.5t58 33.5t79.5 12.5q48 0 88 -17.5t63 -50.5q28 -40 28 -104l-153 -13q0 27 -6 36t-18 9q-7 0 -13.5 -6.5t-6.5 -14.5v-17q0 -9 5 -18.5t25 -9.5h32v-102h-36q-16 0 -21 -9t-5 -19v-13
q0 -9 6 -15.5t14 -6.5t17.5 7.5t9.5 33.5l157 -16q-2 -26 -9.5 -55.5t-25.5 -50.5q-24 -28 -63 -43.5t-90 -15.5q-39 0 -73.5 9t-60 28t-40 48t-14.5 69q0 32 13 60t46 45v3zM135 575l107 205l122 -74l-138 -182z" />
    <glyph glyph-name="etatonos" unicode="&#x3ae;" horiz-adv-x="461" 
d="M130 575l107 205l122 -74l-138 -182zM208 456q24 29 54.5 38.5t52.5 9.5q35 0 56.5 -10t33.5 -27.5t16.5 -41t4.5 -50.5v-375h-172v312q0 17 -5 26t-19 9q-15 0 -19.5 -11.5t-4.5 -22.5v-313h-171v495h171v-38z" />
    <glyph glyph-name="iotatonos" unicode="&#x3af;" horiz-adv-x="290" 
d="M260 -3q-58 -5 -98 -0.5t-65 21t-36 46.5t-11 77v354h170v-312q0 -29 8 -36.5t32 -8.5v-141zM53 575l107 205l122 -74l-138 -182z" />
    <glyph glyph-name="upsilondieresistonos" unicode="&#x3b0;" horiz-adv-x="450" 
d="M420 495v-246q0 -38 -1.5 -63.5t-4.5 -50.5q-5 -44 -24.5 -71.5t-47.5 -43t-60 -21.5t-63 -6q-40 0 -70.5 10t-52.5 26t-35 36.5t-19 40.5q-3 12 -5.5 29t-4 36t-2 38.5t-0.5 36.5l1 251h171v-22t-0.5 -43t0 -54.5t0 -55.5t-0.5 -46.5v-28.5q0 -38 0.5 -60.5t3.5 -34.5
q5 -17 22 -17q8 0 13 5t7 12q2 6 3 33t1 61v25.5v45.5v55v55t-0.5 44.5t-0.5 23.5h170zM328 547v130h139v-130h-139zM-16 547v130h138v-130h-138zM131 562l81 216l131 -58l-115 -198z" />
    <glyph glyph-name="alpha" unicode="&#x3b1;" horiz-adv-x="458" 
d="M227 135q14 0 21 17q3 7 3.5 24t0.5 40v49q0 26 -0.5 45.5t-2.5 27.5q-3 18 -22 18q-8 0 -14 -5.5t-6 -12.5q-2 -6 -3 -28.5t-1 -57.5q0 -30 0.5 -57t3.5 -41q2 -8 7 -13.5t13 -5.5zM248 28q-20 -21 -44 -28.5t-49 -7.5q-31 0 -51.5 7.5t-33.5 20t-20 28.5t-11 34
q-3 12 -4.5 31t-2.5 41.5t-1.5 46.5t-0.5 45q0 38 1.5 69.5t3.5 48.5q8 75 44 106t90 31q16 0 40.5 -6.5t41.5 -29.5h3v30h169v-495h-172v28h-3z" />
    <glyph glyph-name="beta" unicode="&#x3b2;" horiz-adv-x="459" 
d="M225 134q8 0 17 5t11 22q3 22 3 70q0 40 -1.5 59.5t-7.5 30.5q-5 8 -10.5 10.5t-16.5 3.5v122q12 2 20.5 11.5t8.5 34.5v54q0 10 -6.5 18t-17.5 8q-10 0 -17 -9q-3 -4 -4.5 -18.5t-1.5 -59.5v-281q0 -23 0.5 -41t1.5 -23q2 -7 7.5 -12t13.5 -5zM35 504q0 48 13 93.5
t44 75.5q23 23 57 36t78 13q103 0 152 -61q19 -23 28.5 -58.5t9.5 -73.5q0 -41 -10.5 -70.5t-36.5 -52.5v-3q22 -11 37 -36.5t20 -74.5q2 -15 2 -28.5v-33.5q0 -23 -0.5 -45t-2 -42t-3.5 -36.5t-5 -26.5q-11 -45 -43 -68.5t-79 -22.5q-25 0 -48 7t-43 24h-3v-181h-167v665z
" />
    <glyph glyph-name="gamma" unicode="&#x3b3;" horiz-adv-x="469" 
d="M64 294q-7 27 -15 39.5t-28 8.5q-2 0 -3.5 -0.5t-3.5 -0.5l-17 149q12 4 25.5 7t27 5t25 2.5t19.5 0.5q31 0 52.5 -10.5t35 -29.5t21 -44t11.5 -55l19 -132h4q8 70 18 132t21 128h184q-16 -63 -35 -125.5t-38 -126t-37 -128t-33 -131.5v-185h-171v179z" />
    <glyph glyph-name="delta" unicode="&#x3b4;" horiz-adv-x="451" 
d="M420 233q0 -29 -1.5 -51t-4.5 -47q-5 -44 -24.5 -71.5t-47.5 -43t-60 -21.5t-63 -6q-40 0 -70.5 10t-52.5 26t-35 36.5t-19 40.5q-3 12 -5.5 28.5t-4 33.5t-2 33.5t-0.5 28.5q0 16 1.5 35t3.5 38t5.5 36t8.5 30q9 22 26 41.5t43 33.5q-34 27 -49 57t-15 65q0 73 51 116
t160 43q9 0 23.5 -0.5t31 -1t33 -2t30.5 -3.5l-10 -139q-35 4 -47.5 4.5t-23.5 0.5q-44 0 -63.5 -10.5t-19.5 -29.5q0 -11 24.5 -25.5t54.5 -31.5q37 -23 61 -44t37.5 -45t18.5 -53.5t5 -69.5v-42zM227 135q8 0 13 5t7 12q2 6 3 25t1 53q0 31 -0.5 48t-2.5 31q-3 22 -22 30
q-11 -5 -15 -14t-6 -17t-2.5 -12t-0.5 -11t-0.5 -19t-0.5 -35q0 -38 0.5 -52.5t3.5 -26.5q5 -17 22 -17z" />
    <glyph glyph-name="epsilon" unicode="&#x3b5;" horiz-adv-x="431" 
d="M89 257q-18 8 -29 20t-16.5 24.5t-7.5 25.5t-2 22q0 33 12.5 61.5t36 49.5t58 33.5t79.5 12.5q48 0 88 -17.5t63 -50.5q28 -40 28 -104l-153 -13q0 27 -6 36t-18 9q-7 0 -13.5 -6.5t-6.5 -14.5v-17q0 -9 5 -18.5t25 -9.5h32v-102h-36q-16 0 -21 -9t-5 -19v-13
q0 -9 6 -15.5t14 -6.5t17.5 7.5t9.5 33.5l157 -16q-2 -26 -9.5 -55.5t-25.5 -50.5q-24 -28 -63 -43.5t-90 -15.5q-39 0 -73.5 9t-60 28t-40 48t-14.5 69q0 32 13 60t46 45v3z" />
    <glyph glyph-name="zeta" unicode="&#x3b6;" horiz-adv-x="409" 
d="M30 158q0 54 37.5 103t111.5 103h-125v131h345v-118q-103 -63 -150 -112.5t-47 -90.5q0 -20 22.5 -32t62.5 -29q45 -20 72 -41.5t27 -55.5q0 -10 -3 -28t-14 -42t-32.5 -54.5t-57.5 -65.5l-100 67q26 38 32 53.5t6 19.5q0 11 -6.5 16t-23.5 12q-28 11 -56 23t-50.5 30
t-36.5 44.5t-14 66.5z" />
    <glyph glyph-name="eta" unicode="&#x3b7;" horiz-adv-x="461" 
d="M208 456q24 29 54.5 38.5t52.5 9.5q35 0 56.5 -10t33.5 -27.5t16.5 -41t4.5 -50.5v-375h-172v312q0 17 -5 26t-19 9q-15 0 -19.5 -11.5t-4.5 -22.5v-313h-171v495h171v-38z" />
    <glyph glyph-name="theta" unicode="&#x3b8;" horiz-adv-x="453" 
d="M228 724q39 0 68.5 -7.5t50.5 -20.5t34.5 -29.5t20.5 -35.5q5 -14 9 -35.5t6.5 -53t4 -74.5t1.5 -101q0 -63 -1 -103t-2.5 -65.5t-3.5 -40t-4 -26.5q-8 -46 -28.5 -73.5t-48 -41.5t-58 -18.5t-57.5 -4.5q-41 0 -71.5 9.5t-52 24.5t-34 34.5t-18.5 39.5q-3 12 -6 31
t-4.5 47.5t-2.5 68t-1 92.5q0 64 1.5 110.5t4.5 80.5t7 56.5t10 37.5q15 40 58 69t117 29zM203 272q-1 -58 0 -84t3 -33q2 -8 8.5 -12t13.5 -4q6 0 13 4.5t9 11.5q1 4 1.5 10t1 18.5t0.5 34v56.5v30h-50v-32zM252 435v28q0 31 -1 61.5t-3 44.5q-2 8 -8.5 12t-11.5 4
q-14 0 -20 -14q-2 -6 -3 -30.5t-2 -58.5v-47h49z" />
    <glyph glyph-name="iota" unicode="&#x3b9;" horiz-adv-x="290" 
d="M260 -3q-58 -5 -98 -0.5t-65 21t-36 46.5t-11 77v354h170v-312q0 -29 8 -36.5t32 -8.5v-141z" />
    <glyph glyph-name="kappa" unicode="&#x3ba;" horiz-adv-x="486" 
d="M340 311l136 -311h-185l-63 159l-23 -31v-128h-170v494h170v-116l4 -1l74 117h193z" />
    <glyph glyph-name="lambda" unicode="&#x3bb;" horiz-adv-x="435" 
d="M212 206l-17 -96l-22 -110h-167l135 474l-18 81q-5 24 -16.5 35.5t-49.5 10.5v122q23 5 51.5 7.5t42.5 2.5q31 0 52 -6.5t36 -21t24.5 -38t17.5 -57.5l106 -459q5 -18 14 -23.5t26 -7.5l1 -119q-15 -3 -38.5 -4.5t-39.5 -1.5q-20 0 -38 4t-32.5 15t-26 29.5t-17.5 48.5
l-21 114h-3z" />
    <glyph glyph-name="nu" unicode="&#x3bd;" horiz-adv-x="469" 
d="M241 194l12 111l25 189h181l-123 -494h-203l-123 494h184l25 -183l15 -117h7z" />
    <glyph glyph-name="xi" unicode="&#x3be;" horiz-adv-x="380" 
d="M215 726q90 0 136.5 -42.5t46.5 -128.5l-157 -17v15q0 37 -22 37q-13 0 -19 -16q-3 -9 -4 -21t-1 -28q0 -19 1.5 -33t7 -23.5t17 -14t31.5 -4.5h75v-130h-57q-24 0 -38 -9t-20.5 -23.5t-8.5 -32t-2 -33.5q0 -21 4.5 -34.5t15 -24t26 -20t38.5 -22.5q31 -18 50.5 -31.5
t30.5 -25.5t14.5 -24.5t3.5 -27.5q0 -11 -3.5 -28t-15 -40.5t-32.5 -53.5t-56 -67l-103 70q21 35 30 53.5t9 29.5q0 8 -10.5 15t-18.5 12q-41 23 -70.5 41t-48 39t-27 50t-8.5 74v14q0 49 12 91t50 67q-21 10 -33 26.5t-18 37t-7.5 41.5t-1.5 40q0 50 10 89t36 66
q45 47 137 47z" />
    <glyph glyph-name="omicron" unicode="&#x3bf;" horiz-adv-x="450" 
d="M227 506q42 0 72 -8t51 -21.5t34 -30.5t20 -36q5 -13 8 -32t5 -40.5t2.5 -44.5t0.5 -44q0 -38 -1.5 -63.5t-4.5 -50.5q-5 -44 -24.5 -71.5t-47.5 -43t-60 -21.5t-63 -6q-40 0 -70.5 10t-52.5 26t-35 36.5t-19 40.5q-3 12 -5.5 29t-4 36t-2 38.5t-0.5 36.5q0 45 5 90
t14 71q8 19 22.5 37t36 32t51 22t68.5 8zM226 366q-9 0 -13.5 -4.5t-6.5 -12.5q-3 -10 -3.5 -32.5t-1.5 -69.5q0 -38 0.5 -60.5t3.5 -34.5q5 -17 22 -17q8 0 13 5t7 12q2 6 3 33t1 61q0 31 -0.5 59t-2.5 42q-3 19 -22 19z" />
    <glyph glyph-name="pi" unicode="&#x3c0;" horiz-adv-x="461" 
d="M426 495v-495h-172v364h-48v-364h-171v495h391z" />
    <glyph glyph-name="rho" unicode="&#x3c1;" horiz-adv-x="458" 
d="M429 246q0 -21 -0.5 -45t-2 -46.5t-3.5 -41.5t-5 -31q-4 -18 -12 -34.5t-21.5 -29.5t-34 -21t-49.5 -8q-25 0 -46 7t-41 24h-3v-211h-172v437q0 45 5 90t14 71q8 19 22.5 37t36 32t51 22t68.5 8q42 0 72 -8t51 -21.5t34 -30.5t20 -36q5 -13 8 -32.5t5 -41.5t2.5 -45.5
t0.5 -44.5zM235 366q-9 0 -13.5 -4.5t-6.5 -12.5q-3 -10 -3.5 -32.5t-1.5 -69.5q0 -38 0.5 -60.5t3.5 -34.5q5 -17 22 -17q8 0 13 5t7 12q2 6 3 33t1 61q0 31 -0.5 59t-2.5 42q-3 19 -22 19z" />
    <glyph glyph-name="sigma1" unicode="&#x3c2;" horiz-adv-x="424" 
d="M221 506q101 0 144.5 -47.5t43.5 -128.5l-157 -12q0 27 -6.5 37.5t-17.5 10.5q-14 0 -20 -12q-3 -6 -4.5 -16t-2 -22.5t-0.5 -26.5v-26q0 -20 0.5 -41t2.5 -33q5 -22 22.5 -35.5t50.5 -32.5q31 -18 50.5 -31.5t30.5 -25.5t14.5 -24.5t3.5 -27.5q0 -11 -3.5 -28t-15 -40.5
t-32.5 -53.5t-56 -67l-103 70q21 35 30 53.5t9 29.5q0 8 -10.5 15t-18.5 12q-41 23 -69 41t-45 39t-24.5 50t-7.5 74q0 69 5 123.5t17 80.5q9 20 23 37.5t34.5 30t48 20t63.5 7.5z" />
    <glyph glyph-name="sigma" unicode="&#x3c3;" horiz-adv-x="474" 
d="M454 495v-131h-58q14 -23 19 -56.5t5 -64.5q0 -38 -1.5 -60.5t-4.5 -47.5q-5 -44 -24.5 -71.5t-47.5 -43t-60 -21.5t-63 -6q-40 0 -70.5 10t-52.5 26t-35 36.5t-19 40.5q-7 24 -9.5 61.5t-2.5 72.5q0 45 4.5 87.5t14.5 68.5q7 17 20 34.5t34 32t50.5 23.5t68.5 9h232z
M226 350q-9 0 -13.5 -4.5t-6.5 -12.5q-2 -5 -2.5 -11t-1 -16.5t-1 -26t-0.5 -38.5q0 -38 0.5 -57.5t3.5 -31.5q5 -17 22 -17q8 0 13 5t7 12q2 6 3 30t1 58q0 31 -0.5 49.5t-2.5 32.5q-2 11 -7.5 19.5t-14.5 8.5z" />
    <glyph glyph-name="tau" unicode="&#x3c4;" horiz-adv-x="355" 
d="M13 495h312v-132h-79v-156q0 -24 8.5 -37.5t34.5 -13.5h26v-156h-60q-91 0 -135 39.5t-44 126.5v197h-63v132z" />
    <glyph glyph-name="upsilon" unicode="&#x3c5;" horiz-adv-x="450" 
d="M420 495v-246q0 -38 -1.5 -63.5t-4.5 -50.5q-5 -44 -24.5 -71.5t-47.5 -43t-60 -21.5t-63 -6q-40 0 -70.5 10t-52.5 26t-35 36.5t-19 40.5q-3 12 -5.5 29t-4 36t-2 38.5t-0.5 36.5l1 251h171v-22t-0.5 -43t0 -54.5t0 -55.5t-0.5 -46.5v-28.5q0 -38 0.5 -60.5t3.5 -34.5
q5 -17 22 -17q8 0 13 5t7 12q2 6 3 33t1 61v25.5v45.5v55v55t-0.5 44.5t-0.5 23.5h170z" />
    <glyph glyph-name="phi" unicode="&#x3c6;" horiz-adv-x="639" 
d="M237 -7q-37 0 -75 10t-68 34q-20 17 -34 41.5t-19 59.5q-2 12 -3 22.5t-1.5 21.5t-1 24.5t-0.5 32.5q0 21 0.5 44t2.5 44t5 39.5t8 31.5q11 31 41.5 57.5t86.5 35.5l42 -133q-15 -3 -16 -18q-2 -18 -2.5 -43.5t-0.5 -56.5q0 -34 0.5 -57.5t2.5 -29.5q2 -11 9 -17.5
t24 -7.5l-1 375h164q39 0 70 -9t54 -23t38 -32t22 -37q5 -13 8.5 -31.5t6 -39.5t3.5 -44t1 -44q0 -19 -0.5 -33t-1.5 -26t-2.5 -23t-2.5 -23q-2 -24 -12.5 -47t-25.5 -39q-29 -31 -68.5 -43.5t-83.5 -15.5v-184h-170v184zM438 246q0 31 -1 59t-3 42t-16 18q-2 1 -7 1h-7
v-236q24 0 31 19q2 6 2.5 34.5t0.5 62.5z" />
    <glyph glyph-name="chi" unicode="&#x3c7;" horiz-adv-x="466" 
d="M230 140l-40 -140h-180l118 253l-112 245h183l36 -120h4l35 120h176l-114 -245l120 -253h-179l-43 140h-4z" />
    <glyph glyph-name="psi" unicode="&#x3c8;" horiz-adv-x="659" 
d="M246 495h168v-365q16 5 26 14t15 26q2 8 3 31t1 45q0 9 0.5 33t0.5 57.5v74.5v84h164v-238q0 -38 -1.5 -63.5t-4.5 -50.5q-5 -42 -26 -70t-50.5 -45.5t-63 -25.5t-64.5 -9l1 -184h-169v184q-31 1 -65 9t-63.5 25t-50.5 45.5t-26 70.5q-3 25 -4.5 50.5t-1.5 63.5v238h165
v-249v-19.5t0.5 -23t1 -21.5t2.5 -16q5 -18 15.5 -26t26.5 -10v365z" />
    <glyph glyph-name="omega" unicode="&#x3c9;" horiz-adv-x="650" 
d="M252 345h146v-188q0 -12 6.5 -17t12.5 -5q7 0 13.5 4t8.5 12q4 12 4.5 34.5t0.5 59.5q-1 41 -2 71t-4 38q-7 17 -27 17l4 135q38 1 67.5 -6.5t52 -21t37.5 -32t23 -37.5q6 -13 9.5 -32.5t6 -41.5t3.5 -45t1 -44q0 -17 -1 -37.5t-2.5 -40.5t-4 -37.5t-5.5 -29.5
q-6 -20 -17 -39.5t-30 -34.5t-45 -24.5t-62 -9.5q-15 0 -32.5 3.5t-34 10t-31.5 16.5t-25 24q-10 -14 -25 -24t-31.5 -16.5t-34 -10t-32.5 -3.5q-36 0 -62 9.5t-45 24.5t-30 34.5t-17 39.5q-3 12 -5.5 29.5t-4 37.5t-2.5 40.5t-1 37.5q0 21 1 44t3.5 45t6 41.5t9.5 32.5
q8 19 23 37.5t37.5 32t52 21t67.5 6.5l4 -135q-20 0 -27 -17q-3 -8 -4 -38t-2 -71q0 -37 0.5 -59.5t4.5 -34.5q2 -8 8.5 -12t13.5 -4q6 0 12.5 5t6.5 17v188z" />
    <glyph glyph-name="iotadieresis" unicode="&#x3ca;" horiz-adv-x="290" 
d="M260 -3q-58 -5 -98 -0.5t-65 21t-36 46.5t-11 77v354h170v-312q0 -29 8 -36.5t32 -8.5v-141zM164 547v130h139v-130h-139zM-30 547v130h138v-130h-138z" />
    <glyph glyph-name="upsilondieresis" unicode="&#x3cb;" horiz-adv-x="450" 
d="M420 495v-246q0 -38 -1.5 -63.5t-4.5 -50.5q-5 -44 -24.5 -71.5t-47.5 -43t-60 -21.5t-63 -6q-40 0 -70.5 10t-52.5 26t-35 36.5t-19 40.5q-3 12 -5.5 29t-4 36t-2 38.5t-0.5 36.5l1 251h171v-22t-0.5 -43t0 -54.5t0 -55.5t-0.5 -46.5v-28.5q0 -38 0.5 -60.5t3.5 -34.5
q5 -17 22 -17q8 0 13 5t7 12q2 6 3 33t1 61v25.5v45.5v55v55t-0.5 44.5t-0.5 23.5h170zM255 547v130h139v-130h-139zM61 547v130h138v-130h-138z" />
    <glyph glyph-name="omicrontonos" unicode="&#x3cc;" horiz-adv-x="450" 
d="M227 506q42 0 72 -8t51 -21.5t34 -30.5t20 -36q5 -13 8 -32t5 -40.5t2.5 -44.5t0.5 -44q0 -38 -1.5 -63.5t-4.5 -50.5q-5 -44 -24.5 -71.5t-47.5 -43t-60 -21.5t-63 -6q-40 0 -70.5 10t-52.5 26t-35 36.5t-19 40.5q-3 12 -5.5 29t-4 36t-2 38.5t-0.5 36.5q0 45 5 90
t14 71q8 19 22.5 37t36 32t51 22t68.5 8zM226 366q-9 0 -13.5 -4.5t-6.5 -12.5q-3 -10 -3.5 -32.5t-1.5 -69.5q0 -38 0.5 -60.5t3.5 -34.5q5 -17 22 -17q8 0 13 5t7 12q2 6 3 33t1 61q0 31 -0.5 59t-2.5 42q-3 19 -22 19zM143 575l107 205l122 -74l-138 -182z" />
    <glyph glyph-name="upsilontonos" unicode="&#x3cd;" horiz-adv-x="450" 
d="M420 495v-246q0 -38 -1.5 -63.5t-4.5 -50.5q-5 -44 -24.5 -71.5t-47.5 -43t-60 -21.5t-63 -6q-40 0 -70.5 10t-52.5 26t-35 36.5t-19 40.5q-3 12 -5.5 29t-4 36t-2 38.5t-0.5 36.5l1 251h171v-22t-0.5 -43t0 -54.5t0 -55.5t-0.5 -46.5v-28.5q0 -38 0.5 -60.5t3.5 -34.5
q5 -17 22 -17q8 0 13 5t7 12q2 6 3 33t1 61v25.5v45.5v55v55t-0.5 44.5t-0.5 23.5h170zM136 575l107 205l122 -74l-138 -182z" />
    <glyph glyph-name="omegatonos" unicode="&#x3ce;" horiz-adv-x="650" 
d="M252 345h146v-188q0 -12 6.5 -17t12.5 -5q7 0 13.5 4t8.5 12q4 12 4.5 34.5t0.5 59.5q-1 41 -2 71t-4 38q-7 17 -27 17l4 135q38 1 67.5 -6.5t52 -21t37.5 -32t23 -37.5q6 -13 9.5 -32.5t6 -41.5t3.5 -45t1 -44q0 -17 -1 -37.5t-2.5 -40.5t-4 -37.5t-5.5 -29.5
q-6 -20 -17 -39.5t-30 -34.5t-45 -24.5t-62 -9.5q-15 0 -32.5 3.5t-34 10t-31.5 16.5t-25 24q-10 -14 -25 -24t-31.5 -16.5t-34 -10t-32.5 -3.5q-36 0 -62 9.5t-45 24.5t-30 34.5t-17 39.5q-3 12 -5.5 29.5t-4 37.5t-2.5 40.5t-1 37.5q0 21 1 44t3.5 45t6 41.5t9.5 32.5
q8 19 23 37.5t37.5 32t52 21t67.5 6.5l4 -135q-20 0 -27 -17q-3 -8 -4 -38t-2 -71q0 -37 0.5 -59.5t4.5 -34.5q2 -8 8.5 -12t13.5 -4q6 0 12.5 5t6.5 17v188zM241 575l107 205l122 -74l-138 -182z" />
    <glyph glyph-name="afii10023" unicode="&#x401;" horiz-adv-x="429" 
d="M40 0v696h359v-150h-183v-117h160v-151h-160v-127h183v-151h-359zM245 728v130h139v-130h-139zM51 728v130h138v-130h-138z" />
    <glyph glyph-name="afii10051" unicode="&#x402;" horiz-adv-x="542" 
d="M278 546v-119h3q24 19 52.5 29.5t56.5 10.5q35 0 59 -11t39 -29t22 -41.5t7 -49.5v-242q0 -43 -8.5 -74.5t-28 -52.5t-52 -31.5t-80.5 -10.5h-38v144q17 0 24.5 9.5t7.5 33.5v139q0 19 -6.5 29t-24.5 10q-16 0 -33 -14v-276h-175v546h-99v150h424v-150h-150z" />
    <glyph glyph-name="afii10052" unicode="&#x403;" horiz-adv-x="414" 
d="M216 546v-546h-176v696h359v-150h-183zM104 801l187 131l76 -120l-207 -98z" />
    <glyph glyph-name="afii10053" unicode="&#x404;" horiz-adv-x="460" 
d="M240 702q50 0 86 -15t59 -40t34 -57.5t11 -67.5v-11.5t-1 -11.5l-162 -19q2 32 -5 51t-24 19q-15 0 -20.5 -11.5t-5.5 -26.5v-88h132v-141h-132v-104q0 -14 6.5 -23.5t20.5 -9.5q12 0 21 16t8 54l167 -12q0 -41 -10 -79t-32.5 -67t-60.5 -46.5t-94 -17.5q-94 0 -146 46.5
t-52 134.5v344q0 83 52 133t148 50z" />
    <glyph glyph-name="afii10054" unicode="&#x405;" horiz-adv-x="455" 
d="M430 209q0 -49 -11 -88.5t-35.5 -67.5t-64.5 -43.5t-97 -15.5q-52 0 -89 16.5t-61 44t-35 63.5t-11 75l172 15q-1 -20 1 -31.5t6 -17.5t8.5 -8t9.5 -2q16 0 22 14t6 40q0 31 -12 49.5t-43 31.5q-54 22 -87.5 46t-52 50t-25 56t-6.5 64q0 44 12 81t37 64t63 42t91 15
q57 0 94 -17.5t59.5 -45.5t31.5 -62.5t9 -68.5l-174 -17q1 29 -3.5 43t-20.5 14q-15 0 -20 -13t-5 -31q0 -10 2 -19t9 -18t20.5 -18t36.5 -18q51 -20 82.5 -42.5t49.5 -49t24.5 -58.5t6.5 -72z" />
    <glyph glyph-name="afii10055" unicode="&#x406;" horiz-adv-x="276" 
d="M50 0v696h176v-696h-176z" />
    <glyph glyph-name="afii10056" unicode="&#x407;" horiz-adv-x="276" 
d="M50 0v696h176v-696h-176zM164 726v130h139v-130h-139zM-30 726v130h138v-130h-138z" />
    <glyph glyph-name="afii10057" unicode="&#x408;" horiz-adv-x="441" 
d="M391 696v-527q0 -82 -53.5 -128.5t-146.5 -46.5q-57 0 -103.5 20t-86.5 77l113 108q20 -25 36.5 -35.5t30.5 -10.5q12 0 18.5 4.5t10.5 10.5t5 13t1 12v503h175z" />
    <glyph glyph-name="afii10058" unicode="&#x409;" horiz-adv-x="755" 
d="M501 696v-261h38q102 0 149 -54t47 -161q0 -59 -14.5 -101t-40.5 -68.5t-61.5 -38.5t-76.5 -12h-216l-1 546h-48v-248q0 -72 -11.5 -124t-36.5 -89.5t-64 -63.5t-94 -45l-67 135q34 20 54.5 39t32 41.5t15.5 52t4 71.5l-1 381h392zM513 145q24 0 35 21t11 58q0 31 -11 48
t-39 17h-8v-144h12z" />
    <glyph glyph-name="afii10059" unicode="&#x40a;" horiz-adv-x="709" 
d="M275 0v288h-59v-288h-176v696h176v-261h59v261h175v-261h38q102 0 149 -54t47 -161q0 -59 -14.5 -101t-40.5 -68.5t-61.5 -38.5t-76.5 -12h-216zM462 145q24 0 35 21t11 58q0 31 -11 48t-39 17h-8v-144h12z" />
    <glyph glyph-name="afii10060" unicode="&#x40b;" horiz-adv-x="542" 
d="M278 546v-119h3q24 19 52.5 29.5t56.5 10.5q35 0 59 -11t39 -29t22 -41.5t7 -49.5v-336h-175v251q0 19 -6.5 29t-24.5 10q-16 0 -33 -14v-276h-175v546h-99v150h424v-150h-150z" />
    <glyph glyph-name="afii10061" unicode="&#x40c;" horiz-adv-x="514" 
d="M361 359q37 -14 59 -41.5t32 -77.5l47 -240h-181l-37 199q-8 46 -18 64t-39 18h-8v-281h-176v697h176v-276h4q24 0 36.5 18.5t20.5 61.5l37 193h174l-42 -212q-9 -49 -32.5 -78.5t-51.5 -41.5zM171 801l187 131l76 -120l-207 -98z" />
    <glyph glyph-name="afii10062" unicode="&#x40e;" horiz-adv-x="487" 
d="M257 423l20 129l23 144h182l-130 -540q-12 -52 -29.5 -84.5t-40 -51t-51 -25t-62.5 -6.5h-87v149h37q13 0 27 6t23 30q-38 129 -82 260.5t-82 260.5h189l31 -139l28 -133h4zM184 881q1 -11 4.5 -23.5t11 -23t18.5 -17t28 -6.5q16 0 27.5 6.5t19 17t11.5 23t5 23.5h106
q-2 -24 -12 -53.5t-30 -55t-51 -43t-74 -17.5q-45 0 -76.5 17.5t-51.5 43t-29.5 55t-11.5 53.5h105z" />
    <glyph glyph-name="afii10145" unicode="&#x40f;" horiz-adv-x="495" 
d="M455 696v-696h-135v-146h-136l1 146h-145v696h176v-545h63v545h176z" />
    <glyph glyph-name="afii10017" unicode="&#x410;" horiz-adv-x="511" 
d="M309 126h-109l-17 -126h-177l140 696h216l141 -696h-176zM221 269h68l-12 87l-19 136h-6l-19 -137z" />
    <glyph glyph-name="afii10018" unicode="&#x411;" horiz-adv-x="474" 
d="M40 696h360v-150h-185v-111h38q102 0 149 -54t47 -161q0 -59 -14.5 -101t-40.5 -68.5t-61.5 -38.5t-76.5 -12h-216v696zM227 145q24 0 35 21t11 58q0 31 -11 48t-39 17h-8v-144h12z" />
    <glyph glyph-name="afii10019" unicode="&#x412;" horiz-adv-x="482" 
d="M264 497q0 28 -9 41t-35 13h-7v-116h9q28 0 35 18.5t7 43.5zM270 223q0 39 -10 55.5t-34 16.5h-13v-149h13q26 0 35 19t9 58zM365 364q24 -8 39.5 -23t25 -34.5t13.5 -42.5t4 -47q0 -112 -49 -164.5t-146 -52.5h-212v696h215q186 0 186 -190q0 -21 -4.5 -42.5t-13.5 -40
t-23.5 -33t-34.5 -21.5v-5z" />
    <glyph glyph-name="afii10020" unicode="&#x413;" horiz-adv-x="414" 
d="M216 546v-546h-176v696h359v-150h-183z" />
    <glyph glyph-name="afii10021" unicode="&#x414;" horiz-adv-x="577" 
d="M157 0v-140h-143v284l51 8q27 30 35.5 65.5t10.5 80.5l15 398h384v-546h52v-290h-144v140h-261zM270 297q-2 -45 -7.5 -84.5t-19.5 -62.5h99v418h-63z" />
    <glyph glyph-name="afii10022" unicode="&#x415;" horiz-adv-x="429" 
d="M40 0v696h359v-150h-183v-117h160v-151h-160v-127h183v-151h-359z" />
    <glyph glyph-name="afii10024" unicode="&#x416;" horiz-adv-x="762" 
d="M157 362q-28 12 -51.5 41.5t-32.5 78.5l-42 212h174l38 -202q8 -43 18 -57t28 -14h4v276h176v-276h4q18 0 28 14t18 57l38 202h174l-42 -212q-9 -49 -32.5 -78.5t-51.5 -41.5v-4q36 -14 58 -41t32 -77l47 -240h-181l-38 210q-7 36 -15 53.5t-31 17.5h-8v-281h-176v281h-8
q-23 0 -31 -17.5t-15 -53.5l-38 -210h-181l47 240q9 49 31 76.5t57 41.5z" />
    <glyph glyph-name="afii10025" unicode="&#x417;" horiz-adv-x="442" 
d="M176 212q1 -36 9.5 -51.5t24.5 -15.5q19 0 24 21.5t5 50.5q0 24 -3 38.5t-9.5 22t-16 9.5t-21.5 2h-36v136h38q47 0 47 76q0 6 -0.5 14.5t-3.5 16t-8.5 13t-14.5 5.5q-17 0 -25 -17.5t-9 -48.5l-158 32q9 91 62 138.5t138 47.5q52 0 87.5 -15t58 -41t32.5 -62t10 -78
q0 -13 -1.5 -32t-7 -40t-17.5 -41t-33 -34q38 -19 51 -58t13 -89q0 -117 -52.5 -167.5t-146.5 -50.5q-96 0 -145 52t-53 136z" />
    <glyph glyph-name="afii10026" unicode="&#x418;" horiz-adv-x="518" 
d="M214 384l114 312h150v-696h-171v308h-5l-115 -308h-147v696h169v-312h5z" />
    <glyph glyph-name="afii10027" unicode="&#x419;" horiz-adv-x="518" 
d="M202 883q1 -11 4.5 -23.5t11 -23t18.5 -17t28 -6.5q16 0 27.5 6.5t19 17t11.5 23t5 23.5h106q-2 -24 -12 -53.5t-30 -55t-51 -43t-74 -17.5q-45 0 -76.5 17.5t-51.5 43t-29.5 55t-11.5 53.5h105zM214 384l114 312h150v-696h-171v308h-5l-115 -308h-147v696h169v-312h5z
" />
    <glyph glyph-name="afii10028" unicode="&#x41a;" horiz-adv-x="514" 
d="M361 359q37 -14 59 -41.5t32 -77.5l47 -240h-181l-37 199q-8 46 -18 64t-39 18h-8v-281h-176v697h176v-276h4q24 0 36.5 18.5t20.5 61.5l37 193h174l-42 -212q-9 -49 -32.5 -78.5t-51.5 -41.5z" />
    <glyph glyph-name="afii10029" unicode="&#x41b;" horiz-adv-x="548" 
d="M508 0h-175l-1 546h-56v-248q0 -72 -11.5 -124t-36.5 -89.5t-64 -63.5t-94 -45l-67 135q34 20 54.5 39t32 41.5t15.5 52t4 71.5l-1 381h400v-696z" />
    <glyph glyph-name="afii10030" unicode="&#x41c;" horiz-adv-x="658" 
d="M263 136l-21 76l-25 94h-5v-306h-172v696h184l49 -151l53 -157h6l51 153l51 155h184v-696h-173v303h-4l-25 -94l-20 -73h-133z" />
    <glyph glyph-name="afii10031" unicode="&#x41d;" horiz-adv-x="489" 
d="M274 0v278h-58v-278h-176v696h176v-266h58v266h175v-696h-175z" />
    <glyph glyph-name="afii10032" unicode="&#x41e;" horiz-adv-x="478" 
d="M263 519q0 17 -8 22.5t-16 5.5t-17 -5.5t-9 -22.5v-342q0 -18 9 -23t17 -5t16 5t8 23v342zM438 182q0 -92 -52.5 -140t-146.5 -48q-96 0 -147.5 48t-51.5 140v333q0 46 14.5 81t40.5 58.5t62.5 35.5t81.5 12q199 0 199 -187v-333z" />
    <glyph glyph-name="afii10033" unicode="&#x41f;" horiz-adv-x="498" 
d="M283 0v544h-67v-544h-176v696h418v-696h-175z" />
    <glyph glyph-name="afii10034" unicode="&#x420;" horiz-adv-x="463" 
d="M249 696q42 0 77.5 -9.5t61.5 -33.5t40.5 -64.5t14.5 -102.5q0 -107 -48.5 -164t-145.5 -57h-37v-265h-172v696h209zM212 551v-141h13q23 0 35.5 18t12.5 59q0 29 -10 46.5t-36 17.5h-15z" />
    <glyph glyph-name="afii10035" unicode="&#x421;" horiz-adv-x="460" 
d="M240 702q50 0 86 -15t59 -40t34 -57.5t11 -67.5v-11.5t-1 -11.5l-162 -19q2 32 -5 51t-24 19q-15 0 -20.5 -11.5t-5.5 -26.5v-333q0 -14 6.5 -23.5t20.5 -9.5q12 0 21 16t8 54l167 -12q0 -41 -10 -79t-32.5 -67t-60.5 -46.5t-94 -17.5q-94 0 -146 46.5t-52 134.5v344
q0 83 52 133t148 50z" />
    <glyph glyph-name="afii10036" unicode="&#x422;" horiz-adv-x="410" 
d="M293 546v-546h-176v546h-107v150h390v-150h-107z" />
    <glyph glyph-name="afii10037" unicode="&#x423;" horiz-adv-x="487" 
d="M257 423l20 129l23 144h182l-130 -540q-12 -52 -29.5 -84.5t-40 -51t-51 -25t-62.5 -6.5h-87v149h37q13 0 27 6t23 30q-38 129 -82 260.5t-82 260.5h189l31 -139l28 -133h4z" />
    <glyph glyph-name="afii10038" unicode="&#x424;" horiz-adv-x="677" 
d="M253 54q-54 3 -94 20.5t-66.5 47t-39.5 68.5t-13 84v172q0 45 13 84t39.5 68t66.5 46.5t94 20.5v31h169v-31q54 -1 94 -18.5t67 -46.5t40.5 -68.5t13.5 -85.5v-172q0 -45 -14.5 -84t-42 -68.5t-67.5 -47t-91 -20.5v-54h-169v54zM466 471q0 16 -7 31.5t-37 16.5v-320
q27 2 35.5 16.5t8.5 31.5v224zM210 247q0 -17 9.5 -31.5t33.5 -16.5v320q-26 -2 -34.5 -17t-8.5 -31v-224z" />
    <glyph glyph-name="afii10039" unicode="&#x425;" horiz-adv-x="524" 
d="M259 204l-61 -204h-185l144 363l-134 333h186l51 -172h6l48 172h187l-138 -333l148 -363h-187l-61 204h-4z" />
    <glyph glyph-name="afii10040" unicode="&#x426;" horiz-adv-x="541" 
d="M453 696v-545l73 -1l-1 -288h-143v138h-342v696h176v-546h62v546h175z" />
    <glyph glyph-name="afii10041" unicode="&#x427;" horiz-adv-x="484" 
d="M275 267h-3q-21 -15 -51 -22.5t-58 -7.5q-36 0 -60.5 11t-39.5 29t-21 41.5t-6 49.5v328h175v-251q0 -19 6.5 -29t24.5 -10q16 0 33 14v276h175v-696h-175v267z" />
    <glyph glyph-name="afii10042" unicode="&#x428;" horiz-adv-x="710" 
d="M670 0h-630v696h176v-546h51v546h176v-546h52v546h175v-696z" />
    <glyph glyph-name="afii10043" unicode="&#x429;" horiz-adv-x="758" 
d="M599 0h-559v696h176v-546h51v546h176v-546h52v546h175v-546h73v-288h-144v138z" />
    <glyph glyph-name="afii10044" unicode="&#x42a;" horiz-adv-x="586" 
d="M10 696h312v-261h38q102 0 149 -54t47 -161q0 -59 -14.5 -101t-40.5 -68.5t-61.5 -38.5t-76.5 -12h-216v546h-137v150zM334 145q24 0 35 21t11 58q0 31 -11 48t-39 17h-8v-144h12z" />
    <glyph glyph-name="afii10045" unicode="&#x42b;" horiz-adv-x="706" 
d="M40 696h175v-261h38q102 0 149 -54t47 -161q0 -59 -14.5 -101t-40.5 -68.5t-61.5 -38.5t-76.5 -12h-216v696zM227 145q24 0 35 21t11 58q0 31 -11 48t-39 17h-8v-144h12zM490 0v696h176v-696h-176z" />
    <glyph glyph-name="afii10046" unicode="&#x42c;" horiz-adv-x="474" 
d="M40 696h175v-261h38q102 0 149 -54t47 -161q0 -59 -14.5 -101t-40.5 -68.5t-61.5 -38.5t-76.5 -12h-216v696zM227 145q24 0 35 21t11 58q0 31 -11 48t-39 17h-8v-144h12z" />
    <glyph glyph-name="afii10047" unicode="&#x42d;" horiz-adv-x="465" 
d="M235 702q49 0 85 -13t59.5 -37t34.5 -58t11 -75v-344q0 -88 -52 -134.5t-146 -46.5q-56 0 -94 17.5t-60.5 46.5t-32.5 67t-10 79l167 12q-1 -38 8 -54t21 -16q14 0 20.5 9.5t6.5 23.5v105h-132v141h132v87q0 15 -5.5 26.5t-20.5 11.5q-17 0 -24 -19t-5 -51l-162 19
q-1 39 10 75t35 64.5t62 46t92 17.5z" />
    <glyph glyph-name="afii10048" unicode="&#x42e;" horiz-adv-x="682" 
d="M40 696h176v-266h49v84q0 93 52 140t137 47q188 0 188 -187v-332q0 -92 -49.5 -140t-138.5 -48q-91 0 -140 48t-49 140v97h-49v-279h-176v696zM476 518q0 17 -7 22.5t-15 5.5t-16.5 -5.5t-8.5 -22.5v-341q0 -18 8.5 -23t16.5 -5t15 5t7 23v341z" />
    <glyph glyph-name="afii10049" unicode="&#x42f;" horiz-adv-x="505" 
d="M290 273h-16q-18 -4 -23.5 -22.5t-12.5 -58.5l-36 -192h-177l46 233q6 32 20 55.5t37 34.5q-38 20 -55.5 60t-17.5 100q0 57 15 97.5t42 66t64 37.5t82 12h207v-696h-175v273zM277 552q-27 0 -35 -19.5t-8 -48.5q0 -37 14 -50.5t32 -13.5h10v132h-13z" />
    <glyph glyph-name="afii10065" unicode="&#x430;" horiz-adv-x="450" 
d="M246 33q-19 -20 -44.5 -29.5t-44.5 -9.5q-40 0 -65.5 10.5t-40.5 30t-20.5 47t-5.5 60.5q0 34 10 64.5t32 52.5t56.5 35t82.5 13h41v37q0 11 -6.5 17.5t-18.5 6.5q-8 0 -18 -7.5t-17 -34.5l-150 42q7 37 25 63t43.5 42.5t57.5 24.5t67 8q83 0 134 -39t51 -124v-343h-165
v33h-4zM247 205h-15q-15 0 -27 -8t-12 -33q0 -31 27 -31t27 34v38z" />
    <glyph glyph-name="afii10066" unicode="&#x431;" horiz-adv-x="448" 
d="M260 464q55 0 92.5 -27t50.5 -64q9 -26 12 -56.5t3 -71.5v-17q0 -26 -1 -46.5t-4 -45.5q-5 -43 -24 -70.5t-46.5 -43.5t-61 -22.5t-66.5 -6.5q-41 0 -71.5 9.5t-51.5 25.5t-33 35.5t-18 40.5q-6 25 -8.5 63t-2.5 73v69q0 79 5.5 139t21.5 103t45 72t75 47
q24 10 42.5 15.5t36 10.5t35.5 11t41 15l48 -126q-24 -11 -42.5 -17t-34 -10.5t-30.5 -9t-32 -13.5q-22 -11 -31 -34.5t-11 -56.5q7 3 15.5 5t17.5 2.5t16.5 1t11.5 0.5zM225 324q-9 0 -14 -5.5t-7 -13.5q0 -2 -0.5 -4.5t-1.5 -10t-1.5 -21t-0.5 -36.5q0 -38 0.5 -53.5
t3.5 -27.5q5 -17 22 -17q8 0 13 5t7 12q2 6 3 26t1 54q0 31 -0.5 44t-2.5 27q-3 21 -22 21z" />
    <glyph glyph-name="afii10067" unicode="&#x432;" horiz-adv-x="455" 
d="M258 342q0 18 -10 24.5t-27 6.5h-20v-63h20q23 0 30 10t7 22zM262 166q0 17 -9 27.5t-31 10.5h-21v-77h20q23 0 32 11t9 28zM356 259q33 -15 50 -43.5t17 -58.5q0 -81 -50 -119t-138 -38h-200v495h202q84 0 131.5 -31.5t47.5 -105.5q0 -26 -16 -54t-44 -43v-2z" />
    <glyph glyph-name="afii10068" unicode="&#x433;" horiz-adv-x="386" 
d="M209 364v-364h-170v495h331v-131h-161z" />
    <glyph glyph-name="afii10069" unicode="&#x434;" horiz-adv-x="519" 
d="M451 133h53v-250h-139v117h-222v-117h-138v244l44 8q24 18 29 48t7 68l13 244h353v-362zM246 371l-5 -105q-2 -34 -3 -54.5t-3.5 -34t-5.5 -22.5t-8 -20h65v236h-40z" />
    <glyph glyph-name="afii10070" unicode="&#x435;" horiz-adv-x="434" 
d="M218 -7q-42 0 -73 10t-52 26t-33 36.5t-18 40.5q-8 30 -10 67.5t-2 72.5q0 45 5 86.5t17 73.5q7 20 20 38t34 32t51 22t71 8q38 0 71 -10.5t57 -31t38 -51t14 -69.5v-127h-208v-44q0 -15 3.5 -27.5t20.5 -12.5q9 0 16.5 7.5t9.5 30.5l159 -18q-8 -77 -54.5 -118.5
t-136.5 -41.5zM224 371q-11 0 -17 -11q-4 -7 -5 -20.5t-1 -30.5h47q0 20 -1 34t-6 20q-4 5 -7 6.5t-10 1.5z" />
    <glyph glyph-name="afii10072" unicode="&#x436;" horiz-adv-x="679" 
d="M124 259q-25 8 -45 30.5t-28 61.5l-27 144h168l22 -117q7 -40 14 -51t24 -11h3v178h169v-178h3q9 0 14.5 2t9.5 9t7 19t7 32l22 117h168l-27 -144q-8 -39 -28 -61.5t-45 -30.5v-2q34 -11 51.5 -36.5t25.5 -61.5l32 -159h-175l-21 125q-5 32 -10.5 45t-28.5 13h-5v-183
h-169v183h-5q-23 0 -28.5 -13t-10.5 -45l-21 -125h-175l32 159q8 36 25.5 61.5t51.5 36.5v2z" />
    <glyph glyph-name="afii10073" unicode="&#x437;" horiz-adv-x="413" 
d="M205 505q85 0 131 -36.5t46 -111.5q0 -12 -2.5 -26t-9.5 -27.5t-18.5 -25.5t-29.5 -20q61 -29 61 -108q0 -74 -47 -115.5t-137 -41.5q-81 0 -128 42.5t-51 108.5l160 23q0 -20 5 -26t15 -6q11 0 15.5 9t4.5 23q0 19 -8 24.5t-26 5.5h-34v111h37q11 0 20 5.5t9 24.5
q0 29 -20 29q-12 0 -17.5 -10.5t-5.5 -23.5l-152 26q7 66 55.5 106t126.5 40z" />
    <glyph glyph-name="afii10074" unicode="&#x438;" horiz-adv-x="476" 
d="M267 177l-63 -177h-169v495h169v-206h4l63 206h170v-495h-170v177h-4z" />
    <glyph glyph-name="afii10075" unicode="&#x439;" horiz-adv-x="476" 
d="M176 700q1 -11 4.5 -23.5t11 -23t18.5 -17t28 -6.5q16 0 27.5 6.5t19 17t11.5 23t5 23.5h106q-2 -24 -12 -53.5t-30 -55t-51 -43t-74 -17.5q-45 0 -76.5 17.5t-51.5 43t-29.5 55t-11.5 53.5h105zM267 177l-63 -177h-169v495h169v-206h4l63 206h170v-495h-170v177h-4z" />
    <glyph glyph-name="afii10076" unicode="&#x43a;" horiz-adv-x="464" 
d="M340 257q34 -11 51.5 -36.5t25.5 -61.5l32 -159h-175l-21 125q-5 32 -13 45t-31 13h-5v-183h-169v494h169v-178h3q9 0 15 2t11 9t9 19t8 32l22 117h168l-27 -144q-8 -39 -28 -61.5t-45 -30.5v-2z" />
    <glyph glyph-name="afii10077" unicode="&#x43b;" horiz-adv-x="470" 
d="M435 0h-168v364h-39v-150q0 -57 -14.5 -98.5t-40 -69.5t-60.5 -44t-77 -21l-40 120q20 9 34.5 17t24.5 20.5t14.5 31.5t4.5 51v274h361v-495z" />
    <glyph glyph-name="afii10078" unicode="&#x43c;" horiz-adv-x="551" 
d="M350 177l-30 -83h-88l-33 83h-3v-177h-161v495h151l45 -109l42 -105h3l43 106l46 108h151v-495h-163v177h-3z" />
    <glyph glyph-name="afii10079" unicode="&#x43d;" horiz-adv-x="463" 
d="M259 0v189h-54v-189h-170v495h170v-181h54v181h169v-495h-169z" />
    <glyph glyph-name="afii10080" unicode="&#x43e;" horiz-adv-x="450" 
d="M227 506q42 0 72 -8t51 -21.5t34 -30.5t20 -36q5 -13 8 -32t5 -40.5t2.5 -44.5t0.5 -44q0 -38 -1.5 -63.5t-4.5 -50.5q-5 -44 -24.5 -71.5t-47.5 -43t-60 -21.5t-63 -6q-40 0 -70.5 10t-52.5 26t-35 36.5t-19 40.5q-3 12 -5.5 29t-4 36t-2 38.5t-0.5 36.5q0 45 5 90
t14 71q8 19 22.5 37t36 32t51 22t68.5 8zM226 366q-9 0 -13.5 -4.5t-6.5 -12.5q-3 -10 -3.5 -32.5t-1.5 -69.5q0 -38 0.5 -60.5t3.5 -34.5q5 -17 22 -17q8 0 13 5t7 12q2 6 3 33t1 61q0 31 -0.5 59t-2.5 42q-3 19 -22 19z" />
    <glyph glyph-name="afii10081" unicode="&#x43f;" horiz-adv-x="461" 
d="M426 495v-495h-172v364h-48v-364h-171v495h391z" />
    <glyph glyph-name="afii10082" unicode="&#x440;" horiz-adv-x="458" 
d="M230 134q8 0 13.5 5.5t7.5 13.5q3 14 3.5 41.5t0.5 57.5q0 35 -0.5 57.5t-2.5 28.5q0 7 -6.5 12.5t-14.5 5.5q-19 0 -22 -18q-2 -8 -2.5 -27.5t-0.5 -45.5v-50q0 -23 0.5 -41t2.5 -23q7 -17 21 -17zM207 20v-211h-172v686h169v-38h3q8 12 20.5 20t25.5 13.5t25 8t20 2.5
q114 0 125 -123q1 -9 1.5 -23.5t1.5 -32.5t1.5 -37.5t0.5 -38.5q0 -21 -0.5 -45t-2 -46.5t-3 -41.5t-4.5 -31q-4 -18 -12 -34.5t-21.5 -29.5t-34 -21t-49.5 -8q-25 0 -48 7t-43 24h-3z" />
    <glyph glyph-name="afii10083" unicode="&#x441;" horiz-adv-x="434" 
d="M226 506q91 0 137 -46.5t44 -132.5l-156 -11q0 50 -26 50q-16 0 -21 -17q-3 -11 -4 -37.5t-1 -66.5q0 -37 1 -58.5t3 -33.5q2 -8 6 -13t13 -5q27 0 27 47l160 -9q-2 -93 -52.5 -136.5t-138.5 -43.5q-42 0 -72.5 10t-51.5 26t-33.5 36.5t-18.5 40.5q-3 12 -5.5 29t-4 36
t-2 38.5t-0.5 36.5q0 45 5 90t14 71q8 19 21.5 37t34.5 32t50.5 22t70.5 8z" />
    <glyph glyph-name="afii10084" unicode="&#x442;" horiz-adv-x="377" 
d="M273 363v-363h-171v363h-94v132h360v-132h-95z" />
    <glyph glyph-name="afii10085" unicode="&#x443;" horiz-adv-x="459" 
d="M231 191l16 140q5 35 9.5 82t9.5 82h183l-121 -529q-11 -47 -29.5 -77.5t-42.5 -48.5t-53 -25t-60 -7h-88v151h26q20 0 30.5 4.5t15.5 20.5l5 15l-127 496h185l20 -166l18 -139z" />
    <glyph glyph-name="afii10086" unicode="&#x444;" horiz-adv-x="631" 
d="M402 -190h-170v183q-54 4 -89 17t-56.5 31.5t-32 39.5t-16.5 41q-5 24 -6.5 58t-1.5 69q0 42 3.5 77t13.5 62q7 18 21 36.5t36.5 34.5t54 27.5t73.5 15.5v194h167v-194q48 -4 80 -15.5t53 -27t33 -34.5t19 -37q10 -27 13.5 -62t3.5 -77q0 -35 -1.5 -69t-6.5 -58
q-6 -20 -17.5 -41t-33.5 -39.5t-56 -32t-84 -16.5v-183zM192 246q0 -42 1.5 -62.5t4.5 -31.5q2 -6 10 -13t24 -8v236q-16 -1 -24.5 -9t-10.5 -19q-2 -14 -3.5 -38t-1.5 -55zM439 246q0 31 -1 52.5t-4 40.5q-2 11 -10 18.5t-25 9.5v-236q16 2 24.5 9t10.5 13q4 16 4.5 37.5
t0.5 55.5z" />
    <glyph glyph-name="afii10087" unicode="&#x445;" horiz-adv-x="466" 
d="M230 140l-40 -140h-180l118 253l-112 245h183l36 -120h4l35 120h176l-114 -245l120 -253h-179l-43 140h-4z" />
    <glyph glyph-name="afii10088" unicode="&#x446;" horiz-adv-x="484" 
d="M423 495v-362h56v-250h-139v117h-305v495h169v-360h50v360h169z" />
    <glyph glyph-name="afii10089" unicode="&#x447;" horiz-adv-x="451" 
d="M243 162q-50 -24 -99 -24q-50 0 -84.5 29t-34.5 91v237h172v-177q0 -32 25 -32q8 0 23 5v204h171v-495h-171v161z" />
    <glyph glyph-name="afii10090" unicode="&#x448;" horiz-adv-x="671" 
d="M636 495v-495h-601v495h169v-360h47v360h169v-360h46v360h170z" />
    <glyph glyph-name="afii10091" unicode="&#x449;" horiz-adv-x="697" 
d="M420 135h47v360h169v-362h56v-250h-139v117h-518v495h169v-360h47v360h169v-360z" />
    <glyph glyph-name="afii10092" unicode="&#x44a;" horiz-adv-x="536" 
d="M10 495h292v-176h42q85 0 131 -40t46 -118q0 -43 -15.5 -73.5t-40.5 -50t-57.5 -28.5t-66.5 -9h-207v363h-124v132zM314 126q41 0 41 35q0 20 -12.5 27t-29.5 7h-11v-69h12z" />
    <glyph glyph-name="afii10093" unicode="&#x44b;" horiz-adv-x="664" 
d="M215 126q41 0 41 35q0 20 -12.5 27t-29.5 7h-11v-69h12zM35 0v495h168v-176h42q85 0 131 -40t46 -118q0 -43 -15.5 -73.5t-40.5 -50t-57.5 -28.5t-66.5 -9h-207zM459 0v495h170v-495h-170z" />
    <glyph glyph-name="afii10094" unicode="&#x44c;" horiz-adv-x="432" 
d="M215 126q41 0 41 35q0 20 -12.5 27t-29.5 7h-11v-69h12zM35 0v495h168v-176h42q85 0 131 -40t46 -118q0 -43 -15.5 -73.5t-40.5 -50t-57.5 -28.5t-66.5 -9h-207z" />
    <glyph glyph-name="afii10095" unicode="&#x44d;" horiz-adv-x="423" 
d="M174 166q3 -31 28 -31q9 0 13.5 5t6.5 13t2.5 17t0.5 28h-82v110h82q0 33 -3 41q-5 17 -22 17q-12 0 -19 -8t-9 -22l-149 19q21 151 183 151q43 0 72.5 -8t48.5 -22t30.5 -32t19.5 -37q9 -26 12.5 -71t3.5 -90q0 -17 -1 -36.5t-2.5 -38.5t-4 -36t-5.5 -29
q-6 -20 -18.5 -40.5t-33.5 -36.5t-51 -26t-72 -10q-83 0 -129.5 35t-55.5 117z" />
    <glyph glyph-name="afii10096" unicode="&#x44e;" horiz-adv-x="641" 
d="M35 0v495h170v-188h38q2 29 6 55.5t10 43.5q8 19 21.5 37t34 32t48.5 22t65 8q39 0 68 -8t49 -21.5t32 -30.5t19 -36q4 -13 7 -32t5 -40.5t2.5 -44t0.5 -43.5q0 -38 -1.5 -63.5t-4.5 -50.5q-5 -44 -23.5 -71.5t-44.5 -43t-57 -21.5t-60 -6q-38 0 -67 10t-49.5 26
t-33 36.5t-18.5 40.5q-4 15 -7 36t-3 47h-37v-189h-170zM427 365q-10 0 -14.5 -4.5t-6.5 -12.5q-3 -8 -4 -31.5t-2 -69.5q0 -38 0.5 -60.5t3.5 -34.5q6 -17 24 -17q8 0 13.5 5t7.5 12q2 6 3 33t1 61q0 30 -0.5 58t-2.5 42q-4 19 -23 19z" />
    <glyph glyph-name="afii10097" unicode="&#x44f;" horiz-adv-x="449" 
d="M231 371q-12 0 -23 -9.5t-11 -28.5q0 -16 11.5 -24t26.5 -8h11v70h-15zM15 0l32 147q4 18 14 36.5t33 30.5q-38 17 -52 52.5t-14 69.5q0 39 13 69t35.5 50t51 30t60.5 10h226v-495h-168v179h-7q-16 0 -28 -14t-19 -58l-20 -107h-157z" />
    <glyph glyph-name="afii10071" unicode="&#x451;" horiz-adv-x="434" 
d="M218 -7q-42 0 -73 10t-52 26t-33 36.5t-18 40.5q-8 30 -10 67.5t-2 72.5q0 45 5 86.5t17 73.5q7 20 20 38t34 32t51 22t71 8q38 0 71 -10.5t57 -31t38 -51t14 -69.5v-127h-208v-44q0 -15 3.5 -27.5t20.5 -12.5q9 0 16.5 7.5t9.5 30.5l159 -18q-8 -77 -54.5 -118.5
t-136.5 -41.5zM224 371q-11 0 -17 -11q-4 -7 -5 -20.5t-1 -30.5h47q0 20 -1 34t-6 20q-4 5 -7 6.5t-10 1.5zM252 554v130h139v-130h-139zM58 554v130h138v-130h-138z" />
    <glyph glyph-name="afii10099" unicode="&#x452;" horiz-adv-x="468" 
d="M242 327q-15 0 -19.5 -11.5t-4.5 -22.5v-293h-171v541h-35v110h35v75h171v-75h129v-110h-129v-104l2 -1q23 25 54 36.5t53 11.5q40 0 67.5 -16t35.5 -57q3 -13 4.5 -33.5t2 -44.5t1 -48.5t0.5 -45.5v-68q0 -27 -0.5 -53.5t-3.5 -51.5q-5 -42 -25 -67.5t-47.5 -39
t-60 -17.5t-63.5 -4v123q19 2 23.5 12.5t4.5 18.5q1 3 1.5 17.5t0.5 35v44v44.5l-1 58q0 20 -7 28t-18 8z" />
    <glyph glyph-name="afii10100" unicode="&#x453;" horiz-adv-x="386" 
d="M209 364v-364h-170v495h331v-131h-161zM106 577l107 205l122 -71l-138 -182z" />
    <glyph glyph-name="afii10101" unicode="&#x454;" horiz-adv-x="428" 
d="M403 145q-9 -82 -55.5 -117t-129.5 -35q-42 0 -72.5 10t-51.5 26t-33.5 36.5t-18.5 40.5q-3 12 -5.5 29t-4 36t-2 38.5t-0.5 36.5q0 45 5 90t14 71q8 19 21.5 37t34.5 32t50.5 22t70.5 8q81 0 126.5 -38t50.5 -113l-152 -19q-2 14 -8.5 22t-18.5 8q-17 0 -22 -17
q-4 -10 -4 -41h82v-110h-82q0 -19 0.5 -28t2.5 -17t6.5 -13t13.5 -5q25 0 28 31z" />
    <glyph glyph-name="afii10102" unicode="&#x455;" horiz-adv-x="427" 
d="M182 168q0 -42 29 -42q11 0 16 8.5t5 18.5q0 11 -5.5 18.5t-14 13t-19 9t-20.5 7.5q-27 10 -53 21t-45.5 27.5t-31.5 41t-12 62.5q0 32 12.5 60t36 48.5t58 32.5t78.5 12q52 0 86.5 -12t56 -33.5t30.5 -50.5t10 -62l-149 -11q1 20 -4.5 32.5t-22.5 12.5q-11 0 -17 -8.5
t-6 -15.5q0 -19 15 -27.5t34 -15.5q33 -11 61.5 -24t50 -31.5t34 -44.5t12.5 -63q0 -31 -10.5 -60t-34 -51t-61.5 -35t-93 -13q-82 0 -131 39t-52 117z" />
    <glyph glyph-name="afii10103" unicode="&#x456;" horiz-adv-x="260" 
d="M45 566v130h170v-130h-170zM45 0v495h170v-495h-170z" />
    <glyph glyph-name="afii10104" unicode="&#x457;" horiz-adv-x="260" 
d="M160 547v130h139v-130h-139zM-34 547v130h138v-130h-138zM45 0v495h170v-495h-170z" />
    <glyph glyph-name="afii10105" unicode="&#x458;" horiz-adv-x="261" 
d="M46 566v130h170v-130h-170zM216 -35q0 -87 -49 -128.5t-140 -41.5h-47v148h23q26 0 34.5 16.5t8.5 52.5v483h170v-530z" />
    <glyph glyph-name="afii10106" unicode="&#x459;" horiz-adv-x="669" 
d="M435 495v-176h42q85 0 131 -40t46 -118q0 -43 -15.5 -73.5t-40.5 -50t-57.5 -28.5t-66.5 -9h-207v364h-39v-150q0 -57 -14.5 -98.5t-40 -69.5t-60.5 -44t-77 -21l-40 120q20 9 34.5 17t24.5 20.5t14.5 31.5t4.5 51v274h361zM447 126q41 0 41 35q0 20 -12.5 27t-29.5 7
h-11v-69h12z" />
    <glyph glyph-name="afii10107" unicode="&#x45a;" horiz-adv-x="651" 
d="M254 0v189h-49v-189h-170v495h170v-181h49v181h168v-176h42q85 0 131 -40t46 -118q0 -43 -15.5 -73.5t-40.5 -50t-57.5 -28.5t-66.5 -9h-207zM434 126q41 0 41 35q0 20 -12.5 27t-29.5 7h-11v-69h12z" />
    <glyph glyph-name="afii10108" unicode="&#x45b;" horiz-adv-x="473" 
d="M220 436q24 29 54.5 38.5t52.5 9.5q35 0 56.5 -10t33.5 -27.5t16.5 -41t4.5 -50.5v-355h-172v292q0 17 -5 26t-19 9q-15 0 -19.5 -11.5t-4.5 -22.5v-293h-171v541h-35v110h35v75h171v-75h129v-110h-129v-104z" />
    <glyph glyph-name="afii10109" unicode="&#x45c;" horiz-adv-x="464" 
d="M150 577l107 205l122 -71l-138 -182zM340 257q34 -11 51.5 -36.5t25.5 -61.5l32 -159h-175l-21 125q-5 32 -13 45t-31 13h-5v-183h-169v494h169v-178h3q9 0 15 2t11 9t9 19t8 32l22 117h168l-27 -144q-8 -39 -28 -61.5t-45 -30.5v-2z" />
    <glyph glyph-name="afii10110" unicode="&#x45e;" horiz-adv-x="459" 
d="M231 191l16 140q5 35 9.5 82t9.5 82h183l-121 -529q-11 -47 -29.5 -77.5t-42.5 -48.5t-53 -25t-60 -7h-88v151h26q20 0 30.5 4.5t15.5 20.5l5 15l-127 496h185l20 -166l18 -139zM166 700q1 -11 4.5 -23.5t11 -23t18.5 -17t28 -6.5q16 0 27.5 6.5t19 17t11.5 23t5 23.5
h106q-2 -24 -12 -53.5t-30 -55t-51 -43t-74 -17.5q-45 0 -76.5 17.5t-51.5 43t-29.5 55t-11.5 53.5h105z" />
    <glyph glyph-name="afii10193" unicode="&#x45f;" horiz-adv-x="457" 
d="M422 495v-495h-124v-119h-140v119h-123v495h169v-360h51v360h167z" />
    <glyph glyph-name="afii10050" unicode="&#x490;" horiz-adv-x="423" 
d="M398 806l1 -260h-183v-546h-176v696h227v110h131z" />
    <glyph glyph-name="afii10098" unicode="&#x491;" horiz-adv-x="400" 
d="M207 364v-364h-172v495h205v115h130v-246h-163z" />
    <glyph glyph-name="schwacyrillic" unicode="&#x4d9;" horiz-adv-x="434" 
d="M219 507q42 0 73 -10t52 -26t33 -36.5t18 -40.5q8 -30 10 -67.5t2 -72.5q0 -45 -5 -86.5t-17 -73.5q-8 -20 -20.5 -38t-33.5 -32t-51 -22t-71 -8q-38 0 -71 10.5t-57 31t-38 51t-14 69.5v127h208v33v18t-2 15q-3 18 -22 18q-14 0 -19 -7.5t-7 -30.5l-159 18
q8 77 54.5 118.5t136.5 41.5zM213 129q11 0 17 11q4 7 5 20.5t1 30.5h-47q0 -20 1 -34t6 -20q4 -5 7 -6.5t10 -1.5z" />
    <glyph glyph-name="Wgrave" unicode="&#x1e80;" horiz-adv-x="692" 
d="M345 319l-53 -319h-179l-103 696h182l29 -356h5l49 356h146l48 -350h5l26 350h182l-103 -696h-179l-51 319h-4zM377 744l-207 98l76 120l187 -131z" />
    <glyph glyph-name="wgrave" unicode="&#x1e81;" horiz-adv-x="695" 
d="M345 222l-28 -124l-22 -98h-178l-107 494h177l16 -139l14 -133h5l21 133l23 139h166l24 -139l21 -133h5l15 135l15 137h173l-106 -494h-178l-23 99l-28 123h-5zM321 529l-138 182l122 72l106 -203z" />
    <glyph glyph-name="Wacute" unicode="&#x1e82;" horiz-adv-x="692" 
d="M345 319l-53 -319h-179l-103 696h182l29 -356h5l49 356h146l48 -350h5l26 350h182l-103 -696h-179l-51 319h-4zM259 801l187 131l76 -120l-207 -98z" />
    <glyph glyph-name="wacute" unicode="&#x1e83;" horiz-adv-x="695" 
d="M345 222l-28 -124l-22 -98h-178l-107 494h177l16 -139l14 -133h5l21 133l23 139h166l24 -139l21 -133h5l15 135l15 137h173l-106 -494h-178l-23 99l-28 123h-5zM265 577l107 205l122 -71l-138 -182z" />
    <glyph glyph-name="Wdieresis" unicode="&#x1e84;" horiz-adv-x="692" 
d="M345 319l-53 -319h-179l-103 696h182l29 -356h5l49 356h146l48 -350h5l26 350h182l-103 -696h-179l-51 319h-4zM372 728v130h139v-130h-139zM178 728v130h138v-130h-138z" />
    <glyph glyph-name="wdieresis" unicode="&#x1e85;" horiz-adv-x="695" 
d="M345 222l-28 -124l-22 -98h-178l-107 494h177l16 -139l14 -133h5l21 133l23 139h166l24 -139l21 -133h5l15 135l15 137h173l-106 -494h-178l-23 99l-28 123h-5zM375 547v130h139v-130h-139zM181 547v130h138v-130h-138z" />
    <glyph glyph-name="Ygrave" unicode="&#x1ef2;" horiz-adv-x="490" 
d="M247 457l46 239h184l-145 -438v-258h-177v258l-146 438h185l50 -239h3zM250 714l-207 98l76 120l187 -131z" />
    <glyph glyph-name="ygrave" unicode="&#x1ef3;" horiz-adv-x="459" 
d="M231 191l16 140q5 35 9.5 82t9.5 82h183l-121 -529q-11 -47 -29.5 -77.5t-42.5 -48.5t-53 -25t-60 -7h-88v151h26q20 0 30.5 4.5t15.5 20.5l5 15l-127 496h185l20 -166l18 -139zM216 529l-138 182l122 72l106 -203z" />
    <glyph glyph-name="endash" unicode="&#x2013;" horiz-adv-x="500" 
d="M20 211v127h460v-127h-460z" />
    <glyph glyph-name="emdash" unicode="&#x2014;" horiz-adv-x="1000" 
d="M20 211v127h960v-127h-960z" />
    <glyph glyph-name="afii00208" unicode="&#x2015;" horiz-adv-x="1000" 
d="M20 211v127h960v-127h-960z" />
    <glyph glyph-name="quoteleft" unicode="&#x2018;" horiz-adv-x="290" 
d="M124 714h106l-33 -150h29v-154h-166v151z" />
    <glyph glyph-name="quoteright" unicode="&#x2019;" horiz-adv-x="290" 
d="M166 410h-106l33 150h-29v154h166v-151z" />
    <glyph glyph-name="quotesinglbase" unicode="&#x201a;" horiz-adv-x="262" 
d="M153 -149h-106l33 145h-29v154h166v-151z" />
    <glyph glyph-name="quotedblleft" unicode="&#x201c;" horiz-adv-x="488" 
d="M124 714h106l-33 -150h29v-154h-166v151zM322 714h106l-33 -150h29v-154h-166v151z" />
    <glyph glyph-name="quotedblright" unicode="&#x201d;" horiz-adv-x="488" 
d="M364 410h-106l33 150h-29v154h166v-151zM166 410h-106l33 150h-29v154h166v-151z" />
    <glyph glyph-name="quotedblbase" unicode="&#x201e;" horiz-adv-x="459" 
d="M153 -149h-106l33 145h-29v154h166v-151zM350 -149h-106l33 145h-29v154h166v-151z" />
    <glyph glyph-name="dagger" unicode="&#x2020;" horiz-adv-x="436" 
d="M299 345v-495h-161v495h-123v142h123v189h161v-189h122v-142h-122z" />
    <glyph glyph-name="daggerdbl" unicode="&#x2021;" horiz-adv-x="436" 
d="M299 345v-92h122v-142h-122v-261h-161v261h-123v142h123v92h-123v142h123v189h161v-189h122v-142h-122z" />
    <glyph glyph-name="bullet" unicode="&#x2022;" horiz-adv-x="510" 
d="M90 274q0 34 13 64t35.5 52.5t52.5 35.5t64 13t64 -13t52.5 -35.5t35.5 -52.5t13 -64t-13 -64t-35.5 -52.5t-52.5 -35.5t-64 -13t-64 13t-52.5 35.5t-35.5 52.5t-13 64z" />
    <glyph glyph-name="trianglebullet" unicode="&#x2023;" horiz-adv-x="584" 
d="M544 287l-463 -281v551z" />
    <glyph glyph-name="ellipsis" unicode="&#x2026;" horiz-adv-x="809" 
d="M47 0v150h165v-150h-165zM323 0v150h165v-150h-165zM599 0v150h165v-150h-165z" />
    <glyph glyph-name="perthousand" unicode="&#x2030;" horiz-adv-x="1135" 
d="M660 342q0 13 -13 13q-5 0 -9.5 -3.5t-4.5 -9.5v-229q0 -6 4.5 -9t9.5 -3q13 0 13 12v229zM787 115q0 -51 -36 -85t-104 -34q-65 0 -102.5 34t-37.5 85v225q0 25 10 47t28 38t44 25t58 9q67 0 103.5 -34t36.5 -85v-225zM189 617q0 13 -13 13q-5 0 -9.5 -3.5t-4.5 -9.5
v-229q0 -6 4.5 -9t9.5 -3q13 0 13 12v229zM316 390q0 -51 -36 -85t-104 -34q-32 0 -58 10t-44 26.5t-28 39t-10 47.5v225q0 51 38 83t102 32q67 0 103.5 -34t36.5 -85v-225zM313 -17h-124l314 731h124zM972 342q0 13 -13 13q-5 0 -9.5 -3.5t-4.5 -9.5v-229q0 -6 4.5 -9
t9.5 -3q13 0 13 12v229zM1099 115q0 -51 -36 -85t-104 -34q-65 0 -102.5 34t-37.5 85v225q0 25 10 47t28 38t44 25t58 9q67 0 103.5 -34t36.5 -85v-225z" />
    <glyph glyph-name="guilsinglleft" unicode="&#x2039;" horiz-adv-x="378" 
d="M164 46l-116 201l116 200h169l-115 -200l115 -201h-169z" />
    <glyph glyph-name="guilsinglright" unicode="&#x203a;" horiz-adv-x="378" 
d="M40 46l115 201l-115 200h169l116 -200l-116 -201h-169z" />
    <glyph glyph-name="fraction" unicode="&#x2044;" horiz-adv-x="173" 
d="M-1 -17h-124l314 731h124z" />
    <glyph glyph-name="fraction" unicode="&#x2215;" horiz-adv-x="173" 
d="M-1 -17h-124l314 731h124z" />
    <glyph glyph-name="zerosuperior" unicode="&#x2070;" horiz-adv-x="350" 
d="M188 707q0 13 -13 13q-5 0 -9.5 -3.5t-4.5 -9.5v-229q0 -6 4.5 -9t9.5 -3q13 0 13 12v229zM315 480q0 -51 -36 -85t-104 -34q-32 0 -58 10t-44 26.5t-28 39t-10 47.5v225q0 51 38 83t102 32q67 0 103.5 -34t36.5 -85v-225z" />
    <glyph glyph-name="foursuperior" unicode="&#x2074;" horiz-adv-x="350" 
d="M299 431v-62h-116v62h-166v81l109 312h118l-101 -296h40v69h116v-69h26v-97h-26z" />
    <glyph glyph-name="fivesuperior" unicode="&#x2075;" horiz-adv-x="350" 
d="M317 492q0 -60 -36 -93.5t-101 -33.5t-103 34.5t-35 104.5l119 11q-2 -17 -1 -25.5t3.5 -12t5.5 -3.5h5q4 0 7.5 3.5t3.5 15.5v77q0 10 -8 10q-3 0 -9.5 -1.5t-13.5 -14.5h-94v260h250v-100h-123v-53q8 5 20 7t18 2q50 0 71 -26t21 -68v-94z" />
    <glyph glyph-name="sixsuperior" unicode="&#x2076;" horiz-adv-x="350" 
d="M191 538q0 5 -4.5 9t-11.5 4t-11 -4t-4 -9v-56q0 -4 3.5 -8t11.5 -4t12 4t4 8v56zM177 365q-36 0 -62.5 10t-44.5 27t-26.5 38t-8.5 44v23q0 25 3.5 49.5t13.5 47.5l97 220h135l-78 -179h14q16 0 33 -4.5t31 -16t23.5 -31t9.5 -49.5v-49q0 -24 -7.5 -47.5t-24.5 -41.5
t-43.5 -29.5t-64.5 -11.5z" />
    <glyph glyph-name="sevensuperior" unicode="&#x2077;" horiz-adv-x="350" 
d="M201 369h-131l105 355h-26v-38h-103v138h265v-92z" />
    <glyph glyph-name="eightsuperior" unicode="&#x2078;" horiz-adv-x="350" 
d="M176 829q33 0 59 -9.5t43.5 -25.5t27 -37.5t9.5 -44.5v-19q0 -23 -7.5 -46.5t-33.5 -38.5q27 -13 35 -38t8 -48v-36q0 -58 -39 -91.5t-101 -33.5q-35 0 -61.5 10t-44.5 27.5t-27 39.5t-9 46v22q0 12 1.5 26.5t6 29t13 27.5t23.5 22q-23 13 -32.5 37t-9.5 44v14q0 22 8 44
t25.5 39.5t43.5 28.5t62 11zM190 555q0 11 -14 11q-13 0 -13 -11v-73q0 -4 3.5 -7.5t9.5 -3.5q7 0 10.5 3.5t3.5 7.5v73zM190 715q0 11 -14 11q-13 0 -13 -11v-52q0 -4 3.5 -7.5t9.5 -3.5q7 0 10.5 3.5t3.5 7.5v52z" />
    <glyph glyph-name="ninesuperior" unicode="&#x2079;" horiz-adv-x="350" 
d="M162 655q0 -5 4.5 -9t11.5 -4t11 4t4 9v56q0 4 -3.5 8t-11.5 4t-12 -4t-4 -8v-56zM176 828q36 0 62.5 -10t44.5 -27t26.5 -38.5t8.5 -43.5v-23q0 -25 -3.5 -49.5t-13.5 -47.5l-97 -220h-135l78 179h-14q-16 0 -33 4.5t-31.5 16t-23.5 31t-9 49.5v49q0 24 7.5 47.5
t24.5 41.5t43.5 29.5t64.5 11.5z" />
    <glyph glyph-name="plussuperior" unicode="&#x207a;" horiz-adv-x="350" 
d="M225 503v-97h-101v97h-95v96h95v97h101v-97h95v-96h-95z" />
    <glyph glyph-name="hyphensuperior" unicode="&#x207b;" horiz-adv-x="350" 
d="M68 479v103h214v-103h-214z" />
    <glyph glyph-name="equalsuperior" unicode="&#x207c;" horiz-adv-x="350" 
d="M38 550v91h274v-91h-274zM38 435v90h274v-90h-274z" />
    <glyph glyph-name="parenleftsuperior" unicode="&#x207d;" horiz-adv-x="231" 
d="M33 571q0 40 8 78.5t21.5 74.5t32 69t38.5 61l90 -43q-33 -56 -52.5 -120t-19.5 -121q0 -63 19 -127t51 -117l-83 -43q-46 62 -75.5 136t-29.5 152z" />
    <glyph glyph-name="parenrightsuperior" unicode="&#x207e;" horiz-adv-x="231" 
d="M201 571q0 -78 -29.5 -152t-76.5 -136l-83 47q32 53 51 117t19 127q0 57 -19 121t-53 120l91 39q20 -28 38 -61t32 -69t22 -74.5t8 -78.5z" />
    <glyph glyph-name="nsuperior" unicode="&#x207f;" horiz-adv-x="340" 
d="M231 616q26 0 42.5 -7t25.5 -19.5t12.5 -29t3.5 -34.5v-246h-132v199q0 15 -15 15q-5 0 -8.5 -5t-3.5 -10v-199h-131v332h132v-23q17 14 39 20.5t35 6.5z" />
    <glyph glyph-name="zeroinferior" unicode="&#x2080;" horiz-adv-x="350" 
d="M188 252q0 13 -13 13q-5 0 -9.5 -3.5t-4.5 -9.5v-229q0 -6 4.5 -9t9.5 -3q13 0 13 12v229zM315 25q0 -51 -36 -85t-104 -34q-65 0 -102.5 34t-37.5 85v225q0 25 10 47t28 38t44 25t58 9q67 0 103.5 -34t36.5 -85v-225z" />
    <glyph glyph-name="oneinferior" unicode="&#x2081;" horiz-adv-x="350" 
d="M131 -90v318l-61 -45v129l73 53h121v-455h-133z" />
    <glyph glyph-name="twoinferior" unicode="&#x2082;" horiz-adv-x="350" 
d="M56 -90v88l118 201v-1q7 13 9.5 22.5t2.5 23.5q0 7 -2 14t-10 7t-11 -8t-3 -36l-122 10q0 36 11 62t30.5 43t45 25t54.5 8q64 0 100 -31.5t36 -85.5q0 -29 -7 -51.5t-24 -51.5l-79 -137h104v-102h-253z" />
    <glyph glyph-name="threeinferior" unicode="&#x2083;" horiz-adv-x="350" 
d="M185 369q36 0 61.5 -9.5t41 -25t23 -35t7.5 -38.5v-27q0 -23 -8 -47t-35 -41q26 -11 35 -31t9 -38v-44q0 -58 -34 -92.5t-101 -34.5q-66 0 -105 34.5t-36 104.5l120 11q-2 -17 -1 -26t3.5 -12.5t5.5 -4t5 -0.5q5 0 9 3.5t4 15.5v44q0 14 -6.5 19.5t-16.5 5.5h-38v88h41
q8 0 14.5 5t6.5 17v34q0 6 -3 12t-8 6q-3 0 -6 -0.5t-5.5 -4.5t-4 -13t-1.5 -26l-115 12q0 33 11.5 58.5t30.5 43.5t44 27t52 9z" />
    <glyph glyph-name="fourinferior" unicode="&#x2084;" horiz-adv-x="350" 
d="M299 -28v-62h-116v62h-166v81l109 312h118l-101 -296h40v69h116v-69h26v-97h-26z" />
    <glyph glyph-name="fiveinferior" unicode="&#x2085;" horiz-adv-x="350" 
d="M317 33q0 -60 -36 -93.5t-101 -33.5t-103 34.5t-35 104.5l119 11q-2 -17 -1 -25.5t3.5 -12t5.5 -3.5h5q4 0 7.5 3.5t3.5 15.5v77q0 10 -8 10q-3 0 -9.5 -1.5t-13.5 -14.5h-94v260h250v-100h-123v-53q8 5 20 7t18 2q50 0 71 -26t21 -68v-94z" />
    <glyph glyph-name="sixinferior" unicode="&#x2086;" horiz-adv-x="350" 
d="M191 79q0 5 -4.5 9t-11.5 4t-11 -4t-4 -9v-56q0 -4 3.5 -8t11.5 -4t12 4t4 8v56zM177 -94q-36 0 -62.5 10t-44.5 27t-26.5 38t-8.5 44v23q0 25 3.5 49.5t13.5 47.5l97 220h135l-78 -179h14q16 0 33 -4.5t31 -16t23.5 -31t9.5 -49.5v-49q0 -24 -7.5 -47.5t-24.5 -41.5
t-43.5 -29.5t-64.5 -11.5z" />
    <glyph glyph-name="seveninferior" unicode="&#x2087;" horiz-adv-x="350" 
d="M200 -90h-130l105 355h-26v-38h-103v138h265v-88z" />
    <glyph glyph-name="eightinferior" unicode="&#x2088;" horiz-adv-x="350" 
d="M176 374q33 0 59 -9.5t43.5 -25.5t27 -37.5t9.5 -44.5v-19q0 -23 -7.5 -46.5t-33.5 -38.5q27 -13 35 -38t8 -48v-36q0 -58 -39 -91.5t-101 -33.5q-35 0 -61.5 10t-44.5 27.5t-27 39.5t-9 46v22q0 12 1.5 26.5t6 29t13 27.5t23.5 22q-23 13 -32.5 37t-9.5 44v14q0 22 8 44
t25.5 39.5t43.5 28.5t62 11zM190 100q0 11 -14 11q-13 0 -13 -11v-73q0 -4 3.5 -7.5t9.5 -3.5q7 0 10.5 3.5t3.5 7.5v73zM190 260q0 11 -14 11q-13 0 -13 -11v-52q0 -4 3.5 -7.5t9.5 -3.5q7 0 10.5 3.5t3.5 7.5v52z" />
    <glyph glyph-name="nineinferior" unicode="&#x2089;" horiz-adv-x="350" 
d="M162 196q0 -5 4.5 -9t11.5 -4t11 4t4 9v56q0 4 -3.5 8t-11.5 4t-12 -4t-4 -8v-56zM176 369q36 0 62.5 -10t44.5 -27t26.5 -38.5t8.5 -43.5v-23q0 -25 -3.5 -49.5t-13.5 -47.5l-97 -220h-135l78 179h-14q-16 0 -33 4.5t-31.5 16t-23.5 31t-9 49.5v49q0 24 7.5 47.5
t24.5 41.5t43.5 29.5t64.5 11.5z" />
    <glyph glyph-name="plusinferior" unicode="&#x208a;" horiz-adv-x="350" 
d="M225 58v-97h-101v97h-95v96h95v97h101v-97h95v-96h-95z" />
    <glyph glyph-name="hypheninferior" unicode="&#x208b;" horiz-adv-x="350" 
d="M68 34v103h214v-103h-214z" />
    <glyph glyph-name="equalinferior" unicode="&#x208c;" horiz-adv-x="350" 
d="M38 105v91h274v-91h-274zM38 -10v90h274v-90h-274z" />
    <glyph glyph-name="parenleftinferior" unicode="&#x208d;" horiz-adv-x="231" 
d="M33 142q0 40 8 78.5t21.5 74.5t32 69t38.5 61l90 -43q-33 -56 -52.5 -120t-19.5 -121q0 -63 19 -127t51 -117l-83 -43q-46 62 -75.5 136t-29.5 152z" />
    <glyph glyph-name="parenrightinferior" unicode="&#x208e;" horiz-adv-x="231" 
d="M201 142q0 -78 -29.5 -152t-76.5 -136l-83 47q32 53 51 117t19 127q0 57 -19 121t-53 120l91 39q20 -28 38 -61t32 -69t22 -74.5t8 -78.5z" />
    <glyph glyph-name="dong" unicode="&#x20ab;" horiz-adv-x="480" 
d="M152 645h97v55h155v-55h33v-90h-33v-422h-153v30h-2q-7 -9 -17.5 -15.5t-22 -10.5t-22 -6t-16.5 -2q-48 0 -75.5 23.5t-32.5 71.5q-2 17 -2.5 43t-0.5 55q0 34 2 67.5t7 51.5q7 28 30 50.5t70 22.5q20 0 40.5 -5t36.5 -19h3v65h-97v90zM87 88h316v-121h-316v121zM231 402
q-7 0 -11.5 -4.5t-6.5 -10.5q-2 -11 -2.5 -28t-0.5 -41q0 -27 0.5 -42t1.5 -20q0 -5 5 -9.5t12 -4.5q15 0 18 14q2 6 2 20.5v34.5v26v34t-2 17q-5 14 -16 14z" />
    <glyph glyph-name="Euro" unicode="&#x20ac;" horiz-adv-x="480" 
d="M292 496q-1 24 -7.5 38.5t-21.5 14.5q-14 0 -21 -11.5t-7 -26.5v-67h83v-80h-83v-29h82v-77h-82v-79q0 -14 5 -23.5t22 -9.5q11 0 20.5 13.5t10.5 44.5l156 -26q-3 -37 -14 -70.5t-33.5 -58.5t-57 -40t-84.5 -15q-90 0 -140 46.5t-50 134.5v83h-36v77h36v29h-36v80h36v74
q0 83 50 133t142 50q46 0 80 -14t56.5 -37.5t33.5 -54t13 -64.5z" />
    <glyph glyph-name="centigrade" unicode="&#x2103;" horiz-adv-x="780" 
d="M560 702q50 0 86 -15t59 -40t34 -57.5t11 -67.5v-11.5t-1 -11.5l-162 -19q2 32 -5 51t-24 19q-15 0 -20.5 -11.5t-5.5 -26.5v-333q0 -14 6.5 -23.5t20.5 -9.5q12 0 21 16t8 54l167 -12q0 -41 -10 -79t-32.5 -67t-60.5 -46.5t-94 -17.5q-94 0 -146 46.5t-52 134.5v344
q0 83 52 133t148 50zM224 558q0 23 -14 37.5t-37 14.5t-37 -14.5t-14 -37.5q0 -22 14 -37t37 -15t37 15t14 37zM316 558q0 -30 -11 -56t-30.5 -45.5t-45.5 -30.5t-56 -11t-56 11t-45.5 30.5t-30.5 45.5t-11 56t11 56t30.5 45.5t45.5 31t56 11.5t56 -11.5t45.5 -31
t30.5 -45.5t11 -56z" />
    <glyph glyph-name="afii61248" unicode="&#x2105;" horiz-adv-x="785" 
d="M598 358q31 0 54 -5.5t39 -15t26.5 -22t16.5 -26.5q6 -17 8.5 -49.5t2.5 -61.5q0 -26 -1.5 -44t-3.5 -34q-5 -30 -20 -49.5t-36 -31.5t-45 -16.5t-46 -4.5q-31 0 -54 7.5t-39.5 19t-27 26.5t-14.5 30q-5 16 -7 43t-2 51q0 32 3.5 63.5t11.5 48.5q11 29 43.5 50t90.5 21z
M600 107q10 0 12 10q2 4 2 21.5v37.5v39.5t-2 29.5q-1 4 -5 5.5t-7 1.5q-8 0 -11 -8q-2 -5 -3 -19.5t-1 -31.5v-15q0 -25 0.5 -40t3.5 -23q2 -8 11 -8zM189 702q70 0 105 -32.5t33 -92.5l-119 -10q0 30 -17 30q-11 0 -13 -11q-2 -7 -3 -27t-1 -46q0 -24 0.5 -33t2.5 -17
q2 -5 4.5 -8.5t8.5 -3.5t11.5 5t5.5 16l122 -4q-2 -65 -40 -95.5t-105 -30.5q-32 0 -55.5 7t-39.5 18.5t-26 26t-14 28.5q-5 16 -7 44.5t-2 53.5q0 31 3.5 63t11.5 49q6 14 16 26.5t26 22.5t38.5 15.5t53.5 5.5zM293 -17h-124l314 731h124z" />
    <glyph glyph-name="fahrenheit" unicode="&#x2109;" horiz-adv-x="753" 
d="M545 546v-117h160v-151h-160v-278h-176v696h359v-150h-183zM224 558q0 23 -14 37.5t-37 14.5t-37 -14.5t-14 -37.5q0 -22 14 -37t37 -15t37 15t14 37zM316 558q0 -30 -11 -56t-30.5 -45.5t-45.5 -30.5t-56 -11t-56 11t-45.5 30.5t-30.5 45.5t-11 56t11 56t30.5 45.5
t45.5 31t56 11.5t56 -11.5t45.5 -31t30.5 -45.5t11 -56z" />
    <glyph glyph-name="afii61289" unicode="&#x2113;" horiz-adv-x="456" 
d="M441 162q-28 -77 -75 -124.5t-115 -47.5q-36 0 -66.5 12.5t-52 35.5t-34 54t-12.5 69v7l-36 -21l-42 73q19 12 38.5 25.5t38.5 30.5v198q0 60 12.5 102t34 69t50.5 39t63 12q23 0 46.5 -8t42 -24.5t30 -42.5t11.5 -63q0 -80 -42 -154.5t-130 -160.5v-42q0 -29 5.5 -49
t14 -32t19 -17.5t20.5 -5.5q21 0 43.5 27t39.5 78zM203 389q31 42 48 84.5t17 87.5q0 15 -7 27t-21 12q-13 0 -25 -26t-12 -84v-101z" />
    <glyph glyph-name="afii61352" unicode="&#x2116;" horiz-adv-x="859" 
d="M548 310h248v-109h-248v109zM316 387v309h166v-696h-149l-120 315h-5v-315h-168v696h152l119 -309h5zM679 702q59 0 88 -19.5t41 -46.5q6 -17 8.5 -47t2.5 -59q0 -25 -1.5 -42t-3.5 -32q-5 -29 -19 -47.5t-34 -29.5t-43 -15.5t-44 -4.5q-29 0 -51 7t-38 18t-25.5 25.5
t-13.5 28.5q-5 15 -7 41t-2 49q0 30 3.5 60t10.5 46q11 28 42 48t86 20zM681 463q9 0 11 9q2 4 2 20.5v36.5v37t-2 28q-1 4 -4.5 5.5t-6.5 1.5q-8 0 -11 -8q-2 -4 -2.5 -17.5t-0.5 -30.5v-15q0 -23 0.5 -37.5t2.5 -22.5q2 -7 11 -7z" />
    <glyph glyph-name="published" unicode="&#x2117;" horiz-adv-x="743" 
d="M372 -26q-80 0 -140 28t-100.5 77t-61 116t-20.5 145q0 80 20.5 147.5t61 117t101 77t139.5 27.5q77 0 136.5 -27.5t100.5 -77t62.5 -117t21.5 -147.5q0 -78 -21.5 -145t-62.5 -116t-100.5 -77t-136.5 -28zM372 611q-55 0 -95.5 -21.5t-67.5 -58t-40 -86t-13 -105.5
q0 -55 14 -103.5t41.5 -85t67.5 -57.5t93 -21q54 0 94.5 21t67.5 57.5t40.5 85t13.5 103.5q0 56 -14 105.5t-41.5 86t-68 58t-92.5 21.5zM402 556q27 0 49.5 -6t39 -21.5t26 -41.5t9.5 -65q0 -68 -31 -104.5t-93 -36.5h-23v-168h-110v443h133zM379 463v-89h8q14 0 22 11.5
t8 37.5q0 19 -6 29.5t-23 10.5h-9z" />
    <glyph glyph-name="trademark" unicode="&#x2122;" horiz-adv-x="745" 
d="M233 602v-305h-110v305h-83v94h276v-94h-83zM521 552q17 35 34.5 71.5t34.5 71.5h110v-398h-112v179h-2l-36 -109h-60l-38 109h-3v-179h-109v398h112l66 -143h3z" />
    <glyph glyph-name="Ohm" unicode="&#x2126;" horiz-adv-x="486" 
d="M440 244q0 -62 -36 -94h47v-150h-200v156q17 8 17 38v313q0 20 -5.5 30.5t-21.5 10.5q-29 0 -29 -41v-315q0 -17 4.5 -24.5t15.5 -11.5v-156h-198v150h43q-21 15 -27.5 38.5t-6.5 55.5v281q0 45 16 78.5t43 55.5t63 33t76 11q43 0 80 -11t63 -33t41 -55.5t15 -78.5v-281
v0z" />
    <glyph glyph-name="angstrom" unicode="&#x212b;" horiz-adv-x="511" 
d="M134 805q0 24 9.5 45t26.5 36t39 24t48 9q25 0 47 -9t38.5 -24t26 -36t9.5 -45q0 -39 -24.5 -68.5t-61.5 -40.5h70l141 -696h-176l-18 126h-109l-17 -126h-177l140 696h73q-37 11 -61 40.5t-24 68.5zM221 269h68l-12 87l-19 136h-6l-19 -137zM294 805q0 14 -10.5 24.5
t-26.5 10.5q-17 0 -27.5 -10.5t-10.5 -24.5t10.5 -25.5t27.5 -11.5q16 0 26.5 11.5t10.5 25.5z" />
    <glyph glyph-name="estimated" unicode="&#x212e;" horiz-adv-x="817" 
d="M208 295v-149q15 -21 36.5 -39.5t47 -31.5t53 -20.5t54.5 -7.5q60 0 115.5 28.5t87.5 76.5h102q-62 -75 -141.5 -119t-164.5 -44q-72 0 -136 26t-112 71t-75.5 106t-27.5 130q0 70 27.5 131t75.5 106.5t112 71.5t136 26q74 0 137.5 -27t110 -75t73.5 -114.5t30 -145.5
h-541zM587 502q-14 21 -35 38t-46.5 29.5t-53 19.5t-53.5 7q-49 0 -100 -26.5t-92 -71.5l1 1v-147h379v150z" />
    <glyph glyph-name="onethird" unicode="&#x2153;" horiz-adv-x="820" 
d="M109 279v318l-61 -45v129l73 53h121v-455h-133zM277 -17h-124l314 731h124zM605 459q36 0 61.5 -9.5t41 -25t23 -35t7.5 -38.5v-27q0 -23 -8 -47t-35 -41q26 -11 35 -31t9 -38v-44q0 -58 -34 -92.5t-101 -34.5q-66 0 -105 34.5t-36 104.5l120 11q-2 -17 -1 -26t3.5 -12.5
t5.5 -4t5 -0.5q5 0 9 3.5t4 15.5v44q0 14 -6.5 19.5t-16.5 5.5h-38v88h41q8 0 14.5 5t6.5 17v34q0 6 -3 12t-8 6q-3 0 -6 -0.5t-5.5 -4.5t-4 -13t-1.5 -26l-115 12q0 33 11.5 58.5t30.5 43.5t44 27t52 9z" />
    <glyph glyph-name="twothirds" unicode="&#x2154;" horiz-adv-x="820" 
d="M48 275v88l118 201v-1q7 13 9.5 22.5t2.5 23.5q0 7 -2 14t-10 7t-11 -8t-3 -36l-122 10q0 36 11 62.5t30.5 44t45 26.5t54.5 9q64 0 100 -31.5t36 -85.5q0 -29 -7 -53.5t-24 -53.5l-79 -137h104v-102h-253zM315 -17h-124l314 731h124zM641 459q36 0 61.5 -9.5t41 -25
t23 -35t7.5 -38.5v-27q0 -23 -8 -47t-35 -41q26 -11 35 -31t9 -38v-44q0 -58 -34 -92.5t-101 -34.5q-66 0 -105 34.5t-36 104.5l120 11q-2 -17 -1 -26t3.5 -12.5t5.5 -4t5 -0.5q5 0 9 3.5t4 15.5v44q0 14 -6.5 19.5t-16.5 5.5h-38v88h41q8 0 14.5 5t6.5 17v34q0 6 -3 12
t-8 6q-3 0 -6 -0.5t-5.5 -4.5t-4 -13t-1.5 -26l-115 12q0 33 11.5 58.5t30.5 43.5t44 27t52 9z" />
    <glyph glyph-name="onefifth" unicode="&#x2155;" horiz-adv-x="820" 
d="M129 279v318l-61 -45v129l73 53h121v-455h-133zM288 -17h-124l314 731h124zM768 123q0 -60 -36 -93.5t-101 -33.5t-103 34.5t-35 104.5l119 11q-2 -17 -1 -25.5t3.5 -12t5.5 -3.5h5q4 0 7.5 3.5t3.5 15.5v77q0 10 -8 10q-3 0 -9.5 -1.5t-13.5 -14.5h-94v260h250v-100
h-123v-53q8 5 20 7t18 2q50 0 71 -26t21 -68v-94z" />
    <glyph glyph-name="twofifths" unicode="&#x2156;" horiz-adv-x="820" 
d="M48 275v88l118 201v-1q7 13 9.5 22.5t2.5 23.5q0 7 -2 14t-10 7t-11 -8t-3 -36l-122 10q0 36 11 62.5t30.5 44t45 26.5t54.5 9q64 0 100 -31.5t36 -85.5q0 -29 -7 -53.5t-24 -53.5l-79 -137h104v-102h-253zM311 -17h-124l314 731h124zM790 123q0 -60 -36 -93.5
t-101 -33.5t-103 34.5t-35 104.5l119 11q-2 -17 -1 -25.5t3.5 -12t5.5 -3.5h5q4 0 7.5 3.5t3.5 15.5v77q0 10 -8 10q-3 0 -9.5 -1.5t-13.5 -14.5h-94v260h250v-100h-123v-53q8 5 20 7t18 2q50 0 71 -26t21 -68v-94z" />
    <glyph glyph-name="threefifths" unicode="&#x2157;" horiz-adv-x="820" 
d="M172 738q39 0 64.5 -9.5t40.5 -25t21.5 -35t6.5 -38.5v-27q0 -23 -8 -47t-35 -41q26 -11 35 -31t9 -38v-44q0 -58 -34 -92.5t-101 -34.5q-66 0 -105 32.5t-36 102.5l120 11q-2 -17 -1 -26t3.5 -12.5t5.5 -4t5 -0.5q5 0 9 3.5t4 15.5v44q0 14 -6.5 19.5t-16.5 5.5h-38v88
h41q8 0 14.5 5t6.5 17v34q0 6 -3 12t-8 6q-3 0 -6 -0.5t-5.5 -4.5t-4 -13t-1.5 -26l-115 12q0 33 11.5 59.5t30.5 44.5t44 28t52 10zM288 -17h-124l314 731h124zM769 123q0 -60 -36 -93.5t-101 -33.5t-103 34.5t-35 104.5l119 11q-2 -17 -1 -25.5t3.5 -12t5.5 -3.5h5
q4 0 7.5 3.5t3.5 15.5v77q0 10 -8 10q-3 0 -9.5 -1.5t-13.5 -14.5h-94v260h250v-100h-123v-53q8 5 20 7t18 2q50 0 71 -26t21 -68v-94z" />
    <glyph glyph-name="fourfifths" unicode="&#x2158;" horiz-adv-x="820" 
d="M298 341v-62h-116v62h-166v81l109 312h118l-101 -296h40v69h116v-69h26v-97h-26zM316 -17h-124l314 731h124zM804 123q0 -60 -36 -93.5t-101 -33.5t-103 34.5t-35 104.5l119 11q-2 -17 -1 -25.5t3.5 -12t5.5 -3.5h5q4 0 7.5 3.5t3.5 15.5v77q0 10 -8 10q-3 0 -9.5 -1.5
t-13.5 -14.5h-94v260h250v-100h-123v-53q8 5 20 7t18 2q50 0 71 -26t21 -68v-94z" />
    <glyph glyph-name="onesixth" unicode="&#x2159;" horiz-adv-x="820" 
d="M137 279v318l-61 -45v129l73 53h121v-455h-133zM307 -17h-124l314 731h124zM635 169q0 5 -4.5 9t-11.5 4t-11 -4t-4 -9v-56q0 -4 3.5 -8t11.5 -4t12 4t4 8v56zM621 -4q-36 0 -62.5 10t-44.5 27t-26.5 38t-8.5 44v23q0 25 3.5 49.5t13.5 47.5l97 220h135l-78 -179h14
q16 0 33 -4.5t31 -16t23.5 -31t9.5 -49.5v-49q0 -24 -7.5 -47.5t-24.5 -41.5t-43.5 -29.5t-64.5 -11.5z" />
    <glyph glyph-name="fivesixths" unicode="&#x215a;" horiz-adv-x="820" 
d="M325 402q0 -60 -36 -93.5t-101 -33.5t-103 34.5t-35 104.5l119 11q-2 -17 -1 -25.5t3.5 -12t5.5 -3.5h5q4 0 7.5 3.5t3.5 15.5v77q0 10 -8 10q-3 0 -9.5 -1.5t-13.5 -14.5h-94v260h250v-100h-123v-53q8 5 20 7t18 2q50 0 71 -26t21 -68v-94zM330 -17h-124l314 731h124z
M637 169q0 5 -4.5 9t-11.5 4t-11 -4t-4 -9v-56q0 -4 3.5 -8t11.5 -4t12 4t4 8v56zM623 -4q-36 0 -62.5 10t-44.5 27t-26.5 38t-8.5 44v23q0 25 3.5 49.5t13.5 47.5l97 220h135l-78 -179h14q16 0 33 -4.5t31 -16t23.5 -31t9.5 -49.5v-49q0 -24 -7.5 -47.5t-24.5 -41.5
t-43.5 -29.5t-64.5 -11.5z" />
    <glyph glyph-name="oneeighth" unicode="&#x215b;" horiz-adv-x="820" 
d="M138 279v318l-61 -45v129l73 53h121v-455h-133zM294 -17h-124l314 731h124zM622 464q33 0 59 -9.5t43.5 -25.5t27 -37.5t9.5 -44.5v-19q0 -23 -7.5 -46.5t-33.5 -38.5q27 -13 35 -38t8 -48v-36q0 -58 -39 -91.5t-101 -33.5q-35 0 -61.5 10t-44.5 27.5t-27 39.5t-9 46v22
q0 12 1.5 26.5t6 29t13 27.5t23.5 22q-23 13 -32.5 37t-9.5 44v14q0 22 8 44t25.5 39.5t43.5 28.5t62 11zM636 190q0 11 -14 11q-13 0 -13 -11v-73q0 -4 3.5 -7.5t9.5 -3.5q7 0 10.5 3.5t3.5 7.5v73zM636 350q0 11 -14 11q-13 0 -13 -11v-52q0 -4 3.5 -7.5t9.5 -3.5
q7 0 10.5 3.5t3.5 7.5v52z" />
    <glyph glyph-name="threeeighths" unicode="&#x215c;" horiz-adv-x="820" 
d="M188 738q39 0 64.5 -9.5t40.5 -25t21.5 -35t6.5 -38.5v-27q0 -23 -8 -47t-35 -41q26 -11 35 -31t9 -38v-44q0 -58 -34 -92.5t-101 -34.5q-66 0 -105 32.5t-36 102.5l120 11q-2 -17 -1 -26t3.5 -12.5t5.5 -4t5 -0.5q5 0 9 3.5t4 15.5v44q0 14 -6.5 19.5t-16.5 5.5h-38v88
h41q8 0 14.5 5t6.5 17v34q0 6 -3 12t-8 6q-3 0 -6 -0.5t-5.5 -4.5t-4 -13t-1.5 -26l-115 12q0 33 11.5 59.5t30.5 44.5t44 28t52 10zM306 -17h-124l314 731h124zM632 464q33 0 59 -9.5t43.5 -25.5t27 -37.5t9.5 -44.5v-19q0 -23 -7.5 -46.5t-33.5 -38.5q27 -13 35 -38t8 -48
v-36q0 -58 -39 -91.5t-101 -33.5q-35 0 -61.5 10t-44.5 27.5t-27 39.5t-9 46v22q0 12 1.5 26.5t6 29t13 27.5t23.5 22q-23 13 -32.5 37t-9.5 44v14q0 22 8 44t25.5 39.5t43.5 28.5t62 11zM646 190q0 11 -14 11q-13 0 -13 -11v-73q0 -4 3.5 -7.5t9.5 -3.5q7 0 10.5 3.5
t3.5 7.5v73zM646 350q0 11 -14 11q-13 0 -13 -11v-52q0 -4 3.5 -7.5t9.5 -3.5q7 0 10.5 3.5t3.5 7.5v52z" />
    <glyph glyph-name="fiveeighths" unicode="&#x215d;" horiz-adv-x="820" 
d="M322 402q0 -60 -36 -93.5t-101 -33.5t-103 34.5t-35 104.5l119 11q-2 -17 -1 -25.5t3.5 -12t5.5 -3.5h5q4 0 7.5 3.5t3.5 15.5v77q0 10 -8 10q-3 0 -9.5 -1.5t-13.5 -14.5h-94v260h250v-100h-123v-53q8 5 20 7t18 2q50 0 71 -26t21 -68v-94zM308 -17h-124l314 731h124z
M641 464q33 0 59 -9.5t43.5 -25.5t27 -37.5t9.5 -44.5v-19q0 -23 -7.5 -46.5t-33.5 -38.5q27 -13 35 -38t8 -48v-36q0 -58 -39 -91.5t-101 -33.5q-35 0 -61.5 10t-44.5 27.5t-27 39.5t-9 46v22q0 12 1.5 26.5t6 29t13 27.5t23.5 22q-23 13 -32.5 37t-9.5 44v14q0 22 8 44
t25.5 39.5t43.5 28.5t62 11zM655 190q0 11 -14 11q-13 0 -13 -11v-73q0 -4 3.5 -7.5t9.5 -3.5q7 0 10.5 3.5t3.5 7.5v73zM655 350q0 11 -14 11q-13 0 -13 -11v-52q0 -4 3.5 -7.5t9.5 -3.5q7 0 10.5 3.5t3.5 7.5v52z" />
    <glyph glyph-name="seveneighths" unicode="&#x215e;" horiz-adv-x="820" 
d="M204 279h-131l105 355h-26v-38h-103v138h265v-92zM273 -17h-124l314 731h124zM626 464q33 0 59 -9.5t43.5 -25.5t27 -37.5t9.5 -44.5v-19q0 -23 -7.5 -46.5t-33.5 -38.5q27 -13 35 -38t8 -48v-36q0 -58 -39 -91.5t-101 -33.5q-35 0 -61.5 10t-44.5 27.5t-27 39.5t-9 46
v22q0 12 1.5 26.5t6 29t13 27.5t23.5 22q-23 13 -32.5 37t-9.5 44v14q0 22 8 44t25.5 39.5t43.5 28.5t62 11zM640 190q0 11 -14 11q-13 0 -13 -11v-73q0 -4 3.5 -7.5t9.5 -3.5q7 0 10.5 3.5t3.5 7.5v73zM640 350q0 11 -14 11q-13 0 -13 -11v-52q0 -4 3.5 -7.5t9.5 -3.5
q7 0 10.5 3.5t3.5 7.5v52z" />
    <glyph glyph-name="uni215F" unicode="&#x215f;" horiz-adv-x="439" 
d="M265 -17h-124l314 731h124zM109 279v318l-61 -45v129l73 53h121v-455h-133z" />
    <glyph glyph-name="arrowleft" unicode="&#x2190;" horiz-adv-x="824" 
d="M764 381v-115h-510l107 -104l-83 -83l-243 244l243 246l83 -83l-107 -105h510z" />
    <glyph glyph-name="arrowup" unicode="&#x2191;" horiz-adv-x="534" 
d="M325 0h-115v487l-104 -107l-83 83l244 243l246 -243l-83 -83l-105 107v-487z" />
    <glyph glyph-name="arrowright" unicode="&#x2192;" horiz-adv-x="824" 
d="M546 381l-107 105l83 83l243 -246l-243 -244l-83 83l107 104h-510v115h510z" />
    <glyph glyph-name="arrowdown" unicode="&#x2193;" horiz-adv-x="534" 
d="M325 219l105 107l83 -83l-246 -243l-244 243l83 83l104 -107v487h115v-487z" />
    <glyph glyph-name="arrowupleft" unicode="&#x2196;" horiz-adv-x="840" 
d="M779 74l-81 -82l-462 457v-149h-115v344h346v-115h-149z" />
    <glyph glyph-name="arrowdownright" unicode="&#x2198;" horiz-adv-x="840" 
d="M121 562l81 82l462 -457v149h115v-344h-346v115h149z" />
    <glyph glyph-name="arrowhookleft" unicode="&#x21a9;" horiz-adv-x="880" 
d="M238 380h421q35 0 49.5 21t14.5 51v74q0 28 -15 43.5t-49 15.5h-116v112h120q48 0 81 -13.5t54 -36.5t30 -55.5t9 -69.5v-70q0 -84 -46 -135t-140 -51h-413l107 -105l-81 -80l-241 242l241 243l81 -80z" />
    <glyph glyph-name="arrowhookright" unicode="&#x21aa;" horiz-adv-x="880" 
d="M515 486l81 80l241 -243l-241 -242l-81 80l107 105h-413q-95 0 -140.5 51t-45.5 135v70q0 37 9 69.5t30 55.5t54 36.5t81 13.5h120v-112h-116q-34 0 -49 -15.5t-15 -43.5v-74q0 -30 14.5 -51t49.5 -21h421z" />
    <glyph glyph-name="carriagereturnright" unicode="&#x21b3;" horiz-adv-x="860" 
d="M191 380h426l-106 106l81 80l241 -243l-241 -242l-81 80l106 106h-541v426h115v-313z" />
    <glyph glyph-name="carriagereturn" unicode="&#x21b5;" horiz-adv-x="860" 
d="M719 693h115v-426h-541l106 -106l-81 -80l-241 242l241 243l81 -80l-106 -106h426v313z" />
    <glyph glyph-name="pageup" unicode="&#x21de;" horiz-adv-x="522" 
d="M97 361h97v128l-92 -83l-83 83l232 217l240 -217l-83 -83l-99 83v-128h96v-106h-96v-43h96v-103h-96v-109h-115v109h-97v103h97v43h-97v106z" />
    <glyph glyph-name="pagedown" unicode="&#x21df;" horiz-adv-x="522" 
d="M97 451h97v43h-97v103h97v109h115v-109h96v-103h-96v-43h96v-106h-96v-128l99 83l83 -83l-240 -217l-232 217l83 83l92 -83v128h-97v106z" />
    <glyph glyph-name="arrowdashleft" unicode="&#x21e0;" horiz-adv-x="834" 
d="M373 380v-115h-108l107 -104l-83 -83l-243 244l243 246l83 -83l-107 -105h108zM397 380h108v-115h-108v115zM530 380h108v-115h-108v115zM665 380h108v-115h-108v115z" />
    <glyph glyph-name="arrowdashup" unicode="&#x21e1;" horiz-adv-x="540" 
d="M325 370h-115v108l-104 -107l-83 83l244 243l246 -243l-83 -83l-105 107v-108zM325 346v-108h-115v108h115zM325 213v-108h-115v108h115zM325 78v-108h-115v108h115z" />
    <glyph glyph-name="arrowdashright" unicode="&#x21e2;" horiz-adv-x="834" 
d="M555 380l-107 105l83 83l243 -246l-243 -244l-83 83l107 104h-108v115h108zM423 265h-108v115h108v-115zM290 265h-108v115h108v-115zM155 265h-108v115h108v-115z" />
    <glyph glyph-name="arrowdashdown" unicode="&#x21e3;" horiz-adv-x="540" 
d="M325 190l105 107l83 -83l-246 -243l-244 243l83 83l104 -107v108h115v-108zM210 322v108h115v-108h-115zM210 455v108h115v-108h-115zM210 590v108h115v-108h-115z" />
    <glyph glyph-name="arrowtableft" unicode="&#x21e4;" horiz-adv-x="886" 
d="M62 104v435h125v-435h-125zM835 381v-115h-400l107 -104l-83 -83l-243 244l243 246l83 -83l-107 -105h400z" />
    <glyph glyph-name="arrowtabright" unicode="&#x21e5;" horiz-adv-x="886" 
d="M711 104v435h125v-435h-125zM463 381l-107 105l83 83l243 -246l-243 -244l-83 83l107 104h-400v115h400z" />
    <glyph glyph-name="shift" unicode="&#x21e7;" horiz-adv-x="840" 
d="M422 579l-188 -195h83v-296h211v296h82zM28 301l394 404l394 -404h-200v-301h-388v301h-200z" />
    <glyph glyph-name="capslock" unicode="&#x21ea;" horiz-adv-x="840" 
d="M312 -42v-60h211v60h-211zM223 38h387v-216h-387v216zM417 579l-188 -195h83v-196h211v196h82zM23 301l394 404l394 -404h-200v-201h-388v201h-200z" />
    <glyph glyph-name="partialdiff" unicode="&#x2202;" horiz-adv-x="491" 
d="M235 140q21 0 34 15t20.5 39t10 53.5t2.5 58.5q-28 19 -54 19q-25 0 -41.5 -23.5t-16.5 -73.5q0 -26 3.5 -43t10 -27t14.5 -14t17 -4zM233 -10q-45 0 -82.5 15.5t-64 45.5t-41.5 74t-15 101q0 54 15.5 98t42.5 74.5t63.5 47t78.5 16.5q36 0 67 -10q-2 33 -14 56.5
t-30.5 38.5t-42.5 22t-51 7q-14 0 -29 -2t-30 -5l-2 136q52 11 92 11q72 0 123.5 -28.5t84 -78t48 -117t15.5 -145.5q0 -177 -61.5 -267t-166.5 -90z" />
    <glyph glyph-name="gradient" unicode="&#x2207;" horiz-adv-x="511" 
d="M503 696l-141 -696h-216l-140 696h497zM252 199h6l23 174l23 172h-100l24 -169z" />
    <glyph glyph-name="product" unicode="&#x220f;" horiz-adv-x="498" 
d="M283 -79v623h-67v-623h-176v775h418v-775h-175z" />
    <glyph glyph-name="summation" unicode="&#x2211;" horiz-adv-x="418" 
d="M210 72h181v-151h-361v144l88 255l-91 234v142h358v-150h-176l86 -226z" />
    <glyph glyph-name="minus" unicode="&#x2212;" horiz-adv-x="480" 
d="M33 238v136h414v-136h-414z" />
    <glyph glyph-name="radical" unicode="&#x221a;" horiz-adv-x="544" 
d="M358 -77h-138l-97 345l-71 -24l-38 131l205 70l51 -194l97 538h155z" />
    <glyph glyph-name="infinity" unicode="&#x221e;" horiz-adv-x="689" 
d="M202 459q40 0 78.5 -22.5t64.5 -50.5q26 35 59.5 54t84.5 19q34 0 63.5 -13.5t51 -37t33.5 -56.5t12 -72q0 -36 -12 -69t-33.5 -57.5t-52.5 -39.5t-68 -15q-43 0 -77.5 23.5t-60.5 54.5q-28 -34 -61 -56t-84 -22q-34 0 -63.5 13.5t-51 37.5t-33.5 57t-12 73
q0 36 11.5 68.5t32.5 57t51 39t67 14.5zM206 332q-15 0 -26 -15t-11 -37q0 -23 10.5 -39t24.5 -16q17 0 33.5 15t31.5 38q-14 22 -30 38t-33 16zM485 332q-14 0 -31.5 -14.5t-34.5 -37.5q17 -23 34 -39t31 -16t24.5 16t10.5 39t-10 37.5t-24 14.5z" />
    <glyph glyph-name="logicaland" unicode="&#x2227;" horiz-adv-x="480" 
d="M238 286l-59 -285h-158l136 531h161l141 -531h-161l-57 285h-3z" />
    <glyph glyph-name="logicalor" unicode="&#x2228;" horiz-adv-x="480" 
d="M241 248l57 285h161l-141 -531h-161l-136 531h158l59 -285h3z" />
    <glyph glyph-name="intersection" unicode="&#x2229;" horiz-adv-x="480" 
d="M448 0h-167v305q0 28 -8 47.5t-36 19.5q-20 0 -31 -17.5t-11 -49.5v-305h-164v313q0 47 11.5 87.5t36.5 70.5t64 47t93 17q58 0 98.5 -17t65.5 -47t36.5 -70.5t11.5 -87.5v-313z" />
    <glyph glyph-name="union" unicode="&#x222a;" horiz-adv-x="480" 
d="M448 223q0 -47 -11.5 -87.5t-36.5 -70.5t-65.5 -47t-98.5 -17q-54 0 -93 17t-64 47t-36.5 70.5t-11.5 87.5v313h164v-305q0 -32 11 -49.5t31 -17.5q28 0 36 19.5t8 47.5v305h167v-313z" />
    <glyph glyph-name="integral" unicode="&#x222b;" horiz-adv-x="353" 
d="M276 770q18 0 44 -2.5t50 -13.5l-20 -112q-9 3 -18.5 4t-18.5 1q-28 0 -48 -23t-22 -87q-1 -19 -1.5 -51.5t-1 -71.5t-1 -79.5t-1 -74.5t-1 -58t-0.5 -29q-1 -55 -6.5 -111.5t-22.5 -102t-51 -74.5t-92 -29q-18 0 -42.5 3t-51.5 15l22 110q10 -3 18 -4t17 -1q14 0 26 5
t21.5 18t15.5 34t7 53q2 42 3.5 133t2.5 231q1 52 6 108.5t22.5 102.5t51.5 76t92 30z" />
    <glyph glyph-name="approxequal" unicode="&#x2248;" horiz-adv-x="480" 
d="M169 478q21 0 40 -8t35.5 -17.5t31 -17t27.5 -7.5q18 0 35.5 11t36.5 40l76 -45q-55 -123 -128 -123q-21 0 -40 7.5t-36 16.5t-32.5 16.5t-29.5 7.5q-17 0 -37.5 -9.5t-42.5 -41.5l-75 49q27 58 59 89.5t80 31.5zM169 296q21 0 40 -8t35.5 -17.5t31 -17t27.5 -7.5
q18 0 35.5 11t36.5 40l76 -45q-55 -123 -128 -123q-21 0 -40 7.5t-36 16.5t-32.5 16.5t-29.5 7.5q-17 0 -37.5 -9.5t-42.5 -41.5l-75 49q27 58 59 89.5t80 31.5z" />
    <glyph glyph-name="notequal" unicode="&#x2260;" horiz-adv-x="480" 
d="M208 148l-58 -108h-116l58 108h-47v126h116l29 54h-145v126h214l57 105h116l-57 -105h59v-126h-128l-29 -54h157v-126h-226z" />
    <glyph glyph-name="lessequal" unicode="&#x2264;" horiz-adv-x="480" 
d="M39 312v110l388 158v-147l-184 -66l184 -69v-147zM40 0v132h387v-132h-387z" />
    <glyph glyph-name="greaterequal" unicode="&#x2265;" horiz-adv-x="480" 
d="M39 151v147l184 69l-184 66v147l388 -158v-110zM39 0v132h387v-132h-387z" />
    <glyph glyph-name="control" unicode="&#x2303;" horiz-adv-x="720" 
d="M56 411l300 299l300 -299l-74 -76l-226 220l-225 -220z" />
    <glyph glyph-name="command" unicode="&#x2318;" horiz-adv-x="824" 
d="M266 501v50q0 20 -14.5 34.5t-34.5 14.5q-21 0 -35.5 -14t-14.5 -35q0 -22 14.5 -36t35.5 -14h49zM572 501h49q21 0 35 14.5t14 35.5q0 20 -14 34.5t-35 14.5q-20 0 -34.5 -14t-14.5 -35v-50zM266 196h-49q-21 0 -35.5 -14.5t-14.5 -34.5q0 -22 14.5 -36.5t35.5 -14.5
t35 14.5t14 36.5v49zM572 196v-49q0 -22 14.5 -36.5t34.5 -14.5q21 0 35 14.5t14 36.5q0 20 -14 34.5t-35 14.5h-49zM468 299v99h-98v-99h98zM572 299h49q38 0 67 -12.5t48 -33.5t28.5 -48.5t9.5 -57.5q0 -31 -9.5 -59t-28.5 -49t-48 -33.5t-67 -12.5q-36 0 -64.5 12t-48 33
t-30 49t-10.5 60v49h-98v-49q0 -30 -9.5 -58t-28.5 -49t-48 -34t-67 -13q-35 0 -63.5 12t-48.5 33t-31 49t-11 60q0 31 10.5 58.5t30 48.5t48.5 33t65 12h49v99h-49q-31 0 -59 12t-49 33t-33.5 49t-12.5 59t11.5 59t31.5 49t48.5 33t62.5 12q38 0 67 -12t48 -33t28.5 -49
t9.5 -59v-50h98v50q0 31 11 59t31.5 49t48.5 33t62 12q37 0 65.5 -12t48 -33t29.5 -49t10 -59q0 -30 -12 -57.5t-33 -49t-49 -34t-59 -12.5h-49v-99z" />
    <glyph glyph-name="enter" unicode="&#x2324;" horiz-adv-x="766" 
d="M670 696v-107h-587v107h587zM76 263l300 315l300 -315l-75 -77l-225 240l-224 -240z" />
    <glyph glyph-name="option" unicode="&#x2325;" horiz-adv-x="1188" 
d="M591 685h543v-107h-543v107zM63 685h298l349 -579h424v-106h-502l-350 578h-219v107z" />
    <glyph glyph-name="deleteright" unicode="&#x2326;" horiz-adv-x="1168" 
d="M483 269l-134 -135l-67 67l135 134l-135 136l67 67l134 -135l135 135l67 -67l-135 -135l135 -135l-67 -67zM938 347l-240 244h-493v-488h493zM749 0h-647v695h647l338 -348z" />
    <glyph glyph-name="deleteleft" unicode="&#x232b;" horiz-adv-x="1168" 
d="M572 134l-67 67l135 135l-135 135l67 67l135 -135l134 135l67 -67l-135 -136l135 -134l-67 -67l-134 135zM492 103h493v488h-493l-240 -244zM103 347l338 348h647v-695h-647z" />
    <glyph glyph-name="circlestar" unicode="&#x235f;" horiz-adv-x="804" 
d="M752 346q0 -73 -28 -137.5t-76 -112.5t-112.5 -75.5t-137.5 -27.5t-137 27.5t-112 75.5t-75.5 112.5t-27.5 138.5q0 73 27.5 137.5t75.5 112.5t112.5 75.5t138.5 27.5q73 0 137.5 -28t112.5 -76t75.5 -112.5t27.5 -137.5h-1zM693 346q0 61 -23 115t-63 94t-94 63t-115 23
t-115 -23t-94 -63t-63 -94t-23 -115t23 -114.5t63 -93.5t94 -63t115 -23t115 23t94 63t63 93.5t23 114.5zM521 301l26 -169l-157 76l-141 -76l21 165l-118 117l163 32l75 148l80 -146l164 -34z" />
    <glyph glyph-name="eject" unicode="&#x23cf;" horiz-adv-x="854" 
d="M768 227v-136h-702v136h702zM768 314h-702l351 351z" />
    <glyph glyph-name="blacksquare" unicode="&#x25a0;" horiz-adv-x="875" 
d="M756 40h-633v633h633v-633z" />
    <glyph glyph-name="whitesquare" unicode="&#x25a1;" horiz-adv-x="841" 
d="M174 94h500v505h-500v-505zM80 0v693h687v-693h-687z" />
    <glyph glyph-name="blackuppointing.trangle" unicode="&#x25b2;" horiz-adv-x="820" 
d="M781 176h-702l351 351z" />
    <glyph glyph-name="blackrightpointing.trangle" unicode="&#x25b6;" horiz-adv-x="595" 
d="M138 701l351 -350l-351 -351v701z" />
    <glyph glyph-name="blackdownpointing.trangle" unicode="&#x25bc;" horiz-adv-x="820" 
d="M430 176l-351 351h702z" />
    <glyph glyph-name="blackleftpointing.trangle" unicode="&#x25c0;" horiz-adv-x="595" 
d="M452 0l-351 351l351 350v-701z" />
    <glyph glyph-name="lozenge" unicode="&#x25ca;" horiz-adv-x="530" 
d="M293 -18h-89l-174 336l175 338h89l172 -338zM249 502l-91 -183l93 -183l90 182z" />
    <glyph glyph-name="blackcircle" unicode="&#x25cf;" horiz-adv-x="843" 
d="M744 357q0 -64 -25 -121.5t-68.5 -101t-101 -69t-121.5 -25.5q-65 0 -122.5 25t-101 68.5t-68.5 101t-25 122.5q0 66 26 123.5t69.5 100t101 67.5t120.5 25t120 -25t100.5 -68.5t69.5 -101t26 -121.5z" />
    <glyph glyph-name="umbrella" unicode="&#x2602;" horiz-adv-x="780" 
d="M405 695q55 0 112.5 -27.5t104.5 -73.5t77 -106t30 -124q-16 18 -40 28.5t-50 10.5q-23 0 -45 -9.5t-41 -29.5h-2q-23 39 -75 39q-28 0 -62 -14v-304q0 -42 -25.5 -67.5t-73.5 -25.5q-42 0 -69.5 23.5t-27.5 74.5v13h47v-13q0 -28 13.5 -41t34.5 -13q16 0 26 5t15.5 13
t7.5 18t2 20v296q-14 7 -27 9.5t-25 2.5q-26 0 -46.5 -10t-38.5 -27q-17 20 -40 29.5t-47 9.5q-25 0 -48.5 -9.5t-40.5 -29.5l-1 1q0 64 30.5 123.5t77.5 106t105 74.5t113 28v31h29v-32zM730 363q-1 0 -1 1z" />
    <glyph glyph-name="blackstar" unicode="&#x2605;" horiz-adv-x="814" 
d="M605 254l39 -258l-239 117l-214 -117l32 251l-181 180l249 48l114 226l123 -223l250 -51z" />
    <glyph glyph-name="whitestar" unicode="&#x2606;" horiz-adv-x="838" 
d="M608 257l39 -259l-240 117l-218 -119l33 255l-183 182l254 49l113 225l124 -223l254 -51zM727 415l-213 43l-107 193l-98 -196l-212 -40l153 -153l-27 -216l184 99l206 -99l-35 221z" />
    <glyph glyph-name="ballotbox" unicode="&#x2610;" horiz-adv-x="841" 
d="M174 94h500v505h-500v-505zM80 0v693h687v-693h-687z" />
    <glyph glyph-name="ballotbox.withcheck" unicode="&#x2611;" horiz-adv-x="850" 
d="M80 0v693h687v-693h-687zM174 94h500v461q-46 -48 -89 -105.5t-79.5 -115t-66.5 -111t-49 -92.5q-56 -11 -84 -27q-8 31 -22 73t-30.5 82.5t-34 73t-32.5 43.5q25 20 49 27.5t38 7.5q9 0 22 -14t25.5 -37t23.5 -52.5t17 -60.5q23 37 58 83.5t76 94.5t84.5 93.5t84.5 80.5
h-491v-505z" />
    <glyph glyph-name="ballotbox.withx" unicode="&#x2612;" horiz-adv-x="850" 
d="M579 564l65 -64l-154 -154l157 -157l-67 -63l-154 155l-157 -158l-63 67l155 154l-155 155l65 65l155 -155zM176 94h500v505h-500v-505zM82 0v693h687v-693h-687z" />
    <glyph glyph-name="radioactive" unicode="&#x2622;" horiz-adv-x="837" 
d="M418 432q16 0 30.5 -7t25 -18t16.5 -25.5t6 -30.5t-6 -30t-16.5 -24.5t-25 -17t-30.5 -6.5q-31 0 -55.5 22t-24.5 56t23.5 57.5t56.5 23.5zM569 89q-79 -41 -154 -41q-81 0 -148 42l98 170q30 -14 54 -14q20 0 50 14zM364 442q-23 -14 -36 -37.5t-16 -53.5h-197
q0 86 35.5 149t114.5 114zM569 615q72 -40 112 -108t40 -156h-197q-6 62 -55 93zM416 684q-68 0 -128 -26.5t-105 -72t-71 -106t-26 -128.5q0 -70 26.5 -130.5t72 -105.5t106.5 -70.5t129 -25.5q66 0 125.5 26.5t105 71.5t72 103.5t26.5 122.5q0 79 -28.5 142t-75 107
t-106.5 68t-123 24zM418 -17q-77 0 -144 28.5t-117 78t-78.5 117t-28.5 144.5q0 67 26 132t74 117t115.5 84t150.5 32q78 0 146 -28t118 -76.5t78.5 -114t28.5 -141.5q0 -77 -28.5 -145t-78 -118.5t-117 -80t-145.5 -29.5z" />
    <glyph glyph-name="biohazard" unicode="&#x2623;" horiz-adv-x="856" 
d="M553 462q-13 -27 -37 -43q-44 30 -86 30q-41 0 -89 -30q-14 8 -22 18.5t-15 24.5q32 21 62 32t62 11q64 0 125 -43zM502 120q-7 12 -11.5 25t-6.5 27q88 44 88 124v12t-1 14q11 7 27 8.5t27 1.5q4 -16 4 -37q0 -54 -33.5 -101t-93.5 -74zM351 120q-28 12 -51 30
t-39.5 41.5t-25.5 50t-9 54.5q0 21 4 38h12q22 -2 42 -12v-30q0 -76 88 -120q-2 -14 -7.5 -27.5t-13.5 -24.5zM272 531q0 -68 38 -107.5t111 -48.5v-22q-23 -5 -32.5 -18.5t-9.5 -27.5q0 -5 1 -9.5t3 -9.5l-19 -10q-60 72 -133 72q-29 0 -56.5 -12t-48.5 -32.5t-34 -47.5
t-13 -57q0 -22 6 -56l-11 -5q-8 25 -13.5 50.5t-5.5 50.5q0 29 8 57t26.5 52.5t48 45t73.5 34.5q0 63 11.5 109.5t35 78t59.5 51t86 28.5l5 -15q-136 -39 -136 -151zM583 533q0 109 -118 148l5 16q91 -20 134 -77t43 -155v-16t-1 -17q78 -31 116 -83.5t38 -119.5
q0 -45 -18 -96l-13 4q8 43 8 65q0 30 -12.5 56.5t-33.5 46t-49.5 30.5t-60.5 11q-40 0 -71.5 -19t-55.5 -52l-23 13q3 10 3 20q0 16 -9 27.5t-30 17.5v22q72 9 110 49.5t38 108.5zM428 53q-42 -32 -81 -42.5t-74 -10.5q-26 0 -49 4t-43.5 14t-40 27t-39.5 43l11 8
q68 -60 117 -60q33 0 62 12.5t50.5 33.5t34 49.5t12.5 60.5q0 12 -2.5 30t-15.5 41l22 13q7 -11 17.5 -14.5t20.5 -3.5q18 0 33 17l23 -12q-17 -41 -17 -72t12 -58.5t33 -48.5t48 -33t57 -12q66 0 122 54l12 -8q-19 -26 -38 -42.5t-39.5 -26t-43.5 -13t-50 -3.5
q-38 0 -77.5 10.5t-76.5 42.5z" />
    <glyph glyph-name="peace" unicode="&#x262e;" horiz-adv-x="834" 
d="M410 713q78 0 145.5 -28t117.5 -76.5t78.5 -113.5t28.5 -139q0 -77 -29 -144t-79.5 -116.5t-118.5 -78t-145 -28.5q-73 0 -138.5 29t-115 78.5t-78.5 116t-29 140.5q0 75 28.5 141t78 114.5t115.5 76.5t141 28zM675 204q18 32 28.5 69t10.5 83q0 58 -19 108t-54.5 88.5
t-86 64.5t-113.5 35v-239zM384 413v239q-60 -8 -110 -33t-86 -64.5t-56 -91.5t-20 -112q0 -27 2.5 -47t7.5 -36t12.5 -31.5t18.5 -33.5zM441 338v-289q59 7 107 34t93 75zM384 338l-197 -180q23 -22 45 -40t45 -32.5t49 -24t58 -14.5v291z" />
    <glyph glyph-name="yingyang" unicode="&#x262f;" horiz-adv-x="828" 
d="M525 174q-21 0 -34.5 15.5t-13.5 33.5q0 23 15.5 37.5t32.5 14.5q22 0 36.5 -16t14.5 -36q0 -22 -15.5 -35.5t-35.5 -13.5zM253 488q0 -20 13 -35t36 -15q22 0 36.5 15t14.5 35q0 18 -14 33.5t-38 15.5q-17 0 -32.5 -13.5t-15.5 -35.5zM50 356q0 82 31.5 148.5t82.5 114
t116 73.5t133 26q82 0 149.5 -29.5t115.5 -79.5t74 -116.5t26 -140.5q0 -82 -29.5 -148.5t-79.5 -114t-115.5 -73t-138.5 -25.5q-81 0 -148.5 30.5t-115.5 81t-74.5 116.5t-26.5 137zM249 649q21 6 42 6q41 0 74.5 -15.5t57 -39t36.5 -51t13 -52.5q0 -51 -19.5 -94.5
t-67.5 -91.5q-21 -21 -29 -51.5t-8 -51.5q0 -74 45.5 -115.5t128.5 -41.5q43 0 85 23.5t75 64.5t53.5 96t20.5 118q0 66 -24.5 128.5t-69.5 110.5t-108 77.5t-141 29.5q-45 0 -87.5 -11.5t-81.5 -34.5z" />
    <glyph glyph-name="recyclable.outline" unicode="&#x2672;" horiz-adv-x="919" 
d="M668 448l-211 21l60 38l-46 81l-124 -185l-169 98l103 166q11 18 27 28t42 10h243q20 0 27.5 -2.5t14.5 -13.5l53 -87l64 38zM50 421h211l85 -183l-60 35l-31 -28q-16 -15 -16 -29q0 -25 31 -25h192v-211h-185q-32 0 -45 10.5t-23 28.5l-113 208q-7 12 -9.5 25t-2.5 27
q0 26 7 50t25 43zM593 372l172 102l95 -176q9 -18 9 -30q0 -11 -3.5 -20.5t-8.5 -18.5l-108 -194q-9 -16 -15.5 -26.5t-13 -17t-15 -9t-21.5 -2.5h-84v-77l-111 175l110 169v-70h109zM199 504l144 -83l120 181q-19 37 -47.5 61t-71.5 24q-29 0 -48 -28zM311 275l-61 131
h-158l47 -32q-19 -18 -29.5 -42.5t-10.5 -50.5q0 -29 9.5 -46.5t25 -27t34.5 -13t37 -3.5h28q-11 8 -11 24q0 20 19 39l42 38zM448 178h-237q-17 0 -28.5 1t-20 2.5t-16 4t-15.5 5.5l88 -163q9 -16 19.5 -25.5t33.5 -9.5h176v185zM686 582l-59 93q-6 10 -13 13.5t-19 3.5
h-204q31 -7 51.5 -33t38.5 -58l56 -100l-37 -23l159 -15l67 145zM611 368l115 -191q19 2 41 10t41 20.5t31.5 28.5t12.5 34q0 7 -2 13t-4 11l-89 159zM587 206l-81 -128l81 -130v45h96q9 0 20.5 5t20.5 21l103 188q-32 -30 -67.5 -37.5t-88.5 -7.5h-84v44z" />
    <glyph glyph-name="recycled.plastics.type1" unicode="&#x2673;" horiz-adv-x="869" 
d="M536 0v-59h-16l-74 95l78 98l13 -2v-59h128q36 0 52.5 12t16.5 32q0 19 -16 46l-100 170l67 39l111 -194q23 -39 23 -73q0 -48 -40.5 -76.5t-102.5 -28.5h-140zM393 73v-73h-213q-60 0 -95 28.5t-35 75.5q0 36 24 78l73 131l-46 25l7 13l118 22l42 -112l-8 -15l-47 29
l-64 -116q-13 -24 -13 -43q0 -18 13.5 -30.5t45.5 -12.5h198zM624 400l-121 21l-6 12l49 27l-71 120q-8 14 -19.5 22t-25.5 8t-27 -10t-21 -25l-99 -174l-64 37l106 185q22 38 49.5 54.5t57.5 16.5q31 0 59.5 -18t46.5 -50l73 -129l51 29l6 -14zM452 120h-55v228l-36 -25v57
l42 30h49v-290z" />
    <glyph glyph-name="recycled.plastics.type2" unicode="&#x2674;" horiz-adv-x="869" 
d="M329 124v46l107 134q14 15 14 33q0 11 -8 20t-23 9q-14 0 -23.5 -11.5t-12.5 -31.5l-52 6q6 42 31 64.5t57 22.5q36 0 60 -20t24 -58q0 -14 -5 -29.5t-16 -29.5l-83 -104h99v-51h-169zM536 0v-59h-16l-74 95l78 98l13 -2v-59h128q36 0 52.5 12t16.5 32q0 19 -16 46
l-100 170l67 39l111 -194q23 -39 23 -73q0 -48 -40.5 -76.5t-102.5 -28.5h-140zM393 73v-73h-213q-60 0 -95 28.5t-35 75.5q0 36 24 78l73 131l-46 25l7 13l118 22l42 -112l-8 -15l-47 29l-64 -116q-13 -24 -13 -43q0 -18 13.5 -30.5t45.5 -12.5h198zM624 400l-121 21l-6 12
l49 27l-71 120q-8 14 -19.5 22t-25.5 8t-27 -10t-21 -25l-99 -174l-64 37l106 185q22 38 49.5 54.5t57.5 16.5q31 0 59.5 -18t46.5 -50l73 -129l51 29l6 -14z" />
    <glyph glyph-name="recycled.plastics.type3" unicode="&#x2675;" horiz-adv-x="869" 
d="M536 0v-59h-16l-74 95l78 98l13 -2v-59h128q36 0 52.5 12t16.5 32q0 19 -16 46l-100 170l67 39l111 -194q23 -39 23 -73q0 -48 -40.5 -76.5t-102.5 -28.5h-140zM393 73v-73h-213q-60 0 -95 28.5t-35 75.5q0 36 24 78l73 131l-46 25l7 13l118 22l42 -112l-8 -15l-47 29
l-64 -116q-13 -24 -13 -43q0 -18 13.5 -30.5t45.5 -12.5h198zM624 400l-121 21l-6 12l49 27l-71 120q-8 14 -19.5 22t-25.5 8t-27 -10t-21 -25l-99 -174l-64 37l106 185q22 38 49.5 54.5t57.5 16.5q31 0 59.5 -18t46.5 -50l73 -129l51 29l6 -14zM505 214q0 -42 -24.5 -67.5
t-66.5 -25.5q-14 0 -27.5 3.5t-25 12.5t-20 24t-12.5 37l51 7q4 -19 13.5 -27t21.5 -8q18 0 28.5 12.5t10.5 30.5q0 19 -10.5 28.5t-26.5 9.5h-29v48h26q16 0 26.5 9.5t10.5 23.5t-10 24t-24 10q-11 0 -20 -9.5t-14 -26.5l-52 6q7 35 31 57.5t55 22.5q45 0 65.5 -25
t20.5 -58q0 -15 -5 -29t-22 -27q17 -14 23 -30t6 -33z" />
    </font>
</defs>
</svg>
