<svg xmlns="http://www.w3.org/2000/svg" viewBox="0 0 161.74393 53.87923"><title>arrow-white</title><path fill="#fff" d="M9 26.878c47.284 5.11 94.82 2.485 142.245 1.716 3.302-.054 3.988-3.092 2.381-5.447-2.054-3.01-6.272-4.304-9.719-4.248-46.338.752-92.736 3.288-138.937-1.704-2.76-.299-5.785 1.01-4.769 4.192 1.035 3.238 5.78 5.165 8.8 5.491z"></path><path fill="#fff" d="M94.543 8.526q26.86 10.535 54.214 19.721l6.424-7.564c-18.96 8.014-37.708 16.811-56.093 26.059-1.555.782-6.484 3.78-5.223 6.149 1.272 2.387 6.647-.213 8.017-.902 17.202-8.652 34.736-16.874 52.474-24.372.787-.333 10.411-6.226 6.424-7.564Q133.428 10.874 106.567.332c-2.9-1.137-6.775.883-9.12 2.504-.871.604-5.683 4.6-2.904 5.69z"></path></svg>