<svg width="45" height="45" viewBox="0 0 45 45" fill="none" xmlns="http://www.w3.org/2000/svg">
<path d="M42.9547 24.5455C42.341 24.5455 41.932 24.9547 41.932 25.5682V38.8637C41.932 39.4774 41.5229 39.8864 40.9093 39.8864H4.09103C3.47738 39.8864 3.06834 39.4773 3.06834 38.8637V25.5682C3.06834 24.9546 2.65921 24.5455 2.04564 24.5455C1.43208 24.5455 1.02295 24.9547 1.02295 25.5682V38.8637C1.02295 40.6024 2.35247 41.9319 4.09112 41.9319H40.9093C42.6479 41.9319 43.9775 40.6024 43.9775 38.8637V25.5682C43.9775 24.9546 43.5683 24.5455 42.9547 24.5455Z" fill="black"/>
<path d="M41.9318 10.2273H3.06817C1.32952 10.2273 0 11.5568 0 13.2955V19.8409C0 21.2727 1.0227 22.5 2.3523 22.8068L18.4091 26.3863V29.659C18.4091 30.2727 18.8183 30.6817 19.4318 30.6817H25.5682C26.1818 30.6817 26.5909 30.2726 26.5909 29.659V26.3863L42.6477 22.8068C43.9773 22.5 45 21.2727 45 19.8409V13.2954C45 11.5568 43.6705 10.2273 41.9318 10.2273ZM24.5455 28.6363H20.4546V24.5455H24.5455V28.6363ZM42.9545 19.8409C42.9545 20.3522 42.6477 20.7613 42.1363 20.8636L26.5909 24.3409V23.5227C26.5909 22.909 26.1817 22.5 25.5682 22.5H19.4318C18.8182 22.5 18.4091 22.9091 18.4091 23.5227V24.3409L2.86365 20.8636C2.3523 20.7613 2.04548 20.3523 2.04548 19.8409V13.2955C2.04548 12.6818 2.45461 12.2728 3.06817 12.2728H41.9318C42.5455 12.2728 42.9545 12.6819 42.9545 13.2955V19.8409Z" fill="black"/>
<path d="M27.6138 3.06824H17.3865C15.6479 3.06824 14.3184 4.39776 14.3184 6.13641V7.15911C14.3184 7.77276 14.7275 8.1818 15.3411 8.1818C15.9546 8.1818 16.3638 7.77267 16.3638 7.15911V6.13641C16.3638 5.52276 16.7729 5.11372 17.3864 5.11372H27.6138C28.2274 5.11372 28.6364 5.52285 28.6364 6.13641V7.15911C28.6364 7.77276 29.0456 8.1818 29.6591 8.1818C30.2728 8.1818 30.6818 7.77267 30.6818 7.15911V6.13641C30.682 4.39776 29.3525 3.06824 27.6138 3.06824Z" fill="black"/>
</svg>
