<svg width="19" height="19" viewBox="0 0 19 19" fill="none" xmlns="http://www.w3.org/2000/svg">
<path d="M14.849 9.80803L14.142 9.10103L4.242 19.001H0V14.758L11.313 3.44403L16.97 9.10103C17.1575 9.28856 17.2628 9.54286 17.2628 9.80803C17.2628 10.0732 17.1575 10.3275 16.97 10.515L9.9 17.586L8.485 16.172L14.849 9.80803ZM12.728 7.68703L11.313 6.27303L2 15.586V17.001H3.414L12.728 7.68703ZM15.556 0.616029L18.385 3.44403C18.5725 3.63156 18.6778 3.88586 18.6778 4.15103C18.6778 4.41619 18.5725 4.6705 18.385 4.85803L16.97 6.27303L12.728 2.03003L14.142 0.616029C14.3295 0.428557 14.5838 0.323242 14.849 0.323242C15.1142 0.323242 15.3685 0.428557 15.556 0.616029Z" fill="#09121F"/>
</svg>
