<svg width="50" height="50" viewBox="0 0 50 50" fill="none" xmlns="http://www.w3.org/2000/svg">
<g clip-path="url(#clip0)">
<path d="M20.8333 50C9.375 50 0 40.625 0 29.1667C0 17.7084 9.375 8.33337 20.8333 8.33337C32.2917 8.33337 41.6667 17.7084 41.6667 29.1667C41.6667 40.625 32.2917 50 20.8333 50ZM20.8333 10.4167C10.4167 10.4167 2.08333 18.75 2.08333 29.1667C2.08333 39.5834 10.4167 47.9167 20.8333 47.9167C31.25 47.9167 39.5833 39.5834 39.5833 29.1667C39.5833 18.75 31.25 10.4167 20.8333 10.4167Z" fill="black"/>
<path d="M20.8337 42.7083C13.3337 42.7083 7.29199 36.6667 7.29199 29.1667C7.29199 21.6667 13.3337 15.625 20.8337 15.625C28.3337 15.625 34.3753 21.6667 34.3753 29.1667C34.3753 36.6667 28.3337 42.7083 20.8337 42.7083ZM20.8337 17.7083C14.5837 17.7083 9.37533 22.9167 9.37533 29.1667C9.37533 35.4167 14.5837 40.625 20.8337 40.625C27.0837 40.625 32.292 35.4167 32.292 29.1667C32.292 22.9167 27.0837 17.7083 20.8337 17.7083Z" fill="black"/>
<path d="M20.833 35.4166C17.2913 35.4166 14.583 32.7083 14.583 29.1666C14.583 25.625 17.2913 22.9166 20.833 22.9166C24.3747 22.9166 27.083 25.625 27.083 29.1666C27.083 32.7083 24.3747 35.4166 20.833 35.4166ZM20.833 25C18.5413 25 16.6663 26.875 16.6663 29.1666C16.6663 31.4583 18.5413 33.3333 20.833 33.3333C23.1247 33.3333 24.9997 31.4583 24.9997 29.1666C24.9997 26.875 23.1247 25 20.833 25Z" fill="black"/>
<path d="M20.8333 30.2083C20.625 30.2083 20.2083 30.2083 20 30C19.5833 29.5833 19.5833 28.9583 20 28.5416L35.625 12.9166C36.0417 12.5 36.6667 12.5 37.0833 12.9166C37.5 13.3333 37.5 13.9583 37.0833 14.375L21.4583 30C21.4583 30.2083 21.0417 30.2083 20.8333 30.2083Z" fill="black"/>
<path d="M41.6665 14.5833H36.4582C35.8332 14.5833 35.4165 14.1667 35.4165 13.5417V8.33333C35.4165 8.125 35.6248 7.70833 35.6248 7.5L42.9165 0.208333C43.3332 0 43.7498 0 44.1665 0C44.5832 0.208333 44.7915 0.625 44.7915 1.04167V5.20833H48.9582C49.3748 5.20833 49.7915 5.41667 49.9998 5.83333C49.9998 6.25 49.9998 6.66667 49.7915 7.08333L42.4998 14.375C42.2915 14.375 41.8748 14.5833 41.6665 14.5833ZM37.4998 12.5H41.2498L46.4582 7.29167H43.7498C43.1248 7.29167 42.7082 6.875 42.7082 6.25V3.54167L37.4998 8.75V12.5Z" fill="black"/>
</g>
<defs>
<clipPath id="clip0">
<rect width="50" height="50" fill="white"/>
</clipPath>
</defs>
</svg>
