<svg width="35" height="35" viewBox="0 0 35 35" fill="none" xmlns="http://www.w3.org/2000/svg">
<path d="M28.4375 35H6.5625C2.93781 35 0 32.0622 0 28.4375V6.5625C0 2.93781 2.93781 0 6.5625 0H28.4375C32.0622 0 35 2.93781 35 6.5625V28.4375C35 32.0622 32.0622 35 28.4375 35Z" fill="#F0F0F0"/>
<path d="M26.2464 26.2496L26.2508 26.2485V19.8304C26.2508 16.6903 25.5748 14.272 21.9042 14.272C20.14 14.272 18.9555 15.2399 18.472 16.1587H18.4217V14.5651H14.9414V26.2485H18.5661V20.4637C18.5661 18.9401 18.8548 17.4679 20.7416 17.4679C22.5998 17.4679 22.6283 19.2059 22.6283 20.5621V26.2496H26.2464Z" fill="#B0B0B0"/>
<path d="M9.03906 14.5667H12.667V26.2501H9.03906V14.5667Z" fill="#B0B0B0"/>
<path d="M10.8511 8.75C9.69172 8.75 8.75 9.69172 8.75 10.8511C8.75 12.0116 9.69172 12.9719 10.8511 12.9719C12.0105 12.9719 12.9522 12.0116 12.9522 10.8511C12.9522 9.69172 12.0105 8.75 10.8511 8.75Z" fill="#B0B0B0"/>
</svg>
