<svg width="45" height="45" viewBox="0 0 45 45" fill="none" xmlns="http://www.w3.org/2000/svg">
<g clip-path="url(#clip0)">
<path d="M15.0401 30.1803H12.9849V45H15.0401V30.1803Z" fill="black"/>
<path d="M23.586 27.6924H21.5308V45.0001H23.586V27.6924Z" fill="black"/>
<path d="M6.49448 39.4832H4.54736V45H6.49448V39.4832Z" fill="black"/>
<path d="M32.0235 21.4182H29.9683V44.9999H32.0235V21.4182Z" fill="black"/>
<path d="M40.4608 15.7932H38.5137V44.9999H40.4608V15.7932Z" fill="black"/>
<path d="M43.2627 0.292067C43.0463 0.108173 42.7759 0 42.4838 0H35.074C34.479 0 33.9922 0.486779 33.9922 1.08173C33.9922 1.67668 34.479 2.16346 35.074 2.16346L39.8552 2.15264L28.1617 13.857L24.062 9.73558C23.8564 9.53005 23.586 9.41106 23.2939 9.40024C23.0019 9.41106 22.7314 9.53005 22.5259 9.73558L1.75667 30.5264C1.32398 30.9375 1.31316 31.6298 1.72422 32.0625C2.13527 32.4952 2.82758 32.506 3.26027 32.0949C3.27109 32.0841 3.28191 32.0733 3.29273 32.0733L23.3047 12.0613L27.4045 16.1502C27.61 16.3449 27.8805 16.4531 28.1725 16.4531C28.4538 16.4531 28.735 16.3449 28.9406 16.1502L41.4128 3.67788L41.402 8.44832C41.402 9.04327 41.878 9.51923 42.4729 9.51923H42.4837C43.0787 9.53005 43.5546 9.05408 43.5655 8.45913C43.5655 8.45913 43.5655 8.45913 43.5655 8.44832L43.5763 1.04928C43.5764 0.768029 43.4574 0.497596 43.2627 0.292067Z" fill="black"/>
</g>
<defs>
<clipPath id="clip0">
<rect width="45" height="45" fill="white"/>
</clipPath>
</defs>
</svg>
