<svg width="25" height="25" viewBox="0 0 25 25" fill="none" xmlns="http://www.w3.org/2000/svg">
<path d="M19.0363 17.3865L24.0332 22.3822L22.3823 24.033L17.3867 19.0362C15.5279 20.5263 13.2158 21.3367 10.8335 21.3333C5.0375 21.3333 0.333496 16.6293 0.333496 10.8333C0.333496 5.03733 5.0375 0.333328 10.8335 0.333328C16.6295 0.333328 21.3335 5.03733 21.3335 10.8333C21.3369 13.2157 20.5264 15.5277 19.0363 17.3865ZM16.696 16.5208C18.1766 14.9982 19.0035 12.9572 19.0002 10.8333C19.0002 6.32066 15.345 2.66666 10.8335 2.66666C6.32083 2.66666 2.66683 6.32066 2.66683 10.8333C2.66683 15.3448 6.32083 19 10.8335 19C12.9573 19.0033 14.9984 18.1765 16.521 16.6958L16.696 16.5208Z" fill="#09121F"/>
</svg>
