<svg width="17" height="17" viewBox="0 0 17 17" fill="none" xmlns="http://www.w3.org/2000/svg">
<path d="M8.5 0C3.80603 0 0 3.80603 0 8.5C0 13.194 3.80603 17 8.5 17C13.194 17 17 13.194 17 8.5C17 3.80603 13.194 0 8.5 0ZM8.5 15.558C4.6029 15.558 1.44196 12.3971 1.44196 8.5C1.44196 4.6029 4.6029 1.44196 8.5 1.44196C12.3971 1.44196 15.558 4.6029 15.558 8.5C15.558 12.3971 12.3971 15.558 8.5 15.558Z" fill="#90C63E"/>
<path d="M11.2079 11.6593L8.50232 9.70312V5.00725C8.50232 4.92377 8.43401 4.85547 8.35053 4.85547H7.43792C7.35444 4.85547 7.28613 4.92377 7.28613 5.00725V10.2325C7.28613 10.2818 7.3089 10.3273 7.34874 10.3558L10.4869 12.644C10.5552 12.6933 10.6501 12.6781 10.6994 12.6117L11.242 11.8718C11.2914 11.8016 11.2762 11.7067 11.2079 11.6593Z" fill="#90C63E"/>
</svg>
