<svg width="15" height="15" viewBox="0 0 15 15" fill="none" xmlns="http://www.w3.org/2000/svg">
<path d="M14.2171 0.782861C14.7184 1.28413 15 1.96399 15 2.67289C15 3.38178 14.7184 4.06164 14.2171 4.56291L5.27564 13.505C5.0688 13.712 4.81153 13.8613 4.52927 13.9383L0.707052 14.9805C0.611787 15.0063 0.511386 15.0065 0.416009 14.9811C0.320631 14.9557 0.233662 14.9055 0.163903 14.8357C0.0941435 14.7659 0.0440699 14.6788 0.0187494 14.5834C-0.00657122 14.488 -0.00624014 14.3877 0.0197091 14.2924L1.06193 10.4705C1.13896 10.1883 1.28832 9.93106 1.49525 9.72424L10.4367 0.782861C10.938 0.281603 11.6179 0 12.3269 0C13.0358 0 13.7158 0.281603 14.2171 0.782861ZM9.71199 3.09123L2.28719 10.5169C2.21831 10.5858 2.1686 10.6716 2.143 10.7656L1.35853 13.6417L4.23491 12.8573C4.32859 12.8311 4.41382 12.7809 4.48221 12.7117L11.9085 5.28754L9.71199 3.09123ZM11.2286 1.57473L10.5039 2.29936L12.7004 4.49568L13.4251 3.77104C13.7116 3.47879 13.8711 3.08532 13.869 2.67613C13.8669 2.26695 13.7035 1.87511 13.4141 1.58577C13.1247 1.29642 12.7329 1.13296 12.3236 1.13089C11.9144 1.12882 11.5209 1.28832 11.2286 1.57473Z" fill="white"/>
</svg>
