<svg width="189" height="85" viewBox="0 0 189 85" fill="none" xmlns="http://www.w3.org/2000/svg">
<path d="M51.6807 83.3239C56.6107 82.6437 59.3413 79.4444 59.0867 74.7135C58.9243 71.7074 57.2078 69.9782 54.4508 69.0435C55.3288 68.372 56.2551 67.8717 56.9312 67.1476C58.0983 65.8847 58.7152 64.2097 58.646 62.4917C58.5768 60.7737 57.8273 59.1537 56.5624 57.9886C55.8986 57.3726 55.1115 56.9044 54.2533 56.615C50.5832 55.2984 46.742 55.6802 42.949 55.6627C37.5273 55.6319 37.5273 55.6627 37.5273 61.0782C37.5273 67.9507 37.4747 74.8276 37.5625 81.7046C37.5625 83.2932 37.2025 83.6004 35.6221 83.4073C18.8171 81.3359 4.1852 67.3056 0.77855 49.8873C-3.42269 28.3832 9.76929 7.17313 30.9379 1.53818C44.2177 -1.97269 56.4 0.577083 67.4453 8.66964C68.7271 9.6088 68.7271 10.1749 67.7174 11.3511C64.3327 15.3008 61.049 19.3076 57.796 23.3539C56.9751 24.3808 56.3956 24.5125 55.3683 23.6347C53.665 22.1733 51.8563 20.8524 49.7886 19.2461C48.4716 29.0371 47.2161 38.4813 45.9166 48.2108L72.8186 37.1472C70.7905 35.5629 68.9818 34.163 67.1906 32.7586C66.6595 32.3198 65.8736 32.0652 66.7034 31.0997C70.0881 27.0842 73.4025 23.0116 76.8004 18.8643C80.7779 24.7535 83.127 31.5894 83.6093 38.6788C84.3205 48.382 83.7103 58.1027 84 68.3501C83.3327 67.3012 82.942 66.6517 82.5162 66.0329C79.6934 61.9076 75.5448 61.2055 71.0451 61.8681C67.0941 62.4343 64.3547 64.7383 63.2704 68.6485C62.0807 72.9318 62.3353 77.0702 65.2722 80.6732C66.339 81.9898 67.6209 83.0914 69.3944 83.3898C69.6051 84.1841 68.9554 83.9735 68.6262 83.9778C63.2528 83.9954 57.878 83.9954 52.5017 83.9778C52.1373 83.9296 51.5754 84.0568 51.6807 83.3239Z" fill="#90C63E"/>
<path d="M140.725 64.8643C140.725 62.0735 140.768 59.2782 140.703 56.4741C140.668 55.1979 140.991 54.6813 142.39 54.6459C148.268 54.487 148.264 54.4384 148.268 60.3469C148.268 64.3212 148.211 68.2955 148.316 72.2698C148.404 75.6435 150.213 77.1714 153.333 76.8314C155.169 76.6327 156.209 75.6523 156.664 73.8727C157.206 71.7708 156.97 69.6335 156.992 67.5094C157.035 63.8354 157.044 60.157 156.992 56.4697C156.992 55.2112 157.228 54.6724 158.648 54.6415C164.496 54.5135 164.491 54.4605 164.491 60.3822C164.491 63.9149 164.408 67.4476 164.491 70.9803C164.767 80.3155 158.604 84.0558 150.506 83.177C143.981 82.4705 140.891 78.8318 140.738 72.1373C140.681 69.713 140.738 67.2798 140.738 64.8599L140.725 64.8643Z" fill="#90C63E"/>
<path d="M120.417 70.9508C122.736 67.9715 124.803 65.3779 126.787 62.7184C127.345 61.8605 128.328 61.3862 129.34 61.4873C131.407 61.5706 133.474 61.4873 136.036 61.4873C133.769 64.3045 131.876 66.8368 129.774 69.1808C128.68 70.4031 128.771 71.2531 129.631 72.528C131.928 75.941 134.082 79.4548 136.5 83.2533C133.678 83.2533 131.186 83.227 128.685 83.2533C127.938 83.2533 127.712 82.7758 127.417 82.2807C126.37 80.5282 125.337 78.7757 124.251 77.0714C123.934 76.5675 123.743 75.5511 123.057 75.8008C122.189 76.125 121.194 76.6289 120.912 77.733C120.879 78.0927 120.872 78.4543 120.891 78.8151C120.756 80.2434 121.477 82.6443 120.595 82.916C118.546 83.5469 116.197 83.2139 113.965 83.192C113.201 83.192 113.439 82.4559 113.435 82.0047C113.435 72.8917 113.424 63.7772 113.4 54.6613C113.4 53.5178 113.856 53.347 114.807 53.3864C116.748 53.4696 119.271 52.738 120.452 53.7062C121.724 54.7271 120.83 57.3865 120.847 59.323C120.912 63.0646 121.082 66.7886 120.417 70.9508Z" fill="black"/>
<path d="M169.414 74.9787C171.748 75.7867 173.756 76.6907 175.958 76.9397C176.319 76.979 176.677 77.1056 177.039 77.11C178.711 77.1406 180.767 77.5118 181.288 75.4067C181.782 73.4239 179.717 73.0789 178.429 72.3801C176.761 71.4761 174.982 70.7554 173.354 69.7597C170.318 67.9516 169.202 65.1215 169.59 61.7543C169.978 58.387 172.097 56.2819 175.327 55.308C179.589 54.0283 183.742 54.5961 187.819 56.1378C187.956 56.1902 188.163 56.1946 188.22 56.2907C189.372 58.2036 187.461 59.5007 187.201 61.1385C187.038 62.1517 186.495 62.3832 185.476 61.9333C183.748 61.1168 181.865 60.6703 179.951 60.6231C178.729 60.6231 177.453 60.8284 177.14 62.2041C176.862 63.4226 177.957 63.9511 178.866 64.4402C180.688 65.3792 182.555 66.2308 184.386 67.1523C187.854 68.8993 189.399 71.725 188.913 75.5596C188.472 79.1234 186.266 81.3158 182.956 82.4207C178.835 83.7965 174.718 83.482 170.662 82.0233C170.027 81.7962 169.4 81.5866 169.4 80.7131C169.414 78.9094 169.414 77.0489 169.414 74.9787Z" fill="#90C63E"/>
<path d="M109.2 72.7361C109.231 79.7141 105.188 83.962 98.4293 84.0012C91.7712 84.0448 87.5621 79.7403 87.5007 72.832C87.4393 65.7973 91.4508 61.6323 98.2493 61.6017C104.947 61.5712 109.156 65.8714 109.2 72.7361Z" fill="black"/>
<path d="M76.3 72.9364C76.2481 74.2728 76.3 75.5094 75.7677 76.6636C75.2786 77.731 74.5256 78.3992 73.2791 78.3992C71.9548 78.3992 71.02 77.8135 70.6175 76.6072C69.8217 74.192 69.7944 71.5885 70.5396 69.1572C70.8249 67.9816 71.8911 67.1659 73.0974 67.2003C74.452 67.1699 75.3738 67.8555 75.8586 69.1875C76.3433 70.5196 76.2394 71.7562 76.3 72.9364Z" fill="#91C63E"/>
<path d="M44.8113 74.4731C44.9934 73.085 44.0875 71.2538 46.7386 71.4075C49.807 71.5929 51.1304 72.3887 51.0993 74.6088C51.0682 76.7565 49.8559 77.4664 46.854 77.6834C43.8521 77.9005 45.1222 75.712 44.8113 74.4731Z" fill="#93C742"/>
<path d="M44.8487 63.9221C44.7672 62.6583 44.5441 61.452 46.663 61.6167C49.2365 61.802 50.4375 62.4401 50.3989 64.021C50.3603 65.6018 49.0864 66.3388 46.633 66.4911C44.2782 66.6434 44.9087 65.1037 44.8487 63.9221Z" fill="#93C742"/>
<path d="M77.8114 82.6512C80.7711 82.0858 82.298 79.9194 84.0002 77.6992V82.8823C81.9173 83.5549 79.8087 83.2619 77.7002 83.0474C77.7302 82.9135 77.7673 82.7813 77.8114 82.6512Z" fill="#97CA4A"/>
<path d="M51.2879 83.3008C51.3881 83.3869 51.484 83.5441 51.5887 83.5478C57.2562 83.7575 62.9238 83.7313 68.5914 83.5478C68.6917 83.5478 68.7876 83.3869 68.8835 83.3008L71.2377 83.6339C71.383 83.7163 71.431 83.7986 71.3816 83.881C71.3336 83.9633 71.2857 84.0008 71.2377 84.0008H39.9004C43.6933 83.5703 47.5124 83.8024 51.2879 83.3008Z" fill="#F0F7E5"/>
<path d="M71.4004 83.9586V83.6142C73.3098 83.5212 75.2364 83.8519 77.1288 83.3008C79.1576 84.0103 81.2332 83.6452 83.3004 83.4799C82.8358 84.2411 81.9621 83.9414 81.2545 83.9483C77.9684 83.9827 74.6823 83.9621 71.4004 83.9586Z" fill="#F7FBF2"/>
<path d="M95.232 72.7655C95.1209 71.4371 95.3168 70.1007 95.8041 68.8628C96.2011 67.8196 97.21 67.1509 98.3098 67.2019C99.4538 67.2019 100.406 67.692 100.811 68.8411C101.741 71.4264 101.729 74.2647 100.777 76.8417C100.35 77.9822 99.441 78.4201 98.2543 78.3985C97.1515 78.4253 96.1585 77.7236 95.7998 76.6639C95.3122 75.4277 95.1177 74.0922 95.232 72.7655Z" fill="#FDFDFD"/>
</svg>
