<svg width="21" height="22" viewBox="0 0 21 22" fill="none" xmlns="http://www.w3.org/2000/svg">
<path d="M12.1871 3.64014C11.5212 3.20634 10.7741 2.90365 9.99355 2.75057L10.0037 1H7.57303L7.57759 2.76432C7.19393 2.84392 6.81263 2.95881 6.4391 3.11447C6.06559 3.27063 5.71779 3.46158 5.39417 3.6774L4.12545 2.42468L2.42627 4.13271L3.69342 5.38376C3.25674 6.04659 2.95261 6.7876 2.79898 7.56544L1 7.56869V9.97173L2.81379 9.9652C2.89332 10.3446 3.00876 10.725 3.1655 11.0952C3.32303 11.4678 3.51407 11.8138 3.73241 12.1342" stroke="#90C63E" stroke-width="1.4" stroke-linecap="round"/>
<path d="M13.4618 19.9997V18.1465C13.8439 18.0703 14.2253 17.9536 14.598 17.799C14.9715 17.6426 15.3201 17.4515 15.6461 17.235L16.9413 18.5113L18.6413 16.8058L17.3452 15.5294C17.782 14.8664 18.086 14.1251 18.2404 13.3465L19.9997 13.3357V10.935L18.2249 10.9459C18.1453 10.5656 18.0315 10.1885 17.8739 9.817C17.7164 9.44486 17.5254 9.09839 17.307 8.77632L18.5337 7.54731L16.8165 5.85688L15.5915 7.08543C14.9255 6.65165 14.1785 6.34896 13.3979 6.19586L13.408 4.44531H10.9774L10.9819 6.20962C10.5983 6.28923 10.217 6.40406 9.84343 6.55973C9.46991 6.7159 9.12212 6.90684 8.79849 7.12267L7.52977 5.86993L5.83058 7.57798L7.09777 8.82903C6.66105 9.49184 6.35693 10.2329 6.2033 11.0107L4.4043 11.0139V13.4169L6.21812 13.4105C6.29764 13.7898 6.41307 14.1702 6.5698 14.5404C6.72732 14.913 6.91838 15.259 7.13673 15.5794L5.83602 16.8743L7.55392 18.5617L8.8515 17.2708C9.51745 17.7072 10.2645 18.0088 11.0459 18.1613L11.0467 19.9988C11.8513 20.0049 13.4618 19.9997 13.4618 19.9997L13.4618 19.9997Z" stroke="#90C63E" stroke-width="1.4" stroke-linecap="round"/>
<path d="M12.2126 14.2196C13.3698 14.2196 14.308 13.282 14.308 12.1254C14.308 10.9688 13.3698 10.0312 12.2126 10.0312C11.0553 10.0312 10.1172 10.9688 10.1172 12.1254C10.1172 13.282 11.0553 14.2196 12.2126 14.2196Z" stroke="#90C63E" stroke-width="1.4" stroke-linecap="square"/>
</svg>
