<svg width="24" height="24" viewBox="0 0 24 24" fill="none" xmlns="http://www.w3.org/2000/svg">
<path d="M19.0097 18.4445H4.99032C4.82848 18.4447 4.66944 18.4022 4.52936 18.3211C4.38928 18.24 4.27313 18.1233 4.19271 17.9829C4.11228 17.8424 4.07044 17.6832 4.07143 17.5214C4.07241 17.3595 4.11619 17.2008 4.19832 17.0614C4.92624 15.8338 5.47176 14.0825 5.57352 13.7438C5.57776 13.7299 5.57987 13.7154 5.57976 13.7009V10.7863C5.57976 10.7832 5.57976 10.7798 5.57976 10.7767C5.61672 9.29208 5.9772 8.01672 6.65064 6.98904C7.19376 6.15936 7.93728 5.49168 8.86032 5.00424C10.4146 4.1832 11.9323 4.16064 11.9962 4.16016H12.0029C12.0667 4.16016 13.5845 4.18416 15.1387 5.00424C16.0618 5.49168 16.8053 6.15936 17.3484 6.98904C18.0218 8.01768 18.3823 9.29304 18.4193 10.7767C18.4193 10.7798 18.4193 10.7832 18.4193 10.7863V13.7009C18.4192 13.7154 18.4213 13.7299 18.4255 13.7438C18.5273 14.0825 19.0735 15.834 19.8007 17.0614C19.8829 17.2008 19.9266 17.3595 19.9276 17.5214C19.9286 17.6832 19.8868 17.8424 19.8063 17.9829C19.7259 18.1233 19.6098 18.24 19.4697 18.3211C19.3296 18.4022 19.1706 18.4447 19.0087 18.4445H19.0097ZM6.348 10.7914V13.7009C6.34806 13.7903 6.33496 13.8793 6.30912 13.9649C6.20281 14.3184 5.63257 16.1489 4.85904 17.4526C4.84566 17.4746 4.83858 17.4999 4.83858 17.5258C4.83858 17.5516 4.84566 17.5769 4.85904 17.599C4.87204 17.6225 4.89114 17.642 4.91433 17.6556C4.93752 17.6691 4.96394 17.6762 4.9908 17.676H19.0097C19.0365 17.6762 19.063 17.6691 19.0862 17.6556C19.1093 17.642 19.1284 17.6225 19.1414 17.599C19.1548 17.5769 19.1619 17.5516 19.1619 17.5258C19.1619 17.4999 19.1548 17.4746 19.1414 17.4526C18.3876 16.1806 17.8409 14.4614 17.6911 13.9646C17.6655 13.879 17.6525 13.79 17.6525 13.7006V10.7914C17.5903 8.37624 16.6243 6.65688 14.7806 5.6832C13.4246 4.96824 12.0799 4.9296 12 4.92816C11.9251 4.92984 10.5538 4.9704 9.19464 5.69616C7.368 6.67224 6.40944 8.3868 6.348 10.7914Z" fill="#071021" stroke="#071021" stroke-width="0.2"/>
<path d="M10.158 5.26163C10.0562 5.26163 9.95851 5.22117 9.8865 5.14915C9.81448 5.07714 9.77402 4.97947 9.77402 4.87762V4.24163C9.77402 3.65125 10.0085 3.08506 10.426 2.66761C10.8435 2.25015 11.4097 2.01563 12 2.01562C12.5904 2.01563 13.1566 2.25015 13.574 2.66761C13.9915 3.08506 14.226 3.65125 14.226 4.24163V4.86563C14.226 4.96747 14.1856 5.06514 14.1136 5.13715C14.0415 5.20917 13.9439 5.24962 13.842 5.24962C13.7402 5.24962 13.6425 5.20917 13.5705 5.13715C13.4985 5.06514 13.458 4.96747 13.458 4.86563V4.24163C13.458 3.85494 13.3044 3.48409 13.031 3.21066C12.7576 2.93724 12.3867 2.78363 12 2.78363C11.6133 2.78363 11.2425 2.93724 10.9691 3.21066C10.6956 3.48409 10.542 3.85494 10.542 4.24163V4.87762C10.542 4.97947 10.5016 5.07714 10.4296 5.14915C10.3575 5.22117 10.2599 5.26163 10.158 5.26163ZM12 21.9836C10.2492 21.9836 8.82458 20.5592 8.82458 18.8082V18.0599C8.82458 17.958 8.86504 17.8603 8.93706 17.7883C9.00907 17.7163 9.10674 17.6759 9.20858 17.6759H14.7915C14.8933 17.6759 14.991 17.7163 15.063 17.7883C15.135 17.8603 15.1755 17.958 15.1755 18.0599V18.8082C15.1755 20.5592 13.752 21.9836 12 21.9836ZM9.59258 18.4439V18.8082C9.59258 19.4467 9.84623 20.059 10.2977 20.5105C10.7492 20.962 11.3615 21.2156 12 21.2156C12.6385 21.2156 13.2509 20.962 13.7023 20.5105C14.1538 20.059 14.4075 19.4467 14.4075 18.8082V18.4439H9.59258Z" fill="#071021" stroke="#071021" stroke-width="0.2"/>
</svg>
