<svg width="18" height="18" viewBox="0 0 18 18" fill="none" xmlns="http://www.w3.org/2000/svg">
<g clip-path="url(#clip0_1201_5792)">
<path d="M7.39464 0C11.4023 0 14.6509 3.24857 14.6509 7.25626C14.6509 8.98102 14.0458 10.564 13.0411 11.8098L17.837 16.6057C17.971 16.7527 18.0432 16.9458 18.0386 17.1447C18.034 17.3437 17.9529 17.5332 17.8122 17.6739C17.6715 17.8146 17.482 17.8956 17.2831 17.9002C17.0842 17.9048 16.8911 17.8326 16.7441 17.6986L11.9482 12.9028C10.6598 13.9454 9.05215 14.5138 7.39464 14.5125C3.38694 14.5125 0.138372 11.264 0.138372 7.25626C0.138372 3.24857 3.38694 0 7.39464 0ZM7.39464 13.3962C10.7805 13.3962 13.5346 10.6421 13.5346 7.25626C13.5346 3.87038 10.7805 1.11635 7.39464 1.11635C4.00875 1.11635 1.25472 3.87038 1.25472 7.25626C1.25472 10.6421 4.00875 13.3962 7.39464 13.3962Z" fill="#071021"/>
</g>
<defs>
<clipPath id="clip0_1201_5792">
<rect width="18" height="18" fill="white" transform="matrix(-1 0 0 1 18 0)"/>
</clipPath>
</defs>
</svg>
