<svg width="24" height="24" viewBox="0 0 24 24" fill="none" xmlns="http://www.w3.org/2000/svg">
<path d="M21.7083 13.7183C21.8822 13.6624 22 13.5007 22 13.318V10.6944C22 10.5117 21.882 10.3499 21.7081 10.2941L19.2339 9.50041C19.1243 9.19576 19.012 8.92437 18.8942 8.67885L20.0834 6.35827C20.1665 6.19609 20.1355 5.9986 20.0068 5.86968L18.153 4.01141C18.0241 3.88167 17.8269 3.85129 17.6645 3.93382L15.344 5.11751C15.0831 4.98735 14.8048 4.87116 14.5123 4.77016L13.7203 2.29233C13.6645 2.11825 13.5027 2 13.3198 2H10.697C10.5147 2 10.3532 2.11742 10.297 2.2911L9.49628 4.7677C9.24547 4.85474 8.95689 4.966 8.6642 5.11217L6.35783 3.9256C6.19486 3.84226 5.99701 3.87346 5.8679 4.00279L4.01 5.86558C3.88151 5.9945 3.85052 6.19116 3.93323 6.35334L5.1091 8.65914C4.97692 8.92807 4.86239 9.20644 4.76695 9.49056L2.29966 10.2858C2.12644 10.3417 2.00883 10.5026 2.00821 10.6849L2 13.3085C1.99939 13.4912 2.11679 13.653 2.29043 13.7096L4.76757 14.5144C4.86198 14.7804 4.97425 15.0485 5.11136 15.3359L3.92913 17.6504C3.84641 17.8125 3.8772 18.0092 4.00569 18.1381L5.85518 19.9964C5.98387 20.1257 6.18132 20.1586 6.34367 20.0744L8.66297 18.8932C8.93616 19.027 9.2075 19.1407 9.48438 19.2372L10.2889 21.7097C10.3452 21.883 10.5065 22 10.6886 22H13.3114C13.4935 22 13.6548 21.883 13.7111 21.7097L14.5164 19.2356C14.8071 19.1325 15.0778 19.0209 15.3354 18.8973L17.6518 20.0789C17.8148 20.1614 18.0108 20.1302 18.1399 20.0021L19.9935 18.1521C20.1222 18.0236 20.1538 17.8265 20.0713 17.6643L18.8913 15.3384C19.0149 15.0892 19.1278 14.817 19.233 14.5148L21.7083 13.7183ZM18.0438 15.526L19.1836 17.7723L17.762 19.1912L15.5287 18.0519C15.4076 17.9895 15.265 17.9903 15.1447 18.0527C14.8116 18.2252 14.4534 18.3734 14.0501 18.506C13.9231 18.5479 13.8233 18.6481 13.7821 18.7753L13.0062 21.1591H10.9938L10.2179 18.7753C10.1761 18.6464 10.0743 18.5454 9.94495 18.5048C9.57653 18.3882 9.22063 18.2391 8.85693 18.049C8.73666 17.9866 8.59298 17.9854 8.47168 18.0474L6.23489 19.1863L4.81662 17.7612L5.95554 15.5314C6.0163 15.4123 6.01691 15.2715 5.95719 15.152C5.75748 14.7525 5.61155 14.4027 5.49784 14.0504C5.45638 13.9223 5.35602 13.8217 5.22773 13.7798L2.84173 13.0047L2.84788 10.9929L5.23102 10.2247C5.36279 10.182 5.46521 10.0773 5.50482 9.94465C5.6173 9.56857 5.76754 9.20315 5.95206 8.85745C6.01671 8.73633 6.01815 8.59098 5.95554 8.46863L4.82073 6.24331L6.24618 4.81409L8.47435 5.96042C8.59976 6.02406 8.74856 6.02201 8.8713 5.95385C9.1724 5.78593 9.49833 5.64961 9.96158 5.49811C10.0894 5.45664 10.1896 5.35605 10.2311 5.22795L11.0028 2.84086H13.013L13.7769 5.23083C13.8188 5.36139 13.9214 5.46321 14.052 5.50386C14.4463 5.62703 14.8124 5.78059 15.1402 5.9596C15.2621 6.0257 15.4091 6.02817 15.5326 5.96494L17.7739 4.82189L19.1957 6.247L18.0488 8.48464C17.9866 8.60617 17.9872 8.75029 18.0504 8.871C18.2109 9.17852 18.3607 9.53859 18.5083 9.97216C18.5512 10.0982 18.6512 10.1963 18.7778 10.237L21.1593 11.0011V13.0117L18.7735 13.7794C18.6446 13.8209 18.5438 13.9219 18.5022 14.0504C18.3661 14.4721 18.2181 14.8268 18.0498 15.1339C17.9833 15.2559 17.981 15.4024 18.0438 15.526Z" fill="#071021"/>
<circle cx="12.0002" cy="11.9997" r="3.66667" stroke="#071021"/>
</svg>
