<svg width="160" height="160" viewBox="0 0 160 160" fill="none" xmlns="http://www.w3.org/2000/svg">
<path d="M154 80C154 120.869 120.869 154 80 154C39.1309 154 6 120.869 6 80C6 39.1309 39.1309 6 80 6C120.869 6 154 39.1309 154 80Z" stroke="#E3E3E3" stroke-width="12"/>
<path d="M0 80C0 124.183 35.8172 160 80 160C124.183 160 160 124.183 160 80C160 35.8172 124.183 0 80 0V12C117.555 12 148 42.4446 148 80C148 117.555 117.555 148 80 148C42.4446 148 12 117.555 12 80C12 63.8248 17.6511 48.5518 27.811 36.4045L18.6062 28.7057C6.99116 42.5927 0 60.4799 0 80Z" fill="#F1A737"/>
<path d="M49.8256 97.52C47.5323 97.52 45.5323 97.2 43.8256 96.56C42.119 95.92 40.799 95.0133 39.8656 93.84C38.9323 92.6667 38.4656 91.2933 38.4656 89.72C38.4656 86.76 40.1456 84.6267 43.5056 83.32C42.4123 82.4133 41.6256 81.4933 41.1456 80.56C40.6923 79.6267 40.4656 78.52 40.4656 77.24C40.4656 75.8 40.8656 74.52 41.6656 73.4C42.4923 72.28 43.639 71.4133 45.1056 70.8C46.599 70.1867 48.2923 69.88 50.1856 69.88C51.8923 69.88 53.4123 70.1467 54.7456 70.68C56.1056 71.1867 57.159 71.92 57.9056 72.88C58.679 73.8133 59.0656 74.88 59.0656 76.08C59.0656 77.3333 58.799 78.3867 58.2656 79.24C57.7323 80.0933 56.8923 80.8133 55.7456 81.4C57.5856 82.36 58.9323 83.4533 59.7856 84.68C60.6656 85.9067 61.1056 87.3733 61.1056 89.08C61.1056 91.72 60.1056 93.7867 58.1056 95.28C56.1056 96.7733 53.3456 97.52 49.8256 97.52ZM51.5456 79.96C52.3723 79.16 52.7856 78.2 52.7856 77.08C52.7856 76.1467 52.5323 75.44 52.0256 74.96C51.519 74.4533 50.7856 74.2 49.8256 74.2C48.8123 74.2 48.039 74.3867 47.5056 74.76C46.999 75.1067 46.7456 75.6133 46.7456 76.28C46.7456 76.9467 46.999 77.52 47.5056 78C48.039 78.48 48.9323 78.96 50.1856 79.44L51.5456 79.96ZM49.8656 92C50.879 92 51.6923 91.8133 52.3056 91.44C52.9456 91.04 53.2656 90.52 53.2656 89.88C53.2656 89.1867 52.9723 88.5867 52.3856 88.08C51.8256 87.5467 50.8923 87.0267 49.5856 86.52L47.7456 85.8C46.8923 86.68 46.4656 87.7733 46.4656 89.08C46.4656 89.96 46.7723 90.6667 47.3856 91.2C48.0256 91.7333 48.8523 92 49.8656 92ZM75.6638 97.28C73.2638 97.28 71.1571 96.76 69.3438 95.72C67.5571 94.6533 66.1704 93.1467 65.1838 91.2C64.1971 89.2533 63.7038 86.9733 63.7038 84.36C63.7038 81.5867 64.2371 79.1067 65.3038 76.92C66.3971 74.7067 67.9038 72.9733 69.8238 71.72C71.7438 70.4667 73.9304 69.84 76.3838 69.84C79.3704 69.84 82.2238 70.7333 84.9437 72.52L83.0638 77.76C82.0238 77.1733 81.0371 76.7467 80.1038 76.48C79.1971 76.1867 78.2638 76.04 77.3038 76.04C75.5704 76.04 74.2371 76.6 73.3038 77.72C72.3971 78.84 71.8371 80.6133 71.6238 83.04C72.3438 82.1333 73.2638 81.44 74.3838 80.96C75.5304 80.48 76.7971 80.24 78.1838 80.24C80.6104 80.24 82.5438 80.9867 83.9838 82.48C85.4504 83.9467 86.1838 85.9067 86.1838 88.36C86.1838 89.9867 85.7171 91.48 84.7838 92.84C83.8504 94.2 82.5704 95.28 80.9438 96.08C79.3438 96.88 77.5838 97.28 75.6638 97.28ZM75.6238 91.56C76.5571 91.56 77.3171 91.2667 77.9038 90.68C78.4904 90.0667 78.7838 89.2933 78.7838 88.36C78.7838 87.4533 78.4638 86.7467 77.8238 86.24C77.1838 85.7067 76.2904 85.44 75.1438 85.44C74.0504 85.44 72.9304 85.68 71.7838 86.16C71.8371 87.92 72.1971 89.2667 72.8638 90.2C73.5304 91.1067 74.4504 91.56 75.6238 91.56ZM95.5828 84.68C94.0895 84.68 92.7961 84.3333 91.7028 83.64C90.6095 82.92 89.7695 81.9733 89.1828 80.8C88.6228 79.6 88.3428 78.2933 88.3428 76.88C88.3428 75.36 88.6495 74.0133 89.2628 72.84C89.9028 71.64 90.7828 70.72 91.9028 70.08C93.0228 69.4133 94.2895 69.08 95.7028 69.08C97.2228 69.08 98.5161 69.4533 99.5828 70.2C100.676 70.9467 101.503 71.92 102.063 73.12C102.623 74.32 102.903 75.5733 102.903 76.88C102.903 78.4 102.596 79.76 101.983 80.96C101.369 82.1333 100.503 83.0533 99.3828 83.72C98.2628 84.36 96.9961 84.68 95.5828 84.68ZM112.063 69.48H117.663L98.0628 97H92.4628L112.063 69.48ZM95.5828 80.76C96.3828 80.76 96.9695 80.3733 97.3428 79.6C97.7428 78.8 97.9428 77.8933 97.9428 76.88C97.9428 75.84 97.7295 74.9467 97.3028 74.2C96.8761 73.4533 96.3028 73.08 95.5828 73.08C94.8095 73.08 94.2361 73.4533 93.8628 74.2C93.4895 74.9467 93.3028 75.84 93.3028 76.88C93.3028 77.9467 93.5028 78.8667 93.9028 79.64C94.3295 80.3867 94.8895 80.76 95.5828 80.76ZM114.543 97.4C113.049 97.4 111.756 97.0667 110.663 96.4C109.569 95.7067 108.729 94.7733 108.143 93.6C107.556 92.4 107.263 91.0533 107.263 89.56C107.263 88.0667 107.569 86.7333 108.183 85.56C108.823 84.36 109.689 83.4267 110.783 82.76C111.903 82.0667 113.156 81.72 114.543 81.72C115.983 81.72 117.249 82.1067 118.343 82.88C119.463 83.6267 120.316 84.6267 120.903 85.88C121.489 87.1067 121.783 88.4133 121.783 89.8C121.783 91.2933 121.476 92.6267 120.863 93.8C120.249 94.9467 119.396 95.84 118.303 96.48C117.209 97.0933 115.956 97.4 114.543 97.4ZM114.543 93.4C115.289 93.4 115.849 93.0133 116.223 92.24C116.623 91.44 116.823 90.5467 116.823 89.56C116.823 88.52 116.609 87.64 116.183 86.92C115.783 86.1733 115.236 85.8 114.543 85.8C113.796 85.8 113.223 86.1733 112.823 86.92C112.423 87.64 112.223 88.52 112.223 89.56C112.223 90.6267 112.423 91.5333 112.823 92.28C113.249 93.0267 113.823 93.4 114.543 93.4Z" fill="#333333"/>
</svg>
