<svg width="160" height="160" viewBox="0 0 160 160" fill="none" xmlns="http://www.w3.org/2000/svg">
<path d="M154 80C154 120.869 120.869 154 80 154C39.1309 154 6 120.869 6 80C6 39.1309 39.1309 6 80 6C120.869 6 154 39.1309 154 80Z" stroke="#E3E3E3" stroke-width="12"/>
<path d="M7.76261 45.5799L18.5921 50.7493C14.2718 59.8 12 69.7266 12 80C12 117.555 42.4446 148 80 148C117.555 148 148 117.555 148 80C148 42.4446 117.555 12 80 12V0C124.183 0 160 35.8172 160 80C160 124.183 124.183 160 80 160C35.8172 160 0 124.183 0 80C0 67.6774 2.78605 56.0056 7.76261 45.5799Z" fill="#C9614D"/>
<path d="M51.9936 97.52C49.7003 97.52 47.7003 97.2 45.9936 96.56C44.2869 95.92 42.9669 95.0133 42.0336 93.84C41.1003 92.6667 40.6336 91.2933 40.6336 89.72C40.6336 86.76 42.3136 84.6267 45.6736 83.32C44.5803 82.4133 43.7936 81.4933 43.3136 80.56C42.8603 79.6267 42.6336 78.52 42.6336 77.24C42.6336 75.8 43.0336 74.52 43.8336 73.4C44.6603 72.28 45.8069 71.4133 47.2736 70.8C48.7669 70.1867 50.4603 69.88 52.3536 69.88C54.0603 69.88 55.5803 70.1467 56.9136 70.68C58.2736 71.1867 59.3269 71.92 60.0736 72.88C60.8469 73.8133 61.2336 74.88 61.2336 76.08C61.2336 77.3333 60.9669 78.3867 60.4336 79.24C59.9003 80.0933 59.0603 80.8133 57.9136 81.4C59.7536 82.36 61.1003 83.4533 61.9536 84.68C62.8336 85.9067 63.2736 87.3733 63.2736 89.08C63.2736 91.72 62.2736 93.7867 60.2736 95.28C58.2736 96.7733 55.5136 97.52 51.9936 97.52ZM53.7136 79.96C54.5403 79.16 54.9536 78.2 54.9536 77.08C54.9536 76.1467 54.7003 75.44 54.1936 74.96C53.6869 74.4533 52.9536 74.2 51.9936 74.2C50.9803 74.2 50.2069 74.3867 49.6736 74.76C49.1669 75.1067 48.9136 75.6133 48.9136 76.28C48.9136 76.9467 49.1669 77.52 49.6736 78C50.2069 78.48 51.1003 78.96 52.3536 79.44L53.7136 79.96ZM52.0336 92C53.0469 92 53.8603 91.8133 54.4736 91.44C55.1136 91.04 55.4336 90.52 55.4336 89.88C55.4336 89.1867 55.1403 88.5867 54.5536 88.08C53.9936 87.5467 53.0603 87.0267 51.7536 86.52L49.9136 85.8C49.0603 86.68 48.6336 87.7733 48.6336 89.08C48.6336 89.96 48.9403 90.6667 49.5536 91.2C50.1936 91.7333 51.0203 92 52.0336 92ZM66.0317 91.36C69.1784 88.5333 71.5517 86.1333 73.1517 84.16C74.7517 82.1867 75.5517 80.5467 75.5517 79.24C75.5517 78.3867 75.2851 77.7333 74.7517 77.28C74.2451 76.8267 73.5517 76.6 72.6717 76.6C71.0184 76.6 69.2984 77.12 67.5117 78.16L65.5517 72.2C67.0184 71.4533 68.4584 70.8933 69.8717 70.52C71.3117 70.1467 72.8184 69.96 74.3917 69.96C76.2584 69.96 77.8851 70.3333 79.2717 71.08C80.6851 71.8 81.7651 72.8 82.5117 74.08C83.2584 75.3333 83.6317 76.7733 83.6317 78.4C83.6317 80.8267 82.8184 83.0933 81.1917 85.2C79.5651 87.28 77.1117 89.2667 73.8317 91.16H83.4717V97H66.0317V91.36ZM93.4148 84.68C91.9215 84.68 90.6282 84.3333 89.5348 83.64C88.4415 82.92 87.6015 81.9733 87.0148 80.8C86.4548 79.6 86.1748 78.2933 86.1748 76.88C86.1748 75.36 86.4815 74.0133 87.0948 72.84C87.7348 71.64 88.6148 70.72 89.7348 70.08C90.8548 69.4133 92.1215 69.08 93.5348 69.08C95.0548 69.08 96.3482 69.4533 97.4148 70.2C98.5082 70.9467 99.3348 71.92 99.8948 73.12C100.455 74.32 100.735 75.5733 100.735 76.88C100.735 78.4 100.428 79.76 99.8148 80.96C99.2015 82.1333 98.3348 83.0533 97.2148 83.72C96.0948 84.36 94.8282 84.68 93.4148 84.68ZM109.895 69.48H115.495L95.8948 97H90.2948L109.895 69.48ZM93.4148 80.76C94.2148 80.76 94.8015 80.3733 95.1748 79.6C95.5748 78.8 95.7748 77.8933 95.7748 76.88C95.7748 75.84 95.5615 74.9467 95.1348 74.2C94.7082 73.4533 94.1348 73.08 93.4148 73.08C92.6415 73.08 92.0682 73.4533 91.6948 74.2C91.3215 74.9467 91.1348 75.84 91.1348 76.88C91.1348 77.9467 91.3348 78.8667 91.7348 79.64C92.1615 80.3867 92.7215 80.76 93.4148 80.76ZM112.375 97.4C110.882 97.4 109.588 97.0667 108.495 96.4C107.402 95.7067 106.562 94.7733 105.975 93.6C105.388 92.4 105.095 91.0533 105.095 89.56C105.095 88.0667 105.402 86.7333 106.015 85.56C106.655 84.36 107.522 83.4267 108.615 82.76C109.735 82.0667 110.988 81.72 112.375 81.72C113.815 81.72 115.082 82.1067 116.175 82.88C117.295 83.6267 118.148 84.6267 118.735 85.88C119.322 87.1067 119.615 88.4133 119.615 89.8C119.615 91.2933 119.308 92.6267 118.695 93.8C118.082 94.9467 117.228 95.84 116.135 96.48C115.042 97.0933 113.788 97.4 112.375 97.4ZM112.375 93.4C113.122 93.4 113.682 93.0133 114.055 92.24C114.455 91.44 114.655 90.5467 114.655 89.56C114.655 88.52 114.442 87.64 114.015 86.92C113.615 86.1733 113.068 85.8 112.375 85.8C111.628 85.8 111.055 86.1733 110.655 86.92C110.255 87.64 110.055 88.52 110.055 89.56C110.055 90.6267 110.255 91.5333 110.655 92.28C111.082 93.0267 111.655 93.4 112.375 93.4Z" fill="#333333"/>
</svg>
