<svg width="160" height="160" viewBox="0 0 160 160" fill="none" xmlns="http://www.w3.org/2000/svg">
<path d="M154 80C154 120.869 120.869 154 80 154C39.1309 154 6 120.869 6 80C6 39.1309 39.1309 6 80 6C120.869 6 154 39.1309 154 80Z" stroke="#E3E3E3" stroke-width="12"/>
<path d="M55.6572 3.77094L59.3048 15.2031C31.3545 24.1211 12 50.1926 12 80C12 117.555 42.4446 148 80 148C117.555 148 148 117.555 148 80C148 42.4446 117.555 12 80 12V0C124.183 0 160 35.8172 160 80C160 124.183 124.183 160 80 160C35.8172 160 0 124.183 0 80C0 44.3051 23.3775 14.0703 55.6572 3.77094Z" fill="#583EBC"/>
<path d="M49.9992 97.28C47.0126 97.28 44.1592 96.3867 41.4392 94.6L43.3192 89.36C44.3592 89.9467 45.3326 90.3867 46.2392 90.68C47.1726 90.9467 48.1192 91.08 49.0792 91.08C50.8126 91.08 52.1326 90.52 53.0392 89.4C53.9726 88.28 54.5459 86.5067 54.7592 84.08C53.2659 85.9467 51.2126 86.88 48.5992 86.88C46.0126 86.88 43.9992 86.1467 42.5592 84.68C41.1192 83.2133 40.3992 81.24 40.3992 78.76C40.3992 77.1333 40.8526 75.64 41.7592 74.28C42.6659 72.92 43.9059 71.84 45.4792 71.04C47.0526 70.24 48.7992 69.84 50.7192 69.84C53.1192 69.84 55.2126 70.3733 56.9992 71.44C58.8126 72.48 60.2126 73.9733 61.1992 75.92C62.1859 77.8667 62.6792 80.1467 62.6792 82.76C62.6792 85.5333 62.1326 88.0267 61.0392 90.24C59.9726 92.4267 58.4792 94.1467 56.5592 95.4C54.6392 96.6533 52.4526 97.28 49.9992 97.28ZM51.2392 81.88C52.3326 81.88 53.4526 81.64 54.5992 81.16C54.5459 79.32 54.1859 77.9333 53.5192 77C52.8792 76.04 51.9592 75.56 50.7592 75.56C49.8259 75.56 49.0659 75.8667 48.4792 76.48C47.8926 77.0667 47.5992 77.8533 47.5992 78.84C47.5992 79.8 47.9192 80.5467 48.5592 81.08C49.1992 81.6133 50.0926 81.88 51.2392 81.88ZM73.523 97.52C71.0696 97.52 68.5363 96.9467 65.923 95.8L66.443 90.16C67.5096 90.56 68.5896 90.8667 69.683 91.08C70.7763 91.2933 71.7496 91.4 72.603 91.4C73.8563 91.4 74.8163 91.1067 75.483 90.52C76.1496 89.9333 76.483 89.1467 76.483 88.16C76.483 87.28 76.243 86.5733 75.763 86.04C75.283 85.48 74.6563 85.2 73.883 85.2C72.7896 85.2 71.4696 85.7333 69.923 86.8L65.763 85L66.803 70.24H82.243L81.643 75.96H72.203L71.683 80.4C72.403 79.9467 73.1096 79.6267 73.803 79.44C74.4963 79.2533 75.2963 79.16 76.203 79.16C77.7496 79.16 79.1363 79.5467 80.363 80.32C81.6163 81.0933 82.5896 82.1733 83.283 83.56C84.003 84.92 84.363 86.4533 84.363 88.16C84.363 89.9467 83.8963 91.56 82.963 93C82.0296 94.4133 80.7363 95.52 79.083 96.32C77.4563 97.12 75.603 97.52 73.523 97.52ZM93.6492 84.68C92.1559 84.68 90.8626 84.3333 89.7692 83.64C88.6759 82.92 87.8359 81.9733 87.2492 80.8C86.6892 79.6 86.4092 78.2933 86.4092 76.88C86.4092 75.36 86.7159 74.0133 87.3292 72.84C87.9692 71.64 88.8492 70.72 89.9692 70.08C91.0892 69.4133 92.3559 69.08 93.7692 69.08C95.2892 69.08 96.5826 69.4533 97.6492 70.2C98.7426 70.9467 99.5692 71.92 100.129 73.12C100.689 74.32 100.969 75.5733 100.969 76.88C100.969 78.4 100.663 79.76 100.049 80.96C99.4359 82.1333 98.5692 83.0533 97.4492 83.72C96.3292 84.36 95.0626 84.68 93.6492 84.68ZM110.129 69.48H115.729L96.1292 97H90.5292L110.129 69.48ZM93.6492 80.76C94.4492 80.76 95.0359 80.3733 95.4092 79.6C95.8092 78.8 96.0092 77.8933 96.0092 76.88C96.0092 75.84 95.7959 74.9467 95.3692 74.2C94.9426 73.4533 94.3692 73.08 93.6492 73.08C92.8759 73.08 92.3026 73.4533 91.9292 74.2C91.5559 74.9467 91.3692 75.84 91.3692 76.88C91.3692 77.9467 91.5692 78.8667 91.9692 79.64C92.3959 80.3867 92.9559 80.76 93.6492 80.76ZM112.609 97.4C111.116 97.4 109.823 97.0667 108.729 96.4C107.636 95.7067 106.796 94.7733 106.209 93.6C105.623 92.4 105.329 91.0533 105.329 89.56C105.329 88.0667 105.636 86.7333 106.249 85.56C106.889 84.36 107.756 83.4267 108.849 82.76C109.969 82.0667 111.223 81.72 112.609 81.72C114.049 81.72 115.316 82.1067 116.409 82.88C117.529 83.6267 118.383 84.6267 118.969 85.88C119.556 87.1067 119.849 88.4133 119.849 89.8C119.849 91.2933 119.543 92.6267 118.929 93.8C118.316 94.9467 117.463 95.84 116.369 96.48C115.276 97.0933 114.023 97.4 112.609 97.4ZM112.609 93.4C113.356 93.4 113.916 93.0133 114.289 92.24C114.689 91.44 114.889 90.5467 114.889 89.56C114.889 88.52 114.676 87.64 114.249 86.92C113.849 86.1733 113.303 85.8 112.609 85.8C111.863 85.8 111.289 86.1733 110.889 86.92C110.489 87.64 110.289 88.52 110.289 89.56C110.289 90.6267 110.489 91.5333 110.889 92.28C111.316 93.0267 111.889 93.4 112.609 93.4Z" fill="#333333"/>
</svg>
