<svg width="32" height="48" viewBox="0 0 32 48" fill="none" xmlns="http://www.w3.org/2000/svg">
<path fill-rule="evenodd" clip-rule="evenodd" d="M26 48H6L2 20H30L26 48ZM24.816 28H7.184L8.326 36H23.674L24.816 28ZM28.078 12C28.078 13.844 30.262 15.236 32 15.236V18H0V15.236C1.74 15.236 4 13.842 4 12H28.078ZM12.618 10.618C18.256 6.332 11.43 5.912 12.772 2.882C8.05 7.108 14.472 7.22 12.618 10.618ZM17.59 10.616C26.062 4.14 15.836 4.482 17.8 0C11.036 5.79 20.318 5.918 17.59 10.616Z" fill="#333333"/>
</svg>
