<svg width="48" height="44" viewBox="0 0 48 44" fill="none" xmlns="http://www.w3.org/2000/svg">
<path fill-rule="evenodd" clip-rule="evenodd" d="M0 32V4C0 1.52 2.074 0 4 0H44C46.478 0 48 2.074 48 4V40C48 41.916 46.484 44 44 44H4C1.52 44 0 41.926 0 40V32ZM4 40H44V34H4V40ZM8 39.328V34.672L12.654 37L8 39.328ZM14 38H40V36H14V38ZM4 30H44V4H4V30ZM24.398 7.276C24.192 6.646 24.662 6 25.318 6C25.722 6 26.102 6.256 26.236 6.664L31.928 20.95C32.096 21.458 31.82 22.008 31.314 22.176C30.806 22.346 30.26 22.07 30.09 21.562C30.09 21.562 26.496 20.36 22.236 21.774L25.038 26.126C25.328 26.554 25.126 27.14 24.64 27.3C22.52 28.006 22.6 28 22.336 28C21.978 28 21.63 27.848 21.384 27.57L17.536 23.324C15.44 23.984 13.068 23.222 12.276 21.248C12.226 21.126 10.948 17.888 14.492 16.148C23.034 11.954 24.398 7.276 24.398 7.276ZM30.466 8.19C31.984 8.83 33.256 10.054 33.926 11.706C34.594 13.356 34.532 15.124 33.89 16.644L35.366 17.272C35.78 16.286 36 15.218 36 14.13C36 10.962 34.126 7.998 31.09 6.71L30.466 8.19ZM29.402 10.712C30.276 11.08 31.01 11.786 31.394 12.736C31.78 13.686 31.744 14.704 31.376 15.58L32.812 16.19C33.338 14.944 33.388 13.498 32.842 12.148C32.294 10.794 31.254 9.794 30.01 9.27L29.402 10.712Z" fill="#333333"/>
</svg>
