<svg width="15" height="15" viewBox="0 0 15 15" fill="none" xmlns="http://www.w3.org/2000/svg">
<path d="M7.5 0C3.36462 0 0 3.36462 0 7.5C0 11.6354 3.36462 15 7.5 15C11.6354 15 15 11.6354 15 7.5C15 3.36462 11.6354 0 7.5 0ZM7.5 1.15385C11.0117 1.15385 13.8462 3.98827 13.8462 7.5C13.8462 11.0117 11.0117 13.8462 7.5 13.8462C3.98827 13.8462 1.15385 11.0117 1.15385 7.5C1.15385 3.98827 3.98827 1.15385 7.5 1.15385ZM5.31923 4.48846L4.48846 5.31923L6.67154 7.5L4.48961 9.68077L5.32038 10.5115L7.5 8.32904L9.68077 10.5098L10.5115 9.68077L8.32904 7.5L10.5098 5.31923L9.68077 4.48846L7.5 6.67154L5.31923 4.48961V4.48846Z" fill="#FD6D6D"/>
</svg>
