<svg width="18" height="18" viewBox="0 0 18 18" fill="none" xmlns="http://www.w3.org/2000/svg">
<path fill-rule="evenodd" clip-rule="evenodd" d="M15.25 3.72722C15.4212 3.73037 15.5592 3.86097 15.5625 4.02301V13.4884C15.5625 13.655 15.4198 13.7901 15.2437 13.7901H2.75C2.5764 13.7869 2.4375 13.6527 2.4375 13.4884V4.02301C2.44083 3.86097 2.57881 3.73037 2.75 3.72722H15.25ZM15.25 2.83984H2.75C2.05964 2.83984 1.5 3.36957 1.5 4.02301V13.4884C1.5 14.1418 2.05964 14.6715 2.75 14.6715H15.25C15.9404 14.6715 16.5 14.1418 16.5 13.4884V4.02301C16.5 3.36957 15.9404 2.83984 15.25 2.83984Z" fill="white"/>
<path d="M2.2251 5.79297H15.6688" stroke="white" stroke-width="1.25" stroke-linecap="round" stroke-linejoin="round"/>
<path d="M2.24365 8.16406H15.6874" stroke="white" stroke-width="1.25" stroke-linecap="round" stroke-linejoin="round"/>
<path d="M4.625 11.7148H8.375" stroke="white" stroke-width="1.25" stroke-linecap="round" stroke-linejoin="round"/>
<path d="M12.125 11.7148H13.375" stroke="white" stroke-width="1.25" stroke-linecap="round" stroke-linejoin="round"/>
</svg>
