<svg width="105" height="90" viewBox="0 0 105 90" fill="none" xmlns="http://www.w3.org/2000/svg">
<g clip-path="url(#clip0)">
<path d="M102.411 20.263L90.1256 10.4483C88.9944 9.54451 87.3461 9.72875 86.4423 10.86L78.2634 21.0974C77.3596 22.2286 77.5439 23.8769 78.6751 24.7807L82.6841 27.9835L83.1818 31.7355L86.865 31.3238L90.96 34.5954C92.0913 35.4992 93.7395 35.3149 94.6433 34.1837L102.822 23.9463C103.726 22.815 103.542 21.1668 102.411 20.263ZM93.6962 25.7775L92.4116 25.9453L87.2712 26.6168L86.7912 21.4551L86.6713 20.1651C86.539 18.7394 87.5818 17.4342 89.0015 17.2484C90.4212 17.0627 91.6793 18.0679 91.8116 19.4935L91.9316 20.7835L93.2162 20.6157C94.6359 20.43 95.8941 21.4352 96.0264 22.8608C96.1597 24.2873 95.1169 25.5925 93.6962 25.7775Z" fill="#FAC8C8"/>
</g>
<g clip-path="url(#clip1)">
<path fill-rule="evenodd" clip-rule="evenodd" d="M15.5844 19.1298C20.8495 17.8884 25.9643 19.6706 26.7541 23.0205C26.8116 23.2642 26.6604 23.5086 26.4167 23.5661C26.173 23.6235 25.9286 23.4724 25.8712 23.2287C25.2058 20.4068 20.4961 18.9038 15.7926 20.0127C15.5498 20.07 15.3045 19.919 15.247 19.6754C15.1896 19.4317 15.3407 19.1872 15.5844 19.1298Z" fill="#C6E696" fill-opacity="0.84"/>
<path fill-rule="evenodd" clip-rule="evenodd" d="M14.5437 14.7136C22.3463 12.874 29.7894 16.1269 31.169 21.9782C32.0282 25.6222 30.332 29.4137 27.0477 32.2013C27.0533 32.2251 27.0641 32.2394 27.0701 32.265C27.4434 33.8481 29.0274 35.2734 29.7584 36.0453C29.7575 36.0455 29.7566 36.0457 29.7566 36.0457C29.821 36.133 29.8701 36.2342 29.8965 36.3464C30.0006 36.7878 29.7275 37.2306 29.2851 37.3349C29.2021 37.3545 29.0513 37.3668 29.0571 37.3756C26.1913 37.5741 22.9942 35.652 22.217 35.0598C21.3656 35.3976 20.4732 35.6844 19.5399 35.9045C11.7391 37.7437 4.29419 34.4912 2.9146 28.6399C1.53501 22.7886 6.74194 16.5531 14.5437 14.7136ZM19.1236 34.1386C19.9332 33.9477 20.7495 33.69 21.5492 33.3737C21.6315 33.3394 21.7161 33.3148 21.8009 33.2948C22.3254 33.1712 22.8827 33.2858 23.3179 33.6175C23.8043 33.9884 25.1218 34.7618 26.5704 35.2171C26.0397 34.5081 25.5616 33.686 25.3278 32.7774C25.3092 32.7221 25.293 32.6653 25.2816 32.6168C25.125 31.9528 25.3537 31.2586 25.8732 30.8173C28.7516 28.3753 30.0707 25.2262 29.4031 22.3946C28.2552 17.526 21.7764 14.8724 14.96 16.4795C8.14543 18.0863 3.53262 23.3549 4.6805 28.2235C5.82839 33.0921 12.3081 35.7455 19.1236 34.1386Z" fill="#C6E696" fill-opacity="0.84"/>
</g>
<path d="M65.3155 1.55469H44.35C43.9223 1.55469 43.5121 1.7246 43.2097 2.02704C42.9072 2.32949 42.7373 2.73969 42.7373 3.16742V16.0692C42.7373 16.497 42.9072 16.9072 43.2097 17.2096C43.5121 17.5121 43.9223 17.682 44.35 17.682H48.3819L53.22 22.5202V17.682H65.3155C65.7432 17.682 66.1534 17.5121 66.4559 17.2096C66.7583 16.9072 66.9282 16.497 66.9282 16.0692V3.16742C66.9282 2.73969 66.7583 2.32949 66.4559 2.02704C66.1534 1.7246 65.7432 1.55469 65.3155 1.55469Z" stroke="#B8BDC9" stroke-width="2" stroke-linecap="round" stroke-linejoin="round"/>
<path d="M47.5757 6.39453H62.0902" stroke="#B8BDC9" stroke-width="2" stroke-linecap="round" stroke-linejoin="round"/>
<path d="M47.5757 9.61719H62.0902" stroke="#B8BDC9" stroke-width="2" stroke-linecap="round" stroke-linejoin="round"/>
<path d="M47.5757 12.8438H62.0902" stroke="#B8BDC9" stroke-width="2" stroke-linecap="round" stroke-linejoin="round"/>
<g clip-path="url(#clip2)">
<path d="M59.3007 89.4373C54.0166 89.412 49.4978 88.9029 45.1561 87.306C44.1059 86.9657 43.1187 86.455 42.2342 85.7945C40.9693 84.7699 40.7479 83.6125 41.627 82.2211C43.2714 79.6186 45.6241 77.7941 48.1791 76.1845C49.1867 75.5374 50.2554 74.9908 51.3698 74.5528C51.724 74.42 52.0877 74.3219 52.1983 73.8729C52.2245 73.7792 52.2815 73.697 52.3601 73.6397C52.4387 73.5823 52.5343 73.5531 52.6316 73.5567C53.7984 73.4618 54.4878 72.861 54.8704 71.6277C55.253 70.3945 55.2372 70.3976 53.9534 70.1921C49.365 69.4553 45.1245 67.8963 41.6429 64.6835C37.7786 61.1165 36.7256 55.9716 39.3344 51.4022C41.1717 48.1957 42.4555 44.8469 43.6256 41.3748C44.9094 37.5517 47.3095 34.5508 51.2844 33.1531C52.2817 32.7832 53.2508 32.3414 54.1842 31.8313C58.4152 29.6177 62.4312 30.4083 66.2006 32.9855C70.5202 35.9422 73.3377 40.0625 74.9188 45.0177C75.4659 46.6983 76.2439 48.2946 77.2304 49.761C81.2654 55.8862 79.5009 62.5617 73.3472 66.5208C70.2049 68.5277 66.6431 69.7849 62.9372 70.1953C62.3237 70.268 62.2099 70.464 62.3585 71.0332C62.5071 71.7795 62.8521 72.4727 63.3578 73.0412C63.5507 73.2436 63.8005 73.5662 64.0092 73.5535C65.3468 73.4681 65.9951 74.7457 67.1461 75.0809C68.2971 75.4161 69.3597 76.2477 70.4095 76.9592C72.4302 78.338 74.2516 79.9285 75.6145 81.9871C76.6897 83.6094 76.4683 84.8648 74.8587 85.962C72.9235 87.2807 70.6878 87.8594 68.4489 88.3843C67.0061 88.711 65.546 88.9559 64.0756 89.1179C62.4931 89.3327 60.8977 89.4394 59.3007 89.4373ZM42.6737 57.4484C42.6205 57.9375 42.7318 58.4304 42.9899 58.8492C43.3062 59.1433 43.1512 60.0477 44.024 59.6904C44.4311 59.4863 44.8903 59.4097 45.3416 59.4706C45.7929 59.5316 46.2154 59.7272 46.5538 60.0319C46.4937 59.7157 46.4557 59.5734 46.4304 59.4184C46.2344 58.1915 46.247 58.2136 45.1403 58.8113C44.5869 59.1117 43.9797 59.6872 43.3789 58.8461C43.3283 58.4002 42.952 58.0555 42.9963 57.5812C43.1512 56.9045 43.8185 56.4048 43.6951 55.589C42.9046 55.9969 42.9141 56.7906 42.6737 57.4484ZM47.1419 40.7645C47.5846 41.1503 47.319 41.495 47.0724 41.8365C46.3588 42.8785 45.867 44.056 45.6272 45.296C45.2699 46.8771 45.2857 48.4898 45.1814 50.0962C45.0138 52.626 45.428 55.2475 44.0714 57.6002C44.0203 57.662 43.9923 57.7397 43.9923 57.8199C43.9923 57.9002 44.0203 57.9779 44.0714 58.0397C44.239 58.2073 44.4161 58.1219 44.5805 58.0176C44.745 57.9132 44.8968 57.812 45.0549 57.7013C48.2993 55.589 49.463 52.3256 49.9658 48.7112C50.263 46.5893 50.3326 44.4295 51.1074 42.3867C51.7177 40.7803 52.7928 39.7463 54.5384 39.5408C54.882 39.4967 55.2126 39.3814 55.5092 39.2024C57.6531 37.9375 59.6896 38.2727 61.5743 39.7368C63.5823 41.3021 64.7744 43.424 65.5207 45.8336C66.248 48.1831 66.7635 50.599 67.7722 52.8568C68.6007 54.7036 69.7707 56.2183 71.7788 56.8855C72.0634 56.9804 72.4491 57.2017 72.6515 56.9045C72.8539 56.6072 72.4491 56.4301 72.2752 56.2309C71.1488 54.9287 70.5055 53.2782 70.4538 51.5572C70.4032 50.6085 70.4285 49.6598 70.4063 48.7112C70.3494 46.4281 70.2103 44.1639 69.0782 42.0958C68.9264 41.8144 68.762 41.4634 69.1636 41.2736C69.5652 41.0839 69.796 41.378 69.9541 41.7069C70.2583 42.33 70.5244 42.971 70.751 43.6263C71.3487 45.549 71.3835 47.5443 71.3835 49.5365C71.3835 50.7698 71.3835 51.9999 71.6997 53.2047C71.7326 53.4365 71.8453 53.6496 72.0185 53.8072C72.1917 53.9648 72.4145 54.057 72.6484 54.068C74.4698 54.3526 75.4944 55.6333 75.5355 57.4832C75.5671 58.6001 75.1712 59.687 74.4287 60.522C74.1742 60.7986 73.9861 61.1295 73.8785 61.4897C73.4958 62.8684 72.2562 63.3459 71.1052 62.5111C70.5486 62.1095 70.3273 62.1948 70.0933 62.7957C69.2715 64.8969 67.8398 66.7041 65.9824 67.9849C65.799 68.1145 65.5555 68.2347 65.6029 68.5446C65.8875 68.5796 66.1753 68.5796 66.4599 68.5446C68.778 67.9546 70.9795 66.9763 72.9709 65.6512C75.937 63.64 78.0304 61.0565 78.372 57.2997C78.6281 54.4885 77.6099 52.0979 76.1078 49.8496C75.1817 48.4209 74.4591 46.8702 73.9607 45.2422C72.4333 40.5432 69.7644 36.6189 65.6472 33.8298C61.7514 31.1894 57.7037 30.6233 53.5676 33.3839C53.331 33.5397 53.0703 33.6551 52.796 33.7254C48.5618 34.7785 45.9277 37.6656 44.6027 41.6025C43.3599 45.2897 41.9717 48.8377 40.0333 52.2339C38.2498 55.3613 38.547 58.7196 40.4728 61.7838C42.3986 64.8479 45.4059 66.5777 48.6946 67.8426C49.7824 68.2568 50.9081 68.5889 52.0465 68.9746C52.0465 68.396 51.6481 68.2979 51.3951 68.0987C49.58 66.6757 48.0653 65.0092 47.2368 62.8146C46.9807 62.1379 46.7625 62.0778 46.1806 62.5174C45.1403 63.3016 43.7584 62.8842 43.4453 61.6889C43.303 61.1825 43.0575 60.7109 42.7243 60.3038C41.2476 58.3654 41.4847 55.7123 43.2967 54.6119C43.5551 54.4787 43.7692 54.2733 43.9129 54.0207C44.0566 53.768 44.1238 53.479 44.1062 53.1889C44.2011 50.7603 44.1062 48.3159 44.511 45.9158C44.8272 44.0185 45.3142 42.1622 46.7941 40.7645H47.1419ZM58.7757 88.4823C60.379 88.4982 61.9569 88.2294 63.5475 88.106C66.9437 87.8404 70.2482 87.1574 73.3504 85.7122C75.0485 84.9185 75.9529 84.1628 74.3686 82.0915C72.2151 79.2803 69.4102 77.3134 66.2607 75.7987C65.1697 75.2738 65.0938 75.3054 64.6796 76.507C63.9696 78.67 62.6879 80.6007 60.9703 82.0947C60.4327 82.5532 60.2398 82.9327 60.5086 83.6758C60.8691 84.6466 60.2967 85.6427 59.3354 86.0727C58.5512 86.4206 57.6436 86.0727 57.0808 85.1968C56.6855 84.5833 56.7646 83.9319 56.9954 83.2995C57.1219 82.9643 57.2326 82.6449 56.8531 82.3793C54.6395 80.8171 53.5296 78.4897 52.562 76.0833C52.3153 75.4698 52.211 75.3149 51.5343 75.6184C50.168 76.2516 48.8574 76.9984 47.6163 77.851C45.6677 79.1291 43.9745 80.7591 42.6231 82.6575C41.9496 83.622 42.1298 84.3746 43.0279 85.0893C44.0367 85.8893 45.2414 86.2783 46.4083 86.6704C50.4085 87.9701 54.589 88.261 58.7757 88.4823ZM58.5196 69.9897C59.0069 69.9654 59.4918 69.9073 59.971 69.8158C66.3271 68.1177 69.7739 64.0795 70.1534 57.6033C70.1787 57.1669 69.8846 57.0815 69.6443 56.9076C69.4039 56.7337 69.1921 56.8792 69.0118 57.1005C68.5248 57.733 67.8418 57.9006 67.0829 57.8942C65.6978 57.8942 64.3128 57.8942 62.9309 57.8942C60.6889 57.8942 60.2714 57.578 59.9868 55.3866C59.8604 54.4221 59.4398 54.2514 58.6018 54.2514C57.7638 54.2514 57.3685 54.4569 57.3749 55.336C57.3428 55.7431 57.2643 56.1452 57.1409 56.5345C57.0384 56.9289 56.81 57.2791 56.4904 57.532C56.1708 57.7848 55.7774 57.9264 55.37 57.9353C53.6403 57.9353 51.9106 57.9037 50.1808 57.8974C49.3776 57.8974 48.6693 57.6919 48.2361 56.9487C47.9451 56.4618 47.7523 56.6799 47.455 56.9487C46.8415 57.4863 47.2779 58.084 47.3348 58.6342C47.591 61.0818 48.1254 63.4281 49.8646 65.3223C52.2394 67.8868 55.0095 69.6513 58.5196 69.9897ZM53.3462 50.4472C52.7138 50.4788 51.9643 50.5231 51.2086 50.5547C50.5034 50.5864 50.4338 51.1429 50.399 51.6331C50.3548 52.3034 50.9271 52.0631 51.2212 52.0315C52.641 51.8734 54.0482 52.0821 55.4617 52.1042C56.0436 52.1042 56.6381 52.2212 56.9796 52.7367C57.1005 52.9713 57.3022 53.1543 57.5474 53.2519C57.7927 53.3496 58.0649 53.3552 58.314 53.2679C58.6883 53.2188 59.0683 53.236 59.4366 53.3185C59.6991 53.3501 59.9299 53.3818 60.0912 53.1035C60.5813 52.2434 61.4004 52.0789 62.2858 52.0947C63.4147 52.1137 64.5404 51.8607 65.6757 52.0283C65.9097 52.0631 66.2828 52.1011 66.2101 51.7121C66.1057 51.1587 66.1026 50.4472 65.2172 50.4915C64.3317 50.5358 63.4558 50.5263 62.5767 50.5263C62.1024 50.5263 61.4288 50.7761 61.3498 50.0425C61.2612 49.2235 62.0296 49.3531 62.5103 49.2993C63.198 49.2208 63.8918 49.2103 64.5816 49.2677C65.3531 49.3341 65.448 49.0021 65.2519 48.3855C64.8914 47.2439 64.5847 46.0802 64.1578 44.9608C63.4996 43.1023 62.2948 41.4863 60.7015 40.325C59.1678 39.2435 57.5678 39.1075 55.9234 40.091C55.6455 40.3005 55.3192 40.4364 54.9747 40.4863C53.2071 40.5906 52.29 41.6594 51.8125 43.2627C51.2876 45.0335 51.1801 46.8676 50.9113 48.6732C50.8164 49.2804 51.0283 49.4669 51.626 49.3784C52.8418 49.1913 54.0781 49.1796 55.2973 49.3436C55.7021 49.4005 56.0784 49.4796 56.0562 49.9761C56.0278 50.5547 55.5882 50.5642 55.1582 50.5421L53.3462 50.4472ZM53.5802 75.2422C53.7379 76.2678 54.1015 77.2509 54.649 78.1324C55.4605 79.5083 56.5185 80.7228 57.7701 81.7152C58.4311 82.2401 59.0129 82.2117 59.7718 81.6361C61.3087 80.4756 62.3016 78.9356 63.1839 77.3039C63.6166 76.6033 63.8475 75.7968 63.8511 74.9734C63.8289 74.5876 63.1459 74.2429 62.7664 73.8761C62.5469 73.6978 62.3495 73.494 62.1783 73.2689C61.8937 72.8136 61.5774 72.7472 61.0841 72.9369C60.0058 73.3448 58.7441 73.6199 57.7638 73.2152C55.9519 72.4626 54.9463 73.2847 53.9186 74.5054C53.7257 74.7583 53.5328 74.9259 53.5802 75.2422ZM50.0701 52.9074C49.6422 53.6578 49.2568 54.4316 48.916 55.2253C48.8398 55.4094 48.8104 55.6093 48.8303 55.8075C48.8501 56.0056 48.9186 56.1958 49.0297 56.361C49.1409 56.5263 49.2911 56.6615 49.4671 56.7547C49.6431 56.8478 49.8394 56.896 50.0385 56.895C51.7651 56.9393 53.4917 56.9108 55.2182 56.895C55.7811 56.895 56.2428 56.6483 56.2807 56.0475C56.3408 55.1178 56.9416 54.1502 56.129 53.2616C56.072 53.1984 55.9582 53.192 55.876 53.1478C55.1518 52.7651 54.6111 53.4134 53.9565 53.5114C53.5802 53.5715 53.9344 54.1692 53.8364 54.5138C53.823 54.607 53.8177 54.7012 53.8205 54.7953C53.7541 55.5004 53.3557 55.9115 52.6632 55.9147C51.9706 55.9179 51.5722 55.4752 51.5121 54.7889C51.471 54.3557 51.5121 53.9162 51.5121 53.3849C50.9018 53.8877 50.3453 54.2039 50.0701 52.9074ZM65.8812 53.5399C65.8812 53.8276 65.8812 54.1723 65.8812 54.5044C65.8528 55.3993 65.4195 55.9305 64.7144 55.9368C64.0092 55.9432 63.6202 55.4277 63.5127 54.5328C63.4716 54.1976 63.9965 53.5841 63.2376 53.5209C62.7791 53.4798 62.5799 52.9738 62.0518 53.0687C61.451 53.1794 60.9387 53.2648 60.8533 54.0174C60.692 55.3961 61.1695 56.8191 61.9 56.8634C63.7808 57.0104 65.6701 57.0104 67.5509 56.8634C68.3762 56.7875 68.6039 56.1867 68.1359 55.5131C67.5414 54.6656 67.1303 53.6158 65.8654 53.5336L65.8812 53.5399ZM70.7921 59.9908C71.6807 59.3046 72.4491 59.235 73.2176 59.7663C73.5338 59.9813 73.7045 59.9086 73.9069 59.6208C74.2358 59.1713 74.4505 58.6487 74.5325 58.0978C74.6146 57.547 74.5616 56.9844 74.3781 56.4586C74.3107 56.1779 74.1474 55.9296 73.9165 55.7564C73.6856 55.5832 73.4015 55.4961 73.1132 55.5099C73.2044 55.7249 73.3235 55.9269 73.4674 56.1108C73.6517 56.2583 73.7772 56.4668 73.8213 56.6988C73.8654 56.9307 73.8251 57.1708 73.7077 57.3756C73.5916 57.6247 73.3894 57.8233 73.1383 57.9349C72.8872 58.0465 72.6043 58.0635 72.3416 57.9828C71.219 57.6255 70.887 58.084 70.9313 59.1212C70.9079 59.4128 70.8581 59.7018 70.7826 59.9845L70.7921 59.9908ZM58.4595 72.2981C59.3221 72.309 60.1795 72.1622 60.9893 71.8649C61.413 71.7163 61.4541 71.4665 61.3403 71.0522C61.2264 70.638 61.0241 70.6222 60.6541 70.7107C59.3694 71.0447 58.0218 71.0534 56.7329 70.736C56.4515 70.6664 56.1448 70.4957 55.9993 70.9985C55.8696 71.4475 56.0404 71.6309 56.3946 71.8111C57.0471 72.1013 57.749 72.2645 58.4627 72.2918L58.4595 72.2981ZM58.6271 83.2678C58.1686 83.3817 57.767 83.6252 57.7796 84.1944C57.7727 84.3139 57.7917 84.4336 57.8354 84.5451C57.879 84.6567 57.9462 84.7575 58.0323 84.8406C58.1185 84.9238 58.2217 84.9874 58.3347 85.027C58.4477 85.0667 58.5679 85.0814 58.6872 85.0703C58.8068 85.0814 58.9274 85.0662 59.0404 85.0255C59.1535 84.9848 59.2562 84.9198 59.3413 84.835C59.4264 84.7502 59.4918 84.6477 59.5329 84.5348C59.5739 84.4219 59.5896 84.3014 59.5789 84.1817C59.5726 83.6125 59.2058 83.3501 58.6303 83.2615L58.6271 83.2678ZM72.1677 60.3892C71.725 60.4398 71.4024 60.6612 71.4024 61.1545C71.3917 61.257 71.4034 61.3606 71.4367 61.4581C71.4701 61.5556 71.5244 61.6447 71.5958 61.7191C71.6671 61.7934 71.7539 61.8513 71.8499 61.8887C71.946 61.9261 72.049 61.9421 72.1519 61.9356C72.2546 61.9486 72.3588 61.9386 72.4571 61.9062C72.5555 61.8738 72.6453 61.8199 72.7201 61.7484C72.795 61.6769 72.8529 61.5896 72.8897 61.4929C72.9265 61.3961 72.9413 61.2924 72.9329 61.1893C72.9419 61.0849 72.9287 60.9798 72.8942 60.8809C72.8596 60.7819 72.8046 60.6914 72.7326 60.6153C72.6607 60.5391 72.5734 60.4791 72.4766 60.439C72.3798 60.399 72.2756 60.3798 72.1709 60.3829L72.1677 60.3892ZM45.0644 60.3892C44.5995 60.4556 44.2928 60.7055 44.3212 61.1893C44.328 61.3931 44.4154 61.5859 44.5642 61.7252C44.7131 61.8646 44.9112 61.9391 45.115 61.9324C45.3188 61.9257 45.5115 61.8383 45.6509 61.6894C45.7903 61.5406 45.8648 61.3425 45.8581 61.1387C45.8549 60.6643 45.5387 60.424 45.0675 60.3924L45.0644 60.3892Z" fill="#553E54"/>
<path d="M46.7911 40.7515C45.3112 42.1492 44.84 44.0023 44.508 45.9027C44.0874 48.3092 44.1918 50.7536 44.1032 53.1758C44.1208 53.466 44.0536 53.755 43.9099 54.0076C43.7662 54.2603 43.5521 54.4657 43.2937 54.5988C41.4817 55.6993 41.2446 58.3524 42.7213 60.2908C43.0545 60.6979 43.3 61.1694 43.4423 61.6759C43.7586 62.8712 45.1373 63.2886 46.1776 62.5044C46.7595 62.0648 46.9777 62.1249 47.2338 62.8016C48.0623 64.9962 49.577 66.6627 51.3921 68.0857C51.6451 68.2849 52.0467 68.3829 52.0435 68.9616C50.8957 68.5758 49.7794 68.2438 48.6916 67.8295C45.4029 66.5647 42.402 64.8507 40.4698 61.7707C38.5377 58.6907 38.2563 55.3483 40.0303 52.2209C41.9687 48.8246 43.3569 45.264 44.5997 41.5895C45.9247 37.6525 48.5588 34.7654 52.793 33.7124C53.0673 33.6421 53.328 33.5267 53.5646 33.3709C57.7007 30.6103 61.7484 31.1763 65.6442 33.8168C69.7551 36.6058 72.4303 40.5301 73.9577 45.2292C74.4561 46.8572 75.1787 48.4079 76.1048 49.8365C77.6069 52.0849 78.6346 54.4755 78.369 57.2867C78.0306 61.0434 75.9341 63.6269 72.9679 65.6381C70.9765 66.9632 68.775 67.9415 66.4569 68.5315C66.1723 68.5665 65.8845 68.5665 65.5999 68.5315C65.5525 68.2153 65.796 68.1015 65.9794 67.9718C67.8368 66.6911 69.2685 64.8838 70.0903 62.7826C70.3243 62.1787 70.5457 62.0964 71.1022 62.498C72.2532 63.3329 73.4928 62.8554 73.8755 61.4766C73.9831 61.1165 74.1712 60.7856 74.4257 60.509C75.1683 59.674 75.5641 58.5871 75.5325 57.4701C75.4914 55.6202 74.4668 54.3395 72.6454 54.0549C72.4115 54.044 72.1887 53.9518 72.0155 53.7942C71.8423 53.6366 71.7296 53.4235 71.6967 53.1916C71.3805 51.9868 71.3805 50.7567 71.3805 49.5235C71.3805 47.5313 71.3457 45.5359 70.748 43.6133C70.5214 42.958 70.2553 42.317 69.9512 41.6938C69.8057 41.3776 69.5843 41.0424 69.1606 41.2606C68.7369 41.4788 68.9234 41.8014 69.0752 42.0828C70.2073 44.1509 70.3401 46.415 70.4033 48.6981C70.4255 49.6468 70.4034 50.5955 70.4508 51.5441C70.5026 53.2651 71.1458 54.9157 72.2722 56.2179C72.4461 56.4171 72.8477 56.6068 72.6485 56.8914C72.4493 57.176 72.0604 56.9673 71.7758 56.8725C69.7677 56.2052 68.6135 54.6905 67.7692 52.8438C66.7605 50.586 66.2451 48.17 65.5177 45.8205C64.7715 43.4109 63.5793 41.2891 61.5713 39.7238C59.674 38.2597 57.6501 37.9371 55.5062 39.1894C55.2096 39.3684 54.879 39.4836 54.5354 39.5277C52.7898 39.7459 51.7147 40.7926 51.1044 42.3737C50.3296 44.4102 50.2601 46.57 49.9628 48.6981C49.46 52.322 48.2963 55.576 45.0519 57.6883C44.8938 57.7927 44.7357 57.897 44.5776 58.0045C44.4194 58.112 44.236 58.1943 44.0684 58.0267C44.0173 57.9649 43.9893 57.8871 43.9893 57.8069C43.9893 57.7267 44.0173 57.6489 44.0684 57.5871C45.425 55.2344 45.0171 52.6098 45.1784 50.0832C45.2827 48.4768 45.2669 46.8672 45.6242 45.283C45.8688 44.0418 46.3661 42.8642 47.0852 41.8235C47.3318 41.482 47.5975 41.1373 47.1548 40.7515C47.1548 40.6218 47.0757 40.5301 46.946 40.5649C46.8733 40.606 46.8385 40.6914 46.7911 40.7515Z" fill="#90C63E"/>
<path d="M58.7759 88.4831C54.5891 88.2617 50.4086 87.9708 46.3863 86.6458C45.2068 86.26 44.0146 85.8711 43.0059 85.0647C42.1078 84.35 41.9276 83.5974 42.6011 82.633C43.9524 80.7345 45.6457 79.1045 47.5943 77.8264C48.8354 76.9738 50.146 76.227 51.5122 75.5939C52.189 75.2776 52.2933 75.4452 52.54 76.0587C53.5076 78.4651 54.6239 80.802 56.8311 82.3547C57.2106 82.6203 57.0999 82.9397 56.9734 83.2749C56.7299 83.9073 56.6572 84.5651 57.0588 85.1722C57.6217 86.0513 58.5292 86.396 59.3134 86.0481C60.2621 85.6181 60.8471 84.622 60.4866 83.6512C60.2178 82.9207 60.4107 82.5412 60.9483 82.0701C62.6659 80.5761 63.9476 78.6454 64.6576 76.4824C65.0781 75.2808 65.154 75.2492 66.2387 75.7741C69.4009 77.2888 72.1931 79.2525 74.3466 82.0669C75.9277 84.1382 75.0265 84.8939 73.3284 85.6876C70.242 87.1296 66.9375 87.8158 63.5255 88.0814C61.957 88.2301 60.3791 88.4989 58.7759 88.4831Z" fill="#FD6D6D"/>
<path d="M58.52 69.9883C55.0099 69.65 52.2398 67.8855 49.8808 65.3209C48.1384 63.4236 47.604 61.0804 47.351 58.6328C47.2941 58.0826 46.8577 57.4849 47.4712 56.9474C47.7684 56.6881 47.9613 56.4699 48.2522 56.9474C48.6855 57.6747 49.3938 57.8771 50.197 57.896C51.9267 57.896 53.6565 57.9308 55.3862 57.934C55.7936 57.925 56.187 57.7834 56.5066 57.5306C56.8262 57.2778 57.0546 56.9275 57.157 56.5331C57.2805 56.1439 57.359 55.7417 57.391 55.3346C57.391 54.4555 57.8148 54.25 58.618 54.25C59.4212 54.25 59.8829 54.4208 60.003 55.3852C60.2876 57.5988 60.705 57.8834 62.9471 57.8929C64.3289 57.8929 65.714 57.8929 67.099 57.8929C67.858 57.8929 68.541 57.7379 69.028 57.0992C69.1956 56.8778 69.3663 56.7039 69.6604 56.9063C69.9545 57.1086 70.1948 57.1656 70.1695 57.6019C69.7901 64.0782 66.3433 68.1163 59.9872 69.8144C59.5028 69.9066 59.0125 69.9647 58.52 69.9883ZM58.618 62.9619C59.4149 62.867 60.2434 62.9619 61.0244 62.6457C61.3849 62.5034 61.6569 62.2725 61.5051 61.8646C61.3533 61.4567 61.0149 61.6021 60.705 61.6907C59.4018 62.0637 58.021 62.0702 56.7143 61.7097C56.3981 61.6243 55.9997 61.3934 55.8542 61.8962C55.7087 62.399 56.0851 62.5287 56.4645 62.6868C57.1602 62.9493 57.8938 62.8481 58.618 62.9619ZM58.6717 59.4234C58.9037 59.3904 59.1331 59.3408 59.3579 59.2748C59.69 59.1514 60.0315 58.9585 59.9176 58.5348C59.8038 58.1111 59.4591 58.1142 59.0986 58.2787C58.9538 58.3395 58.7976 58.3687 58.6405 58.3644C58.4835 58.36 58.3292 58.3222 58.1879 58.2534C57.8496 58.1142 57.4859 58.0383 57.3563 58.5127C57.2266 58.987 57.5713 59.1103 57.8907 59.2273C58.1467 59.309 58.4075 59.3745 58.6717 59.4234Z" fill="#F1CFBD"/>
<path d="M53.3461 50.4471L55.1707 50.5483C55.6008 50.5704 56.0404 50.5483 56.0688 49.9822C56.0909 49.4763 55.7146 49.3972 55.3099 49.3498C54.0907 49.1858 52.8544 49.1975 51.6385 49.3846C51.0409 49.4731 50.829 49.2865 50.9239 48.6794C51.2053 46.8738 51.3002 45.0397 51.8251 43.2688C52.2963 41.6656 53.2133 40.5968 54.9873 40.4924C55.3318 40.4426 55.6581 40.3066 55.936 40.0971C57.5803 39.1137 59.1804 39.2497 60.7141 40.3311C62.3074 41.4925 63.5122 43.1085 64.1704 44.9669C64.5973 46.0864 64.904 47.2501 65.2645 48.3916C65.4606 49.0241 65.3657 49.3403 64.5941 49.2739C63.9043 49.2164 63.2106 49.227 62.5229 49.3055C62.0422 49.3593 61.2738 49.2296 61.3624 50.0486C61.4414 50.7823 62.115 50.5324 62.5893 50.5324C63.4684 50.5324 64.3506 50.5324 65.2297 50.4977C66.1088 50.4629 66.1183 51.1649 66.2227 51.7183C66.2954 52.0977 65.9065 52.0598 65.6883 52.0345C64.553 51.8669 63.4273 52.1199 62.2984 52.1009C61.4129 52.0851 60.5939 52.2495 60.1038 53.1097C59.9425 53.3879 59.7117 53.3563 59.4492 53.3247C59.0809 53.2421 58.7009 53.225 58.3266 53.2741C58.0775 53.3614 57.8053 53.3557 57.56 53.2581C57.3148 53.1605 57.1131 52.9775 56.9922 52.7428C56.6507 52.24 56.0435 52.1294 55.4743 52.1104C54.0608 52.0883 52.6536 51.8795 51.2338 52.0377C50.9397 52.0693 50.3673 52.3096 50.4116 51.6392C50.4464 51.1491 50.516 50.5925 51.2211 50.5609C51.9516 50.523 52.7169 50.4787 53.3461 50.4471Z" fill="#F1CFBD"/>
<path d="M53.5802 75.2436C53.5423 74.9274 53.7257 74.7503 53.9186 74.5195C54.9463 73.2989 55.9519 72.4767 57.7638 73.2293C58.7441 73.6341 60.0058 73.359 61.0841 72.951C61.5774 72.7613 61.8937 72.8277 62.1783 73.2831C62.3495 73.5081 62.5469 73.712 62.7664 73.8902C63.1459 74.257 63.8289 74.6017 63.8511 74.9875C63.8475 75.811 63.6166 76.6175 63.1839 77.3181C62.2921 78.9498 61.3087 80.4803 59.7718 81.6503C59.0129 82.2258 58.4311 82.2543 57.7701 81.7293C56.5173 80.7332 55.4592 79.5143 54.649 78.1339C54.1015 77.2524 53.7379 76.2693 53.5802 75.2436Z" fill="#FD6D6D"/>
<path d="M50.0702 52.9062C50.3453 54.1901 50.9019 53.8771 51.5027 53.3869C51.5027 53.9182 51.4711 54.3577 51.5027 54.7909C51.5628 55.4771 51.9549 55.9198 52.6537 55.9167C53.3526 55.9135 53.7447 55.5024 53.8111 54.7973C53.8158 54.7036 53.8285 54.6105 53.849 54.519C53.9471 54.1743 53.5929 53.5703 53.9692 53.5166C54.6016 53.4185 55.1645 52.7703 55.8887 53.1529C55.9709 53.1972 56.0847 53.2035 56.1416 53.2667C56.9543 54.149 56.3535 55.123 56.2934 56.0527C56.2555 56.6535 55.7938 56.897 55.2309 56.9001C53.5043 56.9001 51.7778 56.9412 50.0512 56.9001C49.8521 56.9012 49.6558 56.853 49.4798 56.7598C49.3038 56.6667 49.1535 56.5314 49.0424 56.3662C48.9313 56.2009 48.8628 56.0108 48.8429 55.8126C48.8231 55.6145 48.8525 55.4145 48.9286 55.2305C49.2652 54.4349 49.6463 53.6589 50.0702 52.9062Z" fill="#F1EADA"/>
<path d="M65.8655 53.5338C67.1304 53.616 67.5352 54.6658 68.1202 55.507C68.5882 56.1805 68.3605 56.7719 67.5352 56.8573C65.6544 57.0043 63.7651 57.0043 61.8843 56.8573C61.1412 56.8067 60.6763 55.3837 60.8376 54.0113C60.923 53.2681 61.4353 53.1828 62.0361 53.0626C62.5642 52.9677 62.7634 53.4737 63.2219 53.5148C63.9809 53.5844 63.4559 54.1915 63.497 54.5267C63.6046 55.4216 63.9809 55.9402 64.6987 55.9307C65.4165 55.9212 65.8371 55.3932 65.8655 54.4982C65.8813 54.1599 65.8655 53.8215 65.8655 53.5338Z" fill="#F1EADA"/>
<path d="M70.7827 59.9829C70.8585 59.7044 70.9093 59.4197 70.9345 59.1322C70.8902 58.095 71.2223 57.6365 72.3449 57.9938C72.6075 58.0745 72.8905 58.0575 73.1415 57.9459C73.3926 57.8343 73.5948 57.6357 73.7109 57.3867C73.8283 57.1818 73.8686 56.9418 73.8245 56.7098C73.7805 56.4779 73.6549 56.2693 73.4706 56.1218C73.3267 55.9379 73.2077 55.7359 73.1164 55.521C73.4047 55.5071 73.6889 55.5943 73.9198 55.7674C74.1507 55.9406 74.3139 56.189 74.3813 56.4696C74.5648 56.9955 74.6178 57.558 74.5358 58.1088C74.4537 58.6597 74.239 59.1824 73.9102 59.6318C73.7078 59.9196 73.5275 59.9923 73.2208 59.7773C72.4397 59.2271 71.6713 59.2967 70.7827 59.9829Z" fill="#F1CFBD"/>
<path d="M58.4627 72.2915C57.7551 72.2598 57.0598 72.0945 56.4136 71.8045C56.0594 71.6337 55.8887 71.4409 56.0183 70.9918C56.1638 70.489 56.4705 70.6598 56.752 70.7294C58.0408 71.0467 59.3884 71.038 60.6731 70.7041C61.0273 70.6155 61.2391 70.6092 61.3593 71.0456C61.4795 71.482 61.432 71.7097 61.0083 71.8583C60.1935 72.1575 59.3306 72.3044 58.4627 72.2915Z" fill="#F1CFBD"/>
<path d="M43.376 58.8474C43.9769 59.6886 44.584 59.113 45.1374 58.8126C46.2442 58.215 46.2315 58.1802 46.4276 59.4198C46.4529 59.5747 46.4908 59.736 46.5509 60.0332C46.2125 59.7285 45.79 59.5329 45.3387 59.472C44.8874 59.411 44.4282 59.4876 44.0211 59.6917C43.1483 60.0491 43.3191 59.1447 42.9902 58.8506L43.376 58.8474Z" fill="#F1CFBD"/>
<path d="M58.6303 83.2617C59.2059 83.3503 59.579 83.6191 59.579 84.1756C59.5897 84.2953 59.574 84.4158 59.5329 84.5287C59.4919 84.6416 59.4264 84.7441 59.3413 84.8288C59.2563 84.9136 59.1536 84.9787 59.0405 85.0193C58.9275 85.06 58.8069 85.0753 58.6873 85.0642C58.568 85.0753 58.4478 85.0605 58.3347 85.0209C58.2217 84.9813 58.1186 84.9177 58.0324 84.8345C57.9462 84.7513 57.8791 84.6505 57.8354 84.539C57.7918 84.4275 57.7728 84.3078 57.7797 84.1882C57.7702 83.6127 58.1718 83.3756 58.6303 83.2617Z" fill="#F1EADA"/>
<path d="M72.171 60.3832C72.2754 60.3798 72.3794 60.3984 72.4761 60.4379C72.5728 60.4774 72.6601 60.5368 72.7324 60.6123C72.8046 60.6878 72.86 60.7776 72.8952 60.876C72.9303 60.9744 72.9443 61.0791 72.9362 61.1833C72.9446 61.2864 72.9298 61.3901 72.893 61.4869C72.8562 61.5836 72.7983 61.6709 72.7234 61.7424C72.6486 61.8139 72.5588 61.8678 72.4605 61.9002C72.3621 61.9325 72.2579 61.9426 72.1552 61.9295C72.0523 61.9361 71.9493 61.9201 71.8532 61.8827C71.7572 61.8453 71.6704 61.7874 71.5991 61.713C71.5277 61.6387 71.4734 61.5496 71.44 61.4521C71.4067 61.3546 71.395 61.251 71.4058 61.1485C71.4058 60.6552 71.7283 60.4338 72.171 60.3832Z" fill="#F1EADA"/>
<path d="M45.0677 60.3906C45.5389 60.4222 45.8551 60.6626 45.8614 61.1401C45.8681 61.3439 45.7936 61.542 45.6542 61.6908C45.5149 61.8397 45.3221 61.9271 45.1183 61.9338C44.9145 61.9405 44.7164 61.866 44.5675 61.7266C44.4187 61.5873 44.3313 61.3945 44.3246 61.1907C44.2961 60.7068 44.6028 60.457 45.0677 60.3906Z" fill="#F1EADA"/>
<path d="M42.6738 57.4492C42.9142 56.7915 42.9047 55.9978 43.6921 55.5898C43.8154 56.4057 43.1482 56.9053 42.9932 57.582L42.6738 57.4492Z" fill="#F1CFBD"/>
<path d="M42.674 57.4492L42.9902 57.582C42.9459 58.0564 43.3222 58.401 43.3728 58.8469H42.9807C42.724 58.4288 42.616 57.9364 42.674 57.4492Z" fill="#5B4565"/>
<path d="M46.791 40.7517C46.8384 40.6916 46.8732 40.5904 46.9333 40.5777C47.063 40.543 47.1325 40.6347 47.142 40.7643L46.791 40.7517Z" fill="#FAB997"/>
<path d="M58.6179 62.9648C57.8938 62.8509 57.1602 62.9648 56.4645 62.6865C56.085 62.541 55.715 62.3703 55.8542 61.8959C55.9933 61.4216 56.3854 61.624 56.7143 61.7093C58.021 62.0699 59.4018 62.0634 60.705 61.6904C61.0212 61.6018 61.3564 61.4532 61.505 61.8643C61.6537 62.2754 61.3849 62.4967 61.0244 62.6454C60.2433 62.9521 59.4148 62.8699 58.6179 62.9648Z" fill="#553E54"/>
<path d="M58.6713 59.4259C58.4071 59.377 58.1463 59.3115 57.8903 59.2299C57.5741 59.1129 57.2389 58.9421 57.3559 58.5152C57.4729 58.0883 57.8492 58.1168 58.1875 58.2559C58.3288 58.3247 58.4831 58.3626 58.6402 58.3669C58.7972 58.3713 58.9534 58.3421 59.0982 58.2812C59.4587 58.1168 59.7939 58.0662 59.9173 58.5373C60.0406 59.0085 59.6896 59.154 59.3575 59.2773C59.1327 59.3433 58.9034 59.393 58.6713 59.4259Z" fill="#553E54"/>
</g>
<defs>
<clipPath id="clip0">
<rect width="20.9655" height="20.9655" fill="white" transform="translate(88.0781 8.8125) rotate(38.6222)"/>
</clipPath>
<clipPath id="clip1">
<rect width="29.0291" height="29.0291" fill="white" transform="matrix(-0.973313 0.229482 0.229482 0.973313 28.2544 9.61719)"/>
</clipPath>
<clipPath id="clip2">
<rect width="41.5009" height="58.8646" fill="white" transform="translate(37.8989 30.582)"/>
</clipPath>
</defs>
</svg>
