<svg width="20" height="20" viewBox="0 0 20 20" fill="none" xmlns="http://www.w3.org/2000/svg">
<path d="M9.99967 1.66797C6.33301 1.66797 3.33301 4.66797 3.33301 8.33464C3.33301 12.8346 9.16634 17.918 9.41634 18.168C9.58301 18.2513 9.83301 18.3346 9.99967 18.3346C10.1663 18.3346 10.4163 18.2513 10.583 18.168C10.833 17.918 16.6663 12.8346 16.6663 8.33464C16.6663 4.66797 13.6663 1.66797 9.99967 1.66797ZM9.99967 16.418C8.24967 14.7513 4.99967 11.168 4.99967 8.33464C4.99967 5.58464 7.24967 3.33464 9.99967 3.33464C12.7497 3.33464 14.9997 5.58464 14.9997 8.33464C14.9997 11.0846 11.7497 14.7513 9.99967 16.418ZM9.99967 5.0013C8.16634 5.0013 6.66634 6.5013 6.66634 8.33464C6.66634 10.168 8.16634 11.668 9.99967 11.668C11.833 11.668 13.333 10.168 13.333 8.33464C13.333 6.5013 11.833 5.0013 9.99967 5.0013ZM9.99967 10.0013C9.08301 10.0013 8.33301 9.2513 8.33301 8.33464C8.33301 7.41797 9.08301 6.66797 9.99967 6.66797C10.9163 6.66797 11.6663 7.41797 11.6663 8.33464C11.6663 9.2513 10.9163 10.0013 9.99967 10.0013Z" fill="#90C63E"/>
</svg>
