<svg width="135" height="86" viewBox="0 0 135 86" fill="none" xmlns="http://www.w3.org/2000/svg">
<path d="M32 26L61.5 48C63.5 46.8333 68.4 45.2 72 48L102 24.5V70.5H32V26Z" fill="#90C63E"/>
<path d="M102.999 24.9454C102.999 24.9454 102.999 24.9348 102.999 24.9288C103 24.899 103 24.8692 102.999 24.8394C102.999 24.8394 102.999 24.8273 102.999 24.8213C102.994 24.7845 102.987 24.7481 102.978 24.7122V24.6986C102.97 24.6677 102.96 24.6373 102.948 24.6077L102.939 24.5865C102.927 24.5578 102.913 24.5305 102.898 24.5017C102.897 24.4964 102.894 24.4913 102.891 24.4866C102.873 24.4538 102.853 24.4219 102.831 24.3912C102.809 24.3624 102.785 24.3352 102.759 24.3079L102.741 24.2897C102.722 24.2704 102.702 24.2522 102.681 24.2352L102.654 24.2125C102.635 24.197 102.614 24.1828 102.593 24.1701L102.57 24.1535L90.4468 16.7227V0.925251C90.4464 0.67972 90.3496 0.444383 90.1776 0.270908C90.0056 0.0974328 89.7724 -3.27773e-07 89.5294 0H44.4706C44.2276 -3.27773e-07 43.9944 0.0974328 43.8224 0.270908C43.6504 0.444383 43.5536 0.67972 43.5532 0.925251V16.7212L31.4299 24.1519L31.4014 24.1716L31.3489 24.208L31.3159 24.2352L31.262 24.2852L31.2395 24.3079C31.2155 24.3337 31.1915 24.3609 31.169 24.3897C31.1474 24.4204 31.1274 24.4523 31.1091 24.4851L31.1001 24.5002C31.0866 24.529 31.0731 24.5563 31.0611 24.585L31.0521 24.6062C31.0401 24.6358 31.0301 24.6662 31.0221 24.6971V24.7107C31.0129 24.7466 31.0059 24.783 31.0011 24.8198C31.0011 24.8198 31.0011 24.8319 31.0011 24.8379C30.9996 24.8677 30.9996 24.8975 31.0011 24.9273C31.0011 24.9273 31.0011 24.9379 31.0011 24.9439V71.0732C31.0011 71.0732 31.0011 71.0854 31.0011 71.0899C31.0011 71.0944 31.0011 71.1293 31.0011 71.1474C31.0004 71.1585 31.0004 71.1697 31.0011 71.1807C31.0011 71.2004 31.0011 71.2216 31.0101 71.2428V71.2686C31.0101 71.2913 31.0206 71.3125 31.0266 71.3337C31.0326 71.3549 31.0266 71.3488 31.0341 71.3549C31.0405 71.3777 31.0485 71.3999 31.0581 71.4215V71.4397C31.0686 71.4609 31.0776 71.4821 31.0896 71.5033L31.0986 71.52C31.1094 71.5413 31.1214 71.562 31.1345 71.582L31.145 71.5972L31.163 71.6244L31.187 71.6547L31.199 71.6684C31.2138 71.6876 31.2298 71.7058 31.247 71.7229L31.259 71.7335C31.2755 71.7517 31.2935 71.7684 31.3129 71.7834L31.3249 71.7941C31.3429 71.8092 31.3624 71.8228 31.3819 71.8364L31.3984 71.8486L31.4643 71.8895L31.4898 71.9031L31.5423 71.9288L31.5753 71.9425L31.6232 71.9591L31.6622 71.9712L31.7087 71.9833L31.7477 71.9909L31.8001 72H31.8346H31.8961H102.08C102.14 71.9999 102.201 71.9939 102.26 71.9818H102.267L102.339 71.9637L102.362 71.9561C102.384 71.9493 102.405 71.9413 102.426 71.9319L102.449 71.9228C102.471 71.9137 102.492 71.9031 102.513 71.891L102.528 71.8834C102.599 71.8425 102.665 71.7915 102.722 71.732L102.731 71.7229C102.747 71.7077 102.761 71.6911 102.776 71.6744L102.798 71.6472C102.805 71.639 102.812 71.6304 102.819 71.6214L102.837 71.5942L102.847 71.579C102.861 71.559 102.873 71.5383 102.883 71.5169L102.892 71.5018L102.924 71.4367V71.4185C102.933 71.3969 102.941 71.3746 102.948 71.3519C102.948 71.3519 102.948 71.3382 102.955 71.3307C102.963 71.3231 102.967 71.2883 102.972 71.2656V71.2398C102.972 71.2186 102.979 71.1974 102.981 71.1777C102.982 71.1666 102.982 71.1555 102.981 71.1444C102.981 71.1262 102.981 71.1065 102.981 71.0869C102.981 71.0672 102.981 71.0763 102.981 71.0702L102.999 24.9454ZM32.8225 26.7899L61.1467 48.1146L32.8225 69.2394V26.7899ZM63.229 48.8717C64.3224 48.0664 65.6408 47.6325 66.994 47.6325C68.3472 47.6325 69.6656 48.0664 70.759 48.8717L99.2931 70.1465H34.6934L63.229 48.8717ZM72.8398 48.1146L101.164 26.7899V69.2394L72.8398 48.1146ZM100.438 25.0212L90.4303 32.5579V18.8881L100.438 25.0212ZM45.3881 1.85202H88.5984V33.9405L71.2747 46.9864C69.9839 46.1963 68.5034 45.7785 66.994 45.7785C65.4847 45.7785 64.0041 46.1963 62.7133 46.9864L45.3356 33.9027C45.37 33.8055 45.3877 33.703 45.3881 33.5998V1.85202ZM43.5532 32.5579L33.5451 25.0227L43.5532 18.8881V32.5579Z" fill="black"/>
<circle cx="67.288" cy="19.288" r="11.3896" fill="#90C63E"/>
<path d="M67.2878 32.5757C74.6265 32.5757 80.5757 26.6265 80.5757 19.2878C80.5757 11.9492 74.6265 6 67.2878 6C59.9492 6 54 11.9492 54 19.2878C54 26.6265 59.9492 32.5757 67.2878 32.5757Z" stroke="black" stroke-width="2" stroke-miterlimit="10" stroke-linecap="round" stroke-linejoin="round"/>
<path d="M72.9823 15.4922L65.3893 23.0852L61.5928 19.2887" stroke="black" stroke-width="2" stroke-miterlimit="10" stroke-linecap="round" stroke-linejoin="round"/>
<circle opacity="0.5" cx="114.5" cy="38.5" r="2.5" fill="#90C63E"/>
<circle opacity="0.5" cx="25.5" cy="83.5" r="2.5" fill="#90C63E"/>
<circle opacity="0.3" cx="131" cy="57" r="3.5" stroke="#90C63E"/>
<circle opacity="0.3" cx="14" cy="11" r="3.5" stroke="#90C63E"/>
<path opacity="0.5" d="M5 57L6.35045 60.6495L10 62L6.35045 63.3505L5 67L3.64955 63.3505L0 62L3.64955 60.6495L5 57Z" fill="#90C63E"/>
<path opacity="0.4" d="M122 4L123.35 7.64955L127 9L123.35 10.3505L122 14L120.65 10.3505L117 9L120.65 7.64955L122 4Z" fill="#90C63E"/>
<path opacity="0.3" d="M117 63.3211L118.191 66.2343L118.217 66.2974L118.259 66.3513L120.186 68.8394L117.068 68.4144L117 68.4052L116.932 68.4144L113.814 68.8394L115.741 66.3513L115.783 66.2974L115.809 66.2343L117 63.3211Z" stroke="#90C63E"/>
<path opacity="0.5" d="M24 36L25.3505 39.6495L29 41L25.3505 42.3505L24 46L22.6495 42.3505L19 41L22.6495 39.6495L24 36Z" fill="#90C63E"/>
</svg>
