<svg width="19" height="19" viewBox="0 0 19 19" fill="none" xmlns="http://www.w3.org/2000/svg">
<g clip-path="url(#clip0)">
<path d="M9.49943 11.7617C9.1925 11.7617 8.94279 11.512 8.94279 11.2051C8.94279 10.9809 9.07619 10.7795 9.28267 10.692C9.53193 10.5865 9.83022 10.6766 10.1013 10.9392C10.3221 11.1531 10.6745 11.1475 10.8884 10.9267C11.1023 10.7059 11.0967 10.3535 10.8759 10.1396C10.6246 9.89616 10.3453 9.72408 10.0561 9.62696V8.97852C10.0561 8.6711 9.80684 8.42188 9.49943 8.42188C9.19201 8.42188 8.94279 8.6711 8.94279 8.97852V9.63056C8.91121 9.64181 8.87974 9.65368 8.84853 9.66689C8.22951 9.92907 7.82951 10.5328 7.82951 11.2051C7.82951 12.1259 8.57863 12.875 9.49943 12.875C9.80636 12.875 10.0561 13.1247 10.0561 13.4316C10.0561 13.6649 9.90893 13.8752 9.68995 13.955C9.40402 14.0591 9.07118 13.9179 8.77683 13.5674C8.57912 13.332 8.22802 13.3014 7.9926 13.4991C7.75718 13.6969 7.72664 14.048 7.92436 14.2834C8.22528 14.6417 8.57555 14.8874 8.94282 15.011V15.6582C8.94282 15.9656 9.19205 16.2148 9.49946 16.2148C9.80688 16.2148 10.0561 15.9656 10.0561 15.6582V15.0061C10.0611 15.0043 10.066 15.0028 10.071 15.001C10.7279 14.7618 11.1693 14.131 11.1693 13.4316C11.1693 12.5108 10.4202 11.7617 9.49943 11.7617Z" fill="#90C63E"/>
<path d="M10.6082 4.73952L10.6076 4.73941C9.65029 4.54802 8.66557 4.60647 7.72392 4.91534C7.48549 4.99389 7.3545 5.2529 7.43303 5.49222L10.6082 4.73952ZM10.6082 4.73952L10.6103 4.73991L10.611 4.74006L10.6307 4.64201M10.6082 4.73952L10.6272 4.64134L10.6307 4.64201M10.6307 4.64201L10.6117 4.74019L10.6115 4.74014C10.8345 4.78492 11.0562 4.84318 11.2754 4.91512M10.6307 4.64201C10.8578 4.68758 11.0834 4.74688 11.3066 4.8201M11.3066 4.8201L11.2753 4.91507C11.2753 4.91509 11.2754 4.9151 11.2754 4.91512M11.3066 4.8201L11.2754 4.91512M11.3066 4.8201C11.5983 4.91625 11.7577 5.23179 11.6621 5.52299M11.2754 4.91512C11.5147 4.99408 11.6455 5.25317 11.5671 5.49179M11.5671 5.49179C11.5671 5.49175 11.5671 5.49172 11.5671 5.49169L11.6621 5.52299M11.5671 5.49179C11.5121 5.65851 11.3708 5.77499 11.2021 5.80068M11.5671 5.49179L11.6621 5.52299M11.6621 5.52299L11.2021 5.80068M11.2021 5.80068C10.6444 5.62828 10.0753 5.54063 9.5 5.54063C8.92576 5.54063 8.35768 5.62794 7.80098 5.79971C7.62917 5.77482 7.48746 5.65738 7.43305 5.49231L11.2021 5.80068ZM6.44275 6.40129C5.64031 6.86949 4.9091 7.50651 4.26724 8.29614C2.93129 9.93968 2.16367 12.014 2.16367 13.9902C2.16367 15.0157 2.36831 15.8523 2.74353 16.5294C3.11896 17.2068 3.66207 17.719 4.33001 18.1001C5.66188 18.8599 7.49299 19.1 9.5 19.1C11.5084 19.1 13.3395 18.8595 14.6711 18.0995C15.3388 17.7183 15.8817 17.2061 16.2569 16.5287C16.6319 15.8516 16.8363 15.0153 16.8363 13.9902C16.8363 12.014 16.0687 9.93968 14.7328 8.29615C14.091 7.50655 13.3598 6.86958 12.5574 6.40137C12.6668 6.25275 12.7543 6.0851 12.8146 5.90212L12.8147 5.90201C13.0922 5.05672 12.7108 4.0591 11.7275 3.68439L13.0885 1.31132L13.0885 1.31131C13.3 0.942419 13.11 0.472672 12.7022 0.354112C11.6657 0.0527595 10.5884 -0.1 9.5 -0.1C8.41164 -0.1 7.33431 0.0527595 6.29782 0.354113C5.88948 0.472816 5.70031 0.942889 5.91153 1.31131L5.91154 1.31132L7.27246 3.68441C6.29289 4.05762 5.90677 5.05371 6.18549 5.90246L6.18552 5.90254C6.24565 6.0851 6.33317 6.25264 6.44275 6.40129ZM9.5 1.21328C10.1802 1.21328 10.8552 1.28055 11.5158 1.41377L10.3919 3.37352C9.79918 3.29664 9.20097 3.29668 8.60812 3.37356L7.48422 1.41377C8.14476 1.28055 8.81981 1.21328 9.5 1.21328ZM9.5 17.7941C7.32942 17.7941 5.82323 17.5096 4.86138 16.8958C3.91028 16.2887 3.47695 15.3495 3.47695 13.9902C3.47695 12.34 4.1525 10.5194 5.28627 9.12451C6.48168 7.6539 7.97926 6.85391 9.5 6.85391C11.1747 6.85391 12.6486 7.81414 13.7137 9.12452C14.8475 10.5194 15.523 12.34 15.523 13.9902C15.523 15.3495 15.0897 16.2887 14.1386 16.8958C13.1768 17.5096 11.6706 17.7941 9.5 17.7941Z" fill="#90C63E" stroke="#90C63E" stroke-width="0.2"/>
</g>
<defs>
<clipPath id="clip0">
<rect width="19" height="19" fill="white"/>
</clipPath>
</defs>
</svg>
