<svg width="168" height="102" viewBox="0 0 168 102" fill="none" xmlns="http://www.w3.org/2000/svg">
<g clip-path="url(#clip0)">
<rect x="50.4629" y="15" width="67" height="6" fill="white"/>
<path d="M77.0538 51.1567V69.8742H111.589V51.1567H97.756C97.4629 51.1732 97.169 51.1585 96.8791 51.113C96.6253 51.0728 96.3942 50.9444 96.2269 50.7505C96.0597 50.5566 95.9673 50.31 95.9662 50.0546C95.9322 49.4877 96.1784 49.06 96.729 48.8909C97.0356 48.8055 97.3535 48.7666 97.6719 48.7755C102.236 48.7675 106.799 48.7675 111.361 48.7755C113.199 48.7755 114.058 49.6289 114.06 51.4571C114.06 57.5285 114.06 63.6006 114.06 69.6733C114.06 71.5134 113.223 72.333 111.361 72.333C99.9941 72.333 88.6271 72.333 77.26 72.333C75.4442 72.333 74.6194 71.5233 74.6154 69.7131C74.6074 63.6125 74.6074 57.5119 74.6154 51.4114C74.6154 49.621 75.4722 48.7755 77.264 48.7715C81.8258 48.7715 86.3882 48.7715 90.9513 48.7715C91.1909 48.7657 91.4305 48.785 91.666 48.8292C92.3307 48.9764 92.691 49.3982 92.631 50.0825C92.5729 50.721 92.1745 51.0771 91.5339 51.1408C91.2696 51.1667 91.0014 51.1567 90.7331 51.1567H77.0538Z" fill="black"/>
<path d="M125.463 80.5764V85.5099C124.989 86.6279 124.136 86.9999 122.931 86.9999C97.2855 86.9786 71.6405 86.9786 45.9955 86.9999C44.7943 86.9999 43.9375 86.6279 43.463 85.5099V80.5764C44.3559 77.7237 46.6101 77.292 49.1526 77.5546C49.1778 77.4283 49.1965 77.3008 49.2087 77.1726C49.2087 66.4303 49.214 55.688 49.2247 44.9457C49.2247 44.4503 48.9904 44.3489 48.584 44.2315C46.5441 43.6586 45.0326 42.4192 44.1797 40.4876C43.8254 39.68 43.6913 38.7748 43.457 37.9154V32.8327C45.1667 29.4847 46.8884 26.1427 48.57 22.7827C48.7941 22.3105 48.9155 21.7967 48.9264 21.2748C48.9744 19.7649 48.9164 18.251 48.9524 16.7411C48.9944 15.0224 50.0114 14.0456 51.7271 14.0158C52.634 13.9979 53.5409 14.0158 54.4478 14.0158C55.3546 14.0158 56.3176 14.0038 57.2505 14.0436C57.5308 14.0612 57.7951 14.1793 57.9943 14.376C58.1935 14.5726 58.3141 14.8345 58.3337 15.1129C58.3532 15.3912 58.2705 15.6672 58.1007 15.8895C57.9309 16.1118 57.6857 16.2652 57.4106 16.3214C57.1238 16.3771 56.832 16.4031 56.5398 16.399C55.0443 16.399 53.5509 16.385 52.0574 16.4209C51.8192 16.4209 51.3908 16.6715 51.3848 16.8187C51.3347 18.2391 51.3547 19.6634 51.3547 21.0938H117.573V17.515C117.573 16.399 117.573 16.399 116.452 16.399C98.8351 16.399 81.2179 16.399 63.6007 16.399C63.2016 16.4116 62.8024 16.3769 62.4115 16.2955C62.1431 16.2437 61.9055 16.0902 61.749 15.8674C61.5924 15.6447 61.5292 15.3702 61.5727 15.1019C61.5778 14.8336 61.683 14.5767 61.868 14.3811C62.053 14.1856 62.3045 14.0653 62.5737 14.0436C62.8122 14.0155 63.0523 14.0042 63.2924 14.0098H116.873C119.035 14.0098 119.97 14.9587 119.976 17.135C119.976 18.5952 119.976 20.0533 119.976 21.5115C119.955 21.775 119.993 22.0397 120.086 22.2874C121.866 25.8058 123.657 29.3203 125.457 32.8307V37.9254C125.397 38.0964 125.351 38.2721 125.319 38.4506C125.181 39.774 124.648 41.0262 123.787 42.0459C122.927 43.0655 121.78 43.806 120.492 44.1718C119.84 44.3489 119.691 44.6373 119.691 45.264C119.711 55.7119 119.716 66.1604 119.705 76.6096V77.5406C120.466 77.5406 121.129 77.5128 121.787 77.5406C123.767 77.6501 124.85 78.8377 125.463 80.5764ZM72.117 77.479H117.309V45.2023C117.336 45.071 117.336 44.9357 117.309 44.8044C117.217 44.6194 117.097 44.3489 116.939 44.3091C115.265 43.8894 113.936 42.9643 112.879 41.5439C111.417 43.4219 109.564 44.4921 107.179 44.4901C104.795 44.4881 102.951 43.4378 101.518 41.5937C98.6769 45.3237 93.2236 45.5882 90.1386 41.6255C87.2397 45.439 81.7304 45.4748 78.7755 41.5917C77.3401 43.4457 75.4783 44.4921 73.0939 44.4881C70.7096 44.4842 68.8758 43.4119 67.4324 41.5599C65.965 43.4776 64.1092 44.4822 61.7569 44.4881C59.4046 44.4941 57.5248 43.4159 56.0633 41.54C55.0744 42.8549 53.8992 43.7939 52.3637 44.1718C51.7491 44.321 51.601 44.6055 51.601 45.2122C51.6237 55.6893 51.629 66.1664 51.617 76.6435V77.477H53.7351V51.5622C53.7351 49.5828 54.5579 48.7771 56.5638 48.7771H69.2162C71.3262 48.7771 72.117 49.5629 72.117 51.6556V77.479ZM45.8654 84.5331H123.053C123.053 83.4131 123.085 82.3449 123.053 81.2965C123.021 80.4769 122.488 79.9955 121.667 79.9338C121.455 79.9179 121.241 79.9338 121.027 79.9338H47.9114C47.7232 79.9338 47.537 79.9338 47.3508 79.9338C46.4399 79.9816 45.9054 80.4749 45.8754 81.38C45.8414 82.4045 45.8654 83.437 45.8654 84.5331ZM56.1834 51.2021V77.4611H69.6406V51.2021H56.1834ZM88.8393 31.8381C88.6391 29.053 88.4389 26.3515 88.2387 23.5486H82.3009C80.7154 23.5486 80.7154 23.5486 80.5913 25.0784C80.5773 25.2355 80.5532 25.3947 80.5412 25.5518C80.3951 27.6307 80.2509 29.7095 80.1008 31.8381H88.8393ZM70.7216 23.5824C70.121 26.3674 69.5325 29.0789 68.9339 31.842H77.6704C77.8706 29.0829 78.0708 26.3535 78.271 23.5824H70.7216ZM91.2537 31.8241H99.9902C99.3896 29.0291 98.789 26.2998 98.2024 23.5963H90.6631C90.8613 26.3575 91.0555 29.0669 91.2537 31.8241ZM68.2652 23.5506C65.8148 23.5506 63.5006 23.5366 61.1883 23.5764C60.9881 23.5764 60.6918 23.9126 60.6018 24.1513C59.7169 26.5385 58.8641 28.9257 57.9992 31.3129C57.949 31.4856 57.9083 31.661 57.8771 31.8381H66.4735C67.0681 29.0809 67.6546 26.3714 68.2652 23.5506ZM111.129 31.848C110.392 29.803 109.692 27.8415 108.977 25.8801C108.697 25.1162 108.577 24.0738 108.026 23.6918C107.475 23.3099 106.438 23.5565 105.624 23.5526C104.004 23.5426 102.385 23.5526 100.677 23.5526C101.289 26.3834 101.878 29.1087 102.479 31.852L111.129 31.848ZM46.7463 31.8779C49.523 31.8779 52.2116 31.8898 54.9002 31.856C55.0864 31.856 55.3546 31.5456 55.4387 31.3268C55.9853 29.8905 56.4958 28.4403 57.0143 26.9941C57.4147 25.8781 57.815 24.7641 58.2475 23.5486C55.9572 23.5486 53.7711 23.5705 51.587 23.5347C51.0384 23.5247 50.7862 23.7336 50.564 24.1891C49.4128 26.5186 48.2277 28.8322 47.0566 31.1517C46.9424 31.3586 46.8664 31.5755 46.7362 31.8779H46.7463ZM110.693 23.5526C111.68 26.2859 112.6 28.874 113.565 31.4442C113.64 31.5624 113.741 31.6617 113.861 31.7342C113.981 31.8067 114.116 31.8504 114.256 31.8619C115.88 31.8977 117.505 31.8798 119.129 31.8798H122.254C120.853 29.1107 119.523 26.4709 118.176 23.839C118.13 23.7647 118.069 23.7014 117.995 23.6539C117.922 23.6064 117.838 23.5758 117.752 23.5645C115.429 23.5486 113.115 23.5526 110.683 23.5526H110.693ZM46.0075 34.2949C46.0075 35.6715 45.9194 36.9685 46.0295 38.2496C46.1285 39.2197 46.5579 40.127 47.2468 40.8212C47.9357 41.5155 48.8426 41.9551 49.8172 42.0671C52.0454 42.288 54.1014 41.1501 54.5899 39.0832C54.9503 37.5514 54.8602 35.9162 54.9743 34.2909L46.0075 34.2949ZM68.7177 34.2949C68.7177 35.6775 68.5956 37.0063 68.7437 38.3053C68.992 40.4797 70.7457 41.9935 72.9098 42.085C75.0739 42.1765 77.0118 40.8437 77.4122 38.7032C77.6784 37.2729 77.5803 35.7769 77.6464 34.2809L68.7177 34.2949ZM91.4138 34.2949C91.4138 35.6874 91.2877 37.0501 91.4418 38.377C91.6821 40.4399 93.4618 41.9577 95.5238 42.0831C97.6459 42.2104 99.6038 40.9849 100.042 38.9499C100.367 37.4559 100.298 35.8764 100.407 34.2949H91.4138ZM114.09 34.2949C114.09 35.5501 114.05 36.7378 114.09 37.9234C114.135 38.8908 114.5 39.8164 115.127 40.5571C115.755 41.2979 116.611 41.8123 117.563 42.021C118.514 42.2296 119.509 42.1207 120.392 41.7112C121.275 41.3017 121.998 40.6143 122.448 39.7555C123.367 38.0129 122.905 36.1469 123.015 34.2949H114.09ZM57.2785 34.2949C57.2785 35.3015 57.2685 36.2245 57.2785 37.1456C57.2843 37.5449 57.3144 37.9435 57.3686 38.3392C57.6389 40.2907 59.2665 41.8821 61.1723 42.0711C63.3404 42.284 65.2323 41.1799 65.925 39.2423C66.5015 37.627 66.1251 35.9619 66.2232 34.3008L57.2785 34.2949ZM80.1008 34.2949C80.1008 35.7471 79.9666 37.1356 80.1328 38.4884C80.361 40.3424 81.9686 41.8085 83.7363 42.0552C85.7223 42.3297 87.518 41.4584 88.4229 39.7357C89.3278 38.0129 88.8233 36.1231 88.9814 34.2949H80.1008ZM102.739 34.3108C102.739 35.5362 102.699 36.7238 102.739 37.9075C102.823 40.0301 104.519 41.8483 106.557 42.0632C108.873 42.3059 110.961 41.0685 111.423 38.8802C111.736 37.4101 111.654 35.8545 111.752 34.3048L102.739 34.3108Z" fill="black"/>
<path d="M72.1166 77.478V51.6467C72.1166 49.554 71.3158 48.7702 69.2158 48.7682H56.5634C54.5615 48.7682 53.7367 49.5798 53.7347 51.5532V77.476H51.6166V76.6425C51.6166 66.1654 51.6113 55.6883 51.6006 45.2113C51.6006 44.6045 51.7487 44.3201 52.3633 44.1709C53.8988 43.7929 55.074 42.8539 56.0529 41.543C57.5144 43.4189 59.3662 44.4971 61.7465 44.4911C64.1268 44.4852 65.9506 43.4806 67.422 41.5629C68.8654 43.4149 70.7112 44.4872 73.0835 44.4911C75.4559 44.4951 77.3297 43.4487 78.7651 41.5947C81.724 45.4778 87.2293 45.442 90.1282 41.6285C93.2132 45.5912 98.6665 45.3266 101.507 41.5967C102.941 43.4408 104.798 44.4891 107.169 44.4931C109.539 44.4971 111.407 43.4249 112.868 41.5469C113.931 42.9773 115.255 43.8923 116.934 44.3121C117.092 44.3519 117.213 44.6224 117.305 44.8074C117.332 44.9387 117.332 45.074 117.305 45.2053V77.478H72.1166ZM77.0534 51.1573H90.7348C91.001 51.1573 91.2693 51.1573 91.5355 51.1414C92.1762 51.0778 92.5746 50.7217 92.6326 50.0831C92.6927 49.3988 92.3323 48.977 91.6677 48.8298C91.4321 48.7857 91.1926 48.7663 90.953 48.7721C86.3899 48.7721 81.8274 48.7721 77.2656 48.7721C75.4639 48.7721 74.621 49.6176 74.617 51.412C74.609 57.5125 74.609 63.6131 74.617 69.7137C74.617 71.524 75.4459 72.3336 77.2616 72.3336C88.6287 72.3336 99.9958 72.3336 111.363 72.3336C113.225 72.3336 114.06 71.514 114.062 69.6739C114.062 63.6025 114.062 57.5304 114.062 51.4577C114.062 49.6295 113.201 48.7781 111.363 48.7761C106.801 48.7761 102.238 48.7761 97.6735 48.7761C97.3552 48.7672 97.0373 48.8061 96.7306 48.8915C96.1801 49.0646 95.9298 49.4883 95.9679 50.0553C95.969 50.3106 96.0614 50.5572 96.2286 50.7511C96.3958 50.945 96.627 51.0735 96.8808 51.1136C97.1707 51.1591 97.4646 51.1738 97.7576 51.1573H111.591V69.8748H77.0534V51.1573Z" fill="white"/>
<path d="M45.8651 84.5344C45.8651 83.4383 45.8391 82.4058 45.8651 81.3773C45.8951 80.4722 46.4296 79.9848 47.3405 79.9311C47.5267 79.9192 47.7129 79.9311 47.9011 79.9311H121.016C121.231 79.9311 121.445 79.9311 121.657 79.9311C122.478 79.9928 123.01 80.4742 123.042 81.2938C123.084 82.3501 123.042 83.4104 123.042 84.5304L45.8651 84.5344Z" fill="#90C63E"/>
<path d="M56.1855 51.2031H69.6427V77.4621H56.1855V51.2031ZM67.6307 64.0044C67.6544 63.5815 67.6511 63.1576 67.6207 62.7352C67.6037 62.4513 67.4765 62.1851 67.2659 61.9925C67.0553 61.7999 66.7777 61.6961 66.4916 61.7027C65.825 61.6848 65.3465 62.0668 65.2904 62.7352C65.229 63.5298 65.229 64.3278 65.2904 65.1224C65.2925 65.2707 65.325 65.417 65.3859 65.5525C65.4468 65.6879 65.5348 65.8096 65.6446 65.9101C65.7544 66.0106 65.8836 66.0879 66.0244 66.1371C66.1652 66.1864 66.3146 66.2066 66.4636 66.1966C67.1222 66.1966 67.5587 65.7988 67.6407 65.1224C67.6608 64.7499 67.6574 64.3765 67.6307 64.0044Z" fill="#90C63E"/>
<path d="M88.8392 31.8364H80.0986C80.2488 29.7078 80.3929 27.629 80.5391 25.5501C80.5511 25.393 80.5751 25.2338 80.5891 25.0767C80.7132 23.5469 80.7132 23.5469 82.2988 23.5469H88.2466C88.4468 26.3498 88.641 29.0513 88.8392 31.8364Z" fill="#90C63E"/>
<path d="M70.7213 23.582H78.2607C78.0605 26.3532 77.8603 29.0825 77.6601 31.8417H68.9336C69.5322 29.0785 70.1187 26.3651 70.7213 23.582Z" fill="#90C63E"/>
<path d="M91.2539 31.8255C91.0537 29.0683 90.8535 26.3588 90.6533 23.5977H98.1927C98.7813 26.3011 99.3738 29.0305 99.9804 31.8255H91.2539Z" fill="#90C63E"/>
<path d="M68.2651 23.5494C67.6645 26.3702 67.0639 29.0797 66.4733 31.8309H57.877C57.9102 31.655 57.953 31.481 58.0051 31.3097C58.8639 28.9225 59.7168 26.5353 60.6076 24.1482C60.6977 23.9095 60.99 23.5772 61.1942 23.5733C63.5004 23.5355 65.8147 23.5494 68.2651 23.5494Z" fill="#90C63E"/>
<path d="M111.129 31.8475H102.454C101.854 29.1042 101.271 26.3789 100.652 23.5481C102.36 23.5481 103.98 23.5481 105.599 23.5481C106.422 23.5481 107.445 23.2974 108.002 23.6873C108.558 24.0772 108.672 25.1156 108.952 25.8756C109.681 27.841 110.382 29.8025 111.129 31.8475Z" fill="#90C63E"/>
<path d="M46.7363 31.8767C46.8645 31.5743 46.9365 31.3575 47.0466 31.1526C48.2178 28.8311 49.4029 26.5175 50.5541 24.19C50.7803 23.7344 51.0285 23.5255 51.5771 23.5355C53.7612 23.5713 55.9473 23.5494 58.2376 23.5494C57.8031 24.7649 57.4047 25.8789 57.0044 26.9949C56.4858 28.4412 55.9754 29.8914 55.4288 31.3277C55.3447 31.5465 55.0765 31.8528 54.8903 31.8568C52.2017 31.8886 49.513 31.8767 46.7363 31.8767Z" fill="#90C63E"/>
<path d="M110.683 23.5508C113.115 23.5508 115.429 23.5508 117.742 23.5627C117.828 23.5741 117.912 23.6046 117.985 23.6521C118.059 23.6996 118.12 23.7629 118.166 23.8372C119.513 26.4691 120.843 29.1089 122.244 31.8781H119.119C117.495 31.8781 115.87 31.896 114.246 31.8602C114.106 31.8487 113.971 31.8049 113.851 31.7324C113.731 31.6599 113.63 31.5606 113.555 31.4424C112.59 28.8722 111.67 26.2841 110.683 23.5508Z" fill="#90C63E"/>
<path d="M45.9972 34.293H54.964C54.8499 35.9182 54.94 37.5535 54.5796 39.0852C54.0911 41.1482 52.0351 42.286 49.8069 42.0692C48.8323 41.9572 47.9254 41.5176 47.2365 40.8233C46.5476 40.129 46.1182 39.2217 46.0192 38.2517C45.9091 36.9666 45.9972 35.6696 45.9972 34.293Z" fill="#90C63E"/>
<path d="M68.7075 34.2969H77.6362C77.5701 35.7928 77.6682 37.2808 77.402 38.7191C77.0016 40.8537 75.0577 42.1945 72.8996 42.101C70.7415 42.0075 68.9817 40.4876 68.7335 38.3213C68.5854 37.0123 68.7075 35.6795 68.7075 34.2969Z" fill="#90C63E"/>
<path d="M91.4041 34.2969H100.397C100.289 35.8784 100.357 37.4579 100.032 38.9519C99.5941 40.987 97.6301 42.2124 95.5141 42.0851C93.4521 41.9637 91.6723 40.4419 91.4321 38.379C91.2779 37.0521 91.4041 35.6954 91.4041 34.2969Z" fill="#90C63E"/>
<path d="M114.08 34.2969H123.013C122.903 36.1489 123.365 38.0149 122.446 39.7576C121.996 40.6163 121.273 41.3037 120.39 41.7132C119.507 42.1227 118.513 42.2316 117.561 42.023C116.609 41.8143 115.753 41.2999 115.125 40.5592C114.498 39.8184 114.133 38.8928 114.088 37.9254C114.04 36.7398 114.08 35.5521 114.08 34.2969Z" fill="#90C63E"/>
<path d="M57.2765 34.2969H66.2252C66.1311 35.958 66.5035 37.623 65.9269 39.2383C65.2342 41.1759 63.3424 42.28 61.1743 42.0672C59.2684 41.8682 57.6408 40.2768 57.3706 38.3352C57.3163 37.9395 57.2863 37.5409 57.2805 37.1416C57.2585 36.2265 57.2765 35.3035 57.2765 34.2969Z" fill="#90C63E"/>
<path d="M80.0824 34.2969H88.9631C88.7949 36.1251 89.3254 37.9891 88.4045 39.7377C87.4836 41.4863 85.7039 42.3238 83.7179 42.0572C81.9502 41.8105 80.3427 40.3444 80.1144 38.4904C79.9483 37.1376 80.0824 35.7491 80.0824 34.2969Z" fill="#90C63E"/>
<path d="M102.721 34.3125H111.742C111.643 35.8602 111.725 37.4158 111.413 38.8879C110.953 41.0623 108.863 42.3096 106.546 42.0709C104.508 41.856 102.813 40.0378 102.729 37.9152C102.681 36.7256 102.721 35.5379 102.721 34.3125Z" fill="#90C63E"/>
<path d="M67.6308 64.0016C67.6538 64.3713 67.6538 64.742 67.6308 65.1116C67.5487 65.784 67.1123 66.1859 66.4536 66.1859C66.3047 66.1959 66.1553 66.1756 66.0145 66.1264C65.8737 66.0771 65.7444 65.9999 65.6347 65.8993C65.5249 65.7988 65.4369 65.6772 65.376 65.5417C65.3151 65.4063 65.2826 65.26 65.2805 65.1116C65.219 64.3171 65.219 63.519 65.2805 62.7245C65.3385 62.0561 65.817 61.6741 66.4816 61.692C66.7678 61.6853 67.0453 61.7892 67.2559 61.9818C67.4665 62.1743 67.5937 62.4406 67.6108 62.7245C67.6411 63.1469 67.6445 63.5708 67.6208 63.9936L67.6308 64.0016Z" fill="black"/>
</g>
<circle opacity="0.5" cx="142.427" cy="42.9144" r="3.10976" fill="#90C63E"/>
<circle opacity="0.5" cx="31.7191" cy="98.891" r="3.10976" fill="#90C63E"/>
<circle opacity="0.3" cx="162.951" cy="65.9287" r="4.47561" stroke="#90C63E"/>
<circle opacity="0.3" cx="17.4151" cy="8.70608" r="4.47561" stroke="#90C63E"/>
<path opacity="0.5" d="M6.21951 65.9258L7.89934 70.4655L12.439 72.1453L7.89934 73.8251L6.21951 78.3648L4.53968 73.8251L0 72.1453L4.53968 70.4655L6.21951 65.9258Z" fill="#90C63E"/>
<path opacity="0.4" d="M151.756 0L153.435 4.53968L157.975 6.21951L153.435 7.89934L151.756 12.439L150.076 7.89934L145.536 6.21951L150.076 4.53968L151.756 0Z" fill="#90C63E"/>
<path opacity="0.3" d="M145.537 73.4656L147.131 77.3655L147.157 77.4285L147.199 77.4824L149.779 80.8132L145.604 80.2443L145.537 80.2351L145.469 80.2443L141.295 80.8132L143.875 77.4824L143.917 77.4285L143.942 77.3655L145.537 73.4656Z" stroke="#90C63E"/>
<path opacity="0.5" d="M29.8533 39.8047L31.5331 44.3444L36.0728 46.0242L31.5331 47.704L29.8533 52.2437L28.1735 47.704L23.6338 46.0242L28.1735 44.3444L29.8533 39.8047Z" fill="#90C63E"/>
<defs>
<clipPath id="clip0">
<rect width="82" height="73" fill="white" transform="translate(43.4629 14)"/>
</clipPath>
</defs>
</svg>
