<svg width="143" height="115" viewBox="0 0 143 115" fill="none" xmlns="http://www.w3.org/2000/svg">
<ellipse cx="66.1422" cy="57.3936" rx="57.3355" ry="57.3936" fill="#90C63E" fill-opacity="0.1"/>
<ellipse cx="66.141" cy="57.392" rx="39.6136" ry="39.6537" fill="#90C63E" fill-opacity="0.15"/>
<g clip-path="url(#clip0)">
<path d="M83.5317 55.0614C84.1132 54.4116 84.4675 53.554 84.4675 52.6156C84.4675 50.593 82.8232 48.947 80.8026 48.947H73.6894C74.3939 46.807 74.6944 43.9674 74.6944 42.7503V41.5282C74.6944 38.8314 72.502 36.6367 69.8078 36.6367H68.5862C68.0259 36.6367 67.5372 37.0183 67.4012 37.5628L66.7358 40.2279C65.8033 43.9601 62.8429 48.0779 59.779 48.8263C59.2423 47.4665 57.9172 46.5012 56.3698 46.5012H49.04C48.3657 46.5012 47.8184 47.0491 47.8184 47.7241V69.7359C47.8184 70.4109 48.3657 70.9587 49.04 70.9587H56.3698C57.8268 70.9587 59.0876 70.1035 59.678 68.8676L63.8756 70.2682C65.2479 70.7264 66.678 70.9587 68.1252 70.9587H78.3593C80.3799 70.9587 82.0242 69.3127 82.0242 67.2901C82.0242 66.8132 81.933 66.3567 81.7669 65.9384C83.3208 65.5137 84.4675 64.0878 84.4675 62.3986C84.4675 61.4603 84.1132 60.6026 83.5317 59.9529C84.1132 59.3031 84.4675 58.4455 84.4675 57.5071C84.4675 56.5688 84.1132 55.7111 83.5317 55.0614ZM57.5915 67.2901C57.5915 67.9643 57.0434 68.513 56.3698 68.513H50.2616V48.947H56.3698C57.0434 48.947 57.5915 49.4957 57.5915 50.1699V67.2901ZM78.3593 56.2842H80.8026C81.4761 56.2842 82.0242 56.8329 82.0242 57.5071C82.0242 58.1813 81.4761 58.73 80.8026 58.73H78.3593C77.685 58.73 77.1377 59.2778 77.1377 59.9529C77.1377 60.6279 77.685 61.1757 78.3593 61.1757H80.8026C81.4761 61.1757 82.0242 61.7244 82.0242 62.3986C82.0242 63.0728 81.4761 63.6215 80.8026 63.6215H78.3593C77.685 63.6215 77.1377 64.1693 77.1377 64.8444C77.1377 65.5194 77.685 66.0672 78.3593 66.0672C79.0328 66.0672 79.5809 66.6159 79.5809 67.2901C79.5809 67.9643 79.0328 68.513 78.3593 68.513H68.1252C66.9411 68.513 65.7707 68.323 64.6476 67.948L60.0347 66.4088V51.277C61.9511 50.9126 63.8267 49.6978 65.5199 47.7094C67.1732 45.7675 68.5137 43.193 69.1058 40.8214L69.5399 39.0825H69.8078C71.1549 39.0825 72.2511 40.1798 72.2511 41.5282V42.7503C72.2511 44.3922 71.738 47.5415 71.0816 48.947H68.5862C67.9119 48.947 67.3646 49.4948 67.3646 50.1699C67.3646 50.8449 67.9119 51.3927 68.5862 51.3927H80.8026C81.4761 51.3927 82.0242 51.9414 82.0242 52.6156C82.0242 53.2898 81.4761 53.8385 80.8026 53.8385H78.3593C77.685 53.8385 77.1377 54.3863 77.1377 55.0614C77.1377 55.7364 77.685 56.2842 78.3593 56.2842Z" fill="#81B533"/>
<path d="M53.9296 66.0668C54.6043 66.0668 55.1513 65.5193 55.1513 64.844C55.1513 64.1686 54.6043 63.6211 53.9296 63.6211C53.255 63.6211 52.708 64.1686 52.708 64.844C52.708 65.5193 53.255 66.0668 53.9296 66.0668Z" fill="#81B533"/>
<path d="M71.0273 29.2188C70.3526 29.2188 69.8057 29.7663 69.8057 30.4416V32.9689C69.8057 33.6443 70.3526 34.1918 71.0273 34.1918C71.702 34.1918 72.2489 33.6443 72.2489 32.9689V30.4416C72.2489 29.7663 71.702 29.2188 71.0273 29.2188Z" fill="#81B533"/>
<path d="M65.8473 34.611L64.1196 32.8816C63.6426 32.404 62.8691 32.404 62.392 32.8816C61.9149 33.3592 61.9149 34.1334 62.392 34.611L64.1196 36.3404C64.5967 36.8179 65.3703 36.818 65.8473 36.3404C66.3244 35.8628 66.3244 35.0886 65.8473 34.611Z" fill="#81B533"/>
<path d="M79.6705 32.8816C79.1935 32.404 78.42 32.404 77.9429 32.8816L76.2152 34.6109C75.7381 35.0885 75.7381 35.8627 76.2152 36.3403C76.6923 36.8179 77.4658 36.818 77.9429 36.3404L79.6705 34.611C80.1476 34.1334 80.1476 33.3592 79.6705 32.8816Z" fill="#81B533"/>
</g>
<path d="M7.15344 4.17408C7.15344 5.82533 5.81651 7.16188 4.16986 7.16188C2.5232 7.16188 1.18627 5.82533 1.18627 4.17408C1.18627 2.52283 2.5232 1.18627 4.16986 1.18627C5.81651 1.18627 7.15344 2.52283 7.15344 4.17408Z" stroke="#90C63E" stroke-width="2.37255"/>
<mask id="path-9-inside-1" fill="white">
<ellipse cx="140.837" cy="84.5245" rx="2.08493" ry="2.08704"/>
</mask>
<path d="M140.549 84.5245C140.549 84.3691 140.676 84.239 140.837 84.239V88.9841C143.301 88.9841 145.294 86.9852 145.294 84.5245H140.549ZM140.837 84.239C140.998 84.239 141.125 84.3691 141.125 84.5245H136.379C136.379 86.9852 138.373 88.9841 140.837 88.9841V84.239ZM141.125 84.5245C141.125 84.68 140.998 84.81 140.837 84.81V80.065C138.373 80.065 136.379 82.0638 136.379 84.5245H141.125ZM140.837 84.81C140.676 84.81 140.549 84.68 140.549 84.5245H145.294C145.294 82.0638 143.301 80.065 140.837 80.065V84.81Z" fill="#90C63E" mask="url(#path-9-inside-1)"/>
<defs>
<clipPath id="clip0">
<rect width="41.6986" height="41.7408" fill="white" transform="translate(45.293 29.2188)"/>
</clipPath>
</defs>
</svg>
