<svg width="24" height="24" viewBox="0 0 24 24" fill="none" xmlns="http://www.w3.org/2000/svg">
<path d="M12 -1.90735e-06C18.6274 -1.90735e-06 24 5.37258 24 12C24 18.6274 18.6274 24 12 24C5.37258 24 0 18.6274 0 12C0 5.37258 5.37258 -1.90735e-06 12 -1.90735e-06Z" fill="#F24646"/>
<path d="M9.4504 6.59886L17.9272 11.493C18.0161 11.5444 18.0898 11.6183 18.1411 11.7072C18.1924 11.7961 18.2194 11.897 18.2194 11.9997C18.2194 12.1023 18.1924 12.2032 18.1411 12.2921C18.0898 12.381 18.0161 12.4549 17.9272 12.5063L9.4504 17.401C9.36137 17.452 9.26052 17.4787 9.15793 17.4785C9.05534 17.4783 8.95459 17.4513 8.86573 17.4C8.77688 17.3487 8.70301 17.2751 8.65152 17.1863C8.60002 17.0976 8.5727 16.9969 8.57227 16.8943V7.10579C8.57265 7.00318 8.59994 6.90246 8.65142 6.81369C8.7029 6.72493 8.77675 6.65121 8.86562 6.59991C8.95449 6.54861 9.05526 6.52151 9.15787 6.52133C9.26048 6.52114 9.36135 6.54788 9.4504 6.59886Z" fill="#FFFCEE"/>
</svg>
