<svg width="24" height="24" viewBox="0 0 24 24" fill="none" xmlns="http://www.w3.org/2000/svg">
<path d="M13.6679 0H4.7118C3.84947 0 3.14648 0.702988 3.14648 1.57001V22.43C3.14648 23.297 3.84947 23.9953 4.71649 24H20.44C21.307 24 22.0053 23.297 22.01 22.43L21.9631 6.93615L13.6679 0Z" fill="#D9DEFB"/>
<path d="M13.6677 0L13.6443 6.77211C13.6443 6.77211 13.6677 6.93615 13.8083 6.93615H21.963L13.6677 0Z" fill="#3B478F"/>
<path d="M1.63738 11.5618H17.4593C17.8108 11.5618 18.0967 11.8476 18.0967 12.1991V19.2665C18.0967 19.618 17.8108 19.9039 17.4593 19.9039H1.63738C1.28588 19.9039 1 19.618 1 19.2665V12.1991C1 11.8476 1.28588 11.5618 1.63738 11.5618Z" fill="#3B478F"/>
<path d="M1.96558 14.0175H3.57776C3.89645 14.0175 4.15421 14.0596 4.34636 14.1487C4.53382 14.2284 4.70254 14.3596 4.82908 14.5189C4.9603 14.683 5.05404 14.8751 5.10559 15.0813C5.16183 15.3016 5.19463 15.5312 5.18995 15.7609C5.18995 16.1358 5.14777 16.4264 5.06341 16.6326C4.98374 16.8294 4.86189 17.0075 4.70723 17.1528C4.57132 17.284 4.4026 17.3777 4.21514 17.4293C4.00424 17.4902 3.78866 17.5183 3.56839 17.523H1.96558V14.0175ZM3.04818 14.8142V16.731H3.31531C3.54027 16.731 3.7043 16.7076 3.79803 16.656C3.90114 16.5951 3.98081 16.506 4.02299 16.3936C4.07454 16.267 4.10266 16.0655 4.10266 15.7843C4.10266 15.4141 4.04173 15.1563 3.91988 15.0204C3.79803 14.8845 3.59651 14.8142 3.31531 14.8142H3.04818Z" fill="white"/>
<path d="M5.62573 15.7751C5.62573 15.2033 5.78508 14.7581 6.10376 14.4347C6.42245 14.116 6.86768 13.9567 7.43944 13.9567C8.02526 13.9567 8.47518 14.1113 8.78918 14.4253C9.10318 14.7393 9.26252 15.1752 9.26252 15.7423C9.26252 16.1547 9.19222 16.4874 9.05631 16.7499C8.9204 17.0076 8.71419 17.2232 8.45643 17.3638C8.19398 17.5091 7.87061 17.5841 7.48162 17.5841C7.08326 17.5841 6.7552 17.5232 6.49744 17.3966C6.2303 17.2654 6.01003 17.0545 5.86475 16.7967C5.71009 16.5296 5.62573 16.1875 5.62573 15.7751ZM6.71302 15.7844C6.71302 16.1406 6.77863 16.3937 6.90986 16.5483C7.04108 16.703 7.21917 16.7827 7.44881 16.7827C7.68314 16.7827 7.86123 16.7077 7.99246 16.553C8.119 16.4031 8.18461 16.1312 8.18461 15.7376C8.18461 15.4048 8.11899 15.1658 7.98308 15.0111C7.85186 14.8612 7.66908 14.7815 7.43944 14.7815C7.23792 14.7768 7.04108 14.8612 6.91454 15.0158C6.77863 15.1705 6.71302 15.4236 6.71302 15.7844Z" fill="white"/>
<path d="M12.1868 16.0937L13.1382 16.3796C13.0866 16.6233 12.9835 16.8482 12.8382 17.0451C12.7023 17.2231 12.5289 17.3591 12.3274 17.4481C12.1258 17.5371 11.8634 17.584 11.5494 17.584C11.1698 17.584 10.8558 17.5278 10.6168 17.42C10.3778 17.3122 10.1669 17.1153 9.98877 16.8342C9.81536 16.553 9.72632 16.1968 9.72632 15.7609C9.72632 15.1798 9.88098 14.7346 10.1903 14.4206C10.4996 14.1066 10.9355 13.9519 11.5025 13.9519C11.9431 13.9519 12.2946 14.0409 12.543 14.219C12.796 14.3971 12.9835 14.6736 13.1053 15.0439L12.1493 15.2548C12.1258 15.1704 12.093 15.0907 12.0462 15.0204C11.9899 14.9408 11.9103 14.8752 11.8212 14.8283C11.5166 14.683 11.151 14.7814 10.9636 15.0579C10.8652 15.2032 10.8136 15.4329 10.8136 15.7516C10.8136 16.1405 10.8745 16.4077 10.9917 16.553C11.1089 16.6982 11.2776 16.7685 11.4885 16.7732C11.6947 16.7732 11.854 16.717 11.9571 16.5998C12.0602 16.4873 12.1352 16.3186 12.1868 16.0937Z" fill="white"/>
<path d="M13.4243 14.0175H14.6194L15.238 15.0954L15.8426 14.0175H17.0236L15.9316 15.7187L17.1267 17.5277H15.9082L15.2146 16.4029L14.521 17.5277H13.3071L14.5163 15.6999L13.4243 14.0175Z" fill="white"/>
</svg>
