<?xml version="1.0" encoding="utf-8"?>
<!-- Generator: Adobe Illustrator 24.3.0, SVG Export Plug-In . SVG Version: 6.00 Build 0)  -->
<svg version="1.1" id="Layer_1" xmlns="http://www.w3.org/2000/svg" xmlns:xlink="http://www.w3.org/1999/xlink" x="0px" y="0px"
	 viewBox="0 0 10 11" style="enable-background:new 0 0 10 11;" xml:space="preserve">
<style type="text/css">
	.st0{fill:#5F6880;}
</style>
<g>
	<path class="st0" d="M10,4.3C9.9,4,9.7,3.8,9.4,3.8L6.7,3.6L5.6,0.9C5.5,0.7,5.3,0.5,5,0.5S4.5,0.7,4.4,0.9L3.3,3.6L0.6,3.8
		c-0.1,0-0.2,0.1-0.3,0.1C0,4.1-0.1,4.4,0.1,4.8l0,0c0,0.1,0.1,0.2,0.1,0.2L2,7L1.4,9.6c-0.1,0.4,0.1,0.8,0.4,1
		c0.2,0.1,0.3,0.2,0.5,0.2c0.2,0,0.4-0.1,0.5-0.2L5,8.9l2.3,1.5c0.2,0.1,0.5,0.1,0.7,0c0.2-0.2,0.3-0.4,0.3-0.7L7.7,6.9L9.8,5
		C10,4.8,10.1,4.5,10,4.3z M7.7,9.9L5,8.2l-2.5,1.9c-0.2,0.1-0.3,0-0.4,0C2,10.1,1.9,9.9,2,9.7l0.7-2.9l-2-2.2l0.1-0.2l3-0.3l1.2-3
		l0.1,0l0,0l1.2,3l3.1,0.3c0,0,0,0,0.1,0.1c0,0,0,0.1,0,0.1L7,6.7l0.7,3.1C7.8,9.9,7.7,9.9,7.7,9.9z M0.5,4.2L0.5,4.2L0.5,4.2
		C0.5,4.2,0.5,4.2,0.5,4.2z"/>
</g>
</svg>
