<svg aria-hidden="true" version="1.1" xmlns="http://www.w3.org/2000/svg" xmlns:xlink="http://www.w3.org/1999/xlink" display="none">
	<defs>

		<symbol id="gp_icon-plus" viewBox="0 0 14 14">
			<path fill="currentColor" d="M12.6,7c0,0.2-0.1,0.4-0.2,0.5c-0.1,0.1-0.3,0.2-0.5,0.2H7.7v4.1c0,0.2-0.1,0.4-0.2,0.5
	c-0.1,0.1-0.3,0.2-0.5,0.2s-0.4-0.1-0.5-0.2c-0.1-0.1-0.2-0.3-0.2-0.5V7.7H2.2C2,7.7,1.8,7.7,1.7,7.5C1.5,7.4,1.4,7.2,1.4,7
	c0-0.2,0.1-0.4,0.2-0.5C1.8,6.3,2,6.3,2.2,6.3h4.1V2.2c0-0.2,0.1-0.4,0.2-0.5c0.3-0.3,0.8-0.3,1,0C7.7,1.8,7.7,2,7.7,2.2v4.1h4.1
	c0.2,0,0.4,0.1,0.5,0.2C12.5,6.6,12.6,6.8,12.6,7z"/>
		</symbol>

		<symbol id="gp_icon-star" viewBox="0 0 28 28">
			<path fill="currentColor" d="M20.8,12.4c-0.1-0.2-0.2-0.3-0.3-0.5c-0.2-0.1-0.3-0.2-0.5-0.2l-3.6-0.3L14.9,8c-0.1-0.2-0.2-0.3-0.4-0.4
	c-0.2-0.1-0.3-0.2-0.5-0.2c-0.2,0-0.4,0.1-0.5,0.2c-0.2,0.1-0.3,0.3-0.4,0.4l-1.4,3.4L8,11.7c-0.2,0-0.4,0.1-0.5,0.2
	c-0.2,0.1-0.3,0.3-0.3,0.5c-0.1,0.2-0.1,0.4,0,0.6c0.1,0.2,0.2,0.4,0.3,0.5l2.8,2.4l-0.8,3.6c0,0.2,0,0.4,0,0.6
	c0.1,0.2,0.2,0.3,0.3,0.5c0.2,0.1,0.3,0.2,0.5,0.2c0.2,0,0.4,0,0.5-0.1l3.1-1.9l3.1,1.9c0.2,0.1,0.4,0.1,0.5,0.1
	c0.2,0,0.4-0.1,0.5-0.2c0.2-0.1,0.3-0.3,0.3-0.5c0.1-0.2,0.1-0.4,0-0.6l-0.8-3.6l2.8-2.4c0.1-0.1,0.3-0.3,0.3-0.5
	C20.9,12.7,20.9,12.5,20.8,12.4z M19.9,12.7l-2.8,2.4c-0.1,0.1-0.2,0.3-0.3,0.4c-0.1,0.2-0.1,0.4,0,0.5l0.8,3.6l-3.1-1.9
	c-0.2-0.1-0.3-0.1-0.5-0.1c-0.2,0-0.4,0-0.5,0.1l-3.1,1.9l0.8-3.6c0-0.2,0-0.4,0-0.5c-0.1-0.2-0.2-0.3-0.3-0.4l-2.8-2.4c0,0,0,0,0,0
	l3.7-0.3c0.2,0,0.3-0.1,0.5-0.2c0.1-0.1,0.3-0.2,0.3-0.4L14,8.4l1.4,3.4c0.1,0.2,0.2,0.3,0.3,0.4c0.1,0.1,0.3,0.2,0.5,0.2L19.9,12.7
	C19.9,12.7,19.9,12.7,19.9,12.7L19.9,12.7z"/>
		</symbol>

		<symbol id="gp_icon-help" viewBox="0 0 28 28">
			<path fill="currentColor" d="M14.1,7.4c1.2,0,2.2,0.3,3,1c0.8,0.7,1.1,1.6,1.1,2.8c0,1.3-0.4,2.3-1.2,2.9c-0.8,0.6-1.9,0.9-3.3,0.9l-0.1,1.8
	h-1.5l-0.1-2.9h0.5c1.2,0,2.2-0.2,2.9-0.6c0.7-0.4,1-1.1,1-2.1c0-0.7-0.2-1.3-0.7-1.8c-0.4-0.4-1-0.7-1.8-0.7
	c-0.8,0-1.4,0.2-1.8,0.6c-0.4,0.4-0.7,1-0.7,1.7h-1.6c0-0.7,0.2-1.4,0.5-2c0.3-0.6,0.8-1,1.4-1.3C12.6,7.5,13.3,7.4,14.1,7.4z
	 M13,20.6c-0.3,0-0.6-0.1-0.8-0.3c-0.2-0.2-0.3-0.5-0.3-0.8c0-0.3,0.1-0.6,0.3-0.8c0.2-0.2,0.5-0.3,0.8-0.3c0.3,0,0.6,0.1,0.8,0.3
	c0.2,0.2,0.3,0.5,0.3,0.8c0,0.3-0.1,0.6-0.3,0.8C13.5,20.5,13.3,20.6,13,20.6z"/>
		</symbol>

		<symbol id="gp_icon-chat" viewBox="0 0 28 28">
			<path fill="currentColor" d="M14,20.5c-0.4,0-0.8-0.1-1.1-0.3c-0.3-0.2-0.7-0.4-0.9-0.8c-0.2-0.3-0.4-0.7-0.4-1.1c0-0.2,0-0.4,0-0.6
	c-1.1-0.2-2.2-0.4-3.2-0.8C8.1,16.9,8,16.8,8,16.6c0-0.2,0-0.3,0.1-0.5c0.9-1,1.4-2.3,1.4-3.7V12c0-1.2,0.5-2.3,1.3-3.2
	c0.9-0.9,2-1.3,3.2-1.3c1.2,0,2.3,0.5,3.2,1.3c0.9,0.9,1.3,2,1.3,3.2v0.5c0,1.4,0.5,2.7,1.4,3.7c0.1,0.1,0.2,0.3,0.1,0.5
	c0,0.2-0.2,0.3-0.3,0.3c-1,0.4-2.1,0.7-3.2,0.8c0,0.2,0,0.4,0,0.6c-0.1,0.4-0.2,0.8-0.5,1.1c-0.2,0.3-0.5,0.6-0.9,0.8
	C14.8,20.4,14.4,20.5,14,20.5z M12.5,17.9c0,0.1,0,0.2,0,0.3c0,0.2,0.1,0.5,0.3,0.6c0.1,0.2,0.3,0.3,0.5,0.5c0.4,0.2,0.9,0.2,1.4,0
	c0.2-0.1,0.4-0.3,0.5-0.5c0.1-0.2,0.2-0.4,0.3-0.6c0-0.1,0-0.2,0-0.3C14.5,18,13.5,18,12.5,17.9z M12.2,16.9c1.2,0.1,2.5,0.1,3.7,0
	c0,0,0,0,0,0c1-0.1,1.9-0.3,2.8-0.6c-0.8-1.1-1.2-2.4-1.2-3.8V12c0-0.9-0.4-1.8-1-2.5c-1.3-1.3-3.6-1.3-4.9,0c-0.7,0.7-1,1.5-1,2.5
	v0.5c0,1.4-0.4,2.7-1.2,3.8C10.2,16.6,11.2,16.8,12.2,16.9C12.2,16.9,12.2,16.9,12.2,16.9z M8.1,11.5C8.1,11.5,8,11.5,8.1,11.5
	c-0.4-0.1-0.5-0.3-0.5-0.6c0.2-1.2,0.7-2.3,1.6-3.3c0.2-0.2,0.5-0.2,0.7,0c0.2,0.2,0.2,0.5,0,0.7c-0.7,0.8-1.2,1.7-1.3,2.7
	C8.5,11.3,8.3,11.5,8.1,11.5z M19.9,11.5c-0.2,0-0.5-0.2-0.5-0.4c-0.2-1-0.6-2-1.3-2.7c-0.2-0.2-0.2-0.5,0-0.7
	c0.2-0.2,0.5-0.2,0.7,0c0.8,0.9,1.4,2,1.6,3.3C20.5,11.2,20.3,11.4,19.9,11.5C20,11.5,19.9,11.5,19.9,11.5z"/>
		</symbol>

		<symbol id="gp_icon-search" viewBox="0 0 24 24">
			<path fill="currentColor" d="M21.7,20.3l-3.9-3.9c1.2-1.5,1.9-3.4,1.9-5.5c0-4.9-4-8.9-8.9-8.9S2,6,2,10.9s4,8.9,8.9,8.9
	c2.1,0,4-0.7,5.5-1.9l3.9,3.9c0.2,0.2,0.5,0.3,0.7,0.3s0.5-0.1,0.7-0.3C22.1,21.3,22.1,20.7,21.7,20.3z M4,10.9C4,7.1,7.1,4,10.9,4
	s6.9,3.1,6.9,6.9s-3.1,6.9-6.9,6.9S4,14.7,4,10.9z"/>
		</symbol>

		<symbol id="gp_icon-caret-left" viewBox="0 0 24 24">
			<path fill="currentColor" d="M14.5,15.5c0.3,0.3,0.3,0.8,0,1.1c-0.1,0.1-0.3,0.2-0.5,0.2s-0.4-0.1-0.5-0.2l-4-4c-0.3-0.3-0.3-0.8,0-1.1l4-4
	c0.3-0.3,0.8-0.3,1.1,0s0.3,0.8,0,1.1L11.1,12L14.5,15.5z"/>
		</symbol>

		<symbol id="gp_icon-caret-left-2" viewBox="0 0 24 24">
			<path fill="currentColor" d="M15.7,16.6L11.1,12l4.6-4.6L14.3,6l-6,6l6,6L15.7,16.6z"/>
		</symbol>

		<symbol id="gp_icon-caret-left-3" viewBox="0 0 24 24">
			<path fill="currentColor" d="M15.8,3.8c0.2,0,0.4,0.1,0.5,0.2c0.3,0.3,0.3,0.8,0,1.1l-7,7l7,7c0.3,0.3,0.3,0.8,0,1.1s-0.8,0.3-1.1,0
	l-7.5-7.5c-0.3-0.3-0.3-0.8,0-1.1L15.2,4C15.4,3.8,15.6,3.8,15.8,3.8z"/>
		</symbol>

		<symbol id="gp_icon-caret-right" viewBox="0 0 24 24">
			<path fill="currentColor" d="M9.5,8.5c-0.3-0.3-0.3-0.8,0-1.1C9.6,7.3,9.8,7.2,10,7.2s0.4,0.1,0.5,0.2l4,4c0.3,0.3,0.3,0.8,0,1.1l-4,4
	c-0.3,0.3-0.8,0.3-1.1,0s-0.3-0.8,0-1.1l3.5-3.5L9.5,8.5z"/>
		</symbol>

		<symbol id="gp_icon-caret-right-2" viewBox="0 0 24 24">
			<path fill="currentColor" d="M8.6,7.4l4.6,4.6l-4.6,4.6L10,18l6-6l-6-6L8.6,7.4z"/>
		</symbol>

		<symbol id="gp_icon-caret-right-3" viewBox="0 0 24 24">
			<path fill="currentColor" d="M8.2,20.3c-0.2,0-0.4-0.1-0.5-0.2c-0.3-0.3-0.3-0.8,0-1.1l7-7l-7-7C7.4,4.7,7.4,4.3,7.7,4s0.8-0.3,1.1,0
	l7.5,7.5c0.3,0.3,0.3,0.8,0,1.1L8.8,20C8.6,20.2,8.4,20.3,8.2,20.3z"/>
		</symbol>

		<symbol id="gp_icon-caret-down" viewBox="0 0 24 24">
			<path fill="currentColor" d="M16.59 8.59009L12 13.1701L7.41 8.59009L6 10.0001L12 16.0001L18 10.0001L16.59 8.59009Z"/>
		</symbol>

		<symbol id="gp_icon-home" viewBox="0 0 24 24">
			<path fill="currentColor" d="M18.4,21.9H5.6c-1,0-1.9-0.8-1.9-1.9v-8.3l-1,1C2.5,13,2,13,1.7,12.7s-0.3-0.8,0-1.1l9-9c0.7-0.7,1.9-0.7,2.7,0
	l9,9c0.3,0.3,0.3,0.8,0,1.1s-0.8,0.3-1.1,0l-1-1V20C20.2,21.1,19.4,21.9,18.4,21.9z M16.5,20.4h1.9c0.2,0,0.4-0.2,0.4-0.4v-9.8
	l-6.5-6.5c-0.1-0.1-0.4-0.1-0.5,0l-6.5,6.5V20c0,0.2,0.2,0.4,0.4,0.4H9v-4.1c0-1,0.8-1.9,1.9-1.9h2.2c1,0,1.9,0.8,1.9,1.9v4.1H16.5z
	 M10.5,20.4h3v-4.1c0-0.2-0.2-0.4-0.4-0.4h-2.2c-0.2,0-0.4,0.2-0.4,0.4V20.4z"/>
		</symbol>

		<symbol id="gp_icon-resources" viewBox="0 0 24 24">
			<path fill="currentColor" d="M9.9,22.5c-0.4,0-0.8-0.3-0.8-0.8v-4.1l0,0c-1-0.8-1.8-1.6-2.6-2.6l0,0H2.3c-0.4,0-0.8-0.3-0.8-0.8
	c0-1,0.2-2,0.7-2.9c0.5-0.9,1.2-1.7,2-2.3C5,8.4,5.9,7.9,6.9,7.7c0.8-0.2,1.7-0.2,2.5-0.1c1.4-1.8,3.2-3.3,5.3-4.4
	c2.2-1.1,4.7-1.7,7.1-1.7l0,0c0.4,0,0.7,0.3,0.7,0.7c0,2.5-0.6,4.9-1.7,7.1c-1,2.1-2.6,3.9-4.4,5.3c0.1,0.8,0.1,1.7-0.1,2.5
	c-0.2,1-0.7,1.9-1.3,2.7c-0.6,0.8-1.4,1.4-2.4,1.9C11.9,22.3,10.9,22.5,9.9,22.5z M10.6,17.6V21c0.5-0.1,1.1-0.2,1.5-0.5
	c0.7-0.3,1.3-0.9,1.8-1.5s0.8-1.4,1-2.1c0.1-0.4,0.1-0.8,0.1-1.2C13.7,16.5,12.2,17.2,10.6,17.6z M7.9,14.4c0.6,0.7,1.2,1.3,1.8,1.8
	c2-0.4,3.8-1.2,5.5-2.4l0,0c1.8-1.3,3.3-3.1,4.3-5C20.5,6.9,21,5,21.1,3c-2,0.1-3.9,0.6-5.7,1.5c-2,1-3.7,2.5-5,4.3l0,0
	C9.1,10.5,8.3,12.4,7.9,14.4z M3.2,13.5h3.4c0.4-1.6,1-3.1,1.9-4.5C8,9,7.6,9,7.2,9.1c-0.8,0.2-1.5,0.5-2.1,1
	C4.5,10.6,4,11.3,3.6,12C3.4,12.4,3.2,13,3.2,13.5z M3.9,21.8c-0.3,0-0.5,0-0.8-0.1s-0.6-0.3-0.6-0.6c-0.1-0.9,0-1.9,0.3-2.8
	s1-1.7,1.7-2.2c0.3-0.2,0.8-0.2,1,0.2c0.2,0.3,0.2,0.8-0.2,1c-0.5,0.4-1,1-1.2,1.6c-0.2,0.5-0.3,0.9-0.3,1.4l0,0
	c0.5,0,1-0.1,1.4-0.3c0.6-0.3,1.2-0.7,1.6-1.2c0.2-0.3,0.7-0.4,1-0.2c0.3,0.2,0.4,0.7,0.2,1c-0.6,0.8-1.3,1.4-2.2,1.7
	C5.2,21.6,4.5,21.8,3.9,21.8z M15.1,11.3c-0.6,0-1.2-0.2-1.6-0.7s-0.7-1-0.7-1.6c0-0.6,0.2-1.2,0.7-1.6c0.8-0.8,2.3-0.8,3.2,0
	c0.4,0.4,0.7,1,0.7,1.6c0,0.6-0.2,1.2-0.7,1.6S15.7,11.3,15.1,11.3z M15.1,8.3c-0.2,0-0.4,0.1-0.5,0.2c-0.1,0.1-0.2,0.3-0.2,0.5
	s0.1,0.4,0.2,0.5c0.3,0.3,0.8,0.3,1.1,0c0.1-0.1,0.2-0.3,0.2-0.5s-0.1-0.4-0.2-0.5C15.5,8.3,15.3,8.3,15.1,8.3z"/>
		</symbol>

		<symbol id="gp_icon-product" viewBox="0 0 24 24">
			<path fill="currentColor" d="M13.6,23.8h-3.2c-1,0-1.9-0.7-2.1-1.8L8,20.4c0-0.2-0.2-0.4-0.4-0.5c-0.1-0.1-0.2-0.1-0.3-0.2
	c-0.2-0.1-0.5-0.2-0.7-0.1l-1.5,0.6c-0.5,0.2-1,0.2-1.5,0s-0.9-0.5-1.1-0.9l-1.6-2.8c-0.3-0.4-0.3-0.9-0.3-1.4
	c0.1-0.5,0.4-0.9,0.7-1.3l1.2-1c0.2-0.1,0.3-0.4,0.3-0.6c0-0.1,0-0.2,0-0.3c0-0.3-0.1-0.5-0.3-0.6l-1.2-1C1.1,9.9,0.9,9.4,0.8,8.9
	s0-1,0.2-1.4l1.6-2.8C2.9,4.3,3.3,4,3.7,3.8c0.5-0.2,1-0.2,1.5,0l1.5,0.6c0.2,0.1,0.4,0,0.7-0.1c0-0.1,0.1-0.1,0.2-0.2
	C7.9,4,8,3.8,8.1,3.6L8.3,2c0.2-1,1.1-1.8,2.1-1.8h3.2c1,0,1.9,0.7,2.1,1.8L16,3.6c0,0.2,0.2,0.4,0.4,0.5c0.1,0.1,0.2,0.1,0.3,0.2
	c0.2,0.1,0.5,0.2,0.7,0.1l1.5-0.6c0.5-0.2,1-0.2,1.5,0c0.5,0.2,0.9,0.5,1.1,0.9l1.6,2.8c0.3,0.4,0.3,0.9,0.3,1.4
	c-0.1,0.5-0.4,0.9-0.7,1.3l-1.2,1c-0.2,0.1-0.3,0.4-0.3,0.6c0,0.1,0,0.2,0,0.3c0,0.3,0.1,0.5,0.3,0.6l1.2,1c0.8,0.7,1,1.8,0.5,2.7
	l-1.6,2.8c-0.2,0.4-0.6,0.8-1.1,0.9c-0.5,0.2-1,0.2-1.5,0l-1.5-0.6c-0.2-0.1-0.4,0-0.7,0.1c-0.1,0.1-0.2,0.1-0.3,0.2
	c-0.2,0.1-0.4,0.3-0.4,0.5L15.7,22C15.5,23,14.6,23.8,13.6,23.8z M6.9,18.1c0.4,0,0.8,0.1,1.2,0.3c0.1,0,0.2,0.1,0.2,0.1
	c0.6,0.4,1.1,0.9,1.2,1.6l0.3,1.6c0.1,0.3,0.3,0.5,0.6,0.5h3.2c0.3,0,0.6-0.2,0.6-0.5l0.3-1.6c0.1-0.7,0.5-1.2,1.2-1.6
	c0.1,0,0.2-0.1,0.2-0.1c0.6-0.4,1.3-0.5,2-0.2l1.5,0.6c0.1,0.1,0.3,0.1,0.4,0c0.1,0,0.3-0.1,0.3-0.3l1.6-2.8
	c0.2-0.3,0.1-0.6-0.1-0.8l-1.2-1c-0.5-0.4-0.8-1.1-0.8-1.8c0-0.1,0-0.2,0-0.3c0-0.7,0.3-1.4,0.8-1.8l1.1-1c0.1-0.1,0.2-0.2,0.2-0.4
	c0-0.1,0-0.3-0.1-0.4L20,5.4c-0.1-0.1-0.2-0.2-0.3-0.3c-0.1-0.1-0.3,0-0.4,0l-1.5,0.6c-0.6,0.2-1.3,0.2-2-0.2
	c-0.1,0-0.2-0.1-0.2-0.1C15,5,14.5,4.5,14.4,3.8l-0.3-1.6c0-0.3-0.3-0.5-0.6-0.5h-3.2c-0.3,0-0.6,0.2-0.6,0.5l0,0L9.5,3.8
	C9.4,4.5,9,5.1,8.4,5.4L8.1,5.6C7.5,5.9,6.8,6,6.2,5.8L4.7,5.2c-0.2,0-0.3,0-0.5,0c-0.1,0-0.3,0.1-0.3,0.3L2.3,8.2
	C2.2,8.4,2.2,8.5,2.2,8.7C2.3,8.8,2.3,8.9,2.5,9l1.2,1c0.5,0.5,0.8,1.1,0.8,1.9c0,0.1,0,0.1,0,0.2c0,0.7-0.3,1.4-0.8,1.8L2.5,15
	c-0.1,0.1-0.2,0.2-0.2,0.4c0,0.1,0,0.3,0.1,0.4L4,18.6c0.1,0.1,0.2,0.2,0.3,0.3c0.1,0,0.3,0,0.4,0l1.5-0.6
	C6.4,18.1,6.7,18.1,6.9,18.1z M9.1,2.1L9.1,2.1L9.1,2.1z M12.3,17.4L12.3,17.4L12.3,17.4h-0.1h-0.1l0,0l-4.4-2.6
	c-0.2-0.1-0.2-0.3-0.2-0.4V9.9l0,0V9.8l0,0l0,0V9.7c0,0,0-0.1,0.1-0.1l0.1-0.1l0,0l4.4-2.6c0.2-0.1,0.3-0.1,0.5,0L17,9.5l0,0
	c0,0,0.1,0,0.1,0.1s0.1,0.1,0.1,0.1v0.1l0,0l0,0v0.1l0,0v4.4c0,0.2-0.1,0.3-0.2,0.4l-4.5,2.6l0,0h-0.1
	C12.3,17.4,12.3,17.4,12.3,17.4z M12.8,12.8V16l3.4-2v-3.3L12.8,12.8z M8.3,14l3.4,2v-3.3l-3.4-2C8.3,10.7,8.3,14,8.3,14z M8.8,9.9
	l3.4,2l3.4-2l-3.4-2L8.8,9.9z"/>
		</symbol>

		<symbol id="gp_icon-support" viewBox="0 0 24 24">
			<path fill="currentColor" d="M20.6,9.4c-0.1-2.2-1-4.3-2.6-5.9c-1.6-1.6-3.7-2.4-6-2.4C9.8,1.1,7.6,2,6,3.5S3.5,7.1,3.4,9.4
	c-1.6,0.4-2.5,1.8-2.5,4.1c0,2.7,1.2,4.2,3.3,4.2c0.2,0,0.4-0.1,0.6-0.2c0.2-0.2,0.3-0.4,0.3-0.6V9.7c0-0.9,0.2-1.8,0.5-2.6
	s0.9-1.6,1.5-2.2c0.7-0.8,1.4-1.3,2.3-1.6C10.2,3,11.1,2.8,12,2.8c0.9,0,1.8,0.2,2.6,0.5s1.6,0.9,2.2,1.5c0.6,0.6,1.1,1.4,1.5,2.2
	c0.3,0.8,0.5,1.7,0.5,2.6l0.1,7.6c0,1.9-1.8,2.9-5.4,3c-0.2-0.3-0.5-0.6-0.9-0.8c-0.4-0.1-0.8-0.2-1.2,0c-0.4,0.1-0.7,0.4-1,0.7
	c-0.2,0.3-0.3,0.7-0.3,1.1s0.2,0.8,0.5,1.1c0.3,0.3,0.6,0.5,1,0.6s0.8,0,1.2-0.2s0.7-0.5,0.8-0.9c5.5-0.2,6.9-2.4,7-4.4
	c1.6-0.4,2.5-1.8,2.5-4.1C23.1,11.2,22.2,9.7,20.6,9.4z"/>
		</symbol>

		<symbol id="gp_icon-upcoming" viewBox="0 0 24 24">
			<path fill="currentColor" d="M18.1,3.2H17V2.4c0-0.4-0.3-0.7-0.7-0.7c-0.4,0-0.7,0.3-0.7,0.7v0.7H7.4V2.4c0-0.4-0.3-0.7-0.7-0.7
	C6.3,1.7,6,2,6,2.4v0.7H4.9C2.8,3.2,1.2,4.8,1.2,6.8v11.8c0,2,1.6,3.7,3.7,3.7h13.2c2,0,3.7-1.6,3.7-3.7V6.8
	C21.8,4.8,20.1,3.2,18.1,3.2L18.1,3.2z M2.7,6.8c0-1.2,1-2.2,2.2-2.2H6v0.7C6,5.7,6.3,6,6.7,6c0.4,0,0.7-0.3,0.7-0.7V4.6h8.1v0.7
	c0,0.4,0.3,0.7,0.7,0.7c0.4,0,0.7-0.3,0.7-0.7V4.6H18c1.2,0,2.2,1,2.2,2.2v0.8H2.7V6.8L2.7,6.8z M18.1,20.8H4.9
	c-1.2,0-2.2-1-2.2-2.2V9h17.6v9.6C20.3,19.8,19.3,20.8,18.1,20.8z M14.9,12.6l-1.2-0.2c0,0-0.1,0-0.1-0.1l-0.5-1.1
	c-0.3-0.6-0.8-0.9-1.5-0.9s-1.2,0.4-1.5,0.9l-0.5,1.1l-0.1,0.1l-1.4,0.2c-0.6,0.1-1.1,0.5-1.3,1.1c-0.2,0.6,0,1.2,0.4,1.7l0.9,0.8
	c0,0,0.1,0.1,0,0.2l-0.2,1.2c-0.1,0.6,0.1,1.2,0.7,1.6c0.3,0.2,0.6,0.3,1,0.3c0.3,0,0.5-0.1,0.8-0.2l1.1-0.6c0,0,0.1,0,0.2,0
	l1.1,0.6c0.6,0.3,1.2,0.2,1.7-0.1c0.5-0.4,0.8-1,0.7-1.6L15,16.4c0,0,0-0.1,0-0.2l0.9-0.8c0.4-0.4,0.6-1.1,0.4-1.7
	C16,13.1,15.5,12.7,14.9,12.6L14.9,12.6z M13.9,15.2c-0.4,0.4-0.6,0.9-0.5,1.5l0.2,1.2c0,0.1,0,0.1-0.1,0.2c0,0-0.1,0.1-0.2,0
	l-1.1-0.6c-0.5-0.3-1.1-0.3-1.5,0l-1.1,0.6c-0.1,0-0.1,0-0.2,0c0,0-0.1-0.1-0.1-0.2l0.2-1.2c0.1-0.5-0.1-1.1-0.5-1.5l-0.8-0.8
	c0-0.1,0-0.2,0-0.2s0-0.1,0.1-0.1l1.2-0.2c0.5-0.1,1-0.4,1.2-0.9l0.5-1.1c0-0.1,0.1-0.1,0.2-0.1c0,0,0.1,0,0.2,0.1l0.5,1.1
	c0.2,0.5,0.7,0.8,1.2,0.9l1.2,0.2c0.1,0,0.1,0.1,0.1,0.1s0,0.1,0,0.2L13.9,15.2L13.9,15.2z"/>
		</symbol>

		<symbol id="gp_icon-upcoming-2" viewBox="0 0 24 24">
			<path fill="currentColor" d="M4,18.8c0,0.3,0.1,0.6,0.4,0.9C4.6,19.9,4.9,20,5.2,20h13.3c0.3,0,0.6-0.1,0.9-0.4c0.2-0.2,0.4-0.5,0.4-0.9V9.7
	H4V18.8z M8.4,13.6c0-0.1,0.1-0.2,0.1-0.2c0.1-0.1,0.1-0.1,0.2-0.1l1.6-0.2c0.1,0,0.2,0,0.2-0.1c0.1,0,0.1-0.1,0.1-0.2l0.7-1.5
	c0-0.1,0.1-0.1,0.2-0.2c0.1,0,0.2-0.1,0.3-0.1c0.1,0,0.2,0,0.3,0.1c0.1,0,0.1,0.1,0.2,0.2l0.7,1.5c0,0.1,0.1,0.1,0.2,0.2
	c0.1,0,0.1,0.1,0.2,0.1l1.6,0.2c0.1,0,0.2,0.1,0.2,0.1s0.1,0.1,0.1,0.2c0,0.1,0,0.2,0,0.3c0,0.1-0.1,0.2-0.1,0.2l-1.2,1.2
	c-0.1,0.1-0.1,0.1-0.1,0.2c0,0.1,0,0.2,0,0.2l0.3,1.6c0,0.1,0,0.2,0,0.2c0,0.1-0.1,0.1-0.2,0.2c-0.1,0.1-0.1,0.1-0.2,0.1
	c-0.1,0-0.2,0-0.2,0L12.2,17C12.1,17,12,17,11.9,17c-0.1,0-0.2,0-0.2,0.1l-1.5,0.8c-0.1,0-0.2,0.1-0.3,0.1c-0.1,0-0.2,0-0.2-0.1
	c-0.1-0.1-0.1-0.1-0.2-0.2c0-0.1,0-0.2,0-0.3l0.3-1.6c0-0.1,0-0.2,0-0.2c0-0.1-0.1-0.1-0.1-0.2L8.5,14c-0.1-0.1-0.1-0.1-0.1-0.2
	S8.4,13.7,8.4,13.6z M19.7,7.3v1.2H4V7.3C4,7,4.2,6.7,4.4,6.5c0.2-0.2,0.5-0.4,0.9-0.4h1.8V4.3c0-0.2,0.1-0.3,0.2-0.4
	c0.1-0.1,0.3-0.2,0.4-0.2c0.2,0,0.3,0.1,0.4,0.2C8.2,4,8.3,4.1,8.3,4.3v1.8h7.2V4.3c0-0.2,0.1-0.3,0.2-0.4c0.1-0.1,0.3-0.2,0.4-0.2
	c0.2,0,0.3,0.1,0.4,0.2c0.1,0.1,0.2,0.3,0.2,0.4v1.8h1.8c0.3,0,0.6,0.1,0.9,0.4C19.6,6.7,19.7,7,19.7,7.3z"/>
		</symbol>

		<symbol id="gp_icon-time" viewBox="0 0 24 24">
			<path fill="currentColor" d="M23.4,13c-0.2,2.2-1,4.2-2.3,5.9s-3.1,3-5.1,3.8c-2,0.7-4.2,0.9-6.4,0.4c-2.2-0.4-4.1-1.4-5.6-3
	c-1.5-1.5-2.6-3.5-3.1-5.6s-0.3-4.3,0.4-6.4C2,6.1,3.4,4.3,5.1,3S8.9,0.9,11,0.7c0.1,0,0.2,0,0.3,0s0.2,0.1,0.3,0.2s0.2,0.2,0.2,0.3
	C11.9,1.3,12,1.4,12,1.5s0,0.2,0,0.3s-0.2,0.3-0.2,0.4c-0.1,0.1-0.2,0.2-0.3,0.2c-0.1,0.1-0.2,0.1-0.3,0.1c-1.8,0.2-3.6,0.8-5,1.9
	C4.7,5.5,3.6,7,2.9,8.8c-0.6,1.7-0.8,3.6-0.4,5.4s1.3,3.4,2.6,4.7s2.9,2.2,4.7,2.6s3.7,0.3,5.4-0.4c1.7-0.6,3.2-1.7,4.3-3.2
	s1.8-3.2,1.9-5c0-0.2,0.1-0.4,0.3-0.6c0.2-0.2,0.4-0.2,0.6-0.2s0.4,0.1,0.6,0.3C23.3,12.6,23.4,12.8,23.4,13z M11.1,6v6.1
	c0,0.2,0.1,0.5,0.3,0.6c0.2,0.2,0.4,0.3,0.6,0.3h6.1c0.2,0,0.5-0.1,0.6-0.3c0.2-0.2,0.3-0.4,0.3-0.6s-0.1-0.5-0.3-0.6
	c-0.2-0.2-0.4-0.3-0.6-0.3h-5.3V6c0-0.2-0.1-0.5-0.3-0.6c-0.1-0.2-0.3-0.3-0.5-0.3s-0.5,0.1-0.6,0.3C11.2,5.5,11.1,5.7,11.1,6z
	 M15.5,3.4c0.3,0,0.5-0.1,0.7-0.2c0.2-0.1,0.4-0.3,0.5-0.6c0.1-0.2,0.1-0.5,0.1-0.8c-0.1-0.3-0.2-0.5-0.4-0.7
	c-0.2-0.2-0.4-0.3-0.7-0.4s-0.5,0-0.8,0.1c-0.2,0.1-0.4,0.3-0.6,0.5c-0.1,0.2-0.2,0.5-0.2,0.7c0,0.3,0.1,0.7,0.4,0.9
	C14.8,3.2,15.1,3.4,15.5,3.4z M19.4,6c0.3,0,0.5-0.1,0.7-0.2s0.4-0.3,0.5-0.6c0.1-0.2,0.1-0.5,0.1-0.8c-0.1-0.3-0.2-0.5-0.4-0.7
	c-0.2-0.2-0.4-0.3-0.7-0.4c-0.3-0.1-0.5,0-0.8,0.1s-0.4,0.3-0.6,0.5C18.1,4.1,18,4.4,18,4.6c0,0.3,0.1,0.7,0.4,0.9S19.1,6,19.4,6z
	 M22,9.9c0.3,0,0.5-0.1,0.7-0.2c0.3-0.2,0.5-0.4,0.6-0.6c0.1-0.2,0.1-0.5,0.1-0.8c-0.1-0.2-0.2-0.4-0.4-0.6
	c-0.2-0.2-0.4-0.3-0.7-0.4c-0.3-0.1-0.5,0-0.8,0.1c-0.2,0.1-0.4,0.3-0.6,0.5c-0.1,0.2-0.2,0.5-0.2,0.7c0,0.3,0.1,0.7,0.4,0.9
	C21.4,9.8,21.7,9.9,22,9.9z"/>
		</symbol>

		<symbol id="gp_icon-favourite" viewBox="0 0 24 24">
			<path fill="currentColor" d="M5.5,23.5C5.4,23.5,5.4,23.5,5.5,23.5c-0.3,0-0.6-0.1-0.8-0.3c-0.2-0.2-0.4-0.4-0.5-0.6c-0.1-0.3-0.1-0.5,0-0.8
	l1.6-6.6l-5.2-4.4c-0.3-0.3-0.5-0.6-0.5-0.8C0,9.7,0,9.4,0.1,9.2c0.1-0.3,0.2-0.5,0.4-0.7C0.8,8.3,1,8.2,1.3,8.2l6.8-0.5l2.6-6.3
	c0.1-0.3,0.3-0.5,0.5-0.6c0.5-0.3,1.1-0.3,1.6,0C13,1,13.2,1.2,13.3,1.4l2.6,6.3l6.8,0.5c0.6,0,1,0.4,1.2,1c0.2,0.5,0,1.1-0.4,1.5
	l-5.2,4.4l1.6,6.6c0.1,0.3,0,0.6,0,0.8c-0.1,0.3-0.3,0.5-0.5,0.7s-0.5,0.3-0.8,0.3s-0.5-0.1-0.8-0.2L12,19.7l-5.8,3.6
	C6,23.4,5.7,23.5,5.5,23.5z M12,1.9L9.4,8.2C9.3,8.4,9.1,8.7,8.9,8.8C8.7,9,8.5,9.1,8.2,9.1L1.4,9.6L6.6,14c0.2,0.2,0.3,0.4,0.4,0.6
	c0.1,0.2,0.1,0.5,0,0.8L5.4,22l5.8-3.6c0.4-0.3,1-0.3,1.5,0l5.8,3.6l-1.6-6.6c-0.1-0.3,0-0.5,0-0.8c0.1-0.3,0.2-0.5,0.4-0.6l5.2-4.4
	l-6.8-0.5c-0.3,0-0.5-0.1-0.7-0.3s-0.4-0.4-0.5-0.6L12,1.9z M17.9,14.6L17.9,14.6L17.9,14.6z"/>
		</symbol>

		<symbol id="gp_icon-arrow-next" viewBox="0 0 12 12">
			<path fill="currentColor" d="M10.5,5.9c0,0,0-0.1-0.1-0.1L7,2.4C6.9,2.3,6.8,2.2,6.8,2.2s-0.2,0-0.3,0.1S6.4,2.5,6.4,2.6
	c0,0.1,0,0.2,0.1,0.3l2.7,2.7H1.9c-0.1,0-0.2,0-0.3,0.1C1.5,5.8,1.5,5.9,1.5,6c0,0.1,0,0.2,0.1,0.3c0.1,0.1,0.2,0.1,0.3,0.1h7.3
	L6.5,9.1C6.4,9.2,6.4,9.3,6.4,9.4c0,0.1,0,0.2,0.1,0.3s0.2,0.1,0.3,0.1s0.2,0,0.3-0.1l3.4-3.4c0,0,0.1-0.1,0.1-0.1c0,0,0-0.1,0-0.1
	C10.5,6,10.5,5.9,10.5,5.9z"/>
		</symbol>

		<symbol id="gp_icon-chat-2" viewBox="0 0 42 42">
			<path fill="currentColor" d="M10.5,39c-0.2,0-0.4,0-0.5-0.1C9.4,38.7,9,38.1,9,37.6v-8.2c-0.7-0.1-1.5-0.2-2.3-0.3C2.9,28.6,0,25.2,0,21.2
	V8.7c0-4,2.9-7.4,6.8-7.9C11,0.3,15.2,0,19.5,0c0,0,0,0,0,0c4.2,0,8.5,0.3,12.7,0.8C36.1,1.3,39,4.7,39,8.7v2.8c1.8,1,3,3,3,5.1v8.6
	c0,3.1-2.3,5.6-5.3,5.8c-0.2,0-0.5,0-0.7,0.1v4.9c0,0.6-0.3,1.1-0.9,1.3c-0.5,0.2-1.1,0.1-1.6-0.3l-5.6-5.6c-2.5,0-5.1-0.1-7.6-0.3
	c-0.4,0-0.8-0.1-1.2-0.2l-7.7,7.7C11.2,38.8,10.8,39,10.5,39z M19.5,2.9C19.5,2.9,19.5,2.9,19.5,2.9c-4.1,0-8.3,0.3-12.4,0.8
	C4.7,4,2.9,6.1,2.9,8.7v12.5c0,2.6,1.8,4.8,4.3,5.1c1.1,0.1,2.3,0.3,3.4,0.4c0.7,0.1,1.3,0.7,1.3,1.4v6l4.8-4.8
	c-1-1.1-1.6-2.5-1.6-4v-8.6c0-3.1,2.3-5.6,5.3-5.8c5.2-0.4,10.6-0.5,15.8,0V8.7c0-2.6-1.8-4.8-4.3-5.1C27.8,3.1,23.6,2.9,19.5,2.9z
	 M19.5,28c0.3,0.2,0.7,0.3,1.1,0.3c2.6,0.2,5.3,0.3,8,0.3c0.4,0,0.7,0.2,1,0.4l3.6,3.6v-2.8c0-0.8,0.6-1.4,1.3-1.4
	c0.7,0,1.3-0.1,2-0.1c1.5-0.1,2.7-1.4,2.7-3v-8.6c0-1.3-0.8-2.4-2-2.8c0,0,0,0-0.1,0c-0.2-0.1-0.4-0.1-0.6-0.1
	c-5.3-0.4-10.6-0.4-15.9,0c-1.5,0.1-2.7,1.4-2.7,3v8.6C17.9,26.4,18.5,27.4,19.5,28C19.5,28,19.5,28,19.5,28z"/>
		</symbol>

		<symbol id="gp_icon-review" viewBox="0 0 42 42">
			<path fill="currentColor" d="M21,39c-0.5,0-0.9-0.2-1.2-0.6l-5.5-8.3c-0.1-0.2-0.4-0.4-0.7-0.4c-2.3-0.2-4.7-0.4-7-0.8C2.8,28.3,0,25,0,21
	V8.9c0-4,2.8-7.3,6.7-7.9c4.7-0.7,9.5-1,14.3-1c0,0,0,0,0,0c4.8,0,9.6,0.4,14.3,1C39.2,1.6,42,4.9,42,8.9V21c0,4-2.8,7.3-6.7,7.9
	c-2.3,0.3-4.6,0.6-7,0.8c-0.1,0-0.3,0-0.4,0.1c-0.1,0.1-0.2,0.2-0.3,0.3l-5.5,8.3C21.9,38.7,21.5,39,21,39z M21,2.9
	C21,2.9,21,2.9,21,2.9c-4.7,0-9.4,0.3-14,1C4.6,4.2,2.9,6.4,2.9,8.9V21c0,2.6,1.8,4.7,4.2,5.1c2.2,0.3,4.5,0.6,6.8,0.7
	c1.1,0.1,2.2,0.7,2.8,1.6L21,35l4.3-6.5c0.3-0.5,0.7-0.9,1.2-1.1c0.5-0.3,1-0.4,1.6-0.5c2.3-0.2,4.5-0.4,6.8-0.7
	c2.4-0.4,4.2-2.5,4.2-5.1V8.9c0-2.6-1.8-4.7-4.2-5.1C30.3,3.2,25.7,2.9,21,2.9z M21,19.4h-9c-0.8,0-1.4-0.6-1.4-1.4s0.6-1.4,1.4-1.4
	h9c0.8,0,1.4,0.6,1.4,1.4S21.8,19.4,21,19.4z M30,13.4H12c-0.8,0-1.4-0.6-1.4-1.4s0.6-1.4,1.4-1.4H30c0.8,0,1.4,0.6,1.4,1.4
	S30.8,13.4,30,13.4z"/>
		</symbol>

		<symbol id="gp_icon-seasonality" viewBox="0 0 42 42">
			<path fill="currentColor" d="M21,39.6c-0.2,0-0.5-0.1-0.7-0.2L3.2,30.2c-0.5-0.3-0.8-0.8-0.8-1.3s0.3-1.1,0.8-1.3l4.9-2.6l-4.9-2.6
	c-0.5-0.3-0.8-0.8-0.8-1.3s0.3-1.1,0.8-1.3l4.9-2.6l-4.9-2.6c-0.5-0.3-0.8-0.8-0.8-1.3s0.3-1.1,0.8-1.3l17.1-9.2
	c0.4-0.2,1-0.2,1.4,0l17.1,9.2c0.5,0.3,0.8,0.8,0.8,1.3s-0.3,1.1-0.8,1.3l-4.9,2.6l4.9,2.6c0.5,0.3,0.8,0.8,0.8,1.3
	s-0.3,1.1-0.8,1.3l-4.9,2.6l4.9,2.6c0.5,0.3,0.8,0.8,0.8,1.3s-0.3,1.1-0.8,1.3l-17.1,9.2C21.5,39.5,21.2,39.6,21,39.6z M7.1,28.9
	L21,36.4l13.9-7.5l-4.1-2.2l-9,4.9c-0.4,0.2-1,0.2-1.4,0l-9-4.9L7.1,28.9z M12,23.6l9,4.9l9-4.9c0,0,0,0,0,0l4.8-2.6l-4.1-2.2
	l-9,4.9c-0.4,0.2-1,0.2-1.4,0l-9-4.9L7.1,21L12,23.6C12,23.6,12,23.6,12,23.6z M12,15.8l9,4.9l9-4.9c0,0,0,0,0,0l4.8-2.6L21,5.6
	L7.1,13.1L12,15.8C12,15.7,12,15.7,12,15.8z"/>
		</symbol>

		<symbol id="gp_icon-ppt" viewBox="0 0 42 42">
			<path fill="currentColor" d="M39.1,11.8L29.4,1.7c-0.3-0.3-0.6-0.4-1-0.4H14c-2,0-3.6,1.6-3.6,3.6v9.5H5.2c-1.6,0-2.9,1.3-2.9,2.9v11
	c0,1.6,1.3,2.9,2.9,2.9h5.1v5.9c0,2,1.6,3.6,3.6,3.6h21.9c2,0,3.6-1.6,3.6-3.6V12.8C39.5,12.4,39.4,12.1,39.1,11.8z M29.3,11.5V5.7
	l5.6,5.8H29.3z M13.2,31.2h11.7c1.6,0,2.9-1.3,2.9-2.9v-11c0-1.6-1.3-2.9-2.9-2.9H13.2V4.9c0-0.4,0.3-0.8,0.8-0.8h12.4V13
	c0,0.8,0.6,1.4,1.4,1.4h8.8v22.7c0,0.4-0.3,0.8-0.8,0.8H14c-0.4,0-0.8-0.3-0.8-0.8V31.2z M25,17.3l0,11H5.2l0,0l0-11L25,17.3z
	 M20.4,20.9h-1.9v-1.1h5v1.1h-1.9v5.2h-1.3V20.9z M14.4,23.7h0.8c0.6,0,1,0,1.3-0.1c0.2,0,0.4-0.1,0.7-0.3c0.2-0.1,0.4-0.4,0.5-0.6
	c0.1-0.3,0.2-0.6,0.2-1c0-0.5-0.1-0.9-0.4-1.2c-0.2-0.3-0.5-0.5-0.9-0.6c-0.2-0.1-0.7-0.1-1.5-0.1h-2v6.3h1.3V23.7z M14.4,20.9H15
	c0.5,0,0.8,0,0.9,0c0.2,0,0.4,0.1,0.5,0.3c0.1,0.1,0.2,0.3,0.2,0.6c0,0.2,0,0.3-0.1,0.5c-0.1,0.1-0.2,0.2-0.4,0.3
	c-0.2,0.1-0.5,0.1-1,0.1h-0.7V20.9z M8.6,23.7h0.8c0.6,0,1,0,1.3-0.1c0.2,0,0.4-0.1,0.7-0.3c0.2-0.1,0.4-0.4,0.5-0.6
	c0.1-0.3,0.2-0.6,0.2-1c0-0.5-0.1-0.9-0.4-1.2c-0.2-0.3-0.5-0.5-0.9-0.6c-0.2-0.1-0.7-0.1-1.5-0.1h-2v6.3h1.3V23.7z M8.6,20.9h0.6
	c0.5,0,0.8,0,0.9,0c0.2,0,0.4,0.1,0.5,0.3c0.1,0.1,0.2,0.3,0.2,0.6c0,0.2,0,0.3-0.1,0.5c-0.1,0.1-0.2,0.2-0.4,0.3
	c-0.2,0.1-0.5,0.1-1,0.1H8.6V20.9z"/>
		</symbol>

		<symbol id="gp_icon-webinar" viewBox="0 0 42 42">
			<path fill="currentColor" d="M28.9,38.2H13.1c-0.6,0-1.2-0.4-1.4-0.9c-0.2-0.6-0.1-1.2,0.3-1.6l1.1-1.1c0.4-0.3,0.6-0.8,0.8-1.2
	c0.2-0.5,0.3-0.9,0.3-1.4v-0.3H9.2c-1.5,0-2.8-0.6-3.8-1.6c-1-1-1.6-2.4-1.6-3.8V9.2c0-1.5,0.6-2.8,1.6-3.8c1-1,2.4-1.6,3.8-1.6
	h23.6c1.5,0,2.8,0.6,3.8,1.6c1,1,1.6,2.4,1.6,3.8v17.1c0,1.4-0.6,2.8-1.6,3.8c-1,1-2.4,1.6-3.8,1.6h-5.1v0.3c0,0.5,0.1,1,0.3,1.4
	c0.2,0.5,0.5,0.9,0.8,1.2l1.1,1.1c0.4,0.4,0.6,1.1,0.3,1.6S29.5,38.2,28.9,38.2z M16.4,35.2h9.2c-0.1-0.2-0.2-0.5-0.3-0.7
	c-0.3-0.8-0.5-1.7-0.5-2.6v-0.3h-7.5v0.3c0,0.9-0.2,1.8-0.5,2.6C16.6,34.8,16.5,35,16.4,35.2z M6.8,25.9v0.4c0,0.6,0.3,1.3,0.7,1.7
	c0.5,0.5,1.1,0.7,1.7,0.7h23.6c0.6,0,1.3-0.3,1.7-0.7s0.7-1.1,0.7-1.7v-0.4c-0.8,0.4-1.6,0.6-2.4,0.6H9.2
	C8.3,26.4,7.5,26.2,6.8,25.9z M6.8,21c0,0.6,0.3,1.3,0.7,1.7c0.5,0.5,1.1,0.7,1.7,0.7h23.6c0.6,0,1.3-0.3,1.7-0.7s0.7-1.1,0.7-1.7
	V9.2c0-0.7-0.3-1.3-0.7-1.7c-0.5-0.5-1.1-0.7-1.7-0.7H9.2C8.5,6.8,7.9,7,7.5,7.5C7,7.9,6.8,8.5,6.8,9.2V21z"/>
		</symbol>

		<symbol id="gp_icon-expand" viewBox="0 0 24 24">
			<path fill="currentColor" d="M17.2,10.5c0,0.2-0.1,0.4-0.2,0.5c-0.1,0.1-0.3,0.2-0.5,0.2h-6c-0.2,0-0.4-0.1-0.5-0.2
	c-0.1-0.1-0.2-0.3-0.2-0.5S9.8,10.1,10,10c0.1-0.1,0.3-0.2,0.5-0.2h6c0.2,0,0.4,0.1,0.5,0.2C17.2,10.1,17.2,10.3,17.2,10.5z
	 M16.5,12.8h-6c-0.2,0-0.4,0.1-0.5,0.2c-0.1,0.1-0.2,0.3-0.2,0.5S9.8,13.9,10,14c0.1,0.1,0.3,0.2,0.5,0.2h6c0.2,0,0.4-0.1,0.5-0.2
	c0.1-0.1,0.2-0.3,0.2-0.5S17.2,13.1,17,13C16.9,12.8,16.7,12.8,16.5,12.8z M21,4.5v15c0,0.4-0.2,0.8-0.4,1.1S19.9,21,19.5,21h-15
	c-0.4,0-0.8-0.2-1.1-0.4S3,19.9,3,19.5v-15c0-0.4,0.2-0.8,0.4-1.1S4.1,3,4.5,3h15c0.4,0,0.8,0.2,1.1,0.4S21,4.1,21,4.5z M4.5,19.5
	h2.2v-15H4.5V19.5z M19.5,19.5v-15H8.2v15H19.5z"/>
		</symbol>

		<symbol id="gp_icon-zoom-out" viewBox="0 0 24 24">
			<path fill="currentColor" d="M21,21.8c-0.2,0-0.4-0.1-0.5-0.2l-4.7-4.7c-1.5,1.2-3.3,1.9-5.3,1.9c-2.2,0-4.3-0.9-5.8-2.4
	c-1.6-1.6-2.4-3.6-2.4-5.8s0.9-4.3,2.4-5.8c1.6-1.6,3.6-2.4,5.8-2.4c2.2,0,4.3,0.9,5.8,2.4c1.6,1.6,2.4,3.6,2.4,5.8
	c0,2-0.7,3.8-1.9,5.3l4.7,4.7c0.3,0.3,0.3,0.8,0,1.1C21.4,21.7,21.2,21.8,21,21.8z M10.5,3.7c-1.8,0-3.5,0.7-4.8,2
	c-1.3,1.3-2,3-2,4.8s0.7,3.5,2,4.8c1.3,1.3,3,2,4.8,2s3.5-0.7,4.8-2c0,0,0,0,0,0c1.3-1.3,2-3,2-4.8c0-1.8-0.7-3.5-2-4.8
	C14,4.5,12.3,3.7,10.5,3.7z M10.5,14.3c-0.4,0-0.8-0.3-0.8-0.8v-2.2H7.5c-0.4,0-0.8-0.3-0.8-0.8s0.3-0.8,0.8-0.8h2.2V7.5
	c0-0.4,0.3-0.8,0.8-0.8s0.8,0.3,0.8,0.8v2.2h2.2c0.4,0,0.8,0.3,0.8,0.8s-0.3,0.8-0.8,0.8h-2.2v2.2C11.3,13.9,10.9,14.3,10.5,14.3z"/>
		</symbol>

		<symbol id="gp_icon-zoom-in" viewBox="0 0 24 24">
			<path fill="currentColor" d="M21,21.8c-0.2,0-0.4-0.1-0.5-0.2l-4.7-4.7c-1.5,1.2-3.3,1.9-5.3,1.9c-2.2,0-4.3-0.9-5.8-2.4
	c-1.6-1.6-2.4-3.6-2.4-5.8s0.9-4.3,2.4-5.8c1.6-1.6,3.6-2.4,5.8-2.4c2.2,0,4.3,0.9,5.8,2.4c1.6,1.6,2.4,3.6,2.4,5.8
	c0,2-0.7,3.8-1.9,5.3l4.7,4.7c0.3,0.3,0.3,0.8,0,1.1C21.4,21.7,21.2,21.8,21,21.8z M10.5,3.7c-1.8,0-3.5,0.7-4.8,2
	c-1.3,1.3-2,3-2,4.8s0.7,3.5,2,4.8c1.3,1.3,3,2,4.8,2s3.5-0.7,4.8-2c0,0,0,0,0,0c1.3-1.3,2-3,2-4.8c0-1.8-0.7-3.5-2-4.8
	C14,4.5,12.3,3.7,10.5,3.7z M13.5,11.3h-6c-0.4,0-0.8-0.3-0.8-0.8s0.3-0.8,0.8-0.8h6c0.4,0,0.8,0.3,0.8,0.8S13.9,11.3,13.5,11.3z"/>
		</symbol>

		<symbol id="gp_icon-refresh" viewBox="0 0 24 24">
			<path fill="currentColor" d="M12,21c-0.8,0-1.6-0.1-2.3-0.3c-1.5-0.4-2.9-1.2-4-2.3l-1.9-1.9v3.2c0,0.4-0.3,0.8-0.8,0.8s-0.8-0.3-0.8-0.8v-5
	c0-0.1,0-0.2,0.1-0.3l0,0c0,0,0,0,0,0c0-0.1,0.1-0.2,0.2-0.2c0,0,0,0,0,0c0,0,0,0,0,0c0,0,0,0,0,0c0,0,0,0,0,0c0,0,0,0,0,0
	c0,0,0,0,0,0c0,0,0,0,0,0c0,0,0,0,0,0C2.5,14,2.6,14,2.7,14c0.1,0,0.2-0.1,0.3-0.1h0c0,0,0,0,0,0c0,0,0,0,0,0c0,0,0,0,0,0h5
	c0.4,0,0.8,0.3,0.8,0.8S8.4,15.4,8,15.4H4.8l1.9,1.9c0.9,0.9,2.1,1.6,3.4,1.9c1.3,0.3,2.6,0.3,3.9,0c1.3-0.3,2.4-1,3.4-1.9
	c0.9-0.9,1.6-2.1,1.9-3.4c0.1-0.4,0.5-0.6,0.9-0.5c0.4,0.1,0.6,0.5,0.5,0.9c-0.4,1.5-1.2,2.9-2.3,4c-1.1,1.1-2.5,1.9-4,2.3
	C13.6,20.9,12.8,21,12,21z M4,10.6c-0.1,0-0.1,0-0.2,0c-0.4-0.1-0.6-0.5-0.5-0.9c0.4-1.5,1.2-2.9,2.3-4c1.1-1.1,2.5-1.9,4-2.3
	c1.5-0.4,3.1-0.4,4.7,0c1.5,0.4,2.9,1.2,4,2.3l1.9,1.9V4.4c0-0.4,0.3-0.8,0.8-0.8s0.8,0.3,0.8,0.8v5c0,0.1,0,0.2-0.1,0.3
	c-0.1,0.3-0.4,0.5-0.7,0.5h-5c-0.4,0-0.7-0.3-0.7-0.8s0.3-0.8,0.7-0.8h3.2l-1.9-1.9c-0.9-0.9-2.1-1.6-3.4-1.9
	c-1.3-0.3-2.6-0.3-3.9,0c-1.3,0.3-2.4,1-3.4,1.9c-0.9,0.9-1.6,2.1-1.9,3.4C4.7,10.4,4.4,10.6,4,10.6z"/>
		</symbol>

		<symbol id="gp_icon-eye" viewBox="0 0 18 18">
			<path fill="currentColor" d="M9,15.5c-3.8,0-7.2-2.4-8.4-6.1c0,0,0,0,0,0c-0.1-0.3-0.1-0.6,0-0.8C1.8,4.9,5.2,2.5,9,2.5
	c3.8,0,7.2,2.4,8.4,6.1c0.1,0.3,0.1,0.6,0,0.8C16.2,13.1,12.9,15.5,9,15.5z M1.5,9.1c1.1,3.2,4.1,5.4,7.5,5.4c3.4,0,6.4-2.2,7.5-5.4
	c0-0.1,0-0.1,0-0.2C15.4,5.7,12.4,3.5,9,3.5c-3.4,0-6.4,2.2-7.5,5.4C1.5,9,1.5,9,1.5,9.1L1.5,9.1z M9,11.9c-0.8,0-1.5-0.3-2.1-0.8
	C6.4,10.5,6.1,9.8,6.1,9c0-0.8,0.3-1.5,0.8-2.1c1.1-1.1,3-1.1,4.1,0c0.5,0.5,0.8,1.3,0.8,2.1c0,0.8-0.3,1.5-0.8,2.1
	C10.5,11.6,9.8,11.9,9,11.9z M9,7.1c-0.5,0-1,0.2-1.3,0.6C7.3,8,7.1,8.5,7.1,9c0,0.5,0.2,1,0.6,1.3c0.7,0.7,2,0.7,2.7,0
	c0.4-0.4,0.6-0.8,0.6-1.3c0-0.5-0.2-1-0.6-1.3C10,7.3,9.5,7.1,9,7.1z"/>
		</symbol>

		<symbol id="gp_icon-download" viewBox="0 0 18 18">
			<path fill="currentColor" d="M13.5,15.5h-9c-0.5,0-1-0.2-1.4-0.6c-0.4-0.4-0.6-0.9-0.6-1.4V12c0-0.3,0.2-0.5,0.5-0.5s0.5,0.2,0.5,0.5v1.5
	c0,0.3,0.1,0.5,0.3,0.7c0.2,0.2,0.4,0.3,0.7,0.3h9c0.3,0,0.5-0.1,0.7-0.3c0.2-0.2,0.3-0.4,0.3-0.7V12c0-0.3,0.2-0.5,0.5-0.5
	s0.5,0.2,0.5,0.5v1.5c0,0.5-0.2,1-0.6,1.4C14.6,15.3,14.1,15.5,13.5,15.5z M9,12.5C9,12.5,9,12.5,9,12.5L9,12.5
	C9,12.5,9,12.5,9,12.5C9,12.5,9,12.5,9,12.5L9,12.5c-0.1,0-0.1,0-0.2,0c0,0,0,0,0,0l0,0c-0.1,0-0.1-0.1-0.2-0.1l0,0c0,0,0,0,0,0
	c0,0,0,0,0,0c0,0,0,0,0,0c0,0,0,0,0,0l0,0l0,0l-3-3c-0.2-0.2-0.2-0.5,0-0.7s0.5-0.2,0.7,0l2.1,2.1V3c0-0.3,0.2-0.5,0.5-0.5
	S9.5,2.7,9.5,3v7.8l2.1-2.1c0.2-0.2,0.5-0.2,0.7,0s0.2,0.5,0,0.7l-3,3c0,0,0,0,0,0l0,0c0,0,0,0,0,0l0,0l0,0c0,0-0.1,0.1-0.2,0.1
	C9.2,12.5,9.1,12.5,9,12.5L9,12.5C9,12.5,9,12.5,9,12.5C9,12.5,9,12.5,9,12.5L9,12.5C9,12.5,9,12.5,9,12.5z"/>
		</symbol>

		<symbol id="gp_icon-product-resources" viewBox="0 0 54 58">
			<path fill="currentColor" d="M27,57.6c-0.2,0-0.3,0-0.5-0.1c-0.1,0-0.3-0.1-0.4-0.2c0,0,0,0,0,0L1.3,42.9c-0.5-0.3-0.9-0.9-0.9-1.5V16.6
	c0,0,0,0,0,0c0-0.2,0-0.3,0.1-0.5c0-0.1,0.1-0.3,0.2-0.4c0.1-0.1,0.2-0.3,0.3-0.4c0.1-0.1,0.2-0.2,0.4-0.3c0,0,0,0,0,0L26.1,0.7
	c0.5-0.3,1.2-0.3,1.8,0l24.7,14.4c0,0,0,0,0,0c0.1,0.1,0.3,0.2,0.4,0.3c0.1,0.1,0.2,0.2,0.3,0.4c0.1,0.1,0.1,0.3,0.2,0.4
	c0,0.2,0.1,0.3,0.1,0.5c0,0,0,0,0,0v24.7c0,0.6-0.3,1.2-0.9,1.5L27.9,57.3c0,0,0,0,0,0c-0.1,0.1-0.3,0.1-0.4,0.2
	C27.3,57.6,27.2,57.6,27,57.6C27,57.6,27,57.6,27,57.6z M4,40.4l21.3,12.4V32.1L4,19.7V40.4z M28.8,32.1v20.7L50,40.4V19.7
	L28.8,32.1z M5.7,16.6L27,29l21.3-12.4L27,4.2L5.7,16.6z"//>
		</symbol>

		<symbol id="gp_icon-more" viewBox="0 0 32 32">
			<path fill="currentColor" d="M16 3C13.4288 3 10.9154 3.76244 8.77759 5.1909C6.63975 6.61935 4.97351 8.64968 3.98957 11.0251C3.00563 13.4006 2.74819 16.0144 3.2498 18.5362C3.75141 21.0579 4.98953 23.3743 6.80762 25.1924C8.6257 27.0105 10.9421 28.2486 13.4638 28.7502C15.9856 29.2518 18.5995 28.9944 20.9749 28.0104C23.3503 27.0265 25.3807 25.3603 26.8091 23.2224C28.2376 21.0846 29 18.5712 29 16C28.9964 12.5533 27.6256 9.24882 25.1884 6.81163C22.7512 4.37445 19.4467 3.00364 16 3ZM16 27C13.8244 27 11.6977 26.3549 9.88873 25.1462C8.07979 23.9375 6.66989 22.2195 5.83733 20.2095C5.00477 18.1995 4.78693 15.9878 5.21137 13.854C5.63581 11.7202 6.68345 9.7602 8.22183 8.22183C9.76021 6.68345 11.7202 5.6358 13.854 5.21136C15.9878 4.78692 18.1995 5.00476 20.2095 5.83733C22.2195 6.66989 23.9375 8.07979 25.1462 9.88873C26.3549 11.6977 27 13.8244 27 16C26.9967 18.9164 25.8367 21.7123 23.7745 23.7745C21.7123 25.8367 18.9164 26.9967 16 27ZM17.5 16C17.5 16.2967 17.412 16.5867 17.2472 16.8334C17.0824 17.08 16.8481 17.2723 16.574 17.3858C16.2999 17.4993 15.9983 17.5291 15.7074 17.4712C15.4164 17.4133 15.1491 17.2704 14.9393 17.0607C14.7296 16.8509 14.5867 16.5836 14.5288 16.2926C14.471 16.0017 14.5007 15.7001 14.6142 15.426C14.7277 15.1519 14.92 14.9176 15.1667 14.7528C15.4133 14.588 15.7033 14.5 16 14.5C16.3978 14.5 16.7794 14.658 17.0607 14.9393C17.342 15.2206 17.5 15.6022 17.5 16ZM17.5 10.5C17.5 10.7967 17.412 11.0867 17.2472 11.3334C17.0824 11.58 16.8481 11.7723 16.574 11.8858C16.2999 11.9994 15.9983 12.0291 15.7074 11.9712C15.4164 11.9133 15.1491 11.7704 14.9393 11.5607C14.7296 11.3509 14.5867 11.0836 14.5288 10.7926C14.471 10.5017 14.5007 10.2001 14.6142 9.92597C14.7277 9.65189 14.92 9.41762 15.1667 9.2528C15.4133 9.08797 15.7033 9 16 9C16.3978 9 16.7794 9.15804 17.0607 9.43934C17.342 9.72064 17.5 10.1022 17.5 10.5ZM17.5 21.5C17.5 21.7967 17.412 22.0867 17.2472 22.3334C17.0824 22.58 16.8481 22.7723 16.574 22.8858C16.2999 22.9993 15.9983 23.0291 15.7074 22.9712C15.4164 22.9133 15.1491 22.7704 14.9393 22.5607C14.7296 22.3509 14.5867 22.0836 14.5288 21.7926C14.471 21.5017 14.5007 21.2001 14.6142 20.926C14.7277 20.6519 14.92 20.4176 15.1667 20.2528C15.4133 20.088 15.7033 20 16 20C16.3978 20 16.7794 20.158 17.0607 20.4393C17.342 20.7206 17.5 21.1022 17.5 21.5Z"/>
		</symbol>

		<symbol id="gp_icon-close" viewBox="0 0 32 32">
			<path fill="currentColor" d="M24,25.3c-0.3,0-0.6-0.1-0.9-0.4L16,17.8l-7.1,7.1c-0.5,0.5-1.3,0.5-1.8,0s-0.5-1.3,0-1.8l7.1-7.1L7.1,8.9
	c-0.5-0.5-0.5-1.3,0-1.8s1.3-0.5,1.8,0l7.1,7.1l7.1-7.1c0.5-0.5,1.3-0.5,1.8,0s0.5,1.3,0,1.8L17.8,16l7.1,7.1c0.5,0.5,0.5,1.3,0,1.8
	C24.6,25.1,24.3,25.3,24,25.3z"/>
		</symbol>

		<symbol id="gp_icon-" viewBox="0 0 24 24">
			<path fill="currentColor" />
		</symbol>

		<symbol id="gp_icon-" viewBox="0 0 24 24">
			<path fill="currentColor" />
		</symbol>

		<symbol id="gp_icon-" viewBox="0 0 24 24">
			<path fill="currentColor" />
		</symbol>

		<symbol id="gp_icon-" viewBox="0 0 24 24">
			<path fill="currentColor" />
		</symbol>

		
	</defs>
</svg>
