<svg width="160" height="160" viewBox="0 0 160 160" fill="none" xmlns="http://www.w3.org/2000/svg">
<path d="M154 80C154 120.869 120.869 154 80 154C39.1309 154 6 120.869 6 80C6 39.1309 39.1309 6 80 6C120.869 6 154 39.1309 154 80Z" stroke="#E3E3E3" stroke-width="12"/>
<path d="M2.58746 59.7411L14.1986 62.7713C12.7441 68.3443 12 74.1176 12 80C12 117.555 42.4446 148 80 148C117.555 148 148 117.555 148 80C148 42.4446 117.555 12 80 12V0C124.183 0 160 35.8172 160 80C160 124.183 124.183 160 80 160C35.8172 160 0 124.183 0 80C0 73.0007 0.898864 66.2114 2.58746 59.7411Z" fill="#3D95B7"/>
<path d="M42.5059 94.6L50.1859 76.04H41.6259V70.24H58.3859V76.84L49.9059 97.68L42.5059 94.6ZM70.0188 97.28C67.0321 97.28 64.1788 96.3867 61.4588 94.6L63.3388 89.36C64.3788 89.9467 65.3521 90.3867 66.2588 90.68C67.1921 90.9467 68.1388 91.08 69.0988 91.08C70.8321 91.08 72.1521 90.52 73.0588 89.4C73.9921 88.28 74.5654 86.5067 74.7788 84.08C73.2854 85.9467 71.2321 86.88 68.6188 86.88C66.0321 86.88 64.0188 86.1467 62.5788 84.68C61.1388 83.2133 60.4188 81.24 60.4188 78.76C60.4188 77.1333 60.8721 75.64 61.7788 74.28C62.6854 72.92 63.9254 71.84 65.4988 71.04C67.0721 70.24 68.8188 69.84 70.7388 69.84C73.1388 69.84 75.2321 70.3733 77.0188 71.44C78.8321 72.48 80.2321 73.9733 81.2188 75.92C82.2054 77.8667 82.6988 80.1467 82.6988 82.76C82.6988 85.5333 82.1521 88.0267 81.0588 90.24C79.9921 92.4267 78.4988 94.1467 76.5788 95.4C74.6588 96.6533 72.4721 97.28 70.0188 97.28ZM71.2588 81.88C72.3521 81.88 73.4721 81.64 74.6188 81.16C74.5654 79.32 74.2054 77.9333 73.5388 77C72.8988 76.04 71.9788 75.56 70.7788 75.56C69.8454 75.56 69.0854 75.8667 68.4988 76.48C67.9121 77.0667 67.6188 77.8533 67.6188 78.84C67.6188 79.8 67.9388 80.5467 68.5788 81.08C69.2188 81.6133 70.1121 81.88 71.2588 81.88ZM92.2625 84.68C90.7692 84.68 89.4758 84.3333 88.3825 83.64C87.2892 82.92 86.4492 81.9733 85.8625 80.8C85.3025 79.6 85.0225 78.2933 85.0225 76.88C85.0225 75.36 85.3292 74.0133 85.9425 72.84C86.5825 71.64 87.4625 70.72 88.5825 70.08C89.7025 69.4133 90.9692 69.08 92.3825 69.08C93.9025 69.08 95.1958 69.4533 96.2625 70.2C97.3558 70.9467 98.1825 71.92 98.7425 73.12C99.3025 74.32 99.5825 75.5733 99.5825 76.88C99.5825 78.4 99.2758 79.76 98.6625 80.96C98.0492 82.1333 97.1825 83.0533 96.0625 83.72C94.9425 84.36 93.6758 84.68 92.2625 84.68ZM108.743 69.48H114.343L94.7425 97H89.1425L108.743 69.48ZM92.2625 80.76C93.0625 80.76 93.6492 80.3733 94.0225 79.6C94.4225 78.8 94.6225 77.8933 94.6225 76.88C94.6225 75.84 94.4092 74.9467 93.9825 74.2C93.5558 73.4533 92.9825 73.08 92.2625 73.08C91.4892 73.08 90.9158 73.4533 90.5425 74.2C90.1692 74.9467 89.9825 75.84 89.9825 76.88C89.9825 77.9467 90.1825 78.8667 90.5825 79.64C91.0092 80.3867 91.5692 80.76 92.2625 80.76ZM111.223 97.4C109.729 97.4 108.436 97.0667 107.343 96.4C106.249 95.7067 105.409 94.7733 104.823 93.6C104.236 92.4 103.943 91.0533 103.943 89.56C103.943 88.0667 104.249 86.7333 104.863 85.56C105.503 84.36 106.369 83.4267 107.463 82.76C108.583 82.0667 109.836 81.72 111.223 81.72C112.663 81.72 113.929 82.1067 115.023 82.88C116.143 83.6267 116.996 84.6267 117.583 85.88C118.169 87.1067 118.463 88.4133 118.463 89.8C118.463 91.2933 118.156 92.6267 117.543 93.8C116.929 94.9467 116.076 95.84 114.983 96.48C113.889 97.0933 112.636 97.4 111.223 97.4ZM111.223 93.4C111.969 93.4 112.529 93.0133 112.903 92.24C113.303 91.44 113.503 90.5467 113.503 89.56C113.503 88.52 113.289 87.64 112.863 86.92C112.463 86.1733 111.916 85.8 111.223 85.8C110.476 85.8 109.903 86.1733 109.503 86.92C109.103 87.64 108.903 88.52 108.903 89.56C108.903 90.6267 109.103 91.5333 109.503 92.28C109.929 93.0267 110.503 93.4 111.223 93.4Z" fill="#333333"/>
</svg>
