<svg width="40" height="48" viewBox="0 0 40 48" fill="none" xmlns="http://www.w3.org/2000/svg">
<path fill-rule="evenodd" clip-rule="evenodd" d="M18.704 3.914V0H21.446V3.928C20.962 3.884 20.478 3.858 19.994 3.858C19.564 3.858 19.134 3.878 18.704 3.914ZM32 18.402C32 22.1822 30.1972 25.3145 28.5011 28.2615C26.9944 30.8792 25.572 33.3506 25.572 36H21.594C21.588 32.284 23.334 29.222 25.036 26.266L25.0473 26.2464C26.5651 23.6037 28 21.1053 28 18.402C28 13.218 23.85 10.858 19.994 10.858C16.144 10.858 12 13.218 12 18.402C12 21.1053 13.4349 23.6037 14.9528 26.2464L14.964 26.266C16.666 29.222 18.414 32.284 18.404 36H14.428C14.428 33.3506 13.0056 30.8792 11.4989 28.2615C9.80281 25.3145 8 22.1822 8 18.402C8 10.956 13.996 6.858 19.994 6.858C25.996 6.858 32 10.96 32 18.402ZM24 38H16C15.448 38 15 38.448 15 39C15 39.552 15.448 40 16 40H24C24.552 40 25 39.552 25 39C25 38.448 24.552 38 24 38ZM24 42H16C15.448 42 15 42.448 15 43C15 43.552 15.448 44 16 44H24C24.552 44 25 43.552 25 43C25 42.448 24.552 42 24 42ZM15.5 46H24.5L22.126 47.564C21.818 47.84 21.364 48 20.896 48H19.106C18.636 48 18.184 47.84 17.876 47.564L15.5 46ZM40 19.764V17.022H34.93C34.966 17.474 35 17.928 35 18.402C35 18.868 34.964 19.318 34.924 19.764H40ZM9.138 2.622L11.218 6.502C11.984 5.994 12.792 5.554 13.628 5.192L11.554 1.326L9.138 2.622ZM32.39 9.972L36.274 7.184L37.872 9.414L33.764 12.36C33.382 11.5 32.918 10.706 32.39 9.972ZM28.446 1.326L26.37 5.194C27.208 5.558 28.016 5.996 28.78 6.504L30.862 2.622L28.446 1.326ZM6.234 12.36L2.126 9.416L3.724 7.186L7.608 9.972C7.08 10.704 6.618 11.498 6.234 12.36ZM38.356 26.714L33.648 24.806C33.294 25.668 32.898 26.498 32.478 27.292L37.328 29.256L38.356 26.714ZM6.276 24.63C6.622 25.496 7.018 26.32 7.432 27.116L2.72 29.236L1.596 26.734L6.276 24.63ZM0 19.764H5.076C5.036 19.318 5 18.868 5 18.402C5 17.928 5.034 17.472 5.07 17.02H0V19.764Z" fill="#333333"/>
</svg>
