<svg width="48" height="44" viewBox="0 0 48 44" fill="none" xmlns="http://www.w3.org/2000/svg">
<path fill-rule="evenodd" clip-rule="evenodd" d="M7 30.686L9.14 35.1L14 35.77L10.462 39.17L11.326 44L7 41.686L2.674 44L3.538 39.17L0 35.77L4.86 35.1L7 30.686ZM24 30.686L26.14 35.1L31 35.77L27.462 39.17L28.326 44L24 41.686L19.674 44L20.538 39.17L17 35.77L21.86 35.1L24 30.686ZM41 30.686L43.14 35.1L48 35.77L44.462 39.17L45.326 44L41 41.686L36.674 44L37.538 39.17L34 35.77L38.86 35.1L41 30.686ZM39.014 24H38.994C39.038 14.188 34.502 18.456 34.502 10.648C34.502 7.634 36.468 6 38.998 6C42.736 6 45.336 9.574 41.796 16.258C40.634 18.456 43.036 18.976 45.616 19.572C47.852 20.088 48 21.182 48 23.074V28H39.014V24ZM0 28V23.074C0 21.182 0.148 20.088 2.384 19.572C4.964 18.976 7.366 18.456 6.204 16.258C2.664 9.574 5.264 6 9.002 6C11.532 6 13.498 7.634 13.498 10.648C13.498 18.456 8.962 14.188 9.006 24H9.016V28H0ZM12 28V22.754C12 20.238 12.2 18.784 15.176 18.096C18.544 17.318 21.864 16.624 20.266 13.678C15.534 4.95 18.918 0 23.998 0C28.98 0 32.45 4.766 27.73 13.678C26.18 16.606 29.382 17.302 32.82 18.096C35.8 18.784 35.998 20.24 35.998 22.762L36 28H12Z" fill="#333333"/>
</svg>
