<svg width="48" height="48" viewBox="0 0 48 48" fill="none" xmlns="http://www.w3.org/2000/svg">
<path fill-rule="evenodd" clip-rule="evenodd" d="M10.8869 39.0462C6.71882 35.4063 4.04679 30.0886 4.00079 24.153C3.91279 13.1335 12.8129 4.09404 23.841 4.00404C31.517 3.96204 36.7991 7.81384 36.8331 10.8977L40.1591 7.98583C38.1391 3.54007 31.7951 -0.103739 23.807 0.00225547C10.5609 0.11225 -0.103247 10.9337 0.000754275 24.185C0.0467547 30.0086 2.16677 35.3244 5.64681 39.4541C7.56283 40.4381 9.89285 40.1121 10.8869 39.0462ZM47.8232 9.93972C47.8232 9.93972 38.9851 24.9569 36.1311 29.4347C34.0861 32.648 32.8412 33.1518 29.3017 34.5841L29.3011 34.5844C28.9394 34.7307 28.5538 34.8868 28.141 35.0564L24.781 32.2565C24.8731 31.8182 24.9567 31.4092 25.0352 31.0258C25.8019 27.2785 26.0714 25.961 28.851 23.363C32.7291 19.7412 45.8732 8.31381 45.8732 8.31381C46.9652 7.39386 48.5292 8.69379 47.8232 9.93972ZM28.031 16.0014C30.239 15.9874 32.0091 14.1755 32.0011 11.9716C31.9811 9.76773 30.173 7.99382 27.971 8.00582C25.757 8.02382 23.979 9.82373 24.001 12.0356C24.015 14.2435 25.819 16.0214 28.031 16.0014ZM16.0389 19.9992C13.8309 20.0152 12.0229 18.2393 12.0089 16.0254C11.9909 13.8195 13.7629 12.0176 15.9769 12.0036C18.1809 11.9836 19.9929 13.7575 20.0009 15.9674C20.0249 18.1813 18.2409 19.9792 16.0389 19.9992ZM17.9949 27.9707C18.0149 30.1786 16.2349 31.9865 14.0229 32.0005C11.8129 32.0185 10.0128 30.2406 10.0008 28.0327C9.98085 25.8229 11.7589 24.023 13.9649 24.001C16.1769 23.987 17.9829 25.7669 17.9949 27.9707ZM8.00083 43.6639C12.7386 44.0564 14.1533 41.6476 15.5826 39.2138C16.921 36.9348 18.2724 34.6339 22.377 34.5904L26.053 37.6582C26.969 48.7316 13.4229 51.2015 8.00083 43.6639ZM29.391 43.2179C33.7791 41.974 38.5991 39.1741 36.4811 35.2344C37.3811 34.4564 38.2571 33.4325 39.1751 32.0625C44.7652 39.2321 37.1531 46.6577 26.643 47.8397C27.785 46.6597 28.783 45.0418 29.391 43.2179Z" fill="#333333"/>
</svg>
