<svg width="48" height="48" viewBox="0 0 48 48" fill="none" xmlns="http://www.w3.org/2000/svg">
<path fill-rule="evenodd" clip-rule="evenodd" d="M17.4098 23.8621C19.2703 26.7172 20.8458 29.1351 21.208 32H26.816C27.1775 29.1351 28.7496 26.7173 30.606 23.8622C33.8649 18.8502 38 12.4907 38 0H10C10 12.4906 14.1439 18.8501 17.4098 23.8621ZM13.746 22.878C13.152 21.774 12.554 20.588 11.982 19.312C6.152 16.268 3.908 10.812 3.054 6.81H8.432C8.314 5.91 8.226 4.964 8.154 4H0C0.744 12.21 5.616 20.182 13.746 22.878ZM14.7 4C15.11 13.296 18.68 20.666 23.392 26.106C19.618 19.586 18.12 11.242 18.098 4H14.7ZM34 48V39.238C30.004 39.238 27.26 36.374 26.874 34H21.142C20.738 36.372 17.882 39.238 14 39.238V48H34ZM32 42H16V46H32V42ZM39.568 6.81C39.686 5.91 39.774 4.964 39.846 4H48C47.256 12.21 42.384 20.182 34.252 22.878C34.846 21.774 35.444 20.588 36.016 19.312C41.846 16.268 44.09 10.812 44.944 6.81H39.568Z" fill="#333333"/>
</svg>
